<svg width="32" height="32" viewBox="0 0 32 32" fill="none" xmlns="http://www.w3.org/2000/svg">
<path fill-rule="evenodd" clip-rule="evenodd" d="M1 16C1 15.2469 1.61052 14.6364 2.36364 14.6364H29.6364C30.3895 14.6364 31 15.2469 31 16C31 16.7531 30.3895 17.3636 29.6364 17.3636H2.36364C1.61052 17.3636 1 16.7531 1 16Z" fill="white"/>
<path fill-rule="evenodd" clip-rule="evenodd" d="M16 1C16.7532 1 17.3637 1.61052 17.3637 2.36364V29.6364C17.3637 30.3895 16.7532 31 16 31C15.2469 31 14.6364 30.3895 14.6364 29.6364V2.36364C14.6364 1.61052 15.2469 1 16 1Z" fill="white"/>
<path fill-rule="evenodd" clip-rule="evenodd" d="M27.8733 9.58122C28.4059 10.1138 28.4059 10.9772 27.8733 11.5097L23.383 16L27.8733 20.4903C28.4059 21.0228 28.4059 21.8863 27.8733 22.4188C27.3408 22.9513 26.4774 22.9513 25.9449 22.4188L20.4903 16.9642C19.9578 16.4317 19.9578 15.5683 20.4903 15.0358L25.9449 9.58122C26.4774 9.04869 27.3408 9.04869 27.8733 9.58122Z" fill="white"/>
<path fill-rule="evenodd" clip-rule="evenodd" d="M4.12673 9.58122C4.65926 9.04869 5.52267 9.04869 6.0552 9.58122L11.5097 15.0358C12.0423 15.5683 12.0423 16.4317 11.5097 16.9642L6.0552 22.4188C5.52267 22.9513 4.65926 22.9513 4.12673 22.4188C3.59419 21.8863 3.59419 21.0228 4.12673 20.4903L8.61703 16L4.12673 11.5097C3.59419 10.9772 3.59419 10.1138 4.12673 9.58122Z" fill="white"/>
<path fill-rule="evenodd" clip-rule="evenodd" d="M9.58126 4.12669C10.1138 3.59416 10.9772 3.59416 11.5097 4.12669L16 8.617L20.4904 4.12669C21.0229 3.59416 21.8863 3.59416 22.4188 4.12669C22.9514 4.65923 22.9514 5.52263 22.4188 6.05517L16.9643 11.5097C16.4317 12.0422 15.5683 12.0422 15.0358 11.5097L9.58126 6.05517C9.04873 5.52263 9.04873 4.65923 9.58126 4.12669Z" fill="white"/>
<path fill-rule="evenodd" clip-rule="evenodd" d="M15.0358 20.4903C15.5683 19.9578 16.4317 19.9578 16.9643 20.4903L22.4188 25.9449C22.9514 26.4774 22.9514 27.3408 22.4188 27.8734C21.8863 28.4059 21.0229 28.4059 20.4904 27.8734L16 23.3831L11.5097 27.8734C10.9772 28.4059 10.1138 28.4059 9.58126 27.8734C9.04873 27.3408 9.04873 26.4774 9.58126 25.9449L15.0358 20.4903Z" fill="white"/>
</svg>
