<svg width="24" height="24" viewBox="0 0 24 24" fill="none" xmlns="http://www.w3.org/2000/svg">
<g clip-path="url(#clip0_835_28149)">
<path d="M12.0001 0C5.3735 0 0 5.50144 0 12.2881C0 17.7173 3.43839 22.3234 8.2064 23.9482C8.80613 24.062 9.0263 23.6817 9.0263 23.3571C9.0263 23.0641 9.01518 22.0961 9.01001 21.0693C5.67157 21.8127 4.96712 19.6195 4.96712 19.6195C4.42125 18.1992 3.63473 17.8215 3.63473 17.8215C2.54596 17.0588 3.7168 17.0745 3.7168 17.0745C4.92181 17.1612 5.55632 18.3408 5.55632 18.3408C6.6266 20.2194 8.36359 19.6763 9.04836 19.3623C9.15607 18.5681 9.46706 18.026 9.81024 17.7191C7.14486 17.4084 4.34295 16.3548 4.34295 11.6463C4.34295 10.3047 4.81172 9.20855 5.57937 8.34801C5.45477 8.0385 5.04402 6.78869 5.69562 5.0961C5.69562 5.0961 6.70331 4.76584 8.9965 6.35568C9.95372 6.08341 10.9803 5.94687 12.0001 5.94219C13.0199 5.94687 14.0473 6.08341 15.0063 6.35568C17.2967 4.76584 18.303 5.0961 18.303 5.0961C18.9562 6.78869 18.5452 8.0385 18.4206 8.34801C19.1901 9.20855 19.6557 10.3047 19.6557 11.6463C19.6557 16.366 16.8484 17.4052 14.1762 17.7094C14.6067 18.0907 14.9902 18.8385 14.9902 19.985C14.9902 21.6291 14.9763 22.9524 14.9763 23.3571C14.9763 23.6841 15.1923 24.0673 15.8006 23.9466C20.566 22.32 24 17.7155 24 12.2881C24 5.50144 18.6273 0 12.0001 0ZM4.49443 17.5047C4.468 17.5657 4.3742 17.584 4.28876 17.5421C4.20172 17.502 4.15283 17.4188 4.18105 17.3575C4.20688 17.2947 4.30088 17.2772 4.38772 17.3193C4.47495 17.3594 4.52463 17.4434 4.49443 17.5047ZM5.0847 18.044C5.02747 18.0983 4.91559 18.0731 4.83968 17.9872C4.76119 17.9016 4.74648 17.787 4.80451 17.7318C4.86353 17.6775 4.97203 17.7029 5.05072 17.7886C5.12921 17.8753 5.14451 17.9891 5.0847 18.044ZM5.48965 18.734C5.41612 18.7863 5.2959 18.7373 5.22158 18.628C5.14805 18.5188 5.14805 18.3877 5.22317 18.3352C5.29769 18.2827 5.41612 18.3299 5.49144 18.4384C5.56476 18.5495 5.56476 18.6805 5.48965 18.734ZM6.1745 19.5332C6.10873 19.6075 5.96863 19.5876 5.86609 19.4862C5.76117 19.3871 5.73196 19.2465 5.79793 19.1722C5.8645 19.0978 6.00539 19.1187 6.10873 19.2193C6.21285 19.3181 6.24465 19.4598 6.1745 19.5332ZM7.05961 19.803C7.0306 19.8993 6.89567 19.943 6.75975 19.9021C6.62402 19.86 6.5352 19.7473 6.56262 19.65C6.59084 19.5531 6.72636 19.5076 6.86328 19.5513C6.9988 19.5932 7.08783 19.7052 7.05961 19.803ZM8.0669 19.9175C8.07028 20.0188 7.95502 20.1028 7.81235 20.1047C7.66887 20.1079 7.55282 20.0259 7.55123 19.9262C7.55123 19.8239 7.6639 19.7406 7.80738 19.7382C7.95006 19.7353 8.0669 19.8167 8.0669 19.9175ZM9.05645 19.8786C9.07354 19.9775 8.97438 20.0791 8.8327 20.1061C8.6934 20.1322 8.56443 20.0711 8.54674 19.973C8.52945 19.8717 8.6304 19.7702 8.7695 19.7439C8.91139 19.7187 9.03837 19.7781 9.05645 19.8786Z" fill="white"/>
</g>
<defs>
<clipPath id="clip0_835_28149">
<rect width="24" height="24" fill="white"/>
</clipPath>
</defs>
</svg>
