<svg width="32" height="32" viewBox="0 0 32 32" fill="none" xmlns="http://www.w3.org/2000/svg">
<g clip-path="url(#clip0_2038_6776)">
<path d="M15.2637 17.3613C15.2637 17.7285 15.2305 18.0781 15.1641 18.4102C15.0977 18.7383 15.002 19.043 14.877 19.3242C14.7441 19.6055 14.5801 19.8633 14.3848 20.0977C14.1895 20.332 13.9668 20.5273 13.7168 20.6836C13.4902 20.8203 13.2402 20.9258 12.9668 21C12.6973 21.0781 12.4062 21.1172 12.0938 21.1172C11.7617 21.1172 11.4551 21.0742 11.1738 20.9883C10.8926 20.9023 10.6367 20.7812 10.4062 20.625C10.1797 20.4609 9.97656 20.2637 9.79688 20.0332C9.61719 19.7988 9.4668 19.5352 9.3457 19.2422C9.23633 18.9727 9.15234 18.6797 9.09375 18.3633C9.03906 18.0469 9.01172 17.7129 9.01172 17.3613V16.1191C9.01172 15.7441 9.04297 15.3887 9.10547 15.0527C9.17188 14.7168 9.26758 14.4062 9.39258 14.1211C9.51367 13.8516 9.66016 13.6074 9.83203 13.3887C10.0078 13.1699 10.209 12.9824 10.4355 12.8262C10.6582 12.6738 10.9082 12.5566 11.1855 12.4746C11.4629 12.3926 11.7637 12.3516 12.0879 12.3516C12.416 12.3516 12.7227 12.3945 13.0078 12.4805C13.2969 12.5625 13.5566 12.6816 13.7871 12.8379C14.0176 12.9863 14.2188 13.166 14.3906 13.377C14.5664 13.5879 14.7168 13.8203 14.8418 14.0742C14.9785 14.3633 15.082 14.6797 15.1523 15.0234C15.2266 15.3672 15.2637 15.7324 15.2637 16.1191V17.3613ZM13.5938 16.1074C13.5938 15.8887 13.582 15.6816 13.5586 15.4863C13.5391 15.2871 13.5059 15.1035 13.459 14.9355C13.4004 14.7246 13.3223 14.5371 13.2246 14.373C13.127 14.2051 13.0117 14.0684 12.8789 13.9629C12.7734 13.8848 12.6543 13.8242 12.5215 13.7812C12.3926 13.7383 12.248 13.7168 12.0879 13.7168C11.9355 13.7168 11.7969 13.7363 11.6719 13.7754C11.5508 13.8145 11.4414 13.8711 11.3438 13.9453C11.2109 14.0547 11.0977 14.1914 11.0039 14.3555C10.9141 14.5195 10.8438 14.7109 10.793 14.9297C10.7539 15.0977 10.7246 15.2812 10.7051 15.4805C10.6895 15.6797 10.6816 15.8887 10.6816 16.1074V17.3613C10.6816 17.5684 10.6895 17.7676 10.7051 17.959C10.7207 18.1504 10.748 18.3281 10.7871 18.4922C10.8301 18.6992 10.8926 18.8887 10.9746 19.0605C11.0605 19.2285 11.1602 19.3652 11.2734 19.4707C11.3789 19.5645 11.498 19.6367 11.6309 19.6875C11.7676 19.7383 11.9219 19.7637 12.0938 19.7637C12.2578 19.7637 12.4082 19.7402 12.5449 19.6934C12.6816 19.6465 12.8027 19.5781 12.9082 19.4883C13.041 19.3789 13.1523 19.2422 13.2422 19.0781C13.3359 18.9102 13.4102 18.7207 13.4648 18.5098C13.5078 18.3457 13.5391 18.166 13.5586 17.9707C13.582 17.7754 13.5938 17.5723 13.5938 17.3613V16.1074ZM19.5605 17.4961L18.6582 18.4863V21H17.0059V12.4688H18.6582V16.377L19.4316 15.334L21.5059 12.4688H23.5215L20.6504 16.2422L23.627 21H21.6699L19.5605 17.4961Z" fill="white"/>
</g>
<defs>
<clipPath id="clip0_2038_6776">
<rect width="32" height="32" fill="white"/>
</clipPath>
</defs>
</svg>
