<svg width="24" height="24" viewBox="0 0 24 24" fill="none" xmlns="http://www.w3.org/2000/svg">
<g id="Communication / Chat_Circle">
<path id="Vector" d="M21 12C21 16.9706 16.9706 21 12 21C10.2289 21 8.57736 20.4884 7.18497 19.605L3 21L4.39499 16.815C3.51156 15.4226 3 13.7711 3 12C3 7.02944 7.02944 3 12 3C16.9706 3 21 7.02944 21 12Z" stroke="#F63F3F" stroke-width="1.5" stroke-linecap="round" stroke-linejoin="round"/>
<g id="Icon">
<path d="M12.0246 7.33594C12.6271 7.33594 13.1155 7.8334 13.1155 8.44705V11.7804C13.1155 12.394 12.6271 12.8915 12.0246 12.8915C11.422 12.8915 10.9336 12.394 10.9336 11.7804V8.44705C10.9336 7.8334 11.422 7.33594 12.0246 7.33594Z" fill="#F63F3F"/>
<path d="M12.0246 14.0026C11.422 14.0026 10.9336 14.5001 10.9336 15.1137C10.9336 15.7274 11.422 16.2248 12.0246 16.2248C12.6271 16.2248 13.1155 15.7274 13.1155 15.1137C13.1155 14.5001 12.6271 14.0026 12.0246 14.0026Z" fill="#F63F3F"/>
</g>
</g>
</svg>
