<svg width="41" height="15" viewBox="0 0 41 15" fill="none" xmlns="http://www.w3.org/2000/svg">
<path d="M6.1875 15H4.75H3.3125H1.875V13.5625H0.4375V12.125V10.6875H1.875H3.3125V12.125H4.75H6.1875V10.6875H4.75V9.25H3.3125H1.875V7.8125H0.4375V6.375V4.9375V3.5H1.875V2.0625H3.3125H4.75H6.1875H7.625V3.5H9.0625V4.9375V6.375H7.625H6.1875V4.9375H4.75H3.3125V6.375H4.75V7.8125H6.1875H7.625V9.25H9.0625V10.6875V12.125V13.5625H7.625V15H6.1875ZM18.1875 15H16.75H15.3125H13.875H12.4375V13.5625H11V12.125V10.6875V9.25V7.8125V6.375V4.9375H12.4375V3.5H13.875H15.3125H16.75H18.1875V4.9375H19.625V6.375V7.8125V9.25V10.6875H18.1875H16.75H15.3125H13.875V12.125H15.3125H16.75H18.1875H19.625V13.5625V15H18.1875ZM15.3125 7.8125H16.75V6.375H15.3125H13.875V7.8125H15.3125ZM28.75 15H27.3125V13.5625V12.125V10.6875V9.25V7.8125V6.375H25.875H24.4375V7.8125V9.25V10.6875V12.125V13.5625V15H23H21.5625V13.5625V12.125V10.6875V9.25V7.8125V6.375V4.9375V3.5H23H24.4375H25.875H27.3125H28.75V4.9375H30.1875V6.375V7.8125V9.25V10.6875V12.125V13.5625V15H28.75ZM39.3125 15H37.875H36.4375H35H33.5625V13.5625H32.125V12.125V10.6875V9.25V7.8125V6.375V4.9375H33.5625V3.5H35H36.4375H37.875V2.0625V0.625H39.3125H40.75V2.0625V3.5V4.9375V6.375V7.8125V9.25V10.6875V12.125V13.5625V15H39.3125ZM36.4375 12.125H37.875V10.6875V9.25V7.8125V6.375H36.4375H35V7.8125V9.25V10.6875V12.125H36.4375Z" fill="white"/>
</svg>
