<svg width="43" height="24" viewBox="0 0 43 24" fill="none" xmlns="http://www.w3.org/2000/svg">
<path d="M25.9998 5C25.9998 5.40907 25.9297 5.80176 25.8007 6.16667L29.4998 6.16667C30.1442 6.16667 30.6665 6.689 30.6665 7.33333V11.0325C30.3016 10.9035 29.9089 10.8333 29.4998 10.8333C27.5668 10.8333 25.9998 12.4003 25.9998 14.3333C25.9998 16.2663 27.5668 17.8333 29.4998 17.8333C29.9089 17.8333 30.3016 17.7632 30.6665 17.6342V21.3333C30.6665 21.9777 30.1442 22.5 29.4998 22.5H15.4998C14.8555 22.5 14.3332 21.9777 14.3332 21.3333V17.6342C13.9683 17.7632 13.5756 17.8333 13.1665 17.8333C11.2335 17.8333 9.6665 16.2663 9.6665 14.3333C9.6665 12.4003 11.2335 10.8333 13.1665 10.8333C13.5756 10.8333 13.9683 10.9035 14.3332 11.0325V7.33333C14.3332 6.689 14.8555 6.16667 15.4998 6.16667L19.199 6.16667C19.07 5.80176 18.9998 5.40907 18.9998 5C18.9998 3.067 20.5668 1.5 22.4998 1.5C24.4328 1.5 25.9998 3.067 25.9998 5Z" stroke="#999999" stroke-width="1.5" stroke-linecap="round" stroke-linejoin="round"/>
</svg>
