<svg width="64" height="64" viewBox="0 0 64 64" fill="none" xmlns="http://www.w3.org/2000/svg">
<g clip-path="url(#clip0_2210_8207)">
<path fill-rule="evenodd" clip-rule="evenodd" d="M21.858 5H23.0483V6.19035H21.858V5ZM21.8553 6.18883H20.6649V7.37918H21.8553V6.18883ZM19.4718 7.38192H20.6622V8.57075V8.57226V9.7611H19.4733H19.4718H18.2845H18.283H17.0957H17.0942H15.9068H15.9053H14.7165V8.57075H15.9053V7.38192H17.0957V8.57075H18.283H18.2845H19.4718V7.38192ZM13.5192 9.76383H14.7095V10.9527V10.9542V12.143H13.5249H13.5192H12.3346V10.9527H13.5192V9.76383ZM4 10.9527H5.18883H5.19035H6.37918V12.143H5.19035V13.3318H4V12.143V12.1415V10.9527ZM4 13.3346H5.19035V14.5234V14.5249V15.7122V15.7138V16.9026H4V15.7138V15.7122V14.5249V14.5234V13.3346ZM4 28.8107H5.18883H5.19035H6.37918V30.001H5.19035H5.18883H4V28.8107ZM5.19035 19.2872H4V20.4761V20.4776V21.6649V21.6664V22.8553H5.19035V21.6664V21.6649V20.4776V20.4761V19.2872ZM6.38192 19.2872H7.57226V20.4761V20.4776V21.6649V21.6664V22.8553H6.38192V21.6664V21.6649V20.4776V20.4761V19.2872ZM7.57226 18.0942H6.38192V19.2845H7.57226V18.0942ZM25.4287 19.2872H26.6191V20.4761V20.4776V21.6649V21.6664V22.8553H25.4287V21.6664V21.6649V20.4776V20.4761V19.2872ZM26.6191 18.0942H25.4287V19.2845H26.6191V18.0942ZM31.3814 19.2872H32.5718V20.4761V20.4776V21.6649V21.6664V22.8553H31.3814V21.6664V21.6649V20.4776V20.4761V19.2872ZM17.0957 12.143H17.0942H15.9068H15.9053H14.7165V10.9542V10.9527V9.76383H15.9053H15.9068H17.0942H17.0957H18.283H18.2845H19.4718H19.4733H20.6622V10.9527V10.9542V12.143H19.4733H19.4718H18.2845H18.283H17.0957ZM18.2845 13.3346H19.4718H19.4733H20.6622V14.5249H19.4733H19.4718H18.2845H18.283H17.0957H17.0942H15.9068H15.9053H14.7165V13.3346H15.9053H15.9068H17.0942H17.0957H18.283H18.2845ZM19.4718 28.8107H18.2845H18.283H17.0957H17.0942H15.9068H15.9053H14.7165V30.001H15.9053H15.9068H17.0942H17.0957H18.283H18.2845H19.4718H19.4733H20.6622V28.8107H19.4733H19.4718ZM18.2845 26.4287H19.4718H19.4733H20.6622V27.6191H19.4733H19.4718H18.2845H18.283H17.0957H17.0942H15.9068H15.9053H14.7165V26.4287H15.9053H15.9068H17.0942H17.0957H18.283H18.2845ZM12.3318 10.9527H11.143H11.1415H9.95418H9.95266H8.76383V12.143H9.95266H9.95418H11.1415H11.143H12.3318V10.9527ZM11.143 13.3346H12.3318V14.5249H11.143H11.1415H9.95418H9.95266H8.76383V13.3346H9.95266H9.95418H11.1415H11.143ZM12.3318 28.8107H11.143H11.1415H9.95418H9.95266H8.76383V30.001H9.95266H9.95418H11.1415H11.143H12.3318V28.8107ZM11.143 26.4287H12.3318V27.6191H11.143H11.1415H9.95418H9.95266H8.76383V26.4287H9.95266H9.95418H11.1415H11.143ZM26.6176 10.9527H25.4287V12.143H26.6176H26.6191H27.8064H27.8079H28.9968V10.9527H27.8079H27.8064H26.6191H26.6176ZM25.4287 28.8107H26.6176H26.6191H27.8064H27.8079H28.9968V30.001H27.8079H27.8064H26.6191H26.6176H25.4287V28.8107ZM8.7611 10.9527H7.57226H7.57075H6.38192V12.143H7.57075H7.57226H8.7611V10.9527ZM7.57075 13.3346H8.7611V14.5249H7.57226V15.7122V15.7138V16.9026H6.38192V15.7138V15.7122V14.5234H7.57075V13.3346ZM8.7611 28.8107H7.57226H7.57075H6.38192V30.001H7.57075H7.57226H8.7611V28.8107ZM7.57075 26.4287H8.7611V27.6191H7.57075V26.4287ZM24.2357 10.9527H23.0483V9.76383H21.858V10.9527V10.9542V12.143H23.0468H23.0483H24.2357H24.2372H25.426V10.9527H24.2372H24.2357ZM21.858 13.3346H23.0468H23.0483H24.2357H24.2372H25.426V14.5249H24.2372H24.2357H23.0483H23.0468H21.858V13.3346ZM23.0468 28.8107H21.858V30.001H23.0468H23.0483H24.2357H24.2372H25.426V28.8107H24.2372H24.2357H23.0483H23.0468ZM21.858 26.4287H23.0468H23.0483H24.2357H24.2372H25.426V27.6191H24.2372H24.2357H23.0483H23.0468H21.858V26.4287ZM30.1883 10.9527H28.9995V12.143H30.1883H30.1898H31.3787V10.9527H30.1898H30.1883ZM28.9995 28.8107H30.1883H30.1898H31.3787V30.001H30.1898H30.1883H28.9995V28.8107ZM30.1898 25.2335H28.9995V26.4239H30.1898V25.2335ZM28.9995 26.4287H30.1898V27.6191H28.9995V26.4287ZM28.9968 25.2335H27.8064V26.4239H28.9968V25.2335ZM27.8064 26.4287H28.9968V27.6191H27.8064V26.4287ZM30.1898 20.4761H28.9995V21.6664H30.1898V20.4761ZM27.8064 20.4761H28.9968V21.6664H27.8064V20.4761ZM32.5718 14.5249V15.7122V15.7138V16.9026H31.3814V15.7138V15.7122V14.5249V14.5234V13.3346H32.5718V14.5234V14.5249ZM5.19035 16.9032H4V18.0936H5.19035V16.9032ZM25.4287 15.7138V16.9026H26.6191V15.7138V15.7122V14.5234H25.4287V15.7122V15.7138ZM31.3814 16.9032H32.5718V18.0936H31.3814V16.9032ZM5.19035 22.858H4V24.0468V24.0483V25.2335V25.2372V26.4239H5.19035V25.2372V25.2335V24.0483V24.0468V22.858ZM6.38192 22.858H7.57226V24.0468V24.0483V25.2335V25.2372V26.4239H6.38192V25.2372V25.2335V24.0483V24.0468V22.858ZM26.6191 22.858H25.4287V24.0468V24.0483V25.2335V25.2372V26.4239H26.6191V25.2372V25.2335V24.0483V24.0468V22.858ZM31.3814 22.858H32.5718V24.0468V24.0483V25.2335V25.2372V26.4239H31.3814V25.2372V25.2335V24.0483V24.0468V22.858ZM5.19035 26.4287H4V27.6176V27.6191V28.8079H5.19035V27.6191V27.6176V26.4287ZM31.3814 26.4287H32.5718V27.6176V27.6191V28.8079H31.3814V27.6191V27.6176V26.4287ZM9.95418 16.9032H8.76383V18.0936H9.95418V16.9032ZM9.95266 15.7122H11.1415H11.143H12.3318V16.9026H11.143H11.1415H9.95266V15.7122ZM30.1898 22.858H28.9995V24.0483H30.1898V22.858ZM27.8064 22.858H28.9968V24.0483H27.8064V22.858ZM30.1898 18.0942H28.9995V19.2845H30.1898V18.0942ZM27.8064 18.0942H28.9968V19.2845H27.8064V18.0942ZM30.1898 15.7122H28.9995V16.9026H30.1898V15.7122ZM27.8064 15.7122H28.9968V16.9026H27.8064V15.7122ZM30.1898 13.3346H28.9995V14.5249H30.1898V13.3346ZM27.8064 13.3346H28.9968V14.5249H27.8064V13.3346ZM4 18.0942H5.19035V19.2845H4V18.0942ZM7.57226 16.9032H6.38192V18.0936H7.57226V16.9032ZM25.4287 16.9032H26.6191V18.0936H25.4287V16.9032ZM32.5718 18.0942H31.3814V19.2845H32.5718V18.0942ZM12.3346 13.3346H13.5192H13.5249H14.7095V14.5249H13.5249H13.5192H12.3346V13.3346ZM13.5192 28.8107H12.3346V30.001H13.5192H13.5249H14.7095V28.8107H13.5249H13.5192ZM12.3346 26.4287H13.5192H13.5249H14.7095V27.6191H13.5249H13.5192H12.3346V26.4287ZM20.6649 8.57075H21.8553V9.7611H20.6649V8.57075ZM21.8553 9.76383H20.6649V10.9527V10.9542V12.143H21.8553V10.9542V10.9527V9.76383ZM15.9068 6.18883H14.7165V7.37918H15.9068V6.18883ZM13.5192 5H14.7095V6.19035H13.5192V5ZM20.6649 13.3346H21.8553V14.5249H20.6649V13.3346ZM21.8553 28.8107H20.6649V30.001H21.8553V28.8107ZM20.6649 26.4287H21.8553V27.6191H20.6649V26.4287ZM32.5718 10.9527H31.3814V12.1415V12.143V13.3318H32.5718V12.143V12.1415V10.9527ZM32.5718 28.8107H31.3814V30.001H32.5718V28.8107Z" fill="black"/>
<path fill-rule="evenodd" clip-rule="evenodd" d="M41 7H42.23H42.2308H43.4599H43.4607H44.6907V8.23077H43.4607H43.4599H42.2308V9.45885H41V8.23077V8.22808V7ZM69.3076 9.45885V8.23077H68.0785H68.0777H66.8477V7H68.0777H68.0785H69.3076H69.3085H70.5384V8.22808V8.23077V9.45885H69.3076ZM41 14.3853V15.6134V15.6161V16.8442H42.2308V15.6161V15.6134V14.3853H41ZM41 9.4599H42.2308V10.6907H41V9.4599ZM42.2308 13.1525V11.9225V11.9217V10.6917H41V11.9217V11.9225V13.1525H42.2308ZM70.5384 11.9225V13.1525H69.3076V11.9225V11.9217V10.6917H70.5384V11.9217V11.9225ZM69.3076 14.3853H70.5384V15.6134V15.6161V16.8442H69.3076V15.6161V15.6134V14.3853ZM42.2308 13.1535H41V14.3843H42.2308V13.1535ZM69.3076 13.1535H70.5384V14.3843H69.3076V13.1535ZM41 18.0771H42.2308V19.3051V19.3078V20.5359H41V19.3078V19.3051V18.0771ZM53.307 7H52.0771V8.23077H53.307H53.3078H54.537H54.5378H55.7677V7H54.5378H54.537H53.3078H53.307ZM52.0771 11.9217H53.307V10.6917H54.537H54.5378H55.7677V11.9217V11.9225V13.1525H54.5378H54.537H53.3078H53.307H52.0771V11.9217ZM53.307 9.4599H52.0771V10.6907H53.307H53.3078H54.537H54.5378H55.7677V9.4599H54.5378H54.537H53.3078H53.307ZM53.3078 20.537H54.537H54.5378H55.7677V21.7677H54.5378H54.537H53.3078H53.307H52.0771V20.537H53.307H53.3078ZM54.537 16.8452H53.3078H53.307H52.0771V18.076H53.307H53.3078H54.537H54.5378H55.7677V16.8452H54.5378H54.537ZM65.6149 20.537H66.8448V21.7677H65.6149H65.614H64.3849H64.3841H63.1541V20.537H64.3841H64.3849H65.614H65.6149ZM66.8448 16.8452H65.6149H65.614H64.3849H64.3841H63.1541V18.076H64.3841H64.3849H65.614H65.6149H66.8448V16.8452ZM44.6936 7H45.9236H45.9244H47.1535H47.1543H48.3835H48.3843H49.6142V8.23077H48.3843H48.3835H47.1543H47.1535H45.9244H45.9236H44.6936V7ZM45.9236 9.4599H44.6936V10.6907H45.9236H45.9244H47.1543V9.4599H45.9244H45.9236ZM64.3841 9.4599H65.614H65.6149H66.8448V10.6907H65.6149H65.614H64.3841V9.4599ZM44.6907 10.6917H43.4599V11.9217V11.9225V13.1525H44.6907V11.9225V11.9217V10.6917ZM63.1541 10.6917H64.3849V11.9217V11.9225V13.1525H63.1541V11.9225V11.9217V10.6917ZM45.9236 13.1535H44.6936V14.3843H45.9236H45.9244H47.1543V13.1535H45.9244H45.9236ZM64.3841 13.1535H65.614H65.6149H66.8448V14.3843H65.6149H65.614H64.3841V13.1535ZM48.3843 13.1525V11.9225V11.9217V10.6917H47.1535V11.9217V11.9225V13.1525H48.3843ZM68.0785 11.9225V13.1525H66.8477V11.9225V11.9217V10.6917H68.0785V11.9217V11.9225ZM59.4605 7H58.2314H58.2306H57.0014H57.0006H55.7707V8.23077H57.0006H57.0014H58.2306H58.2314H59.4605H59.4613H60.6913V7H59.4613H59.4605ZM58.2314 13.1525H58.2306H57.0014H57.0006H55.7707V11.9217H57.0006V10.6917H58.2306H58.2314H59.4605H59.4613H60.6913V11.9217V11.9225V13.1525H59.4613H59.4605H58.2314ZM58.2314 9.4599H59.4605H59.4613H60.6913V10.6907H59.4613H59.4605H58.2314H58.2306H57.0014H57.0006H55.7707V9.4599H57.0006H57.0014H58.2306H58.2314ZM47.1535 20.537H45.9244H45.9236H44.6936V21.7677H45.9236H45.9244H47.1535H47.1543H48.3835H48.3843H49.6142V20.537H48.3843H48.3835H47.1543H47.1535ZM45.9244 16.8452H47.1535H47.1543H48.3835H48.3843H49.6142V18.076H48.3843H48.3835H47.1543H47.1535H45.9244H45.9236H44.6936V16.8452H45.9236H45.9244ZM47.1535 21.7688H45.9244H45.9236H44.6936V22.9996H45.9236H45.9244H47.1535H47.1543H48.3843V21.7688H47.1543H47.1535ZM64.3849 21.7688H65.614H65.6149H66.8448V22.9996H65.6149H65.614H64.3849H64.3841H63.1541V21.7688H64.3841H64.3849ZM59.4605 20.537H58.2314H58.2306H57.0014H57.0006H55.7707V21.7677H57.0006H57.0014H58.2306H58.2314H59.4605H59.4613H60.6913V20.537H59.4613H59.4605ZM58.2314 16.8452H59.4605H59.4613H60.6913V18.076H59.4613H59.4605H58.2314H58.2306H57.0014H57.0006H55.7707V16.8452H57.0006H57.0014H58.2306H58.2314ZM61.925 7H63.1512V8.23077H61.925H61.9204H60.6942V7H61.9204H61.925ZM50.8434 20.537H49.6172V21.7677H50.8434H50.8479H52.0741V20.537H50.8479H50.8434ZM49.6172 16.8452H50.8434H50.8479H52.0741V18.076H50.8479H50.8434H49.6172V16.8452ZM63.1512 20.537H61.925H61.9204H60.6942V21.7677H61.9204H61.925H63.1512V20.537ZM61.925 16.8452H63.1512V18.076H61.925H61.9204H60.6942V16.8452H61.9204H61.925ZM43.4607 20.537H44.6907V21.7677H43.4607H43.4599H42.2308H42.23H41V20.537H42.23H42.2308H43.4599H43.4607ZM44.6907 16.8452H43.4607H43.4599H42.2308H42.23H41V18.076H42.23H42.2308H43.4599H43.4607H44.6907V16.8452ZM66.8448 7H65.6149H65.614H64.3849H64.3841H63.1541V8.23077H64.3841H64.3849H65.614H65.6149H66.8448V7ZM66.8477 20.537H68.0777H68.0785H69.3076H69.3085H70.5384V21.7677H69.3085H69.3076H68.0785H68.0777H66.8477V20.537ZM68.0777 16.8452H66.8477V18.076H68.0777H68.0785H69.3076H69.3085H70.5384V16.8452H69.3085H69.3076H68.0785H68.0777ZM69.3076 20.5359V19.3078V19.3051V18.0771H70.5384V19.3051V19.3078V20.5359H69.3076ZM49.6172 7H50.8434H50.8479H52.0741V8.23077H50.8479H50.8434H49.6172V7ZM50.8479 14.3853H49.6172V15.6161H50.8479V14.3853ZM52.0771 14.3853H53.3078V15.6161H52.0771V14.3853ZM55.7677 14.3853H54.537V15.6161H55.7677V14.3853ZM60.6942 14.3853H61.925V15.6161H60.6942V14.3853ZM49.6172 11.9225V13.1525H50.8434H50.8479H52.0741V11.9225V11.9217V10.6917H50.8479H50.8434H49.6172V11.9217V11.9225ZM50.8434 9.4599H49.6172V10.6907H50.8434H50.8479H52.0741V9.4599H50.8479H50.8434ZM60.6942 13.1525V11.9225V11.9217V10.6917H61.925V11.9217V11.9225V13.1525H60.6942ZM60.6942 9.4599H61.925V10.6907H60.6942V9.4599ZM70.5384 9.4599H69.3076V10.6907H70.5384V9.4599Z" fill="black"/>
<path fill-rule="evenodd" clip-rule="evenodd" d="M19.2472 39H20.3721V40.1244V40.1249V41.2493H19.2472V40.1249V40.1244V39ZM18.1233 42.3732H19.2472H19.2477H20.3721V43.4976H21.4965V44.6225H20.3716V43.4981H19.2477H19.2472H18.1233H18.1228H16.9989H16.9984H15.8745V44.6225H14.7496V43.4976H15.874V42.3732H16.9984H16.9989H18.1228H18.1233ZM10.248 44.626H9.12412H9.12361H7.9992V45.7509H9.12361H9.12412H10.248H10.2485H11.3729V44.626H10.2485H10.248ZM23.7493 45.7509H24.8732V46.8748V46.8753V47.9992V47.9997V49.1236V49.1241V50.248V50.2485V51.3729H25.9981V50.2485V50.248V49.1241V49.1236V47.9997V47.9992V46.8753V46.8748V45.7504H24.8737V44.626H23.7493H23.7488H22.6249H22.6244H21.5V45.7509H22.6244V46.8748V46.8753V47.9992V47.9997V49.1236V49.1241V50.248H21.5V51.3729H22.6249V50.2485H23.7493V49.1241V49.1236V47.9997V47.9992V46.8753V46.8748V45.7509ZM0.124913 53.6237V54.7481H-1V53.6237V53.6232V52.5013V52.4988V51.3764H0.124913V52.4988V52.5013V53.6232V53.6237ZM1.24932 45.7509H0.124913V46.8748V46.8753V47.9992V47.9997V49.1236V49.1241V50.248V50.2485V51.3729H-1V50.2485V50.248V49.1241V49.1236V47.9997V47.9992V46.8753V46.8748V45.7504H0.124409V44.626H1.24932V45.7509ZM13.6257 47.9992V46.8753V46.8748V45.7509H14.7496V46.8748V46.8753V47.9992V47.9997V49.1236V49.1241V50.248H13.6257V49.1241V49.1236V47.9997V47.9992ZM12.5008 44.626H11.3764V45.7509H12.5008V46.8748V46.8753V47.9992V47.9997V49.1236V49.1241V50.2485H13.6252V51.3729H14.7501V50.2485H15.874V51.3729H16.9984H16.9989H18.1228H18.1233H19.2472H19.2477H20.3721V50.2485H21.4965V49.1241V49.1236V47.9997V47.9992V46.8753V46.8748V45.7504H20.3721V44.626H19.2477H19.2472H18.1233H18.1228H16.9989H16.9984H15.874V45.7504H14.7501V44.626H13.6257H13.6252H12.5013H12.5008ZM16.9984 45.7509H15.8745V46.8748H16.9984V45.7509ZM24.8732 51.3764H25.9981V52.4988V52.5013V53.6232V53.6237V54.7481H24.8732V53.6237V53.6232V52.5013V52.4988V51.3764ZM10.2485 54.7496H11.3729V55.8745H10.2485H10.248H9.12412H9.12361H7.9992V54.7496H9.12361H9.12412H10.248H10.2485ZM22.6244 54.7496H21.5V55.874V55.8745V56.9989H22.6249V55.8745H23.7488H23.7493H24.8737V54.7496H23.7493H23.7488H22.6249H22.6244ZM2.37766 44.626H3.50157H3.50207H4.62205H4.62648H5.74645H5.74696H6.87086H6.87137H7.99578V45.7509H6.87137H6.87086H5.74696H5.74645H4.62648H4.62205H3.50207H3.50157H2.37766H2.37716H1.25275V44.626H2.37716H2.37766ZM4.62205 46.8748H3.50207H3.50157H2.37716V47.9997H3.50157H3.50207H4.62205H4.62648H5.74645H5.74696H6.87086H6.87137H7.99578V46.8748H6.87137H6.87086H5.74696H5.74645H4.62648H4.62205ZM3.50207 49.1236H4.62205H4.62648H5.74645H5.74696H6.87086H6.87137H7.99578V50.2485H6.87137H6.87086H5.74696H5.74645H4.62648H4.62205H3.50207H3.50157H2.37716V49.1236H3.50157H3.50207ZM4.62205 51.3764H3.50207H3.50157H2.37716V52.5013H3.50157H3.50207H4.62205H4.62648H5.74645H5.74696H6.87086H6.87137H7.99578V51.3764H6.87137H6.87086H5.74696H5.74645H4.62648H4.62205ZM3.50207 54.7496H4.62205H4.62648H5.74645H5.74696H6.87086H6.87137H7.99578V55.874V55.8745V56.9989H6.87137V58.1233H5.74696H5.74645H4.62648H4.62205H3.50157V56.9989H2.37716V55.8745H1.25275V54.7496H2.37716H2.37766H3.50157H3.50207ZM20.3716 58.1233H19.2477H19.2472H18.1228V56.9989H16.9984V55.8745H15.8745H15.874H14.7501H14.7496H13.6257H13.6252H12.5013H12.5008H11.3764V54.7496H12.5008H12.5013H13.6252H13.6257H14.7496H14.7501H15.874H15.8745H16.9984H16.9989H18.1228H18.1233H19.2472H19.2477H20.3716H20.3721H21.4965V55.874V55.8745V56.9984V56.9989V58.1233H20.3721H20.3716ZM18.1233 52.4988H19.2472H19.2477H20.3716V51.3764H21.4965V52.5013H20.3721V53.6237H19.2477H19.2472H18.1233H18.1228H16.9989H16.9984H15.874V52.5013H14.7496V51.3764H15.8745V52.4988H16.9984H16.9989H18.1228H18.1233ZM0.124409 54.7496H1.24932V55.8745H0.124409V54.7496ZM22.6249 41.2508H21.5V42.3757H22.6249V41.2508ZM22.6244 40.1244H23.7493V41.2493H22.6244V40.1244ZM23.7493 52.4988H22.6244V53.6237H23.7493V52.4988ZM13.6252 41.2508H14.7501V42.3757H13.6252V41.2508ZM13.6257 40.1244H12.5008V41.2493H13.6257V40.1244ZM7.9992 46.8748H9.12361H9.12412H10.2485V47.9997H9.12412H9.12361H7.9992V46.8748ZM7.9992 49.1236H9.12361H9.12412H10.2485V50.2485H9.12412H9.12361H7.9992V49.1236ZM7.9992 51.3764H9.12361H9.12412H10.2485V52.5013H9.12412H9.12361H7.9992V51.3764ZM15.874 40.1249V41.2493H16.9989V40.1249V40.1244V39H15.874V40.1244V40.1249Z" fill="black"/>
<path fill-rule="evenodd" clip-rule="evenodd" d="M42.4493 31.416H47.4142V32.6572H42.4493V31.416ZM42.4445 32.6576H39.962V33.897H38.7226V36.3795H39.9638V33.8988H42.4445V32.6576ZM47.4114 45.0689H42.4445V43.8295H39.962V45.0689H35V46.3102H64.7894V45.0689H49.8938V43.8295H47.4114V45.0689ZM36.2412 46.3105H35V52.5162V52.5166V53.7574H64.7894V52.5166H64.7907V46.3105H63.5495V52.5162H36.2412V46.3105ZM37.4831 36.3822H38.7243V38.8633H39.9638V40.1045H38.7243V41.3443H39.962V40.1048H41.2033V41.346H39.9638V42.5879H41.2033V43.8291H39.962V43.8267H38.7226V41.3471H37.4831V36.3822ZM41.2033 53.7577H39.9638H39.962H38.7226V54.999H39.962H39.9638H41.2033V53.7577ZM58.585 53.7577H59.8245V54.999H58.585H58.5833H57.3438V53.7577H58.5833H58.585ZM47.4114 37.6235H46.1737V38.8629H44.9324V37.6217H46.1719V36.3822H47.4131V37.6217H48.6526V38.8629H47.4114V37.6235ZM37.4831 48.7936H52.3778V50.0348H37.4831V48.7936ZM41.2057 53.7577H42.4469V54.999H41.2057V53.7577ZM61.0681 53.7577H59.8269V54.999H61.0681V53.7577ZM44.93 37.6217H43.6888V38.8629H44.93V37.6217ZM47.4114 32.6576H49.8938V33.897H49.8945H49.8962H51.1357V36.3795H49.8945V35.1383H48.655V33.8988H47.4114V32.6576ZM51.1339 41.3443H49.8945V43.8267H51.1357V41.3471H52.3752V36.3822H51.1339V37.6217H49.8962V36.3822H48.655V37.6235H49.8945V38.8629H51.1339V41.3443ZM43.6888 38.8633H44.93V40.1045H43.6888V38.8633ZM46.1737 38.8633H44.9324V40.1045H46.1737V38.8633ZM54.8565 47.552H56.0977V48.7933H54.8565V47.552ZM61.0681 47.552H59.8269V48.7933H61.0681V47.552ZM54.8565 50.0352H56.0977V51.2764H54.8565V50.0352ZM61.0681 50.0352H59.8269V51.2764H61.0681V50.0352ZM56.1002 48.7936H57.3414V50.0348H56.1002V48.7936ZM62.3076 48.7936H61.0664V50.0348H62.3076V48.7936ZM53.617 48.7936H54.8583V50.0348H53.617V48.7936ZM59.8245 48.7936H58.5833V50.0348H59.8245V48.7936ZM48.6526 35.1407H47.4114V36.3819H48.6526V35.1407ZM43.6906 40.1048H42.4493V41.346H43.6906V40.1048ZM41.2057 38.8633H42.4469V40.1045H41.2057V38.8633ZM42.4469 41.3443H41.2057V42.5855H42.4469V41.3443Z" fill="black"/>
</g>
<rect x="0.5" y="0.5" width="63" height="63" rx="7.5" stroke="#D6D6D6"/>
<defs>
<clipPath id="clip0_2210_8207">
<rect width="64" height="64" rx="8" fill="white"/>
</clipPath>
</defs>
</svg>
