<svg width="97" height="40" viewBox="0 0 97 40" fill="none" xmlns="http://www.w3.org/2000/svg">
<path d="M45.5541 28.9868L46.1852 28.3488C45.7333 27.9865 45.2503 27.577 44.8997 27.1123L44.3854 27.6322C42.4687 29.5696 39.7573 29.5854 37.825 27.6322C35.9083 25.6947 35.9239 22.9383 37.8328 21.0087L44.7438 14.023C46.6527 12.0934 49.3798 12.0777 51.2965 14.0151C53.2287 15.9683 53.2053 18.7169 51.2965 20.6464L48.5617 23.4107C48.7564 23.8282 49.3875 24.3874 49.9875 24.5055L52.6365 21.8278C55.2778 19.1579 55.309 15.3776 52.6288 12.6683C49.9563 9.96698 46.2164 9.99847 43.5751 12.6683L36.4927 19.8274C33.8514 22.4973 33.8202 26.2775 36.4927 28.9789C39.1729 31.6881 42.9128 31.6566 45.5541 28.9868ZM55.4258 26.3326L62.5083 19.1737C65.1496 16.5038 65.1808 12.7235 62.5006 10.0142C59.828 7.31286 56.0881 7.34437 53.4469 10.0142L52.808 10.66C53.252 11.0144 53.7429 11.4319 54.1013 11.8886L54.6077 11.3767C56.5244 9.43931 59.2437 9.41568 61.1682 11.361C63.0927 13.3063 63.0771 16.0628 61.1604 18.0002L54.2572 24.9781C52.3483 26.9076 49.6212 26.9234 47.6968 24.9781C45.7723 23.0328 45.7879 20.292 47.7045 18.3546L50.4393 15.5902C50.2446 15.1728 49.6135 14.6136 49.0057 14.5034L46.3644 17.1732C43.7154 19.851 43.692 23.6234 46.3644 26.3249C49.0447 29.0341 52.7768 29.0104 55.4258 26.3326Z" fill="#007AFF"/>
<path d="M14.9153 4.56568L9.81674 11.382L2.12905 21.8362C1.25749 23.1559 1.3238 23.8745 2.12905 25.1294L5.51482 29.7247L10.7329 36.4261C11.7215 37.6409 12.4869 38.0447 14.4373 37.9961H39.6514H75.5804H85.4194H92.1909C94.6406 37.3668 95.3544 36.4444 95.497 33.8221V24.1338V22.4106V19.1939C95.5297 17.5731 95.2987 16.7497 94.4216 15.4411L92.7884 13.3733L87.172 6.21231L85.4991 4.18274C83.952 2.48452 82.8733 2.22487 80.8785 2H78.4085H71.8362H61.5992H53.8716H37.6996H24.993H19.4562C17.2028 2.27593 16.335 3.02879 14.9153 4.56568Z" stroke="#007AFF" stroke-width="3"/>
</svg>
