<svg width="281" height="25" viewBox="0 0 281 25" fill="none" xmlns="http://www.w3.org/2000/svg">
<path d="M8.72869 15.7656C8.72869 15.4668 8.68182 15.2031 8.58807 14.9746C8.50018 14.7402 8.34198 14.5293 8.11346 14.3418C7.8908 14.1543 7.58026 13.9756 7.18182 13.8057C6.78924 13.6357 6.29119 13.4629 5.68768 13.2871C5.05487 13.0996 4.48358 12.8916 3.97381 12.6631C3.46405 12.4287 3.02752 12.1621 2.66424 11.8633C2.30096 11.5645 2.02264 11.2217 1.82928 10.835C1.63592 10.4482 1.53924 10.0059 1.53924 9.50781C1.53924 9.00977 1.64178 8.5498 1.84686 8.12793C2.05194 7.70605 2.34491 7.33984 2.72577 7.0293C3.11248 6.71289 3.57244 6.4668 4.10565 6.29102C4.63885 6.11523 5.23358 6.02734 5.88983 6.02734C6.85077 6.02734 7.66522 6.21191 8.33319 6.58105C9.00702 6.94434 9.51971 7.42188 9.87127 8.01367C10.2228 8.59961 10.3986 9.22656 10.3986 9.89453H8.71112C8.71112 9.41406 8.60858 8.98926 8.4035 8.62012C8.19842 8.24512 7.88787 7.95215 7.47186 7.74121C7.05584 7.52441 6.5285 7.41602 5.88983 7.41602C5.28631 7.41602 4.78827 7.50684 4.39569 7.68848C4.00311 7.87012 3.71014 8.11621 3.51678 8.42676C3.32928 8.7373 3.23553 9.0918 3.23553 9.49023C3.23553 9.75977 3.29119 10.0059 3.40252 10.2285C3.51971 10.4453 3.69842 10.6475 3.93866 10.835C4.18475 11.0225 4.4953 11.1953 4.8703 11.3535C5.25116 11.5117 5.70526 11.6641 6.2326 11.8105C6.95916 12.0156 7.58612 12.2441 8.11346 12.4961C8.6408 12.748 9.0744 13.0322 9.41424 13.3486C9.75994 13.6592 10.0148 14.0137 10.1789 14.4121C10.3488 14.8047 10.4338 15.25 10.4338 15.748C10.4338 16.2695 10.3283 16.7412 10.1174 17.1631C9.90643 17.585 9.60467 17.9453 9.21209 18.2441C8.81952 18.543 8.34784 18.7744 7.79705 18.9385C7.25213 19.0967 6.64276 19.1758 5.96893 19.1758C5.37713 19.1758 4.79412 19.0938 4.21991 18.9297C3.65155 18.7656 3.13299 18.5195 2.66424 18.1914C2.20135 17.8633 1.82928 17.459 1.54803 16.9785C1.27264 16.4922 1.13494 15.9297 1.13494 15.291H2.82244C2.82244 15.7305 2.90741 16.1084 3.07733 16.4248C3.24725 16.7354 3.47869 16.9932 3.77166 17.1982C4.07049 17.4033 4.40741 17.5557 4.78241 17.6553C5.16327 17.749 5.55877 17.7959 5.96893 17.7959C6.56073 17.7959 7.0617 17.7139 7.47186 17.5498C7.88202 17.3857 8.19256 17.1514 8.4035 16.8467C8.6203 16.542 8.72869 16.1816 8.72869 15.7656ZM15.9263 19.1758C15.2642 19.1758 14.6636 19.0645 14.1246 18.8418C13.5914 18.6133 13.1314 18.2939 12.7447 17.8838C12.3638 17.4736 12.0709 16.9873 11.8658 16.4248C11.6607 15.8623 11.5582 15.2471 11.5582 14.5791V14.21C11.5582 13.4365 11.6724 12.748 11.9009 12.1445C12.1295 11.5352 12.44 11.0195 12.8326 10.5977C13.2252 10.1758 13.6705 9.85645 14.1685 9.63965C14.6666 9.42285 15.1822 9.31445 15.7154 9.31445C16.3951 9.31445 16.981 9.43164 17.4732 9.66602C17.9712 9.90039 18.3785 10.2285 18.6949 10.6504C19.0113 11.0664 19.2457 11.5586 19.398 12.127C19.5504 12.6895 19.6265 13.3047 19.6265 13.9727V14.7021H12.525V13.375H18.0005V13.252C17.9771 12.8301 17.8892 12.4199 17.7369 12.0215C17.5904 11.623 17.356 11.2949 17.0337 11.0371C16.7115 10.7793 16.272 10.6504 15.7154 10.6504C15.3462 10.6504 15.0064 10.7295 14.6959 10.8877C14.3853 11.04 14.1187 11.2686 13.8961 11.5732C13.6734 11.8779 13.5005 12.25 13.3775 12.6895C13.2545 13.1289 13.1929 13.6357 13.1929 14.21V14.5791C13.1929 15.0303 13.2545 15.4551 13.3775 15.8535C13.5064 16.2461 13.691 16.5918 13.9312 16.8906C14.1773 17.1895 14.4732 17.4238 14.8189 17.5938C15.1705 17.7637 15.5689 17.8486 16.0142 17.8486C16.5884 17.8486 17.0748 17.7314 17.4732 17.4971C17.8716 17.2627 18.2203 16.9492 18.5191 16.5566L19.5035 17.3389C19.2984 17.6494 19.0377 17.9453 18.7212 18.2266C18.4048 18.5078 18.0152 18.7363 17.5523 18.9121C17.0953 19.0879 16.5533 19.1758 15.9263 19.1758ZM25.1367 9.49023V10.7383H19.9951V9.49023H25.1367ZM21.7353 7.17871H23.3613V16.6445C23.3613 16.9668 23.4111 17.21 23.5107 17.374C23.6103 17.5381 23.7392 17.6465 23.8974 17.6992C24.0556 17.752 24.2255 17.7783 24.4072 17.7783C24.5419 17.7783 24.6826 17.7666 24.829 17.7432C24.9814 17.7139 25.0956 17.6904 25.1718 17.6729L25.1806 19C25.0517 19.041 24.8818 19.0791 24.6708 19.1143C24.4658 19.1553 24.2167 19.1758 23.9238 19.1758C23.5253 19.1758 23.1591 19.0967 22.8251 18.9385C22.4911 18.7803 22.2245 18.5166 22.0253 18.1475C21.832 17.7725 21.7353 17.2686 21.7353 16.6357V7.17871ZM30.6556 9.49023V10.7383H25.514V9.49023H30.6556ZM27.2542 7.17871H28.8802V16.6445C28.8802 16.9668 28.93 17.21 29.0296 17.374C29.1292 17.5381 29.2581 17.6465 29.4163 17.6992C29.5745 17.752 29.7444 17.7783 29.9261 17.7783C30.0609 17.7783 30.2015 17.7666 30.348 17.7432C30.5003 17.7139 30.6146 17.6904 30.6907 17.6729L30.6995 19C30.5706 19.041 30.4007 19.0791 30.1898 19.1143C29.9847 19.1553 29.7357 19.1758 29.4427 19.1758C29.0443 19.1758 28.678 19.0967 28.3441 18.9385C28.0101 18.7803 27.7435 18.5166 27.5443 18.1475C27.3509 17.7725 27.2542 17.2686 27.2542 16.6357V7.17871ZM33.9597 9.49023V19H32.3249V9.49023H33.9597ZM32.2018 6.96777C32.2018 6.7041 32.2809 6.48145 32.4391 6.2998C32.6032 6.11816 32.8434 6.02734 33.1599 6.02734C33.4704 6.02734 33.7077 6.11816 33.8718 6.2998C34.0417 6.48145 34.1266 6.7041 34.1266 6.96777C34.1266 7.21973 34.0417 7.43652 33.8718 7.61816C33.7077 7.79395 33.4704 7.88184 33.1599 7.88184C32.8434 7.88184 32.6032 7.79395 32.4391 7.61816C32.2809 7.43652 32.2018 7.21973 32.2018 6.96777ZM37.8262 11.5205V19H36.2003V9.49023H37.7383L37.8262 11.5205ZM37.4395 13.8848L36.7628 13.8584C36.7686 13.208 36.8653 12.6074 37.0528 12.0566C37.2403 11.5 37.504 11.0166 37.8438 10.6064C38.1837 10.1963 38.588 9.87988 39.0567 9.65723C39.5313 9.42871 40.0557 9.31445 40.6299 9.31445C41.0987 9.31445 41.5206 9.37891 41.8956 9.50781C42.2706 9.63086 42.5899 9.83008 42.8536 10.1055C43.1231 10.3809 43.3282 10.7383 43.4688 11.1777C43.6094 11.6113 43.6797 12.1416 43.6797 12.7686V19H42.045V12.751C42.045 12.2529 41.9717 11.8545 41.8253 11.5557C41.6788 11.251 41.4649 11.0312 41.1837 10.8965C40.9024 10.7559 40.5567 10.6855 40.1465 10.6855C39.7422 10.6855 39.3731 10.7705 39.0391 10.9404C38.711 11.1104 38.4268 11.3447 38.1866 11.6436C37.9522 11.9424 37.7676 12.2852 37.6329 12.6719C37.504 13.0527 37.4395 13.457 37.4395 13.8848ZM51.9409 9.49023H53.4174V18.7979C53.4174 19.6357 53.2475 20.3506 52.9077 20.9424C52.5678 21.5342 52.0932 21.9824 51.4838 22.2871C50.8803 22.5977 50.183 22.7529 49.392 22.7529C49.0639 22.7529 48.6772 22.7002 48.2319 22.5947C47.7924 22.4951 47.3588 22.3223 46.9311 22.0762C46.5092 21.8359 46.1547 21.5107 45.8676 21.1006L46.7202 20.1338C47.1186 20.6143 47.5346 20.9482 47.9682 21.1357C48.4077 21.3232 48.8413 21.417 49.269 21.417C49.7846 21.417 50.2299 21.3203 50.6049 21.127C50.9799 20.9336 51.27 20.6465 51.475 20.2656C51.686 19.8906 51.7914 19.4277 51.7914 18.877V11.582L51.9409 9.49023ZM45.393 14.3506V14.166C45.393 13.4395 45.478 12.7803 45.6479 12.1885C45.8237 11.5908 46.0727 11.0781 46.395 10.6504C46.7231 10.2227 47.1186 9.89453 47.5815 9.66602C48.0444 9.43164 48.5659 9.31445 49.1459 9.31445C49.7436 9.31445 50.2651 9.41992 50.7104 9.63086C51.1616 9.83594 51.5424 10.1377 51.853 10.5361C52.1694 10.9287 52.4184 11.4033 52.6 11.96C52.7817 12.5166 52.9077 13.1465 52.978 13.8496V14.6582C52.9135 15.3555 52.7875 15.9824 52.6 16.5391C52.4184 17.0957 52.1694 17.5703 51.853 17.9629C51.5424 18.3555 51.1616 18.6572 50.7104 18.8682C50.2592 19.0732 49.7319 19.1758 49.1284 19.1758C48.56 19.1758 48.0444 19.0557 47.5815 18.8154C47.1245 18.5752 46.7319 18.2383 46.4038 17.8047C46.0756 17.3711 45.8237 16.8613 45.6479 16.2754C45.478 15.6836 45.393 15.042 45.393 14.3506ZM47.019 14.166V14.3506C47.019 14.8252 47.0659 15.2705 47.1596 15.6865C47.2592 16.1025 47.4086 16.4688 47.6079 16.7852C47.8129 17.1016 48.0737 17.3506 48.3901 17.5322C48.7065 17.708 49.0844 17.7959 49.5239 17.7959C50.0629 17.7959 50.5082 17.6816 50.8598 17.4531C51.2114 17.2246 51.4897 16.9229 51.6948 16.5479C51.9057 16.1729 52.0698 15.7656 52.187 15.3262V13.208C52.1225 12.8857 52.0229 12.5752 51.8881 12.2764C51.7592 11.9717 51.5893 11.7021 51.3784 11.4678C51.1733 11.2275 50.9184 11.0371 50.6137 10.8965C50.309 10.7559 49.9516 10.6855 49.5414 10.6855C49.0961 10.6855 48.7123 10.7793 48.3901 10.9668C48.0737 11.1484 47.8129 11.4004 47.6079 11.7227C47.4086 12.0391 47.2592 12.4082 47.1596 12.8301C47.0659 13.2461 47.019 13.6914 47.019 14.166ZM61.0545 16.4775C61.0545 16.2432 61.0018 16.0264 60.8963 15.8271C60.7967 15.6221 60.5887 15.4375 60.2723 15.2734C59.9617 15.1035 59.493 14.957 58.866 14.834C58.3387 14.7227 57.8611 14.5908 57.4334 14.4385C57.0115 14.2861 56.6512 14.1016 56.3524 13.8848C56.0594 13.668 55.8338 13.4131 55.6756 13.1201C55.5174 12.8271 55.4383 12.4844 55.4383 12.0918C55.4383 11.7168 55.5203 11.3623 55.6844 11.0283C55.8543 10.6943 56.0916 10.3984 56.3963 10.1406C56.7069 9.88281 57.0789 9.68066 57.5125 9.53418C57.9461 9.3877 58.4295 9.31445 58.9627 9.31445C59.7244 9.31445 60.3748 9.44922 60.9139 9.71875C61.4529 9.98828 61.866 10.3486 62.1531 10.7998C62.4403 11.2451 62.5838 11.7402 62.5838 12.2852H60.9578C60.9578 12.0215 60.8787 11.7666 60.7205 11.5205C60.5682 11.2686 60.3426 11.0605 60.0438 10.8965C59.7508 10.7324 59.3904 10.6504 58.9627 10.6504C58.5115 10.6504 58.1453 10.7207 57.8641 10.8613C57.5887 10.9961 57.3865 11.1689 57.2576 11.3799C57.1346 11.5908 57.0731 11.8135 57.0731 12.0479C57.0731 12.2236 57.1024 12.3818 57.161 12.5225C57.2254 12.6572 57.3367 12.7832 57.4949 12.9004C57.6531 13.0117 57.8758 13.1172 58.1629 13.2168C58.45 13.3164 58.8162 13.416 59.2615 13.5156C60.0408 13.6914 60.6824 13.9023 61.1863 14.1484C61.6903 14.3945 62.0653 14.6963 62.3113 15.0537C62.5574 15.4111 62.6805 15.8447 62.6805 16.3545C62.6805 16.7705 62.5926 17.1514 62.4168 17.4971C62.2469 17.8428 61.9979 18.1416 61.6697 18.3936C61.3475 18.6396 60.9608 18.833 60.5096 18.9736C60.0643 19.1084 59.5633 19.1758 59.0067 19.1758C58.1688 19.1758 57.4598 19.0264 56.8797 18.7275C56.2996 18.4287 55.8602 18.042 55.5613 17.5674C55.2625 17.0928 55.1131 16.5918 55.1131 16.0645H56.7479C56.7713 16.5098 56.9002 16.8643 57.1346 17.1279C57.369 17.3857 57.6561 17.5703 57.9959 17.6816C58.3358 17.7871 58.6727 17.8398 59.0067 17.8398C59.452 17.8398 59.824 17.7812 60.1229 17.6641C60.4276 17.5469 60.659 17.3857 60.8172 17.1807C60.9754 16.9756 61.0545 16.7412 61.0545 16.4775Z" fill="#919191"/>
<path d="M78.0401 6.45696C77.6496 6.06643 77.0164 6.06643 76.6259 6.45696C76.2354 6.84748 76.2354 7.48065 76.6259 7.87117L78.0401 6.45696ZM82.6663 12.4974L83.3734 13.2045C83.561 13.017 83.6663 12.7626 83.6663 12.4974C83.6663 12.2322 83.561 11.9778 83.3734 11.7903L82.6663 12.4974ZM76.6259 17.1236C76.2354 17.5141 76.2354 18.1473 76.6259 18.5378C77.0164 18.9284 77.6496 18.9284 78.0401 18.5378L76.6259 17.1236ZM76.6259 7.87117L81.9592 13.2045L83.3734 11.7903L78.0401 6.45696L76.6259 7.87117ZM81.9592 11.7903L76.6259 17.1236L78.0401 18.5378L83.3734 13.2045L81.9592 11.7903Z" fill="#D6D6D6"/>
<path d="M102.047 13.0146H98.8037L98.7861 11.6523H101.73C102.217 11.6523 102.642 11.5703 103.005 11.4062C103.368 11.2422 103.649 11.0078 103.849 10.7031C104.054 10.3926 104.156 10.0234 104.156 9.5957C104.156 9.12695 104.065 8.74609 103.884 8.45312C103.708 8.1543 103.436 7.9375 103.066 7.80273C102.703 7.66211 102.24 7.5918 101.678 7.5918H99.1816V19H97.4854V6.20312H101.678C102.334 6.20312 102.92 6.27051 103.436 6.40527C103.951 6.53418 104.388 6.73926 104.745 7.02051C105.108 7.2959 105.384 7.64746 105.571 8.0752C105.759 8.50293 105.853 9.01562 105.853 9.61328C105.853 10.1406 105.718 10.6182 105.448 11.0459C105.179 11.4678 104.804 11.8135 104.323 12.083C103.849 12.3525 103.292 12.5254 102.653 12.6016L102.047 13.0146ZM101.968 19H98.1357L99.0938 17.6201H101.968C102.507 17.6201 102.964 17.5264 103.339 17.3389C103.72 17.1514 104.01 16.8877 104.209 16.5479C104.408 16.2021 104.508 15.7949 104.508 15.3262C104.508 14.8516 104.423 14.4414 104.253 14.0957C104.083 13.75 103.816 13.4834 103.453 13.2959C103.09 13.1084 102.621 13.0146 102.047 13.0146H99.6299L99.6475 11.6523H102.952L103.312 12.1445C103.928 12.1973 104.449 12.373 104.877 12.6719C105.305 12.9648 105.63 13.3398 105.853 13.7969C106.081 14.2539 106.195 14.7578 106.195 15.3086C106.195 16.1055 106.02 16.7793 105.668 17.3301C105.322 17.875 104.833 18.291 104.2 18.5781C103.567 18.8594 102.823 19 101.968 19ZM109.851 5.5V19H108.216V5.5H109.851ZM117.91 16.8027V9.49023H119.545V19H117.989L117.91 16.8027ZM118.218 14.7988L118.894 14.7812C118.894 15.4141 118.827 16 118.692 16.5391C118.563 17.0723 118.352 17.5352 118.059 17.9277C117.766 18.3203 117.383 18.6279 116.908 18.8506C116.433 19.0674 115.856 19.1758 115.177 19.1758C114.714 19.1758 114.289 19.1084 113.902 18.9736C113.521 18.8389 113.193 18.6309 112.918 18.3496C112.642 18.0684 112.428 17.7021 112.276 17.251C112.13 16.7998 112.056 16.2578 112.056 15.625V9.49023H113.682V15.6426C113.682 16.0703 113.729 16.4248 113.823 16.7061C113.923 16.9814 114.054 17.2012 114.219 17.3652C114.388 17.5234 114.576 17.6348 114.781 17.6992C114.992 17.7637 115.209 17.7959 115.431 17.7959C116.123 17.7959 116.671 17.6641 117.075 17.4004C117.479 17.1309 117.769 16.7705 117.945 16.3193C118.127 15.8623 118.218 15.3555 118.218 14.7988ZM125.6 19.1758C124.938 19.1758 124.337 19.0645 123.798 18.8418C123.265 18.6133 122.805 18.2939 122.418 17.8838C122.037 17.4736 121.744 16.9873 121.539 16.4248C121.334 15.8623 121.232 15.2471 121.232 14.5791V14.21C121.232 13.4365 121.346 12.748 121.574 12.1445C121.803 11.5352 122.113 11.0195 122.506 10.5977C122.899 10.1758 123.344 9.85645 123.842 9.63965C124.34 9.42285 124.856 9.31445 125.389 9.31445C126.068 9.31445 126.654 9.43164 127.147 9.66602C127.645 9.90039 128.052 10.2285 128.368 10.6504C128.685 11.0664 128.919 11.5586 129.071 12.127C129.224 12.6895 129.3 13.3047 129.3 13.9727V14.7021H122.198V13.375H127.674V13.252C127.651 12.8301 127.563 12.4199 127.41 12.0215C127.264 11.623 127.029 11.2949 126.707 11.0371C126.385 10.7793 125.945 10.6504 125.389 10.6504C125.02 10.6504 124.68 10.7295 124.369 10.8877C124.059 11.04 123.792 11.2686 123.569 11.5732C123.347 11.8779 123.174 12.25 123.051 12.6895C122.928 13.1289 122.866 13.6357 122.866 14.21V14.5791C122.866 15.0303 122.928 15.4551 123.051 15.8535C123.18 16.2461 123.364 16.5918 123.605 16.8906C123.851 17.1895 124.147 17.4238 124.492 17.5938C124.844 17.7637 125.242 17.8486 125.688 17.8486C126.262 17.8486 126.748 17.7314 127.147 17.4971C127.545 17.2627 127.894 16.9492 128.193 16.5566L129.177 17.3389C128.972 17.6494 128.711 17.9453 128.395 18.2266C128.078 18.5078 127.689 18.7363 127.226 18.9121C126.769 19.0879 126.227 19.1758 125.6 19.1758ZM134.81 9.49023V10.7383H129.668V9.49023H134.81ZM131.409 7.17871H133.035V16.6445C133.035 16.9668 133.084 17.21 133.184 17.374C133.284 17.5381 133.413 17.6465 133.571 17.6992C133.729 17.752 133.899 17.7783 134.081 17.7783C134.215 17.7783 134.356 17.7666 134.502 17.7432C134.655 17.7139 134.769 17.6904 134.845 17.6729L134.854 19C134.725 19.041 134.555 19.0791 134.344 19.1143C134.139 19.1553 133.89 19.1758 133.597 19.1758C133.199 19.1758 132.833 19.0967 132.499 18.9385C132.165 18.7803 131.898 18.5166 131.699 18.1475C131.505 17.7725 131.409 17.2686 131.409 16.6357V7.17871ZM135.741 14.3506V14.1484C135.741 13.4629 135.841 12.8271 136.04 12.2412C136.239 11.6494 136.526 11.1367 136.901 10.7031C137.276 10.2637 137.73 9.92383 138.264 9.68359C138.797 9.4375 139.394 9.31445 140.057 9.31445C140.724 9.31445 141.325 9.4375 141.858 9.68359C142.397 9.92383 142.854 10.2637 143.229 10.7031C143.61 11.1367 143.9 11.6494 144.099 12.2412C144.299 12.8271 144.398 13.4629 144.398 14.1484V14.3506C144.398 15.0361 144.299 15.6719 144.099 16.2578C143.9 16.8438 143.61 17.3564 143.229 17.7959C142.854 18.2295 142.4 18.5693 141.867 18.8154C141.34 19.0557 140.742 19.1758 140.074 19.1758C139.406 19.1758 138.806 19.0557 138.272 18.8154C137.739 18.5693 137.282 18.2295 136.901 17.7959C136.526 17.3564 136.239 16.8438 136.04 16.2578C135.841 15.6719 135.741 15.0361 135.741 14.3506ZM137.367 14.1484V14.3506C137.367 14.8252 137.423 15.2734 137.534 15.6953C137.645 16.1113 137.812 16.4805 138.035 16.8027C138.264 17.125 138.548 17.3799 138.888 17.5674C139.227 17.749 139.623 17.8398 140.074 17.8398C140.519 17.8398 140.909 17.749 141.243 17.5674C141.583 17.3799 141.864 17.125 142.087 16.8027C142.309 16.4805 142.476 16.1113 142.588 15.6953C142.705 15.2734 142.764 14.8252 142.764 14.3506V14.1484C142.764 13.6797 142.705 13.2373 142.588 12.8213C142.476 12.3994 142.307 12.0273 142.078 11.7051C141.855 11.377 141.574 11.1191 141.234 10.9316C140.9 10.7441 140.508 10.6504 140.057 10.6504C139.611 10.6504 139.219 10.7441 138.879 10.9316C138.545 11.1191 138.264 11.377 138.035 11.7051C137.812 12.0273 137.645 12.3994 137.534 12.8213C137.423 13.2373 137.367 13.6797 137.367 14.1484ZM145.637 14.3506V14.1484C145.637 13.4629 145.737 12.8271 145.936 12.2412C146.135 11.6494 146.422 11.1367 146.797 10.7031C147.172 10.2637 147.626 9.92383 148.159 9.68359C148.693 9.4375 149.29 9.31445 149.952 9.31445C150.62 9.31445 151.221 9.4375 151.754 9.68359C152.293 9.92383 152.75 10.2637 153.125 10.7031C153.506 11.1367 153.796 11.6494 153.995 12.2412C154.195 12.8271 154.294 13.4629 154.294 14.1484V14.3506C154.294 15.0361 154.195 15.6719 153.995 16.2578C153.796 16.8438 153.506 17.3564 153.125 17.7959C152.75 18.2295 152.296 18.5693 151.763 18.8154C151.236 19.0557 150.638 19.1758 149.97 19.1758C149.302 19.1758 148.701 19.0557 148.168 18.8154C147.635 18.5693 147.178 18.2295 146.797 17.7959C146.422 17.3564 146.135 16.8438 145.936 16.2578C145.737 15.6719 145.637 15.0361 145.637 14.3506ZM147.263 14.1484V14.3506C147.263 14.8252 147.319 15.2734 147.43 15.6953C147.541 16.1113 147.708 16.4805 147.931 16.8027C148.159 17.125 148.444 17.3799 148.783 17.5674C149.123 17.749 149.519 17.8398 149.97 17.8398C150.415 17.8398 150.805 17.749 151.139 17.5674C151.479 17.3799 151.76 17.125 151.983 16.8027C152.205 16.4805 152.372 16.1113 152.484 15.6953C152.601 15.2734 152.659 14.8252 152.659 14.3506V14.1484C152.659 13.6797 152.601 13.2373 152.484 12.8213C152.372 12.3994 152.202 12.0273 151.974 11.7051C151.751 11.377 151.47 11.1191 151.13 10.9316C150.796 10.7441 150.404 10.6504 149.952 10.6504C149.507 10.6504 149.115 10.7441 148.775 10.9316C148.441 11.1191 148.159 11.377 147.931 11.7051C147.708 12.0273 147.541 12.3994 147.43 12.8213C147.319 13.2373 147.263 13.6797 147.263 14.1484ZM159.945 9.49023V10.7383H154.803V9.49023H159.945ZM156.544 7.17871H158.17V16.6445C158.17 16.9668 158.219 17.21 158.319 17.374C158.419 17.5381 158.547 17.6465 158.706 17.6992C158.864 17.752 159.034 17.7783 159.215 17.7783C159.35 17.7783 159.491 17.7666 159.637 17.7432C159.79 17.7139 159.904 17.6904 159.98 17.6729L159.989 19C159.86 19.041 159.69 19.0791 159.479 19.1143C159.274 19.1553 159.025 19.1758 158.732 19.1758C158.334 19.1758 157.967 19.0967 157.633 18.9385C157.299 18.7803 157.033 18.5166 156.834 18.1475C156.64 17.7725 156.544 17.2686 156.544 16.6357V7.17871ZM163.108 5.5V19H161.482V5.5H163.108ZM162.722 13.8848L162.045 13.8584C162.051 13.208 162.147 12.6074 162.335 12.0566C162.522 11.5 162.786 11.0166 163.126 10.6064C163.466 10.1963 163.87 9.87988 164.339 9.65723C164.813 9.42871 165.338 9.31445 165.912 9.31445C166.381 9.31445 166.803 9.37891 167.178 9.50781C167.553 9.63086 167.872 9.83008 168.136 10.1055C168.405 10.3809 168.61 10.7383 168.751 11.1777C168.892 11.6113 168.962 12.1416 168.962 12.7686V19H167.327V12.751C167.327 12.2529 167.254 11.8545 167.107 11.5557C166.961 11.251 166.747 11.0312 166.466 10.8965C166.185 10.7559 165.839 10.6855 165.429 10.6855C165.024 10.6855 164.655 10.7705 164.321 10.9404C163.993 11.1104 163.709 11.3447 163.469 11.6436C163.234 11.9424 163.05 12.2852 162.915 12.6719C162.786 13.0527 162.722 13.457 162.722 13.8848Z" fill="#919191"/>
<path d="M185.04 6.45696C184.65 6.06643 184.016 6.06643 183.626 6.45696C183.235 6.84748 183.235 7.48065 183.626 7.87117L185.04 6.45696ZM189.666 12.4974L190.373 13.2045C190.561 13.017 190.666 12.7626 190.666 12.4974C190.666 12.2322 190.561 11.9778 190.373 11.7903L189.666 12.4974ZM183.626 17.1236C183.235 17.5141 183.235 18.1473 183.626 18.5378C184.016 18.9284 184.65 18.9284 185.04 18.5378L183.626 17.1236ZM183.626 7.87117L188.959 13.2045L190.373 11.7903L185.04 6.45696L183.626 7.87117ZM188.959 11.7903L183.626 17.1236L185.04 18.5378L190.373 13.2045L188.959 11.7903Z" fill="#D6D6D6"/>
<path d="M211.469 15.7656C211.469 15.4668 211.422 15.2031 211.329 14.9746C211.241 14.7402 211.083 14.5293 210.854 14.3418C210.631 14.1543 210.321 13.9756 209.922 13.8057C209.53 13.6357 209.032 13.4629 208.428 13.2871C207.795 13.0996 207.224 12.8916 206.714 12.6631C206.205 12.4287 205.768 12.1621 205.405 11.8633C205.042 11.5645 204.763 11.2217 204.57 10.835C204.376 10.4482 204.28 10.0059 204.28 9.50781C204.28 9.00977 204.382 8.5498 204.587 8.12793C204.792 7.70605 205.085 7.33984 205.466 7.0293C205.853 6.71289 206.313 6.4668 206.846 6.29102C207.379 6.11523 207.974 6.02734 208.63 6.02734C209.591 6.02734 210.406 6.21191 211.074 6.58105C211.748 6.94434 212.26 7.42188 212.612 8.01367C212.963 8.59961 213.139 9.22656 213.139 9.89453H211.452C211.452 9.41406 211.349 8.98926 211.144 8.62012C210.939 8.24512 210.628 7.95215 210.212 7.74121C209.796 7.52441 209.269 7.41602 208.63 7.41602C208.027 7.41602 207.529 7.50684 207.136 7.68848C206.744 7.87012 206.451 8.11621 206.257 8.42676C206.07 8.7373 205.976 9.0918 205.976 9.49023C205.976 9.75977 206.032 10.0059 206.143 10.2285C206.26 10.4453 206.439 10.6475 206.679 10.835C206.925 11.0225 207.236 11.1953 207.611 11.3535C207.992 11.5117 208.446 11.6641 208.973 11.8105C209.7 12.0156 210.327 12.2441 210.854 12.4961C211.381 12.748 211.815 13.0322 212.155 13.3486C212.5 13.6592 212.755 14.0137 212.919 14.4121C213.089 14.8047 213.174 15.25 213.174 15.748C213.174 16.2695 213.069 16.7412 212.858 17.1631C212.647 17.585 212.345 17.9453 211.953 18.2441C211.56 18.543 211.088 18.7744 210.538 18.9385C209.993 19.0967 209.383 19.1758 208.709 19.1758C208.118 19.1758 207.535 19.0938 206.96 18.9297C206.392 18.7656 205.874 18.5195 205.405 18.1914C204.942 17.8633 204.57 17.459 204.289 16.9785C204.013 16.4922 203.875 15.9297 203.875 15.291H205.563C205.563 15.7305 205.648 16.1084 205.818 16.4248C205.988 16.7354 206.219 16.9932 206.512 17.1982C206.811 17.4033 207.148 17.5557 207.523 17.6553C207.904 17.749 208.299 17.7959 208.709 17.7959C209.301 17.7959 209.802 17.7139 210.212 17.5498C210.623 17.3857 210.933 17.1514 211.144 16.8467C211.361 16.542 211.469 16.1816 211.469 15.7656ZM217.129 17.3125L219.572 9.49023H220.644L220.433 11.0459L217.946 19H216.9L217.129 17.3125ZM215.485 9.49023L217.568 17.4004L217.718 19H216.619L213.859 9.49023H215.485ZM222.982 17.3389L224.969 9.49023H226.586L223.826 19H222.736L222.982 17.3389ZM220.882 9.49023L223.272 17.1807L223.545 19H222.508L219.95 11.0283L219.739 9.49023H220.882ZM229.653 9.49023V19H228.018V9.49023H229.653ZM227.895 6.96777C227.895 6.7041 227.974 6.48145 228.132 6.2998C228.296 6.11816 228.536 6.02734 228.853 6.02734C229.163 6.02734 229.401 6.11816 229.565 6.2998C229.735 6.48145 229.82 6.7041 229.82 6.96777C229.82 7.21973 229.735 7.43652 229.565 7.61816C229.401 7.79395 229.163 7.88184 228.853 7.88184C228.536 7.88184 228.296 7.79395 228.132 7.61816C227.974 7.43652 227.895 7.21973 227.895 6.96777ZM235.875 9.49023V10.7383H230.733V9.49023H235.875ZM232.473 7.17871H234.099V16.6445C234.099 16.9668 234.149 17.21 234.249 17.374C234.348 17.5381 234.477 17.6465 234.635 17.6992C234.794 17.752 234.964 17.7783 235.145 17.7783C235.28 17.7783 235.421 17.7666 235.567 17.7432C235.719 17.7139 235.834 17.6904 235.91 17.6729L235.919 19C235.79 19.041 235.62 19.0791 235.409 19.1143C235.204 19.1553 234.955 19.1758 234.662 19.1758C234.263 19.1758 233.897 19.0967 233.563 18.9385C233.229 18.7803 232.963 18.5166 232.763 18.1475C232.57 17.7725 232.473 17.2686 232.473 16.6357V7.17871ZM241.218 17.8398C241.604 17.8398 241.962 17.7607 242.29 17.6025C242.618 17.4443 242.888 17.2275 243.099 16.9521C243.31 16.6709 243.43 16.3516 243.459 15.9941H245.006C244.977 16.5566 244.786 17.0811 244.435 17.5674C244.089 18.0479 243.635 18.4375 243.072 18.7363C242.51 19.0293 241.892 19.1758 241.218 19.1758C240.503 19.1758 239.879 19.0498 239.346 18.7979C238.818 18.5459 238.379 18.2002 238.027 17.7607C237.682 17.3213 237.421 16.8174 237.245 16.249C237.075 15.6748 236.99 15.0684 236.99 14.4297V14.0605C236.99 13.4219 237.075 12.8184 237.245 12.25C237.421 11.6758 237.682 11.1689 238.027 10.7295C238.379 10.29 238.818 9.94434 239.346 9.69238C239.879 9.44043 240.503 9.31445 241.218 9.31445C241.962 9.31445 242.612 9.4668 243.169 9.77148C243.726 10.0703 244.162 10.4805 244.479 11.002C244.801 11.5176 244.977 12.1035 245.006 12.7598H243.459C243.43 12.3672 243.318 12.0127 243.125 11.6963C242.938 11.3799 242.68 11.1279 242.352 10.9404C242.029 10.7471 241.651 10.6504 241.218 10.6504C240.72 10.6504 240.301 10.75 239.961 10.9492C239.627 11.1426 239.36 11.4062 239.161 11.7402C238.968 12.0684 238.827 12.4346 238.739 12.8389C238.657 13.2373 238.616 13.6445 238.616 14.0605V14.4297C238.616 14.8457 238.657 15.2559 238.739 15.6602C238.821 16.0645 238.959 16.4307 239.152 16.7588C239.352 17.0869 239.618 17.3506 239.952 17.5498C240.292 17.7432 240.714 17.8398 241.218 17.8398ZM248.09 5.5V19H246.464V5.5H248.09ZM247.703 13.8848L247.027 13.8584C247.033 13.208 247.129 12.6074 247.317 12.0566C247.504 11.5 247.768 11.0166 248.108 10.6064C248.448 10.1963 248.852 9.87988 249.321 9.65723C249.795 9.42871 250.32 9.31445 250.894 9.31445C251.363 9.31445 251.785 9.37891 252.16 9.50781C252.535 9.63086 252.854 9.83008 253.118 10.1055C253.387 10.3809 253.592 10.7383 253.733 11.1777C253.873 11.6113 253.944 12.1416 253.944 12.7686V19H252.309V12.751C252.309 12.2529 252.236 11.8545 252.089 11.5557C251.943 11.251 251.729 11.0312 251.448 10.8965C251.166 10.7559 250.821 10.6855 250.411 10.6855C250.006 10.6855 249.637 10.7705 249.303 10.9404C248.975 11.1104 248.691 11.3447 248.451 11.6436C248.216 11.9424 248.032 12.2852 247.897 12.6719C247.768 13.0527 247.703 13.457 247.703 13.8848ZM270.202 12.1973V13.0059C270.202 13.9668 270.082 14.8281 269.842 15.5898C269.602 16.3516 269.256 16.999 268.805 17.5322C268.354 18.0654 267.812 18.4727 267.179 18.7539C266.552 19.0352 265.849 19.1758 265.069 19.1758C264.314 19.1758 263.619 19.0352 262.986 18.7539C262.36 18.4727 261.815 18.0654 261.352 17.5322C260.895 16.999 260.54 16.3516 260.288 15.5898C260.036 14.8281 259.91 13.9668 259.91 13.0059V12.1973C259.91 11.2363 260.033 10.3779 260.279 9.62207C260.531 8.86035 260.886 8.21289 261.343 7.67969C261.8 7.14063 262.342 6.73047 262.969 6.44922C263.602 6.16797 264.296 6.02734 265.052 6.02734C265.831 6.02734 266.534 6.16797 267.161 6.44922C267.794 6.73047 268.336 7.14063 268.787 7.67969C269.244 8.21289 269.593 8.86035 269.833 9.62207C270.079 10.3779 270.202 11.2363 270.202 12.1973ZM268.524 13.0059V12.1797C268.524 11.418 268.444 10.7441 268.286 10.1582C268.134 9.57227 267.908 9.08008 267.61 8.68164C267.311 8.2832 266.944 7.98145 266.511 7.77637C266.083 7.57129 265.597 7.46875 265.052 7.46875C264.525 7.46875 264.047 7.57129 263.619 7.77637C263.197 7.98145 262.834 8.2832 262.529 8.68164C262.231 9.08008 261.999 9.57227 261.835 10.1582C261.671 10.7441 261.589 11.418 261.589 12.1797V13.0059C261.589 13.7734 261.671 14.4531 261.835 15.0449C261.999 15.6309 262.234 16.126 262.538 16.5303C262.849 16.9287 263.215 17.2305 263.637 17.4355C264.065 17.6406 264.542 17.7432 265.069 17.7432C265.62 17.7432 266.11 17.6406 266.537 17.4355C266.965 17.2305 267.325 16.9287 267.618 16.5303C267.917 16.126 268.143 15.6309 268.295 15.0449C268.447 14.4531 268.524 13.7734 268.524 13.0059ZM273.752 11.5205V19H272.126V9.49023H273.665L273.752 11.5205ZM273.366 13.8848L272.689 13.8584C272.695 13.208 272.792 12.6074 272.979 12.0566C273.167 11.5 273.43 11.0166 273.77 10.6064C274.11 10.1963 274.514 9.87988 274.983 9.65723C275.458 9.42871 275.982 9.31445 276.556 9.31445C277.025 9.31445 277.447 9.37891 277.822 9.50781C278.197 9.63086 278.516 9.83008 278.78 10.1055C279.049 10.3809 279.254 10.7383 279.395 11.1777C279.536 11.6113 279.606 12.1416 279.606 12.7686V19H277.971V12.751C277.971 12.2529 277.898 11.8545 277.751 11.5557C277.605 11.251 277.391 11.0312 277.11 10.8965C276.829 10.7559 276.483 10.6855 276.073 10.6855C275.668 10.6855 275.299 10.7705 274.965 10.9404C274.637 11.1104 274.353 11.3447 274.113 11.6436C273.878 11.9424 273.694 12.2852 273.559 12.6719C273.43 13.0527 273.366 13.457 273.366 13.8848Z" fill="#919191"/>
</svg>
