<svg width="42" height="24" viewBox="0 0 42 24" fill="none" xmlns="http://www.w3.org/2000/svg">
<path d="M6.97885 4.21049C7.58029 3.29869 8.59953 2.75 9.69181 2.75H34.4303C35.5326 2.75 36.5597 3.30868 37.1586 4.23401L40.7283 9.74894C41.0688 10.275 41.25 10.8883 41.25 11.5149V18C41.25 19.7949 39.7949 21.25 38 21.25H9.34742C8.41312 21.25 7.52401 20.8479 6.90698 20.1463L2.5807 15.2272C1.61287 14.1268 1.50125 12.5147 2.30818 11.2914L6.97885 4.21049Z" fill="#589DFF" stroke="#589DFF" stroke-width="1.5"/>
<g clip-path="url(#clip0_851_4861)">
<path fill-rule="evenodd" clip-rule="evenodd" d="M25.1593 14.5764L25.1466 14.5963L25.1119 14.6424L25.072 14.6858L22.0838 17.6384C21.7236 17.9942 21.119 17.7686 21.0671 17.2879L21.0635 17.2208L21.0635 13.1339L19.0462 14.7294C18.7885 14.9331 18.4124 14.8918 18.2062 14.6372C18.0158 14.4021 18.0368 14.0674 18.2439 13.857L18.2995 13.8072L20.7043 11.9062L18.2995 10.0053C18.0418 9.8016 18 9.43 18.2062 9.17534C18.3965 8.94026 18.7316 8.887 18.9848 9.04044L19.0462 9.08312L21.0635 10.678L21.0635 6.59169C21.0635 6.08848 21.6525 5.82555 22.0332 6.12919L22.0838 6.17414L25.072 9.12667C25.1004 9.15466 25.1252 9.18468 25.1466 9.21624L25.1632 9.24217L25.1899 9.29159L25.2197 9.36682C25.2821 9.569 25.235 9.79217 25.0842 9.94956L25.0228 10.0053L22.6174 11.9062L25.0228 13.8072C25.1817 13.9328 25.2574 14.1205 25.246 14.3047C25.2422 14.3624 25.2308 14.4169 25.2115 14.4695L25.1899 14.5209L25.1593 14.5764ZM22.2586 13.1344V15.794L23.7539 14.3166L22.2586 13.1344ZM22.2586 10.6775V8.01785L23.7539 9.49529L22.2586 10.6775Z" fill="white"/>
</g>
<defs>
<clipPath id="clip0_851_4861">
<rect width="12" height="12" fill="white" transform="translate(16 6)"/>
</clipPath>
</defs>
</svg>
