<?xml version="1.0" encoding="UTF-8" standalone="no"?>
<!DOCTYPE svg PUBLIC "-//W3C//DTD SVG 1.1//EN" "http://www.w3.org/Graphics/SVG/1.1/DTD/svg11.dtd">
<svg width="100%" height="100%" viewBox="0 0 315 132" version="1.1" xmlns="http://www.w3.org/2000/svg" xmlns:xlink="http://www.w3.org/1999/xlink" xml:space="preserve" xmlns:serif="http://www.serif.com/" style="fill-rule:evenodd;clip-rule:evenodd;stroke-linejoin:round;stroke-miterlimit:2;">
    <path d="M49.933,132C42.622,132 36.556,129.218 32.511,123.808C28.933,119.016 7.156,89.494 6.222,87.794C5.289,86.248 4.511,84.393 3.578,82.23C2.956,80.684 2.178,78.829 1.244,76.974C0.311,75.119 -1.4,70.173 2.956,64.145C6.844,58.89 43.4,11.902 46.356,8.347C49,5.255 54.911,0 63.467,0L260.711,0C265.689,0.155 273,1.082 278.756,7.574C281.711,11.129 291.356,22.876 306.6,41.579L307.222,42.351C309.556,45.288 311.889,48.843 312.511,55.026C313.289,61.208 314.844,100.623 314.844,105.878C314.844,111.133 313.444,113.761 312.2,116.08C312.044,116.389 311.889,116.698 311.733,117.007C310.489,119.326 308.622,123.19 307.378,125.508C306.133,127.981 301.622,131.845 294.467,132L49.933,132ZM63.467,1.7C55.533,1.7 50.089,6.492 47.6,9.429C44.645,12.984 8.089,59.817 4.356,65.073C0.467,70.328 1.867,74.501 2.8,76.201C3.733,78.056 4.511,79.911 5.289,81.611C6.222,83.775 7,85.475 7.778,86.867C8.556,88.258 30.022,117.471 33.911,122.726C37.645,127.672 43.245,130.3 50.089,130.3L294.778,130.3C301.156,130.145 305.044,126.899 306.133,124.735C307.378,122.262 309.245,118.553 310.489,116.234C310.645,115.925 310.8,115.616 310.956,115.307C312.2,113.143 313.289,110.824 313.444,105.878C313.444,99.85 311.733,60.899 311.111,55.18C310.489,49.461 308.311,46.061 306.133,43.433L305.511,42.66C286.378,19.012 279.844,11.129 277.667,8.656C273.622,4.019 268.333,1.855 261.022,1.7L63.467,1.7Z" style="fill:rgb(35,31,32);fill-rule:nonzero;"/>
    <path d="M42.467,121.335C35.311,121.335 31.578,118.553 22.867,106.651C14.467,95.368 2.8,79.138 2.645,78.984L3.422,78.52C3.578,78.675 15.089,94.904 23.489,106.187C32.045,117.78 35.622,120.407 42.467,120.407L299.756,120.407C304.889,120.098 310.178,117.625 311.578,114.843L312.356,115.307C310.8,118.398 305.2,121.18 299.756,121.335L42.467,121.335Z" style="fill:rgb(35,31,32);fill-rule:nonzero;"/>
    <path d="M65.489,94.44C58.022,94.286 54.911,92.431 51.333,88.721C47.756,85.012 39.045,75.429 36.4,72.028C33.289,68.164 34.689,65.073 36.556,62.445C38.578,59.663 67.356,16.539 69.845,12.365C73.111,7.265 78.245,4.173 83.845,4.173L256.2,4.173C262.733,4.173 266.778,5.101 270.822,9.892C274.867,14.684 299.133,44.515 300.845,46.679C303.178,49.771 304.578,53.635 304.578,57.19C304.578,58.581 304.733,61.672 304.889,65.227C305.2,72.646 305.511,81.766 305.356,85.012C305.045,90.267 300.689,94.286 295.089,94.44L65.489,94.44ZM84,4.946C78.711,4.946 73.733,7.883 70.778,12.829C68.133,17.002 39.2,60.126 37.333,62.909C35.778,65.227 34.222,67.855 37.178,71.41C39.822,74.81 48.533,84.239 52.111,87.949C55.533,91.504 58.489,93.358 65.644,93.358L295.4,93.358C300.533,93.204 304.578,89.494 304.889,84.703C305.045,81.457 304.733,71.874 304.422,64.918C304.267,61.363 304.111,58.272 304.111,56.881C304.111,51.934 301.622,48.225 300.533,46.988C298.667,44.824 274.556,14.993 270.356,10.356C266.467,5.874 262.578,5.101 256.356,4.946L84,4.946Z" style="fill:rgb(35,31,32);fill-rule:nonzero;"/>
    <path d="M239.245,80.066C230.378,80.066 221.356,76.356 214.667,70.019C207.356,63.218 203.467,54.098 203.467,44.361C203.622,23.185 222.289,10.201 239.556,10.201L239.711,10.201C256.978,10.356 267.089,22.876 267.089,23.031C268.489,24.885 274.867,32.459 281.4,40.651C288.556,49.461 296.022,58.581 297.889,60.899C300.067,63.527 300.378,68.473 298.667,72.646C297.111,76.665 294,79.293 290.267,79.911L239.245,80.066ZM239.556,11.129C222.756,11.129 204.556,23.803 204.4,44.361C204.4,53.789 208.289,62.754 215.289,69.246C221.978,75.429 230.689,78.984 239.245,78.984L290.267,78.984C293.533,78.365 296.333,76.047 297.889,72.183C299.445,68.319 299.133,63.836 297.267,61.363C295.4,59.045 288.089,49.925 280.778,41.115C274.089,33.077 267.867,25.349 266.467,23.494C266.311,23.34 256.511,11.129 239.556,11.129Z" style="fill:rgb(35,31,32);fill-rule:nonzero;"/>
    <path d="M229.444,126.436C228.667,126.436 228.044,125.817 228.044,125.199C228.044,124.735 228.2,123.963 229.911,123.653L267.089,123.653C268.178,123.653 269.111,124.426 269.111,125.199C269.111,125.663 268.8,126.281 267.244,126.436L229.444,126.436ZM229.911,124.581C228.978,124.735 228.822,125.044 228.822,125.199C228.822,125.354 229.133,125.663 229.444,125.663L267.244,125.663C268.022,125.663 268.333,125.354 268.333,125.354C268.333,125.199 267.867,124.735 267.089,124.735L229.911,124.581Z" style="fill:rgb(35,31,32);fill-rule:nonzero;"/>
    <path d="M294.933,129.063C293.222,129.063 291.978,128.754 291.511,128.136C291.2,127.672 291.2,127.208 291.511,126.745C292.133,125.663 293.067,125.508 294.467,125.508C295.4,125.508 296.645,125.354 298.356,125.199C300.533,124.89 301.622,124.426 302.245,124.117C303.022,123.808 303.489,123.653 304.111,124.117C304.422,124.272 304.578,124.581 304.578,125.045C304.578,125.508 304.267,127.672 300.378,128.445C298.356,128.754 296.333,129.063 294.933,129.063ZM303.333,124.581C303.178,124.581 303.022,124.581 302.556,124.735C301.778,125.045 300.689,125.508 298.511,125.817C296.8,126.126 295.556,126.126 294.622,126.281C293.067,126.281 292.756,126.436 292.289,127.054C292.133,127.363 292.289,127.518 292.289,127.518C292.756,128.136 295.245,128.6 300.378,127.363C302.711,126.899 303.489,125.972 303.8,125.354C303.956,125.045 303.956,124.735 303.956,124.581L303.333,124.581Z" style="fill:rgb(35,31,32);fill-rule:nonzero;"/>
    <path d="M240.8,77.129L240.644,77.129C221.044,76.974 205.8,62.445 205.956,43.897C205.956,35.705 209.378,27.977 215.289,22.103C221.667,15.92 230.533,12.52 239.711,12.52C259.778,12.829 273.622,29.677 273.467,44.67C273.311,60.436 260.867,77.129 240.8,77.129ZM238.933,13.911C230.378,13.911 222.133,17.157 216.067,23.03C210.311,28.595 207.044,36.014 207.044,43.897C206.889,61.672 221.667,75.738 240.489,75.892L240.644,75.892C259.933,75.892 271.911,59.817 271.911,44.824C271.911,30.604 258.689,14.375 239.4,14.066C239.4,13.911 239.244,13.911 238.933,13.911Z" style="fill:rgb(35,31,32);fill-rule:nonzero;"/>
    <path d="M285.911,77.438L285.756,77.438C282.644,77.438 279.689,76.201 277.511,74.038C275.489,71.874 274.4,69.091 274.4,66.464C274.556,61.518 278.756,56.108 285.444,55.953C288.711,55.953 291.667,57.19 293.844,59.508C295.711,61.518 296.8,64.3 296.8,67.082C296.8,69.864 295.711,72.646 293.689,74.656C291.667,76.356 289.022,77.438 285.911,77.438ZM285.444,57.19C279.533,57.19 275.8,61.981 275.644,66.309C275.644,68.782 276.578,71.101 278.444,72.956C280.311,74.965 282.956,76.047 285.756,76.047C288.556,76.047 291.044,75.274 292.756,73.419C294.467,71.719 295.4,69.246 295.4,66.773C295.4,64.3 294.467,61.981 292.756,60.127C291.511,58.89 289.178,57.19 285.444,57.19Z" style="fill:rgb(35,31,32);fill-rule:nonzero;"/>
    <path d="M240.333,71.101C239.867,71.101 239.556,70.946 239.244,70.482C238.933,70.173 237.222,67.391 235.667,64.763L234.889,63.372C234.578,62.754 234.422,62.136 234.733,61.827C234.889,61.672 235.2,61.363 235.822,61.363L244.533,61.363C245.311,61.363 245.622,61.827 245.778,61.981C245.933,62.29 245.933,62.909 245.622,63.218C245.467,63.372 245.156,64.145 244.533,65.073C243.133,67.546 241.733,70.019 241.422,70.482C241.111,70.946 240.644,71.101 240.333,71.101ZM235.667,62.136C235.511,62.136 235.511,62.136 235.511,62.29C235.511,62.445 235.511,62.754 235.667,63.063L236.444,64.3C237.533,66.155 239.711,69.71 240.022,70.019C240.178,70.173 240.333,70.328 240.489,70.328C240.644,70.328 240.8,70.173 240.8,70.019C241.111,69.555 242.822,66.618 243.911,64.763C244.378,63.836 244.844,63.218 245,62.909C245.156,62.754 245.156,62.6 245,62.445C245,62.29 244.689,62.29 244.533,62.29L240.644,62.29C238.467,62.136 236.444,62.136 235.667,62.136Z" style="fill:rgb(35,31,32);fill-rule:nonzero;"/>
    <path d="M220.889,49.461C220.578,49.461 220.422,49.461 219.956,49.307C219.489,49.152 216.067,47.297 212.956,45.443L212.178,44.979C211.556,44.67 211.4,44.206 211.4,43.897C211.4,43.433 211.711,42.97 212.333,42.66C212.8,42.351 215.756,40.806 217.622,39.724L219.333,38.796C219.8,38.487 220.578,38.178 221.044,38.487C221.667,38.796 221.511,39.569 221.511,39.724C221.511,40.651 221.511,45.597 221.667,47.452L221.667,48.07C221.667,48.534 221.511,48.998 221.2,49.152C221.356,49.461 221.044,49.461 220.889,49.461ZM220.733,39.414C220.578,39.414 220.422,39.414 219.956,39.724L218.244,40.651C216.222,41.733 213.422,43.279 212.956,43.588C212.644,43.742 212.489,43.897 212.489,44.051C212.489,44.206 212.644,44.206 212.8,44.361L213.578,44.824C215.289,45.752 219.956,48.379 220.422,48.689C220.889,48.843 221.044,48.843 221.044,48.843L221.044,47.916C221.044,46.061 220.889,41.115 220.889,40.187L221.356,40.187L220.889,40.187C220.889,39.569 220.889,39.414 220.733,39.414Z" style="fill:rgb(35,31,32);fill-rule:nonzero;"/>
    <path d="M259.156,49.461C259,49.461 258.689,49.461 258.533,49.307C258.222,49.152 257.911,48.843 257.911,48.07L257.911,45.288C257.911,43.279 257.756,40.806 257.911,40.033C257.911,39.414 258.067,38.951 258.533,38.642C259,38.333 259.622,38.487 260.556,38.951C261.333,39.414 265.844,42.042 267.089,42.815L267.4,42.969C267.867,43.279 268.178,43.588 268.178,44.051C268.178,44.361 268.022,44.824 267.245,45.288C266.311,45.906 260.867,48.998 260.245,49.307C259.778,49.461 259.467,49.461 259.156,49.461ZM258.689,39.414L258.689,48.07C258.689,48.225 258.689,48.534 258.844,48.534C259,48.689 259.156,48.534 259.467,48.379C260.089,48.07 265.533,44.979 266.467,44.361C266.778,44.206 266.933,43.897 266.933,43.897C266.933,43.742 266.778,43.742 266.622,43.588L266.311,43.433C265.067,42.66 260.556,40.187 259.778,39.724C259.156,39.414 258.689,39.26 258.689,39.414Z" style="fill:rgb(35,31,32);fill-rule:nonzero;"/>
    <path d="M243.911,27.049L235.044,27.049C234.422,27.049 233.956,26.895 233.8,26.431C233.644,26.276 233.489,25.813 233.8,25.04C233.956,24.576 234.889,23.185 235.822,21.639C236.756,20.248 237.533,18.857 237.844,18.239C238.311,17.621 238.622,17.157 239.089,17.157C239.556,17.157 239.867,17.312 240.178,17.93C240.333,18.239 241.267,19.63 242.2,21.176C243.289,22.876 244.378,24.731 244.689,25.04C245,25.504 245,25.967 244.844,26.431C244.844,26.74 244.378,27.049 243.911,27.049ZM235.044,26.122L243.911,26.122C244.067,26.122 244.222,26.122 244.222,25.967C244.378,25.813 244.222,25.658 244.067,25.504C243.756,25.04 242.667,23.34 241.578,21.485C240.644,19.939 239.711,18.548 239.556,18.239C239.4,17.93 239.244,17.93 239.244,17.93C239.244,17.93 238.933,18.084 238.622,18.548C238.311,19.166 237.378,20.557 236.6,21.949C235.667,23.494 234.733,24.885 234.578,25.349C234.422,25.504 234.422,25.658 234.422,25.813C234.733,26.122 234.889,26.122 235.044,26.122Z" style="fill:rgb(35,31,32);fill-rule:nonzero;"/>
    <path d="M288.4,71.41L282.489,71.41L282.489,69.091L288.089,69.091C289.022,69.091 289.644,67.855 289.644,67.082C289.644,66.773 289.489,66.155 289.333,65.691C289.022,65.227 288.711,64.918 288.244,64.918L283.267,64.918L283.267,66.464L279.067,63.682L283.267,60.745L283.267,62.445L288.089,62.445C289.178,62.445 290.267,63.063 291.2,63.991C291.978,64.918 292.289,66 292.289,66.927C292.289,68.164 291.978,69.246 291.2,70.019C290.422,70.946 289.489,71.41 288.4,71.41ZM283.422,70.483L288.4,70.483C289.178,70.483 289.956,70.173 290.578,69.4C291.2,68.782 291.511,67.855 291.511,66.773C291.511,66 291.2,65.073 290.578,64.3C289.956,63.527 289.178,63.063 288.244,63.063L282.644,63.063L282.644,62.136L280.933,63.372L282.644,64.454L282.644,63.682L288.4,63.682C289.178,63.682 289.956,64.145 290.267,64.918C290.733,65.691 290.733,66.464 290.733,66.773C290.733,68.009 289.8,69.555 288.4,69.555L283.578,69.555L283.422,70.483Z" style="fill:rgb(35,31,32);fill-rule:nonzero;"/>
    <path d="M207.511,78.211C206.111,78.211 204.867,77.283 205.022,76.047C205.022,74.81 206.111,73.728 207.356,73.728C208.756,73.728 209.689,74.965 209.689,76.201C209.689,77.129 208.911,78.211 207.511,78.211ZM207.356,74.501C206.578,74.501 205.8,75.119 205.8,76.047C205.8,76.82 206.578,77.438 207.511,77.438C208.444,77.438 208.911,76.665 208.911,76.047C208.756,75.429 208.133,74.501 207.356,74.501Z" style="fill:rgb(35,31,32);fill-rule:nonzero;"/>
    <path d="M240.178,55.49C236.756,55.49 233.489,54.098 231.311,51.934C229.289,49.925 228.2,47.143 228.356,44.051C228.511,36.632 235.2,33.232 239.867,33.232C242.822,33.232 245.622,34.468 247.8,36.632C249.978,38.796 251.222,41.579 251.067,44.515C251.067,47.452 249.978,50.234 247.956,52.244C246.089,54.253 243.289,55.49 240.178,55.49ZM239.867,34.468C235.667,34.468 229.756,37.405 229.756,44.051C229.756,46.679 230.689,49.152 232.4,50.853C234.422,52.862 237.378,54.098 240.333,54.098C242.978,54.098 245.467,53.171 247.178,51.316C248.889,49.461 249.978,47.143 249.978,44.515C249.978,41.888 248.889,39.414 247.022,37.56C245,35.55 242.356,34.623 239.867,34.468Z" style="fill:rgb(35,31,32);fill-rule:nonzero;"/>
    <path d="M189.156,80.375L84.156,80.375C79.489,80.375 75.6,76.665 75.6,71.874L75.6,18.084C75.6,13.447 79.333,9.583 84.156,9.583L189.156,9.583C193.822,9.583 197.711,13.447 197.711,18.084L197.711,71.874C197.711,76.665 193.822,80.375 189.156,80.375ZM84.156,11.283C80.267,11.283 77.156,14.375 77.156,18.239L77.156,72.028C77.156,75.892 80.267,78.984 84.156,78.984L189.156,78.984C193.044,78.984 196.156,75.892 196.156,72.028L196.156,18.084C196.156,14.22 193.044,11.129 189.156,11.129L84.156,11.129L84.156,11.283Z" style="fill:rgb(35,31,32);fill-rule:nonzero;"/>
    <path d="M188.845,76.356L84.778,76.356C81.978,76.356 79.8,74.192 79.8,71.41L79.8,18.394C79.8,15.611 81.978,13.447 84.778,13.447L188.689,13.447C191.489,13.447 193.667,15.611 193.667,18.394L193.667,71.41C193.667,74.192 191.489,76.356 188.845,76.356ZM84.778,14.375C82.6,14.375 80.733,16.23 80.733,18.394L80.733,71.41C80.733,73.574 82.6,75.429 84.778,75.429L188.689,75.429C190.867,75.429 192.733,73.574 192.733,71.41L192.733,18.394C192.733,16.23 190.867,14.375 188.689,14.375L84.778,14.375Z" style="fill:rgb(35,31,32);fill-rule:nonzero;"/>
</svg>
