<svg width="32" height="32" viewBox="0 0 32 32" fill="none" xmlns="http://www.w3.org/2000/svg">
<g clip-path="url(#clip0_1998_6605)">
<path fill-rule="evenodd" clip-rule="evenodd" d="M9.70754 8.92649L7.5323 10.6667H2.66668C1.9303 10.6667 1.33334 11.2636 1.33334 12V20C1.33334 20.7364 1.9303 21.3333 2.66668 21.3333H7.5323L13.8337 26.3745C14.234 26.6947 14.7823 26.7571 15.2443 26.5351C15.7062 26.3131 16 25.8459 16 25.3333V15.219L13.3333 12.5523V22.5592L8.83294 18.9589C8.59652 18.7697 8.30277 18.6667 8.00001 18.6667H4.00001V13.3333H8.00001C8.30277 13.3333 8.59652 13.2303 8.83294 13.0412L11.6048 10.8237L9.70754 8.92649ZM20.1407 19.3597C20.0266 19.4999 19.9048 19.6349 19.7758 19.764C19.2552 20.2848 19.2553 21.129 19.7761 21.6496C20.2969 22.1702 21.1411 22.1701 21.6617 21.6493C21.7903 21.5207 21.9141 21.3881 22.0329 21.2519L20.1407 19.3597ZM23.4559 18.9036L21.2858 16.7335C21.3199 16.4896 21.3373 16.2424 21.3373 15.9933C21.3373 14.5791 20.7757 13.2228 19.7758 12.2227C19.2552 11.7019 19.2553 10.8577 19.7761 10.337C20.2969 9.81642 21.1411 9.81655 21.6617 10.3373C23.1615 11.8375 24.004 13.872 24.004 15.9933C24.004 16.9988 23.8147 17.9848 23.4559 18.9036ZM24.8647 24.0836C24.7406 24.2197 24.6132 24.3532 24.4825 24.484C23.9619 25.0048 23.962 25.849 24.4828 26.3696C25.0035 26.8902 25.8478 26.8901 26.3684 26.3693C26.499 26.2387 26.6268 26.1059 26.752 25.9709L24.8647 24.0836ZM28.3917 23.8394L26.4479 21.8956C27.4539 20.1119 27.9959 18.0839 27.9959 16C27.9959 12.818 26.7321 9.76632 24.4825 7.51599C23.9619 6.99521 23.962 6.15099 24.4828 5.63037C25.0035 5.10975 25.8478 5.10988 26.3684 5.63066C29.118 8.38106 30.6626 12.1109 30.6626 16C30.6626 18.7972 29.8635 21.5121 28.3917 23.8394ZM16 11.4477L11.8027 7.25038L13.8337 5.62552C14.234 5.30534 14.7823 5.24291 15.2443 5.46494C15.7062 5.68697 16 6.15414 16 6.66668V11.4477Z" fill="white"/>
<path fill-rule="evenodd" clip-rule="evenodd" d="M0.390524 0.390524C0.911223 -0.130175 1.75544 -0.130175 2.27614 0.390524L31.6095 29.7239C32.1302 30.2446 32.1302 31.0888 31.6095 31.6095C31.0888 32.1302 30.2446 32.1302 29.7239 31.6095L0.390524 2.27614C-0.130175 1.75544 -0.130175 0.911223 0.390524 0.390524Z" fill="white"/>
</g>
<defs>
<clipPath id="clip0_1998_6605">
<rect width="32" height="32" fill="white"/>
</clipPath>
</defs>
</svg>
