<svg width="32" height="32" viewBox="0 0 32 32" fill="none" xmlns="http://www.w3.org/2000/svg">
<path d="M7.98438 21H6.35547V17.3027H3.94141V21H2.30664V12.4688H3.94141V15.9668H6.35547V12.4688H7.98438V21ZM14.8105 17.2617H11.3066V19.6699H15.4023V21H9.6543V12.4688H15.3848V13.8105H11.3066V15.9609H14.8105V17.2617ZM20.9629 19.2188H18.4023L17.8984 21H16.1641L18.959 12.4688H20.4531L23.1953 21H21.4609L20.9629 19.2188ZM18.8066 17.8184H20.5762L19.7031 14.6777L18.8066 17.8184ZM30.2441 13.8105H27.6133V21H25.9609V13.8105H23.3652V12.4688H30.2441V13.8105Z" fill="white"/>
</svg>
