<svg width="42" height="24" viewBox="0 0 42 24" fill="none" xmlns="http://www.w3.org/2000/svg">
<path d="M23.1362 3.36196H23.8862V3.32455L23.8825 3.28733L23.1362 3.36196ZM22.9837 2.5414L23.6501 2.19744V2.19744L22.9837 2.5414ZM23.1362 3.36197H22.3862V3.39937L22.3899 3.43659L23.1362 3.36197ZM23.4311 4.81879L22.8348 5.27365V5.27365L23.4311 4.81879ZM24.3596 5.20337L24.4596 5.94667L24.4596 5.94667L24.3596 5.20337ZM25.5979 4.38208L26.0728 4.96255L26.0728 4.96255L25.5979 4.38208ZM26.2853 3.91017L26.5135 4.62459L26.2853 3.91017ZM26.9872 3.94518L27.2855 3.25702V3.25702L26.9872 3.94518ZM27.6243 4.48315L27.0939 5.01348V5.01348L27.6243 4.48315ZM28.518 5.37691L27.9877 5.90724L28.0054 5.9249L28.0241 5.94135L28.518 5.37691ZM28.518 5.37692L29.0484 4.84659L29.0307 4.82893L29.0119 4.81249L28.518 5.37692ZM29.0557 6.01344L29.7437 5.71505L29.7437 5.71504L29.0557 6.01344ZM29.0907 6.71591L29.805 6.94437L29.8051 6.94436L29.0907 6.71591ZM28.6191 7.40277L29.1796 7.90104L29.1898 7.88957L29.1995 7.8777L28.6191 7.40277ZM28.6191 7.40278L28.0585 6.90451L28.0483 6.91598L28.0386 6.92785L28.6191 7.40278ZM27.7983 8.64018L27.055 8.53986H27.055L27.7983 8.64018ZM28.1831 9.56927L28.6377 8.97277L28.6377 8.97277L28.1831 9.56927ZM29.6387 9.86387L29.5641 10.6101H29.5641L29.6387 9.86387ZM30.4582 10.0162L30.1146 10.6828V10.6828L30.4582 10.0162ZM30.93 10.5375L31.6275 10.2618L31.6275 10.2618L30.93 10.5375ZM30.9299 13.4628L30.2325 13.187V13.187L30.9299 13.4628ZM30.4585 13.9837L30.8024 14.6502L30.8024 14.6502L30.4585 13.9837ZM29.6384 14.1362L29.7131 14.8824L29.6384 14.1362ZM28.1815 14.4312L27.7265 13.835L27.7265 13.835L28.1815 14.4312ZM27.7971 15.3593L27.0538 15.4592L27.0538 15.4592L27.7971 15.3593ZM28.6187 16.5982L28.0382 17.0732L28.0437 17.0798L28.0493 17.0863L28.6187 16.5982ZM28.6187 16.5982L29.1992 16.1233L29.1938 16.1167L29.1882 16.1102L28.6187 16.5982ZM29.0909 17.286L28.3764 17.5142L28.3764 17.5142L29.0909 17.286ZM29.0559 17.9876L28.3677 17.6896L28.3677 17.6896L29.0559 17.9876ZM26.9872 20.0564L26.6891 19.3682L26.6891 19.3682L26.9872 20.0564ZM26.2854 20.0914L26.0572 20.8058L26.0572 20.8058L26.2854 20.0914ZM25.5978 19.6193L25.1229 20.1998L25.1229 20.1998L25.5978 19.6193ZM24.3596 18.798L24.2595 19.5413H24.2595L24.3596 18.798ZM23.4309 19.1827L24.0273 19.6375H24.0273L23.4309 19.1827ZM23.1361 20.6387L23.8824 20.7133V20.7133L23.1361 20.6387ZM22.9838 21.4583L22.3172 21.1146L22.3172 21.1146L22.9838 21.4583ZM22.4626 21.93L22.1869 21.2325H22.1869L22.4626 21.93ZM19.5375 21.93L19.8131 21.2325L19.8131 21.2325L19.5375 21.93ZM19.0161 21.4582L18.3495 21.8018H18.3495L19.0161 21.4582ZM18.8639 20.6388L19.6102 20.5642V20.5642L18.8639 20.6388ZM18.5692 19.1832L17.9728 19.6379L18.5692 19.1832ZM17.6403 18.7984L17.5401 18.0551L17.6403 18.7984ZM16.4023 19.6197L15.9273 19.0392H15.9273L16.4023 19.6197ZM15.7146 20.0918L15.4864 19.3774H15.4864L15.7146 20.0918ZM15.0127 20.0568L14.7146 20.745L14.7146 20.745L15.0127 20.0568ZM14.3756 19.5187L13.8452 20.0491H13.8452L14.3756 19.5187ZM13.4824 18.6256L12.9521 19.1559H12.9521L13.4824 18.6256ZM12.944 17.9879L12.2557 18.2859H12.2557L12.944 17.9879ZM12.909 17.2866L13.6235 17.5146H13.6235L12.909 17.2866ZM13.3814 16.5985L12.817 16.1046L12.8088 16.114L12.8009 16.1236L13.3814 16.5985ZM13.3814 16.5985L13.9458 17.0924L13.954 17.083L13.9619 17.0734L13.3814 16.5985ZM14.2032 15.3592L14.9466 15.459L14.9466 15.459L14.2032 15.3592ZM13.8189 14.4313L14.274 13.8351L13.8189 14.4313ZM12.3617 14.1362L12.287 14.8824H12.287L12.3617 14.1362ZM11.5414 13.9837L11.1975 14.6502L11.1975 14.6502L11.5414 13.9837ZM11.0701 13.4629L11.7675 13.187L11.7675 13.187L11.0701 13.4629ZM11.07 10.5374L11.7675 10.8131L11.7675 10.8131L11.07 10.5374ZM11.5417 10.0162L11.198 9.34959L11.198 9.34959L11.5417 10.0162ZM12.3614 9.86386V9.11386H12.324L12.2867 9.11758L12.3614 9.86386ZM12.3614 9.86386V10.6139H12.3988L12.436 10.6101L12.3614 9.86386ZM13.8174 9.56912L14.2721 10.1655H14.2721L13.8174 9.56912ZM14.2021 8.64036L14.9454 8.54019V8.54019L14.2021 8.64036ZM13.381 7.40247L12.781 7.85247L12.7905 7.86514L12.8005 7.8774L13.381 7.40247ZM13.381 7.40246L13.981 6.95246L13.9715 6.93979L13.9615 6.92753L13.381 7.40246ZM12.9092 6.71532L13.6236 6.48698L13.6236 6.48698L12.9092 6.71532ZM12.9443 6.01312L13.6324 6.31143V6.31142L12.9443 6.01312ZM13.4821 5.37633L14.0124 5.90667H14.0124L13.4821 5.37633ZM15.0127 3.94472L14.7145 3.25655L15.0127 3.94472ZM15.7147 3.90971L15.9429 3.19528L15.7147 3.90971ZM16.4021 4.38165L15.9272 4.96212L16.4021 4.38165ZM17.6405 5.20299L17.7405 4.45968H17.7405L17.6405 5.20299ZM18.5689 4.81843L19.1652 5.27331L19.1652 5.27331L18.5689 4.81843ZM18.8638 3.36172L19.6101 3.43635V3.43635L18.8638 3.36172ZM19.0163 2.54149L19.6828 2.88537V2.88537L19.0163 2.54149ZM19.5372 2.0701L19.2613 1.37267V1.37267L19.5372 2.0701ZM22.4629 2.07014L22.7388 1.37274L22.7388 1.37274L22.4629 2.07014ZM23.8825 3.28733C23.8618 3.08019 23.843 2.88833 23.8161 2.72821C23.7879 2.56072 23.7439 2.37909 23.6501 2.19744L22.3172 2.88535C22.3109 2.87311 22.3214 2.88472 22.3368 2.97663C22.3535 3.07591 22.3672 3.20962 22.3899 3.43659L23.8825 3.28733ZM23.8862 3.36197V3.36196H22.3862V3.36197H23.8862ZM24.0274 4.36393C24.0534 4.398 24.025 4.38578 23.9882 4.18104C23.9526 3.9835 23.9248 3.71047 23.8825 3.28734L22.3899 3.43659C22.4297 3.83456 22.4634 4.17736 22.5119 4.44666C22.5591 4.70876 22.6371 5.01441 22.8348 5.27365L24.0274 4.36393ZM24.2596 4.46007C24.1705 4.47205 24.0819 4.43535 24.0274 4.36393L22.8348 5.27365C23.2162 5.77361 23.8364 6.03054 24.4596 5.94667L24.2596 4.46007ZM25.123 3.80161C24.794 4.0708 24.5813 4.24408 24.4166 4.35857C24.2458 4.47723 24.2171 4.46578 24.2596 4.46007L24.4596 5.94667C24.7827 5.90319 25.054 5.74228 25.2726 5.59031C25.4972 5.43419 25.7634 5.21571 26.0728 4.96255L25.123 3.80161ZM26.057 3.19575C25.8625 3.25791 25.703 3.35509 25.5648 3.45356C25.4327 3.54769 25.2839 3.66994 25.123 3.80161L26.0728 4.96255C26.2492 4.81826 26.3533 4.73355 26.4352 4.67521C26.511 4.6212 26.5266 4.62041 26.5135 4.62459L26.057 3.19575ZM27.2855 3.25702C26.8969 3.08863 26.4604 3.06686 26.057 3.19575L26.5135 4.62459C26.5712 4.60618 26.6335 4.60929 26.689 4.63334L27.2855 3.25702ZM28.1546 3.95282C28.0076 3.80579 27.8717 3.66933 27.7496 3.56252C27.6218 3.45079 27.4729 3.33823 27.2855 3.25702L26.689 4.63334C26.6764 4.62788 26.6919 4.63022 26.7619 4.6915C26.8376 4.7577 26.9328 4.85236 27.0939 5.01348L28.1546 3.95282ZM29.0484 4.84658L28.1546 3.95282L27.0939 5.01348L27.9877 5.90724L29.0484 4.84658ZM29.0119 4.81249L29.0119 4.81248L28.0241 5.94135L28.0242 5.94136L29.0119 4.81249ZM29.7437 5.71504C29.6625 5.52781 29.55 5.37895 29.4384 5.25133C29.3316 5.12932 29.1953 4.99352 29.0484 4.84659L27.9877 5.90725C28.1487 6.06825 28.2433 6.16338 28.3094 6.239C28.3707 6.309 28.373 6.32445 28.3676 6.31185L29.7437 5.71504ZM29.8051 6.94436C29.9341 6.54069 29.9124 6.10388 29.7437 5.71505L28.3676 6.31184C28.3917 6.36739 28.3948 6.42979 28.3763 6.48746L29.8051 6.94436ZM29.1995 7.8777C29.3311 7.71688 29.4533 7.56818 29.5474 7.43617C29.6458 7.29807 29.7429 7.13876 29.805 6.94437L28.3763 6.48746C28.3805 6.47438 28.3797 6.48998 28.3257 6.56572C28.2674 6.64755 28.1828 6.75163 28.0386 6.92784L29.1995 7.8777ZM29.1796 7.90106L29.1796 7.90104L28.0585 6.9045L28.0585 6.90451L29.1796 7.90106ZM28.5415 8.7405C28.5358 8.7829 28.5244 8.75421 28.643 8.58361C28.7574 8.41898 28.9305 8.20648 29.1995 7.87771L28.0386 6.92785C27.7856 7.23705 27.5673 7.50302 27.4113 7.72749C27.2594 7.94599 27.0986 8.21701 27.055 8.53986L28.5415 8.7405ZM28.6377 8.97277C28.5662 8.91828 28.5295 8.82959 28.5415 8.7405L27.055 8.53986C26.9708 9.1635 27.228 9.78432 27.7285 10.1658L28.6377 8.97277ZM29.7133 9.11759C29.2906 9.07532 29.0178 9.04749 28.8204 9.01198C28.6159 8.97519 28.6037 8.94683 28.6377 8.97277L27.7285 10.1658C27.9876 10.3633 28.293 10.4412 28.5549 10.4883C28.824 10.5367 29.1665 10.5704 29.5641 10.6101L29.7133 9.11759ZM30.8019 9.34953C30.6204 9.25597 30.439 9.21198 30.2717 9.1839C30.1118 9.15705 29.9202 9.13828 29.7133 9.11759L29.5641 10.6101C29.7907 10.6328 29.9243 10.6466 30.0234 10.6632C30.1152 10.6786 30.1268 10.6891 30.1146 10.6828L30.8019 9.34953ZM31.6275 10.2618C31.4718 9.86782 31.1785 9.54366 30.8019 9.34953L30.1146 10.6828C30.1684 10.7105 30.2103 10.7568 30.2325 10.8131L31.6275 10.2618ZM31.75 11.368C31.75 11.1601 31.7504 10.9676 31.7396 10.8058C31.7283 10.6366 31.7026 10.4517 31.6275 10.2618L30.2325 10.8131C30.2275 10.8003 30.2367 10.8129 30.2429 10.9057C30.2496 11.006 30.25 11.1402 30.25 11.368H31.75ZM31.75 12.6316V11.368H30.25V12.6316H31.75ZM31.6273 13.7386C31.7025 13.5486 31.7283 13.3636 31.7396 13.1942C31.7504 13.0323 31.75 12.8397 31.75 12.6316H30.25C30.25 12.8596 30.2496 12.9939 30.2429 13.0943C30.2367 13.1872 30.2274 13.1997 30.2325 13.187L31.6273 13.7386ZM30.8024 14.6502C31.1786 14.4562 31.4717 14.1323 31.6273 13.7386L30.2325 13.187C30.2102 13.2432 30.1684 13.2895 30.1146 13.3172L30.8024 14.6502ZM29.7131 14.8824C29.92 14.8617 30.1118 14.843 30.2718 14.8161C30.4393 14.788 30.6208 14.7439 30.8024 14.6502L30.1146 13.3172C30.1268 13.3109 30.1152 13.3214 30.0234 13.3368C29.9242 13.3534 29.7906 13.3672 29.5638 13.3899L29.7131 14.8824ZM28.6365 15.0274C28.6025 15.0534 28.6147 15.025 28.8194 14.9882C29.0169 14.9526 29.2899 14.9247 29.7131 14.8824L29.5638 13.3899C29.1658 13.4297 28.823 13.4634 28.5537 13.5119C28.2915 13.5591 27.9858 13.6371 27.7265 13.835L28.6365 15.0274ZM28.5404 15.2595C28.5284 15.1705 28.5651 15.0819 28.6365 15.0274L27.7265 13.835C27.2269 14.2163 26.9701 14.8363 27.0538 15.4592L28.5404 15.2595ZM29.1992 16.1233C28.9299 15.7941 28.7565 15.5814 28.6419 15.4165C28.5232 15.2457 28.5347 15.217 28.5404 15.2595L27.0538 15.4592C27.0972 15.7824 27.2582 16.0538 27.4102 16.2726C27.5664 16.4973 27.785 16.7636 28.0382 17.0732L29.1992 16.1233ZM29.1882 16.1102L29.1882 16.1101L28.0493 17.0863L28.0493 17.0863L29.1882 16.1102ZM29.8054 17.0579C29.7432 16.8633 29.646 16.7037 29.5475 16.5654C29.4533 16.4332 29.3309 16.2844 29.1992 16.1233L28.0383 17.0732C28.1826 17.2496 28.2674 17.3538 28.3258 17.4358C28.3798 17.5116 28.3806 17.5273 28.3764 17.5142L29.8054 17.0579ZM29.7441 18.2857C29.9123 17.8973 29.9341 17.4611 29.8053 17.0579L28.3764 17.5142C28.3948 17.5718 28.3917 17.6341 28.3677 17.6896L29.7441 18.2857ZM29.048 19.1553C29.1951 19.0082 29.3316 18.8722 29.4385 18.7501C29.5503 18.6223 29.6629 18.4732 29.7441 18.2857L28.3677 17.6896C28.3731 17.6769 28.3708 17.6924 28.3095 17.7625C28.2433 17.8382 28.1485 17.9335 27.9873 18.0947L29.048 19.1553ZM29.048 19.1553L29.048 19.1553L27.9873 18.0947L27.9873 18.0947L29.048 19.1553ZM28.1547 20.0486L29.048 19.1553L27.9873 18.0947L27.094 18.988L28.1547 20.0486ZM27.2854 20.7445C27.4728 20.6633 27.6218 20.5507 27.7496 20.439C27.8717 20.3322 28.0076 20.1957 28.1547 20.0486L27.094 18.988C26.9329 19.1491 26.8377 19.2438 26.762 19.31C26.6919 19.3713 26.6765 19.3736 26.6891 19.3682L27.2854 20.7445ZM26.0572 20.8058C26.4605 20.9346 26.8969 20.9129 27.2854 20.7445L26.6891 19.3682C26.6336 19.3922 26.5712 19.3953 26.5136 19.3769L26.0572 20.8058ZM25.1229 20.1998C25.2839 20.3315 25.4327 20.4538 25.5649 20.5479C25.7031 20.6464 25.8626 20.7436 26.0572 20.8058L26.5136 19.3769C26.5267 19.3811 26.5111 19.3803 26.4353 19.3263C26.3533 19.2679 26.2491 19.1832 26.0727 19.0388L25.1229 20.1998ZM24.2595 19.5413C24.217 19.5356 24.2457 19.5241 24.4165 19.6428C24.5812 19.7573 24.7939 19.9306 25.1229 20.1998L26.0727 19.0388C25.7633 18.7857 25.4972 18.5672 25.2726 18.4111C25.0539 18.2591 24.7827 18.0982 24.4597 18.0547L24.2595 19.5413ZM24.0273 19.6375C24.0818 19.566 24.1704 19.5293 24.2595 19.5413L24.4597 18.0547C23.8364 17.9708 23.2159 18.2277 22.8345 18.7279L24.0273 19.6375ZM23.8824 20.7133C23.9247 20.2905 23.9525 20.0176 23.9881 19.8202C24.0249 19.6156 24.0532 19.6034 24.0273 19.6375L22.8345 18.7279C22.6369 18.9871 22.5589 19.2926 22.5118 19.5546C22.4633 19.8238 22.4296 20.1664 22.3899 20.5641L23.8824 20.7133ZM23.6504 21.802C23.744 21.6205 23.788 21.4391 23.8161 21.2718C23.8429 21.1118 23.8617 20.9202 23.8824 20.7133L22.3899 20.5641C22.3672 20.7908 22.3534 20.9243 22.3368 21.0234C22.3214 21.1152 22.3109 21.1268 22.3172 21.1146L23.6504 21.802ZM22.7383 22.6275C23.1322 22.4718 23.4563 22.1785 23.6504 21.802L22.3172 21.1146C22.2895 21.1684 22.2432 21.2103 22.1869 21.2325L22.7383 22.6275ZM21.6319 22.75C21.8398 22.75 22.0324 22.7504 22.1942 22.7396C22.3635 22.7283 22.5484 22.7025 22.7383 22.6275L22.1869 21.2325C22.1997 21.2274 22.1871 21.2367 22.0943 21.2429C21.994 21.2496 21.8597 21.25 21.6319 21.25V22.75ZM20.3679 22.75H21.6319V21.25H20.3679V22.75ZM19.2619 22.6276C19.4518 22.7026 19.6366 22.7283 19.8058 22.7396C19.9676 22.7504 20.1601 22.75 20.3679 22.75V21.25C20.1402 21.25 20.006 21.2496 19.9057 21.2429C19.8129 21.2367 19.8003 21.2275 19.8131 21.2325L19.2619 22.6276ZM18.3495 21.8018C18.5436 22.1785 18.8678 22.4719 19.2619 22.6276L19.8131 21.2325C19.7568 21.2103 19.7105 21.1684 19.6828 21.1145L18.3495 21.8018ZM18.1176 20.7135C18.1383 20.9203 18.1571 21.1118 18.1839 21.2717C18.212 21.439 18.256 21.6204 18.3495 21.8018L19.6828 21.1145C19.6891 21.1268 19.6786 21.1152 19.6632 21.0234C19.6466 20.9243 19.6328 20.7908 19.6102 20.5642L18.1176 20.7135ZM17.9728 19.6379C17.9468 19.6038 17.9752 19.6161 18.012 19.8206C18.0475 20.0179 18.0753 20.2907 18.1176 20.7135L19.6102 20.5642C19.5704 20.1666 19.5367 19.8241 19.4883 19.555C19.4412 19.293 19.3632 18.9876 19.1657 18.7285L17.9728 19.6379ZM17.7405 19.5417C17.8296 19.5297 17.9183 19.5664 17.9728 19.6379L19.1657 18.7285C18.7842 18.2281 18.1636 17.9711 17.5401 18.0551L17.7405 19.5417ZM16.8772 20.2001C17.2062 19.931 17.4188 19.7577 17.5835 19.6432C17.7543 19.5245 17.783 19.536 17.7405 19.5417L17.5401 18.0551C17.2171 18.0987 16.946 18.2596 16.7274 18.4115C16.5028 18.5676 16.2367 18.7861 15.9273 19.0392L16.8772 20.2001ZM15.9427 20.8063C16.1374 20.7441 16.2969 20.6469 16.4351 20.5484C16.5673 20.4542 16.7162 20.3319 16.8772 20.2001L15.9273 19.0392C15.7509 19.1836 15.6467 19.2683 15.5647 19.3267C15.4889 19.3808 15.4732 19.3816 15.4864 19.3774L15.9427 20.8063ZM14.7146 20.745C15.1031 20.9133 15.5394 20.9351 15.9427 20.8063L15.4864 19.3774C15.4287 19.3958 15.3664 19.3927 15.3109 19.3686L14.7146 20.745ZM13.8452 20.0491C13.9923 20.1961 14.1283 20.3326 14.2504 20.4394C14.3781 20.5512 14.5271 20.6638 14.7146 20.745L15.3109 19.3686C15.3235 19.3741 15.3081 19.3717 15.238 19.3105C15.1623 19.2442 15.0671 19.1496 14.9059 18.9884L13.8452 20.0491ZM12.9521 19.1559L13.8452 20.0491L14.9059 18.9884L14.0128 18.0953L12.9521 19.1559ZM12.2557 18.2859C12.337 18.4735 12.4496 18.6226 12.5614 18.7505C12.6683 18.8727 12.8049 19.0087 12.9521 19.1559L14.0128 18.0953C13.8515 17.934 13.7567 17.8387 13.6905 17.7629C13.6292 17.6928 13.6268 17.6774 13.6323 17.69L12.2557 18.2859ZM12.1945 17.0586C12.0659 17.4617 12.0877 17.8977 12.2557 18.2859L13.6323 17.69C13.6083 17.6345 13.6052 17.5722 13.6235 17.5146L12.1945 17.0586ZM12.8009 16.1236C12.6691 16.2847 12.5467 16.4337 12.4525 16.5659C12.354 16.7043 12.2567 16.8639 12.1945 17.0586L13.6235 17.5146C13.6194 17.5278 13.6201 17.5121 13.6742 17.4362C13.7326 17.3543 13.8174 17.25 13.9619 17.0734L12.8009 16.1236ZM12.817 16.1046L12.817 16.1046L13.9458 17.0924L13.9458 17.0924L12.817 16.1046ZM13.4599 15.2595C13.4656 15.217 13.4771 15.2457 13.3583 15.4166C13.2438 15.5815 13.0703 15.7943 12.8009 16.1236L13.9619 17.0734C14.2152 16.7638 14.4339 16.4974 14.5901 16.2726C14.7422 16.0538 14.9032 15.7824 14.9466 15.459L13.4599 15.2595ZM13.3638 15.0275C13.4352 15.0819 13.4719 15.1705 13.4599 15.2595L14.9466 15.459C15.0302 14.8362 14.7734 14.2164 14.274 13.8351L13.3638 15.0275ZM12.287 14.8824C12.7103 14.9248 12.9834 14.9526 13.1809 14.9882C13.3857 15.025 13.3979 15.0535 13.3638 15.0275L14.274 13.8351C14.0146 13.6372 13.7089 13.5591 13.4467 13.5119C13.1773 13.4634 12.8344 13.4297 12.4363 13.3899L12.287 14.8824ZM11.1975 14.6502C11.3791 14.7439 11.5607 14.7879 11.7281 14.8161C11.8882 14.843 12.08 14.8617 12.287 14.8824L12.4363 13.3899C12.2094 13.3672 12.0758 13.3534 11.9766 13.3368C11.8847 13.3214 11.8731 13.3109 11.8854 13.3172L11.1975 14.6502ZM10.3727 13.7388C10.5284 14.1323 10.8214 14.4561 11.1975 14.6502L11.8854 13.3172C11.8316 13.2895 11.7898 13.2432 11.7675 13.187L10.3727 13.7388ZM10.25 12.6315C10.25 12.8396 10.2496 13.0323 10.2604 13.1943C10.2718 13.3637 10.2975 13.5487 10.3727 13.7388L11.7675 13.187C11.7726 13.1998 11.7633 13.1872 11.7571 13.0943C11.7504 12.9939 11.75 12.8595 11.75 12.6315H10.25ZM10.25 11.3681V12.6315H11.75V11.3681H10.25ZM10.3725 10.2617C10.2975 10.4516 10.2717 10.6365 10.2604 10.8058C10.2496 10.9676 10.25 11.1602 10.25 11.3681H11.75C11.75 11.1403 11.7504 11.0061 11.7571 10.9057C11.7633 10.8129 11.7726 10.8003 11.7675 10.8131L10.3725 10.2617ZM11.198 9.34959C10.8215 9.54372 10.5282 9.86779 10.3725 10.2617L11.7675 10.8131C11.7897 10.7568 11.8316 10.7105 11.8854 10.6828L11.198 9.34959ZM12.2867 9.11758C12.0798 9.13827 11.8882 9.15705 11.7282 9.1839C11.5609 9.212 11.3795 9.256 11.198 9.34959L11.8854 10.6828C11.8732 10.6891 11.8848 10.6786 11.9766 10.6632C12.0757 10.6466 12.2093 10.6328 12.436 10.6101L12.2867 9.11758ZM12.3614 9.11386H12.3614V10.6139H12.3614V9.11386ZM12.3614 9.11386H12.3614V10.6139H12.3614V9.11386ZM13.3626 8.97271C13.3967 8.94675 13.3844 8.97513 13.1799 9.01194C12.9825 9.04746 12.7096 9.0753 12.2867 9.11758L12.436 10.6101C12.8337 10.5704 13.1763 10.5367 13.4455 10.4882C13.7075 10.4411 14.013 10.3631 14.2721 10.1655L13.3626 8.97271ZM13.4588 8.74052C13.4708 8.82958 13.4341 8.91822 13.3626 8.97271L14.2721 10.1655C14.7723 9.78411 15.0294 9.16359 14.9454 8.54019L13.4588 8.74052ZM12.8005 7.8774C13.0696 8.20629 13.2429 8.41888 13.3573 8.58357C13.4759 8.75423 13.4645 8.78294 13.4588 8.74052L14.9454 8.54019C14.9018 8.2172 14.741 7.94607 14.589 7.72749C14.433 7.50293 14.2146 7.23686 13.9615 6.92754L12.8005 7.8774ZM12.781 7.85246L12.781 7.85247L13.981 6.95247L13.981 6.95246L12.781 7.85246ZM12.1948 6.94367C12.257 7.13815 12.3542 7.29753 12.4526 7.43568C12.5467 7.56775 12.6689 7.71651 12.8005 7.87739L13.9615 6.92753C13.8172 6.75124 13.7326 6.64713 13.6742 6.56527C13.6202 6.48949 13.6194 6.47389 13.6236 6.48698L12.1948 6.94367ZM12.2561 5.71482C12.0876 6.10352 12.0659 6.54014 12.1948 6.94367L13.6236 6.48698C13.6052 6.42933 13.6083 6.36695 13.6324 6.31143L12.2561 5.71482ZM12.9517 4.846C12.8048 4.99299 12.6683 5.12885 12.5616 5.2509C12.4499 5.37858 12.3373 5.5275 12.2561 5.71482L13.6324 6.31142C13.6269 6.32403 13.6293 6.30858 13.6905 6.23855C13.7567 6.1629 13.8513 6.06773 14.0124 5.90667L12.9517 4.846ZM13.8454 3.95239L12.9517 4.846L14.0124 5.90667L14.906 5.01305L13.8454 3.95239ZM14.7145 3.25655C14.5271 3.33776 14.3781 3.45033 14.2504 3.56207C14.1283 3.66888 13.9924 3.80535 13.8454 3.95239L14.906 5.01305C15.0671 4.85192 15.1624 4.75726 15.238 4.69105C15.3081 4.62977 15.3235 4.62742 15.3109 4.63289L14.7145 3.25655ZM15.9429 3.19528C15.5395 3.06641 15.1031 3.08818 14.7145 3.25655L15.3109 4.63289C15.3664 4.60883 15.4288 4.60573 15.4864 4.62414L15.9429 3.19528ZM16.877 3.80118C16.7161 3.6695 16.5673 3.54724 16.4351 3.4531C16.2969 3.35463 16.1375 3.25744 15.9429 3.19528L15.4864 4.62414C15.4733 4.61995 15.4889 4.62075 15.5647 4.67475C15.6466 4.7331 15.7508 4.81782 15.9272 4.96212L16.877 3.80118ZM17.7405 4.45968C17.7829 4.46539 17.7542 4.47684 17.5835 4.35818C17.4187 4.24368 17.206 4.07038 16.877 3.80118L15.9272 4.96212C16.2366 5.2153 16.5028 5.43379 16.7274 5.58992C16.9461 5.7419 17.2174 5.90282 17.5405 5.94629L17.7405 4.45968ZM17.9726 4.36354C17.9181 4.43496 17.8295 4.47166 17.7405 4.45968L17.5405 5.94629C18.1636 6.03013 18.7839 5.77322 19.1652 5.27331L17.9726 4.36354ZM18.1175 3.28709C18.0752 3.71019 18.0474 3.98318 18.0118 4.18069C17.975 4.38539 17.9466 4.3976 17.9726 4.36354L19.1652 5.27331C19.363 5.01407 19.441 4.70844 19.4881 4.44633C19.5366 4.17704 19.5703 3.83427 19.6101 3.43635L18.1175 3.28709ZM18.3498 2.19761C18.2561 2.37921 18.212 2.56076 18.1839 2.7282C18.157 2.88827 18.1383 3.08006 18.1175 3.2871L19.6101 3.43635C19.6328 3.20948 19.6465 3.07584 19.6632 2.97661C19.6786 2.88475 19.6891 2.87314 19.6828 2.88537L18.3498 2.19761ZM19.2613 1.37267C18.8677 1.52836 18.5439 1.82144 18.3498 2.19761L19.6828 2.88537C19.7105 2.83163 19.7568 2.78977 19.813 2.76752L19.2613 1.37267ZM20.3684 1.25C20.1604 1.25 19.9677 1.24961 19.8058 1.26043C19.6364 1.27175 19.4513 1.29752 19.2613 1.37267L19.813 2.76752C19.8003 2.77258 19.8128 2.7633 19.9057 2.75709C20.0061 2.75039 20.1404 2.75 20.3684 2.75V1.25ZM21.6315 1.25H20.3684V2.75H21.6315V1.25ZM22.7388 1.37274C22.5488 1.29754 22.3637 1.27176 22.1943 1.26044C22.0323 1.24961 21.8396 1.25 21.6315 1.25V2.75C21.8595 2.75 21.9939 2.75039 22.0943 2.7571C22.1872 2.76331 22.1998 2.77259 22.187 2.76753L22.7388 1.37274ZM23.6501 2.19744C23.4561 1.82141 23.1323 1.52842 22.7388 1.37274L22.187 2.76753C22.2432 2.78977 22.2894 2.83163 22.3172 2.88535L23.6501 2.19744ZM23.0194 11.9997C23.0194 13.1149 22.1154 14.0189 21.0002 14.0189V15.5189C22.9438 15.5189 24.5194 13.9433 24.5194 11.9997H23.0194ZM21.0002 9.98047C22.1154 9.98047 23.0194 10.8845 23.0194 11.9997H24.5194C24.5194 10.0561 22.9438 8.48047 21.0002 8.48047V9.98047ZM18.981 11.9997C18.981 10.8845 19.885 9.98047 21.0002 9.98047V8.48047C19.0566 8.48047 17.481 10.0561 17.481 11.9997H18.981ZM21.0002 14.0189C19.885 14.0189 18.981 13.1149 18.981 11.9997H17.481C17.481 13.9433 19.0566 15.5189 21.0002 15.5189V14.0189Z" fill="#AAAAAA"/>
</svg>
