<svg width="60" height="60" viewBox="0 0 60 60" fill="none" xmlns="http://www.w3.org/2000/svg">
<path fill-rule="evenodd" clip-rule="evenodd" d="M41.2543 41.3287L30.5387 52.0142C29.1683 53.3808 26.8675 52.5144 26.67 50.6683L26.6564 50.4106L26.6563 34.7149L18.9802 40.8423C17.9994 41.6247 16.5682 41.4662 15.7836 40.4881C15.0593 39.5853 15.1391 38.2999 15.9271 37.492L16.1388 37.3005L25.2895 30.0001L16.1388 22.6996C15.2075 21.9567 15.0171 20.6326 15.6719 19.6636L41.2543 41.3287ZM26.6563 21.4459L26.6564 9.58952C26.6564 7.65694 28.8977 6.64715 30.3464 7.8133L30.5387 7.98592L41.9099 19.3251C42.0176 19.4326 42.1122 19.5479 42.1936 19.6691L42.2568 19.7687L42.3584 19.9585L42.4716 20.2474C42.7094 21.0239 42.5299 21.8809 41.9561 22.4854L41.7224 22.6996L34.726 28.2799L26.6563 21.4459ZM31.2041 44.9264V34.7121L36.8942 39.2523L31.2041 44.9264ZM31.2041 15.0695V25.2839L36.8942 20.7437L31.2041 15.0695Z" fill="#589DFF"/>
<rect width="46.762" height="4.84224" rx="2.42112" transform="matrix(0.763116 0.646262 0.639305 -0.768953 10.2439 18.512)" fill="#589DFF"/>
</svg>
