<svg width="22" height="22" viewBox="0 0 22 22" fill="none" xmlns="http://www.w3.org/2000/svg">
<path d="M9.5 8.92857V2.07143C9.5 1.75584 9.24416 1.5 8.92857 1.5L2.07143 1.5C1.75584 1.5 1.5 1.75584 1.5 2.07143L1.5 8.92857C1.5 9.24416 1.75584 9.5 2.07143 9.5L8.92857 9.5C9.24416 9.5 9.5 9.24416 9.5 8.92857Z" fill="black" stroke="black" stroke-width="1.5" stroke-linecap="round" stroke-linejoin="round"/>
<path d="M20.5 8.92857V2.07143C20.5 1.75584 20.2442 1.5 19.9286 1.5L13.0714 1.5C12.7558 1.5 12.5 1.75584 12.5 2.07143L12.5 8.92857C12.5 9.24416 12.7558 9.5 13.0714 9.5L19.9286 9.5C20.2442 9.5 20.5 9.24416 20.5 8.92857Z" fill="black" stroke="black" stroke-width="1.5" stroke-linecap="round" stroke-linejoin="round"/>
<path d="M9.5 19.9286V13.0714C9.5 12.7558 9.24416 12.5 8.92857 12.5L2.07143 12.5C1.75584 12.5 1.5 12.7558 1.5 13.0714L1.5 19.9286C1.5 20.2442 1.75584 20.5 2.07143 20.5L8.92857 20.5C9.24416 20.5 9.5 20.2442 9.5 19.9286Z" fill="black" stroke="black" stroke-width="1.5" stroke-linecap="round" stroke-linejoin="round"/>
<path d="M20.5 19.9286V13.0714C20.5 12.7558 20.2442 12.5 19.9286 12.5L13.0714 12.5C12.7558 12.5 12.5 12.7558 12.5 13.0714L12.5 19.9286C12.5 20.2442 12.7558 20.5 13.0714 20.5L19.9286 20.5C20.2442 20.5 20.5 20.2442 20.5 19.9286Z" fill="black" stroke="black" stroke-width="1.5" stroke-linecap="round" stroke-linejoin="round"/>
</svg>
