<svg width="42" height="24" viewBox="0 0 42 24" fill="none" xmlns="http://www.w3.org/2000/svg">
<path d="M19.5 9.92857V3.07143C19.5 2.75584 19.2442 2.5 18.9286 2.5L12.0714 2.5C11.7558 2.5 11.5 2.75584 11.5 3.07143L11.5 9.92857C11.5 10.2442 11.7558 10.5 12.0714 10.5L18.9286 10.5C19.2442 10.5 19.5 10.2442 19.5 9.92857Z" fill="black" stroke="black" stroke-width="1.5" stroke-linecap="round" stroke-linejoin="round"/>
<path d="M30.5 9.92857V3.07143C30.5 2.75584 30.2442 2.5 29.9286 2.5L23.0714 2.5C22.7558 2.5 22.5 2.75584 22.5 3.07143L22.5 9.92857C22.5 10.2442 22.7558 10.5 23.0714 10.5L29.9286 10.5C30.2442 10.5 30.5 10.2442 30.5 9.92857Z" fill="black" stroke="black" stroke-width="1.5" stroke-linecap="round" stroke-linejoin="round"/>
<path d="M19.5 20.9286V14.0714C19.5 13.7558 19.2442 13.5 18.9286 13.5L12.0714 13.5C11.7558 13.5 11.5 13.7558 11.5 14.0714L11.5 20.9286C11.5 21.2442 11.7558 21.5 12.0714 21.5L18.9286 21.5C19.2442 21.5 19.5 21.2442 19.5 20.9286Z" fill="black" stroke="black" stroke-width="1.5" stroke-linecap="round" stroke-linejoin="round"/>
<path d="M30.5 20.9286V14.0714C30.5 13.7558 30.2442 13.5 29.9286 13.5L23.0714 13.5C22.7558 13.5 22.5 13.7558 22.5 14.0714L22.5 20.9286C22.5 21.2442 22.7558 21.5 23.0714 21.5L29.9286 21.5C30.2442 21.5 30.5 21.2442 30.5 20.9286Z" fill="black" stroke="black" stroke-width="1.5" stroke-linecap="round" stroke-linejoin="round"/>
</svg>
