<svg width="28" height="28" viewBox="0 0 28 28" fill="none" xmlns="http://www.w3.org/2000/svg">
<g opacity="0.9" clip-path="url(#clip0_259_15978)">
<path fill-rule="evenodd" clip-rule="evenodd" d="M9.83908 15.5158C9.27947 18.0956 7.32507 20 5 20C2.23858 20 0 17.3137 0 14C0 10.6863 2.23858 8 5 8C7.32452 8 9.27855 9.9035 9.83868 12.4824H26C27.1046 12.4824 28 13.3779 28 14.4824V15.5158H9.83908ZM5 16.9877C3.62494 16.9877 2.51023 15.6501 2.51023 14C2.51023 12.3499 3.62494 11.0123 5 11.0123C6.37506 11.0123 7.48977 12.3499 7.48977 14C7.48977 15.6501 6.37506 16.9877 5 16.9877ZM25.4546 15.5176H28V18.7949C28 19.4978 27.4302 20.0676 26.7273 20.0676C26.0244 20.0676 25.4546 19.4978 25.4546 18.7949V15.5176ZM24.1817 15.5176H21.6362V17.2782C21.6362 17.9811 22.206 18.5509 22.909 18.5509C23.6119 18.5509 24.1817 17.9811 24.1817 17.2782V15.5176Z" fill="white"/>
</g>
<defs>
<clipPath id="clip0_259_15978">
<rect width="28" height="28" fill="white"/>
</clipPath>
</defs>
</svg>
