<svg width="104" height="60" viewBox="0 0 104 60" fill="none" xmlns="http://www.w3.org/2000/svg">
<g clip-path="url(#clip0_1311_122851)">
<path fill-rule="evenodd" clip-rule="evenodd" d="M57.6152 31.834V23.3867C57.6152 22.8344 58.0629 22.3867 58.6152 22.3867C59.1674 22.3867 59.6152 22.8344 59.6152 23.3867V31.8355L62.1129 29.3361C62.5033 28.9455 63.1365 28.9453 63.5271 29.3357C63.9178 29.7261 63.918 30.3592 63.5276 30.7499L59.3233 34.9569C59.1357 35.1446 58.8813 35.2501 58.6159 35.2501C58.3506 35.2501 58.0961 35.1446 57.9086 34.9569L53.7043 30.7499C53.3139 30.3592 53.3141 29.7261 53.7047 29.3357C54.0954 28.9453 54.7286 28.9455 55.119 29.3361L57.6152 31.834Z" fill="#616161"/>
<path fill-rule="evenodd" clip-rule="evenodd" d="M45.4532 25.7989V34.2461C45.4532 34.7984 45.0055 35.2461 44.4532 35.2461C43.9009 35.2461 43.4532 34.7984 43.4532 34.2461V25.7973L40.9555 28.2967C40.5651 28.6873 39.9319 28.6876 39.5412 28.2972C39.1506 27.9068 39.1504 27.2736 39.5408 26.8829L43.7451 22.6759C43.9326 22.4882 44.1871 22.3828 44.4524 22.3828C44.7178 22.3828 44.9722 22.4882 45.1598 22.6759L49.3641 26.8829C49.7545 27.2736 49.7543 27.9068 49.3636 28.2972C48.973 28.6876 48.3398 28.6873 47.9494 28.2967L45.4532 25.7989Z" fill="#616161"/>
<path fill-rule="evenodd" clip-rule="evenodd" d="M30.9165 48.6522L30.5467 48.6349C24.049 48.3304 18.8711 42.9602 18.8711 36.3789C18.8711 31.0282 22.2946 26.4734 27.0737 24.7967L28.5322 24.285L28.4048 22.7447C28.3877 22.5374 28.3789 22.3272 28.3789 22.1146C28.3789 17.964 31.7411 14.6016 35.8857 14.6016C37.0619 14.6016 38.1696 14.8708 39.1556 15.3494L40.7878 16.1414L41.7347 14.5939C44.7284 9.7017 50.1133 6.44531 56.2559 6.44531C65.4854 6.44531 73.0008 13.8011 73.2625 22.9756L73.3016 24.3476L74.5959 24.8045C79.3635 26.4875 82.7764 31.0365 82.7764 36.3789C82.7764 37.1223 82.7103 37.8502 82.5837 38.5571L84.0637 40.8459C84.5262 39.4407 84.7764 37.9391 84.7764 36.3789C84.7764 30.1629 80.8044 24.8752 75.2617 22.9186C74.9693 12.6664 66.572 4.44531 56.2559 4.44531C49.3879 4.44531 43.3704 8.08905 40.0288 13.55C38.7765 12.9423 37.3709 12.6016 35.8857 12.6016C30.6353 12.6016 26.3789 16.8607 26.3789 22.1146C26.3789 22.3823 26.39 22.6474 26.4116 22.9095C20.8554 24.8588 16.8711 30.1533 16.8711 36.3789C16.8711 44.0323 22.8923 50.2784 30.4531 50.6327V50.6522H32.4531H54.2906L55.5838 48.6522H30.9165Z" fill="#616161"/>
<path d="M69.8581 33.4394C71.0471 31.673 73.6465 31.673 74.8355 33.4394L87.7983 52.6966C89.1396 54.6894 87.7117 57.3719 85.3096 57.3719H59.3841C56.9819 57.3719 55.554 54.6894 56.8954 52.6966L69.8581 33.4394Z" fill="#F63F3F"/>
<ellipse cx="72.3461" cy="51.2298" rx="1.31484" ry="1.31569" fill="white"/>
<rect x="71.0312" y="38.5156" width="2.62968" height="8.77132" rx="1.31484" fill="white"/>
</g>
<defs>
<clipPath id="clip0_1311_122851">
<rect width="104" height="60" fill="white"/>
</clipPath>
</defs>
</svg>
