<svg width="16" height="16" viewBox="0 0 16 16" fill="none" xmlns="http://www.w3.org/2000/svg">
<path fill-rule="evenodd" clip-rule="evenodd" d="M4.28394 11.5575L4.79353 11.6754C5.27971 11.7879 5.75298 11.4794 5.85059 10.9863C5.94821 10.4933 5.63321 10.0024 5.14703 9.8899L2.6418 9.3103C2.19324 9.20652 1.74869 9.46138 1.60964 9.90203L0.923572 12.0763C0.772864 12.5539 1.03367 13.0758 1.5061 13.2421C1.97853 13.4083 2.48369 13.1559 2.6344 12.6783L2.70961 12.4399C3.75968 13.867 5.16837 14.7422 6.31189 15.1445C7.73353 15.6448 9.82668 15.7961 11.8457 14.7873C12.555 14.4328 13.1569 13.9788 13.6589 13.477C13.6127 13.4419 13.5676 13.4044 13.5237 13.3647L12.2887 12.246C11.9299 12.5873 11.5086 12.8953 11.0218 13.1386C9.49494 13.9016 7.90517 13.7836 6.85766 13.415C6.05503 13.1325 5.05989 12.524 4.28394 11.5575ZM10.1128 0.662659C10.7934 0.902177 11.568 1.30918 12.3051 1.90039L11.0971 3.23387C10.5763 2.83653 10.0384 2.55814 9.56699 2.39225C8.51948 2.02364 6.92972 1.90565 5.40281 2.66861C3.88211 3.42848 3.0011 4.82019 2.66444 5.88711C2.51374 6.36472 2.00858 6.61714 1.53615 6.45089C1.06372 6.28465 0.802912 5.7627 0.953621 5.28509C1.40463 3.85578 2.55381 2.03185 4.57899 1.01991C6.59797 0.0110688 8.69112 0.162401 10.1128 0.662659ZM8.26726 5.5602C7.91026 5.20326 7.91026 4.62455 8.26726 4.26761C8.62426 3.91067 9.20307 3.91067 9.56007 4.26761L11.5013 6.20848L13.439 4.27114C13.796 3.9142 14.3748 3.9142 14.7318 4.27114C15.0888 4.62808 15.0888 5.20679 14.7318 5.56373L12.7941 7.50107L14.7313 9.43797C15.0883 9.79491 15.0883 10.3736 14.7313 10.7306C14.3743 11.0875 13.7955 11.0875 13.4385 10.7306L11.5013 8.79366L9.56052 10.7341C9.20352 11.091 8.62471 11.091 8.26771 10.7341C7.91071 10.3771 7.91071 9.79843 8.26771 9.4415L10.2085 7.50107L8.26726 5.5602Z" fill="#AAAAAA"/>
</svg>
