<svg width="89" height="53" viewBox="0 0 89 53" fill="none" xmlns="http://www.w3.org/2000/svg">
<g clip-path="url(#clip0_733_39294)">
<rect x="0.890137" y="50.35" width="0.89" height="1.76667" fill="white"/>
<rect x="1.78027" y="47.7" width="0.89" height="2.65" fill="white"/>
<rect x="2.66992" y="44.1667" width="0.89" height="3.53333" fill="white"/>
<rect x="3.56006" y="41.5167" width="0.89" height="2.65" fill="white"/>
<rect x="4.4502" y="37.9833" width="0.89" height="3.53333" fill="white"/>
<rect x="6.22998" y="37.9833" width="0.89" height="5.3" fill="white"/>
<rect x="5.34033" y="22.9667" width="0.89" height="15.0167" fill="white"/>
<rect x="6.22998" y="19.4333" width="0.89" height="3.53333" fill="white"/>
<rect x="7.12012" y="16.7833" width="0.89" height="2.65" fill="white"/>
<rect x="8.01025" y="15.0167" width="0.889999" height="1.76667" fill="white"/>
<rect x="8.8999" y="13.25" width="0.89" height="1.76667" fill="white"/>
<rect x="9.79004" y="12.3667" width="0.89" height="0.883333" fill="white"/>
<rect x="15.1304" y="7.06667" width="1.78" height="0.883333" fill="white"/>
<rect x="18.6899" y="5.3" width="2.67" height="0.883333" fill="white"/>
<rect x="21.3604" y="4.41666" width="10.68" height="0.883334" fill="white"/>
<rect x="32.04" y="5.3" width="3.56" height="0.883333" fill="white"/>
<rect x="35.6001" y="6.18333" width="1.78" height="0.883333" fill="white"/>
<rect x="37.3804" y="7.06667" width="1.78" height="0.883333" fill="white"/>
<rect x="39.1602" y="7.95" width="0.889999" height="0.883333" fill="white"/>
<rect x="44.5" y="13.25" width="0.889999" height="1.76667" fill="white"/>
<rect x="46.2803" y="16.7833" width="0.889999" height="2.65" fill="white"/>
<rect x="47.1699" y="19.4333" width="0.890003" height="1.76667" fill="white"/>
<rect x="46.2803" y="21.2" width="0.889999" height="0.883333" fill="white"/>
<rect x="41.8301" y="23.85" width="1.78" height="0.883333" fill="white"/>
<rect x="39.1602" y="25.6167" width="1.78" height="0.883333" fill="white"/>
<rect x="43.6104" y="22.9667" width="0.889999" height="0.883333" fill="white"/>
<rect x="40.9399" y="24.7333" width="0.890003" height="0.883333" fill="white"/>
<rect x="44.5" y="22.0833" width="1.78" height="0.883333" fill="white"/>
<rect x="48.0601" y="19.4333" width="0.889999" height="0.883335" fill="white"/>
<rect x="48.9502" y="18.55" width="1.78" height="0.883333" fill="white"/>
<rect x="52.5103" y="16.7833" width="3.56" height="0.883333" fill="white"/>
<rect x="56.0703" y="17.6667" width="1.78" height="0.883333" fill="white"/>
<rect x="57.8501" y="18.55" width="0.890003" height="0.883333" fill="white"/>
<rect x="58.7402" y="19.4333" width="0.889999" height="4.41667" fill="white"/>
<rect x="57.8501" y="22.0833" width="0.890003" height="3.53333" fill="white"/>
<rect x="56.96" y="22.0833" width="0.889999" height="4.41667" fill="white"/>
<rect x="56.0703" y="22.0833" width="0.889999" height="5.3" fill="white"/>
<rect x="55.1802" y="22.9667" width="0.889999" height="5.3" fill="white"/>
<rect x="70.3101" y="8.83333" width="0.889999" height="1.76667" fill="white"/>
<rect x="71.2002" y="7.95" width="0.889999" height="3.53333" fill="white"/>
<rect x="72.0903" y="7.95" width="0.890007" height="4.41667" fill="white"/>
<rect x="75.6499" y="11.4833" width="0.889999" height="4.41667" fill="white"/>
<rect x="80.9902" y="8.83333" width="0.889999" height="7.06667" fill="white"/>
<rect x="81.8804" y="7.06667" width="0.889999" height="7.06667" fill="white"/>
<rect x="82.77" y="5.3" width="0.890007" height="7.06667" fill="white"/>
<rect x="84.5503" y="1.76666" width="0.889999" height="7.06667" fill="white"/>
<rect x="85.4399" y="0.883331" width="0.889999" height="6.18333" fill="white"/>
<rect x="86.3301" y="0.883331" width="0.889999" height="4.41667" fill="white"/>
<rect x="87.2202" y="1.76666" width="0.889999" height="1.76667" fill="white"/>
<rect x="83.6602" y="3.53333" width="0.889999" height="7.06667" fill="white"/>
<rect x="80.1001" y="10.6" width="0.889999" height="7.06667" fill="white"/>
<rect x="79.21" y="12.3667" width="0.889999" height="6.18333" fill="white"/>
<rect x="78.3203" y="14.1333" width="0.889999" height="4.41667" fill="white"/>
<rect x="77.4302" y="13.25" width="0.889999" height="4.41667" fill="white"/>
<rect x="76.54" y="12.3667" width="0.889999" height="4.41667" fill="white"/>
<rect x="74.7603" y="10.6" width="0.889999" height="4.41667" fill="white"/>
<rect x="73.8701" y="9.71667" width="0.889999" height="4.41667" fill="white"/>
<rect x="72.98" y="8.83333" width="0.889999" height="4.41667" fill="white"/>
<rect x="54.29" y="22.9667" width="0.889999" height="6.18333" fill="white"/>
<rect x="53.3999" y="23.85" width="0.889999" height="6.18333" fill="white"/>
<rect x="50.73" y="26.5" width="0.889999" height="6.18333" fill="white"/>
<rect x="49.8403" y="27.3833" width="0.889999" height="7.95" fill="white"/>
<rect x="50.73" y="33.5667" width="0.889999" height="1.76667" fill="white"/>
<rect x="51.6201" y="33.5667" width="3.56" height="0.883335" fill="white"/>
<rect x="55.1802" y="32.6833" width="4.45" height="0.883331" fill="white"/>
<rect x="59.6304" y="33.5667" width="0.889999" height="3.53333" fill="white"/>
<rect x="58.7402" y="37.1" width="0.889999" height="0.883335" fill="white"/>
<rect x="56.96" y="38.8667" width="0.889999" height="0.883335" fill="white"/>
<rect x="55.1802" y="39.75" width="1.78" height="0.883335" fill="white"/>
<rect x="52.5103" y="40.6333" width="2.67" height="0.883331" fill="white"/>
<rect x="49.8403" y="41.5167" width="2.67" height="0.883335" fill="white"/>
<rect x="47.1699" y="42.4" width="5.34" height="0.883331" fill="white"/>
<rect x="44.5" y="43.2833" width="8.01" height="0.883335" fill="white"/>
<rect x="40.9399" y="44.1667" width="11.57" height="0.883331" fill="white"/>
<rect x="42.7202" y="45.05" width="8.01" height="0.883335" fill="white"/>
<rect x="44.5" y="45.9333" width="4.45" height="0.883331" fill="white"/>
<rect x="51.6201" y="45.05" width="0.889999" height="1.76667" fill="white"/>
<rect x="52.5103" y="46.8167" width="0.890003" height="3.53333" fill="white"/>
<rect x="53.3999" y="50.35" width="0.889999" height="1.76667" fill="white"/>
<rect x="53.3999" y="47.7" width="3.56" height="0.883331" fill="white"/>
<rect x="56.96" y="46.8167" width="1.78" height="0.883335" fill="white"/>
<rect x="62.3003" y="44.1667" width="0.889999" height="0.883331" fill="white"/>
<rect x="66.75" y="38.8667" width="0.889999" height="1.76667" fill="white"/>
<rect x="71.2002" y="27.3833" width="0.889999" height="3.53333" fill="white"/>
<rect x="74.7603" y="27.3833" width="0.889999" height="1.76667" fill="white"/>
<rect x="76.54" y="32.6833" width="1.78" height="0.883331" fill="white"/>
<rect x="80.1001" y="34.45" width="0.889999" height="0.883331" fill="white"/>
<rect x="71.2002" y="36.2167" width="0.889999" height="3.53333" fill="white"/>
<rect x="81.8804" y="37.1" width="0.889999" height="5.3" fill="white"/>
<rect x="80.9902" y="35.3333" width="0.889999" height="1.76667" fill="white"/>
<rect x="73.8701" y="43.2833" width="1.78" height="0.883335" fill="white"/>
<rect x="80.9902" y="42.4" width="0.889999" height="0.883331" fill="white"/>
<rect x="79.21" y="43.2833" width="1.78" height="0.883335" fill="white"/>
<rect x="75.6499" y="44.1667" width="3.56" height="0.883331" fill="white"/>
<rect x="77.4302" y="45.05" width="0.889999" height="1.76667" fill="white"/>
<rect x="74.7603" y="50.35" width="0.889999" height="1.76667" fill="white"/>
<rect x="75.6499" y="48.5833" width="0.889999" height="1.76667" fill="white"/>
<rect x="76.54" y="46.8167" width="0.889999" height="1.76667" fill="white"/>
<rect x="72.98" y="41.5167" width="0.889999" height="1.76667" fill="white"/>
<rect x="72.0903" y="39.75" width="0.890007" height="1.76667" fill="white"/>
<rect x="72.0903" y="35.3333" width="0.890007" height="0.883335" fill="white"/>
<rect x="72.98" y="34.45" width="0.889999" height="0.883331" fill="white"/>
<rect x="78.3203" y="33.5667" width="1.78" height="0.883335" fill="white"/>
<rect x="74.7603" y="27.3833" width="0.889999" height="1.76667" fill="white"/>
<rect x="73.8701" y="33.5667" width="1.78" height="0.883335" fill="white"/>
<rect x="75.6499" y="29.15" width="0.889999" height="4.41667" fill="white"/>
<rect x="72.0903" y="26.5" width="2.67001" height="0.883333" fill="white"/>
<rect x="70.3101" y="30.9167" width="0.889999" height="2.65" fill="white"/>
<rect x="69.4199" y="33.5667" width="0.889999" height="1.76667" fill="white"/>
<rect x="68.5303" y="35.3333" width="0.889999" height="1.76667" fill="white"/>
<rect x="67.6401" y="37.1" width="0.889999" height="1.76667" fill="white"/>
<rect x="65.8604" y="40.6333" width="0.889999" height="0.883331" fill="white"/>
<rect x="64.9702" y="41.5167" width="0.889999" height="0.883335" fill="white"/>
<rect x="64.0801" y="42.4" width="0.889999" height="0.883331" fill="white"/>
<rect x="63.1899" y="43.2833" width="0.890003" height="0.883335" fill="white"/>
<rect x="60.52" y="45.05" width="1.78" height="0.883335" fill="white"/>
<rect x="58.7402" y="45.9333" width="1.78" height="0.883331" fill="white"/>
<rect x="57.8501" y="37.9833" width="0.890003" height="0.883331" fill="white"/>
<rect x="48.9502" y="28.2667" width="0.889999" height="7.06667" fill="white"/>
<rect x="48.0601" y="29.15" width="0.889999" height="6.18333" fill="white"/>
<rect x="47.1699" y="30.0333" width="0.890003" height="4.41667" fill="white"/>
<rect x="46.2803" y="30.9167" width="0.889999" height="3.53333" fill="white"/>
<rect x="45.3901" y="31.8" width="0.889999" height="1.76667" fill="white"/>
<rect x="44.5" y="32.6833" width="0.889999" height="0.883331" fill="white"/>
<rect x="42.7202" y="33.5667" width="1.78" height="0.883335" fill="white"/>
<rect x="40.0503" y="34.45" width="2.67" height="0.883331" fill="white"/>
<rect x="37.3804" y="35.3333" width="2.67" height="0.883335" fill="white"/>
<rect x="31.1499" y="36.2167" width="12.46" height="0.883331" fill="white"/>
<rect x="28.48" y="35.3333" width="2.67" height="0.883335" fill="white"/>
<rect x="26.7002" y="34.45" width="1.78" height="0.883331" fill="white"/>
<rect x="25.8101" y="33.5667" width="0.890001" height="0.883335" fill="white"/>
<rect x="29.3701" y="28.2667" width="0.889999" height="0.883333" fill="white"/>
<rect x="27.5903" y="27.3833" width="1.78" height="0.883333" fill="white"/>
<rect x="29.3701" y="25.6167" width="0.889999" height="1.76667" fill="white"/>
<rect x="29.3701" y="19.4333" width="0.889999" height="1.76667" fill="white"/>
<rect x="28.48" y="18.55" width="0.890001" height="0.883333" fill="white"/>
<rect x="27.5903" y="17.6667" width="0.889999" height="0.883333" fill="white"/>
<rect x="18.6899" y="17.6667" width="0.889999" height="0.883333" fill="white"/>
<rect x="17.8003" y="18.55" width="0.890001" height="0.883333" fill="white"/>
<rect x="16.9102" y="19.4333" width="0.889999" height="1.76667" fill="white"/>
<rect x="16.02" y="21.2" width="0.889999" height="4.41667" fill="white"/>
<rect x="16.9102" y="25.6167" width="0.889999" height="1.76667" fill="white"/>
<rect x="17.8003" y="27.3833" width="0.890001" height="0.883333" fill="white"/>
<rect x="20.4702" y="27.3833" width="1.78" height="0.883333" fill="white"/>
<rect x="18.6899" y="29.15" width="0.889999" height="1.76667" fill="white"/>
<rect x="17.8003" y="30.9167" width="0.890001" height="1.76667" fill="white"/>
<rect x="18.6899" y="28.2667" width="1.78" height="0.883333" fill="white"/>
<rect x="20.4702" y="26.5" width="7.12" height="0.883333" fill="white"/>
<rect x="19.5801" y="25.6167" width="8.01" height="0.883333" fill="white"/>
<rect x="18.6899" y="24.7333" width="9.79" height="0.883333" fill="white"/>
<rect x="18.6899" y="22.0833" width="9.79" height="0.883333" fill="white"/>
<rect x="23.1401" y="21.2" width="5.34" height="0.883333" fill="white"/>
<rect x="23.1401" y="20.3167" width="4.45" height="0.883333" fill="white"/>
<rect x="20.4702" y="19.4333" width="6.23" height="0.883335" fill="white"/>
<rect x="21.3604" y="18.55" width="4.45" height="0.883333" fill="white"/>
<rect x="19.5801" y="20.3167" width="1.78" height="0.883333" fill="white"/>
<rect x="18.6899" y="21.2" width="2.67" height="0.883333" fill="white"/>
<rect x="18.6899" y="22.9667" width="9.79" height="0.883333" fill="white"/>
<rect x="18.6899" y="23.85" width="9.79" height="0.883333" fill="white"/>
<rect x="25.8101" y="16.7833" width="1.78" height="0.883333" fill="white"/>
<rect x="19.5801" y="16.7833" width="1.78" height="0.883333" fill="white"/>
<rect x="21.3604" y="15.9" width="4.45" height="0.883333" fill="white"/>
<rect x="30.2603" y="21.2" width="0.889999" height="4.41667" fill="white"/>
<rect x="43.6104" y="35.3333" width="4.45" height="0.883335" fill="white"/>
<rect x="51.6201" y="25.6167" width="0.889999" height="6.18333" fill="white"/>
<rect x="52.5103" y="24.7333" width="0.890003" height="6.18333" fill="white"/>
<rect x="50.73" y="17.6667" width="1.78" height="0.883333" fill="white"/>
<rect x="45.3901" y="15.0167" width="0.889999" height="1.76667" fill="white"/>
<rect x="43.6104" y="12.3667" width="0.889999" height="0.883333" fill="white"/>
<rect x="42.7202" y="11.4833" width="0.889999" height="0.883333" fill="white"/>
<rect x="41.8301" y="10.6" width="0.889999" height="0.883333" fill="white"/>
<rect x="40.9399" y="9.71667" width="0.890003" height="0.883334" fill="white"/>
<rect x="40.0503" y="8.83333" width="0.889999" height="0.883333" fill="white"/>
<rect x="16.9102" y="6.18333" width="1.78" height="0.883333" fill="white"/>
<rect x="14.2402" y="7.95" width="0.89" height="0.883333" fill="white"/>
<rect x="13.3501" y="8.83333" width="0.889999" height="0.883333" fill="white"/>
<rect x="12.46" y="9.71667" width="0.89" height="0.883334" fill="white"/>
<rect x="11.5703" y="10.6" width="0.89" height="0.883333" fill="white"/>
<rect x="10.6802" y="11.4833" width="0.889999" height="0.883333" fill="white"/>
<rect x="7.12012" y="43.2833" width="0.89" height="3.53333" fill="white"/>
<rect x="8.01025" y="46.8167" width="0.889999" height="3.53333" fill="white"/>
<rect x="8.8999" y="50.35" width="0.89" height="1.76667" fill="white"/>
</g>
<defs>
<clipPath id="clip0_733_39294">
<rect width="89" height="53" fill="white"/>
</clipPath>
</defs>
</svg>
