<svg width="104" height="60" viewBox="0 0 104 60" fill="none" xmlns="http://www.w3.org/2000/svg">
<g clip-path="url(#clip0_1430_124442)">
<path d="M69.987 33.5956C71.176 31.8292 73.7754 31.8292 74.9644 33.5956L87.9272 52.8529C89.2686 54.8456 87.8406 57.5281 85.4385 57.5281H59.513C57.1108 57.5281 55.6829 54.8456 57.0243 52.8529L69.987 33.5956Z" fill="#F63F3F"/>
<ellipse cx="72.475" cy="51.386" rx="1.31484" ry="1.31569" fill="white"/>
<rect x="71.1602" y="38.6719" width="2.62968" height="8.77132" rx="1.31484" fill="white"/>
<path fill-rule="evenodd" clip-rule="evenodd" d="M35.8792 7.21094C35.8792 5.55408 37.2224 4.21094 38.8792 4.21094H64.8129C66.4697 4.21094 67.8129 5.55408 67.8129 7.21094V30.9734L65.8129 34.0664V7.21094C65.8129 6.65865 65.3651 6.21094 64.8129 6.21094H38.8792C38.3269 6.21094 37.8792 6.65865 37.8792 7.21094V19.6656C37.8792 20.3087 37.57 20.9126 37.0481 21.2885L33.0898 24.1394V28.0438H34.9501C35.7786 28.0438 36.4501 28.7154 36.4501 29.5438V32.0212C36.4501 32.5309 36.1913 33.0057 35.763 33.2819L33.0898 35.0054V48.7101C33.0898 49.2623 33.5376 49.7101 34.0898 49.7101H55.6976L54.4043 51.7101H34.0898C32.433 51.7101 31.0898 50.3669 31.0898 48.7101V34.7329C31.0898 34.2232 31.3486 33.7484 31.777 33.4722L34.4501 31.7487V30.0438H32.5898C31.7614 30.0438 31.0898 29.3722 31.0898 28.5438V23.8833C31.0898 23.401 31.3218 22.948 31.7132 22.6661L35.8792 19.6656V7.21094ZM51.7656 7.60938C52.3179 7.60938 52.7656 8.05709 52.7656 8.60938V17.3855C52.7656 17.9378 52.3179 18.3855 51.7656 18.3855C51.2133 18.3855 50.7656 17.9378 50.7656 17.3855V8.60938C50.7656 8.05709 51.2133 7.60938 51.7656 7.60938ZM40.2734 8.79688C40.8257 8.79688 41.2734 9.24459 41.2734 9.79688V17.3756C41.2734 17.9279 40.8257 18.3756 40.2734 18.3756C39.7212 18.3756 39.2734 17.9279 39.2734 17.3756V9.79688C39.2734 9.24459 39.7212 8.79688 40.2734 8.79688ZM44.1035 8.79688C44.6558 8.79688 45.1035 9.24459 45.1035 9.79688V17.3756C45.1035 17.9279 44.6558 18.3756 44.1035 18.3756C43.5512 18.3756 43.1035 17.9279 43.1035 17.3756V9.79688C43.1035 9.24459 43.5512 8.79688 44.1035 8.79688ZM48.9355 9.79688C48.9355 9.24459 48.4878 8.79688 47.9355 8.79688C47.3833 8.79688 46.9355 9.24459 46.9355 9.79688V17.3756C46.9355 17.9279 47.3833 18.3756 47.9355 18.3756C48.4878 18.3756 48.9355 17.9279 48.9355 17.3756V9.79688ZM56.5957 9.79688C56.5957 9.24459 56.148 8.79688 55.5957 8.79688C55.0434 8.79688 54.5957 9.24459 54.5957 9.79688V17.3756C54.5957 17.9279 55.0434 18.3756 55.5957 18.3756C56.148 18.3756 56.5957 17.9279 56.5957 17.3756V9.79688ZM59.4258 7.60938C59.9781 7.60938 60.4258 8.05709 60.4258 8.60938V17.3855C60.4258 17.9378 59.9781 18.3855 59.4258 18.3855C58.8735 18.3855 58.4258 17.9378 58.4258 17.3855V8.60938C58.4258 8.05709 58.8735 7.60938 59.4258 7.60938ZM64.2578 9.79688C64.2578 9.24459 63.8101 8.79688 63.2578 8.79688C62.7055 8.79688 62.2578 9.24459 62.2578 9.79688V17.3756C62.2578 17.9279 62.7055 18.3756 63.2578 18.3756C63.8101 18.3756 64.2578 17.9279 64.2578 17.3756V9.79688Z" fill="#616161"/>
</g>
<defs>
<clipPath id="clip0_1430_124442">
<rect width="104" height="60" fill="white"/>
</clipPath>
</defs>
</svg>
