<svg width="55" height="58" viewBox="0 0 55 58" fill="none" xmlns="http://www.w3.org/2000/svg">
<g clip-path="url(#clip0_396_330)">
<path fill-rule="evenodd" clip-rule="evenodd" d="M32.4131 44.7406L32.3684 44.8166L32.2466 44.9936L32.1065 45.1603L21.6111 56.4904C20.3462 57.8558 18.2226 56.9902 18.0403 55.1455L18.0277 54.8881L18.0277 39.205L10.9427 45.3275C10.0374 46.1093 8.71648 45.9508 7.99228 44.9736C7.32378 44.0715 7.39742 42.7871 8.12471 41.9799L8.3201 41.7886L16.7661 34.494L8.3201 27.1994C7.41485 26.4176 7.26807 24.9916 7.99228 24.0144C8.66078 23.1123 9.83773 22.9079 10.7269 23.4967L10.9427 23.6605L18.0277 29.7807L18.0277 14.0999C18.0277 12.1689 20.0964 11.1599 21.4336 12.3251L21.6111 12.4976L32.1065 23.8276C32.206 23.935 32.2933 24.0502 32.3684 24.1713L32.4268 24.2708L32.5205 24.4605L32.625 24.7492C32.8444 25.525 32.6788 26.3814 32.1492 26.9854L31.9335 27.1994L23.4853 34.494L31.9335 41.7886C32.4918 42.2707 32.7574 42.9909 32.7174 43.698C32.704 43.9192 32.664 44.1285 32.5963 44.3303L32.5205 44.5273L32.4131 44.7406ZM22.2249 39.2067V49.4128L27.4768 43.7432L22.2249 39.2067ZM22.2249 29.7787V19.5726L27.4768 25.2422L22.2249 29.7787Z" fill="#589DFF"/>
</g>
<path fill-rule="evenodd" clip-rule="evenodd" d="M44.3415 21.1952C50.1607 21.1952 54.8781 16.4778 54.8781 10.6587C54.8781 4.83946 50.1607 0.12207 44.3415 0.12207C38.5223 0.12207 33.8049 4.83946 33.8049 10.6587C33.8049 16.4778 38.5223 21.1952 44.3415 21.1952ZM43.1708 5.19524C43.1708 4.54867 43.6949 4.02451 44.3415 4.02451C44.9881 4.02451 45.5122 4.54866 45.5122 5.19524V11.4391C45.5122 12.0857 44.9881 12.6099 44.3415 12.6099C43.6949 12.6099 43.1708 12.0857 43.1708 11.4391V5.19524ZM45.5122 16.1221C45.5122 16.7686 44.9881 17.2928 44.3415 17.2928C43.6949 17.2928 43.1708 16.7686 43.1708 16.1221C43.1708 15.4755 43.6949 14.9513 44.3415 14.9513C44.9881 14.9513 45.5122 15.4755 45.5122 16.1221Z" fill="#F63F3F"/>
<defs>
<clipPath id="clip0_396_330">
<rect width="42.1463" height="46.0488" fill="white" transform="translate(0.243896 11.8293)"/>
</clipPath>
</defs>
</svg>
