<?xml version="1.0" encoding="utf-8"?>
<!-- Generator: Adobe Illustrator 25.4.1, SVG Export Plug-In . SVG Version: 6.00 Build 0)  -->
<svg version="1.1" id="black" xmlns="http://www.w3.org/2000/svg" xmlns:xlink="http://www.w3.org/1999/xlink" x="0px" y="0px"
	 viewBox="0 0 202.5 85.4" style="enable-background:new 0 0 202.5 85.4;" xml:space="preserve">
<style type="text/css">
	.st0{fill:#4F4A54;}
	.st1{fill:#231F20;}
	.st2{fill:#FF8200;}
	.st3{fill:#FFFFFF;}
</style>
<g>
	<g>
		<path class="st0" d="M40.9,0.6l126.7,0c3.9,0.1,7.9,1,11.1,4.7c3.2,3.7,16.9,20.7,18.3,22.5s2.9,4.1,3.3,7.9
			c0.4,3.8,1.5,29.3,1.5,32.8c0,3.7-1.1,5.2-1.9,6.9c-0.8,1.5-2,4-2.8,5.5s-3.5,3.8-7.8,3.9H32.2c-4.6,0-8.4-1.7-10.9-5.1
			C18.8,76.4,5.1,57.5,4.5,56.5c-1-1.6-1.8-4.1-3.2-6.9C0.4,47.8,0,45,2.3,41.8c2.4-3.2,25.8-33.6,27.9-36
			C32.3,3.3,35.9,0.5,40.9,0.6z"/>
		<path class="st1" d="M32.1,85.4c-4.7,0-8.6-1.8-11.2-5.3C18.6,77,4.6,57.9,4,56.8c-0.6-1-1.1-2.2-1.7-3.6c-0.4-1-0.9-2.2-1.5-3.4
			c-0.6-1.2-1.7-4.4,1.1-8.3c2.5-3.4,26-33.8,27.9-36.1c1.7-2,5.5-5.4,11-5.4c0,0,0.1,0,0.1,0l126.7,0c3.2,0.1,7.9,0.7,11.6,4.9
			c1.9,2.3,8.1,9.9,17.9,22l0.4,0.5c1.5,1.9,3,4.2,3.4,8.2c0.5,4,1.5,29.5,1.5,32.9c0,3.4-0.9,5.1-1.7,6.6c-0.1,0.2-0.2,0.4-0.3,0.6
			c-0.8,1.5-2,4-2.8,5.5c-0.8,1.6-3.7,4.1-8.3,4.2H32.2C32.2,85.4,32.1,85.4,32.1,85.4z M40.8,1.1c-5.1,0-8.6,3.1-10.2,5
			c-1.9,2.3-25.4,32.6-27.8,36c-2.5,3.4-1.6,6.1-1,7.2c0.6,1.2,1.1,2.4,1.6,3.5c0.6,1.4,1.1,2.5,1.6,3.4C5.5,57.1,19.3,76,21.8,79.4
			c2.4,3.2,6,4.9,10.4,4.9h157.3c4.1-0.1,6.6-2.2,7.3-3.6c0.8-1.6,2-4,2.8-5.5c0.1-0.2,0.2-0.4,0.3-0.6c0.8-1.4,1.5-2.9,1.6-6.1
			c0-3.9-1.1-29.1-1.5-32.8c-0.4-3.7-1.8-5.9-3.2-7.6l-0.4-0.5c-12.3-15.3-16.5-20.4-17.9-22c-2.6-3-6-4.4-10.7-4.5l-126.7,0
			C40.9,1.1,40.8,1.1,40.8,1.1z"/>
	</g>
	<g>
		<path class="st1" d="M27.3,78.5c-4.6,0-7-1.8-12.6-9.5C9.3,61.7,1.8,51.2,1.7,51.1l0.5-0.3c0.1,0.1,7.5,10.6,12.9,17.9
			c5.5,7.5,7.8,9.2,12.2,9.2h165.4c3.3-0.2,6.7-1.8,7.6-3.6l0.5,0.3c-1,2-4.6,3.8-8.1,3.9L27.3,78.5z"/>
	</g>
	<g>
		<path class="st0" d="M164.8,2.9c4,0,6.6,0.5,9.2,3.6s18,22.2,19.3,23.8c1.3,1.6,2.4,4,2.4,6.6c0,2.6,0.6,14.8,0.4,18
			c-0.2,3.3-2.9,5.7-6.4,5.8l-147.7,0c-4.7-0.1-6.7-1.3-8.9-3.6c-2.2-2.4-7.9-8.5-9.6-10.7c-1.9-2.4-1-4.2,0.1-5.9
			C24.9,38.9,43.4,11,45.2,8.1c1.7-2.8,4.9-5.2,8.8-5.2L164.8,2.9z"/>
		<path class="st1" d="M42.1,61.1c-4.8-0.1-6.8-1.3-9.1-3.7c-2.3-2.4-7.9-8.6-9.6-10.8c-2-2.5-1.1-4.5,0.1-6.2
			C24.8,38.6,43.3,10.7,44.9,8c2.1-3.3,5.4-5.3,9-5.3c0,0,0,0,0,0h110.8c4.2,0,6.8,0.6,9.4,3.7c2.6,3.1,18.2,22.4,19.3,23.8
			c1.5,2,2.4,4.5,2.4,6.8c0,0.9,0.1,2.9,0.2,5.2c0.2,4.8,0.4,10.7,0.3,12.8c-0.2,3.4-3,6-6.6,6.1L42.1,61.1z M54,3.2
			c-3.4,0-6.6,1.9-8.5,5.1C43.8,11,25.2,38.9,24,40.7c-1,1.5-2,3.2-0.1,5.5c1.7,2.2,7.3,8.3,9.6,10.7c2.2,2.3,4.1,3.5,8.7,3.5
			l147.7,0c3.3-0.1,5.9-2.5,6.1-5.6c0.1-2.1-0.1-8.3-0.3-12.8c-0.1-2.3-0.2-4.3-0.2-5.2c0-3.2-1.6-5.6-2.3-6.4
			C192,29,176.5,9.7,173.8,6.7c-2.5-2.9-5-3.4-9-3.5L54,3.2C54,3.2,54,3.2,54,3.2z"/>
	</g>
	<g>
		<path class="st0" d="M191.3,39.6c2.5,3.2,0.8,11-4.7,11.9h-32.8c-11.3-0.1-22.8-9.4-22.7-22.7c0.1-13.3,11.6-21.8,23-21.8
			c10.4,0.1,16.8,7.3,17.4,8.2C173.4,17.7,189.1,36.8,191.3,39.6z"/>
		<path class="st1" d="M153.8,51.8c-5.7,0-11.5-2.4-15.8-6.5c-4.7-4.4-7.2-10.3-7.2-16.6c0.1-13.7,12.1-22.1,23.2-22.1
			c0,0,0.1,0,0.1,0c11.1,0.1,17.6,8.2,17.6,8.3c0.9,1.2,5,6.1,9.2,11.4c4.6,5.7,9.4,11.6,10.6,13.1h0c1.4,1.7,1.6,4.9,0.5,7.6
			c-1,2.6-3,4.3-5.4,4.7L153.8,51.8z M154,7.2c-10.8,0-22.5,8.2-22.6,21.5c0,6.1,2.5,11.9,7,16.1c4.3,4,9.9,6.3,15.4,6.3h32.8
			c2.1-0.4,3.9-1.9,4.9-4.4c1-2.5,0.8-5.4-0.4-7l0,0c-1.2-1.5-5.9-7.4-10.6-13.1c-4.3-5.2-8.3-10.2-9.2-11.4
			c-0.1-0.1-6.4-8-17.2-8.1C154,7.2,154,7.2,154,7.2z"/>
	</g>
	<g>
		<path class="st0" d="M147.8,80.3l23.9,0c0.9,0,1.8,1.1,0.1,1.2h-24.3C146.8,81.5,146.2,80.6,147.8,80.3z"/>
		<path class="st1" d="M147.5,81.8c-0.5,0-0.9-0.4-0.9-0.8c0-0.3,0.1-0.8,1.2-1l0,0l23.9,0c0.7,0,1.3,0.5,1.3,1
			c0,0.3-0.2,0.7-1.2,0.8L147.5,81.8z M147.8,80.6c-0.6,0.1-0.7,0.3-0.7,0.4c0,0.1,0.2,0.3,0.4,0.3l24.3,0c0.5,0,0.7-0.2,0.7-0.2
			c0-0.1-0.3-0.4-0.8-0.4L147.8,80.6z"/>
	</g>
	<g>
		<path class="st0" d="M195.4,80.4c0.3,0.1,0.3,1.7-2.4,2.3c-4.1,1-6,0.3-5.4-0.7c0.6-1,1.3-0.4,4.2-0.9S194.7,80,195.4,80.4z"/>
		<path class="st1" d="M189.6,83.5c-1.1,0-1.9-0.2-2.2-0.6c-0.2-0.3-0.2-0.6,0-0.9c0.4-0.7,1-0.8,1.9-0.8c0.6,0,1.4-0.1,2.5-0.2
			c1.4-0.2,2.1-0.5,2.5-0.7c0.5-0.2,0.8-0.3,1.2,0c0.2,0.1,0.3,0.3,0.3,0.6c0,0.3-0.2,1.7-2.7,2.2C191.8,83.3,190.5,83.5,189.6,83.5
			z M195,80.6c-0.1,0-0.2,0-0.5,0.1c-0.5,0.2-1.2,0.5-2.6,0.7c-1.1,0.2-1.9,0.2-2.5,0.3c-1,0-1.2,0.1-1.5,0.5c-0.1,0.2,0,0.3,0,0.3
			c0.3,0.4,1.9,0.7,5.2-0.1c1.5-0.3,2-0.9,2.2-1.3c0.1-0.2,0.1-0.4,0.1-0.5C195.2,80.6,195.1,80.6,195,80.6z"/>
	</g>
	<g>
		<path class="st2" d="M154,8.6c12.2,0.2,21.3,10.3,21.3,20.4c-0.1,10.6-8.5,20.6-20.7,20.6c-12.2-0.1-22-9.2-21.9-21.1
			C132.8,17.1,142.7,8.4,154,8.6z"/>
		<path class="st1" d="M154.8,49.9c0,0-0.1,0-0.1,0c-12.6-0.1-22.4-9.5-22.3-21.5c0-5.3,2.2-10.3,6-14.1c4.1-4,9.8-6.2,15.7-6.2l0,0
			c12.9,0.2,21.8,11.1,21.7,20.8C175.7,39.1,167.7,49.9,154.8,49.9z M153.6,9c-5.5,0-10.8,2.1-14.7,5.9c-3.7,3.6-5.8,8.4-5.8,13.5
			c-0.1,11.5,9.4,20.6,21.5,20.7c0,0,0.1,0,0.1,0c12.4,0,20.1-10.4,20.1-20.1c0-9.2-8.5-19.7-20.9-19.9C153.9,9,153.8,9,153.6,9z"/>
	</g>
	<g>
		<path class="st2" d="M183.4,36.5c4.3,0,6.9,3.5,6.9,6.7c0,3.1-2.2,6.4-6.6,6.4c-4.2-0.1-6.9-3.5-6.9-6.7
			C176.9,39.7,179.6,36.6,183.4,36.5z"/>
		<path class="st1" d="M183.8,50.1c0,0-0.1,0-0.1,0c-2,0-3.9-0.8-5.3-2.2c-1.3-1.4-2-3.2-2-4.9c0.1-3.2,2.8-6.7,7.1-6.8l0,0
			c2.1,0,4,0.8,5.4,2.3c1.2,1.3,1.9,3.1,1.9,4.9c0,1.8-0.7,3.6-2,4.9C187.5,49.4,185.8,50.1,183.8,50.1z M183.5,37
			C183.5,37,183.5,37,183.5,37c-3.8,0-6.2,3.1-6.3,5.9c0,1.6,0.6,3.1,1.8,4.3c1.2,1.3,2.9,2,4.7,2c1.8,0,3.4-0.5,4.5-1.7
			c1.1-1.1,1.7-2.7,1.7-4.3c0-1.6-0.6-3.1-1.7-4.3C187.4,38.1,185.9,37,183.5,37z"/>
	</g>
	<g>
		<path class="st1" d="M154.5,46c-0.3,0-0.5-0.1-0.7-0.4c-0.2-0.2-1.3-2-2.3-3.7L151,41c-0.2-0.4-0.3-0.8-0.1-1
			c0.1-0.1,0.3-0.3,0.7-0.3c0.4,0,1.8,0,3.1,0c1.1,0,2.2,0,2.5,0c0.5,0,0.7,0.3,0.8,0.4c0.1,0.2,0.1,0.6-0.1,0.8
			c-0.1,0.1-0.3,0.6-0.7,1.2c-0.9,1.6-1.8,3.2-2,3.5C155,45.9,154.7,46,154.5,46C154.5,46,154.5,46,154.5,46z M151.5,40.2
			c-0.1,0-0.1,0-0.1,0.1c0,0.1,0,0.3,0.1,0.5l0.5,0.8c0.7,1.2,2.1,3.5,2.3,3.7c0.1,0.1,0.2,0.2,0.3,0.2c0,0,0,0,0,0
			c0.1,0,0.2-0.1,0.2-0.2c0.2-0.3,1.3-2.2,2-3.4c0.3-0.6,0.6-1,0.7-1.2c0.1-0.1,0.1-0.2,0-0.3c0-0.1-0.2-0.1-0.3-0.1
			c-0.3,0-1.3,0-2.5,0C153.3,40.2,152,40.2,151.5,40.2L151.5,40.2C151.5,40.2,151.5,40.2,151.5,40.2z"/>
	</g>
	<g>
		<path class="st1" d="M142,32c-0.2,0-0.3,0-0.6-0.1c-0.3-0.1-2.5-1.3-4.5-2.5l-0.5-0.3c-0.4-0.2-0.5-0.5-0.5-0.7
			c0-0.3,0.2-0.6,0.6-0.8c0.3-0.2,2.2-1.2,3.4-1.9l1.1-0.6c0.3-0.2,0.8-0.4,1.1-0.2c0.4,0.2,0.3,0.7,0.3,0.8c0,0.6,0,3.8,0.1,5
			l0,0.4c0,0.3-0.1,0.6-0.3,0.7C142.3,32,142.1,32,142,32z M141.9,25.5c-0.1,0-0.2,0-0.5,0.2l-1.1,0.6c-1.3,0.7-3.1,1.7-3.4,1.9
			c-0.2,0.1-0.3,0.2-0.3,0.3c0,0.1,0.1,0.1,0.2,0.2l0.5,0.3c1.1,0.6,4.1,2.3,4.4,2.5c0.3,0.1,0.4,0.1,0.4,0.1c0,0,0-0.1,0-0.2l0-0.4
			c0-1.2-0.1-4.4-0.1-5l0.3,0l-0.3,0C142,25.6,142,25.5,141.9,25.5C141.9,25.5,141.9,25.5,141.9,25.5z"/>
	</g>
	<g>
		<path class="st1" d="M166.6,32c-0.1,0-0.3,0-0.4-0.1c-0.2-0.1-0.4-0.3-0.4-0.8c0-0.3,0-1,0-1.8c0-1.3-0.1-2.9,0-3.4l0,0
			c0-0.4,0.1-0.7,0.4-0.9c0.3-0.2,0.7-0.1,1.3,0.2c0.5,0.3,3.4,2,4.2,2.5l0.2,0.1c0.3,0.2,0.5,0.4,0.5,0.7c0,0.2-0.1,0.5-0.6,0.8
			c-0.6,0.4-4.1,2.4-4.5,2.6C167,32,166.8,32,166.6,32z M166.3,25.9c0,0.6,0,2.1,0,3.4c0,0.8,0,1.5,0,1.8c0,0.1,0,0.3,0.1,0.3
			c0.1,0.1,0.2,0,0.4-0.1c0.4-0.2,3.9-2.2,4.5-2.6c0.2-0.1,0.3-0.3,0.3-0.3c0-0.1-0.1-0.1-0.2-0.2l-0.2-0.1
			c-0.8-0.5-3.7-2.1-4.2-2.4c-0.4-0.2-0.7-0.3-0.7-0.2C166.3,25.5,166.3,25.7,166.3,25.9L166.3,25.9z"/>
	</g>
	<g>
		<path class="st1" d="M156.8,17.5C156.8,17.5,156.8,17.5,156.8,17.5c-0.3,0-4,0-5.2,0l-0.5,0c-0.4,0-0.7-0.1-0.8-0.4
			c-0.1-0.1-0.2-0.4,0-0.9c0.1-0.3,0.7-1.2,1.3-2.2c0.6-0.9,1.1-1.8,1.3-2.2c0.3-0.4,0.5-0.7,0.8-0.7c0.3,0,0.5,0.1,0.7,0.5
			c0.1,0.2,0.7,1.1,1.3,2.1c0.7,1.1,1.4,2.3,1.6,2.5c0.2,0.3,0.2,0.6,0.1,0.9C157.4,17.3,157.1,17.5,156.8,17.5z M151.1,16.9l0.5,0
			c2.3,0,5,0,5.2,0c0.1,0,0.2,0,0.2-0.1c0.1-0.1,0-0.2-0.1-0.3c-0.2-0.3-0.9-1.4-1.6-2.6c-0.6-1-1.2-1.9-1.3-2.1
			c-0.1-0.2-0.2-0.2-0.2-0.2h0c0,0-0.2,0.1-0.4,0.4c-0.2,0.4-0.8,1.3-1.3,2.2c-0.6,1-1.2,1.9-1.3,2.2c-0.1,0.1-0.1,0.2-0.1,0.3
			C150.9,16.9,151,16.9,151.1,16.9L151.1,16.9z"/>
	</g>
	<g>
		<path class="st1" d="M185.4,46.2C185.4,46.2,185.4,46.2,185.4,46.2l-3.8,0l0-1.5l3.6,0c0,0,0,0,0,0c0.6,0,1-0.8,1-1.3
			c0-0.2-0.1-0.6-0.2-0.9c-0.2-0.3-0.4-0.5-0.7-0.5l-3.2,0l0,1l-2.7-1.8l2.7-1.9l0,1.1l3.1,0c0.7,0,1.4,0.4,2,1
			c0.5,0.6,0.7,1.3,0.7,1.9c0,0.8-0.2,1.5-0.7,2C186.7,45.9,186.1,46.2,185.4,46.2z M182.2,45.6l3.2,0c0,0,0,0,0,0
			c0.5,0,1-0.2,1.4-0.7c0.4-0.4,0.6-1,0.6-1.7c0-0.5-0.2-1.1-0.6-1.6c-0.4-0.5-0.9-0.8-1.5-0.8l-3.6,0l0-0.6l-1.1,0.8l1.1,0.7l0-0.5
			l3.7,0c0.5,0,1,0.3,1.2,0.8c0.3,0.5,0.3,1,0.3,1.2c0,0.8-0.6,1.8-1.5,1.8c0,0,0,0,0,0l-3.1,0L182.2,45.6z"/>
	</g>
	<g>
		<path class="st3" d="M133.3,47.9c0.7,0,1.3,0.7,1.3,1.3c0,0.5-0.4,1.2-1.2,1.1s-1.4-0.5-1.4-1.2C132,48.5,132.5,47.9,133.3,47.9z"
			/>
		<path class="st1" d="M133.4,50.6C133.4,50.6,133.4,50.6,133.4,50.6c-0.9,0-1.7-0.6-1.6-1.4c0-0.8,0.7-1.5,1.5-1.5c0,0,0,0,0,0l0,0
			c0.9,0,1.5,0.8,1.5,1.6C134.8,49.9,134.3,50.6,133.4,50.6z M133.3,48.2c-0.5,0-1,0.4-1,1c0,0.5,0.5,0.9,1.1,0.9c0,0,0,0,0,0
			c0.6,0,0.9-0.5,0.9-0.9C134.2,48.8,133.8,48.2,133.3,48.2C133.3,48.2,133.3,48.2,133.3,48.2z"/>
	</g>
	<g>
		<path class="st1" d="M154.4,35.9C154.4,35.9,154.4,35.9,154.4,35.9c-2.2,0-4.3-0.9-5.7-2.3c-1.3-1.3-2-3.1-1.9-5.1
			c0.1-4.8,4.4-7,7.4-7l0,0c0,0,0,0,0,0c1.9,0,3.7,0.8,5.1,2.2c1.4,1.4,2.2,3.2,2.1,5.1c0,1.9-0.7,3.7-2,5
			C158.2,35.1,156.4,35.9,154.4,35.9z M154.2,22.3L154.2,22.3c-2.7,0-6.5,1.9-6.5,6.2c0,1.7,0.6,3.3,1.7,4.4
			c1.3,1.3,3.2,2.1,5.1,2.1c0,0,0,0,0,0c1.7,0,3.3-0.6,4.4-1.8c1.1-1.2,1.8-2.7,1.8-4.4c0-1.7-0.7-3.3-1.9-4.5
			C157.5,23,155.8,22.4,154.2,22.3z"/>
	</g>
	<g>
		<path class="st0" d="M121.6,51.5H54.1c-2.7,0-5-2.2-5-5V11.7c0-2.7,2.2-5,5-5h67.5c2.7,0,5,2.2,5,5v34.8
			C126.6,49.3,124.4,51.5,121.6,51.5z"/>
		<path class="st1" d="M121.6,52H54.1c-3,0-5.5-2.4-5.5-5.5V11.7c0-3,2.4-5.5,5.5-5.5h67.5c3,0,5.5,2.5,5.5,5.5v34.8
			C127.1,49.6,124.6,52,121.6,52z M54.1,7.3c-2.5,0-4.5,2-4.5,4.5v34.8c0,2.5,2,4.5,4.5,4.5h67.5c2.5,0,4.5-2,4.5-4.5V11.7
			c0-2.5-2-4.5-4.5-4.5H54.1z"/>
	</g>
	<g>
		<path class="st2" d="M121.4,49.1H54.5c-1.6,0-2.9-1.3-2.9-2.9V11.9c0-1.6,1.3-2.9,2.9-2.9h66.8c1.6,0,2.9,1.3,2.9,2.9v34.3
			C124.3,47.8,123,49.1,121.4,49.1z"/>
		<path class="st1" d="M121.4,49.4H54.5c-1.8,0-3.2-1.4-3.2-3.2V11.9c0-1.8,1.4-3.2,3.2-3.2h66.8c1.8,0,3.2,1.4,3.2,3.2v34.3
			C124.5,48,123.1,49.4,121.4,49.4z M54.5,9.3c-1.4,0-2.6,1.2-2.6,2.6v34.3c0,1.4,1.2,2.6,2.6,2.6h66.8c1.4,0,2.6-1.2,2.6-2.6V11.9
			c0-1.4-1.2-2.6-2.6-2.6H54.5z"/>
	</g>
	<g>
		<g>
			<path class="st2" d="M72,70l-0.4,2.7h-1.9l1.1-7h13.2l-0.2,1.6H72.4l-0.2,1.1h11.3L83.3,70H72z"/>
		</g>
		<g>
			<path class="st2" d="M86.6,65.7l-0.8,5.4h11.3l-0.2,1.6H83.6l1.1-7H86.6z"/>
		</g>
		<g>
			<path class="st2" d="M100.6,65.7l-1.1,7h-1.9l1.1-7H100.6z"/>
		</g>
		<g>
			<path class="st2" d="M102.6,70l-0.4,2.7h-1.9l1.1-7h11.3c0.5,0,1,0.2,1.3,0.5c0.3,0.3,0.5,0.7,0.4,1.1l-0.2,1.1
				c-0.1,0.4-0.3,0.8-0.7,1.1c-0.4,0.3-0.9,0.5-1.4,0.5H102.6z M103,67.3l-0.2,1.1h9.4l0.2-1.1H103z"/>
		</g>
		<g>
			<path class="st2" d="M116.5,70l-0.4,2.7h-1.9l1.1-7h11.3c0.5,0,1,0.2,1.3,0.5c0.3,0.3,0.5,0.7,0.4,1.1l-0.2,1.1
				c-0.1,0.4-0.3,0.8-0.7,1.1c-0.4,0.3-0.9,0.5-1.4,0.5H116.5z M116.9,67.3l-0.2,1.1h9.4l0.2-1.1H116.9z"/>
		</g>
		<g>
			<path class="st2" d="M141.6,71.1l-0.2,1.6h-13.2l1.1-7h13.2l-0.2,1.6h-11.3l-0.2,1.1H142l-0.2,1.6h-11.3l-0.2,1.1H141.6z"/>
		</g>
		<g>
			<path class="st2" d="M144.4,70l-0.4,2.7h-1.9l1.1-7h11.3c0.5,0,1,0.2,1.3,0.5c0.3,0.3,0.5,0.7,0.4,1.1l-0.2,1.1
				c0,0.2-0.2,0.4-0.4,0.6c-0.2,0.1-0.4,0.2-0.6,0.2c0.2,0,0.4,0.1,0.6,0.2c0.2,0.2,0.2,0.3,0.2,0.6l-0.4,2.7h-1.9l0.4-2.7H144.4z
				 M154,68.4l0.2-1.1h-9.4l-0.2,1.1H154z"/>
		</g>
	</g>
</g>
<g id="dolphin_00000004540763674616766980000002934822554439179943_">
	<g>
		<polygon points="86.7,35.8 86.1,35.8 85.6,35.8 85,35.8 85,36.4 85.6,36.4 86.1,36.4 86.7,36.4 87.2,36.4 87.8,36.4 87.8,35.8 
			87.2,35.8 		"/>
	</g>
	<g>
		<polygon points="70,35.8 69.5,35.8 69.5,36.3 70,36.3 70.6,36.3 70.6,35.8 		"/>
	</g>
	<g>
		<rect x="59" y="35.7" transform="matrix(5.134643e-03 -1 1 5.134643e-03 22.9529 95.0224)" width="0.6" height="0.6"/>
	</g>
	<g>
		<rect x="57.8" y="35.7" transform="matrix(5.134643e-03 -1 1 5.134643e-03 21.8553 93.9078)" width="0.6" height="0.6"/>
	</g>
	<g>
		<rect x="56.7" y="35.7" transform="matrix(5.134643e-03 -1 1 5.134643e-03 20.7578 92.7932)" width="0.6" height="0.6"/>
	</g>
	<g>
		<polygon points="88.9,35.3 88.3,35.3 88.3,34.7 87.8,34.7 87.2,34.7 87.2,35.3 87.8,35.3 87.8,35.8 88.3,35.8 88.9,35.9 
			89.5,35.9 90,35.9 90,35.3 89.5,35.3 		"/>
	</g>
	<g>
		<rect x="68.9" y="35.2" transform="matrix(5.134643e-03 -1 1 5.134643e-03 33.3884 104.5052)" width="0.6" height="0.6"/>
	</g>
	<g>
		<rect x="59.5" y="35.1" transform="matrix(5.134643e-03 -1 1 5.134643e-03 24.059 95.031)" width="0.6" height="0.6"/>
	</g>
	<g>
		<rect x="58.4" y="35.1" transform="matrix(5.134643e-03 -1 1 5.134643e-03 22.9614 93.9163)" width="0.6" height="0.6"/>
	</g>
	<g>
		<rect x="57.3" y="35.1" transform="matrix(5.134643e-03 -1 1 5.134643e-03 21.8638 92.8017)" width="0.6" height="0.6"/>
	</g>
	<g>
		<rect x="56.2" y="35.1" transform="matrix(5.134643e-03 -1 1 5.134643e-03 20.7663 91.6871)" width="0.6" height="0.6"/>
	</g>
	<g>
		<polygon points="90.6,34.8 90,34.7 90,35.3 90.6,35.3 91.1,35.3 91.7,35.3 91.7,34.8 91.1,34.8 		"/>
	</g>
	<g>
		<rect x="60.1" y="34.6" transform="matrix(5.134643e-03 -1 1 5.134643e-03 25.1651 95.0395)" width="0.6" height="0.6"/>
	</g>
	<g>
		<rect x="59" y="34.6" transform="matrix(5.134643e-03 -1 1 5.134643e-03 24.0675 93.9249)" width="0.6" height="0.6"/>
	</g>
	<g>
		<rect x="57.9" y="34.6" transform="matrix(5.134643e-03 -1 1 5.134643e-03 22.9699 92.8102)" width="0.6" height="0.6"/>
	</g>
	<g>
		<rect x="56.7" y="34.6" transform="matrix(5.134643e-03 -1 1 5.134643e-03 21.8724 91.6956)" width="0.6" height="0.6"/>
	</g>
	<g>
		<rect x="55.6" y="34.6" transform="matrix(5.134643e-03 -1 1 5.134643e-03 20.7748 90.581)" width="0.6" height="0.6"/>
	</g>
	<g>
		<polygon points="91.7,34.2 91.7,34.8 92.2,34.8 92.8,34.8 92.8,34.2 92.2,34.2 		"/>
	</g>
	<g>
		<polygon points="86.7,34.7 87.2,34.7 87.2,34.2 86.7,34.2 86.1,34.2 86.1,34.7 		"/>
	</g>
	<g>
		<rect x="59.5" y="34" transform="matrix(5.134643e-03 -1 1 5.134643e-03 25.1736 93.9334)" width="0.6" height="0.6"/>
	</g>
	<g>
		<rect x="58.4" y="34" transform="matrix(5.134643e-03 -1 1 5.134643e-03 24.076 92.8188)" width="0.6" height="0.6"/>
	</g>
	<g>
		<rect x="57.3" y="34" transform="matrix(5.134643e-03 -1 1 5.134643e-03 22.9785 91.7041)" width="0.6" height="0.6"/>
	</g>
	<g>
		<rect x="56.2" y="34" transform="matrix(5.134643e-03 -1 1 5.134643e-03 21.8809 90.5895)" width="0.6" height="0.6"/>
	</g>
	<g>
		<rect x="55.1" y="34" transform="matrix(5.134643e-03 -1 1 5.134643e-03 20.7833 89.4749)" width="0.6" height="0.6"/>
	</g>
	<g>
		<rect x="59" y="33.5" transform="matrix(5.134643e-03 -1 1 5.134643e-03 25.1821 92.8273)" width="0.6" height="0.6"/>
	</g>
	<g>
		<rect x="57.9" y="33.5" transform="matrix(5.134643e-03 -1 1 5.134643e-03 24.0846 91.7127)" width="0.6" height="0.6"/>
	</g>
	<g>
		<rect x="56.7" y="33.5" transform="matrix(5.134643e-03 -1 1 5.134643e-03 22.987 90.598)" width="0.6" height="0.6"/>
	</g>
	<g>
		<rect x="55.6" y="33.5" transform="matrix(5.134643e-03 -1 1 5.134643e-03 21.8894 89.4834)" width="0.6" height="0.6"/>
	</g>
	<g>
		<polygon points="93.9,33.1 93.3,33.1 92.8,33.1 92.2,33.1 91.7,33.1 91.1,33.1 90.6,33.1 90,33.1 89.5,33.1 88.9,33.1 88.4,33.1 
			87.8,33.1 87.2,33.1 86.7,33.1 86.1,33.1 85.6,33.1 85,33.1 84.5,33.1 84.5,32.5 85,32.5 85,31.9 85.6,32 85.6,31.4 86.1,31.4 
			86.2,30.8 86.7,30.8 86.7,30.3 87.3,30.3 87.3,29.7 87.8,29.7 87.8,29.2 88.4,29.2 88.4,28.6 88.9,28.6 88.9,28.1 89.5,28.1 
			89.5,27.5 90.1,27.5 90.1,27 90.6,27 90.6,26.4 91.2,26.4 91.2,25.9 91.7,25.9 91.7,25.3 92.3,25.3 92.3,24.8 92.8,24.8 
			92.8,24.2 93.4,24.2 93.4,23.7 93.4,23.1 93.4,22.6 93.4,22 92.9,22 92.9,21.5 92.3,21.5 91.7,21.4 91.2,21.4 91.2,20.9 
			90.6,20.9 90.1,20.9 89.5,20.9 89,20.9 88.4,20.9 87.9,20.9 87.3,20.9 86.8,20.9 86.2,20.9 86.2,21.4 85.6,21.4 85.1,21.4 
			85.1,22 84.5,22 84,22 84,22.5 83.4,22.5 82.9,22.5 82.9,22 82.3,22 82.3,21.4 82.3,20.8 81.8,20.8 81.8,20.3 81.8,19.7 
			81.2,19.7 81.2,19.2 80.7,19.2 80.7,18.6 80.1,18.6 80.1,18.1 79.6,18.1 79.6,17.5 79,17.5 78.5,17.5 78.5,16.9 77.9,16.9 
			77.4,16.9 77.4,16.4 76.8,16.4 76.2,16.4 75.7,16.4 75.7,15.8 75.1,15.8 74.6,15.8 74,15.8 73.5,15.8 72.9,15.8 72.9,15.3 
			72.4,15.2 71.8,15.2 71.3,15.2 70.7,15.2 70.2,15.2 69.6,15.2 69,15.2 68.5,15.2 67.9,15.2 67.4,15.2 66.8,15.2 66.3,15.2 
			65.7,15.2 65.2,15.2 64.6,15.2 64.6,15.8 64,15.8 63.5,15.8 62.9,15.8 62.4,15.8 62.4,16.3 61.8,16.3 61.3,16.3 60.7,16.3 
			60.7,16.9 60.2,16.9 60.2,17.4 59.6,17.4 59.1,17.4 59,18 58.5,18 57.9,17.9 57.9,18.5 57.4,18.5 57.4,19.1 56.8,19.1 56.8,19.6 
			56.3,19.6 56.3,20.2 55.7,20.2 55.7,20.7 55.2,20.7 55.1,21.3 55.1,21.8 54.6,21.8 54.6,22.4 54.6,22.9 54,22.9 54,23.5 54,24 
			53.5,24 53.5,24.6 53.5,25.1 53.5,25.7 54,25.7 54,25.1 54,24.6 54.6,24.6 54.6,24 54.6,23.5 55.1,23.5 55.1,22.9 55.1,22.4 
			55.7,22.4 55.7,21.8 55.7,21.3 56.3,21.3 56.3,20.7 56.8,20.7 56.8,20.2 57.4,20.2 57.4,19.6 57.9,19.6 57.9,19.1 58.5,19.1 
			58.5,18.5 59,18.5 59.6,18.5 59.6,18 60.2,18 60.7,18 60.7,17.4 61.3,17.4 61.8,17.4 62.4,17.4 62.9,17.4 63.5,17.4 64,17.4 
			64.6,17.4 65.1,17.4 65.7,17.4 66.3,17.4 66.8,17.4 67.4,17.4 67.4,16.9 66.8,16.9 66.3,16.9 65.7,16.9 65.2,16.9 64.6,16.9 
			64,16.9 63.5,16.9 62.9,16.9 62.9,16.3 63.5,16.3 64,16.3 64.6,16.3 65.2,16.3 65.2,15.8 65.7,15.8 66.3,15.8 66.8,15.8 
			67.4,15.8 67.9,15.8 68.5,15.8 69,15.8 69.6,15.8 70.1,15.8 70.7,15.8 71.3,15.8 71.8,15.8 72.4,15.8 72.4,16.4 72.9,16.4 
			72.9,16.9 73.5,16.9 73.5,16.4 74,16.4 74,16.9 74.6,16.9 75.1,16.9 75.7,16.9 76.2,16.9 76.8,16.9 76.8,17.5 76.8,18 77.3,18 
			77.9,18.1 78.5,18.1 79,18.1 79,18.6 79.6,18.6 79.6,19.2 80.1,19.2 80.1,19.7 80.7,19.7 80.7,20.3 81.2,20.3 81.2,20.8 
			81.2,21.4 81.2,21.9 80.7,21.9 80.6,22.5 81.2,22.5 81.8,22.5 82.3,22.5 82.3,23.1 82.3,23.6 82.9,23.6 83.4,23.6 83.4,23.1 
			84,23.1 84.5,23.1 84.5,22.5 85.1,22.5 85.6,22.5 85.6,22 86.2,22 86.8,22 86.8,21.4 87.3,21.4 87.9,21.4 88.4,21.4 89,21.4 
			89.5,21.4 90.1,21.4 90.6,21.4 90.6,22 91.2,22 91.7,22 92.3,22 92.3,22.6 92.8,22.6 92.8,23.1 92.3,23.1 91.7,23.1 91.2,23.1 
			90.6,23.1 90.6,23.7 90.1,23.7 89.5,23.7 89,23.7 89,24.2 88.4,24.2 87.8,24.2 87.8,24.8 87.3,24.8 86.7,24.7 86.7,25.3 
			86.2,25.3 86.2,25.9 85.6,25.9 85.6,26.4 85.1,26.4 85.1,27 84.5,27 84.5,27.5 84,27.5 83.9,28.1 83.4,28.1 83.4,28.6 82.8,28.6 
			82.8,29.2 82.3,29.2 82.3,29.7 81.7,29.7 81.7,30.3 81.2,30.3 81.2,30.8 80.6,30.8 80.6,31.4 80,31.4 80,31.9 79.5,31.9 
			79.5,32.5 78.9,32.5 78.9,33 78.4,33 78.4,33.6 77.8,33.6 77.8,34.1 77.3,34.1 77.3,34.7 76.7,34.7 76.2,34.7 76.1,35.2 
			75.6,35.2 75,35.2 75,35.8 74.5,35.8 73.9,35.8 73.4,35.8 73.4,36.3 72.8,36.3 72.3,36.3 71.7,36.3 71.2,36.3 70.6,36.3 
			70.6,36.9 71.1,36.9 71.7,36.9 72.3,36.9 72.8,36.9 73.4,36.9 73.9,36.9 74.5,36.9 75,36.9 75.6,36.9 76.1,36.9 76.7,36.9 
			77.2,36.9 77.8,36.9 78.4,36.9 78.9,36.9 79.5,36.9 80,36.9 80.6,36.9 81.1,36.9 81.7,36.9 82.2,36.9 82.8,36.9 83.3,36.9 
			83.9,36.9 84.5,36.9 85,36.9 85,36.4 84.5,36.4 83.9,36.4 83.4,36.4 82.8,36.4 82.2,36.4 81.7,36.4 81.1,36.4 80.6,36.4 80,36.4 
			79.5,36.4 78.9,36.4 78.4,36.4 78.4,35.8 78.4,35.2 78.9,35.2 78.9,34.7 79.5,34.7 79.5,34.1 80,34.1 80,33.6 80.6,33.6 
			81.1,33.6 81.7,33.6 82.3,33.6 82.8,33.6 83.4,33.6 83.9,33.6 83.9,34.2 84.5,34.2 85,34.2 85.6,34.2 86.1,34.2 86.1,33.6 
			86.7,33.6 87.2,33.6 87.8,33.6 88.4,33.6 88.9,33.6 89.5,33.6 90,33.6 90.6,33.6 91.1,33.6 91.7,33.6 92.2,33.6 92.8,33.7 
			92.8,34.2 93.3,34.2 93.9,34.2 93.9,34.8 93.9,35.3 93.9,35.9 93.3,35.9 93.3,36.4 92.8,36.4 92.8,37 92.2,37 92.2,37.5 
			91.7,37.5 91.7,38.1 91.1,38.1 90.6,38.1 90.5,38.6 90,38.6 89.4,38.6 88.9,38.6 88.9,39.2 88.3,39.2 87.8,39.2 87.2,39.2 
			87.2,39.7 86.7,39.7 86.1,39.7 85.6,39.7 85.5,40.3 85,40.3 84.4,40.3 83.9,40.3 83.3,40.3 83.3,40.8 82.8,40.8 82.2,40.8 
			81.7,40.8 81.1,40.8 81.1,41.4 80.6,41.4 80,41.4 79.4,41.3 79.4,41.9 78.9,41.9 78.9,42.5 79.4,42.5 80,42.5 80.5,42.5 
			81.1,42.5 81.7,42.5 82.2,42.5 82.8,42.5 82.8,41.9 83.3,41.9 83.9,41.9 83.9,41.4 83.9,40.8 84.4,40.8 85,40.8 85.5,40.8 
			86.1,40.8 86.1,40.3 86.7,40.3 87.2,40.3 87.8,40.3 87.8,39.7 88.3,39.7 88.9,39.7 89.4,39.7 89.4,39.2 90,39.2 90.5,39.2 
			91.1,39.2 91.1,38.6 91.7,38.6 92.2,38.6 92.2,38.1 92.8,38.1 92.8,37.5 93.3,37.5 93.3,37 93.9,37 93.9,36.4 94.4,36.4 
			94.4,35.9 94.4,35.3 94.4,34.8 94.5,34.2 94.5,33.7 93.9,33.7 		"/>
	</g>
	<g>
		<rect x="58.4" y="32.9" transform="matrix(5.134643e-03 -1 1 5.134643e-03 25.1907 91.7212)" width="0.6" height="0.6"/>
	</g>
	<g>
		<rect x="57.3" y="32.9" transform="matrix(5.134643e-03 -1 1 5.134643e-03 24.0931 90.6066)" width="0.6" height="0.6"/>
	</g>
	<g>
		<rect x="56.2" y="32.9" transform="matrix(5.134643e-03 -1 1 5.134643e-03 22.9955 89.492)" width="0.6" height="0.6"/>
	</g>
	<g>
		<rect x="55.1" y="32.9" transform="matrix(5.134643e-03 -1 1 5.134643e-03 21.8979 88.3773)" width="0.6" height="0.6"/>
	</g>
	<g>
		<rect x="57.9" y="32.4" transform="matrix(5.134643e-03 -1 1 5.134643e-03 25.1992 90.6151)" width="0.6" height="0.6"/>
	</g>
	<g>
		<rect x="56.8" y="32.4" transform="matrix(5.134643e-03 -1 1 5.134643e-03 24.1016 89.5005)" width="0.6" height="0.6"/>
	</g>
	<g>
		<rect x="55.6" y="32.4" transform="matrix(5.134643e-03 -1 1 5.134643e-03 23.004 88.3858)" width="0.6" height="0.6"/>
	</g>
	<g>
		<rect x="60.6" y="31.8" transform="matrix(5.134643e-03 -1 1 5.134643e-03 28.5004 92.8528)" width="0.6" height="0.6"/>
	</g>
	<g>
		<polygon points="58.4,31.8 58.4,32.4 59,32.4 59,32.9 59.5,32.9 59.5,33.5 60.1,33.5 60.1,34 60.6,34 60.6,34.6 61.2,34.6 
			61.2,35.2 61.7,35.2 61.7,34.6 61.7,34 61.7,33.5 62.3,33.5 62.3,32.9 62.3,32.4 61.7,32.4 61.2,32.4 61.2,32.9 61.2,33.5 
			60.6,33.5 60.6,32.9 60.1,32.9 60.1,32.4 59.5,32.4 59.5,31.8 59.5,31.3 59,31.3 59,31.8 		"/>
	</g>
	<g>
		<rect x="57.3" y="31.8" transform="matrix(5.134643e-03 -1 1 5.134643e-03 25.2077 89.509)" width="0.6" height="0.6"/>
	</g>
	<g>
		<rect x="56.2" y="31.8" transform="matrix(5.134643e-03 -1 1 5.134643e-03 24.1101 88.3944)" width="0.6" height="0.6"/>
	</g>
	<g>
		<rect x="55.1" y="31.8" transform="matrix(5.134643e-03 -1 1 5.134643e-03 23.0125 87.2798)" width="0.6" height="0.6"/>
	</g>
	<g>
		<rect x="57.9" y="31.3" transform="matrix(5.134643e-03 -1 1 5.134643e-03 26.3138 89.5175)" width="0.6" height="0.6"/>
	</g>
	<g>
		<rect x="56.8" y="31.3" transform="matrix(5.134643e-03 -1 1 5.134643e-03 25.2162 88.4029)" width="0.6" height="0.6"/>
	</g>
	<g>
		<rect x="55.7" y="31.2" transform="matrix(5.134643e-03 -1 1 5.134643e-03 24.1186 87.2883)" width="0.6" height="0.6"/>
	</g>
	<g>
		<polygon points="60.6,30.7 60.1,30.7 60.1,31.3 60.1,31.8 60.6,31.8 60.6,31.3 		"/>
	</g>
	<g>
		<rect x="57.3" y="30.7" transform="matrix(5.134643e-03 -1 1 5.134643e-03 26.3223 88.4114)" width="0.6" height="0.6"/>
	</g>
	<g>
		<rect x="56.2" y="30.7" transform="matrix(5.134643e-03 -1 1 5.134643e-03 25.2247 87.2968)" width="0.6" height="0.6"/>
	</g>
	<g>
		<path d="M68.4,30.2l0-0.6l0-0.6l0-0.6l0-0.6l0-0.6l-0.6,0l0-0.6l0-0.6l-0.6,0l0-0.6l-0.6,0l-0.6,0l0-0.6l-0.6,0l-0.6,0l-0.6,0
			l-0.6,0l-0.6,0l0,0.6l-0.6,0l-0.6,0l0,0.6l-0.6,0l0,0.6l0,0.6l-0.6,0l0,0.6l0,0.6l0,0.6l0,0.6l0,0.6l0.6,0l0,0.6l0,0.6l0.6,0
			l0,0.6l0,0.6l0.6,0l0-0.6l0.6,0l0.6,0l0-0.6l0.6,0l0.6,0l0.6,0l0-0.6l0.6,0l0.6,0l0.6,0l0.6,0l0.6,0l0.6,0l0-0.6L68.4,30.2z
			 M63.4,28l0-0.6l0.6,0l0.6,0l0,0.6l0,0.6l-0.6,0l-0.6,0L63.4,28z"/>
	</g>
	<g>
		<rect x="56.8" y="30.1" transform="matrix(5.134643e-03 -1 1 5.134643e-03 26.3308 87.3053)" width="0.6" height="0.6"/>
	</g>
	<g>
		<polygon points="71.2,29.7 71.2,29.1 71.2,28.6 71.2,28 71.2,27.4 71.2,26.9 71.2,26.3 70.6,26.3 70.6,26.9 70.6,27.4 70.6,28 
			70.6,28.5 70.6,29.1 70.6,29.7 70.6,30.2 71.2,30.2 71.7,30.2 72.3,30.2 72.3,29.7 71.7,29.7 		"/>
	</g>
	<g>
		<polygon points="60.1,29.6 60.1,29 60.1,28.5 60.1,27.9 60.1,27.4 60.1,26.8 59.6,26.8 59.6,27.4 59.6,27.9 59.5,28.5 59.5,29 
			59.5,29.6 59.5,30.2 59.5,30.7 60.1,30.7 60.1,30.2 		"/>
	</g>
	<g>
		<polygon points="72.3,29.1 72.3,29.7 72.8,29.7 73.4,29.7 73.4,29.1 72.9,29.1 		"/>
	</g>
	<g>
		<polygon points="73.4,28.6 73.4,29.1 74,29.1 74.5,29.1 74.5,28.6 74,28.6 		"/>
	</g>
	<g>
		<polygon points="74.5,28 74.5,28.6 75.1,28.6 75.6,28.6 75.6,28 75.1,28 		"/>
	</g>
	<g>
		<polygon points="75.6,27.5 75.6,28 76.2,28 76.7,28 76.7,27.5 76.2,27.5 		"/>
	</g>
	<g>
		<polygon points="69.5,28 69.5,28.5 69.5,29.1 69.5,29.7 69.5,30.2 69.5,30.8 69,30.8 69,31.3 69.5,31.3 70.1,31.3 70.1,30.8 
			70.1,30.2 70.1,29.7 70.1,29.1 70.1,28.5 70.1,28 70.1,27.4 70.1,26.9 69.5,26.9 69.5,27.4 		"/>
	</g>
	<g>
		<rect x="76.7" y="26.9" transform="matrix(5.134643e-03 -1 1 5.134643e-03 49.4311 104.0757)" width="0.6" height="0.6"/>
	</g>
	<g>
		<polygon points="77.3,26.4 77.3,26.9 77.9,26.9 78.4,26.9 78.4,26.4 77.9,26.4 		"/>
	</g>
	<g>
		<polygon points="69,26.9 69.5,26.9 69.5,26.3 69.5,25.8 69,25.8 69,26.3 		"/>
	</g>
	<g>
		<polygon points="60.7,26.3 60.7,25.7 60.1,25.7 60.1,26.3 60.1,26.8 60.7,26.8 		"/>
	</g>
	<g>
		<polygon points="58.4,26.8 58.4,27.4 58.4,27.9 58.4,28.5 58.4,29 58.4,29.6 58.4,30.1 57.9,30.1 57.9,30.7 58.4,30.7 58.4,31.3 
			59,31.3 59,30.7 59,30.2 59,29.6 59,29 59,28.5 59,27.9 59,27.4 59,26.8 59,26.3 58.5,26.3 		"/>
	</g>
	<g>
		<rect x="78.4" y="25.8" transform="matrix(5.134643e-03 -1 1 5.134643e-03 52.1921 104.65)" width="0.6" height="0.6"/>
	</g>
	<g>
		<polygon points="79,25.3 79,25.8 79.5,25.8 80.1,25.8 80.1,25.3 79.5,25.3 		"/>
	</g>
	<g>
		<polygon points="75.1,25.2 74.5,25.2 74,25.2 74,25.8 74.5,25.8 75.1,25.8 75.6,25.8 76.2,25.8 76.2,25.3 75.6,25.2 		"/>
	</g>
	<g>
		<polygon points="70.7,25.2 70.1,25.2 70.1,25.8 70.1,26.3 70.6,26.3 70.7,25.8 		"/>
	</g>
	<g>
		<rect x="68.4" y="25.2" transform="matrix(5.134643e-03 -1 1 5.134643e-03 42.8712 94.0697)" width="0.6" height="0.6"/>
	</g>
	<g>
		<rect x="60.7" y="25.2" transform="matrix(5.134643e-03 -1 1 5.134643e-03 35.1881 86.2674)" width="0.6" height="0.6"/>
	</g>
	<g>
		<polygon points="59,25.7 59,26.3 59.6,26.3 59.6,25.7 59.6,25.2 59,25.2 		"/>
	</g>
	<g>
		<rect x="80.1" y="24.7" transform="matrix(5.134643e-03 -1 1 5.134643e-03 54.9531 105.2244)" width="0.6" height="0.6"/>
	</g>
	<g>
		<polygon points="76.2,24.7 76.2,25.3 76.8,25.3 77.3,25.3 77.3,24.7 76.8,24.7 		"/>
	</g>
	<g>
		<rect x="73.4" y="24.7" transform="matrix(5.134643e-03 -1 1 5.134643e-03 48.3676 98.5367)" width="0.6" height="0.6"/>
	</g>
	<g>
		<rect x="69.5" y="24.7" transform="matrix(5.134643e-03 -1 1 5.134643e-03 44.5261 94.6355)" width="0.6" height="0.6"/>
	</g>
	<g>
		<rect x="67.9" y="24.7" transform="matrix(5.134643e-03 -1 1 5.134643e-03 42.8797 92.9636)" width="0.6" height="0.6"/>
	</g>
	<g>
		<rect x="61.2" y="24.6" transform="matrix(5.134643e-03 -1 1 5.134643e-03 36.2942 86.2759)" width="0.6" height="0.6"/>
	</g>
	<g>
		<rect x="59.6" y="24.6" transform="matrix(5.134643e-03 -1 1 5.134643e-03 34.6479 84.604)" width="0.6" height="0.6"/>
	</g>
	<g>
		<polygon points="80.6,24.2 80.6,24.7 81.2,24.7 81.7,24.7 81.8,24.2 81.2,24.2 		"/>
	</g>
	<g>
		<polygon points="77.3,24.1 77.3,24.7 77.9,24.7 78.4,24.7 78.4,24.2 77.9,24.1 		"/>
	</g>
	<g>
		<rect x="72.9" y="24.1" transform="matrix(5.134643e-03 -1 1 5.134643e-03 48.3761 97.4306)" width="0.6" height="0.6"/>
	</g>
	<g>
		<rect x="69" y="24.1" transform="matrix(5.134643e-03 -1 1 5.134643e-03 44.5346 93.5294)" width="0.6" height="0.6"/>
	</g>
	<g>
		<polygon points="67.3,24.7 67.9,24.7 67.9,24.1 67.3,24.1 66.8,24.1 66.8,24.6 		"/>
	</g>
	<g>
		<polygon points="62.9,24.6 62.9,24.1 62.3,24.1 61.8,24.1 61.8,24.6 62.3,24.6 		"/>
	</g>
	<g>
		<rect x="60.1" y="24.1" transform="matrix(5.134643e-03 -1 1 5.134643e-03 35.754 84.6125)" width="0.6" height="0.6"/>
	</g>
	<g>
		<rect x="81.8" y="23.6" transform="matrix(5.134643e-03 -1 1 5.134643e-03 57.7141 105.7987)" width="0.6" height="0.6"/>
	</g>
	<g>
		<rect x="78.4" y="23.6" transform="matrix(5.134643e-03 -1 1 5.134643e-03 54.4213 102.4549)" width="0.6" height="0.6"/>
	</g>
	<g>
		<polygon points="64,24.1 64.6,24.1 65.1,24.1 65.7,24.1 66.2,24.1 66.8,24.1 66.8,23.5 66.2,23.5 65.7,23.5 65.1,23.5 64.6,23.5 
			64,23.5 63.5,23.5 62.9,23.5 62.9,24.1 63.5,24.1 		"/>
	</g>
	<g>
		<rect x="60.7" y="23.5" transform="matrix(5.134643e-03 -1 1 5.134643e-03 36.8601 84.621)" width="0.6" height="0.6"/>
	</g>
	<g>
		<polygon points="79,23 79,23.6 79.5,23.6 80.1,23.6 80.1,23.1 79.5,23 		"/>
	</g>
	<g>
		<rect x="76.2" y="23" transform="matrix(5.134643e-03 -1 1 5.134643e-03 52.7835 99.6768)" width="0.6" height="0.6"/>
	</g>
	<g>
		<polygon points="72.9,23 72.9,22.5 72.3,22.5 72.3,23 72.3,23.6 72.3,24.1 72.9,24.1 72.9,23.6 		"/>
	</g>
	<g>
		<polygon points="69.6,23.6 69.6,23 69.6,22.4 69,22.4 69,23 68.4,23 68.5,22.4 67.9,22.4 67.9,21.9 67.3,21.9 67.3,22.4 
			66.8,22.4 66.2,22.4 65.7,22.4 65.1,22.4 64.6,22.4 64,22.4 63.5,22.4 62.9,22.4 62.4,22.4 62.3,23 62.9,23 63.5,23 64,23 
			64.6,23 65.1,23 65.7,23 66.2,23 66.8,23 67.3,23 67.3,23.5 67.9,23.5 68.4,23.5 68.4,24.1 69,24.1 69,23.5 		"/>
	</g>
	<g>
		<polygon points="61.2,23 61.2,23.5 61.8,23.5 62.3,23.5 62.3,23 61.8,23 		"/>
	</g>
	<g>
		<rect x="80.1" y="22.5" transform="matrix(5.134643e-03 -1 1 5.134643e-03 57.1823 103.0292)" width="0.6" height="0.6"/>
	</g>
	<g>
		<rect x="75.7" y="22.5" transform="matrix(5.134643e-03 -1 1 5.134643e-03 52.792 98.5708)" width="0.6" height="0.6"/>
	</g>
	<g>
		<rect x="77.9" y="21.9" transform="matrix(5.134643e-03 -1 1 5.134643e-03 55.5445 100.2512)" width="0.6" height="0.6"/>
	</g>
	<g>
		<rect x="75.1" y="21.9" transform="matrix(5.134643e-03 -1 1 5.134643e-03 52.8005 97.4647)" width="0.6" height="0.6"/>
	</g>
	<g>
		<polygon points="73.4,21.9 73.4,21.4 72.9,21.4 72.9,21.9 72.9,22.5 73.4,22.5 		"/>
	</g>
	<g>
		<rect x="68.5" y="21.9" transform="matrix(5.134643e-03 -1 1 5.134643e-03 46.215 90.777)" width="0.6" height="0.6"/>
	</g>
	<g>
		<rect x="77.3" y="21.4" transform="matrix(5.134643e-03 -1 1 5.134643e-03 55.553 99.1451)" width="0.6" height="0.6"/>
	</g>
	<g>
		<rect x="67.9" y="21.3" transform="matrix(5.134643e-03 -1 1 5.134643e-03 46.2236 89.6709)" width="0.6" height="0.6"/>
	</g>
	<g>
		<rect x="79.5" y="20.8" transform="matrix(5.134643e-03 -1 1 5.134643e-03 58.3054 100.8255)" width="0.6" height="0.6"/>
	</g>
	<g>
		<rect x="76.8" y="20.8" transform="matrix(5.134643e-03 -1 1 5.134643e-03 55.5615 98.039)" width="0.6" height="0.6"/>
	</g>
	<g>
		<rect x="73.4" y="20.8" transform="matrix(5.134643e-03 -1 1 5.134643e-03 52.2688 94.6952)" width="0.6" height="0.6"/>
	</g>
	<g>
		<rect x="68.5" y="20.8" transform="matrix(5.134643e-03 -1 1 5.134643e-03 47.3297 89.6794)" width="0.6" height="0.6"/>
	</g>
	<g>
		<rect x="79" y="20.3" transform="matrix(5.134643e-03 -1 1 5.134643e-03 58.314 99.7194)" width="0.6" height="0.6"/>
	</g>
	<g>
		<rect x="76.2" y="20.3" transform="matrix(5.134643e-03 -1 1 5.134643e-03 55.57 96.9329)" width="0.6" height="0.6"/>
	</g>
	<g>
		<rect x="74" y="20.2" transform="matrix(5.134643e-03 -1 1 5.134643e-03 53.3749 94.7037)" width="0.6" height="0.6"/>
	</g>
	<g>
		<polygon points="70.1,20.8 69.6,20.8 69.6,21.3 69,21.3 69,21.9 69.6,21.9 69.6,22.4 70.1,22.4 70.1,21.9 70.1,21.3 70.7,21.3 
			70.7,20.8 70.7,20.2 70.1,20.2 		"/>
	</g>
	<g>
		<rect x="69" y="20.2" transform="matrix(5.134643e-03 -1 1 5.134643e-03 48.4358 89.6879)" width="0.6" height="0.6"/>
	</g>
	<g>
		<rect x="67.9" y="20.2" transform="matrix(5.134643e-03 -1 1 5.134643e-03 47.3382 88.5733)" width="0.6" height="0.6"/>
	</g>
	<g>
		<rect x="78.4" y="19.7" transform="matrix(5.134643e-03 -1 1 5.134643e-03 58.3225 98.6133)" width="0.6" height="0.6"/>
	</g>
	<g>
		<rect x="74.6" y="19.7" transform="matrix(5.134643e-03 -1 1 5.134643e-03 54.481 94.7122)" width="0.6" height="0.6"/>
	</g>
	<g>
		<rect x="70.7" y="19.7" transform="matrix(5.134643e-03 -1 1 5.134643e-03 50.6394 90.811)" width="0.6" height="0.6"/>
	</g>
	<g>
		<rect x="69.6" y="19.7" transform="matrix(5.134643e-03 -1 1 5.134643e-03 49.5419 89.6964)" width="0.6" height="0.6"/>
	</g>
	<g>
		<rect x="68.5" y="19.7" transform="matrix(5.134643e-03 -1 1 5.134643e-03 48.4443 88.5818)" width="0.6" height="0.6"/>
	</g>
	<g>
		<rect x="77.9" y="19.2" transform="matrix(5.134643e-03 -1 1 5.134643e-03 58.331 97.5073)" width="0.6" height="0.6"/>
	</g>
	<g>
		<rect x="75.1" y="19.1" transform="matrix(5.134643e-03 -1 1 5.134643e-03 55.5871 94.7207)" width="0.6" height="0.6"/>
	</g>
	<g>
		<rect x="70.1" y="19.1" transform="matrix(5.134643e-03 -1 1 5.134643e-03 50.6479 89.7049)" width="0.6" height="0.6"/>
	</g>
	<g>
		<rect x="69" y="19.1" transform="matrix(5.134643e-03 -1 1 5.134643e-03 49.5504 88.5903)" width="0.6" height="0.6"/>
	</g>
	<g>
		<rect x="75.7" y="18.6" transform="matrix(5.134643e-03 -1 1 5.134643e-03 56.6931 94.7292)" width="0.6" height="0.6"/>
	</g>
	<g>
		<polygon points="70.1,18.6 70.7,18.6 70.7,18 70.1,18 69.6,18 69,18 69,18.6 69.6,18.6 69.6,19.1 70.1,19.1 		"/>
	</g>
	<g>
		<rect x="76.2" y="18" transform="matrix(5.134643e-03 -1 1 5.134643e-03 57.7992 94.7377)" width="0.6" height="0.6"/>
	</g>
	<g>
		<rect x="72.4" y="18" transform="matrix(5.134643e-03 -1 1 5.134643e-03 53.9577 90.8366)" width="0.6" height="0.6"/>
	</g>
	<g>
		<polygon points="71.8,18 71.2,18 71.2,18.6 70.7,18.6 70.7,19.1 71.2,19.1 71.2,19.7 71.8,19.7 71.8,19.1 72.3,19.1 72.4,18.6 
			71.8,18.6 		"/>
	</g>
	<g>
		<rect x="72.9" y="17.5" transform="matrix(5.134643e-03 -1 1 5.134643e-03 55.0638 90.8451)" width="0.6" height="0.6"/>
	</g>
	<g>
		<rect x="71.8" y="17.5" transform="matrix(5.134643e-03 -1 1 5.134643e-03 53.9662 89.7305)" width="0.6" height="0.6"/>
	</g>
	<g>
		<polygon points="68.5,17.4 67.9,17.4 67.4,17.4 67.4,18 67.9,18 68.5,18 69,18 69,17.5 		"/>
	</g>
	<g>
		<rect x="73.5" y="16.9" transform="matrix(5.134643e-03 -1 1 5.134643e-03 56.1699 90.8536)" width="0.6" height="0.6"/>
	</g>
	<g>
		<rect x="72.4" y="16.9" transform="matrix(5.134643e-03 -1 1 5.134643e-03 55.0723 89.739)" width="0.6" height="0.6"/>
	</g>
</g>
<g id="furippa_00000181798990719519216220000015780613753187236001_">
	<g>
		<polygon points="107.3,30.9 107.3,31.5 107.8,31.5 108.4,31.5 108.4,30.9 107.8,30.9 		"/>
	</g>
	<g>
		<rect x="108.4" y="30.4" transform="matrix(5.134643e-03 -1 1 5.134643e-03 77.4622 139.1836)" width="0.6" height="0.6"/>
	</g>
	<g>
		<polygon points="116.8,29.3 116.8,28.7 116.3,28.7 116.3,28.2 116.3,27.6 115.7,27.6 115.7,27 115.7,26.5 115.2,26.5 114.6,26.5 
			114.6,27 114.6,27.6 114.6,28.2 115.1,28.2 115.1,28.7 115.1,29.3 115.7,29.3 115.7,29.9 115.7,30.4 116.3,30.4 116.3,31 
			116.3,31.5 116.8,31.5 117.4,31.5 117.4,31 117.4,30.4 117.4,29.9 116.8,29.9 		"/>
	</g>
	<g>
		<polygon points="108.4,29.3 108.4,28.7 107.8,28.7 107.8,29.3 107.8,29.8 108.4,29.8 		"/>
	</g>
	<g>
		<polygon points="107.3,29.3 107.3,28.7 106.7,28.7 106.7,29.2 106.7,29.8 107.3,29.8 		"/>
	</g>
	<g>
		<polygon points="109,29.3 109,29.8 109,30.4 109.5,30.4 109.5,29.8 109.5,29.3 109.5,28.7 109,28.7 		"/>
	</g>
	<g>
		<polygon points="121.9,28.2 121.3,28.2 120.8,28.2 120.2,28.2 119.6,28.2 119.1,28.2 119.1,28.7 119.1,29.3 119.6,29.3 
			120.2,29.3 120.8,29.3 121.3,29.3 121.9,29.3 122.4,29.3 122.4,28.8 122.4,28.2 		"/>
	</g>
	<g>
		<polygon points="103.4,28.7 103.4,28.1 103.4,27.5 103.4,27 103.4,26.4 102.8,26.4 102.2,26.4 102.2,27 102.2,27.5 102.2,28.1 
			102.2,28.7 102.8,28.7 		"/>
	</g>
	<g>
		<polygon points="112.4,26.5 112.3,27 112.3,27.6 111.8,27.6 111.8,28.2 111.8,28.7 111.2,28.7 111.2,29.3 111.2,29.8 110.7,29.8 
			110.6,30.4 110.6,31 110.6,31.5 111.2,31.5 111.8,31.5 111.8,31 111.8,30.4 112.3,30.4 112.3,29.8 112.3,29.3 112.9,29.3 
			112.9,28.7 112.9,28.2 113.5,28.2 113.5,27.6 113.5,27 113.5,26.5 112.9,26.5 		"/>
	</g>
	<g>
		<polygon points="104.5,26.4 104.5,27 104.5,27.6 104.5,28.1 104.5,28.7 104.5,29.2 103.9,29.2 103.9,29.8 103.4,29.8 103.3,30.4 
			102.8,30.4 102.2,30.3 102.2,30.9 102.2,31.5 102.8,31.5 103.3,31.5 103.9,31.5 103.9,30.9 104.5,30.9 104.5,30.4 105,30.4 
			105,29.8 105.6,29.8 105.6,29.2 105.6,28.7 105.6,28.1 105.6,27.6 105.6,27 105.6,26.4 105.1,26.4 		"/>
	</g>
	<g>
		<polygon points="100,26.4 99.4,26.4 98.9,26.4 98.3,26.4 97.8,26.4 97.2,26.4 96.6,26.4 96.1,26.4 95.5,26.4 95.5,26.9 95.5,27.5 
			96.1,27.5 96.6,27.5 97.2,27.5 97.8,27.5 98.3,27.5 98.9,27.5 99.4,27.5 100,27.5 100,28.1 100,28.7 99.4,28.6 99.4,29.2 
			98.9,29.2 98.9,29.8 98.3,29.8 97.7,29.8 97.7,30.3 97.2,30.3 96.6,30.3 96.1,30.3 95.5,30.3 95.5,30.9 95.5,31.4 96,31.4 
			96.6,31.4 97.2,31.4 97.7,31.4 98.3,31.5 98.3,30.9 98.9,30.9 99.4,30.9 99.4,30.3 100,30.3 100,29.8 100.5,29.8 100.5,29.2 
			101.1,29.2 101.1,28.7 101.1,28.1 101.1,27.5 101.1,27 101.1,26.4 100.6,26.4 		"/>
	</g>
	<g>
		<path d="M117.4,25.9l-0.6,0l0,0.6l0,0.6l0,0.6l0.6,0l0.6,0l0.6,0l0-0.6l0-0.6l0-0.6l-0.6,0L117.4,25.9z M118,27.1l-0.6,0l0-0.6
			l0.6,0L118,27.1z"/>
	</g>
</g>
<g id="waves_00000109746687289913738430000016345661749859228317_">
	<g>
		<polygon points="96.2,19.7 96.2,20.3 96.8,20.3 96.8,19.7 96.8,19.1 96.2,19.1 		"/>
	</g>
	<g>
		<polygon points="94,19.7 94,20.3 94.5,20.3 94.5,19.7 94.5,19.1 94,19.1 		"/>
	</g>
	<g>
		<polygon points="98.5,18 98.5,18.6 98.5,19.2 98.5,19.7 98.5,20.3 99,20.3 99,19.7 99,19.2 99,18.6 99,18 		"/>
	</g>
	<g>
		<polygon points="96.2,18 95.7,18 95.7,18.6 95.7,19.1 96.2,19.1 96.2,18.6 		"/>
	</g>
	<g>
		<rect x="93.4" y="18.6" transform="matrix(5.134643e-03 -1 1 5.134643e-03 74.3633 112.4422)" width="0.6" height="0.6"/>
	</g>
	<g>
		<polygon points="92.9,18 92.3,18 92.3,18.6 92.9,18.6 93.4,18.6 93.4,18 		"/>
	</g>
	<g>
		<polygon points="98.5,16.9 97.9,16.9 97.9,17.5 97.9,18 98.5,18 98.5,17.5 		"/>
	</g>
	<g>
		<rect x="95.1" y="17.5" transform="matrix(5.134643e-03 -1 1 5.134643e-03 77.1586 113.0237)" width="0.6" height="0.6"/>
	</g>
	<g>
		<rect x="94.5" y="16.9" transform="matrix(5.134643e-03 -1 1 5.134643e-03 77.1672 111.9039)" width="0.6" height="0.6"/>
	</g>
	<g>
		<polygon points="97.9,15.8 97.4,15.8 97.4,16.3 97.4,16.9 97.9,16.9 97.9,16.3 		"/>
	</g>
	<g>
		<polygon points="94,16.3 93.4,16.3 93.4,16.9 94,16.9 94.5,16.9 94.5,16.3 		"/>
	</g>
	<g>
		<polygon points="92.9,15.8 92.3,15.8 92.3,16.3 92.9,16.3 93.4,16.3 93.4,15.8 		"/>
	</g>
	<g>
		<rect x="96.8" y="15.2" transform="matrix(5.134643e-03 -1 1 5.134643e-03 81.0822 112.494)" width="0.6" height="0.6"/>
	</g>
	<g>
		<polygon points="96.2,14.7 95.7,14.6 95.7,15.2 96.2,15.2 96.8,15.2 96.8,14.7 		"/>
	</g>
	<g>
		<polygon points="95.1,14.1 94.6,14.1 94.6,14.6 95.1,14.6 95.7,14.6 95.7,14.1 		"/>
	</g>
	<g>
		<polygon points="94,13.5 93.4,13.5 92.9,13.5 92.3,13.5 92.3,14.1 92.9,14.1 93.4,14.1 94,14.1 94.6,14.1 94.6,13.5 		"/>
	</g>
</g>
</svg>
