<svg width="238" height="100" viewBox="0 0 238 100" fill="none" xmlns="http://www.w3.org/2000/svg">
<g clip-path="url(#clip0_1587_8995)">
<path d="M48.0701 0.702572H196.982C201.565 0.819668 206.267 1.87353 210.028 6.20608C213.789 10.5386 229.89 30.445 231.536 32.5527C233.181 34.6604 234.944 37.3536 235.414 41.8033C235.884 46.2529 237.177 76.1124 237.177 80.2108C237.177 84.5433 235.884 86.2998 234.944 88.2904C234.004 90.0468 232.594 92.9742 231.653 94.7307C230.713 96.4871 227.54 99.1803 222.486 99.2974H37.8449C32.4385 99.2974 27.9723 97.3068 25.0341 93.3255C22.0958 89.4613 5.99408 67.3302 5.28889 66.1592C4.11358 64.2857 3.17334 61.3583 1.5279 58.0796C0.470127 55.9719 3.27826e-06 52.6932 2.70321 48.9461C5.52395 45.1991 33.0262 9.60187 35.4943 6.79156C37.9625 3.86416 42.1936 0.585476 48.0701 0.702572Z" fill="#4F4A54"/>
<path d="M37.7274 100C32.2035 100 27.6198 97.8923 24.564 93.7939C21.8607 90.1639 5.40642 67.7986 4.70124 66.5105C3.99605 65.3396 3.4084 63.9344 2.70321 62.2951C2.23309 61.1241 1.64543 59.719 0.940249 58.3138C0.235064 56.9087 -1.05778 53.1616 2.23309 48.5948C5.17136 44.6136 32.7911 9.01639 35.0242 6.32318C37.0222 3.98126 41.4884 0 47.9526 0H48.0701H196.982C200.743 0.117096 206.267 0.819672 210.615 5.73771C212.848 8.43091 220.135 17.3302 231.653 31.4988L232.123 32.0843C233.886 34.3091 235.649 37.0023 236.12 41.6862C236.707 46.37 237.882 76.2295 237.882 80.2108C237.882 84.192 236.825 86.1827 235.884 87.9391C235.767 88.1733 235.649 88.4075 235.532 88.6417C234.592 90.3981 233.181 93.3255 232.241 95.082C231.301 96.9555 227.892 99.8829 222.486 100H37.8449H37.7274ZM47.9526 1.28806C41.9585 1.28806 37.8449 4.91803 35.9644 7.14286C33.7314 9.83607 6.11161 45.3162 3.29087 49.2974C0.352594 53.2787 1.41037 56.4403 2.11556 57.7283C2.82074 59.1335 3.4084 60.5386 3.99605 61.8267C4.70124 63.466 5.28889 64.7541 5.87655 65.808C6.4642 66.8618 22.6835 88.993 25.6217 92.9742C28.4425 96.7213 32.6736 98.7119 37.8449 98.7119H222.721C227.54 98.5948 230.478 96.1358 231.301 94.4965C232.241 92.6229 233.651 89.8126 234.592 88.0562C234.709 87.822 234.827 87.5878 234.944 87.3536C235.884 85.7143 236.707 83.9578 236.825 80.2108C236.825 75.644 235.532 46.1358 235.062 41.8033C234.592 37.4707 232.946 34.8946 231.301 32.904L230.831 32.3185C216.374 14.4028 211.438 8.43091 209.793 6.55738C206.737 3.0445 202.741 1.40515 197.217 1.28806H48.3052C48.0701 1.28806 47.9526 1.28806 47.9526 1.28806Z" fill="#231F20"/>
<path d="M32.0859 91.9203C26.6795 91.9203 23.8588 89.8126 17.277 80.7962C10.9304 72.2482 2.11556 59.9531 1.99803 59.836L2.58568 59.4847C2.70321 59.6018 11.4005 71.8969 17.7472 80.4449C24.2114 89.2271 26.9146 91.2178 32.0859 91.2178H226.482C230.361 90.9836 234.357 89.11 235.414 87.0023L236.002 87.3536C234.827 89.6955 230.596 91.8032 226.482 91.9203H32.0859Z" fill="#231F20"/>
<path d="M193.691 3.39581C198.392 3.39581 201.448 3.98129 204.504 7.61127C207.56 11.2412 225.659 33.6066 227.187 35.4801C228.715 37.3537 230.008 40.164 230.008 43.2085C230.008 46.253 230.713 60.5387 230.478 64.2857C230.243 68.1499 227.07 70.9602 222.956 71.0773H49.363C43.839 70.9602 41.4884 69.5551 38.9027 66.8619C36.317 64.0515 29.6178 56.9087 27.6198 54.3326C25.3867 51.5223 26.4445 49.4145 27.7373 47.4239C29.2652 45.5504 51.0084 12.8806 53.124 9.48481C55.122 6.20612 58.883 3.39581 63.4667 3.39581H193.691Z" fill="#4F4A54"/>
<path d="M49.4805 71.5457C43.839 71.4286 41.4884 70.0234 38.7852 67.2131C36.082 64.4028 29.5003 57.1429 27.5022 54.5668C25.1516 51.6394 26.2094 49.2975 27.6198 47.3068C29.1477 45.1991 50.8909 12.5293 52.7714 9.36771C55.2395 5.50354 59.118 3.16162 63.3491 3.16162H193.573C198.51 3.16162 201.565 3.8642 204.621 7.49417C207.677 11.1242 226.012 33.7237 227.305 35.363C229.068 37.7049 230.125 40.6323 230.125 43.3256C230.125 44.3794 230.243 46.7213 230.36 49.4145C230.596 55.0352 230.831 61.9438 230.713 64.4028C230.478 68.3841 227.187 71.4286 222.956 71.5457H49.4805ZM63.4667 3.7471C59.4706 3.7471 55.7096 5.97193 53.4765 9.719C51.4785 12.8806 29.6178 45.5504 28.2074 47.6581C27.0321 49.4145 25.8568 51.4052 28.0899 54.0984C30.0879 56.6745 36.6696 63.8174 39.3728 66.6277C41.9585 69.3209 44.1916 70.726 49.598 70.726H223.191C227.07 70.6089 230.125 67.7986 230.36 64.1686C230.478 61.7096 230.243 54.4497 230.008 49.1804C229.89 46.4871 229.773 44.1452 229.773 43.0914C229.773 39.3443 227.892 36.534 227.07 35.5972C225.659 33.9579 207.442 11.3583 204.269 7.84546C201.33 4.44968 198.392 3.8642 193.691 3.7471H63.4667Z" fill="#231F20"/>
<path d="M224.837 46.37C227.775 50.1171 225.777 59.2506 219.313 60.3044H180.762C167.482 60.1873 153.965 49.2974 154.083 33.7236C154.201 18.1499 167.717 8.19672 181.115 8.19672C193.338 8.31381 200.86 16.7447 201.565 17.7986C203.799 20.726 222.251 43.0913 224.837 46.37Z" fill="#4F4A54"/>
<path d="M180.762 60.6557C174.063 60.6557 167.246 57.8454 162.193 53.0445C156.669 47.8923 153.73 40.9836 153.73 33.6066C153.848 17.5644 167.952 7.72833 180.998 7.72833H181.115C194.161 7.84543 201.801 17.3302 201.801 17.4473C202.858 18.8525 207.677 24.5902 212.613 30.7962C218.02 37.4707 223.661 44.3794 225.072 46.1358C226.717 48.1265 226.952 51.8735 225.659 55.0351C224.484 58.0796 222.133 60.0703 219.313 60.5386L180.762 60.6557ZM180.998 8.43091C168.304 8.43091 154.553 18.0328 154.436 33.6066C154.436 40.7494 157.374 47.541 162.663 52.459C167.717 57.1428 174.298 59.8361 180.762 59.8361H219.313C221.781 59.3677 223.896 57.6112 225.072 54.6838C226.247 51.7564 226.012 48.3606 224.602 46.4871C223.191 44.7307 217.667 37.822 212.143 31.1475C207.089 25.0585 202.388 19.2037 201.33 17.7986C201.213 17.6815 193.808 8.43091 180.998 8.43091Z" fill="#231F20"/>
<path d="M173.711 94.0281H201.801C202.858 94.0281 203.916 95.3162 201.918 95.4333H173.358C172.535 95.4333 171.83 94.3794 173.711 94.0281Z" fill="#4F4A54"/>
<path d="M173.358 95.7846C172.77 95.7846 172.3 95.3162 172.3 94.8478C172.3 94.4965 172.418 93.911 173.711 93.6768H201.8C202.623 93.6768 203.328 94.2623 203.328 94.8478C203.328 95.1991 203.093 95.6675 201.918 95.7846H173.358ZM173.711 94.3794C173.005 94.4965 172.888 94.7307 172.888 94.8478C172.888 94.9649 173.123 95.1991 173.358 95.1991H201.918C202.506 95.1991 202.741 94.9649 202.741 94.9649C202.741 94.8478 202.388 94.4965 201.8 94.4965L173.711 94.3794Z" fill="#231F20"/>
<path d="M229.655 94.1452C230.008 94.2623 230.008 96.1358 226.835 96.8384C222.016 98.0094 219.783 97.1897 220.488 96.0188C221.193 94.8478 222.016 95.5504 225.424 94.9649C228.833 94.3794 228.833 93.6768 229.655 94.1452Z" fill="#4F4A54"/>
<path d="M222.839 97.7752C221.546 97.7752 220.605 97.541 220.253 97.0726C220.018 96.7213 220.018 96.37 220.253 96.0187C220.723 95.1991 221.428 95.082 222.486 95.082C223.191 95.082 224.131 94.9649 225.424 94.8478C227.07 94.6136 227.892 94.2623 228.362 94.0281C228.95 93.7939 229.303 93.6768 229.773 94.0281C230.008 94.1452 230.125 94.3794 230.125 94.7307C230.125 95.082 229.89 96.7213 226.952 97.3068C225.424 97.541 223.896 97.7752 222.839 97.7752ZM229.185 94.3794C229.068 94.3794 228.95 94.3794 228.598 94.4965C228.01 94.7307 227.187 95.082 225.542 95.3162C224.249 95.5504 223.309 95.5503 222.603 95.6674C221.428 95.6674 221.193 95.7845 220.84 96.2529C220.723 96.4871 220.84 96.6042 220.84 96.6042C221.193 97.0726 223.074 97.4239 226.952 96.4871C228.715 96.1358 229.303 95.4333 229.538 94.9649C229.655 94.7307 229.655 94.4965 229.655 94.3794C229.42 94.3794 229.303 94.3794 229.185 94.3794Z" fill="#231F20"/>
<path d="M180.998 10.0703C195.336 10.3045 206.032 22.1312 206.032 33.9579C205.914 46.3701 196.041 58.0797 181.703 58.0797C167.364 57.9626 155.846 47.3068 155.963 33.3724C156.081 20.0235 167.717 9.83611 180.998 10.0703Z" fill="#FF8200"/>
<path d="M181.938 58.4309H181.82C167.011 58.3138 155.493 47.3068 155.611 33.2553C155.611 27.0492 158.197 21.1944 162.663 16.7448C167.481 12.0609 174.181 9.4848 181.115 9.4848C196.277 9.71899 206.737 22.4825 206.619 33.8408C206.502 45.7846 197.099 58.4309 181.938 58.4309ZM180.527 10.5387C174.063 10.5387 167.834 12.9977 163.25 17.4473C158.902 21.6628 156.434 27.2834 156.434 33.2553C156.316 46.7213 167.481 57.3771 181.703 57.4942H181.82C196.394 57.4942 205.444 45.3162 205.444 33.9579C205.444 23.185 195.454 10.89 180.88 10.6558C180.88 10.5387 180.762 10.5387 180.527 10.5387Z" fill="#231F20"/>
<path d="M215.552 42.74C220.605 42.74 223.661 46.8384 223.661 50.5854C223.661 54.2154 221.076 58.0796 215.904 58.0796C210.968 57.9625 207.795 53.9812 207.795 50.2341C207.912 46.4871 211.085 42.8571 215.552 42.74Z" fill="#FF8200"/>
<path d="M216.022 58.6651H215.904C213.554 58.6651 211.32 57.7283 209.675 56.089C208.147 54.4496 207.324 52.3419 207.324 50.3513C207.442 46.6042 210.615 42.5058 215.669 42.3887C218.137 42.3887 220.37 43.3255 222.016 45.0819C223.426 46.6042 224.249 48.7119 224.249 50.8196C224.249 52.9274 223.426 55.0351 221.898 56.5573C220.37 57.8454 218.372 58.6651 216.022 58.6651ZM215.669 43.3255C211.203 43.3255 208.382 46.9555 208.265 50.2342C208.265 52.1077 208.97 53.8641 210.38 55.2693C211.791 56.7915 213.789 57.6112 215.904 57.6112C218.02 57.6112 219.9 57.0257 221.193 55.6206C222.486 54.3325 223.191 52.459 223.191 50.5855C223.191 48.7119 222.486 46.9555 221.193 45.5503C220.253 44.6136 218.49 43.3255 215.669 43.3255Z" fill="#231F20"/>
<path d="M181.585 53.8642C181.233 53.8642 180.998 53.7471 180.762 53.3958C180.527 53.1616 179.235 51.0539 178.059 49.0632L177.472 48.0094C177.237 47.541 177.119 47.0726 177.354 46.8384C177.472 46.7213 177.707 46.4871 178.177 46.4871C178.647 46.4871 180.292 46.4871 181.82 46.4871C183.113 46.4871 184.406 46.4871 184.759 46.4871C185.346 46.4871 185.581 46.8384 185.699 46.9555C185.816 47.1897 185.816 47.6581 185.581 47.8923C185.464 48.0094 185.229 48.5948 184.759 49.2974C183.701 51.171 182.643 53.0445 182.408 53.3958C182.173 53.7471 181.82 53.8642 181.585 53.8642ZM178.059 47.0726C177.942 47.0726 177.942 47.0726 177.942 47.1897C177.942 47.3068 177.942 47.541 178.059 47.7752L178.647 48.7119C179.47 50.1171 181.115 52.8103 181.35 53.0445C181.468 53.1616 181.585 53.2787 181.703 53.2787C181.82 53.2787 181.938 53.1616 181.938 53.0445C182.173 52.6932 183.466 50.4684 184.288 49.0632C184.641 48.3607 184.994 47.8923 185.111 47.6581C185.229 47.541 185.229 47.4239 185.111 47.3068C185.111 47.1897 184.876 47.1897 184.759 47.1897C184.406 47.1897 183.231 47.1897 181.82 47.1897C180.175 47.0726 178.647 47.0726 178.059 47.0726Z" fill="#231F20"/>
<path d="M166.894 37.4707C166.659 37.4707 166.541 37.4707 166.189 37.3536C165.836 37.2365 163.25 35.8314 160.9 34.4262L160.312 34.0749C159.842 33.8407 159.724 33.4894 159.724 33.2552C159.724 32.904 159.96 32.5527 160.43 32.3185C160.782 32.0843 163.015 30.9133 164.426 30.0937L165.719 29.3911C166.071 29.1569 166.659 28.9227 167.011 29.1569C167.481 29.3911 167.364 29.9766 167.364 30.0937C167.364 30.7962 167.364 34.5433 167.481 35.9485V36.4168C167.481 36.7681 167.364 37.1194 167.129 37.2365C167.246 37.4707 167.011 37.4707 166.894 37.4707ZM166.776 29.8595C166.659 29.8595 166.541 29.8595 166.189 30.0937L164.896 30.7962C163.368 31.6159 161.252 32.7869 160.9 33.0211C160.665 33.1381 160.547 33.2552 160.547 33.3723C160.547 33.4894 160.665 33.4894 160.782 33.6065L161.37 33.9578C162.663 34.6604 166.189 36.651 166.541 36.8852C166.894 37.0023 167.011 37.0023 167.011 37.0023C167.011 37.0023 167.011 36.8852 167.011 36.7681V36.2997C167.011 34.8946 166.894 31.1475 166.894 30.4449H167.246H166.894C166.894 29.9766 166.894 29.8595 166.776 29.8595Z" fill="#231F20"/>
<path d="M195.806 37.4707C195.689 37.4707 195.454 37.4707 195.336 37.3536C195.101 37.2365 194.866 37.0023 194.866 36.4169C194.866 36.0656 194.866 35.2459 194.866 34.3091C194.866 32.7869 194.749 30.9133 194.866 30.3279C194.866 29.8595 194.984 29.5082 195.336 29.274C195.689 29.0398 196.159 29.1569 196.864 29.5082C197.452 29.8595 200.86 31.8501 201.8 32.4356L202.036 32.5527C202.388 32.7869 202.623 33.0211 202.623 33.3724C202.623 33.6066 202.506 33.9578 201.918 34.3091C201.213 34.7775 197.099 37.1194 196.629 37.3536C196.277 37.4707 196.041 37.4707 195.806 37.4707ZM195.454 30.3279C195.454 31.0304 195.454 32.7869 195.454 34.3091C195.454 35.2459 195.454 36.0656 195.454 36.4169C195.454 36.534 195.454 36.7681 195.571 36.7681C195.689 36.8852 195.806 36.7681 196.041 36.651C196.512 36.4169 200.625 34.0749 201.33 33.6066C201.565 33.4895 201.683 33.2553 201.683 33.2553C201.683 33.1382 201.565 33.1382 201.448 33.0211L201.213 32.904C200.273 32.3185 196.864 30.445 196.277 30.0937C195.806 29.8595 195.454 29.7424 195.454 29.8595C195.454 29.8595 195.454 30.0937 195.454 30.3279Z" fill="#231F20"/>
<path d="M184.288 20.4918C183.936 20.4918 179.587 20.4918 178.177 20.4918H177.589C177.119 20.4918 176.766 20.3747 176.649 20.0234C176.531 19.9063 176.414 19.5551 176.649 18.9696C176.766 18.6183 177.472 17.5644 178.177 16.3935C178.882 15.3396 179.47 14.2857 179.705 13.8174C180.057 13.349 180.292 12.9977 180.645 12.9977C180.998 12.9977 181.233 13.1148 181.468 13.5832C181.585 13.8174 182.29 14.8712 182.996 16.0422C183.818 17.3302 184.641 18.7354 184.876 18.9696C185.111 19.3209 185.111 19.6722 184.994 20.0234C184.994 20.2576 184.641 20.4918 184.288 20.4918ZM177.589 19.7892H178.177C180.88 19.7892 184.053 19.7892 184.288 19.7892C184.406 19.7892 184.523 19.7892 184.523 19.6722C184.641 19.5551 184.523 19.438 184.406 19.3209C184.171 18.9696 183.348 17.6815 182.525 16.2764C181.82 15.1054 181.115 14.0515 180.998 13.8174C180.88 13.5832 180.762 13.5832 180.762 13.5832C180.762 13.5832 180.527 13.7003 180.292 14.0515C180.057 14.5199 179.352 15.5738 178.764 16.6277C178.059 17.7986 177.354 18.8525 177.237 19.2038C177.119 19.3209 177.119 19.438 177.119 19.5551C177.354 19.7893 177.472 19.7892 177.589 19.7892Z" fill="#231F20"/>
<path d="M217.902 54.0984H213.436V52.3419H217.667C218.372 52.3419 218.842 51.4052 218.842 50.8197C218.842 50.5855 218.725 50.1171 218.607 49.7658C218.372 49.4145 218.137 49.1803 217.785 49.1803H214.024V50.3513L210.85 48.2436L214.024 46.0187V47.3068H217.667C218.49 47.3068 219.313 47.7752 220.018 48.4778C220.605 49.1803 220.84 50 220.84 50.7026C220.84 51.6393 220.605 52.459 220.018 53.0445C219.43 53.7471 218.725 54.0984 217.902 54.0984ZM214.141 53.3958H217.902C218.49 53.3958 219.078 53.1616 219.548 52.5761C220.018 52.1077 220.253 51.4052 220.253 50.5855C220.253 50 220.018 49.2974 219.548 48.7119C219.078 48.1265 218.49 47.7752 217.785 47.7752H213.554V47.0726L212.261 48.0094L213.554 48.829V48.2436H217.902C218.49 48.2436 219.078 48.5949 219.313 49.1803C219.665 49.7658 219.665 50.3513 219.665 50.5855C219.665 51.5223 218.96 52.6932 217.902 52.6932H214.259L214.141 53.3958Z" fill="#231F20"/>
<path d="M156.669 56.089C157.491 56.089 158.197 56.9087 158.197 57.6112C158.197 58.1967 157.726 59.0164 156.786 58.8993C155.846 58.7822 155.141 58.3138 155.141 57.4941C155.141 56.7916 155.728 56.089 156.669 56.089Z" fill="#4F4A54"/>
<path d="M156.786 59.2506C155.728 59.2506 154.788 58.548 154.906 57.6112C154.906 56.6745 155.728 55.8548 156.669 55.8548C157.726 55.8548 158.432 56.7916 158.432 57.7283C158.432 58.4309 157.844 59.2506 156.786 59.2506ZM156.669 56.4403C156.081 56.4403 155.493 56.9087 155.493 57.6112C155.493 58.1967 156.081 58.6651 156.786 58.6651C157.491 58.6651 157.844 58.0796 157.844 57.6112C157.726 57.1429 157.256 56.4403 156.669 56.4403Z" fill="#231F20"/>
<path d="M181.468 42.0375C178.882 42.0375 176.414 40.9836 174.768 39.3443C173.24 37.822 172.418 35.7143 172.535 33.3724C172.653 27.7518 177.707 25.1757 181.233 25.1757C183.466 25.1757 185.581 26.1124 187.227 27.7518C188.872 29.3911 189.812 31.4988 189.695 33.7237C189.695 35.9485 188.872 38.0562 187.344 39.5785C185.934 41.1007 183.818 42.0375 181.468 42.0375ZM181.233 26.1124C178.059 26.1124 173.593 28.3373 173.593 33.3724C173.593 35.363 174.298 37.2366 175.591 38.5246C177.119 40.0469 179.352 40.9836 181.585 40.9836C183.583 40.9836 185.464 40.281 186.757 38.8759C188.049 37.4707 188.872 35.7143 188.872 33.7237C188.872 31.733 188.049 29.8595 186.639 28.4543C185.111 26.9321 183.113 26.2295 181.233 26.1124Z" fill="#231F20"/>
<path d="M142.918 60.3045H63.5842C60.4109 60.3045 57.7076 57.7284 57.7076 54.4497V13.7003C57.7076 10.5387 60.2933 7.84546 63.5842 7.84546H142.918C146.091 7.84546 148.794 10.4216 148.794 13.7003V54.4497C148.794 57.7284 146.208 60.3045 142.918 60.3045Z" fill="#4F4A54"/>
<path d="M142.918 60.8899H63.5842C60.0583 60.8899 57.12 58.0796 57.12 54.4496V13.7002C57.12 10.1873 59.9407 7.25995 63.5842 7.25995H142.918C146.443 7.25995 149.382 10.1873 149.382 13.7002V54.4496C149.382 58.0796 146.443 60.8899 142.918 60.8899ZM63.5842 8.54801C60.6459 8.54801 58.2953 10.8899 58.2953 13.8173V54.5667C58.2953 57.4941 60.6459 59.8361 63.5842 59.8361H142.918C145.856 59.8361 148.206 57.4941 148.206 54.5667V13.7002C148.206 10.7728 145.856 8.43091 142.918 8.43091H63.5842V8.54801Z" fill="#231F20"/>
<path d="M142.682 57.4942H64.0543C62.1738 57.4942 60.6459 55.9719 60.6459 54.0984V13.9345C60.6459 12.0609 62.1738 10.5387 64.0543 10.5387H142.565C144.445 10.5387 145.973 12.0609 145.973 13.9345V54.0984C146.091 55.9719 144.563 57.4942 142.682 57.4942Z" fill="#FF8200"/>
<path d="M142.682 57.8455H64.0543C61.9388 57.8455 60.2933 56.2061 60.2933 54.0984V13.9345C60.2933 11.8267 61.9388 10.1874 64.0543 10.1874H142.565C144.68 10.1874 146.326 11.8267 146.326 13.9345V54.0984C146.326 56.2061 144.68 57.8455 142.682 57.8455ZM64.0543 10.89C62.4089 10.89 60.9985 12.2951 60.9985 13.9345V54.0984C60.9985 55.7377 62.4089 57.1429 64.0543 57.1429H142.565C144.21 57.1429 145.621 55.7377 145.621 54.0984V13.9345C145.621 12.2951 144.21 10.89 142.565 10.89H64.0543Z" fill="#231F20"/>
<path d="M101.899 41.9203H101.194H100.606H99.9012V42.6229H100.606H101.194H101.899H102.487H103.192V41.9203H102.487H101.899Z" fill="black"/>
<path d="M82.2716 41.9203H81.6839V42.5058H82.2716H82.9768V41.9203H82.2716Z" fill="black"/>
<path d="M69.3144 41.537L69.3108 42.2396L70.016 42.2432L70.0196 41.5407L69.3144 41.537Z" fill="black"/>
<path d="M67.9217 41.7222L67.9181 42.4248L68.6233 42.4284L68.6269 41.7258L67.9217 41.7222Z" fill="black"/>
<path d="M66.6429 41.7903L66.6393 42.4929L67.3445 42.4965L67.3481 41.7939L66.6429 41.7903Z" fill="black"/>
<path d="M104.485 41.3349H103.78V40.6323H103.192H102.487V41.3349H103.192V41.9204H103.78L104.485 42.0375H105.19H105.778V41.3349H105.19H104.485Z" fill="black"/>
<path d="M81.0157 41.2771L81.0121 41.9797L81.7173 41.9833L81.7209 41.2807L81.0157 41.2771Z" fill="black"/>
<path d="M69.8612 41.0427L69.8576 41.7453L70.5628 41.7489L70.5664 41.0463L69.8612 41.0427Z" fill="black"/>
<path d="M68.5836 40.9943L68.58 41.6968L69.2852 41.7004L69.2888 40.9979L68.5836 40.9943Z" fill="black"/>
<path d="M67.3061 41.0624L67.3025 41.765L68.0077 41.7686L68.0113 41.066L67.3061 41.0624Z" fill="black"/>
<path d="M66.0286 40.8969L66.025 41.5994L66.7302 41.603L66.7338 40.9005L66.0286 40.8969Z" fill="black"/>
<path d="M106.483 40.7494L105.778 40.6323V41.3349H106.483H107.071H107.776V40.7494H107.071H106.483Z" fill="black"/>
<path d="M70.524 40.3123L70.5204 41.0149L71.2255 41.0185L71.2292 40.3159L70.524 40.3123Z" fill="black"/>
<path d="M69.2464 40.2629L69.2428 40.9655L69.9479 40.9691L69.9516 40.2665L69.2464 40.2629Z" fill="black"/>
<path d="M68.0855 40.3321L68.0818 41.0347L68.787 41.0383L68.7907 40.3357L68.0855 40.3321Z" fill="black"/>
<path d="M66.693 40.4001L66.6894 41.1027L67.3946 41.1063L67.3982 40.4038L66.693 40.4001Z" fill="black"/>
<path d="M65.4152 40.351L65.4116 41.0535L66.1167 41.0571L66.1204 40.3546L65.4152 40.351Z" fill="black"/>
<path d="M107.776 40.0468V40.7494H108.363H109.069V40.0468H108.363H107.776Z" fill="black"/>
<path d="M101.899 40.6323H102.487V40.0468H101.899H101.194V40.6323H101.899Z" fill="black"/>
<path d="M69.9103 39.7697L69.9066 40.4723L70.6118 40.4759L70.6155 39.7733L69.9103 39.7697Z" fill="black"/>
<path d="M68.7495 39.721L68.7459 40.4236L69.4511 40.4272L69.4547 39.7246L68.7495 39.721Z" fill="black"/>
<path d="M67.3539 39.7888L67.3502 40.4914L68.0554 40.495L68.059 39.7924L67.3539 39.7888Z" fill="black"/>
<path d="M65.9596 39.7402L65.956 40.4428L66.6612 40.4464L66.6648 39.7438L65.9596 39.7402Z" fill="black"/>
<path d="M64.6819 39.6907L64.6783 40.3932L65.3835 40.3969L65.3871 39.6943L64.6819 39.6907Z" fill="black"/>
<path d="M69.412 39.1076L69.4084 39.8102L70.1135 39.8138L70.1172 39.1112L69.412 39.1076Z" fill="black"/>
<path d="M68.1337 39.0582L68.1301 39.7607L68.8352 39.7643L68.8389 39.0618L68.1337 39.0582Z" fill="black"/>
<path d="M66.8581 39.1273L66.8544 39.8298L67.5596 39.8334L67.5632 39.1309L66.8581 39.1273Z" fill="black"/>
<path d="M65.4635 39.1951L65.4599 39.8976L66.165 39.9013L66.1687 39.1987L65.4635 39.1951Z" fill="black"/>
<path d="M110.361 38.7588H109.656H109.069H108.363H107.776H107.071H106.483H105.778H105.19H104.485H103.897H103.192H102.487H101.899H101.194H100.606H99.9012H99.3136V38.0562H99.9012V37.3536L100.606 37.4707V36.7681H101.194L101.312 36.0656H101.899V35.4801H102.604V34.7775H103.192V34.192H103.897V33.4895H104.485V32.904H105.19V32.2014H105.895V31.6159H106.483V30.9133H107.188V30.3279H107.776V29.6253H108.481V29.0398H109.069V28.3372H109.774V27.7517V27.0492V26.4637V25.7611H109.186V25.1756H108.481L107.776 25.0585H107.188V24.4731H106.483H105.895H105.19H104.602H103.897H103.31H102.604H102.017H101.312V25.0585H100.606H100.019V25.7611H99.3136H98.7259V26.3466H98.0207H97.4331V25.7611H96.7279V25.0585V24.356H96.1403V23.7705V23.0679H95.4351V22.4824H94.8474V21.7798H94.1422V21.1944H93.5546V20.4918H92.8494H92.2617V19.7892H91.5565H90.9689V19.2037H90.2637H89.5585H88.9709V18.5012H88.2657H87.678H86.9728H86.3852H85.68V17.9157L85.0923 17.7986H84.3872H83.7995H83.0943H82.5067H81.8015H81.0963H80.5086H79.8035H79.2158H78.5106H77.923H77.2178H76.6301H75.9249V18.5012H75.2198H74.6321H73.9269H73.3393V19.0866H72.6341H72.0464H71.3412V19.7892H70.7536V20.3747H70.0484H69.4607L69.3432 21.0773H68.7556L68.0504 20.9602V21.6628H67.4627V22.3653H66.7575V22.9508H66.1699V23.6534H65.4647V24.2389H64.877L64.7595 24.9414V25.5269H64.1719V26.2295V26.815H63.4667V27.5176V28.103H62.879V28.8056V29.3911V30.0937H63.4667V29.3911V28.8056H64.1719V28.103V27.5176H64.7595V26.815V26.2295H65.4647V25.5269V24.9414H66.1699V24.2389H66.7575V23.6534H67.4627V22.9508H68.0504V22.3653H68.7556V21.6628H69.3432H70.0484V21.0773H70.7536H71.3412V20.3747H72.0464H72.6341H73.3393H73.9269H74.6321H75.2198H75.9249H76.5126H77.2178H77.923H78.5106H79.2158V19.7892H78.5106H77.923H77.2178H76.6301H75.9249H75.2198H74.6321H73.9269V19.0866H74.6321H75.2198H75.9249H76.6301V18.5012H77.2178H77.923H78.5106H79.2158H79.8035H80.5086H81.0963H81.8015H82.3891H83.0943H83.7995H84.3872H85.0923V19.2037H85.68V19.7892H86.3852V19.2037H86.9728V19.7892H87.678H88.2657H88.9709H89.5585H90.2637V20.4918V21.0773H90.8514L91.5565 21.1944H92.2617H92.8494V21.7798H93.5546V22.4824H94.1422V23.0679H94.8474V23.7705H95.4351V24.356V25.0585V25.644H94.8474L94.7299 26.3466H95.4351H96.1403H96.7279V27.0492V27.6347H97.4331H98.0207V27.0492H98.7259H99.3136V26.3466H100.019H100.606V25.7611H101.312H102.017V25.0585H102.604H103.31H103.897H104.602H105.19H105.895H106.483V25.7611H107.188H107.776H108.481V26.4637H109.069V27.0492H108.481H107.776H107.188H106.483V27.7517H105.895H105.19H104.602V28.3372H103.897H103.192V29.0398H102.604L101.899 28.9227V29.6253H101.312V30.3279H100.606V30.9133H100.019V31.6159H99.3136V32.2014H98.7259L98.6084 32.904H98.0207V33.4895H97.3156V34.192H96.7279V34.7775H96.0227V35.4801H95.4351V36.0656H94.7299V36.7681H94.0247V37.3536H93.437V38.0562H92.7319V38.6417H92.1442V39.3442H91.439V39.9297H90.8514V40.6323H90.1462H89.5585L89.441 41.2178H88.8533H88.1481V41.9204H87.5605H86.8553H86.2677V42.5058H85.5625H84.9748H84.2696H83.682H82.9768V43.2084H83.5644H84.2696H84.9748H85.5625H86.2677H86.8553H87.5605H88.1481H88.8533H89.441H90.1462H90.7338H91.439H92.1442H92.7319H93.437H94.0247H94.7299H95.3175H96.0227H96.6104H97.3156H97.9032H98.6084H99.3136H99.9012V42.6229H99.3136H98.6084H98.0207H97.3156H96.6104H96.0227H95.3175H94.7299H94.0247H93.437H92.7319H92.1442V41.9204V41.2178H92.7319V40.6323H93.437V39.9297H94.0247V39.3442H94.7299H95.3175H96.0227H96.7279H97.3156H98.0207H98.6084V40.0468H99.3136H99.9012H100.606H101.194V39.3442H101.899H102.487H103.192H103.897H104.485H105.19H105.778H106.483H107.071H107.776H108.363L109.069 39.4613V40.0468H109.656H110.361V40.7494V41.3349V42.0375H109.656V42.6229H109.069V43.3255H108.363V43.911H107.776V44.6136H107.071H106.483L106.365 45.199H105.778H105.073H104.485V45.9016H103.78H103.192H102.487V46.4871H101.899H101.194H100.606L100.489 47.1897H99.9012H99.196H98.6084H97.9032V47.7752H97.3156H96.6104H96.0227H95.3175V48.4777H94.7299H94.0247L93.3195 48.3606V49.0632H92.7319V49.7658H93.3195H94.0247H94.6123H95.3175H96.0227H96.6104H97.3156V49.0632H97.9032H98.6084V48.4777V47.7752H99.196H99.9012H100.489H101.194V47.1897H101.899H102.487H103.192V46.4871H103.78H104.485H105.073V45.9016H105.778H106.365H107.071V45.199H107.776H108.363V44.6136H109.069V43.911H109.656V43.3255H110.361V42.6229H110.949V42.0375V41.3349V40.7494L111.067 40.0468V39.4613H110.361V38.7588Z" fill="black"/>
<path d="M68.6807 38.5643L68.6771 39.2669L69.3823 39.2705L69.3859 38.5679L68.6807 38.5643Z" fill="black"/>
<path d="M67.4028 38.515L67.3991 39.2176L68.1043 39.2212L68.108 38.5186L67.4028 38.515Z" fill="black"/>
<path d="M66.0085 38.4662L66.0049 39.1688L66.7101 39.1724L66.7137 38.4699L66.0085 38.4662Z" fill="black"/>
<path d="M64.7312 38.5367L64.7275 39.2393L65.4327 39.2429L65.4363 38.5403L64.7312 38.5367Z" fill="black"/>
<path d="M68.0649 37.9016L68.0613 38.6041L68.7665 38.6077L68.7701 37.9052L68.0649 37.9016Z" fill="black"/>
<path d="M66.9052 37.7366L66.9016 38.4391L67.6068 38.4428L67.6104 37.7402L66.9052 37.7366Z" fill="black"/>
<path d="M65.5127 37.9219L65.5091 38.6245L66.2143 38.6281L66.2179 37.9255L65.5127 37.9219Z" fill="black"/>
<path d="M71.1697 37.2719L71.166 37.9744L71.8712 37.978L71.8748 37.2755L71.1697 37.2719Z" fill="black"/>
<path d="M68.638 37.2365V37.9391H69.3432V38.5246H69.9309V39.2272H70.6361V39.8127H71.2237V40.5152H71.9289V41.2178H72.5165V40.5152V39.8127V39.2272H73.2217V38.5246V37.9391H72.5165H71.9289V38.5246V39.2272H71.2237V38.5246H70.6361V37.9391H69.9309V37.2365V36.6511H69.3432V37.2365H68.638Z" fill="black"/>
<path d="M67.4522 37.2424L67.4486 37.945L68.1538 37.9486L68.1574 37.246L67.4522 37.2424Z" fill="black"/>
<path d="M66.1742 37.1933L66.1705 37.8959L66.8757 37.8995L66.8793 37.1969L66.1742 37.1933Z" fill="black"/>
<path d="M64.6632 37.1465L64.6596 37.8491L65.3648 37.8527L65.3684 37.1502L64.6632 37.1465Z" fill="black"/>
<path d="M68.1145 36.6284L68.1109 37.3309L68.8161 37.3345L68.8197 36.632L68.1145 36.6284Z" fill="black"/>
<path d="M66.8371 36.4625L66.8335 37.1651L67.5387 37.1687L67.5423 36.4661L66.8371 36.4625Z" fill="black"/>
<path d="M65.4409 36.4171L65.4373 37.1196L66.1425 37.1232L66.1461 36.4207L65.4409 36.4171Z" fill="black"/>
<path d="M71.2237 35.9485H70.636V36.6511V37.2365H71.2237V36.6511V35.9485Z" fill="black"/>
<path d="M67.3842 35.9686L67.3806 36.6712L68.0857 36.6748L68.0894 35.9722L67.3842 35.9686Z" fill="black"/>
<path d="M66.1062 35.8035L66.1026 36.5061L66.8078 36.5097L66.8114 35.8071L66.1062 35.8035Z" fill="black"/>
<path d="M80.3911 35.363V34.6604V33.9578V33.2553V32.5527V31.8501H79.6859V31.1475V30.4449H78.9807V29.7424H78.2756H77.5704V29.0398H76.8652H76.16H75.4548H74.7496H74.0444V29.7424H73.3393H72.6341V30.4449H71.9289V31.1475V31.8501H71.2237V32.5527V33.2553V33.9578V34.6604V35.363H71.9289V36.0656V36.7681H72.6341V37.4707V38.1733H73.3393V37.4707H74.0444H74.7496V36.7681H75.4548H76.16H76.8652V36.0656H77.5704H78.2756H78.9807H79.6859H80.3911H81.0963V35.363H80.3911ZM74.5146 32.7869V32.0843H75.2198H75.9249V32.7869V33.4894H75.2198H74.5146V32.7869Z" fill="black"/>
<path d="M66.6509 35.1925L66.6473 35.8951L67.3525 35.8987L67.3561 35.1961L66.6509 35.1925Z" fill="black"/>
<path d="M83.682 34.7775V34.075V33.4895V32.7869V32.0843V31.4988V30.7963H82.9768V31.4988V32.0843V32.7869V33.3724V34.075V34.7775V35.363H83.682H84.2696H84.9748V34.7775H84.2696H83.682Z" fill="black"/>
<path d="M70.636 34.6604V33.9578V33.3723V32.6698V32.0843V31.3817H70.0484V32.0843V32.6698L69.9309 33.3723V33.9578V34.6604V35.363V35.9485H70.636V35.363V34.6604Z" fill="black"/>
<path d="M84.9748 34.075V34.7775H85.5625H86.2677V34.075H85.68H84.9748Z" fill="black"/>
<path d="M86.2677 33.4894V34.0749H86.9728H87.5605V33.4894H86.9728H86.2677Z" fill="black"/>
<path d="M87.5605 32.7869V33.4894H88.2657H88.8533V32.7869H88.2657H87.5605Z" fill="black"/>
<path d="M88.8533 32.2014V32.7869H89.5585H90.1462V32.2014H89.5585H88.8533Z" fill="black"/>
<path d="M81.684 32.7869V33.3724V34.075V34.7775V35.363V36.0656H81.0963V36.6511H81.684H82.3891V36.0656V35.363V34.7775V34.075V33.3724V32.7869V32.0843V31.4988H81.684V32.0843V32.7869Z" fill="black"/>
<path d="M90.1478 31.5444L90.1442 32.2469L90.8494 32.2506L90.853 31.548L90.1478 31.5444Z" fill="black"/>
<path d="M90.8514 30.9133V31.4988H91.5565H92.1442V30.9133H91.5565H90.8514Z" fill="black"/>
<path d="M81.0963 31.4988H81.684V30.7962V30.2108H81.0963V30.7962V31.4988Z" fill="black"/>
<path d="M71.3412 30.7963V30.0937H70.636V30.7963V31.3817H71.3412V30.7963Z" fill="black"/>
<path d="M68.638 31.3817V32.0843V32.6698V33.3724V33.9579V34.6604V35.2459H68.0504V35.9485H68.638V36.6511H69.3432V35.9485V35.363V34.6604V33.9579V33.3724V32.6698V32.0843V31.3817V30.7963H68.7556L68.638 31.3817Z" fill="black"/>
<path d="M92.1689 30.2855L92.1653 30.9881L92.8705 30.9917L92.8741 30.2891L92.1689 30.2855Z" fill="black"/>
<path d="M92.8494 29.6253V30.2108H93.437H94.1422V29.6253H93.437H92.8494Z" fill="black"/>
<path d="M88.2657 29.5082H87.5605H86.9728V30.2108H87.5605H88.2657H88.8533H89.5585V29.6253L88.8533 29.5082H88.2657Z" fill="black"/>
<path d="M83.0943 29.5082H82.3891V30.2108V30.7962H82.9768L83.0943 30.2108V29.5082Z" fill="black"/>
<path d="M80.2869 29.5044L80.2833 30.207L80.9885 30.2106L80.9921 29.508L80.2869 29.5044Z" fill="black"/>
<path d="M71.3416 29.399L71.338 30.1016L72.0432 30.1052L72.0468 29.4027L71.3416 29.399Z" fill="black"/>
<path d="M69.3432 30.0937V30.7962H70.0484V30.0937V29.5082H69.3432V30.0937Z" fill="black"/>
<path d="M94.0752 28.7921L94.0715 29.4946L94.7767 29.4982L94.7804 28.7957L94.0752 28.7921Z" fill="black"/>
<path d="M89.5585 28.9227V29.6253H90.2637H90.8514V28.9227H90.2637H89.5585Z" fill="black"/>
<path d="M86.4121 28.8521L86.4084 29.5547L87.1136 29.5583L87.1172 28.8557L86.4121 28.8521Z" fill="black"/>
<path d="M81.7638 28.8574L81.7602 29.5599L82.4653 29.5635L82.469 28.861L81.7638 28.8574Z" fill="black"/>
<path d="M79.9056 28.8429L79.902 29.5455L80.6072 29.5491L80.6108 28.8465L79.9056 28.8429Z" fill="black"/>
<path d="M71.8891 28.7876L71.8854 29.4902L72.5906 29.4938L72.5942 28.7912L71.8891 28.7876Z" fill="black"/>
<path d="M69.9112 28.7737L69.9076 29.4763L70.6128 29.4799L70.6164 28.7774L69.9112 28.7737Z" fill="black"/>
<path d="M94.7299 28.3372V28.9227H95.4351H96.0227L96.1402 28.3372H95.4351H94.7299Z" fill="black"/>
<path d="M90.8514 28.2202V28.9227H91.5565H92.1442V28.3373L91.5565 28.2202H90.8514Z" fill="black"/>
<path d="M85.6773 28.0759L85.6736 28.7785L86.3788 28.7821L86.3825 28.0795L85.6773 28.0759Z" fill="black"/>
<path d="M81.1481 28.1978L81.1445 28.9004L81.8496 28.904L81.8533 28.2014L81.1481 28.1978Z" fill="black"/>
<path d="M79.0983 28.9227H79.8035V28.2202H79.0983H78.5106V28.8056L79.0983 28.9227Z" fill="black"/>
<path d="M73.9269 28.8056V28.2202H73.2217H72.6341V28.8056H73.2217H73.9269Z" fill="black"/>
<path d="M70.6937 28.1607L70.6901 28.8633L71.3953 28.8669L71.3989 28.1643L70.6937 28.1607Z" fill="black"/>
<path d="M96.0986 27.534L96.095 28.2366L96.8002 28.2402L96.8038 27.5376L96.0986 27.534Z" fill="black"/>
<path d="M92.1503 27.738L92.1467 28.4406L92.8519 28.4442L92.8555 27.7416L92.1503 27.738Z" fill="black"/>
<path d="M75.2198 28.2202H75.9249H76.5126H77.2178H77.8054H78.5106V27.5176H77.8054H77.2178H76.5126H75.9249H75.2198H74.6321H73.9269V28.2202H74.6321H75.2198Z" fill="black"/>
<path d="M71.2391 27.4327L71.2355 28.1353L71.9407 28.1389L71.9443 27.4363L71.2391 27.4327Z" fill="black"/>
<path d="M92.8494 26.9321V27.6346H93.437H94.1422V27.0492L93.437 26.9321H92.8494Z" fill="black"/>
<path d="M89.677 26.8326L89.6734 27.5352L90.3786 27.5388L90.3822 26.8363L89.677 26.8326Z" fill="black"/>
<path d="M85.68 26.9321V26.3466H84.9748V26.9321V27.6347V28.2202H85.68V27.6347V26.9321Z" fill="black"/>
<path d="M81.8015 27.6347V26.9321V26.2295H81.0963V26.9321H80.3911L80.5086 26.2295H79.8035V25.644H79.0983V26.2295H78.5106H77.8054H77.2178H76.5126H75.9249H75.2198H74.6321H73.9269H73.3393L73.2217 26.9321H73.9269H74.6321H75.2198H75.9249H76.5126H77.2178H77.8054H78.5106H79.0983V27.5176H79.8035H80.3911V28.2202H81.0963V27.5176L81.8015 27.6347Z" fill="black"/>
<path d="M71.9289 26.9321V27.5175H72.6341H73.2217V26.9321H72.6341H71.9289Z" fill="black"/>
<path d="M94.0562 26.3643L94.0526 27.0669L94.7578 27.0705L94.7614 26.3679L94.0562 26.3643Z" fill="black"/>
<path d="M89.0612 26.1694L89.0576 26.872L89.7628 26.8756L89.7664 26.173L89.0612 26.1694Z" fill="black"/>
<path d="M91.5836 25.5725L91.58 26.2751L92.2852 26.2787L92.2888 25.5761L91.5836 25.5725Z" fill="black"/>
<path d="M88.3302 25.6264L88.3266 26.329L89.0318 26.3326L89.0354 25.63L88.3302 25.6264Z" fill="black"/>
<path d="M86.2677 25.644V25.0585H85.68V25.644V26.3466H86.2677V25.644Z" fill="black"/>
<path d="M80.5465 25.4525L80.5428 26.1551L81.248 26.1587L81.2517 25.4561L80.5465 25.4525Z" fill="black"/>
<path d="M90.969 24.911L90.9654 25.6135L91.6705 25.6171L91.6742 24.9146L90.969 24.911Z" fill="black"/>
<path d="M79.8153 24.9089L79.8117 25.6115L80.5169 25.6151L80.5205 24.9125L79.8153 24.9089Z" fill="black"/>
<path d="M93.375 24.4318L93.3714 25.1344L94.0766 25.138L94.0802 24.4354L93.375 24.4318Z" fill="black"/>
<path d="M90.1195 24.2519L90.1159 24.9545L90.821 24.9581L90.8247 24.2556L90.1195 24.2519Z" fill="black"/>
<path d="M86.2894 24.4555L86.2858 25.1581L86.991 25.1617L86.9946 24.4591L86.2894 24.4555Z" fill="black"/>
<path d="M80.5951 24.1793L80.5915 24.8818L81.2967 24.8854L81.3003 24.1829L80.5951 24.1793Z" fill="black"/>
<path d="M92.7594 23.6526L92.7558 24.3552L93.461 24.3588L93.4646 23.6562L92.7594 23.6526Z" fill="black"/>
<path d="M89.506 23.7063L89.5024 24.4089L90.2076 24.4125L90.2112 23.7099L89.506 23.7063Z" fill="black"/>
<path d="M86.95 23.6111L86.9463 24.3137L87.6515 24.3173L87.6551 23.6148L86.95 23.6111Z" fill="black"/>
<path d="M82.3891 24.356H81.8015V24.9414H81.0963V25.644H81.8015V26.2295H82.3891V25.644V24.9414H83.0943V24.356V23.6534H82.3891V24.356Z" fill="black"/>
<path d="M81.142 23.6854L81.1383 24.3879L81.8435 24.3915L81.8471 23.689L81.142 23.6854Z" fill="black"/>
<path d="M79.864 23.6362L79.8604 24.3387L80.5656 24.3424L80.5692 23.6398L79.864 23.6362Z" fill="black"/>
<path d="M92.1455 23.1097L92.1419 23.8123L92.8471 23.8159L92.8507 23.1133L92.1455 23.1097Z" fill="black"/>
<path d="M87.6119 22.8821L87.6082 23.5847L88.3134 23.5883L88.317 22.8857L87.6119 22.8821Z" fill="black"/>
<path d="M83.0837 22.8868L83.0801 23.5894L83.7853 23.593L83.7889 22.8904L83.0837 22.8868Z" fill="black"/>
<path d="M81.8048 22.955L81.8012 23.6575L82.5064 23.6611L82.51 22.9586L81.8048 22.955Z" fill="black"/>
<path d="M80.526 23.0224L80.5224 23.725L81.2276 23.7286L81.2312 23.026L80.526 23.0224Z" fill="black"/>
<path d="M91.5295 22.4467L91.5258 23.1492L92.231 23.1528L92.2346 22.4503L91.5295 22.4467Z" fill="black"/>
<path d="M88.1594 22.2708L88.1558 22.9733L88.8609 22.9769L88.8646 22.2744L88.1594 22.2708Z" fill="black"/>
<path d="M82.3529 22.3438L82.3493 23.0463L83.0545 23.0499L83.0581 22.3474L82.3529 22.3438Z" fill="black"/>
<path d="M81.0739 22.4114L81.0703 23.114L81.7755 23.1176L81.7791 22.415L81.0739 22.4114Z" fill="black"/>
<path d="M88.9392 21.6573L88.9356 22.3599L89.6408 22.3635L89.6444 21.6609L88.9392 21.6573Z" fill="black"/>
<path d="M82.3891 21.7798H83.0943V21.0773H82.3891H81.8015H81.0963V21.7798H81.8015V22.3653H82.3891V21.7798Z" fill="black"/>
<path d="M89.4869 21.0465L89.4832 21.7491L90.1884 21.7527L90.192 21.0501L89.4869 21.0465Z" fill="black"/>
<path d="M85.0717 21.0507L85.0681 21.7533L85.7732 21.7569L85.7769 21.0543L85.0717 21.0507Z" fill="black"/>
<path d="M84.3872 21.0773H83.682V21.7798H83.0943V22.3653H83.682V23.0679H84.3872V22.3653H84.9748L85.0923 21.7798H84.3872V21.0773Z" fill="black"/>
<path d="M85.7369 20.4372L85.7333 21.1398L86.4384 21.1434L86.4421 20.4408L85.7369 20.4372Z" fill="black"/>
<path d="M84.4585 20.3888L84.4549 21.0914L85.1601 21.095L85.1637 20.3924L84.4585 20.3888Z" fill="black"/>
<path d="M80.5086 20.3747H79.8035H79.2158V21.0773H79.8035H80.5086H81.0963V20.4918L80.5086 20.3747Z" fill="black"/>
<path d="M86.2811 19.8263L86.2775 20.5289L86.9827 20.5325L86.9863 19.8299L86.2811 19.8263Z" fill="black"/>
<path d="M85.0035 19.777L84.9999 20.4796L85.7051 20.4832L85.7087 19.7806L85.0035 19.777Z" fill="black"/>
<path d="M126.111 36.1827V36.8853H126.698H127.403V36.1827H126.698H126.111Z" fill="black"/>
<path d="M127.436 35.5222L127.432 36.2248L128.138 36.2284L128.141 35.5258L127.436 35.5222Z" fill="black"/>
<path d="M137.276 34.3091V33.6066H136.688V33.0211V32.3185H135.983V31.6159V31.0305H135.396H134.69V31.6159V32.3185V33.0211H135.278V33.6066V34.3091H135.983V35.0117V35.5972H136.688V36.2998V36.8853H137.276H137.981V36.2998V35.5972V35.0117H137.276V34.3091Z" fill="black"/>
<path d="M127.403 34.3091V33.6066H126.698V34.3091V34.8946H127.403V34.3091Z" fill="black"/>
<path d="M126.111 34.3091V33.6066H125.405V34.192V34.8946H126.111V34.3091Z" fill="black"/>
<path d="M128.109 34.3091V34.8946V35.5972H128.696V34.8946V34.3091V33.6066H128.109V34.3091Z" fill="black"/>
<path d="M143.27 33.0211H142.565H141.977H141.272H140.567H139.979V33.6066V34.3092H140.567H141.272H141.977H142.565H143.27H143.858V33.7237V33.0211H143.27Z" fill="black"/>
<path d="M121.527 33.6065V32.904V32.2014V31.6159V30.9133H120.822H120.117V31.6159V32.2014V32.904V33.6065H120.822H121.527Z" fill="black"/>
<path d="M132.105 31.0305L131.987 31.6159V32.3185H131.4V33.0211V33.6066H130.694V34.3091V34.8946H130.107L129.989 35.5972V36.2998V36.8853H130.694H131.4V36.2998V35.5972H131.987V34.8946V34.3091H132.692V33.6066V33.0211H133.398V32.3185V31.6159V31.0305H132.692H132.105Z" fill="black"/>
<path d="M122.82 30.9133V31.6159V32.3185V32.904V33.6065V34.192H122.115V34.8946H121.527L121.409 35.5972H120.822L120.117 35.4801V36.1827V36.8852H120.822H121.409H122.115V36.1827H122.82V35.5972H123.407V34.8946H124.113V34.192V33.6065V32.904V32.3185V31.6159V30.9133H123.525H122.82Z" fill="black"/>
<path d="M117.531 30.9133H116.826H116.238H115.533H114.945H114.24H113.535H112.947H112.242V31.4988V32.2014H112.947H113.535H114.24H114.945H115.533H116.238H116.826H117.531V32.904V33.6065L116.826 33.4894V34.192H116.238V34.8946H115.533H114.828V35.4801H114.24H113.535H112.947H112.242V36.1827V36.7681H112.83H113.535H114.24H114.828L115.533 36.8852V36.1827H116.238H116.826V35.4801H117.531V34.8946H118.119V34.192H118.824V33.6065V32.904V32.2014V31.6159V30.9133H118.236H117.531Z" fill="black"/>
<path d="M137.981 30.3279H137.276V31.0305V31.733V32.4356H137.981H138.686H139.392V31.733V31.0305V30.3279H138.686H137.981ZM138.686 31.733H137.981V31.0305H138.686V31.733Z" fill="black"/>
<path d="M113.065 23.0679V23.7705H113.77V23.0679V22.3654H113.065V23.0679Z" fill="black"/>
<path d="M110.479 23.0679V23.7705H111.067V23.0679V22.3654H110.479V23.0679Z" fill="black"/>
<path d="M115.768 21.0773V21.7799V22.4825V23.068V23.7705H116.356V23.068V22.4825V21.7799V21.0773H115.768Z" fill="black"/>
<path d="M113.065 21.0773H112.477V21.7799V22.3654H113.065V21.7799V21.0773Z" fill="black"/>
<path d="M109.809 21.8297L109.806 22.5322L110.511 22.5358L110.515 21.8333L109.809 21.8297Z" fill="black"/>
<path d="M109.186 21.0773H108.481V21.7799H109.186H109.774V21.0773H109.186Z" fill="black"/>
<path d="M115.768 19.7892H115.063V20.4918V21.0773H115.768V20.4918V19.7892Z" fill="black"/>
<path d="M111.907 20.4205L111.903 21.123L112.608 21.1267L112.612 20.4241L111.907 20.4205Z" fill="black"/>
<path d="M111.057 19.7086L111.053 20.4112L111.759 20.4148L111.762 19.7122L111.057 19.7086Z" fill="black"/>
<path d="M115.063 18.5012H114.475V19.0867V19.7893H115.063V19.0867V18.5012Z" fill="black"/>
<path d="M110.479 19.0867H109.774V19.7892H110.479H111.067V19.0867H110.479Z" fill="black"/>
<path d="M109.186 18.5012H108.481V19.0867H109.186H109.774V18.5012H109.186Z" fill="black"/>
<path d="M113.869 17.6877L113.865 18.3903L114.57 18.3939L114.574 17.6914L113.869 17.6877Z" fill="black"/>
<path d="M113.065 17.2132L112.477 17.0961V17.7986H113.065H113.77V17.2132H113.065Z" fill="black"/>
<path d="M111.772 16.5106H111.184V17.096H111.772H112.477V16.5106H111.772Z" fill="black"/>
<path d="M110.479 15.808H109.774H109.186H108.481V16.5106H109.186H109.774H110.479H111.184V15.808H110.479Z" fill="black"/>
<path d="M109.539 84.3091C106.953 84.3091 104.25 84.3091 101.664 84.3091V83.3723H102.604C102.604 82.904 102.604 81.8501 102.604 81.3817H103.545C103.545 80.9133 103.545 79.8595 103.545 79.3911H104.485C104.485 78.5714 104.485 77.2834 104.485 76.4637C104.015 76.4637 102.957 76.4637 102.487 76.4637C102.487 76.9321 102.487 77.9859 102.487 78.4543H101.547C101.547 78.9227 101.547 79.9766 101.547 80.4449H100.606C100.606 80.9133 100.606 81.9672 100.606 82.4356H99.6662C99.6662 82.904 99.6662 83.9578 99.6662 84.4262H98.7259C98.7259 84.8946 98.7259 85.9485 98.7259 86.4168C102.604 86.4168 106.601 86.4168 110.479 86.4168V85.4801H111.419V84.3091C111.067 84.3091 110.126 84.3091 109.539 84.3091Z" fill="#FF8200"/>
<path d="M118.471 80.4449V79.5082H119.411C119.411 78.6885 119.411 77.4004 119.411 76.5807C118.941 76.5807 117.883 76.5807 117.413 76.5807C117.413 77.0491 117.413 78.103 117.413 78.5714H116.473C116.473 79.0398 116.473 80.0936 116.473 80.562H115.533C115.533 81.0304 115.533 82.0843 115.533 82.5526H114.593C114.593 83.021 114.593 84.0749 114.593 84.5433H113.652C113.652 85.0117 113.652 86.0655 113.652 86.5339C114.122 86.5339 115.18 86.5339 115.65 86.5339V85.5971H116.591C116.591 85.1288 116.591 84.0749 116.591 83.6065H117.531C117.531 83.1381 117.531 82.0843 117.531 81.6159H118.471V80.4449Z" fill="#FF8200"/>
<path d="M149.969 79.3911H150.91V78.4543H151.85C151.85 77.9859 151.85 76.9321 151.85 76.4637C147.266 76.4637 142.682 76.4637 138.099 76.4637C138.099 76.9321 138.099 77.9859 138.099 78.4543H137.159C137.159 78.9227 137.159 79.9766 137.159 80.4449H136.218C136.218 80.9133 136.218 81.9672 136.218 82.4356H135.161C135.161 82.904 135.161 83.9578 135.161 84.4262H134.22C134.22 84.8946 134.22 85.9485 134.22 86.4168C134.69 86.4168 135.748 86.4168 136.218 86.4168V85.4801H137.159C137.159 85.0117 137.159 83.9578 137.159 83.4894H138.099V82.5527C141.39 82.5527 144.681 82.5527 147.971 82.5527V81.6159H148.912V80.6791H149.852V79.3911H149.969ZM147.971 79.3911H147.031V80.3278C144.445 80.3278 141.742 80.3278 139.157 80.3278V79.3911H140.097V78.4543C142.682 78.4543 145.386 78.4543 147.971 78.4543V79.3911Z" fill="#FF8200"/>
<path d="M134.22 79.3911H135.161V78.4543H136.101C136.101 77.9859 136.101 76.9321 136.101 76.4637C131.517 76.4637 126.933 76.4637 122.35 76.4637C122.35 76.9321 122.35 77.9859 122.35 78.4543H121.409C121.409 78.9227 121.409 79.9766 121.409 80.4449H120.469C120.469 80.9133 120.469 81.9672 120.469 82.4356H119.529C119.529 82.904 119.529 83.9578 119.529 84.4262H118.589C118.589 84.8946 118.589 85.9485 118.589 86.4168C119.059 86.4168 120.117 86.4168 120.587 86.4168V85.4801H121.527C121.527 85.0117 121.527 83.9578 121.527 83.4894H122.467V82.5527C125.758 82.5527 129.049 82.5527 132.34 82.5527V81.6159H133.28V80.6791H134.22V79.3911ZM132.222 79.3911H131.282V80.3278C128.696 80.3278 125.993 80.3278 123.407 80.3278V79.3911H124.348V78.4543C126.933 78.4543 129.637 78.4543 132.222 78.4543V79.3911Z" fill="#FF8200"/>
<path d="M166.659 78.4543V77.5175H167.599V76.5807C163.015 76.5807 158.432 76.5807 153.848 76.5807C153.848 77.0491 153.848 78.103 153.848 78.5714H152.908C152.908 79.0398 152.908 80.0936 152.908 80.562H151.967C151.967 81.0304 151.967 82.0843 151.967 82.5526H151.027C151.027 83.021 151.027 84.0749 151.027 84.5433H150.087C150.087 85.0117 150.087 86.0655 150.087 86.5339C154.318 86.5339 158.667 86.5339 162.898 86.5339V85.5971H163.838V84.3091C160.312 84.3091 156.551 84.3091 153.025 84.3091V83.3723H153.965V82.4356C156.904 82.4356 159.842 82.4356 162.78 82.4356V81.4988H163.721V80.562C160.782 80.562 157.844 80.562 154.906 80.562V79.6252H155.846V78.4543C159.489 78.4543 163.133 78.4543 166.659 78.4543Z" fill="#FF8200"/>
<path d="M99.7837 78.4543V77.5175H100.724V76.5807C95.7877 76.5807 90.8514 76.5807 85.9151 76.5807C85.9151 77.0491 85.9151 78.103 85.9151 78.5714H84.9748C84.9748 79.0398 84.9748 80.0936 84.9748 80.562H84.0346C84.0346 81.0304 84.0346 82.0843 84.0346 82.5526H83.0943C83.0943 83.021 83.0943 84.0749 83.0943 84.5433H82.1541C82.1541 85.0117 82.1541 86.0655 82.1541 86.5339H81.0963C81.0963 87.0023 81.0963 88.0562 81.0963 88.5245C81.5664 88.5245 82.6242 88.5245 83.0943 88.5245V87.5878H84.0346C84.0346 87.1194 84.0346 86.0655 84.0346 85.5971H84.9748C84.9748 85.1288 84.9748 84.0749 84.9748 83.6065H85.9151V82.6697C88.8533 82.6697 91.7916 82.6697 94.7299 82.6697V81.733H95.6701V80.7962C92.7319 80.7962 89.7936 80.7962 86.8553 80.7962V79.8594H87.7956V78.4543C91.9092 78.4543 95.9052 78.4543 99.7837 78.4543Z" fill="#FF8200"/>
<path d="M183.466 76.4637C178.882 76.4637 174.298 76.4637 169.715 76.4637C169.715 76.9321 169.715 77.9859 169.715 78.4543H168.774C168.774 78.9227 168.774 79.9766 168.774 80.4449H167.834C167.834 80.9133 167.834 81.9672 167.834 82.4356H166.894C166.894 82.904 166.894 83.9578 166.894 84.4262H165.719C165.719 84.8946 165.719 85.9485 165.719 86.4168C166.189 86.4168 167.246 86.4168 167.717 86.4168V85.4801H168.657C168.657 85.0117 168.657 83.9578 168.657 83.4894H169.597V82.5527C171.83 82.5527 174.181 82.5527 176.531 82.5527V83.4894H177.472V84.3091H178.412V85.2459H179.352V86.1826H180.292V87.1194H181.233V88.0562C181.703 88.0562 182.761 88.0562 183.231 88.0562C183.231 87.5878 183.231 86.5339 183.231 86.0656H182.29V85.1288H181.35V84.3091H180.41V83.3723H179.47C179.47 82.904 179.47 81.8501 179.47 81.3817H180.41V80.4449H181.35V79.5082H182.29V78.4543H183.231V77.5175H184.171V76.5808H183.466V76.4637ZM179.47 79.3911H178.529V80.3278C175.944 80.3278 173.241 80.3278 170.655 80.3278V79.3911H171.595V78.4543C174.181 78.4543 176.884 78.4543 179.47 78.4543V79.3911Z" fill="#FF8200"/>
</g>
<defs>
<clipPath id="clip0_1587_8995">
<rect width="238" height="100" fill="white"/>
</clipPath>
</defs>
</svg>
