<svg width="82" height="61" viewBox="0 0 82 61" fill="none" xmlns="http://www.w3.org/2000/svg">
<path fill-rule="evenodd" clip-rule="evenodd" d="M25.1826 10.7701C25.1487 10.6566 25.1305 10.5363 25.1305 10.4118V3.94118C25.1305 3.25082 25.6901 2.69118 26.3805 2.69118C27.0709 2.69118 27.6305 3.25082 27.6305 3.94118V10.4118C27.6305 10.5343 27.6129 10.6528 27.58 10.7647H34.5397C34.5068 10.6528 34.4892 10.5343 34.4892 10.4118V3.94118C34.4892 3.25082 35.0488 2.69118 35.7392 2.69118C36.4296 2.69118 36.9892 3.25082 36.9892 3.94118V10.4118C36.9892 10.5343 36.9716 10.6528 36.9387 10.7647H44.3441C44.3112 10.6528 44.2935 10.5343 44.2935 10.4118V3.94118C44.2935 3.25082 44.8532 2.69118 45.5435 2.69118C46.2339 2.69118 46.7935 3.25082 46.7935 3.94118V10.4118C46.7935 10.5343 46.7759 10.6528 46.743 10.7647H53.7028C53.6699 10.6528 53.6522 10.5343 53.6522 10.4118V3.94118C53.6522 3.25082 54.2119 2.69118 54.9022 2.69118C55.5926 2.69118 56.1522 3.25082 56.1522 3.94118V10.4118C56.1522 10.5343 56.1346 10.6528 56.1017 10.7647H56.6088C58.8179 10.7647 60.6088 12.5556 60.6088 14.7647V15.3022C60.7224 15.2683 60.8428 15.25 60.9675 15.25H67.3805C68.0709 15.25 68.6305 15.8096 68.6305 16.5C68.6305 17.1904 68.0709 17.75 67.3805 17.75H60.9675C60.8428 17.75 60.7224 17.7318 60.6088 17.6978V24.7213C60.7224 24.6874 60.8428 24.6691 60.9675 24.6691H67.3805C68.0709 24.6691 68.6305 25.2288 68.6305 25.9191C68.6305 26.6095 68.0709 27.1691 67.3805 27.1691H60.9675C60.8428 27.1691 60.7224 27.1509 60.6088 27.1169V29.1773C59.7513 29.3059 58.9161 29.5024 58.1088 29.7614V14.7647C58.1088 13.9363 57.4372 13.2647 56.6088 13.2647H25.3914C24.5629 13.2647 23.8914 13.9363 23.8914 14.7647V46.2353C23.8914 47.0637 24.5629 47.7353 25.3914 47.7353H47.2334C47.3813 48.594 47.5977 49.4293 47.8767 50.2353H46.743C46.7759 50.3472 46.7935 50.4657 46.7935 50.5882V57.0588C46.7935 57.7492 46.2339 58.3088 45.5435 58.3088C44.8532 58.3088 44.2935 57.7492 44.2935 57.0588V50.5882C44.2935 50.4657 44.3112 50.3472 44.3441 50.2353H36.9387C36.9716 50.3472 36.9892 50.4657 36.9892 50.5882V57.0588C36.9892 57.7492 36.4296 58.3088 35.7392 58.3088C35.0488 58.3088 34.4892 57.7492 34.4892 57.0588V50.5882C34.4892 50.4657 34.5068 50.3472 34.5397 50.2353H27.58C27.6129 50.3472 27.6305 50.4657 27.6305 50.5882V57.0588C27.6305 57.7492 27.0709 58.3088 26.3805 58.3088C25.6901 58.3088 25.1305 57.7492 25.1305 57.0588V50.5882C25.1305 50.4637 25.1487 50.3434 25.1826 50.2299C23.1258 50.1242 21.4797 48.4648 21.3948 46.4026C21.2802 46.4373 21.1586 46.4559 21.0327 46.4559H14.6196C13.9293 46.4559 13.3696 45.8962 13.3696 45.2059C13.3696 44.5155 13.9293 43.9559 14.6196 43.9559H21.0327C21.1573 43.9559 21.2777 43.9741 21.3914 44.0081V36.9845C21.2777 37.0185 21.1573 37.0368 21.0327 37.0368H14.6196C13.9293 37.0368 13.3696 36.4771 13.3696 35.7868C13.3696 35.0964 13.9293 34.5368 14.6196 34.5368H21.0327C21.1573 34.5368 21.2777 34.555 21.3914 34.589V27.1169C21.2777 27.1509 21.1573 27.1691 21.0327 27.1691H14.6196C13.9293 27.1691 13.3696 26.6095 13.3696 25.9191C13.3696 25.2288 13.9293 24.6691 14.6196 24.6691H21.0327C21.1573 24.6691 21.2777 24.6874 21.3914 24.7213V17.6978C21.2777 17.7318 21.1573 17.75 21.0327 17.75H14.6196C13.9293 17.75 13.3696 17.1904 13.3696 16.5C13.3696 15.8096 13.9293 15.25 14.6196 15.25H21.0327C21.1573 15.25 21.2777 15.2683 21.3914 15.3022V14.7647C21.3914 12.6256 23.0705 10.8787 25.1826 10.7701Z" fill="#616161"/>
<circle cx="63" cy="45" r="14" fill="#F63F3F"/>
<path d="M68.7208 39.2792C68.542 39.1004 68.2996 39 68.0467 39C67.7939 39 67.5514 39.1004 67.3726 39.2792L63 43.6518L58.6274 39.2792C58.4486 39.1004 58.2061 39 57.9533 39C57.7004 39 57.458 39.1004 57.2792 39.2792C57.1004 39.458 57 39.7004 57 39.9533C57 40.2061 57.1004 40.4486 57.2792 40.6274L61.6518 45L57.2792 49.3726C57.1004 49.5514 57 49.7939 57 50.0467C57 50.2996 57.1004 50.542 57.2792 50.7208C57.458 50.8996 57.7004 51 57.9533 51C58.2061 51 58.4486 50.8996 58.6274 50.7208L63 46.3482L67.3726 50.7208C67.5514 50.8996 67.7939 51 68.0467 51C68.2996 51 68.542 50.8996 68.7208 50.7208C68.8996 50.542 69 50.2996 69 50.0467C69 49.7939 68.8996 49.5514 68.7208 49.3726L64.3482 45L68.7208 40.6274C68.8996 40.4486 69 40.2061 69 39.9533C69 39.7004 68.8996 39.458 68.7208 39.2792Z" fill="white"/>
<path d="M40.9971 36.1474L40.9971 21.5294" stroke="#616161" stroke-width="2.5" stroke-linecap="round" stroke-linejoin="round"/>
<path d="M33.8695 31.2646L40.9999 38.5735L48.1304 31.2646" stroke="#616161" stroke-width="2.5" stroke-linecap="round" stroke-linejoin="round"/>
</svg>
