<svg width="150" height="52" viewBox="0 0 150 52" fill="none" xmlns="http://www.w3.org/2000/svg">
<path d="M126.576 40.0732H125.879V40.7606H126.576V40.0732Z" fill="white"/>
<path d="M125.879 39.3859H125.181V40.0734H125.879V39.3859Z" fill="white"/>
<path d="M126.576 38.6987H125.879V39.3861H126.576V38.6987Z" fill="white"/>
<path d="M125.182 38.6987H124.484V39.3861H125.182V38.6987Z" fill="white"/>
<path d="M125.879 38.0115H125.181V38.6989H125.879V38.0115Z" fill="white"/>
<path d="M123.785 38.0115H123.088V38.6989H123.785H124.483V38.0115H123.785Z" fill="white"/>
<path d="M127.272 35.2625H126.575V35.9499H125.877H125.18H124.482V36.6374H123.785H123.088H122.393H121.695V37.3248H122.393V38.0123H123.088V37.3248H123.785H124.482V38.0123H125.18V37.3248H125.877V38.0123H126.575V38.6997H127.272V39.3846H126.575V40.0721H127.272V40.7595H127.97V41.4469H128.667V40.7595V40.0721H127.97V39.3846V38.6997V38.0123H127.272V37.3248V36.6374V35.9499H127.97H128.667V35.2625H127.97H127.272Z" fill="white"/>
<path d="M128.668 34.5753V35.2627H129.363H130.061V34.5753H129.363H128.668Z" fill="white"/>
<path d="M130.061 33.888V34.5755H130.758H131.455V33.888H130.758H130.061Z" fill="white"/>
<path d="M132.153 33.1974H131.456V33.8848H132.153H132.85H133.548V33.1974H132.85H132.153Z" fill="white"/>
<path d="M133.547 32.5135V33.1984H134.244H134.942V32.5135H134.244H133.547Z" fill="white"/>
<path d="M134.942 31.8263V32.5137H135.637H136.335V31.8263H135.637H134.942Z" fill="white"/>
<path d="M137.032 31.1391H136.334V31.8265H137.032V31.1391Z" fill="white"/>
<path d="M117.512 29.7646H116.815V30.452H117.512V29.7646Z" fill="white"/>
<path d="M108.449 29.7646H107.752V30.452H108.449V29.7646Z" fill="white"/>
<path d="M107.055 29.7646H106.357V30.452H107.055V29.7646Z" fill="white"/>
<path d="M137.032 29.7614V30.4488V31.1363H137.73V30.4488V29.7614V29.074H137.032V29.7614Z" fill="white"/>
<path d="M109.148 29.074H108.451V29.7614H109.148V29.074Z" fill="white"/>
<path d="M107.753 29.074H107.055V29.7614H107.753V29.074Z" fill="white"/>
<path d="M106.357 29.074H105.66V29.7614H106.357V29.074Z" fill="white"/>
<path d="M108.449 28.3867H107.752V29.0742H108.449V28.3867Z" fill="white"/>
<path d="M107.055 28.3867H106.357V29.0742H107.055V28.3867Z" fill="white"/>
<path d="M109.845 27.6995V28.3869H109.147V29.0744H109.845V29.7618V30.4492H110.54V29.7618V29.0744V28.3869H111.237V27.6995H110.54H109.845Z" fill="white"/>
<path d="M109.148 27.6995H108.451V28.3869H109.148V27.6995Z" fill="white"/>
<path d="M107.753 27.6995H107.055V28.3869H107.753V27.6995Z" fill="white"/>
<path d="M106.357 27.6995H105.66V28.3869H106.357V27.6995Z" fill="white"/>
<path d="M109.845 27.0133V26.3284H109.147V27.0133V27.7007H109.845V27.0133Z" fill="white"/>
<path d="M108.449 27.0122H107.752V27.6997H108.449V27.0122Z" fill="white"/>
<path d="M107.055 27.0122H106.357V27.6997H107.055V27.0122Z" fill="white"/>
<path d="M107.055 27.0149H107.752V26.33V25.6426V24.9551V24.2677V23.5802V22.8928V22.2054V21.5179V20.8305H107.055V21.5179V22.2054V22.8928V23.5802V24.2677V24.9551V25.6426H106.357V26.33H107.055V27.0149Z" fill="white"/>
<path d="M106.357 26.3284H105.66V27.0158H106.357V26.3284Z" fill="white"/>
<path d="M117.512 24.9549V24.2675V23.58V22.8926V22.2052V21.5177H116.814V22.2052V22.8926V23.58V24.2675V24.9549V25.6424V26.3298H116.12V27.0147H116.814H117.512V26.3298H118.209V25.6424H117.512V24.9549Z" fill="white"/>
<path d="M116.12 24.9551V24.2677V23.5802V22.8928V22.2054H115.423V21.5179H114.725V20.8305H114.028H113.33H112.633H111.936H111.238V21.5179H110.541V22.2054H109.843V22.8928V23.5802V24.2677V24.9551V25.6426V26.33H110.541V27.0175H111.238V27.7049H111.936V27.0175H112.633H113.33V26.33H114.028H114.725H115.423H116.12V25.6426V24.9551ZM112.633 23.5802V24.2677H111.936H111.238V23.5802V22.8928H111.936H112.633V23.5802Z" fill="white"/>
<path d="M109.148 24.9549V24.2675V23.58V22.8926V22.2052V21.5177H108.451V22.2052V22.8926V23.58V24.2675V24.9549V25.6424V26.3298H109.148V25.6424V24.9549Z" fill="white"/>
<path d="M119.604 24.2667V24.9541H120.301H120.999V24.2667H120.301H119.604Z" fill="white"/>
<path d="M118.907 24.2677V23.5802V22.8928V22.2054V21.5179V20.8305H118.209V21.5179V22.2054V22.8928V23.5802V24.2677V24.9551V25.6426H118.907H119.604V24.9551H118.907V24.2677Z" fill="white"/>
<path d="M120.999 23.5794V24.2669H121.696H122.393V23.5794H121.696H120.999Z" fill="white"/>
<path d="M123.091 22.8922H122.394V23.5796H123.091V22.8922Z" fill="white"/>
<path d="M123.088 22.2049V22.8924H123.785H124.483V22.2049H123.785H123.088Z" fill="white"/>
<path d="M124.484 21.5177V22.2051H125.182H125.879V21.5177H125.182H124.484Z" fill="white"/>
<path d="M121.696 22.2051H122.393V21.5177H121.696H120.999V22.2051H121.696Z" fill="white"/>
<path d="M126.576 20.8305H125.879V21.5179H126.576V20.8305Z" fill="white"/>
<path d="M123.091 20.8305H122.394V21.5179H123.091V20.8305Z" fill="white"/>
<path d="M120.302 21.519H120.999V20.8315V20.1466H120.302V20.8315V21.519Z" fill="white"/>
<path d="M116.817 20.8305H116.12V21.5179H116.817V20.8305Z" fill="white"/>
<path d="M109.845 20.8305H109.147V21.5179H109.845V20.8305Z" fill="white"/>
<path d="M126.576 20.1466V20.8315H127.273H127.971V20.1466H127.273H126.576Z" fill="white"/>
<path d="M124.483 20.8315H125.18V20.1466H124.483H123.785H123.088V20.8315H123.785H124.483Z" fill="white"/>
<path d="M118.209 20.1466H117.512V20.8341H118.209V20.1466Z" fill="white"/>
<path d="M116.12 20.1466H115.422V20.8341H116.12V20.1466Z" fill="white"/>
<path d="M110.543 20.1466H109.846V20.8341H110.543V20.1466Z" fill="white"/>
<path d="M108.449 20.1466H107.752V20.8341H108.449V20.1466Z" fill="white"/>
<path d="M126.576 20.1468V19.4594H125.879H125.181V20.1468H125.879H126.576Z" fill="white"/>
<path d="M111.935 20.1468H112.632H113.33H114.027H114.725H115.422V19.4594H114.725H114.027H113.33H112.632H111.935H111.237H110.54V20.1468H111.237H111.935Z" fill="white"/>
<path d="M109.148 19.4594H108.451V20.1468H109.148V19.4594Z" fill="white"/>
<path d="M136.335 19.4564H135.637H134.942V20.1438H134.245H133.547V20.8287H132.85H132.153V21.5162H131.455V22.2036H130.758V22.8911H130.06V23.5785H129.363V24.266H128.668V24.9534H127.971V25.6408H127.273V26.3283H126.576V27.0132H125.878V27.7006H125.181V28.3881H124.483V29.0755H123.786H123.089V29.763H122.394H121.696H120.999V30.4504H120.301H119.604H118.907H118.209H117.512V31.1378H118.209H118.907H119.604H120.301H120.999V31.8253H121.696H122.394H123.089H123.786H124.483H125.181H125.878H126.576H127.273V31.1378H127.971H128.668H129.363H130.06H130.758V30.4504H130.06H129.363H128.668H127.971H127.273H126.576V31.1378H125.878H125.181H124.483H123.786V30.4504H124.483H125.181V29.763H125.878V29.0755H126.576V28.3881H127.273H127.971H128.668H129.363V29.0755H130.06H130.758H131.455H132.153V29.763H131.455H130.758V30.4504H131.455H132.153H132.85H133.547H134.245V29.763H134.942H135.637V29.0755H136.335H137.032V28.3881H136.335H135.637H134.942H134.245H133.547H132.85H132.153H131.455H130.758H130.06V27.7006V27.0132H130.758V26.3283H131.455V25.6408H132.153V24.9534H132.85V24.266H133.547V23.5785H134.245V22.8911H134.942V22.2036H135.637V21.5162H136.335V20.8287H137.032V20.1438V19.4564V18.769V18.0815H136.335V18.769V19.4564Z" fill="white"/>
<path d="M130.06 18.7688H129.363V19.4562H130.06V18.7688Z" fill="white"/>
<path d="M127.273 18.7688H126.576V19.4562H127.273V18.7688Z" fill="white"/>
<path d="M123.091 18.7688H122.394V19.4562H123.091V18.7688Z" fill="white"/>
<path d="M119.604 19.4562V20.1436H120.301V19.4562V18.7688H119.604V19.4562Z" fill="white"/>
<path d="M109.845 18.7688H109.147V19.4562H109.845V18.7688Z" fill="white"/>
<path d="M131.455 18.769V18.0815H130.758H130.061V18.769H130.758H131.455Z" fill="white"/>
<path d="M122.393 18.0815H121.695V18.769H122.393V18.0815Z" fill="white"/>
<path d="M116.814 18.769H116.12V19.4564H116.814V20.1438H117.512V19.4564V18.769V18.0815H116.814V18.769Z" fill="white"/>
<path d="M111.238 18.769H111.935H112.633H113.33H114.028H114.725H115.423H116.12V18.0815H115.423H114.725H114.028H113.33H112.633H111.935H111.238H110.541H109.846V18.769H110.541H111.238Z" fill="white"/>
<path d="M132.85 18.0817H133.548H134.245H134.943H135.638H136.335V17.3943H135.638H134.943H134.245H133.548H132.85H132.153H131.456V18.0817H132.153H132.85Z" fill="white"/>
<path d="M125.182 17.3943H124.484V18.0817H125.182V17.3943Z" fill="white"/>
<path d="M120.302 18.0817V18.7692H120.999V18.0817V17.3943H120.302V18.0817Z" fill="white"/>
<path d="M117.512 18.0821H118.21V17.3947V16.7072H117.512V16.0198H116.815V16.7072V17.3947H117.512V18.0821Z" fill="white"/>
<path d="M116.817 17.3943H116.12V18.0817H116.817V17.3943Z" fill="white"/>
<path d="M124.484 16.707H123.787V17.3945H124.484V16.707Z" fill="white"/>
<path d="M105.66 16.707H104.963V17.3945H105.66V16.707Z" fill="white"/>
<path d="M120.999 16.7072V17.3947H121.696V16.7072V16.0198H120.999V16.7072Z" fill="white"/>
<path d="M118.907 16.0198H118.209V16.7072H118.907V16.0198Z" fill="white"/>
<path d="M106.357 16.0198H105.66V16.7072H106.357V16.0198Z" fill="white"/>
<path d="M125.181 16.0202H125.879V16.7076H126.576V17.3951H127.273V18.0825V18.77H127.971V19.4574V20.1449H128.668H129.363V19.4574H128.668V18.77V18.0825H127.971V17.3951V16.7076H127.273V16.0202H126.576V15.3328H125.879V14.6453H125.181V15.3328V16.0202Z" fill="white"/>
<path d="M121.695 15.3326V16.02H122.393H123.088V15.3326H122.393H121.695Z" fill="white"/>
<path d="M119.604 15.3326H118.906V16.02H119.604V15.3326Z" fill="white"/>
<path d="M118.209 15.3326H117.512V16.02H118.209V15.3326Z" fill="white"/>
<path d="M116.817 15.3326H116.12V16.02H116.817V15.3326Z" fill="white"/>
<path d="M107.055 15.3326H106.357V16.02H107.055V15.3326Z" fill="white"/>
<path d="M120.301 14.6453H119.604V15.3328H120.301V14.6453Z" fill="white"/>
<path d="M118.907 14.6453H118.209V15.3328H118.907V14.6453Z" fill="white"/>
<path d="M117.512 14.6453H116.815V15.3328H117.512V14.6453Z" fill="white"/>
<path d="M108.45 15.3328V14.6453H107.753H107.055V15.3328H107.753H108.45Z" fill="white"/>
<path d="M120.302 14.6466H120.999V13.9617H121.697H122.394H123.089V14.6466V15.334H123.786H124.484V14.6466H125.181V13.9617H124.484H123.786V13.2742H123.089H122.394H121.697H120.999H120.302V13.9617V14.6466Z" fill="white"/>
<path d="M116.12 13.9615H115.422V14.6463H116.12H116.815V13.9615H116.12Z" fill="white"/>
<path d="M109.846 14.6463V13.9615H109.148H108.451V14.6463H109.148H109.846Z" fill="white"/>
<path d="M111.238 13.9619H111.935H112.633H113.33H114.028H114.725H115.423V13.2744H116.12H116.815H117.512H118.21H118.907H119.605H120.302V12.587H119.605H118.907H118.21H117.512H116.815H116.12H115.423H114.725H114.028H113.33H112.633H111.935H111.238V13.2744H110.541H109.846V13.9619H110.541H111.238Z" fill="white"/>
<path d="M145.754 20.5655C146.184 20.5655 146.532 20.2243 146.532 19.8016C146.532 19.379 146.184 19.0378 145.754 19.0378H140.414V14.4677H145.754C146.184 14.4677 146.532 14.1265 146.532 13.7039C146.532 13.2812 146.184 12.94 145.754 12.94H140.414V10.7275C140.414 8.55065 138.611 6.7786 136.395 6.7786H134.144V1.63048C134.144 1.20784 133.796 0.866669 133.366 0.866669C132.936 0.866669 132.589 1.20784 132.589 1.63048V6.7786H127.938V1.63048C127.938 1.20784 127.591 0.866669 127.161 0.866669C126.73 0.866669 126.383 1.20784 126.383 1.63048V6.7786H121.73V1.63048C121.73 1.20784 121.382 0.866669 120.952 0.866669C120.522 0.866669 120.175 1.20784 120.175 1.63048V6.7786H115.524V1.63048C115.524 1.20784 115.177 0.866669 114.747 0.866669C114.316 0.866669 113.969 1.20784 113.969 1.63048V6.7786H109.318V1.63048C109.318 1.20784 108.971 0.866669 108.541 0.866669C108.111 0.866669 107.764 1.20784 107.764 1.63048V6.7786H105.512C103.296 6.7786 101.493 8.55065 101.493 10.7275V12.94H96.1528C95.7227 12.94 95.3755 13.2812 95.3755 13.7039C95.3755 14.1265 95.7227 14.4677 96.1528 14.4677H101.493V19.0378H96.1528C95.7227 19.0378 95.3755 19.379 95.3755 19.8016C95.3755 20.2243 95.7227 20.5655 96.1528 20.5655H101.493V25.1356H96.1528C95.7227 25.1356 95.3755 25.4768 95.3755 25.8994C95.3755 26.3221 95.7227 26.6632 96.1528 26.6632H101.493V31.2334H96.1528C95.7227 31.2334 95.3755 31.5746 95.3755 31.9972C95.3755 32.4199 95.7227 32.761 96.1528 32.761H101.493V37.3312H96.1528C95.7227 37.3312 95.3755 37.6724 95.3755 38.095C95.3755 38.5177 95.7227 38.8588 96.1528 38.8588H101.493V41.0714C101.493 43.2482 103.296 45.0203 105.512 45.0203H107.764V50.3695C107.764 50.7922 108.111 51.1333 108.541 51.1333C108.971 51.1333 109.318 50.7922 109.318 50.3695V45.0203H113.969V50.3695C113.969 50.7922 114.316 51.1333 114.747 51.1333C115.177 51.1333 115.524 50.7922 115.524 50.3695V45.0203H120.175V50.3695C120.175 50.7922 120.522 51.1333 120.952 51.1333C121.382 51.1333 121.73 50.7922 121.73 50.3695V45.0203H126.381V50.3695C126.381 50.7922 126.728 51.1333 127.158 51.1333C127.588 51.1333 127.935 50.7922 127.935 50.3695V45.0203H132.586V50.3695C132.586 50.7922 132.933 51.1333 133.364 51.1333C133.794 51.1333 134.141 50.7922 134.141 50.3695V45.0203H136.393C138.608 45.0203 140.411 43.2482 140.411 41.0714V38.8588H145.752C146.182 38.8588 146.529 38.5177 146.529 38.095C146.529 37.6724 146.182 37.3312 145.752 37.3312H140.411V32.761H145.752C146.182 32.761 146.529 32.4199 146.529 31.9972C146.529 31.5746 146.182 31.2334 145.752 31.2334H140.411V26.6632H145.752C146.182 26.6632 146.529 26.3221 146.529 25.8994C146.529 25.4768 146.182 25.1356 145.752 25.1356H140.411V20.5655H145.754ZM138.859 41.0739C138.859 42.408 137.753 43.4952 136.395 43.4952H105.509C104.152 43.4952 103.045 42.408 103.045 41.0739V10.7275C103.045 9.39339 104.152 8.30623 105.509 8.30623H136.395C137.753 8.30623 138.859 9.39339 138.859 10.7275V41.0739Z" fill="white"/>
<path d="M25.0972 20.6431C24.8542 20.8933 24.6031 21.1356 24.3521 21.3779C23.121 22.5657 23.0409 22.5551 24.2346 23.8509C24.5391 24.1801 24.5818 24.4382 24.4002 24.8623C24.2133 25.2995 24.013 25.5233 23.5136 25.4891C23.2092 25.468 22.8994 25.5444 22.5896 25.5734C22.1276 25.6181 21.8793 25.8631 21.8739 26.3266C21.8686 26.7533 21.8713 27.1826 21.8713 27.6092C21.8713 29.1315 21.8713 29.1315 23.3721 29.2948C23.4735 29.3053 23.5777 29.3448 23.6792 29.3343C24.0504 29.3027 24.1919 29.5055 24.3441 29.8163C24.5764 30.293 24.6218 30.667 24.1652 31.0304C23.9596 31.1937 23.81 31.4255 23.6391 31.6283C23.3053 32.0207 23.316 32.3999 23.6845 32.7634C24.1652 33.2401 24.6432 33.7168 25.1292 34.1882C25.4977 34.5438 25.8903 34.5622 26.2882 34.2356C26.5099 34.0539 26.7422 33.8801 26.9451 33.6773C27.2683 33.356 27.5567 33.2796 28.0213 33.4929C28.4379 33.6826 28.6409 33.8696 28.6249 34.3225C28.6142 34.6044 28.6916 34.8888 28.7076 35.1706C28.737 35.7131 29.0067 35.9897 29.5675 35.9844C30.0829 35.9792 30.601 35.9844 31.1164 35.9844C32.3154 35.9844 32.3662 35.937 32.4756 34.7861C32.4943 34.5833 32.5638 34.3805 32.5477 34.1803C32.5237 33.8379 32.7 33.7194 32.9804 33.5535C33.5598 33.2111 33.9497 33.3902 34.3743 33.8037C34.6708 34.0934 35.0446 34.3041 35.3918 34.5596C35.6668 34.3963 35.8778 34.3094 36.0407 34.1672C36.3478 33.8985 36.6282 33.5956 36.922 33.3086C38.0142 32.2287 38.0382 32.2103 37.0127 31.062C36.6335 30.638 36.5427 30.293 36.8231 29.7952C36.9754 29.5266 37.0715 29.3185 37.4347 29.3317C37.7631 29.3422 38.0916 29.2737 38.4201 29.2553C38.9889 29.2263 39.3013 28.9708 39.2853 28.3809C39.2746 28.0359 39.28 27.6882 39.2853 27.3432C39.312 25.4759 39.3334 25.6418 37.4961 25.4759C37.1383 25.4443 36.9834 25.3311 36.8205 25.0097C36.5641 24.5041 36.5775 24.1196 37.0154 23.7403C37.2157 23.5691 37.3706 23.3426 37.5388 23.1398C37.8513 22.7632 37.8299 22.3971 37.4854 22.0521C37.0955 21.6597 36.6976 21.2725 36.3024 20.8854C35.536 20.1295 35.3811 20.1242 34.5613 20.8195C34.4678 20.8985 34.361 20.967 34.2782 21.0565C33.923 21.4569 33.5625 21.5306 33.0525 21.262C32.724 21.0908 32.521 20.967 32.5344 20.5719C32.5451 20.2296 32.473 19.8845 32.4356 19.5395C32.3875 19.0892 32.1445 18.8337 31.6745 18.8284C31.1992 18.8232 30.7238 18.8232 30.2512 18.8232C28.8358 18.8232 28.8358 18.8232 28.6596 20.1743C28.6409 20.3165 28.5875 20.4587 28.6035 20.5956C28.6435 20.967 28.4486 21.0961 28.1335 21.2567C27.6127 21.5227 27.2282 21.4621 26.8517 21.0434C26.7021 20.8775 26.5072 20.751 26.3389 20.6035C25.9143 20.2296 25.5031 20.2243 25.0972 20.6431ZM30.6143 23.6112C32.7587 23.6218 34.4491 25.3153 34.4358 27.438C34.4224 29.5345 32.6813 31.2279 30.5476 31.2148C28.4219 31.2016 26.7181 29.4871 26.7262 27.3722C26.7342 25.2626 28.4513 23.6033 30.6143 23.6112Z" fill="#FF8200"/>
<path d="M17.5532 17.3959V40.2397C17.5532 41.3442 18.4487 42.2397 19.5532 42.2397H41.6142C42.7188 42.2397 43.6142 41.3442 43.6142 40.2397V12.4429C43.6142 11.3383 42.7188 10.4429 41.6142 10.4429H24.4457L17.5532 17.3959ZM24.1145 13.0371V16.9271H20.2584L24.1145 13.0371ZM42.0119 40.6594H19.1555V18.5073H23.7168C24.8214 18.5073 25.7168 17.6118 25.7168 16.5073V12.0231H42.0119V40.6594Z" fill="#FF8200"/>
<path d="M76.3183 21.6493C76.0779 22.0154 76.1847 22.5052 76.5586 22.7423L80.9782 25.5524H55.9774C55.5341 25.5524 55.1763 25.9054 55.1763 26.3426C55.1763 26.7798 55.5341 27.1327 55.9774 27.1327H80.7699L76.5853 29.5715C76.2034 29.7927 76.0779 30.2773 76.3022 30.6539C76.4518 30.9042 76.7188 31.0411 76.9939 31.0411C77.1328 31.0411 77.2716 31.0069 77.3998 30.9305L83.8061 27.1957C84.4532 26.8184 84.4711 25.8899 83.8391 25.488L77.4265 21.4096C77.0553 21.1752 76.5586 21.2806 76.3183 21.6493Z" fill="white"/>
</svg>
