<svg width="238" height="100" viewBox="0 0 238 100" fill="none" xmlns="http://www.w3.org/2000/svg">
<path d="M64.8866 30.5585C64.8866 25.6688 64.8866 20.668 64.8866 15.7783H64C64 21.3348 64 26.8912 64 32.3366H64.8866C64.8866 31.8921 64.8866 31.003 64.8866 30.5585Z" fill="black"/>
<path d="M141.867 15.777V14.8879H140.981C140.981 20.6667 140.981 26.5565 140.981 32.4464C115.616 32.4464 90.2511 32.4464 64.9969 32.4464V33.3354H65.883V34.2244C91.2479 34.2244 116.613 34.2244 141.867 34.2244V33.3354H142.753C142.753 27.5567 142.753 21.6668 142.753 15.777H141.867V15.777Z" fill="black"/>
<path d="M65.7726 14.8879H64.8863V15.7767H65.7726V14.8879Z" fill="black"/>
<path d="M67.6556 14.889C92.0237 14.889 116.502 14.889 140.87 14.889V14C115.838 14 90.8053 14 65.7726 14V14.889C66.3265 14.889 67.2126 14.889 67.6556 14.889Z" fill="black"/>
<path d="M78.5313 29.8438H77.541V30.8341H78.5313V29.8438Z" fill="black"/>
<path d="M78.5313 28.8536V29.844H79.5216V28.8536V27.8633H78.5313V28.8536Z" fill="black"/>
<path d="M76.5506 27.8631V26.8728H75.5603V27.8631V28.8535H76.5506V27.8631Z" fill="black"/>
<path d="M77.541 25.8826V24.8923V23.9019V22.9116V21.9212V20.9309H76.5506V21.9212V22.9116V23.9019V24.8923V25.8826V26.8729H77.541V25.8826Z" fill="black"/>
<path d="M68.628 25.8826H67.6376V26.8729H68.628V25.8826Z" fill="black"/>
<path d="M67.6376 24.8923V23.9019V22.9116H68.628V23.9019H69.6183V24.8923H70.6086V25.8826H71.599V26.8729H72.5893H73.5796V25.8826H74.57V24.8923V23.9019V22.9116V21.9212H73.5796V22.9116V23.9019V24.8923H72.5893H71.599V23.9019H70.6086V22.9116H69.6183V21.9212H68.628V20.9309H67.6376V21.9212H66.6473V22.9116V23.9019V24.8923V25.8826H67.6376V24.8923Z" fill="black"/>
<path d="M73.5796 20.9309H72.5893V21.9212H73.5796V20.9309Z" fill="black"/>
<path d="M79.5217 20.9308V21.9211V22.9114V23.9018V24.8921V25.8825V26.8728V27.8631H80.512V26.8728V25.8825V24.8921V23.9018V22.9114V21.9211V20.9308V19.9404H79.5217V20.9308Z" fill="black"/>
<path d="M78.5313 19.9404H79.5216V18.9501V17.9597H78.5313V18.9501V19.9404Z" fill="black"/>
<path d="M76.5506 18.9502H75.5603V19.9405V20.9309H76.5506V19.9405V18.9502Z" fill="black"/>
<path d="M78.5313 16.9695H77.541V17.9598H78.5313V16.9695Z" fill="black"/>
<path d="M88.0937 25.2691V23.424H89.017V25.2691H88.0937ZM85.3284 28.0322V20.6609H87.1704V21.5834H88.0937V23.424H87.1704V28.0322H85.3284ZM89.9402 28.0322V27.1141H89.017V25.2691H89.9402V20.6609H91.7823V28.0322H89.9402Z" fill="black"/>
<path d="M92.7055 28.0322V20.6609H97.3174V21.5834H94.5476V23.424H96.3941V24.3465H94.5476V28.0322H92.7055Z" fill="black"/>
<path d="M100.078 28.0322V27.1141H99.1549V26.1916H98.2362V22.506H99.1549V21.5834H100.078V20.6609H103.767V21.5834H104.69V23.424H103.767V22.506H102.848V21.5834H101.001V22.506H100.078V26.1916H101.001V27.1141H102.848V26.1916H103.767V25.2691H104.69V27.1141H103.767V28.0322H100.078Z" fill="black"/>
<rect x="68.6767" y="37.6387" width="49.21" height="14.5579" fill="black"/>
<rect x="67.9735" y="39.1746" width="0.703" height="11.4931" fill="black"/>
<path d="M 102.4,47.5322 V 42.492 h 3.6 v 0.72 h -2.88 v 1.44 h 2.16 v 0.72 h -2.16 v 1.44 0.72 z" fill="#ff8200"/>
<path d="M 71.44,47.5322 V 42.492 h 3.6 v 0.72 h -2.88 v 1.44 h 2.16 v 0.72 h -2.16 v 1.44 h 2.88 v 0.72 z" fill="#ff8200"/>
<path d="m 76.479999,46.092 v -0.72 H 77.92 v 0.72 z M 75.76,43.932 v 1.44 h 0.719999 v -1.44 z m 2.16,2.16 v 1.44 h 0.72 v -1.44 z m 0,-2.16 v 1.44 h 0.72 v -1.44 z m -2.16,2.16 v 1.44 h 0.719999 v -1.44 z" fill="#ff8200"/>
<path d="m 120.4,43.932 v 0.72 h 1.44 v -0.72 z m -0.72,2.88 v 0.72 h 1.44 v -0.72 z m 0,-2.16 v 0.72 h 0.72 v -0.72 z m 0.72,0.72 v 0.72 h 0.72 v -0.72 z m 0.72,0.72 v 0.72 h 0.72 v -0.72 z" fill="#ff8200"/>
<path d="m 116.08,43.932 v 2.88 h 0.72 v -2.88 z m 2.16,0 v 4.32 h 0.72 v -4.32 z m -1.44,2.88 v 0.72 h 1.44 v -0.72 z m 0,1.44 v 0.72 h 1.44 v -0.72 z" fill="#ff8200"/>
<path d="m 108.16,42.492 h 0.72 v 2.16 h 0.72 v 0.72 h -0.72 v 2.16 h -0.72 z m 2.88,0 h 0.72 v 0.72 h -0.72 z m 0,4.32 h 0.72 v 0.72 h -0.72 z m -0.72,-3.6 h 0.72 v 0.72 h -0.72 z m -0.72,0.72 h 0.72 v 0.72 h -0.72 z m 0.72,2.16 h 0.72 v 0.72 h -0.72 z m -0.72,-0.72 h 0.72 v 0.72 h -0.72 z" fill="#ff8200"/>
<path d="m 96.64,42.492 h 0.72 v 5.04 h -0.72 z m 4.32,0 h 0.72 v 5.04 h -0.72 z m -3.6,0.72 h 0.72 v 0.72 h -0.72 z m 2.16,0.72 h 0.72 v 0.72 h -0.72 z m 0.72,-0.72 h 0.72 v 0.72 h -0.72 z m -2.16,0.72 h 0.72 v 0.72 h -0.72 z m 0.72,0.72 h 0.72 v 0.72 H 98.8 Z" fill="#ff8200"/>
<path d="M 80.0806,47.5322 V 44.6521 H 79.36 v -0.72 h 0.7206 V 42.492 h 0.7206 v 1.4401 h 0.7206 v 0.72 h -0.7206 v 2.8801 z" fill="#ff8200"/>
<path d="m 113.2006,47.5321 v -0.72 h 1.4412 v 0.72 z m -0.7206,-0.72 V 44.652 h 0.7206 v 0.72 h 1.4412 v -0.72 h 0.7206 v 1.44 h -2.1618 v 0.7201 z m 0.7206,-2.1601 v -0.72 h 1.4412 v 0.72 z" fill="#ff8200"/>
<path d="m 89.4406,47.5321 v -0.72 h 1.4412 v 0.72 z m 1.4412,-0.72 V 46.092 h 0.7206 v 0.7201 z m -2.1618,0 V 44.652 h 0.7206 v 2.1601 z m 2.1618,-1.4401 v -0.72 h 0.7206 v 0.72 z m -1.4412,-0.72 v -0.72 h 1.4412 v 0.72 z" fill="#ff8200"/>
<path d="M 93.0406,47.5322 V 44.6521 H 92.32 v -0.72 h 0.7206 V 42.492 h 0.7206 v 1.4401 h 0.7206 v 0.72 h -0.7206 v 2.8801 z" fill="#ff8200"/>
<path d="M 82.24,47.5321 V 43.932 h 2.162 v 0.72 h -1.441 v 2.8801 z" fill="#ff8200"/>
<path d="M 85.12,46.8121 V 44.652 h 0.721 v 2.1601 z m 0.721,0.72 v -0.72 h 1.441 V 44.652 h -1.441 v -0.72 h 2.161 v 3.6001 z" fill="#ff8200"/>
<path d="M117.366 40.557C117.366 41.2644 117.366 42.0064 117.366 42.7734C117.366 51.1847 124.185 58.0043 132.596 58.0043H133.268C141.309 58.0043 147.826 51.4865 147.826 43.4464V43.4464C147.826 35.4062 141.309 28.8884 133.268 28.8884H129.035C122.591 28.8884 117.366 34.1126 117.366 40.557V40.557Z" fill="#FFA20D"/>
<path d="M118.606 50.6673C128.796 50.6673 133.005 50.6673 143.195 50.6673H141.423H142.42H141.091C141.645 50.6673 142.642 50.6673 143.195 50.6673H140.98C141.534 50.6673 142.531 50.6673 143.085 50.6673H141.312H142.309H140.98C141.534 50.6673 142.531 50.6673 143.085 50.6673C142.752 50.6673 141.534 50.6673 141.091 50.6673H142.088H140.316C141.091 50.6673 142.198 50.6673 143.085 50.6673H141.423H142.42H141.091C141.645 50.6673 142.642 50.6673 143.195 50.6673H141.423C142.309 50.6673 143.638 50.6673 144.525 50.6673V49.6671H145.521C145.521 45.4442 145.521 41.2213 145.521 37.1095H144.525V36.1094C143.638 36.1094 142.309 36.1094 141.423 36.1094H143.195C142.642 36.1094 141.645 36.1094 141.091 36.1094H142.42H141.423H143.195C142.42 36.1094 141.202 36.1094 140.426 36.1094H142.198H141.202C141.645 36.1094 142.752 36.1094 143.195 36.1094C142.642 36.1094 141.645 36.1094 141.091 36.1094H142.42H141.423H143.195C142.642 36.1094 141.645 36.1094 141.091 36.1094H143.306C142.752 36.1094 141.755 36.1094 141.202 36.1094H142.531H141.423H143.195C133.005 36.1094 128.796 36.1094 118.606 36.1094" fill="#121112"/>
<path d="M141.756 52.5553C141.092 53.222 141.092 54.2222 141.756 54.889L151.171 64.335C151.836 65.0017 152.833 65.0017 153.497 64.335C154.162 63.6682 154.162 62.668 153.497 62.0012L144.083 52.5553C143.418 51.8885 142.421 51.8885 141.756 52.5553Z" fill="#6D3E32"/>
<path d="M146.629 55.2199C146.408 54.9976 146.076 54.8865 145.854 54.5531C145.3 54.442 145.079 55.1088 144.857 55.4422C144.636 55.9978 143.75 56.2201 143.639 56.7757C144.082 57.1091 144.525 57.5536 144.968 57.9981C145.3 57.3313 145.411 56.2201 146.186 56.1089C146.408 55.9978 146.519 55.9978 146.74 55.9978C146.962 55.9978 147.072 55.8867 147.183 55.7755C146.962 55.5533 146.851 55.331 146.629 55.2199Z" fill="#512619"/>
<path d="M152.279 65C151.836 65 151.393 64.7777 151.061 64.4443L141.646 54.9983C140.981 54.3316 140.981 53.2203 141.646 52.4424C141.978 52.109 142.421 51.8867 142.864 51.8867C143.307 51.8867 143.75 52.109 144.083 52.4424L153.498 61.8883C154.162 62.5551 154.162 63.6664 153.498 64.4443C153.276 64.7777 152.722 65 152.279 65ZM142.864 52.2201C142.421 52.2201 142.089 52.3312 141.867 52.6646C141.314 53.2203 141.314 54.1093 141.867 54.7761L151.282 64.2221C151.836 64.7777 152.722 64.7777 153.387 64.2221C153.941 63.6664 153.941 62.7774 153.387 62.1106L143.972 52.6646C143.64 52.4424 143.307 52.2201 142.864 52.2201Z" fill="#3D2110"/>
<path d="M132.563 60.7777C123.369 60.7777 115.948 53.3321 115.948 44.1083C115.948 34.8846 123.369 27.439 132.563 27.439C141.756 27.439 149.177 34.8846 149.177 44.1083C149.177 53.3321 141.645 60.7777 132.563 60.7777ZM132.563 30.2172C124.92 30.2172 118.717 36.4404 118.717 44.1083C118.717 51.7763 124.92 57.9995 132.563 57.9995C140.205 57.9995 146.408 51.7763 146.408 44.1083C146.408 36.4404 140.205 30.2172 132.563 30.2172Z" fill="#6D3E32"/>
<path d="M116.059 44.1077C116.059 34.9951 123.48 27.5494 132.562 27.5494C141.645 27.5494 149.066 34.9951 149.066 44.1077C149.066 45.1078 148.956 45.9969 148.845 46.8859C148.956 46.5525 149.177 46.3302 149.288 45.9969C149.399 45.3301 149.399 44.7744 149.399 44.1077C149.399 34.8839 141.867 27.3271 132.673 27.3271C123.48 27.3271 115.948 34.8839 115.948 44.1077C115.948 45.1078 116.059 45.9969 116.169 46.8859C116.28 47.2193 116.502 47.4415 116.612 47.6638C116.28 46.5525 116.059 45.3301 116.059 44.1077Z" fill="#632920"/>
<path d="M148.841 46.7362C147.512 54.5152 140.755 60.5162 132.669 60.5162C124.805 60.5162 118.27 54.9597 116.609 47.6252C116.387 47.4029 116.276 47.0695 116.166 46.8473C117.495 54.8486 124.362 60.8496 132.669 60.8496C141.309 60.8496 148.398 54.2929 149.284 45.9583C149.173 46.1805 148.952 46.5139 148.841 46.7362Z" fill="#3D2110"/>
<path d="M132.563 58.0013C124.921 58.0013 118.718 51.7781 118.718 44.1101C118.718 36.4422 124.921 30.219 132.563 30.219C140.206 30.219 146.409 36.4422 146.409 44.1101C146.409 51.7781 140.206 58.0013 132.563 58.0013ZM132.563 32.1082C125.918 32.1082 120.601 37.5535 120.601 44.1101C120.601 50.7779 126.028 56.1121 132.563 56.1121C139.099 56.1121 144.526 50.6668 144.526 44.1101C144.526 37.4424 139.099 32.1082 132.563 32.1082Z" fill="#7F7F7F"/>
<path d="M132.564 30.1111C124.81 30.1111 118.607 36.4454 118.607 44.1134C118.607 51.7813 124.81 58.2268 132.564 58.2268C140.317 58.2268 146.52 51.8924 146.52 44.2245C146.52 36.5566 140.206 30.1111 132.564 30.1111ZM132.564 57.4489C125.253 57.4489 119.272 51.4479 119.272 44.1134C119.272 36.7788 125.253 30.7779 132.564 30.7779C139.874 30.7779 145.855 36.7788 145.855 44.1134C145.855 51.4479 139.874 57.4489 132.564 57.4489Z" fill="black"/>
<path d="M130.015 33.5556C128.686 33.7778 125.141 35.4448 124.144 37.6673C123.147 39.8899 127.357 39.6677 128.353 37.2228C129.35 34.778 131.233 34.1112 131.122 33.7778C130.901 33.3333 130.015 33.5556 130.015 33.5556Z" fill="white"/>
<path d="M137.658 53.1156C137.658 52.8933 135.775 53.8935 132.895 53.7824C129.794 53.5601 127.357 52.0043 127.468 52.4488C127.689 53.449 129.572 55.0048 132.12 55.3382C134.668 55.5604 137.769 53.6712 137.658 53.1156Z" fill="white"/>
<path d="M132.453 28.7771C125.142 28.1103 115.063 36.1116 118.053 43.1127C118.164 34.6669 125.917 30.3329 132.453 28.7771Z" fill="#93604C"/>
<path d="M146.741 49.7798C143.972 54.225 138.655 58.1145 133.781 59.1146C139.43 60.4482 145.079 54.8917 146.741 49.7798Z" fill="#93604C"/>
</svg>
