<?xml version="1.0" encoding="UTF-8" standalone="no"?>
<!DOCTYPE svg PUBLIC "-//W3C//DTD SVG 1.1//EN" "http://www.w3.org/Graphics/SVG/1.1/DTD/svg11.dtd">
<svg width="100%" height="100%" viewBox="0 0 315 132" version="1.1" xmlns="http://www.w3.org/2000/svg" xmlns:xlink="http://www.w3.org/1999/xlink" xml:space="preserve" xmlns:serif="http://www.serif.com/" style="fill-rule:evenodd;clip-rule:evenodd;stroke-linejoin:round;stroke-miterlimit:2;">
    <rect x="86" y="22.327" width="1.16" height="21.665" style="fill-rule:nonzero;"/>
    <path d="M187.883,22.325L187.883,21.162L186.724,21.162L186.724,44.136L87.304,44.136L87.304,45.299L88.464,45.299L88.464,46.462L187.883,46.462L187.883,45.299L189.043,45.299L189.043,22.325L187.883,22.325Z" style="fill-rule:nonzero;"/>
    <rect x="87.16" y="21.162" width="1.16" height="1.163" style="fill-rule:nonzero;"/>
    <rect x="88.319" y="20" width="98.26" height="1.163" style="fill-rule:nonzero;"/>
    <rect x="103.717" y="40.731" width="1.296" height="1.296" style="fill-rule:nonzero;"/>
    <rect x="105.013" y="38.139" width="1.296" height="2.592" style="fill-rule:nonzero;"/>
    <rect x="101.126" y="36.843" width="1.296" height="2.592" style="fill-rule:nonzero;"/>
    <rect x="102.422" y="29.069" width="1.295" height="7.775" style="fill-rule:nonzero;"/>
    <rect x="90.76" y="35.548" width="1.296" height="1.296" style="fill-rule:nonzero;"/>
    <path d="M90.76,35.548L90.76,31.66L92.055,31.66L92.055,32.956L93.351,32.956L93.351,34.252L94.647,34.252L94.647,35.548L95.943,35.548L95.943,36.843L98.534,36.843L98.534,35.548L99.83,35.548L99.83,30.364L98.534,30.364L98.534,34.252L95.943,34.252L95.943,32.956L94.647,32.956L94.647,31.66L93.351,31.66L93.351,30.364L92.055,30.364L92.055,29.069L90.76,29.069L90.76,30.364L89.464,30.364L89.464,35.548L90.76,35.548Z" style="fill-rule:nonzero;"/>
    <rect x="97.239" y="29.069" width="1.296" height="1.296" style="fill-rule:nonzero;"/>
    <rect x="106.309" y="27.773" width="1.296" height="10.366" style="fill-rule:nonzero;"/>
    <rect x="105.013" y="25.181" width="1.296" height="2.592" style="fill-rule:nonzero;"/>
    <rect x="101.126" y="26.477" width="1.296" height="2.592" style="fill-rule:nonzero;"/>
    <rect x="103.717" y="23.886" width="1.296" height="1.296" style="fill-rule:nonzero;"/>
    <path d="M117.525,34.745L117.525,32.331L118.733,32.331L118.733,34.745L117.525,34.745ZM113.907,38.36L113.907,28.715L116.317,28.715L116.317,29.923L117.525,29.923L117.525,32.331L116.317,32.331L116.317,38.36L113.907,38.36ZM119.941,38.36L119.941,37.159L118.733,37.159L118.733,34.745L119.941,34.745L119.941,28.715L122.351,28.715L122.351,38.36L119.941,38.36Z" style="fill-rule:nonzero;"/>
    <path d="M123.559,38.36L123.559,28.715L129.593,28.715L129.593,29.923L125.969,29.923L125.969,32.331L128.385,32.331L128.385,33.538L125.969,33.538L125.969,38.36L123.559,38.36Z" style="fill-rule:nonzero;"/>
    <path d="M133.206,38.36L133.206,37.159L131.998,37.159L131.998,35.952L130.796,35.952L130.796,31.13L131.998,31.13L131.998,29.923L133.206,29.923L133.206,28.715L138.032,28.715L138.032,29.923L139.24,29.923L139.24,32.331L138.032,32.331L138.032,31.13L136.83,31.13L136.83,29.923L134.414,29.923L134.414,31.13L133.206,31.13L133.206,35.952L134.414,35.952L134.414,37.159L136.83,37.159L136.83,35.952L138.032,35.952L138.032,34.745L139.24,34.745L139.24,37.159L138.032,37.159L138.032,38.36L133.206,38.36Z" style="fill-rule:nonzero;"/>
    <rect x="92.119" y="50.93" width="64.388" height="19.048"/>
    <rect x="91.199" y="52.939" width="0.92" height="15.038"/>
    <path d="M99.506,62.932L99.506,58.221L100.449,58.221L100.449,62.932L99.506,62.932ZM95.734,63.874L95.734,57.279L99.506,57.279L99.506,58.221L96.677,58.221L96.677,62.932L99.506,62.932L99.506,63.874L95.734,63.874Z" style="fill:rgb(255,130,0);fill-rule:nonzero;"/>
    <path d="M102.334,63.874L102.334,62.932L104.22,62.932L104.22,63.874L102.334,63.874ZM101.391,62.932L101.391,60.105L102.334,60.105L102.334,61.047L104.22,61.047L104.22,60.105L105.163,60.105L105.163,61.99L102.334,61.99L102.334,62.932L101.391,62.932ZM102.334,60.105L102.334,59.163L104.22,59.163L104.22,60.105L102.334,60.105Z" style="fill:rgb(255,130,0);fill-rule:nonzero;"/>
    <path d="M107.049,63.874L107.049,60.105L106.106,60.105L106.106,59.163L107.049,59.163L107.049,57.279L107.991,57.279L107.991,59.163L108.934,59.163L108.934,60.105L107.991,60.105L107.991,63.874L107.049,63.874Z" style="fill:rgb(255,130,0);fill-rule:nonzero;"/>
    <path d="M110.82,63.874L110.82,62.932L112.706,62.932L112.706,63.874L110.82,63.874ZM109.877,62.932L109.877,60.105L110.82,60.105L110.82,61.047L112.706,61.047L112.706,60.105L113.649,60.105L113.649,61.99L110.82,61.99L110.82,62.932L109.877,62.932ZM110.82,60.105L110.82,59.163L112.706,59.163L112.706,60.105L110.82,60.105Z" style="fill:rgb(255,130,0);fill-rule:nonzero;"/>
    <path d="M115.534,63.874L115.534,62.932L117.42,62.932L117.42,63.874L115.534,63.874ZM117.42,62.932L117.42,61.99L118.363,61.99L118.363,62.932L117.42,62.932ZM114.591,62.932L114.591,60.105L115.534,60.105L115.534,62.932L114.591,62.932ZM117.42,61.047L117.42,60.105L118.363,60.105L118.363,61.047L117.42,61.047ZM115.534,60.105L115.534,59.163L117.42,59.163L117.42,60.105L115.534,60.105Z" style="fill:rgb(255,130,0);fill-rule:nonzero;"/>
    <path d="M120.249,63.874L120.249,60.105L119.306,60.105L119.306,59.163L120.249,59.163L120.249,57.279L121.191,57.279L121.191,59.163L122.134,59.163L122.134,60.105L121.191,60.105L121.191,63.874L120.249,63.874Z" style="fill:rgb(255,130,0);fill-rule:nonzero;"/>
    <path d="M128.734,63.874L128.734,62.932L129.677,62.932L129.677,63.874L128.734,63.874ZM127.791,62.932L127.791,61.99L128.734,61.99L128.734,62.932L127.791,62.932ZM128.734,60.105L128.734,58.221L129.677,58.221L129.677,60.105L128.734,60.105ZM124.963,63.874L124.963,57.279L128.734,57.279L128.734,58.221L125.906,58.221L125.906,60.105L128.734,60.105L128.734,61.047L127.791,61.047L127.791,61.99L126.849,61.99L126.849,61.047L125.906,61.047L125.906,63.874L124.963,63.874Z" style="fill:rgb(255,130,0);fill-rule:nonzero;"/>
    <path d="M131.563,63.874L131.563,62.932L133.449,62.932L133.449,63.874L131.563,63.874ZM130.62,62.932L130.62,60.105L131.563,60.105L131.563,61.047L133.449,61.047L133.449,60.105L134.391,60.105L134.391,61.99L131.563,61.99L131.563,62.932L130.62,62.932ZM131.563,60.105L131.563,59.163L133.449,59.163L133.449,60.105L131.563,60.105Z" style="fill:rgb(255,130,0);fill-rule:nonzero;"/>
    <path d="M135.334,62.932L135.334,60.105L136.277,60.105L136.277,62.932L135.334,62.932ZM136.277,63.874L136.277,62.932L138.163,62.932L138.163,60.105L136.277,60.105L136.277,59.163L139.106,59.163L139.106,63.874L136.277,63.874Z" style="fill:rgb(255,130,0);fill-rule:nonzero;"/>
    <path d="M140.049,62.932L140.049,60.105L140.991,60.105L140.991,62.932L140.049,62.932ZM140.991,63.874L140.991,62.932L142.877,62.932L142.877,60.105L140.991,60.105L140.991,59.163L142.877,59.163L142.877,57.279L143.82,57.279L143.82,63.874L140.991,63.874Z" style="fill:rgb(255,130,0);fill-rule:nonzero;"/>
    <path d="M145.706,63.874L145.706,62.932L147.591,62.932L147.591,63.874L145.706,63.874ZM144.763,62.932L144.763,60.105L145.706,60.105L145.706,61.047L147.591,61.047L147.591,60.105L148.534,60.105L148.534,61.99L145.706,61.99L145.706,62.932L144.763,62.932ZM145.706,60.105L145.706,59.163L147.591,59.163L147.591,60.105L145.706,60.105Z" style="fill:rgb(255,130,0);fill-rule:nonzero;"/>
    <path d="M149.477,63.874L149.477,59.163L152.306,59.163L152.306,60.105L150.42,60.105L150.42,63.874L149.477,63.874Z" style="fill:rgb(255,130,0);fill-rule:nonzero;"/>
    <path d="M155.826,54.748L155.826,57.648C155.826,68.653 164.748,77.576 175.753,77.576L176.633,77.576C187.153,77.576 195.681,69.048 195.681,58.528C195.681,48.008 187.153,39.48 176.633,39.48L171.094,39.48C162.662,39.48 155.826,46.316 155.826,54.748Z" style="fill:rgb(255,162,13);fill-rule:nonzero;"/>
    <path d="M157.448,67.977L189.621,67.977L187.303,67.977L188.607,67.977L186.868,67.977L189.621,67.977L186.723,67.977L189.476,67.977L187.158,67.977L188.462,67.977L186.723,67.977L189.476,67.977L186.868,67.977L188.172,67.977L185.853,67.977L189.476,67.977L187.303,67.977L188.607,67.977L186.868,67.977L189.621,67.977L187.303,67.977L191.361,67.977L191.361,66.668L192.665,66.668L192.665,50.237L191.361,50.237L191.361,48.929L187.303,48.929L189.621,48.929L186.868,48.929L188.607,48.929L187.303,48.929L189.621,48.929L185.998,48.929L188.317,48.929L187.013,48.929L189.621,48.929L186.868,48.929L188.607,48.929L187.303,48.929L189.621,48.929L186.868,48.929L189.766,48.929L187.013,48.929L188.752,48.929L187.303,48.929L189.621,48.929L157.448,48.929" style="fill:rgb(18,17,18);fill-rule:nonzero;"/>
    <path d="M187.739,70.447C186.869,71.319 186.869,72.628 187.739,73.5L200.058,85.86C200.927,86.732 202.231,86.732 203.101,85.86C203.971,84.987 203.971,83.679 203.101,82.806L190.782,70.447C189.913,69.574 188.608,69.574 187.739,70.447Z" style="fill:rgb(109,62,50);fill-rule:nonzero;"/>
    <path d="M194.115,73.933C193.825,73.642 193.39,73.497 193.1,73.061C192.375,72.915 192.086,73.788 191.796,74.224C191.506,74.951 190.347,75.242 190.202,75.969C190.781,76.405 191.361,76.987 191.941,77.568C192.375,76.696 192.52,75.242 193.535,75.096C193.825,74.951 193.97,74.951 194.26,74.951C194.549,74.951 194.694,74.805 194.839,74.66C194.549,74.369 194.404,74.078 194.115,73.933Z" style="fill:rgb(81,38,25);fill-rule:nonzero;"/>
    <path d="M201.507,86.73C200.927,86.73 200.347,86.439 199.913,86.003L187.594,73.643C186.724,72.771 186.724,71.317 187.594,70.299C188.029,69.863 188.608,69.572 189.188,69.572C189.768,69.572 190.348,69.863 190.782,70.299L203.101,82.658C203.971,83.531 203.971,84.985 203.101,86.003C202.811,86.439 202.087,86.73 201.507,86.73ZM189.188,70.008C188.608,70.008 188.174,70.154 187.884,70.59C187.159,71.317 187.159,72.48 187.884,73.353L200.203,85.712C200.927,86.439 202.087,86.439 202.956,85.712C203.681,84.985 203.681,83.822 202.956,82.949L190.637,70.59C190.203,70.299 189.768,70.008 189.188,70.008Z" style="fill:rgb(61,33,16);fill-rule:nonzero;"/>
    <path d="M175.709,81.205C163.681,81.205 153.971,71.463 153.971,59.394C153.971,47.326 163.681,37.584 175.709,37.584C187.738,37.584 197.448,47.326 197.448,59.394C197.448,71.463 187.593,81.205 175.709,81.205ZM175.709,41.219C165.71,41.219 157.594,49.361 157.594,59.394C157.594,69.427 165.71,77.57 175.709,77.57C185.709,77.57 193.825,69.427 193.825,59.394C193.825,49.361 185.709,41.219 175.709,41.219Z" style="fill:rgb(109,62,50);fill-rule:nonzero;"/>
    <path d="M154.115,59.394C154.115,47.47 163.825,37.728 175.709,37.728C187.593,37.728 197.303,47.47 197.303,59.394C197.303,60.702 197.158,61.865 197.013,63.029C197.158,62.592 197.448,62.301 197.593,61.865C197.738,60.993 197.738,60.266 197.738,59.394C197.738,47.325 187.883,37.437 175.854,37.437C163.825,37.437 153.97,47.325 153.97,59.394C153.97,60.702 154.115,61.865 154.26,63.029C154.405,63.465 154.695,63.756 154.84,64.046C154.405,62.592 154.115,60.993 154.115,59.394Z" style="fill:rgb(99,41,32);fill-rule:nonzero;"/>
    <path d="M197.008,62.833C195.269,73.011 186.429,80.863 175.849,80.863C165.559,80.863 157.008,73.593 154.835,63.996C154.545,63.705 154.4,63.269 154.255,62.978C155.994,73.447 164.979,81.299 175.849,81.299C187.153,81.299 196.428,72.72 197.588,61.815C197.443,62.106 197.153,62.542 197.008,62.833Z" style="fill:rgb(61,33,16);fill-rule:nonzero;"/>
    <path d="M175.71,77.572C165.71,77.572 157.595,69.43 157.595,59.397C157.595,49.364 165.71,41.221 175.71,41.221C185.71,41.221 193.826,49.364 193.826,59.397C193.826,69.43 185.71,77.572 175.71,77.572ZM175.71,43.693C167.015,43.693 160.058,50.818 160.058,59.397C160.058,68.121 167.16,75.101 175.71,75.101C184.261,75.101 191.362,67.976 191.362,59.397C191.362,50.673 184.261,43.693 175.71,43.693Z" style="fill:rgb(127,127,127);fill-rule:nonzero;"/>
    <path d="M175.711,41.08C165.566,41.08 157.45,49.368 157.45,59.401C157.45,69.434 165.566,77.868 175.711,77.868C185.855,77.868 193.971,69.579 193.971,59.547C193.971,49.514 185.71,41.08 175.711,41.08ZM175.711,76.85C166.145,76.85 158.319,68.998 158.319,59.401C158.319,49.804 166.145,41.953 175.711,41.953C185.276,41.953 193.102,49.804 193.102,59.401C193.102,68.998 185.276,76.85 175.711,76.85Z" style="fill-rule:nonzero;"/>
    <path d="M172.376,45.587C170.637,45.878 165.999,48.059 164.695,50.967C163.39,53.875 168.897,53.584 170.202,50.385C171.506,47.186 173.97,46.314 173.825,45.878C173.535,45.296 172.376,45.587 172.376,45.587Z" style="fill:rgb(79,74,84);fill-rule:nonzero;"/>
    <path d="M182.376,71.18C182.376,70.889 179.913,72.198 176.145,72.052C172.087,71.761 168.898,69.726 169.043,70.307C169.333,71.616 171.797,73.652 175.13,74.088C178.463,74.379 182.521,71.907 182.376,71.18Z" style="fill:rgb(79,74,84);fill-rule:nonzero;"/>
    <path d="M175.565,39.335C166,38.462 152.812,48.931 156.725,58.092C156.87,47.041 167.015,41.37 175.565,39.335Z" style="fill:rgb(147,96,76);fill-rule:nonzero;"/>
    <path d="M194.26,66.815C190.637,72.631 183.68,77.721 177.304,79.029C184.695,80.774 192.086,73.504 194.26,66.815Z" style="fill:rgb(147,96,76);fill-rule:nonzero;"/>
</svg>
