<svg width="73" height="31" viewBox="0 0 73 31" fill="none" xmlns="http://www.w3.org/2000/svg">
<path d="M12.5097 3.324C13.3582 2.17678 14.7006 1.5 16.1275 1.5H60.5658C62.007 1.5 63.3611 2.19031 64.2076 3.35667L65.4119 2.48256L64.2076 3.35668L70.6418 12.2213C71.1996 12.9898 71.5 13.915 71.5 14.8646V25C71.5 27.4853 69.4853 29.5 67 29.5H15.6123C14.408 29.5 13.2539 29.0173 12.4083 28.1598L4.67212 20.3155C3.11592 18.7376 2.94032 16.2615 4.25824 14.4797L12.5097 3.324Z" stroke="#589DFF" stroke-width="3"/>
<g clip-path="url(#clip0_365_353)">
<path fill-rule="evenodd" clip-rule="evenodd" d="M43.4104 19.732L43.391 19.7646L43.3383 19.8404L43.2776 19.9118L38.733 24.7656C38.1853 25.3505 37.2657 24.9797 37.1867 24.1895L37.1813 24.0791L37.1813 17.3605L34.1134 19.9834C33.7214 20.3183 33.1494 20.2504 32.8358 19.8318C32.5463 19.4453 32.5782 18.8951 32.8932 18.5493L32.9778 18.4673L36.635 15.3423L32.9778 12.2173C32.5858 11.8824 32.5222 11.2715 32.8358 10.8529C33.1253 10.4664 33.6349 10.3789 34.0199 10.6311L34.1134 10.7013L37.1813 13.3232L37.1813 6.60552C37.1813 5.77827 38.0771 5.34602 38.6561 5.84519L38.733 5.91909L43.2776 10.7729C43.3207 10.8189 43.3585 10.8682 43.391 10.9201L43.4163 10.9627L43.4569 11.044L43.5021 11.1677C43.5972 11.5 43.5254 11.8669 43.2961 12.1257L43.2027 12.2173L39.5445 15.3423L43.2027 18.4673C43.4445 18.6739 43.5595 18.9824 43.5422 19.2853C43.5364 19.3801 43.5191 19.4697 43.4897 19.5562L43.4569 19.6406L43.4104 19.732ZM38.9987 17.3613V21.7335L41.2729 19.3047L38.9987 17.3613ZM38.9987 13.3223V8.95004L41.2729 11.3789L38.9987 13.3223Z" fill="#589DFF"/>
</g>
<defs>
<clipPath id="clip0_365_353">
<rect width="18.25" height="19.7273" fill="white" transform="translate(29.4807 5.63281)"/>
</clipPath>
</defs>
</svg>
