<svg width="331" height="178" viewBox="0 0 331 178" fill="none" xmlns="http://www.w3.org/2000/svg">
<rect x="2" y="2" width="327" height="174" rx="16" stroke="black" stroke-width="3"/>
<rect x="6" y="6" width="319" height="166" rx="12" fill="#DFDFDF"/>
<path fill-rule="evenodd" clip-rule="evenodd" d="M138.799 55.8167H192.836C194.157 55.8167 195.393 56.4693 196.139 57.5604L198.581 61.135L199.761 59.3168L197.79 56.4323C196.672 54.7956 194.818 53.8167 192.836 53.8167H138.799C136.983 53.8167 135.265 54.6391 134.126 56.0535L121.406 71.8495C119.433 74.3001 119.687 77.8588 121.99 80.0032L134.199 91.3746C135.31 92.4089 136.771 92.984 138.288 92.984H177.911L179.209 90.984H138.288C137.277 90.984 136.302 90.6006 135.562 89.911L123.353 78.5397C121.818 77.1101 121.648 74.7376 122.964 73.1038L135.683 57.3079C136.443 56.365 137.588 55.8167 138.799 55.8167Z" fill="#616161"/>
<path fill-rule="evenodd" clip-rule="evenodd" d="M161.478 73.6612L155.894 68.993C155.438 68.6117 155.379 67.934 155.762 67.4793C156.145 67.0246 156.825 66.965 157.281 67.3464L171.3 79.0662C171.756 79.4475 171.815 80.1253 171.432 80.58C171.049 81.0347 170.369 81.0942 169.913 80.7129L168.133 79.2252L164.16 83.1362C163.546 83.7406 162.516 83.3575 162.427 82.541L162.421 82.4271L162.421 75.4858L158.982 78.1956C158.543 78.5416 157.902 78.4715 157.55 78.0389C157.226 77.6397 157.262 77.0712 157.615 76.714L157.709 76.6293L161.478 73.6612ZM164.461 76.1548V79.9962L166.571 77.9189L164.461 76.1548ZM162.421 64.3743L162.421 68.8789L164.461 70.5841V66.7913L167.01 69.3006L164.907 70.9571L166.491 72.2817L169.171 70.1721L169.275 70.0774C169.532 69.8101 169.613 69.4311 169.506 69.0877L169.455 68.9599L169.41 68.876L169.382 68.8319C169.345 68.7783 169.303 68.7273 169.254 68.6798L164.16 63.6652L164.074 63.5888C163.425 63.0731 162.421 63.5197 162.421 64.3743Z" fill="#616161"/>
<path d="M201.23 66.0602C202.419 64.2995 205.012 64.2995 206.201 66.0602L223.265 91.3175C224.612 93.3099 223.184 95.997 220.78 95.997H186.651C184.247 95.997 182.819 93.3099 184.165 91.3175L201.23 66.0602Z" fill="#F63F3F"/>
<ellipse cx="203.715" cy="88.5241" rx="1.60562" ry="1.60076" fill="white"/>
<rect x="202.109" y="73.0552" width="3.21124" height="10.6718" rx="1.60562" fill="white"/>
<path d="M101.591 130V117.317H103.366L109.888 126.546H110.02V117.317H111.936V130H110.16L103.647 120.789H103.507V130H101.591ZM118.949 130.185C116.146 130.185 114.432 128.312 114.432 125.236V125.219C114.432 122.151 116.154 120.271 118.949 120.271C121.735 120.271 123.458 122.143 123.458 125.219V125.236C123.458 128.312 121.744 130.185 118.949 130.185ZM118.949 128.594C120.584 128.594 121.516 127.346 121.516 125.236V125.219C121.516 123.101 120.584 121.861 118.949 121.861C117.306 121.861 116.383 123.101 116.383 125.219V125.236C116.383 127.354 117.306 128.594 118.949 128.594ZM129.338 130.062C127.237 130.062 126.376 129.323 126.376 127.486V121.958H124.882V120.455H126.376V118.047H128.318V120.455H130.366V121.958H128.318V127.029C128.318 128.058 128.705 128.479 129.646 128.479C129.936 128.479 130.103 128.471 130.366 128.444V129.965C130.059 130.018 129.707 130.062 129.338 130.062ZM142.935 130.308C139.41 130.308 137.213 127.759 137.213 123.672V123.654C137.213 119.559 139.401 117.01 142.926 117.01C145.721 117.01 147.865 118.776 148.199 121.299L148.19 121.343H146.239V121.316C145.87 119.761 144.596 118.75 142.926 118.75C140.649 118.75 139.226 120.64 139.226 123.654V123.672C139.226 126.678 140.649 128.567 142.935 128.567C144.613 128.567 145.87 127.671 146.23 126.238L146.248 126.203H148.199V126.256C147.83 128.69 145.765 130.308 142.935 130.308ZM154.615 130.185C151.812 130.185 150.098 128.312 150.098 125.236V125.219C150.098 122.151 151.82 120.271 154.615 120.271C157.401 120.271 159.124 122.143 159.124 125.219V125.236C159.124 128.312 157.41 130.185 154.615 130.185ZM154.615 128.594C156.25 128.594 157.182 127.346 157.182 125.236V125.219C157.182 123.101 156.25 121.861 154.615 121.861C152.972 121.861 152.049 123.101 152.049 125.219V125.236C152.049 127.354 152.972 128.594 154.615 128.594ZM161.4 130V120.455H163.308V121.905H163.448C163.914 120.886 164.828 120.271 166.217 120.271C168.353 120.271 169.53 121.545 169.53 123.821V130H167.632V124.27C167.632 122.688 166.973 121.905 165.575 121.905C164.178 121.905 163.308 122.863 163.308 124.401V130H161.4ZM172.193 130V120.455H174.101V121.905H174.241C174.707 120.886 175.621 120.271 177.01 120.271C179.146 120.271 180.323 121.545 180.323 123.821V130H178.425V124.27C178.425 122.688 177.766 121.905 176.368 121.905C174.971 121.905 174.101 122.863 174.101 124.401V130H172.193ZM186.994 130.185C184.199 130.185 182.512 128.277 182.512 125.254V125.245C182.512 122.266 184.234 120.271 186.897 120.271C189.561 120.271 191.195 122.195 191.195 125.061V125.729H184.428C184.463 127.557 185.465 128.62 187.038 128.62C188.26 128.62 188.989 128.014 189.218 127.521L189.253 127.451L191.09 127.442L191.072 127.521C190.756 128.778 189.438 130.185 186.994 130.185ZM186.906 121.835C185.605 121.835 184.621 122.723 184.454 124.366H189.306C189.156 122.661 188.198 121.835 186.906 121.835ZM197.479 130.185C194.693 130.185 192.988 128.286 192.988 125.201V125.184C192.988 122.16 194.685 120.271 197.471 120.271C199.87 120.271 201.303 121.624 201.566 123.479V123.522L199.738 123.531L199.729 123.505C199.519 122.564 198.745 121.861 197.479 121.861C195.889 121.861 194.931 123.127 194.931 125.184V125.201C194.931 127.311 195.906 128.594 197.479 128.594C198.675 128.594 199.413 128.049 199.721 127.021L199.738 126.977H201.566L201.549 127.056C201.206 128.91 199.844 130.185 197.479 130.185ZM207.473 130.062C205.372 130.062 204.511 129.323 204.511 127.486V121.958H203.017V120.455H204.511V118.047H206.453V120.455H208.501V121.958H206.453V127.029C206.453 128.058 206.84 128.479 207.78 128.479C208.07 128.479 208.237 128.471 208.501 128.444V129.965C208.193 130.018 207.842 130.062 207.473 130.062ZM214.627 130.185C211.832 130.185 210.145 128.277 210.145 125.254V125.245C210.145 122.266 211.867 120.271 214.53 120.271C217.193 120.271 218.828 122.195 218.828 125.061V125.729H212.061C212.096 127.557 213.098 128.62 214.671 128.62C215.893 128.62 216.622 128.014 216.851 127.521L216.886 127.451L218.723 127.442L218.705 127.521C218.389 128.778 217.07 130.185 214.627 130.185ZM214.539 121.835C213.238 121.835 212.254 122.723 212.087 124.366H216.938C216.789 122.661 215.831 121.835 214.539 121.835ZM224.576 130.158C222.177 130.158 220.621 128.233 220.621 125.236V125.219C220.621 122.195 222.15 120.288 224.576 120.288C225.886 120.288 227.002 120.938 227.512 121.967H227.661V116.711H229.56V130H227.661V128.497H227.512C226.958 129.543 225.912 130.158 224.576 130.158ZM225.121 128.532C226.712 128.532 227.688 127.275 227.688 125.236V125.219C227.688 123.18 226.703 121.923 225.121 121.923C223.521 121.923 222.563 123.171 222.563 125.219V125.236C222.563 127.284 223.521 128.532 225.121 128.532Z" fill="#616161"/>
<rect x="6" y="6" width="319" height="166" rx="12" stroke="black" stroke-width="2"/>
</svg>
