<svg width="297" height="297" viewBox="0 0 297 297" fill="none" xmlns="http://www.w3.org/2000/svg">
<path d="M235.657 187.658H231.817H227.977H224.137V191.498H227.977H231.817H235.657H239.497H243.337V187.658H239.497H235.657Z" fill="black"/>
<path d="M120.459 187.658H116.619V191.498H120.459H124.299V187.658H120.459Z" fill="black"/>
<path d="M47.5 187.658H43.6601V191.498H47.5V187.658Z" fill="black"/>
<path d="M39.8201 187.658H35.9802V191.498H39.8201V187.658Z" fill="black"/>
<path d="M32.1403 187.658H28.3003V191.498H32.1403V187.658Z" fill="black"/>
<path d="M251.017 183.818H247.177V179.978H243.337H239.497V183.818H243.337V187.658H247.177H251.017H254.857H258.697V183.818H254.857H251.017Z" fill="black"/>
<path d="M116.619 183.818H112.779V187.658H116.619V183.818Z" fill="black"/>
<path d="M51.34 183.818H47.5V187.658H51.34V183.818Z" fill="black"/>
<path d="M43.6601 183.818H39.8202V187.658H43.6601V183.818Z" fill="black"/>
<path d="M35.9802 183.818H32.1403V187.658H35.9802V183.818Z" fill="black"/>
<path d="M28.3003 183.818H24.4604V187.658H28.3003V183.818Z" fill="black"/>
<path d="M262.537 179.978H258.697V183.818H262.537H266.377H270.216V179.978H266.377H262.537Z" fill="black"/>
<path d="M55.1799 179.978H51.34V183.818H55.1799V179.978Z" fill="black"/>
<path d="M47.5 179.978H43.6601V183.818H47.5V179.978Z" fill="black"/>
<path d="M39.8201 179.978H35.9802V183.818H39.8201V179.978Z" fill="black"/>
<path d="M32.1403 179.978H28.3003V183.818H32.1403V179.978Z" fill="black"/>
<path d="M24.4604 179.978H20.6205V183.818H24.4604V179.978Z" fill="black"/>
<path d="M270.216 176.138V179.978H274.056H277.896V176.138H274.056H270.216Z" fill="black"/>
<path d="M235.657 179.978H239.497V176.138H235.657H231.817V179.978H235.657Z" fill="black"/>
<path d="M51.34 176.138H47.5V179.978H51.34V176.138Z" fill="black"/>
<path d="M43.6601 176.138H39.8202V179.978H43.6601V176.138Z" fill="black"/>
<path d="M35.9802 176.138H32.1403V179.978H35.9802V176.138Z" fill="black"/>
<path d="M28.3003 176.138H24.4604V179.978H28.3003V176.138Z" fill="black"/>
<path d="M20.6205 176.138H16.7805V179.978H20.6205V176.138Z" fill="black"/>
<path d="M285.576 172.298V168.458H281.736H277.896H274.056H270.216H266.376H262.537H258.697H254.857H251.017H247.177H243.337H239.497H235.657H231.817H227.977H224.137H220.297V164.618H224.137V160.778H227.977V156.938H231.817V153.098H235.657V149.258H239.497V145.418H243.337V141.578H247.177V137.739H251.017V133.899H254.857V130.059H258.697V126.219H262.537V122.379H266.376V118.539H270.216V114.699H274.056V110.859H277.896V107.019H281.736V103.179V99.3392V95.4993V91.6593H277.896V87.8194H274.056H270.216H266.376V83.9794H262.537H258.697H254.857H251.017H247.177H243.337H239.497H235.657H231.817V87.8194H227.977H224.137V91.6593H220.297H216.457V95.4993H212.617H208.777V91.6593H204.937V87.8194V83.9794H201.098V80.1395V76.2996H197.258V72.4596H193.418V68.6197H189.578V64.7798H185.738V60.9398H181.898H178.058V57.0999H174.218H170.378V53.2599H166.538H162.698H158.858V49.42H155.018H151.178H147.338H143.498H139.659V45.5801H135.819H131.979H128.139H124.299H120.459H116.619H112.779H108.939H105.099H101.259H97.4192H93.5793H89.7393H85.8994H82.0595V49.42H78.2195H74.3796H70.5396H66.6997V53.2599H62.8598H59.0198H55.1799V57.0999H51.34V60.9398H47.5H43.6601V64.7798H39.8201H35.9802V68.6197H32.1403V72.4596H28.3003V76.2996H24.4604V80.1395H20.6205V83.9794H16.7805V87.8194V91.6593H12.9406V95.4993V99.3392H9.10065V103.179V107.019V110.859H12.9406V107.019V103.179H16.7805V99.3392V95.4993H20.6205V91.6593V87.8194H24.4604V83.9794H28.3003V80.1395H32.1403V76.2996H35.9802V72.4596H39.8201V68.6197H43.6601H47.5V64.7798H51.34H55.1799V60.9398H59.0198H62.8598H66.6997H70.5396H74.3796H78.2195H82.0595H85.8994H89.7393H93.5793H97.4192H101.259V57.0999H97.4192H93.5793H89.7393H85.8994H82.0595H78.2195H74.3796H70.5396V53.2599H74.3796H78.2195H82.0595H85.8994V49.42H89.7393H93.5793H97.4192H101.259H105.099H108.939H112.779H116.619H120.459H124.299H128.139H131.979H135.819V53.2599H139.659V57.0999H143.498V53.2599H147.338V57.0999H151.178H155.018H158.858H162.698H166.538V60.9398V64.7798H170.378H174.218H178.058H181.898V68.6197H185.738V72.4596H189.578V76.2996H193.418V80.1395H197.258V83.9794V87.8194V91.6593H193.418V95.4993H197.258H201.098H204.937V99.3392V103.179H208.777H212.617V99.3392H216.457H220.297V95.4993H224.137H227.977V91.6593H231.817H235.657V87.8194H239.497H243.337H247.177H251.017H254.857H258.697H262.537V91.6593H266.376H270.216H274.056V95.4993H277.896V99.3392H274.056H270.216H266.376H262.537V103.179H258.697H254.857H251.017V107.019H247.177H243.337V110.859H239.497H235.657V114.699H231.817V118.539H227.977V122.379H224.137V126.219H220.297V130.059H216.457V133.899H212.617V137.739H208.777V141.578H204.937V145.418H201.098V149.258H197.258V153.098H193.418V156.938H189.578V160.778H185.738V164.618H181.898V168.458H178.058V172.298H174.218V176.138H170.378V179.978H166.538H162.698V183.818H158.858H155.018V187.658H151.178H147.338H143.498V191.498H139.659H135.819H131.979H128.139H124.299V195.338H128.139H131.979H135.819H139.659H143.498H147.338H151.178H155.018H158.858H162.698H166.538H170.378H174.218H178.058H181.898H185.738H189.578H193.418H197.258H201.098H204.937H208.777H212.617H216.457H220.297H224.137V191.498H220.297H216.457H212.617H208.777H204.937H201.098H197.258H193.418H189.578H185.738H181.898H178.058V187.658V183.818H181.898V179.978H185.738V176.138H189.578V172.298H193.418H197.258H201.098H204.937H208.777H212.617H216.457V176.138H220.297H224.137H227.977H231.817V172.298H235.657H239.497H243.337H247.177H251.017H254.857H258.697H262.537H266.376H270.216H274.056H277.896V176.138H281.736H285.576V179.978V183.818V187.658H281.736V191.498H277.896V195.338H274.056V199.178H270.216V203.018H266.376H262.537V206.857H258.697H254.857H251.017V210.697H247.177H243.337H239.497V214.537H235.657H231.817H227.977V218.377H224.137H220.297H216.457H212.617V222.217H208.777H204.937H201.098H197.258V226.057H193.418H189.578H185.738V229.897H181.898V233.737H185.738H189.578H193.418H197.258H201.098H204.937H208.777V229.897H212.617H216.457V226.057V222.217H220.297H224.137H227.977H231.817V218.377H235.657H239.497H243.337V214.537H247.177H251.017H254.857V210.697H258.697H262.537H266.376V206.857H270.216H274.056V203.018H277.896V199.178H281.736V195.338H285.576V191.498H289.416V187.658V183.818V179.978V176.138V172.298H285.576Z" fill="black"/>
<path d="M47.5 172.298H43.6601V176.138H47.5V172.298Z" fill="black"/>
<path d="M39.8201 172.298H35.9802V176.138H39.8201V172.298Z" fill="black"/>
<path d="M32.1403 172.298H28.3003V176.138H32.1403V172.298Z" fill="black"/>
<path d="M24.4604 172.298H20.6205V176.138H24.4604V172.298Z" fill="black"/>
<path d="M43.6601 168.458H39.8202V172.298H43.6601V168.458Z" fill="black"/>
<path d="M35.9802 168.458H32.1403V172.298H35.9802V168.458Z" fill="black"/>
<path d="M28.3003 168.458H24.4604V172.298H28.3003V168.458Z" fill="black"/>
<path d="M20.6205 168.458H16.7805V172.298H20.6205V168.458Z" fill="black"/>
<path d="M39.8201 164.618H35.9802V168.458H39.8201V164.618Z" fill="black"/>
<path d="M32.1403 164.618H28.3003V168.458H32.1403V164.618Z" fill="black"/>
<path d="M24.4604 164.618H20.6205V168.458H24.4604V164.618Z" fill="black"/>
<path d="M59.0198 160.778H55.1799V164.618H59.0198V160.778Z" fill="black"/>
<path d="M39.8202 160.778V164.618H43.6601V168.458H47.5V172.298H51.34V176.138H55.1799V179.978H59.0198V183.818H62.8598V179.978V176.138V172.298H66.6997V168.458V164.618H62.8598H59.0198V168.458V172.298H55.1799V168.458H51.34V164.618H47.5V160.778V156.938H43.6601V160.778H39.8202Z" fill="black"/>
<path d="M35.9802 160.778H32.1403V164.618H35.9802V160.778Z" fill="black"/>
<path d="M28.3003 160.778H24.4604V164.618H28.3003V160.778Z" fill="black"/>
<path d="M20.6205 160.778H16.7805V164.618H20.6205V160.778Z" fill="black"/>
<path d="M39.8201 156.938H35.9802V160.778H39.8201V156.938Z" fill="black"/>
<path d="M32.1403 156.938H28.3003V160.778H32.1403V156.938Z" fill="black"/>
<path d="M24.4604 156.938H20.6205V160.778H24.4604V156.938Z" fill="black"/>
<path d="M55.1799 153.098H51.34V156.938V160.778H55.1799V156.938V153.098Z" fill="black"/>
<path d="M35.9802 153.098H32.1403V156.938H35.9802V153.098Z" fill="black"/>
<path d="M28.3003 153.098H24.4604V156.938H28.3003V153.098Z" fill="black"/>
<path d="M108.939 149.258V145.418V141.579V137.739V133.899V130.059H105.099V126.219V122.379H101.259V118.539H97.4192H93.5793V114.699H89.7393H85.8994H82.0595H78.2195H74.3796V118.539H70.5397H66.6997V122.379H62.8598V126.219V130.059H59.0198V133.899V137.739V141.579V145.418V149.258H62.8598V153.098V156.938H66.6997V160.778V164.618H70.5397V160.778H74.3796H78.2195V156.938H82.0595H85.8994H89.7393V153.098H93.5793H97.4192H101.259H105.099H108.939H112.779V149.258H108.939ZM74.3796 133.899V130.059H78.2195H82.0595V133.899V137.739H78.2195H74.3796V133.899Z" fill="black"/>
<path d="M32.1403 149.258H28.3003V153.098H32.1403V149.258Z" fill="black"/>
<path d="M128.139 145.418V141.579V137.739V133.899V130.059V126.219V122.379H124.299V126.219V130.059V133.899V137.739V141.579V145.418V149.258H128.139H131.979H135.819V145.418H131.979H128.139Z" fill="black"/>
<path d="M51.34 145.418V141.579V137.739V133.899V130.059V126.219H47.5V130.059V133.899V137.739V141.579V145.418V149.258V153.098H51.34V149.258V145.418Z" fill="black"/>
<path d="M135.819 141.578V145.418H139.659H143.498V141.578H139.659H135.819Z" fill="black"/>
<path d="M143.498 137.739V141.578H147.338H151.178V137.739H147.338H143.498Z" fill="black"/>
<path d="M151.178 133.899V137.739H155.018H158.858V133.899H155.018H151.178Z" fill="black"/>
<path d="M158.858 130.059V133.899H162.698H166.538V130.059H162.698H158.858Z" fill="black"/>
<path d="M116.619 133.899V137.739V141.578V145.418V149.258V153.098H112.779V156.938H116.619H120.459V153.098V149.258V145.418V141.578V137.739V133.899V130.059V126.219H116.619V130.059V133.899Z" fill="black"/>
<path d="M170.378 126.219H166.538V130.059H170.378V126.219Z" fill="black"/>
<path d="M170.378 122.379V126.219H174.218H178.058V122.379H174.218H170.378Z" fill="black"/>
<path d="M112.779 126.219H116.619V122.379V118.539H112.779V122.379V126.219Z" fill="black"/>
<path d="M55.1799 122.379V118.539H51.34V122.379V126.219H55.1799V122.379Z" fill="black"/>
<path d="M39.8202 126.219V130.059V133.899V137.739V141.578V145.418V149.258H35.9802V153.098H39.8202V156.938H43.6601V153.098V149.258V145.418V141.578V137.739V133.899V130.059V126.219V122.379H39.8202V126.219Z" fill="black"/>
<path d="M181.898 118.539H178.058V122.379H181.898V118.539Z" fill="black"/>
<path d="M181.898 114.699V118.539H185.738H189.578V114.699H185.738H181.898Z" fill="black"/>
<path d="M155.018 114.699H151.178H147.338V118.539H151.178H155.018H158.858H162.698V114.699H158.858H155.018Z" fill="black"/>
<path d="M124.299 114.699H120.459V118.539V122.379H124.299V118.539V114.699Z" fill="black"/>
<path d="M112.779 114.699H108.939V118.539H112.779V114.699Z" fill="black"/>
<path d="M59.0198 114.699H55.1799V118.539H59.0198V114.699Z" fill="black"/>
<path d="M43.6601 118.539V122.379H47.5V118.539V114.699H43.6601V118.539Z" fill="black"/>
<path d="M193.418 110.859H189.578V114.699H193.418V110.859Z" fill="black"/>
<path d="M162.698 110.859V114.699H166.538H170.378V110.859H166.538H162.698Z" fill="black"/>
<path d="M147.338 110.859H143.498V114.699H147.338V110.859Z" fill="black"/>
<path d="M120.459 110.859H116.619V114.699H120.459V110.859Z" fill="black"/>
<path d="M108.939 110.859H105.099V114.699H108.939V110.859Z" fill="black"/>
<path d="M62.8598 110.859H59.0198V114.699H62.8598V110.859Z" fill="black"/>
<path d="M51.34 110.859H47.5V114.699H51.34V110.859Z" fill="black"/>
<path d="M193.418 107.019V110.859H197.258H201.098V107.019H197.258H193.418Z" fill="black"/>
<path d="M170.378 107.019V110.859H174.218H178.058V107.019H174.218H170.378Z" fill="black"/>
<path d="M143.498 107.019H139.659V110.859H143.498V107.019Z" fill="black"/>
<path d="M116.619 107.019H112.779V110.859H116.619V107.019Z" fill="black"/>
<path d="M101.259 110.859H105.099V107.019H101.259H97.4192V110.859H101.259Z" fill="black"/>
<path d="M70.5396 110.859V107.019H66.6997H62.8598V110.859H66.6997H70.5396Z" fill="black"/>
<path d="M55.1799 107.019H51.34V110.859H55.1799V107.019Z" fill="black"/>
<path d="M204.937 103.179H201.098V107.019H204.937V103.179Z" fill="black"/>
<path d="M181.898 103.179H178.058V107.019H181.898V103.179Z" fill="black"/>
<path d="M78.2195 107.019H82.0595H85.8994H89.7393H93.5793H97.4192V103.179H93.5793H89.7393H85.8994H82.0595H78.2195H74.3796H70.5396V107.019H74.3796H78.2195Z" fill="black"/>
<path d="M59.0198 103.179H55.1799V107.019H59.0198V103.179Z" fill="black"/>
<path d="M181.898 99.3392V103.179H185.738H189.578V99.3392H185.738H181.898Z" fill="black"/>
<path d="M166.538 99.3392H162.698V103.179H166.538V99.3392Z" fill="black"/>
<path d="M139.659 99.3392V95.4993H135.819V99.3392V103.179V107.019H139.659V103.179V99.3392Z" fill="black"/>
<path d="M116.619 103.179V99.3392V95.4993H112.779V99.3392H108.939V95.4993H105.099V91.6593H101.259V95.4993H97.4192H93.5793H89.7393H85.8994H82.0595H78.2195H74.3796H70.5397H66.6997V99.3392H70.5397H74.3796H78.2195H82.0595H85.8994H89.7393H93.5793H97.4192H101.259V103.179H105.099H108.939V107.019H112.779V103.179H116.619Z" fill="black"/>
<path d="M59.0198 99.3392V103.179H62.8598H66.6997V99.3392H62.8598H59.0198Z" fill="black"/>
<path d="M193.418 95.4993H189.578V99.3392H193.418V95.4993Z" fill="black"/>
<path d="M162.698 95.4993H158.858V99.3392H162.698V95.4993Z" fill="black"/>
<path d="M178.058 91.6593H174.218V95.4993H178.058V91.6593Z" fill="black"/>
<path d="M158.858 91.6593H155.018V95.4993H158.858V91.6593Z" fill="black"/>
<path d="M143.498 91.6593V87.8194H139.659V91.6593V95.4993H143.498V91.6593Z" fill="black"/>
<path d="M112.779 91.6593H108.939V95.4993H112.779V91.6593Z" fill="black"/>
<path d="M174.218 87.8194H170.378V91.6593H174.218V87.8194Z" fill="black"/>
<path d="M108.939 87.8194H105.099V91.6593H108.939V87.8194Z" fill="black"/>
<path d="M189.578 83.9794H185.738V87.8194H189.578V83.9794Z" fill="black"/>
<path d="M170.378 83.9794H166.538V87.8194H170.378V83.9794Z" fill="black"/>
<path d="M147.338 83.9794H143.498V87.8194H147.338V83.9794Z" fill="black"/>
<path d="M112.779 83.9794H108.939V87.8194H112.779V83.9794Z" fill="black"/>
<path d="M185.738 80.1395H181.898V83.9794H185.738V80.1395Z" fill="black"/>
<path d="M166.538 80.1395H162.698V83.9794H166.538V80.1395Z" fill="black"/>
<path d="M151.178 80.1395H147.338V83.9794H151.178V80.1395Z" fill="black"/>
<path d="M120.459 83.9794H116.619V87.8194H112.779V91.6593H116.619V95.4992H120.459V91.6593V87.8194H124.299V83.9794V80.1395H120.459V83.9794Z" fill="black"/>
<path d="M116.619 80.1395H112.779V83.9794H116.619V80.1395Z" fill="black"/>
<path d="M108.939 80.1395H105.099V83.9794H108.939V80.1395Z" fill="black"/>
<path d="M181.898 76.2996H178.058V80.1395H181.898V76.2996Z" fill="black"/>
<path d="M155.018 76.2996H151.178V80.1395H155.018V76.2996Z" fill="black"/>
<path d="M128.139 76.2996H124.299V80.1395H128.139V76.2996Z" fill="black"/>
<path d="M120.459 76.2996H116.619V80.1395H120.459V76.2996Z" fill="black"/>
<path d="M112.779 76.2996H108.939V80.1395H112.779V76.2996Z" fill="black"/>
<path d="M178.058 72.4596H174.218V76.2996H178.058V72.4596Z" fill="black"/>
<path d="M158.858 72.4596H155.018V76.2996H158.858V72.4596Z" fill="black"/>
<path d="M124.299 72.4596H120.459V76.2996H124.299V72.4596Z" fill="black"/>
<path d="M116.619 72.4596H112.779V76.2996H116.619V72.4596Z" fill="black"/>
<path d="M162.698 68.6197H158.858V72.4596H162.698V68.6197Z" fill="black"/>
<path d="M120.459 68.6197H124.299V64.7798H120.459H116.619H112.779V68.6197H116.619V72.4596H120.459V68.6197Z" fill="black"/>
<path d="M166.538 64.7798H162.698V68.6197H166.538V64.7798Z" fill="black"/>
<path d="M139.659 64.7798H135.819V68.6197H139.659V64.7798Z" fill="black"/>
<path d="M131.979 64.7798H128.139V68.6197H124.299V72.4596H128.139V76.2996H131.979V72.4596H135.819V68.6197H131.979V64.7798Z" fill="black"/>
<path d="M143.498 60.9398H139.659V64.7797H143.498V60.9398Z" fill="black"/>
<path d="M135.819 60.9398H131.979V64.7797H135.819V60.9398Z" fill="black"/>
<path d="M108.939 60.9398H105.099H101.259V64.7797H105.099H108.939H112.779V60.9398H108.939Z" fill="black"/>
<path d="M147.338 57.0999H143.498V60.9398H147.338V57.0999Z" fill="black"/>
<path d="M139.659 57.0999H135.819V60.9398H139.659V57.0999Z" fill="black"/>
</svg>
