<svg width="238" height="100" viewBox="0 0 238 100" fill="none" xmlns="http://www.w3.org/2000/svg">
<rect x="90.9459" y="39.7388" width="1.42372" height="1.40185" transform="rotate(90 90.9459 39.7388)" fill="black"/>
<rect x="107.067" y="39.7388" width="1.42372" height="1.40185" transform="rotate(90 107.067 39.7388)" fill="black"/>
<rect x="102.861" y="26.2166" width="1.42372" height="1.40185" transform="rotate(90 102.861 26.2166)" fill="black"/>
<rect x="107.067" y="30.4866" width="1.42372" height="1.40185" transform="rotate(90 107.067 30.4866)" fill="black"/>
<rect x="105.665" y="27.6399" width="1.40185" height="1.42372" fill="black"/>
<rect x="102.861" y="30.4866" width="1.40185" height="1.42372" fill="black"/>
<rect x="107.067" y="26.2166" width="1.40185" height="1.42372" fill="black"/>
<rect x="104.263" y="29.0632" width="1.40185" height="1.42372" fill="black"/>
<rect x="108.469" y="31.9097" width="1.42372" height="1.40185" transform="rotate(90 108.469 31.9097)" fill="black"/>
<rect x="102.861" y="31.9097" width="1.42372" height="1.40185" transform="rotate(90 102.861 31.9097)" fill="black"/>
<rect x="104.263" y="27.6399" width="1.42372" height="1.40185" transform="rotate(90 104.263 27.6399)" fill="black"/>
<rect x="89.545" y="26.2166" width="1.42372" height="1.40185" transform="rotate(90 89.545 26.2166)" fill="black"/>
<rect x="93.7506" y="30.4866" width="1.42372" height="1.40185" transform="rotate(90 93.7506 30.4866)" fill="black"/>
<rect x="92.3487" y="27.6399" width="1.40185" height="1.42372" fill="black"/>
<rect x="89.545" y="30.4866" width="1.40185" height="1.42372" fill="black"/>
<rect x="93.7506" y="26.2166" width="1.40185" height="1.42372" fill="black"/>
<rect x="90.9469" y="29.0632" width="1.40185" height="1.42372" fill="black"/>
<rect x="95.1524" y="31.9097" width="1.42372" height="1.40185" transform="rotate(90 95.1524 31.9097)" fill="black"/>
<rect x="89.545" y="31.9097" width="1.42372" height="1.40185" transform="rotate(90 89.545 31.9097)" fill="black"/>
<rect x="90.9469" y="27.6399" width="1.42372" height="1.40185" transform="rotate(90 90.9469 27.6399)" fill="black"/>
<rect x="105.665" y="38.3154" width="1.42372" height="14.7194" transform="rotate(90 105.665 38.3154)" fill="black"/>
<path fill-rule="evenodd" clip-rule="evenodd" d="M89.8832 13.7642V12.7642H87.8832V13.7642V16.9777H84.5475C83.4429 16.9777 82.5475 17.8731 82.5475 18.9777V22.416H79.3796H78.3796V24.416H79.3796H82.5475V28.8459H79.3796H78.3796V30.8459H79.3796H82.5475V35.2813H79.3796H78.3796V37.2813H79.3796H82.5475V41.7112H79.3796H78.3796V43.7112H79.3796H82.5475V47.1419C82.5475 48.2465 83.4429 49.1419 84.5475 49.1419H87.8832V49.1439V52.3603V53.3603H89.8832V52.3603V49.1439V49.1419H94.2189V49.1439V52.3603V53.3603H96.2189V52.3603V49.1439V49.1419H100.555V49.1439V52.3603V53.3603H102.555V52.3603V49.1439V49.1419H106.422C106.55 48.7531 106.722 48.3682 106.939 47.9921L107.431 47.1419L84.5475 47.1419V18.9777H112.227V38.8539L114.139 35.5491C114.244 35.3683 114.355 35.1957 114.473 35.0313H114.229H114.227V31.0959H114.229H117.397H118.647V28.5959H117.397H114.229H114.227V24.416H114.229H117.397H118.397V22.416H117.397H114.229H114.227V18.9777C114.227 17.8731 113.331 16.9777 112.227 16.9777H108.89V13.7642V12.7642H106.89V13.7642V16.9777H102.555V13.7642V12.7642H100.555V13.7642V16.9777H96.2189V13.7642V12.7642H94.2189V13.7642V16.9777H89.8832V13.7642Z" fill="black"/>
<path d="M120.991 33.1888C120.823 32.9084 120.58 32.6757 120.289 32.5139C119.998 32.3522 119.668 32.2671 119.332 32.2671C118.996 32.2671 118.666 32.3522 118.375 32.5139C118.084 32.6757 117.842 32.9084 117.673 33.1888L106.271 52.2654C106.103 52.5467 106.015 52.8657 106.015 53.1904C106.015 53.5152 106.103 53.8342 106.271 54.1154C106.44 54.3966 106.681 54.6301 106.973 54.7924C107.264 54.9547 107.594 55.0401 107.93 55.04H130.734C131.07 55.0401 131.401 54.9547 131.692 54.7924C131.983 54.6301 132.225 54.3966 132.393 54.1154C132.561 53.8342 132.65 53.5152 132.65 53.1904C132.65 52.8657 132.561 52.5467 132.393 52.2654L120.991 33.1888ZM118.145 39.7309C118.145 39.4269 118.27 39.1352 118.493 38.9202C118.716 38.7052 119.018 38.5844 119.332 38.5844C119.647 38.5844 119.949 38.7052 120.172 38.9202C120.394 39.1352 120.519 39.4269 120.519 39.7309V47.0147C120.519 47.3187 120.394 47.6103 120.172 47.8253C119.949 48.0403 119.647 48.1611 119.332 48.1611C119.018 48.1611 118.716 48.0403 118.493 47.8253C118.27 47.6103 118.145 47.3187 118.145 47.0147V39.7309ZM119.341 52.2569C119.056 52.2569 118.777 52.1752 118.54 52.022C118.302 51.8689 118.117 51.6512 118.008 51.3966C117.899 51.1419 117.87 50.8617 117.926 50.5913C117.982 50.321 118.119 50.0727 118.321 49.8778C118.523 49.6829 118.78 49.5501 119.06 49.4963C119.34 49.4426 119.63 49.4702 119.893 49.5756C120.157 49.6811 120.382 49.8598 120.541 50.089C120.699 50.3181 120.784 50.5876 120.784 50.8632C120.783 51.2325 120.63 51.5863 120.36 51.8475C120.09 52.1086 119.723 52.2558 119.341 52.2569V52.2569Z" fill="black"/>
</svg>
