<?xml version="1.0" encoding="UTF-8" standalone="no"?>
<!DOCTYPE svg PUBLIC "-//W3C//DTD SVG 1.1//EN" "http://www.w3.org/Graphics/SVG/1.1/DTD/svg11.dtd">
<svg width="100%" height="100%" viewBox="0 0 315 132" version="1.1" xmlns="http://www.w3.org/2000/svg" xmlns:xlink="http://www.w3.org/1999/xlink" xml:space="preserve" xmlns:serif="http://www.serif.com/" style="fill-rule:evenodd;clip-rule:evenodd;stroke-linejoin:round;stroke-miterlimit:2;">
    <g transform="matrix(-3.72913e-16,0.978074,-0.974028,-3.74462e-16,185.84,-78.9559)">
        <rect x="134.561" y="53.854" width="1.966" height="1.919"/>
    </g>
    <g transform="matrix(-3.72913e-16,0.978074,-0.974028,-3.74462e-16,207.333,-100.538)">
        <rect x="156.627" y="53.854" width="1.966" height="1.919"/>
    </g>
    <g transform="matrix(-3.72913e-16,0.978074,-0.974028,-3.74462e-16,183.537,-113.171)">
        <rect x="150.87" y="35.181" width="1.966" height="1.919"/>
    </g>
    <g transform="matrix(-3.72913e-16,0.978074,-0.974028,-3.74462e-16,194.887,-113.034)">
        <rect x="156.626" y="41.077" width="1.966" height="1.919"/>
    </g>
    <g transform="matrix(0.974028,0,0,0.978074,2.31817,-0.0184791)">
        <rect x="154.708" y="37.146" width="1.919" height="1.966"/>
    </g>
    <g transform="matrix(0.974028,0,0,0.978074,2.31817,-0.0184791)">
        <rect x="150.87" y="41.077" width="1.919" height="1.966"/>
    </g>
    <g transform="matrix(0.974028,0,0,0.978074,2.31817,-0.0184791)">
        <rect x="156.626" y="35.181" width="1.919" height="1.966"/>
    </g>
    <g transform="matrix(0.974028,0,0,0.978074,2.31817,-0.0184791)">
        <rect x="152.789" y="39.112" width="1.919" height="1.966"/>
    </g>
    <g transform="matrix(-3.72913e-16,0.978074,-0.974028,-3.74462e-16,198.671,-112.988)">
        <rect x="158.545" y="43.043" width="1.966" height="1.919"/>
    </g>
    <g transform="matrix(-3.72913e-16,0.978074,-0.974028,-3.74462e-16,191.195,-105.481)">
        <rect x="150.87" y="43.043" width="1.966" height="1.919"/>
    </g>
    <g transform="matrix(-3.72913e-16,0.978074,-0.974028,-3.74462e-16,187.32,-113.126)">
        <rect x="152.789" y="37.146" width="1.966" height="1.919"/>
    </g>
    <g transform="matrix(-3.72913e-16,0.978074,-0.974028,-3.74462e-16,165.783,-95.3438)">
        <rect x="132.643" y="35.181" width="1.966" height="1.919"/>
    </g>
    <g transform="matrix(-3.72913e-16,0.978074,-0.974028,-3.74462e-16,177.134,-95.2075)">
        <rect x="138.4" y="41.077" width="1.966" height="1.919"/>
    </g>
    <g transform="matrix(0.974028,0,0,0.978074,2.31817,-0.0184791)">
        <rect x="136.481" y="37.146" width="1.919" height="1.966"/>
    </g>
    <g transform="matrix(0.974028,0,0,0.978074,2.31817,-0.0184791)">
        <rect x="132.643" y="41.077" width="1.919" height="1.966"/>
    </g>
    <g transform="matrix(0.974028,0,0,0.978074,2.31817,-0.0184791)">
        <rect x="138.4" y="35.181" width="1.919" height="1.966"/>
    </g>
    <g transform="matrix(0.974028,0,0,0.978074,2.31817,-0.0184791)">
        <rect x="134.562" y="39.112" width="1.919" height="1.966"/>
    </g>
    <g transform="matrix(-3.72913e-16,0.978074,-0.974028,-3.74462e-16,180.918,-95.1616)">
        <rect x="140.319" y="43.043" width="1.966" height="1.919"/>
    </g>
    <g transform="matrix(-3.72913e-16,0.978074,-0.974028,-3.74462e-16,173.441,-87.6539)">
        <rect x="132.643" y="43.043" width="1.966" height="1.919"/>
    </g>
    <g transform="matrix(-3.72913e-16,0.978074,-0.974028,-3.74462e-16,169.567,-95.2985)">
        <rect x="134.562" y="37.146" width="1.966" height="1.919"/>
    </g>
    <g transform="matrix(-3.72913e-16,0.978074,-0.974028,-3.74462e-16,203.549,-100.583)">
        <rect x="154.708" y="51.889" width="1.966" height="20.147"/>
    </g>
    <g transform="matrix(0.974028,0,0,0.978074,2.31817,-0.0184791)">
        <path d="M132.737,22.422L132.737,16.984L130.737,16.984L130.737,22.422L125.065,22.422C123.961,22.422 123.065,23.318 123.065,24.422L123.065,30.313L117.729,30.313L117.729,32.313L123.065,32.313L123.065,39.193L117.729,39.193L117.729,41.193L123.065,41.193L123.065,48.08L117.729,48.08L117.729,50.08L123.065,50.08L123.065,56.959L117.729,56.959L117.729,58.959L123.065,58.959L123.065,64.84C123.065,65.944 123.961,66.84 125.065,66.84L130.737,66.84L130.737,72.284L132.737,72.284L132.737,66.84L139.41,66.84L139.41,72.284L141.41,72.284L141.41,66.84L148.082,66.84L148.082,72.284L150.082,72.284L150.082,66.84L155.541,66.84L156.688,64.84L125.065,64.84L125.065,24.422L164.427,24.422L164.427,51.346L166.444,47.83L166.427,47.83L166.427,41.443L172.015,41.443L172.015,38.943L166.427,38.943L166.427,32.313L171.765,32.313L171.765,30.313L166.427,30.313L166.427,24.422C166.427,23.318 165.531,22.422 164.427,22.422L158.754,22.422L158.754,16.984L156.754,16.984L156.754,22.422L150.082,22.422L150.082,16.984L148.082,16.984L148.082,22.422L141.41,22.422L141.41,16.984L139.41,16.984L139.41,22.422L132.737,22.422Z"/>
    </g>
    <g transform="matrix(0.974028,0,0,0.978074,2.31817,-0.0184791)">
        <path d="M175.686,44.809C175.455,44.422 175.123,44.1 174.725,43.877C174.326,43.654 173.875,43.536 173.415,43.536C172.955,43.536 172.504,43.654 172.105,43.877C171.707,44.1 171.375,44.422 171.144,44.809L155.538,71.153C155.308,71.541 155.186,71.982 155.187,72.43C155.187,72.879 155.308,73.319 155.538,73.708C155.768,74.096 156.099,74.419 156.498,74.643C156.896,74.867 157.348,74.985 157.809,74.985L189.021,74.985C189.482,74.985 189.934,74.867 190.332,74.643C190.731,74.419 191.062,74.096 191.292,73.708C191.522,73.319 191.643,72.879 191.643,72.43C191.643,71.982 191.522,71.541 191.292,71.153L175.686,44.809ZM171.79,53.843C171.79,53.423 171.961,53.021 172.266,52.724C172.571,52.427 172.984,52.26 173.415,52.26C173.846,52.26 174.259,52.427 174.564,52.724C174.868,53.021 175.04,53.423 175.04,53.843L175.04,63.902C175.04,64.322 174.868,64.725 174.564,65.021C174.259,65.318 173.846,65.485 173.415,65.485C172.984,65.485 172.571,65.318 172.266,65.021C171.961,64.725 171.79,64.322 171.79,63.902L171.79,53.843ZM173.427,71.141C173.036,71.141 172.655,71.028 172.33,70.817C172.005,70.605 171.752,70.305 171.602,69.953C171.453,69.602 171.414,69.215 171.49,68.841C171.566,68.468 171.754,68.125 172.031,67.856C172.307,67.587 172.659,67.403 173.042,67.329C173.425,67.255 173.822,67.293 174.183,67.439C174.544,67.584 174.852,67.831 175.069,68.147C175.286,68.464 175.402,68.836 175.402,69.217C175.4,69.727 175.192,70.215 174.822,70.576C174.452,70.936 173.95,71.14 173.427,71.141Z" style="fill-rule:nonzero;"/>
    </g>
</svg>
