<svg width="67" height="15" viewBox="0 0 67 15" fill="none" xmlns="http://www.w3.org/2000/svg">
<path d="M7.78125 15H6.34375H4.90625H3.46875H2.03125H0.59375V13.5625V12.125V10.6875V9.25V7.8125V6.375V4.9375V3.5V2.0625H2.03125H3.46875H4.90625H6.34375H7.78125H9.21875V3.5V4.9375H7.78125H6.34375H4.90625H3.46875V6.375H4.90625H6.34375V7.8125V9.25H4.90625H3.46875V10.6875V12.125H4.90625H6.34375H7.78125H9.21875V13.5625V15H7.78125ZM21.2188 15H19.7812V13.5625V12.125V10.6875V9.25V7.8125V6.375H18.3438V7.8125V9.25V10.6875V12.125V13.5625V15H16.9062H15.4688V13.5625V12.125V10.6875V9.25V7.8125V6.375H14.0312V7.8125V9.25V10.6875V12.125V13.5625V15H12.5938H11.1562V13.5625V12.125V10.6875V9.25V7.8125V6.375V4.9375V3.5H12.5938H14.0312H15.4688H16.9062V4.9375H18.3438V3.5H19.7812H21.2188V4.9375H22.6562V6.375V7.8125V9.25V10.6875V12.125V13.5625V15H21.2188ZM31.7812 15H30.3438H28.9062H27.4688H26.0312V13.5625H24.5938V12.125V10.6875V9.25V7.8125V6.375V4.9375V3.5H26.0312H27.4688V4.9375V6.375V7.8125V9.25V10.6875V12.125H28.9062H30.3438V10.6875V9.25V7.8125V6.375V4.9375V3.5H31.7812H33.2188V4.9375V6.375V7.8125V9.25V10.6875V12.125V13.5625V15H31.7812ZM36.5938 15H35.1562V13.5625V12.125V10.6875V9.25V7.8125V6.375V4.9375V3.5V2.0625V0.625H36.5938H38.0312V2.0625V3.5V4.9375V6.375V7.8125V9.25V10.6875V12.125V13.5625V15H36.5938ZM47.1562 15H45.7188H44.2812H42.8438H41.4062V13.5625H39.9688V12.125V10.6875V9.25H41.4062V7.8125H42.8438H44.2812H45.7188V6.375H44.2812H42.8438H41.4062H39.9688V4.9375V3.5H41.4062H42.8438H44.2812H45.7188H47.1562V4.9375H48.5938V6.375V7.8125V9.25V10.6875V12.125V13.5625V15H47.1562ZM44.2812 12.125H45.7188V10.6875H44.2812H42.8438V12.125H44.2812ZM54.8438 15H53.4062V13.5625H51.9688V12.125V10.6875V9.25V7.8125V6.375H50.5312V4.9375V3.5H51.9688V2.0625V0.625H53.4062H54.8438V2.0625V3.5H56.2812V4.9375V6.375H54.8438V7.8125V9.25V10.6875V12.125H56.2812V13.5625V15H54.8438ZM65.4062 15H63.9688H62.5312H61.0938H59.6562V13.5625H58.2188V12.125V10.6875V9.25V7.8125V6.375V4.9375H59.6562V3.5H61.0938H62.5312H63.9688H65.4062V4.9375H66.8438V6.375V7.8125V9.25V10.6875H65.4062H63.9688H62.5312H61.0938V12.125H62.5312H63.9688H65.4062H66.8438V13.5625V15H65.4062ZM62.5312 7.8125H63.9688V6.375H62.5312H61.0938V7.8125H62.5312Z" fill="white"/>
</svg>
