<svg width="22" height="22" viewBox="0 0 22 22" fill="none" xmlns="http://www.w3.org/2000/svg">
<g opacity="0.5">
<circle cx="11" cy="11" r="9" fill="#FF8200"/>
<circle cx="11" cy="11" r="9.75" stroke="#FF8200" stroke-opacity="0.5" stroke-width="1.5"/>
<mask id="path-3-inside-1_583_12800" fill="white">
<path d="M13.2241 15.1988H8.3959V13.3727H12.97C13.7324 13.3727 14.2406 12.3988 14.2406 11.7901C14.2406 11.5467 14.1135 11.0597 13.9865 10.6945C13.7324 10.3293 13.4782 10.0858 13.0971 10.0858H9.03119V11.3032L5.60059 9.11187L9.03119 6.79883V8.13796H12.97C13.8594 8.13796 14.7488 8.62492 15.5112 9.35535C16.1465 10.0858 16.4006 10.938 16.4006 11.6684C16.4006 12.6423 16.1465 13.4945 15.5112 14.1032C14.8759 14.8336 14.1135 15.1988 13.2241 15.1988ZM9.15824 14.4684H13.2241C13.8594 14.4684 14.4947 14.2249 15.0029 13.6162C15.5112 13.1293 15.7653 12.3988 15.7653 11.5467C15.7653 10.938 15.5112 10.2075 15.0029 9.59883C14.4947 8.99013 13.8594 8.62491 13.0971 8.62491H8.52294V7.89448L7.12531 8.86839L8.52294 9.72057V9.11187H13.2241C13.8594 9.11187 14.4947 9.47709 14.7488 10.0858C15.13 10.6945 15.13 11.3032 15.13 11.5467C15.13 12.5206 14.3676 13.738 13.2241 13.738H9.2853L9.15824 14.4684Z"/>
</mask>
<path d="M13.2241 15.1988H8.3959V13.3727H12.97C13.7324 13.3727 14.2406 12.3988 14.2406 11.7901C14.2406 11.5467 14.1135 11.0597 13.9865 10.6945C13.7324 10.3293 13.4782 10.0858 13.0971 10.0858H9.03119V11.3032L5.60059 9.11187L9.03119 6.79883V8.13796H12.97C13.8594 8.13796 14.7488 8.62492 15.5112 9.35535C16.1465 10.0858 16.4006 10.938 16.4006 11.6684C16.4006 12.6423 16.1465 13.4945 15.5112 14.1032C14.8759 14.8336 14.1135 15.1988 13.2241 15.1988ZM9.15824 14.4684H13.2241C13.8594 14.4684 14.4947 14.2249 15.0029 13.6162C15.5112 13.1293 15.7653 12.3988 15.7653 11.5467C15.7653 10.938 15.5112 10.2075 15.0029 9.59883C14.4947 8.99013 13.8594 8.62491 13.0971 8.62491H8.52294V7.89448L7.12531 8.86839L8.52294 9.72057V9.11187H13.2241C13.8594 9.11187 14.4947 9.47709 14.7488 10.0858C15.13 10.6945 15.13 11.3032 15.13 11.5467C15.13 12.5206 14.3676 13.738 13.2241 13.738H9.2853L9.15824 14.4684Z" fill="black"/>
<path d="M8.3959 15.1988H6.8959V16.6988H8.3959V15.1988ZM8.3959 13.3727V11.8727H6.8959V13.3727H8.3959ZM13.9865 10.6945L15.4032 10.2016L15.3355 10.0069L15.2177 9.83776L13.9865 10.6945ZM9.03119 10.0858V8.58578H7.53119V10.0858H9.03119ZM9.03119 11.3032L8.22373 12.5673L10.5312 14.0412V11.3032H9.03119ZM5.60059 9.11187L4.76203 7.86816L2.86714 9.14577L4.79313 10.376L5.60059 9.11187ZM9.03119 6.79883H10.5312V3.97837L8.19263 5.55512L9.03119 6.79883ZM9.03119 8.13796H7.53119V9.63796H9.03119V8.13796ZM15.5112 9.35535L16.643 8.37097L16.5982 8.31947L16.5489 8.27226L15.5112 9.35535ZM15.5112 14.1032L14.4734 13.0201L14.4242 13.0673L14.3794 13.1188L15.5112 14.1032ZM9.15824 14.4684L7.68043 14.2113L7.37477 15.9684H9.15824V14.4684ZM15.0029 13.6162L13.9652 12.5331L13.905 12.5908L13.8515 12.6548L15.0029 13.6162ZM8.52294 8.62491H7.02294V10.1249H8.52294V8.62491ZM8.52294 7.89448H10.0229V5.02098L7.66537 6.6638L8.52294 7.89448ZM7.12531 8.86839L6.26774 7.63771L4.38138 8.95218L6.34442 10.1491L7.12531 8.86839ZM8.52294 9.72057L7.74206 11.0013L10.0229 12.392V9.72057H8.52294ZM8.52294 9.11187V7.61187H7.02294V9.11187H8.52294ZM14.7488 10.0858L13.3646 10.6637L13.4121 10.7774L13.4775 10.8819L14.7488 10.0858ZM9.2853 13.738V12.238H8.02372L7.8075 13.4809L9.2853 13.738ZM13.2241 13.6988H8.3959V16.6988H13.2241V13.6988ZM9.8959 15.1988V13.3727H6.8959V15.1988H9.8959ZM8.3959 14.8727H12.97V11.8727H8.3959V14.8727ZM12.97 14.8727C14.0379 14.8727 14.7541 14.1959 15.1225 13.6664C15.494 13.1324 15.7406 12.443 15.7406 11.7901H12.7406C12.7406 11.7641 12.7431 11.7557 12.7413 11.7654C12.7397 11.7741 12.7358 11.7915 12.7277 11.8156C12.7103 11.8671 12.6848 11.9172 12.6599 11.953C12.6334 11.991 12.6304 11.9809 12.6717 11.954C12.6947 11.939 12.7328 11.9182 12.7859 11.9012C12.8404 11.8837 12.9033 11.8727 12.97 11.8727V14.8727ZM15.7406 11.7901C15.7406 11.4795 15.671 11.1508 15.6195 10.9367C15.5595 10.6879 15.4818 10.4276 15.4032 10.2016L12.5698 11.1874C12.6182 11.3266 12.6675 11.4924 12.7029 11.6392C12.7204 11.712 12.7318 11.769 12.7381 11.808C12.7459 11.8559 12.7406 11.8433 12.7406 11.7901H15.7406ZM15.2177 9.83776C14.9184 9.40749 14.272 8.58578 13.0971 8.58578V11.5858C13.0281 11.5858 12.9474 11.574 12.8649 11.5451C12.7843 11.5168 12.7266 11.4809 12.6931 11.4559C12.6622 11.4329 12.6546 11.4212 12.6696 11.4382C12.6849 11.4555 12.7124 11.4897 12.7552 11.5512L15.2177 9.83776ZM13.0971 8.58578H9.03119V11.5858H13.0971V8.58578ZM7.53119 10.0858V11.3032H10.5312V10.0858H7.53119ZM9.83865 10.0391L6.40805 7.84775L4.79313 10.376L8.22373 12.5673L9.83865 10.0391ZM6.43914 10.3556L9.86975 8.04254L8.19263 5.55512L4.76203 7.86816L6.43914 10.3556ZM7.53119 6.79883V8.13796H10.5312V6.79883H7.53119ZM9.03119 9.63796H12.97V6.63796H9.03119V9.63796ZM12.97 9.63796C13.3192 9.63796 13.8553 9.84616 14.4734 10.4384L16.5489 8.27226C15.6424 7.40368 14.3996 6.63796 12.97 6.63796V9.63796ZM14.3794 10.3397C14.7617 10.7794 14.9006 11.2754 14.9006 11.6684H17.9006C17.9006 10.6005 17.5312 9.39222 16.643 8.37097L14.3794 10.3397ZM14.9006 11.6684C14.9006 12.3944 14.7145 12.7891 14.4734 13.0201L16.5489 15.1863C17.5785 14.1998 17.9006 12.8902 17.9006 11.6684H14.9006ZM14.3794 13.1188C14.0006 13.5543 13.6379 13.6988 13.2241 13.6988V16.6988C14.5891 16.6988 15.7512 16.1129 16.643 15.0876L14.3794 13.1188ZM9.15824 15.9684H13.2241V12.9684H9.15824V15.9684ZM13.2241 15.9684C14.2784 15.9684 15.3451 15.5469 16.1544 14.5776L13.8515 12.6548C13.7352 12.7942 13.6283 12.8652 13.5413 12.9047C13.4519 12.9452 13.3482 12.9684 13.2241 12.9684V15.9684ZM16.0407 14.6993C16.9252 13.8518 17.2653 12.6801 17.2653 11.5467H14.2653C14.2653 12.1175 14.0972 12.4067 13.9652 12.5331L16.0407 14.6993ZM17.2653 11.5467C17.2653 10.5556 16.8671 9.49109 16.1544 8.63745L13.8515 10.5602C14.1553 10.924 14.2653 11.3204 14.2653 11.5467H17.2653ZM16.1544 8.63745C15.4316 7.77188 14.4035 7.12491 13.0971 7.12491V10.1249C13.3154 10.1249 13.5578 10.2084 13.8515 10.5602L16.1544 8.63745ZM13.0971 7.12491H8.52294V10.1249H13.0971V7.12491ZM10.0229 8.62491V7.89448H7.02294V8.62491H10.0229ZM7.66537 6.6638L6.26774 7.63771L7.98288 10.0991L9.38051 9.12516L7.66537 6.6638ZM6.34442 10.1491L7.74206 11.0013L9.30383 8.43986L7.90619 7.58768L6.34442 10.1491ZM10.0229 9.72057V9.11187H7.02294V9.72057H10.0229ZM8.52294 10.6119H13.2241V7.61187H8.52294V10.6119ZM13.2241 10.6119C13.2398 10.6119 13.2599 10.6142 13.2819 10.6206C13.304 10.6269 13.3235 10.6358 13.339 10.6454C13.3705 10.6649 13.3698 10.6761 13.3646 10.6637L16.1331 9.5079C15.6163 8.27004 14.3841 7.61187 13.2241 7.61187V10.6119ZM13.4775 10.8819C13.6199 11.1093 13.63 11.3475 13.63 11.5467H16.63C16.63 11.2589 16.6401 10.2797 16.0201 9.28967L13.4775 10.8819ZM13.63 11.5467C13.63 11.6 13.6184 11.6887 13.5798 11.7971C13.5418 11.904 13.4868 12.0036 13.4247 12.0829C13.3625 12.1624 13.3075 12.2036 13.2746 12.222C13.2475 12.2371 13.2348 12.238 13.2241 12.238V15.238C14.3721 15.238 15.2485 14.6201 15.787 13.9321C16.3142 13.2586 16.63 12.3891 16.63 11.5467H13.63ZM13.2241 12.238H9.2853V15.238H13.2241V12.238ZM7.8075 13.4809L7.68043 14.2113L10.636 14.7255L10.7631 13.995L7.8075 13.4809Z" fill="black" mask="url(#path-3-inside-1_583_12800)"/>
</g>
</svg>
