<svg width="42" height="24" viewBox="0 0 42 24" fill="none" xmlns="http://www.w3.org/2000/svg">
<g clip-path="url(#clip0_5329_26988)">
<path d="M33.3286 8.64435C33.3286 8.64435 33.5677 9.41429 32.4231 11.0816L32.4913 11.0085C31.3467 12.6758 29.5207 12.7505 28.5897 12.4292C27.3029 12.0496 26.2044 12.4718 26.2044 12.4718L18.0598 21.9291C17.8374 22.1873 17.483 22.2886 17.1578 22.187C16.1495 21.8721 15.3415 21.1028 14.9727 20.1129C14.855 19.7971 14.9323 19.4398 15.1715 19.2023L24.0104 10.4258C24.3563 10.2014 24.3747 8.63543 24.3747 8.63543C24.0961 6.73481 23.8524 4.73004 25.1482 3.34047C26.444 1.9509 29.2074 2.06666 30.7285 3.07485C32.2495 4.08304 30.7827 4.62954 30.7827 4.62954L28.3316 5.35192C27.2157 5.81541 27.6011 6.72175 27.6011 6.72175C27.6011 6.72175 28.0696 7.97896 28.45 8.74396C28.8305 9.50897 29.6005 9.26982 29.6005 9.26982L31.8955 8.12837C33.1478 7.51861 33.3286 8.64435 33.3286 8.64435Z" fill="black"/>
<path d="M32.4231 11.0816L31.8048 10.6571C31.5826 10.9808 31.6476 11.421 31.9538 11.6666C32.2601 11.9123 32.7039 11.8802 32.9717 11.5931L32.4231 11.0816ZM33.3286 8.64435L32.5881 8.7633C32.5937 8.79833 32.6018 8.83293 32.6123 8.86682L33.3286 8.64435ZM31.8955 8.12837L31.5671 7.45403L31.5615 7.45684L31.8955 8.12837ZM29.6005 9.26982L29.8229 9.98606C29.8612 9.97416 29.8985 9.95921 29.9345 9.94134L29.6005 9.26982ZM27.6011 6.72175L28.3039 6.45989C28.3 6.44925 28.2958 6.4387 28.2913 6.42825L27.6011 6.72175ZM28.3316 5.35192L28.1196 4.63251C28.0939 4.64008 28.0686 4.64902 28.0439 4.65929L28.3316 5.35192ZM30.7827 4.62954L30.9948 5.34894C31.0116 5.34399 31.0282 5.33845 31.0446 5.33234L30.7827 4.62954ZM30.7285 3.07485L31.1428 2.44971L31.1428 2.44971L30.7285 3.07485ZM24.3747 8.63543L25.1247 8.64425C25.1251 8.6049 25.1225 8.56558 25.1168 8.52664L24.3747 8.63543ZM24.0104 10.4258L23.6023 9.7965C23.5589 9.82462 23.5186 9.85715 23.4819 9.89356L24.0104 10.4258ZM18.0598 21.9291L17.4915 21.4397L17.4915 21.4397L18.0598 21.9291ZM26.2044 12.4718L25.9354 11.7717C25.8198 11.8161 25.7169 11.8885 25.6361 11.9823L26.2044 12.4718ZM28.5897 12.4292L28.8343 11.7202C28.8236 11.7165 28.8128 11.7131 28.8019 11.7099L28.5897 12.4292ZM32.4913 11.0085L33.1097 11.4329C33.3318 11.1093 33.2668 10.6691 32.9606 10.4234C32.6544 10.1778 32.2106 10.2099 31.9428 10.497L32.4913 11.0085ZM15.1715 19.2023L14.643 18.6701L14.643 18.6701L15.1715 19.2023ZM17.1578 22.187L16.9341 22.9029L16.9341 22.9029L17.1578 22.187ZM14.9727 20.1129L14.2699 20.3748L14.2699 20.3748L14.9727 20.1129ZM33.0415 11.5061C33.6572 10.6091 33.9317 9.90861 34.0394 9.39029C34.0933 9.13085 34.1048 8.91963 34.0973 8.75611C34.0935 8.67461 34.085 8.60591 34.0751 8.54995C34.0702 8.522 34.0649 8.49735 34.0597 8.47598C34.0571 8.4653 34.0545 8.45545 34.052 8.44643C34.0508 8.44192 34.0495 8.43762 34.0483 8.43353C34.0477 8.43148 34.0471 8.42949 34.0466 8.42755C34.0463 8.42658 34.046 8.42562 34.0457 8.42468C34.0455 8.4242 34.0453 8.42351 34.0453 8.42327C34.045 8.42257 34.0448 8.42188 33.3286 8.64435C32.6123 8.86682 32.6121 8.86614 32.6119 8.86545C32.6118 8.86523 32.6116 8.86455 32.6115 8.8641C32.6112 8.8632 32.6109 8.86232 32.6107 8.86144C32.6102 8.85969 32.6096 8.85797 32.6092 8.8563C32.6082 8.85297 32.6073 8.8498 32.6064 8.84679C32.6048 8.84079 32.6034 8.83547 32.6023 8.83083C32.6 8.82155 32.5987 8.81507 32.5981 8.81144C32.5968 8.80409 32.5981 8.80857 32.5989 8.8253C32.6004 8.85825 32.6001 8.94372 32.5708 9.08518C32.5119 9.36866 32.3336 9.88683 31.8048 10.6571L33.0415 11.5061ZM33.3286 8.64435C34.0691 8.52541 34.069 8.52498 34.0689 8.52455C34.0689 8.5244 34.0689 8.52396 34.0688 8.52366C34.0687 8.52306 34.0686 8.52244 34.0685 8.52179C34.0683 8.52051 34.0681 8.51915 34.0678 8.51771C34.0673 8.51484 34.0668 8.51166 34.0661 8.50818C34.0649 8.50123 34.0633 8.49308 34.0615 8.48383C34.0578 8.46536 34.0527 8.44229 34.046 8.41545C34.0327 8.36222 34.0123 8.29167 33.9818 8.21135C33.923 8.05677 33.8142 7.83303 33.6165 7.63192C33.4078 7.41962 33.1107 7.24528 32.7242 7.20566C32.3519 7.16749 31.9637 7.26096 31.5671 7.45406L32.2238 8.80268C32.4534 8.69089 32.5574 8.69642 32.5712 8.69784C32.5773 8.69846 32.5719 8.69859 32.5615 8.6933C32.5571 8.69108 32.5534 8.68871 32.5506 8.68666C32.548 8.68467 32.5467 8.6834 32.5468 8.68348C32.5508 8.68759 32.5655 8.70718 32.5798 8.74462C32.5857 8.7603 32.5892 8.77294 32.5907 8.7789C32.5914 8.78165 32.5915 8.78216 32.591 8.77989C32.5908 8.77874 32.5904 8.77683 32.5899 8.77411C32.5897 8.77274 32.5894 8.77116 32.5891 8.76937C32.5889 8.76847 32.5888 8.76751 32.5886 8.7665C32.5885 8.766 32.5884 8.76548 32.5883 8.76494C32.5883 8.76468 32.5882 8.76426 32.5882 8.76413C32.5881 8.76371 32.5881 8.7633 33.3286 8.64435ZM31.5615 7.45684L29.2665 8.59829L29.9345 9.94134L32.2295 8.79989L31.5615 7.45684ZM29.6005 9.26982C29.378 8.55357 29.3784 8.55346 29.3787 8.55335C29.3788 8.55331 29.3792 8.5532 29.3794 8.55313C29.3799 8.55298 29.3804 8.55284 29.3808 8.55271C29.3817 8.55243 29.3826 8.55217 29.3834 8.55192C29.385 8.55143 29.3865 8.55099 29.3879 8.55059C29.3905 8.54981 29.3927 8.54922 29.3942 8.54879C29.3973 8.54794 29.3983 8.54773 29.3975 8.54792C29.3957 8.54834 29.3875 8.55015 29.3746 8.55187C29.3467 8.55561 29.3118 8.55693 29.2787 8.55199C29.2479 8.54739 29.227 8.53883 29.211 8.52796C29.1982 8.51928 29.1625 8.4922 29.1216 8.40997L27.7785 9.07795C28.094 9.7123 28.6131 9.96924 29.0572 10.0355C29.2641 10.0664 29.4455 10.0558 29.5738 10.0386C29.6391 10.0298 29.694 10.0189 29.7358 10.0093C29.7567 10.0044 29.7747 9.99982 29.7892 9.99584C29.7965 9.99385 29.803 9.99201 29.8086 9.99037C29.8114 9.98954 29.814 9.98877 29.8164 9.98805C29.8176 9.98769 29.8188 9.98735 29.8198 9.98701C29.8204 9.98685 29.8209 9.98669 29.8214 9.98653C29.8217 9.98645 29.8221 9.98633 29.8222 9.98629C29.8226 9.98618 29.8229 9.98606 29.6005 9.26982ZM29.1216 8.40997C28.9453 8.05553 28.7422 7.57299 28.5789 7.16642C28.4983 6.96576 28.4292 6.78835 28.3804 6.66123C28.356 6.59773 28.3367 6.54692 28.3236 6.5122C28.3171 6.49485 28.312 6.48153 28.3087 6.47267C28.3071 6.46823 28.3058 6.46492 28.305 6.46277C28.3046 6.4617 28.3043 6.46092 28.3041 6.46043C28.3041 6.46019 28.304 6.46002 28.304 6.45993C28.3039 6.45989 28.3039 6.45986 28.3039 6.45985C28.3039 6.45985 28.3039 6.45986 28.3039 6.45986C28.3039 6.45987 28.3039 6.45989 27.6011 6.72175C26.8983 6.9836 26.8983 6.98363 26.8984 6.98366C26.8984 6.98368 26.8984 6.98372 26.8984 6.98375C26.8984 6.98382 26.8984 6.98391 26.8985 6.98402C26.8986 6.98423 26.8987 6.98452 26.8988 6.98489C26.8991 6.98562 26.8995 6.98665 26.9 6.98798C26.901 6.99064 26.9024 6.99448 26.9043 6.99944C26.908 7.00937 26.9134 7.0238 26.9204 7.04232C26.9344 7.07935 26.9547 7.13273 26.9801 7.19905C27.031 7.33156 27.1029 7.51627 27.187 7.72554C27.353 8.13882 27.5743 8.66738 27.7785 9.07795L29.1216 8.40997ZM27.6011 6.72175C28.2913 6.42825 28.2915 6.42866 28.2917 6.42906C28.2917 6.4292 28.2919 6.4296 28.292 6.42987C28.2922 6.43039 28.2925 6.43091 28.2927 6.43142C28.2931 6.43243 28.2935 6.4334 28.2939 6.43432C28.2946 6.43617 28.2953 6.43784 28.2959 6.43935C28.2971 6.44235 28.298 6.44469 28.2987 6.44641C28.3 6.44982 28.3003 6.45086 28.2999 6.44981C28.2992 6.44746 28.2963 6.43812 28.2934 6.42385C28.2871 6.39266 28.2844 6.35632 28.2894 6.32304C28.2936 6.29573 28.303 6.26651 28.3311 6.23159C28.3604 6.19518 28.4359 6.12073 28.6193 6.04454L28.0439 4.65929C27.2582 4.98561 26.8912 5.53889 26.8064 6.09823C26.7683 6.34948 26.7922 6.56869 26.8233 6.72193C26.8391 6.79987 26.8576 6.86496 26.8736 6.91398C26.8816 6.93862 26.8891 6.95959 26.8955 6.9765C26.8987 6.98497 26.9016 6.99246 26.9042 6.99892C26.9055 7.00215 26.9067 7.00513 26.9078 7.00785C26.9084 7.00922 26.909 7.01051 26.9095 7.01174C26.9097 7.01236 26.91 7.01296 26.9102 7.01354C26.9104 7.01384 26.9105 7.01426 26.9106 7.01441C26.9108 7.01483 26.9109 7.01525 27.6011 6.72175ZM28.5436 6.07132L30.9948 5.34894L30.5707 3.91013L28.1196 4.63251L28.5436 6.07132ZM30.7827 4.62954C31.0446 5.33234 31.0449 5.33221 31.0453 5.33209C31.0454 5.33204 31.0457 5.33192 31.046 5.33183C31.0465 5.33165 31.047 5.33146 31.0475 5.33126C31.0485 5.33086 31.0497 5.33042 31.0509 5.32995C31.0534 5.329 31.0563 5.32789 31.0595 5.32663C31.066 5.32411 31.0739 5.32096 31.0832 5.31717C31.1016 5.30962 31.1255 5.29945 31.1537 5.28663C31.2093 5.26127 31.2848 5.22412 31.3688 5.17464C31.5227 5.08401 31.7692 4.91537 31.9484 4.64868C32.1516 4.34645 32.2574 3.92554 32.076 3.4671C31.9172 3.06594 31.5757 2.73665 31.1428 2.44971L30.3141 3.69999C30.6417 3.91714 30.6873 4.03424 30.6813 4.0191C30.6741 4.00092 30.6638 3.95823 30.6717 3.90316C30.679 3.85225 30.6975 3.82087 30.7036 3.81185C30.7063 3.80781 30.6811 3.8388 30.6076 3.88214C30.5778 3.89965 30.5505 3.91307 30.532 3.92153C30.523 3.92563 30.5168 3.92818 30.5145 3.92913C30.5134 3.9296 30.5133 3.92964 30.5143 3.92924C30.5148 3.92905 30.5156 3.92874 30.5167 3.92832C30.5172 3.92811 30.5178 3.92788 30.5185 3.92761C30.5189 3.92748 30.5193 3.92734 30.5197 3.92719C30.5199 3.92712 30.5202 3.92701 30.5203 3.92697C30.5206 3.92685 30.5209 3.92673 30.7827 4.62954ZM31.1428 2.44971C30.2353 1.84817 29.0089 1.53763 27.8404 1.55862C26.6776 1.5795 25.4344 1.93388 24.5997 2.82897L25.6967 3.85197C26.1578 3.35749 26.9442 3.07496 27.8673 3.05838C28.7847 3.0419 29.7006 3.29334 30.3141 3.69999L31.1428 2.44971ZM24.5997 2.82897C23.8 3.68655 23.4973 4.71839 23.423 5.74202C23.35 6.74803 23.4945 7.80224 23.6326 8.74422L25.1168 8.52664C24.9762 7.568 24.8596 6.66952 24.9191 5.8506C24.9772 5.04929 25.2006 4.38396 25.6967 3.85197L24.5997 2.82897ZM24.3747 8.63543C23.6248 8.62661 23.6248 8.62654 23.6248 8.62647C23.6248 8.62645 23.6248 8.62639 23.6248 8.62636C23.6248 8.6263 23.6248 8.62626 23.6248 8.62625C23.6248 8.62622 23.6248 8.62629 23.6248 8.62644C23.6248 8.62676 23.6247 8.62743 23.6247 8.62846C23.6247 8.63053 23.6246 8.634 23.6246 8.6388C23.6244 8.6484 23.624 8.66327 23.6235 8.68272C23.6225 8.72167 23.6206 8.77863 23.6173 8.84808C23.6106 8.98818 23.5985 9.17341 23.5771 9.36149C23.555 9.55496 23.5258 9.72589 23.4915 9.84753C23.4834 9.87604 23.4761 9.8981 23.47 9.91437C23.4638 9.93101 23.4603 9.93775 23.4607 9.93695C23.4607 9.93683 23.4685 9.92164 23.487 9.89862C23.5053 9.87593 23.5421 9.83554 23.6023 9.7965L24.4184 11.055C24.6169 10.9263 24.7293 10.7481 24.79 10.6319C24.8561 10.5055 24.9019 10.3725 24.935 10.2552C25.0014 10.0202 25.0416 9.75752 25.0674 9.53145C25.0938 9.29999 25.108 9.07969 25.1156 8.91917C25.1194 8.8383 25.1217 8.77116 25.123 8.7236C25.1236 8.69979 25.124 8.68079 25.1243 8.66735C25.1244 8.66062 25.1245 8.65527 25.1246 8.6514C25.1246 8.64946 25.1246 8.64789 25.1246 8.64669C25.1246 8.64609 25.1246 8.64559 25.1246 8.64519C25.1246 8.64498 25.1246 8.6448 25.1246 8.64465C25.1247 8.64457 25.1247 8.64447 25.1247 8.64443C25.1247 8.64434 25.1247 8.64425 24.3747 8.63543ZM18.6281 22.4185L26.7727 12.9612L25.6361 11.9823L17.4915 21.4397L18.6281 22.4185ZM26.2044 12.4718C26.4734 13.1718 26.4732 13.1719 26.473 13.172C26.4729 13.172 26.4727 13.1721 26.4725 13.1722C26.4723 13.1723 26.472 13.1724 26.4717 13.1725C26.4712 13.1727 26.4708 13.1729 26.4704 13.173C26.4697 13.1733 26.4692 13.1735 26.4689 13.1736C26.4684 13.1738 26.4689 13.1736 26.4703 13.1731C26.4732 13.172 26.48 13.1696 26.4903 13.1662C26.5111 13.1593 26.5462 13.1482 26.5939 13.1352C26.6896 13.109 26.834 13.0755 27.0136 13.0516C27.3756 13.0033 27.8611 12.9963 28.3775 13.1486L28.8019 11.7099C28.0314 11.4826 27.3243 11.4969 26.8153 11.5647C26.5595 11.5989 26.3488 11.6472 26.1984 11.6883C26.123 11.7089 26.0622 11.7278 26.0179 11.7425C25.9957 11.7499 25.9776 11.7562 25.9638 11.7612C25.9569 11.7636 25.951 11.7658 25.9463 11.7676C25.9439 11.7684 25.9418 11.7692 25.94 11.7699C25.9391 11.7703 25.9383 11.7706 25.9375 11.7709C25.9371 11.771 25.9367 11.7712 25.9364 11.7713C25.9362 11.7714 25.936 11.7715 25.9359 11.7715C25.9356 11.7716 25.9354 11.7717 26.2044 12.4718ZM28.345 13.1382C29.517 13.5426 31.7312 13.441 33.1097 11.4329L31.873 10.584C30.9623 11.9106 29.5244 11.9584 28.8343 11.7202L28.345 13.1382ZM31.9428 10.497L31.8746 10.5701L32.9717 11.5931L33.0399 11.52L31.9428 10.497ZM15.6999 19.7345L24.5388 10.958L23.4819 9.89356L14.643 18.6701L15.6999 19.7345ZM17.4915 21.4397C17.4643 21.4712 17.4211 21.4836 17.3814 21.4712L16.9341 22.9029C17.5448 23.0937 18.2105 22.9034 18.6281 22.4185L17.4915 21.4397ZM14.2699 20.3748C14.7191 21.5806 15.7032 22.5184 16.9341 22.9029L17.3814 21.4712C16.5958 21.2257 15.9638 20.625 15.6755 19.8511L14.2699 20.3748ZM14.643 18.6701C14.1935 19.1165 14.0501 19.7849 14.2699 20.3748L15.6755 19.8511C15.6599 19.8094 15.6712 19.7631 15.6999 19.7345L14.643 18.6701Z" fill="black"/>
<path d="M25.1652 21.9556L14.894 11.1441C14.4972 10.7264 13.8305 10.7295 13.4377 11.1509L9.71756 15.1402C9.59604 15.2705 9.37763 15.1888 9.37141 15.0108L9.28246 12.4636C9.2549 11.6744 9.46157 10.8947 9.87642 10.2227L10.3717 9.42053C10.5089 9.19824 10.6013 8.95123 10.6435 8.69343L10.8222 7.60363C10.8541 7.4088 10.943 7.22779 11.0776 7.0834L12.3697 5.69789C12.5043 5.5535 12.6787 5.4522 12.8708 5.40675L13.033 5.36838C13.8187 5.1825 14.4156 4.54242 14.5462 3.74565L14.6221 3.2824L15.6451 2.18536C15.8335 1.98341 16.1499 1.97236 16.3518 2.16069L18.9116 4.54768C19.1135 4.73601 19.1246 5.0524 18.9362 5.25436L17.9132 6.35139L17.3977 6.47334C16.6475 6.65082 16.0777 7.26195 15.9529 8.02269C15.8996 8.34785 16.0178 8.67751 16.2654 8.89483L27.8685 19.0756C28.1167 19.2933 28.2148 19.6387 28.1214 19.9554C27.8221 20.9702 27.0594 21.7949 26.0679 22.1643C25.7523 22.2819 25.3971 22.1997 25.1652 21.9556Z" fill="black" stroke="black" stroke-width="1.5"/>
</g>
<defs>
<clipPath id="clip0_5329_26988">
<rect width="42" height="24" fill="white"/>
</clipPath>
</defs>
</svg>
