<svg width="56" height="56" viewBox="0 0 56 56" fill="none" xmlns="http://www.w3.org/2000/svg">
<path d="M12.3455 18H44.2869C45.2459 18 46.147 18.4584 46.7117 19.2335L51.4247 25.7027C51.7986 26.2158 52 26.8344 52 27.4692V35C52 36.6569 50.6569 38 49 38H12.0021C11.2012 38 10.4335 37.6797 9.87003 37.1105L4.12688 31.3088C3.08454 30.2558 2.96701 28.5996 3.85021 27.4099L9.93678 19.2117C10.5027 18.4494 11.3961 18 12.3455 18Z" fill="#589DFF" stroke="#589DFF" stroke-width="2"/>
<g clip-path="url(#clip0_25_177)">
<path fill-rule="evenodd" clip-rule="evenodd" d="M31.9225 31.0059L31.9088 31.029L31.8712 31.0828L31.828 31.1335L28.5907 34.5781C28.2005 34.9932 27.5455 34.73 27.4892 34.1692L27.4854 34.0909L27.4854 29.3229L25.3 31.1843C25.0208 31.422 24.6133 31.3738 24.3899 31.0767C24.1838 30.8024 24.2065 30.4119 24.4308 30.1665L24.4911 30.1084L27.0962 27.8906L24.4911 25.6729C24.2118 25.4352 24.1666 25.0017 24.3899 24.7046C24.5961 24.4303 24.9592 24.3682 25.2334 24.5472L25.3 24.597L27.4854 26.4577L27.4854 21.6903C27.4854 21.1032 28.1235 20.7965 28.5359 21.1507L28.5907 21.2032L31.828 24.6478C31.8586 24.6804 31.8856 24.7155 31.9088 24.7523L31.9267 24.7825L31.9557 24.8402L31.9879 24.928C32.0556 25.1638 32.0045 25.4242 31.8411 25.6078L31.7746 25.6729L29.1688 27.8906L31.7746 30.1084C31.9468 30.2549 32.0287 30.4739 32.0164 30.6889C32.0123 30.7561 31.9999 30.8198 31.979 30.8811L31.9557 30.941L31.9225 31.0059ZM28.78 29.3234V32.4263L30.3999 30.7026L28.78 29.3234ZM28.78 26.4571V23.3542L30.3999 25.0778L28.78 26.4571Z" fill="#589DFF"/>
</g>
<g clip-path="url(#clip1_25_177)">
<mask id="path-3-inside-1_25_177" fill="white">
<path fill-rule="evenodd" clip-rule="evenodd" d="M26.5046 28.0641L23.2349 25.3205C22.9671 25.0958 22.9322 24.6967 23.1569 24.4289C23.3815 24.1612 23.7807 24.1263 24.0484 24.3509L32.2714 31.2509C32.5391 31.4755 32.574 31.8747 32.3494 32.1424C32.1247 32.4101 31.7256 32.445 31.4579 32.2204L30.4094 31.3406L28.0838 33.6384C27.7237 33.9942 27.119 33.7686 27.0671 33.2879L27.0635 33.2208L27.0635 29.1339L25.0463 30.7294C24.7885 30.9331 24.4124 30.8918 24.2062 30.6372C24.0159 30.4021 24.0368 30.0674 24.2439 29.857L24.2995 29.8072L26.5046 28.0641ZM28.2586 29.5359V31.794L29.4945 30.5729L28.2586 29.5359ZM27.0635 22.5917L27.0635 25.2456L28.2586 26.2484V24.0178L29.754 25.4953L28.5219 26.4693L29.4501 27.2482L31.0228 26.0053L31.0842 25.9496C31.235 25.7922 31.2822 25.569 31.2197 25.3668L31.1899 25.2916L31.1632 25.2422L31.1466 25.2162C31.1252 25.1847 31.1004 25.1547 31.0721 25.1267L28.0838 22.1741L28.0332 22.1292C27.6525 21.8255 27.0635 22.0885 27.0635 22.5917Z"/>
</mask>
<path fill-rule="evenodd" clip-rule="evenodd" d="M26.5046 28.0641L23.2349 25.3205C22.9671 25.0958 22.9322 24.6967 23.1569 24.4289C23.3815 24.1612 23.7807 24.1263 24.0484 24.3509L32.2714 31.2509C32.5391 31.4755 32.574 31.8747 32.3494 32.1424C32.1247 32.4101 31.7256 32.445 31.4579 32.2204L30.4094 31.3406L28.0838 33.6384C27.7237 33.9942 27.119 33.7686 27.0671 33.2879L27.0635 33.2208L27.0635 29.1339L25.0463 30.7294C24.7885 30.9331 24.4124 30.8918 24.2062 30.6372C24.0159 30.4021 24.0368 30.0674 24.2439 29.857L24.2995 29.8072L26.5046 28.0641ZM28.2586 29.5359V31.794L29.4945 30.5729L28.2586 29.5359ZM27.0635 22.5917L27.0635 25.2456L28.2586 26.2484V24.0178L29.754 25.4953L28.5219 26.4693L29.4501 27.2482L31.0228 26.0053L31.0842 25.9496C31.235 25.7922 31.2822 25.569 31.2197 25.3668L31.1899 25.2916L31.1632 25.2422L31.1466 25.2162C31.1252 25.1847 31.1004 25.1547 31.0721 25.1267L28.0838 22.1741L28.0332 22.1292C27.6525 21.8255 27.0635 22.0885 27.0635 22.5917Z" fill="white"/>
<path d="M23.2349 25.3205L22.5921 26.0865L22.5921 26.0865L23.2349 25.3205ZM26.5046 28.0641L27.1247 28.8486L28.0879 28.0872L27.1474 27.2981L26.5046 28.0641ZM23.1569 24.4289L22.3908 23.7861L22.3908 23.7861L23.1569 24.4289ZM24.0484 24.3509L24.6912 23.5849L24.6912 23.5849L24.0484 24.3509ZM32.2714 31.2509L31.6286 32.0169L31.6286 32.0169L32.2714 31.2509ZM31.4579 32.2204L30.8151 32.9864L30.8151 32.9864L31.4579 32.2204ZM30.4094 31.3406L31.0522 30.5745L30.3544 29.9891L29.7065 30.6292L30.4094 31.3406ZM28.0838 33.6384L28.7866 34.3497L28.7866 34.3497L28.0838 33.6384ZM27.0671 33.2879L26.0685 33.3411L26.07 33.3682L26.0729 33.3952L27.0671 33.2879ZM27.0635 33.2208L26.0635 33.2208L26.0635 33.2474L26.0649 33.274L27.0635 33.2208ZM27.0635 29.1339L28.0635 29.1339L28.0635 27.068L26.4432 28.3496L27.0635 29.1339ZM25.0463 30.7294L25.6664 31.5139L25.6666 31.5137L25.0463 30.7294ZM24.2062 30.6372L23.429 31.2664L23.429 31.2664L24.2062 30.6372ZM24.2439 29.857L23.5765 29.1124L23.5532 29.1332L23.5313 29.1555L24.2439 29.857ZM24.2995 29.8072L23.6794 29.0227L23.6551 29.0419L23.6321 29.0625L24.2995 29.8072ZM28.2586 31.794H27.2586V34.1878L28.9615 32.5054L28.2586 31.794ZM28.2586 29.5359L28.9014 28.7699L27.2586 27.3914V29.5359H28.2586ZM29.4945 30.5729L30.1973 31.2843L30.9783 30.5126L30.1373 29.8069L29.4945 30.5729ZM27.0635 25.2456L26.0635 25.2456L26.0635 25.7119L26.4207 26.0117L27.0635 25.2456ZM27.0635 22.5917L28.0635 22.5917V22.5917H27.0635ZM28.2586 26.2484L27.6158 27.0145L29.2586 28.3929V26.2484H28.2586ZM28.2586 24.0178L28.9615 23.3065L27.2586 21.624V24.0178H28.2586ZM29.754 25.4953L30.3742 26.2798L31.2611 25.5786L30.4568 24.7839L29.754 25.4953ZM28.5219 26.4693L27.9017 25.6849L26.9387 26.4463L27.8791 27.2354L28.5219 26.4693ZM29.4501 27.2482L28.8073 28.0142L29.4312 28.5377L30.0701 28.0328L29.4501 27.2482ZM31.0228 26.0053L31.6428 26.7899L31.6698 26.7686L31.6952 26.7455L31.0228 26.0053ZM31.0842 25.9496L31.7566 26.6898L31.7823 26.6664L31.8063 26.6414L31.0842 25.9496ZM31.2197 25.3668L32.1751 25.0715L32.1637 25.0348L32.1496 24.9991L31.2197 25.3668ZM31.1899 25.2916L32.1199 24.9239L32.0981 24.8687L32.0699 24.8165L31.1899 25.2916ZM31.1632 25.2422L32.0432 24.7671L32.0255 24.7343L32.0054 24.7029L31.1632 25.2422ZM31.1466 25.2162L31.9888 24.6769L31.9817 24.6659L31.9743 24.655L31.1466 25.2162ZM31.0721 25.1267L30.3692 25.838L30.3692 25.838L31.0721 25.1267ZM28.0838 22.1741L28.7866 21.4628L28.7679 21.4443L28.7483 21.4268L28.0838 22.1741ZM28.0332 22.1292L28.6977 21.3819L28.6777 21.3641L28.6568 21.3474L28.0332 22.1292ZM22.5921 26.0865L25.8618 28.8302L27.1474 27.2981L23.8776 24.5544L22.5921 26.0865ZM22.3908 23.7861C21.8112 24.4769 21.9013 25.5068 22.5921 26.0865L23.8776 24.5544C24.033 24.6848 24.0533 24.9164 23.9229 25.0717L22.3908 23.7861ZM24.6912 23.5849C24.0004 23.0052 22.9705 23.0953 22.3908 23.7861L23.9229 25.0717C23.7925 25.2271 23.5609 25.2473 23.4056 25.117L24.6912 23.5849ZM32.9142 30.4848L24.6912 23.5849L23.4056 25.117L31.6286 32.0169L32.9142 30.4848ZM33.1154 32.7852C33.6951 32.0944 33.605 31.0645 32.9142 30.4848L31.6286 32.0169C31.4733 31.8865 31.453 31.6549 31.5833 31.4996L33.1154 32.7852ZM30.8151 32.9864C31.5059 33.5661 32.5358 33.476 33.1154 32.7852L31.5833 31.4996C31.7137 31.3442 31.9453 31.324 32.1006 31.4543L30.8151 32.9864ZM29.7666 32.1066L30.8151 32.9864L32.1006 31.4543L31.0522 30.5745L29.7666 32.1066ZM29.7065 30.6292L27.381 32.927L28.7866 34.3497L31.1122 32.0519L29.7065 30.6292ZM27.381 32.927C27.6151 32.6957 28.0232 32.8272 28.0613 33.1806L26.0729 33.3952C26.2148 34.71 27.8322 35.2927 28.7866 34.3497L27.381 32.927ZM28.0657 33.2347L28.0621 33.1676L26.0649 33.274L26.0685 33.3411L28.0657 33.2347ZM28.0635 33.2208L28.0635 29.1339L26.0635 29.1339L26.0635 33.2208L28.0635 33.2208ZM26.4432 28.3496L24.4259 29.9451L25.6666 31.5137L27.6838 29.9182L26.4432 28.3496ZM24.4261 29.9449C24.5962 29.8105 24.8434 29.835 24.9834 30.0079L23.429 31.2664C23.9814 31.9487 24.9809 32.0558 25.6664 31.5139L24.4261 29.9449ZM24.9834 30.0079C25.1178 30.1739 25.1013 30.4116 24.9565 30.5586L23.5313 29.1555C22.9724 29.7232 22.9139 30.6302 23.429 31.2664L24.9834 30.0079ZM24.9114 30.6017L24.967 30.5518L23.6321 29.0625L23.5765 29.1124L24.9114 30.6017ZM24.9197 30.5917L27.1247 28.8486L25.8845 27.2796L23.6794 29.0227L24.9197 30.5917ZM29.2586 31.794V29.5359H27.2586V31.794H29.2586ZM28.7917 29.8616L27.5558 31.0827L28.9615 32.5054L30.1973 31.2843L28.7917 29.8616ZM27.6158 30.302L28.8517 31.339L30.1373 29.8069L28.9014 28.7699L27.6158 30.302ZM28.0635 25.2456L28.0635 22.5917L26.0635 22.5917L26.0635 25.2456L28.0635 25.2456ZM28.9014 25.4824L27.7063 24.4796L26.4207 26.0117L27.6158 27.0145L28.9014 25.4824ZM27.2586 24.0178V26.2484H29.2586V24.0178H27.2586ZM30.4568 24.7839L28.9615 23.3065L27.5558 24.7292L29.0511 26.2066L30.4568 24.7839ZM29.1421 27.2538L30.3742 26.2798L29.1338 24.7108L27.9017 25.6849L29.1421 27.2538ZM30.0929 26.4822L29.1647 25.7033L27.8791 27.2354L28.8073 28.0142L30.0929 26.4822ZM30.4028 25.2208L28.8301 26.4636L30.0701 28.0328L31.6428 26.7899L30.4028 25.2208ZM30.4118 25.2094L30.3504 25.2651L31.6952 26.7455L31.7566 26.6898L30.4118 25.2094ZM30.2643 25.6621C30.2238 25.5311 30.2519 25.3729 30.3621 25.2578L31.8063 26.6414C32.2182 26.2115 32.3406 25.6069 32.1751 25.0715L30.2643 25.6621ZM30.26 25.6593L30.2897 25.7345L32.1496 24.9991L32.1199 24.9239L30.26 25.6593ZM30.2833 25.7173L30.31 25.7667L32.0699 24.8165L32.0432 24.7671L30.2833 25.7173ZM30.3045 25.7555L30.3211 25.7815L32.0054 24.7029L31.9888 24.6769L30.3045 25.7555ZM30.3692 25.838C30.3511 25.8201 30.3341 25.7998 30.319 25.7775L31.9743 24.655C31.9163 24.5695 31.8497 24.4892 31.7749 24.4153L30.3692 25.838ZM27.381 22.8855L30.3692 25.838L31.7749 24.4153L28.7866 21.4628L27.381 22.8855ZM27.3688 22.8765L27.4193 22.9214L28.7483 21.4268L28.6977 21.3819L27.3688 22.8765ZM28.0635 22.5917C28.0635 22.7691 27.9475 22.9087 27.8276 22.9645C27.7153 23.0167 27.5465 23.0201 27.4097 22.911L28.6568 21.3474C27.6528 20.5467 26.0635 21.2103 26.0635 22.5917H28.0635Z" fill="white" mask="url(#path-3-inside-1_25_177)"/>
</g>
<defs>
<clipPath id="clip0_25_177">
<rect width="13" height="14" fill="white" transform="translate(22 21)"/>
</clipPath>
<clipPath id="clip1_25_177">
<rect width="12" height="12" fill="white" transform="translate(22 22)"/>
</clipPath>
</defs>
</svg>
