<?xml version="1.0" encoding="utf-8"?>
<!-- Generator: Adobe Illustrator 27.0.0, SVG Export Plug-In . SVG Version: 6.00 Build 0)  -->
<svg version="1.1" id="Layer_1" xmlns="http://www.w3.org/2000/svg" xmlns:xlink="http://www.w3.org/1999/xlink" x="0px" y="0px"
	 viewBox="0 0 94 61" style="enable-background:new 0 0 94 61;" xml:space="preserve">
<g>
	<rect x="67" y="60" width="1" height="1"/>
	<path d="M66,60h1c0-0.5,0-1.5,0-2h-1C66,58.5,66,59.5,66,60z"/>
	<path d="M63,60v1h1c0-0.5,0-1.5,0-2h-1V60z"/>
	<path d="M24,60v1h1c0-0.5,0-1.5,0-2h-1V60z"/>
	<path d="M74,58c0,0.89,0,2.11,0,3h1c0-1.6,0-3.4,0-5h-1C74,56.5,74,57.5,74,58z"/>
	<path d="M25,57c0,0.5,0,1.5,0,2h1c0-0.89,0-2.11,0-3h-1V57z"/>
	<path d="M64,56c0,0.89,0,2.11,0,3h1v-1h1c0-0.5,0-1.5,0-2h-1v-1h-1V56z"/>
	<path d="M19,55c-0.5,0-1.5,0-2,0v1c1.25,0,2.75,0,4,0v-1C20.5,55,19.5,55,19,55z"/>
	<path d="M22,54h-1v1c0.89,0,2.11,0,3,0v-1C23.5,54,22.5,54,22,54z"/>
	<path d="M16,54h-1v1c0.5,0,1.5,0,2,0v-1H16z"/>
	<path d="M75,53c-1.6,0-3.4,0-5,0v1c0.89,0,2.11,0,3,0c0,0.5,0,1.5,0,2h1c0-0.5,0-1.5,0-2c0.89,0,2.11,0,3,0v-1
		C76.5,53,75.5,53,75,53z"/>
	<rect x="14" y="53" width="1" height="1"/>
	<path d="M77,52v1c0.5,0,1.5,0,2,0v-1C78.5,52,77.5,52,77,52z"/>
	<path d="M69,52c-1.25,0-2.75,0-4,0c0,0.89,0,2.11,0,3h1c0-0.5,0-1.5,0-2c1.25,0,2.75,0,4,0v-1H69z"/>
	<rect x="13" y="52" width="1" height="1"/>
	<rect x="79" y="51" width="1" height="1"/>
	<path d="M13,50h-1c0,0.5,0,1.5,0,2h1C13,51.5,13,50.5,13,50z"/>
	<path d="M80,50v1h1c0-0.5,0-1.5,0-2h-1V50z"/>
	<path d="M12,48h-1c0,0.5,0,1.5,0,2h1C12,49.5,12,48.5,12,48z"/>
	<path d="M81,48v1h1c0-0.5,0-1.5,0-2h-1V48z"/>
	<path d="M11,46h-1c0,0.5,0,1.5,0,2h1C11,47.5,11,46.5,11,46z"/>
	<path d="M82,46v1h1c0-0.5,0-1.5,0-2h-1V46z"/>
	<path d="M10,44H9c0,0.5,0,1.5,0,2h1C10,45.5,10,44.5,10,44z"/>
	<path d="M83,44v1h1c0-0.5,0-1.5,0-2h-1V44z"/>
	<path d="M20,44h1v-1h1v-1c-0.5,0-1.5,0-2,0C20,42.5,20,43.5,20,44z"/>
	<rect x="71" y="42" width="1" height="1"/>
	<path d="M9,42H8c0,0.5,0,1.5,0,2h1C9,43.5,9,42.5,9,42z"/>
	<path d="M84,42v1h1c0-0.5,0-1.5,0-2h-1V42z"/>
	<rect x="19" y="41" width="1" height="1"/>
	<path d="M89,40c-0.5,0-1.5,0-2,0v1c1.25,0,2.75,0,4,0v-1C90.5,40,89.5,40,89,40z"/>
	<path d="M72,40c0,0.5,0,1.5,0,2h1v-1h1v-1C73.5,40,72.5,40,72,40z"/>
	<rect x="18" y="40" width="1" height="1"/>
	<path d="M8,40c-1.95,0-4.05,0-6,0v1c1.6,0,3.4,0,5,0v1h1C8,41.5,8,40.5,8,40z"/>
	<rect x="91" y="39" width="1" height="1"/>
	<path d="M86,39h-1c0,0.5,0,1.5,0,2h1v-1h1v-1H86z"/>
	<rect x="74" y="39" width="1" height="1"/>
	<path d="M71,39h-1v1c0.5,0,1.5,0,2,0v-1H71z"/>
	<rect x="17" y="39" width="1" height="1"/>
	<path d="M10,40v-1c-0.5,0-1.5,0-2,0v1C8.5,40,9.5,40,10,40z"/>
	<rect x="1" y="39" width="1" height="1"/>
	<path d="M84,38h-1v1c0.5,0,1.5,0,2,0v-1H84z"/>
	<rect x="75" y="38" width="1" height="1"/>
	<rect x="60" y="38" width="1" height="1"/>
	<rect x="16" y="38" width="1" height="1"/>
	<rect x="76" y="37" width="1" height="1"/>
	<path d="M70,37h-1v1h-1v1c0.5,0,1.5,0,2,0C70,38.5,70,37.5,70,37z"/>
	<path d="M67,37h-1v1c0.5,0,1.5,0,2,0v-1H67z"/>
	<path d="M61,37v1c0.5,0,1.5,0,2,0v-1C62.5,37,61.5,37,61,37z"/>
	<rect x="15" y="37" width="1" height="1"/>
	<path d="M1,37v-1H0c0,0.89,0,2.11,0,3h1C1,38.5,1,37.5,1,37z"/>
	<rect x="77" y="36" width="1" height="1"/>
	<path d="M68,37h1c0-0.5,0-1.5,0-2h-1C68,35.5,68,36.5,68,37z"/>
	<rect x="14" y="36" width="1" height="1"/>
	<path d="M92,36c0,0.89,0,2.11,0,3h1c0-1.25,0-2.75,0-4h-1V36z"/>
	<rect x="78" y="35" width="1" height="1"/>
	<path d="M66,35c0-0.5,0-1.5,0-2h1c0-0.5,0-1.5,0-2h-1c0-0.89,0-2.11,0-3h-1c0,2.63,0,5.37,0,8c-0.5,0-1.5,0-2,0v1
		c0.89,0,2.11,0,3,0C66,36.5,66,35.5,66,35z"/>
	<rect x="13" y="35" width="1" height="1"/>
	<rect x="1" y="35" width="1" height="1"/>
	<rect x="91" y="34" width="1" height="1"/>
	<rect x="79" y="34" width="1" height="1"/>
	<path d="M67,35h1c0-0.5,0-1.5,0-2h-1C67,33.5,67,34.5,67,35z"/>
	<rect x="48" y="34" width="1" height="1"/>
	<rect x="21" y="34" width="1" height="1"/>
	<rect x="12" y="34" width="1" height="1"/>
	<rect x="2" y="34" width="1" height="1"/>
	<rect x="90" y="33" width="1" height="1"/>
	<rect x="80" y="33" width="1" height="1"/>
	<rect x="49" y="33" width="1" height="1"/>
	<path d="M11,34h1v-1c-0.5,0-1.5,0-2,0v1H11z"/>
	<path d="M5,34h1v-1c-0.89,0-2.11,0-3,0v1C3.5,34,4.5,34,5,34z"/>
	<path d="M89,32h-1v1c0.5,0,1.5,0,2,0v-1H89z"/>
	<path d="M81,32v1c0.5,0,1.5,0,2,0v-1C82.5,32,81.5,32,81,32z"/>
	<rect x="21" y="32" width="1" height="1"/>
	<path d="M8,33c0.5,0,1.5,0,2,0v-1c-1.25,0-2.75,0-4,0v1C6.5,33,7.5,33,8,33z"/>
	<path d="M87,31c-1.25,0-2.75,0-4,0v1c1.6,0,3.4,0,5,0v-1H87z"/>
	<rect x="73" y="31" width="1" height="1"/>
	<path d="M50,32v1h1c0-0.5,0-1.5,0-2h-1V32z"/>
	<path d="M22,32h1c0-0.5,0-1.5,0-2h-1C22,30.5,22,31.5,22,32z"/>
	<path d="M44,31h1v-1c-0.5,0-1.5,0-2,0v1H44z"/>
	<rect x="20" y="30" width="1" height="1"/>
	<path d="M74,29v-1h-1c0,0.5,0,1.5,0,2h1V29z"/>
	<path d="M42,30h1v-1c-0.5,0-1.5,0-2,0v1H42z"/>
	<rect x="21" y="29" width="1" height="1"/>
	<path d="M39,29c0.5,0,1.5,0,2,0v-1c-0.89,0-2.11,0-3,0v1H39z"/>
	<path d="M13,28c0,0.5,0,1.5,0,2c0.5,0,1.5,0,2,0c0-0.5,0-1.5,0-2C14.5,28,13.5,28,13,28z"/>
	<path d="M87,28h1c0-0.89,0-2.11,0-3c-0.89,0-2.11,0-3,0c0,0.89,0,2.11,0,3C85.5,28,86.5,28,87,28z"/>
	<rect x="74" y="27" width="1" height="1"/>
	<path d="M67,27c0-3.3,0-6.7,0-10h-1c0,3.64,0,7.36,0,11h1V27z"/>
	<path d="M37,28h1v-1c-0.5,0-1.5,0-2,0v1H37z"/>
	<rect x="32" y="27" width="1" height="1"/>
	<path d="M76,26c0-0.5,0-1.5,0-2h-1c0,0.89,0,2.11,0,3h1V26z"/>
	<path d="M35,27h1v-1c-0.89,0-2.11,0-3,0v1C33.5,27,34.5,27,35,27z"/>
	<path d="M53,25h-1v1c0.89,0,2.11,0,3,0v-1C54.5,25,53.5,25,53,25z"/>
	<path d="M71,25v1h1c0-0.5,0-1.5,0-2h-1V25z"/>
	<path d="M51,24h-1v1c0.5,0,1.5,0,2,0v-1H51z"/>
	<path d="M74,23c-0.5,0-1.5,0-2,0v1c0.89,0,2.11,0,3,0v-1H74z"/>
	<rect x="49" y="23" width="1" height="1"/>
	<path d="M43,24c0.5,0,1.5,0,2,0v-1c-0.89,0-2.11,0-3,0v1H43z"/>
	<path d="M41,23h1v-1c-0.5,0-1.5,0-2,0v1H41z"/>
	<path d="M49,21h-1c0,0.5,0,1.5,0,2h1C49,22.5,49,21.5,49,21z"/>
	<path d="M38,22c0.5,0,1.5,0,2,0v-1c-0.89,0-2.11,0-3,0v1H38z"/>
	<path d="M60,20c0-0.89,0-2.11,0-3h-1c0-0.5,0-1.5,0-2h-1v-1c-0.5,0-1.5,0-2,0v-1c-1.6,0-3.4,0-5,0v1h1v1h-1v1h-1c0,1.6,0,3.4,0,5h1
		v1h1v1h1v1c0.5,0,1.5,0,2,0v1c0.5,0,1.5,0,2,0v-1h1v-1h1c0-0.5,0-1.5,0-2h1V20z M58,18c0,0.5,0,1.5,0,2c-0.5,0-1.5,0-2,0
		c0-0.89,0-2.11,0-3c0.5,0,1.5,0,2,0V18z"/>
	<path d="M48,19v-1h-1c0,0.89,0,2.11,0,3h1C48,20.5,48,19.5,48,19z"/>
	<path d="M11,19c0-0.5,0-1.5,0-2h1v-1c1.25,0,2.75,0,4,0v1h1c0,0.89,0,2.11,0,3h-1v1h-1v1h-1v1h-1c0,0.89,0,2.11,0,3
		c0.5,0,1.5,0,2,0c0-0.5,0-1.5,0-2h1v-1h1v-1h1v-1h1c0-1.6,0-3.4,0-5h-1v-1h-1v-1c-1.95,0-4.05,0-6,0v1h-1v1H9c0,0.89,0,2.11,0,3
		C9.5,19,10.5,19,11,19z"/>
	<path d="M49,17v-1h-1c0,0.5,0,1.5,0,2h1V17z"/>
	<path d="M73,16c0-0.5,0-1.5,0-2c-0.5,0-1.5,0-2,0c0,0.5,0,1.5,0,2C71.5,16,72.5,16,73,16z"/>
	<path d="M66,15v-1h-1c0,0.89,0,2.11,0,3h1C66,16.5,66,15.5,66,15z"/>
	<rect x="49" y="15" width="1" height="1"/>
	<rect x="50" y="14" width="1" height="1"/>
	<path d="M65,12v-1h-1c0,0.89,0,2.11,0,3h1C65,13.5,65,12.5,65,12z"/>
	<rect x="23" y="12" width="1" height="1"/>
	<rect x="36" y="11" width="1" height="1"/>
	<rect x="33" y="11" width="1" height="1"/>
	<path d="M93,10V9h-1V8h-1V7c-0.5,0-1.5,0-2,0V6c-1.6,0-3.4,0-5,0v1c-0.5,0-1.5,0-2,0v1h-1v1h-1v1h-1c0,1.25,0,2.75,0,4h1v1
		c0.5,0,1.5,0,2,0c0-0.89,0-2.11,0-3h1v-1h1v-1c1.6,0,3.4,0,5,0v1h1v1h1c0,0.5,0,1.5,0,2h-1v1h-1v1h-1v1h-1v1h-1v1h-1
		c0,0.89,0,2.11,0,3h1v1c0.5,0,1.5,0,2,0c0-0.5,0-1.5,0-2h1v-1h1v-1h1v-1h1v-1h1v-1h1c0-1.95,0-4.05,0-6H93z"/>
	<path d="M35,10h-1v1c0.5,0,1.5,0,2,0v-1H35z"/>
	<path d="M64,9h-1c0,0.5,0,1.5,0,2h1C64,10.5,64,9.5,64,9z"/>
	<rect x="51" y="9" width="1" height="1"/>
	<rect x="47" y="9" width="1" height="1"/>
	<path d="M23,10v1h1c0-0.5,0-1.5,0-2h-1V10z"/>
	<path d="M50,8c-0.5,0-1.5,0-2,0v1c0.89,0,2.11,0,3,0V8H50z"/>
	<rect x="24" y="8" width="1" height="1"/>
	<path d="M70,8c0-0.5,0-1.5,0-2c0.89,0,2.11,0,3,0c0,0.89,0,2.11,0,3h-1v1h-1c0,0.89,0,2.11,0,3c0.5,0,1.5,0,2,0c0-0.5,0-1.5,0-2h1
		v-1h1c0-1.6,0-3.4,0-5h-1V4c-1.6,0-3.4,0-5,0v1h-1c0,0.89,0,2.11,0,3C68.5,8,69.5,8,70,8z"/>
	<path d="M63,7h-1c0,0.5,0,1.5,0,2h1C63,8.5,63,7.5,63,7z"/>
	<rect x="61" y="6" width="1" height="1"/>
	<path d="M33,7h-1v1h-1c0,0.5,0,1.5,0,2h-1c0,0.5,0,1.5,0,2h-1c0,0.5,0,1.5,0,2h-1c0,3.64,0,7.36,0,11h-1c0,1.6,0,3.4,0,5h1
		c0,0.5,0,1.5,0,2h1c0,0.89,0,2.11,0,3h1c0,0.5,0,1.5,0,2h-1v1c-0.5,0-1.5,0-2,0v1c-0.5,0-1.5,0-2,0v1h-1v1c-0.5,0-1.5,0-2,0v1
		c0.5,0,1.5,0,2,0v1h1c0,0.5,0,1.5,0,2h1c0,1.25,0,2.75,0,4h-1c0,0.89,0,2.11,0,3h-1c0,0.5,0,1.5,0,2c0.5,0,1.5,0,2,0
		c0,0.5,0,1.5,0,2h1c0-1.25,0-2.75,0-4h1c0-0.89,0-2.11,0-3h1c0-0.89,0-2.11,0-3h1c0-1.25,0-2.75,0-4h1c0-0.89,0-2.11,0-3h1
		c0-1.25,0-2.75,0-4c0.5,0,1.5,0,2,0v1c0.89,0,2.11,0,3,0v-1h-1v-1h-1v-1h-1v-1h-1c0-0.5,0-1.5,0-2h-1c0-0.5,0-1.5,0-2h-1
		c0-1.6,0-3.4,0-5h1v-1h1v-1c1.25,0,2.75,0,4,0v-1h-1c0-0.89,0-2.11,0-3h-1c0,0.5,0,1.5,0,2h-1c0-0.5,0-1.5,0-2h1c0-0.5,0-1.5,0-2
		h-1v-1c-0.89,0-2.11,0-3,0c0-0.5,0-1.5,0-2h1c0-0.5,0-1.5,0-2h1c0-0.5,0-1.5,0-2h1c0-0.5,0-1.5,0-2h-1V7z M31,17h-1v-1h1V17z
		 M29,23c0-1.6,0-3.4,0-5h1c0,1.6,0,3.4,0,5H29z"/>
	<path d="M25,7v1h1c0-0.89,0-2.11,0-3h-1C25,5.5,25,6.5,25,7z"/>
	<path d="M22,6V5h-1c0,0.5,0,1.5,0,2h1V6z"/>
	<rect x="60" y="5" width="1" height="1"/>
	<rect x="34" y="5" width="1" height="1"/>
	<rect x="59" y="4" width="1" height="1"/>
	<rect x="35" y="4" width="1" height="1"/>
	<path d="M24,5h1V4c-0.89,0-2.11,0-3,0v1C22.5,5,23.5,5,24,5z"/>
	<path d="M58,3h-1v1c0.5,0,1.5,0,2,0V3H58z"/>
	<path d="M36,3v1c0.5,0,1.5,0,2,0V3C37.5,3,36.5,3,36,3z"/>
	<path d="M56,2h-1v1c0.5,0,1.5,0,2,0V2H56z"/>
	<path d="M38,2v1c0.5,0,1.5,0,2,0V2C39.5,2,38.5,2,38,2z"/>
	<path d="M54,1c-0.5,0-1.5,0-2,0v1c0.89,0,2.11,0,3,0V1H54z"/>
	<path d="M41,1h-1v1c0.89,0,2.11,0,3,0V1C42.5,1,41.5,1,41,1z"/>
	<path d="M51,0c-2.63,0-5.37,0-8,0v1c2.97,0,6.03,0,9,0V0H51z"/>
</g>
</svg>