<svg width="50" height="22" viewBox="0 0 50 22" fill="none" xmlns="http://www.w3.org/2000/svg">
<path d="M8.59185 2.25696C9.15493 1.46818 10.0644 1 11.0335 1H41.4969C42.4754 1 43.3925 1.47728 43.954 2.27876L48.4571 8.70708L49.2423 8.15703L48.4571 8.70708C48.8105 9.2115 49 9.81244 49 10.4283V18C49 19.6569 47.6569 21 46 21H10.6893C9.868 21 9.08258 20.6633 8.51632 20.0683L3.00204 14.275C2.01043 13.2332 1.89772 11.6342 2.73338 10.4636L8.59185 2.25696Z" stroke="#589DFF" stroke-width="2"/>
<g clip-path="url(#clip0_477_615)">
<path fill-rule="evenodd" clip-rule="evenodd" d="M29.3941 13.6991L29.381 13.7199L29.3455 13.7682L29.3046 13.8137L26.2396 16.9069C25.8703 17.2796 25.2501 17.0433 25.1969 16.5397L25.1932 16.4694L25.1932 12.1879L23.1242 13.8594C22.8599 14.0728 22.4741 14.0295 22.2626 13.7627C22.0674 13.5165 22.0889 13.1658 22.3013 12.9455L22.3584 12.8932L24.8248 10.9018L22.3584 8.91036C22.094 8.69692 22.0512 8.30763 22.2626 8.04084C22.4579 7.79457 22.8016 7.73877 23.0612 7.89951L23.1242 7.94422L25.1932 9.61505L25.1932 5.33416C25.1932 4.80699 25.7973 4.53153 26.1878 4.84964L26.2396 4.89673L29.3046 7.98986C29.3336 8.01917 29.3591 8.05062 29.381 8.08368L29.3981 8.11085L29.4254 8.16263L29.4559 8.24144C29.52 8.45324 29.4717 8.68704 29.317 8.85193L29.254 8.91036L26.787 10.9018L29.254 12.8932C29.4171 13.0248 29.4946 13.2215 29.483 13.4145C29.479 13.4749 29.4674 13.532 29.4476 13.5871L29.4254 13.6409L29.3941 13.6991ZM26.419 12.1884V14.9747L27.9527 13.4269L26.419 12.1884ZM26.419 9.61452V6.82823L27.9527 8.37603L26.419 9.61452Z" fill="#589DFF"/>
</g>
<defs>
<clipPath id="clip0_477_615">
<rect width="12.3077" height="12.5714" fill="white" transform="translate(20 4.71429)"/>
</clipPath>
</defs>
</svg>
