<svg width="56" height="24" viewBox="0 0 56 24" fill="none" xmlns="http://www.w3.org/2000/svg">
<path d="M9.35957 2.63544C10.113 1.60742 11.3113 1 12.5858 1H46.2452C47.5324 1 48.741 1.61947 49.4926 2.6645L54.2474 9.27577C54.7367 9.9562 55 10.7731 55 11.6113V19C55 21.2091 53.2091 23 51 23H12.1562C11.0793 23 10.048 22.5658 9.29535 21.7956L3.67762 16.0469C2.31027 14.6476 2.15567 12.4647 3.31218 10.8867L9.35957 2.63544Z" stroke="#589DFF" stroke-width="2"/>
<g clip-path="url(#clip0_365_313)">
<path fill-rule="evenodd" clip-rule="evenodd" d="M32.9215 14.9445L32.9069 14.9672L32.867 15.0199L32.8212 15.0695L29.3885 18.4439C28.9748 18.8505 28.2803 18.5927 28.2206 18.0434L28.2165 17.9667L28.2165 13.2959L25.8993 15.1193C25.6032 15.3522 25.1711 15.305 24.9343 15.0139C24.7156 14.7453 24.7397 14.3627 24.9776 14.1224L25.0415 14.0654L27.8039 11.8929L25.0415 9.72041C24.7454 9.48757 24.6974 9.06288 24.9343 8.77184C25.1529 8.50318 25.5379 8.44231 25.8287 8.61767L25.8993 8.66644L28.2165 10.4892L28.2165 5.8191C28.2165 5.244 28.8931 4.94351 29.3305 5.29053L29.3885 5.3419L32.8212 8.71622C32.8538 8.74821 32.8823 8.78251 32.9069 8.81858L32.926 8.84822L32.9566 8.90471L32.9908 8.99068C33.0626 9.22174 33.0084 9.47679 32.8352 9.65667L32.7646 9.72041L30.0015 11.8929L32.7646 14.0654C32.9472 14.2089 33.0341 14.4235 33.021 14.634C33.0166 14.6999 33.0036 14.7622 32.9814 14.8223L32.9566 14.881L32.9215 14.9445ZM29.5893 13.2964V16.336L31.307 14.6475L29.5893 13.2964ZM29.5893 10.4886V7.449L31.307 9.13751L29.5893 10.4886Z" fill="#589DFF"/>
</g>
<defs>
<clipPath id="clip0_365_313">
<rect width="13.7846" height="13.7143" fill="white" transform="translate(22.4 5.14288)"/>
</clipPath>
</defs>
</svg>
