<svg width="70" height="82" viewBox="0 0 70 82" fill="none" xmlns="http://www.w3.org/2000/svg">
<rect x="38" y="8" width="10" height="2" rx="1" fill="#616161"/>
<path d="M26.2 5.5H59.8V2.5H26.2V5.5ZM62.5 8.11111V73.8889H65.5V8.11111H62.5ZM59.8 76.5H26.2V79.5H59.8V76.5ZM23.5 73.8889V8.11111H20.5V73.8889H23.5ZM26.2 76.5C24.6784 76.5 23.5 75.3009 23.5 73.8889H20.5C20.5 77.0179 23.0824 79.5 26.2 79.5V76.5ZM62.5 73.8889C62.5 75.3009 61.3216 76.5 59.8 76.5V79.5C62.9176 79.5 65.5 77.0179 65.5 73.8889H62.5ZM59.8 5.5C61.3216 5.5 62.5 6.69912 62.5 8.11111H65.5C65.5 4.98209 62.9176 2.5 59.8 2.5V5.5ZM26.2 2.5C23.0824 2.5 20.5 4.9821 20.5 8.11111H23.5C23.5 6.69912 24.6784 5.5 26.2 5.5V2.5Z" fill="#616161"/>
</svg>
