<svg width="42" height="24" viewBox="0 0 42 24" fill="none" xmlns="http://www.w3.org/2000/svg">
<path d="M6.97885 4.21049C7.58029 3.29869 8.59953 2.75 9.69181 2.75H34.4303C35.5326 2.75 36.5597 3.30868 37.1586 4.23401L40.7283 9.74894C41.0688 10.275 41.25 10.8883 41.25 11.5149V18C41.25 19.7949 39.7949 21.25 38 21.25H9.34742C8.41312 21.25 7.52401 20.8479 6.90698 20.1463L2.5807 15.2272C1.61287 14.1268 1.50125 12.5147 2.30818 11.2914L6.97885 4.21049Z" fill="#589DFF" stroke="#589DFF" stroke-width="1.5"/>
<g clip-path="url(#clip0_851_5139)">
<path fill-rule="evenodd" clip-rule="evenodd" d="M19.2135 14.6682L19.5957 14.7566C19.9603 14.841 20.3152 14.6096 20.3885 14.2398C20.4617 13.87 20.2254 13.5019 19.8608 13.4175L17.9819 12.9828C17.6454 12.905 17.312 13.0961 17.2077 13.4266L16.6932 15.0573C16.5802 15.4155 16.7758 15.8069 17.1301 15.9316C17.4844 16.0563 17.8633 15.867 17.9763 15.5088L18.0327 15.33C18.8203 16.4004 19.8768 17.0567 20.7344 17.3585C21.8007 17.7337 23.3705 17.8472 24.8848 17.0905C26.4036 16.3316 27.2655 14.9636 27.6038 13.8917C27.7168 13.5334 27.5212 13.142 27.1669 13.0173C26.8126 12.8926 26.4337 13.0819 26.3207 13.4401C26.0682 14.2403 25.4074 15.2841 24.2669 15.854C23.1217 16.4262 21.9294 16.3377 21.1438 16.0613C20.5418 15.8495 19.7954 15.393 19.2135 14.6682ZM24.4587 10.438C24.0941 10.3537 23.8578 9.98552 23.9311 9.61573C24.0043 9.24594 24.3592 9.01456 24.7238 9.09892L25.106 9.18734C24.5241 8.4625 23.7777 8.00608 23.1758 7.79425C22.3901 7.5178 21.1978 7.4293 20.0526 8.00153C18.9121 8.57143 18.2513 9.61521 17.9988 10.4154C17.8858 10.7736 17.5069 10.9629 17.1526 10.8382C16.7983 10.7136 16.6027 10.3221 16.7157 9.96388C17.054 8.8919 17.9159 7.52396 19.4348 6.765C20.949 6.00837 22.5189 6.12187 23.5851 6.49706C24.4427 6.79886 25.4992 7.45518 26.2868 8.52552L26.3432 8.34675C26.4562 7.98854 26.8351 7.79923 27.1894 7.92391C27.5437 8.0486 27.7393 8.44006 27.6263 8.79827L27.1118 10.4289C27.0075 10.7594 26.6741 10.9506 26.3376 10.8727L24.4587 10.438Z" fill="white"/>
</g>
<defs>
<clipPath id="clip0_851_5139">
<rect width="12" height="12" fill="white" transform="translate(16 6)"/>
</clipPath>
</defs>
</svg>
