<svg width="12" height="12" viewBox="0 0 12 12" fill="none" xmlns="http://www.w3.org/2000/svg">
<path d="M6.55429 10.8286C6.75522 10.6277 6.8681 10.3552 6.8681 10.071C6.8681 9.78687 6.75522 9.51436 6.55429 9.31344C6.35336 9.11252 6.08083 8.99964 5.79667 8.99964C5.51251 8.99964 5.23999 9.11252 5.03906 9.31344C4.83813 9.51436 4.72525 9.78687 4.72525 10.071C4.72525 10.3552 4.83813 10.6277 5.03906 10.8286C5.23999 11.0295 5.51251 11.1424 5.79667 11.1424C6.08083 11.1424 6.35336 11.0295 6.55429 10.8286Z" fill="white"/>
<path d="M5.79667 2.57138C5.01067 2.57138 4.42525 2.96565 4.1981 3.39763C4.14753 3.50014 4.07695 3.59151 3.99053 3.66634C3.90411 3.74118 3.8036 3.79797 3.6949 3.83338C3.5862 3.86879 3.47152 3.8821 3.3576 3.87252C3.24369 3.86294 3.13284 3.83068 3.03158 3.77762C2.93032 3.72456 2.84069 3.65179 2.76798 3.56357C2.69527 3.47536 2.64094 3.3735 2.60819 3.26397C2.57544 3.15445 2.56493 3.03949 2.57728 2.92584C2.58963 2.8122 2.62459 2.70217 2.6801 2.60224C3.24667 1.52143 4.4741 0.857178 5.79667 0.857178C7.53667 0.857178 9.22525 2.06055 9.22525 3.85703C9.22525 5.35439 8.05267 6.44034 6.65382 6.76004V6.85689C6.65382 7.08421 6.56351 7.30221 6.40277 7.46295C6.24202 7.62369 6.024 7.71399 5.79667 7.71399C5.56935 7.71399 5.35133 7.62369 5.19058 7.46295C5.02984 7.30221 4.93953 7.08421 4.93953 6.85689V5.99979C4.93953 5.77247 5.02984 5.55446 5.19058 5.39372C5.35133 5.23299 5.56935 5.14268 5.79667 5.14268C6.89639 5.14268 7.51096 4.42701 7.51096 3.85703C7.51096 3.28706 6.89639 2.57138 5.79667 2.57138Z" fill="white"/>
</svg>
