<svg width="55" height="54" viewBox="0 0 55 54" fill="none" xmlns="http://www.w3.org/2000/svg">
<circle cx="27.5" cy="27" r="24" fill="#FF8200"/>
<circle cx="27.5" cy="27" r="25.5" stroke="#FF8200" stroke-opacity="0.5" stroke-width="3"/>
<path d="M33.4294 38.2H20.5542V33.3304H32.7518C34.7847 33.3304 36.14 30.7333 36.14 29.1101C36.14 28.4609 35.8012 27.1623 35.4624 26.1884C34.7847 25.2145 34.1071 24.5652 33.0906 24.5652H22.2483V27.8116L13.1 21.9681L22.2483 15.8V19.371H32.7518C35.1235 19.371 37.4953 20.6696 39.5282 22.6174C41.2224 24.5652 41.9 26.8377 41.9 28.7855C41.9 31.3826 41.2224 33.6551 39.5282 35.2782C37.8341 37.2261 35.8012 38.2 33.4294 38.2ZM22.5871 36.2522H33.4294C35.1235 36.2522 36.8177 35.6029 38.173 33.9797C39.5283 32.6812 40.2059 30.7333 40.2059 28.4609C40.2059 26.8377 39.5283 24.8898 38.173 23.2667C36.8177 21.6435 35.1236 20.6696 33.0906 20.6696H20.893V18.7217L17.1659 21.3188L20.893 23.5913V21.9681H33.4294C35.1235 21.9681 36.8177 22.942 37.4953 24.5652C38.5118 26.1884 38.5118 27.8116 38.5118 28.4609C38.5118 31.058 36.4788 34.3043 33.4294 34.3043H22.9259L22.5871 36.2522Z" fill="black"/>
</svg>
