<svg width="64" height="28" viewBox="0 0 64 28" fill="none" xmlns="http://www.w3.org/2000/svg">
<g clip-path="url(#clip0_348_25179)">
<path fill-rule="evenodd" clip-rule="evenodd" d="M14.8424 3.6001H45.3458C46.1721 3.6001 46.945 4.00836 47.4108 4.69083L49.2465 7.38062L50.1312 6.01606L48.6497 3.84528C47.9045 2.75331 46.6679 2.1001 45.3458 2.1001H14.8424C13.6311 2.1001 12.485 2.64899 11.7258 3.59277L4.89808 12.0796C3.58415 13.7128 3.75389 16.0834 5.28711 17.5127L11.7744 23.5605C12.5148 24.2508 13.4896 24.6347 14.5019 24.6347H38.0592L39.0318 23.1347H14.5019C13.8692 23.1347 13.26 22.8948 12.7972 22.4633L6.30996 16.4156C5.35169 15.5222 5.24561 14.0406 6.06681 13.0199L12.8945 4.53302C13.369 3.94315 14.0853 3.6001 14.8424 3.6001Z" fill="#616161"/>
<circle cx="40.5" cy="11.5" r="3.75" stroke="#616161" stroke-width="1.5"/>
<path d="M50.234 9.48335C51.0269 8.30859 52.7564 8.30859 53.5494 9.48336L62.8412 23.2493C63.7378 24.5776 62.7861 26.3682 61.1835 26.3682H42.5999C40.9973 26.3682 40.0456 24.5776 40.9422 23.2493L50.234 9.48335Z" fill="#F63F3F"/>
<circle cx="51.8" cy="22" r="1" fill="white"/>
<rect x="50.8" y="12" width="2" height="7" rx="1" fill="white"/>
<rect x="16.75" y="6.75" width="16.5" height="9.5" rx="1.25" stroke="#616161" stroke-width="1.5"/>
</g>
<defs>
<clipPath id="clip0_348_25179">
<rect width="64" height="28" fill="white"/>
</clipPath>
</defs>
</svg>
