<svg width="49" height="48" viewBox="0 0 49 48" fill="none" xmlns="http://www.w3.org/2000/svg">
<rect x="0.5" width="48" height="48" rx="24" fill="#FF8200" fill-opacity="0.1"/>
<path d="M20.729 27.7646L28.2715 20.2222" stroke="#FF8200" stroke-width="2" stroke-linecap="round" stroke-linejoin="round"/>
<path d="M18.606 23.7626C18.9965 23.3721 18.9965 22.739 18.606 22.3484C18.2155 21.9579 17.5823 21.9579 17.1918 22.3484L18.606 23.7626ZM26.1485 31.3051C26.539 30.9146 26.539 30.2814 26.1485 29.8909C25.7579 29.5004 25.1248 29.5004 24.7343 29.8909L26.1485 31.3051ZM17.1918 22.3484L15.3062 24.2341L16.7204 25.6483L18.606 23.7626L17.1918 22.3484ZM24.2628 33.1907L26.1485 31.3051L24.7343 29.8909L22.8486 31.7765L24.2628 33.1907ZM15.3062 33.1907C17.7795 35.6641 21.7895 35.6641 24.2628 33.1907L22.8486 31.7765C21.1564 33.4688 18.4126 33.4688 16.7204 31.7765L15.3062 33.1907ZM15.3062 24.2341C12.8328 26.7074 12.8328 30.7174 15.3062 33.1907L16.7204 31.7765C15.0281 30.0843 15.0281 27.3405 16.7204 25.6483L15.3062 24.2341Z" fill="#FF8200"/>
<path d="M22.8486 16.699C22.458 17.0895 22.458 17.7227 22.8486 18.1132C23.2391 18.5037 23.8722 18.5037 24.2628 18.1132L22.8486 16.699ZM30.391 24.2415C30.0005 24.632 30.0005 25.2651 30.391 25.6557C30.7816 26.0462 31.4147 26.0462 31.8052 25.6557L30.391 24.2415ZM24.2628 18.1132L26.1484 16.2276L24.7342 14.8134L22.8486 16.699L24.2628 18.1132ZM32.2766 22.3558L30.391 24.2415L31.8052 25.6557L33.6909 23.77L32.2766 22.3558ZM32.2766 16.2276C33.9689 17.9198 33.9689 20.6636 32.2766 22.3558L33.6909 23.77C36.1642 21.2967 36.1642 17.2867 33.6909 14.8134L32.2766 16.2276ZM26.1484 16.2276C27.8407 14.5353 30.5844 14.5353 32.2766 16.2276L33.6909 14.8134C31.2175 12.34 27.2075 12.34 24.7342 14.8134L26.1484 16.2276Z" fill="#FF8200"/>
</svg>
