<svg width="32" height="32" viewBox="0 0 32 32" fill="none" xmlns="http://www.w3.org/2000/svg">
<g clip-path="url(#clip0_2038_6788)">
<path d="M7.44922 21L4.87109 12.4688H6.6875L8.13477 18.041L8.28125 18.6152L8.43945 18.0352L9.89258 12.4688H11.709L9.125 21H7.44922ZM19.1172 17.3613C19.1172 17.7285 19.084 18.0781 19.0176 18.4102C18.9512 18.7383 18.8555 19.043 18.7305 19.3242C18.5977 19.6055 18.4336 19.8633 18.2383 20.0977C18.043 20.332 17.8203 20.5273 17.5703 20.6836C17.3438 20.8203 17.0938 20.9258 16.8203 21C16.5508 21.0781 16.2598 21.1172 15.9473 21.1172C15.6152 21.1172 15.3086 21.0742 15.0273 20.9883C14.7461 20.9023 14.4902 20.7812 14.2598 20.625C14.0332 20.4609 13.8301 20.2637 13.6504 20.0332C13.4707 19.7988 13.3203 19.5352 13.1992 19.2422C13.0898 18.9727 13.0059 18.6797 12.9473 18.3633C12.8926 18.0469 12.8652 17.7129 12.8652 17.3613V16.1191C12.8652 15.7441 12.8965 15.3887 12.959 15.0527C13.0254 14.7168 13.1211 14.4062 13.2461 14.1211C13.3672 13.8516 13.5137 13.6074 13.6855 13.3887C13.8613 13.1699 14.0625 12.9824 14.2891 12.8262C14.5117 12.6738 14.7617 12.5566 15.0391 12.4746C15.3164 12.3926 15.6172 12.3516 15.9414 12.3516C16.2695 12.3516 16.5762 12.3945 16.8613 12.4805C17.1504 12.5625 17.4102 12.6816 17.6406 12.8379C17.8711 12.9863 18.0723 13.166 18.2441 13.377C18.4199 13.5879 18.5703 13.8203 18.6953 14.0742C18.832 14.3633 18.9355 14.6797 19.0059 15.0234C19.0801 15.3672 19.1172 15.7324 19.1172 16.1191V17.3613ZM17.4473 16.1074C17.4473 15.8887 17.4355 15.6816 17.4121 15.4863C17.3926 15.2871 17.3594 15.1035 17.3125 14.9355C17.2539 14.7246 17.1758 14.5371 17.0781 14.373C16.9805 14.2051 16.8652 14.0684 16.7324 13.9629C16.627 13.8848 16.5078 13.8242 16.375 13.7812C16.2461 13.7383 16.1016 13.7168 15.9414 13.7168C15.7891 13.7168 15.6504 13.7363 15.5254 13.7754C15.4043 13.8145 15.2949 13.8711 15.1973 13.9453C15.0645 14.0547 14.9512 14.1914 14.8574 14.3555C14.7676 14.5195 14.6973 14.7109 14.6465 14.9297C14.6074 15.0977 14.5781 15.2812 14.5586 15.4805C14.543 15.6797 14.5352 15.8887 14.5352 16.1074V17.3613C14.5352 17.5684 14.543 17.7676 14.5586 17.959C14.5742 18.1504 14.6016 18.3281 14.6406 18.4922C14.6836 18.6992 14.7461 18.8887 14.8281 19.0605C14.9141 19.2285 15.0137 19.3652 15.127 19.4707C15.2324 19.5645 15.3516 19.6367 15.4844 19.6875C15.6211 19.7383 15.7754 19.7637 15.9473 19.7637C16.1113 19.7637 16.2617 19.7402 16.3984 19.6934C16.5352 19.6465 16.6562 19.5781 16.7617 19.4883C16.8945 19.3789 17.0059 19.2422 17.0957 19.0781C17.1895 18.9102 17.2637 18.7207 17.3184 18.5098C17.3613 18.3457 17.3926 18.166 17.4121 17.9707C17.4355 17.7754 17.4473 17.5723 17.4473 17.3613V16.1074ZM20.8359 21V12.4688H23.0449C23.4395 12.4688 23.8086 12.5176 24.1523 12.6152C24.4961 12.709 24.8086 12.8438 25.0898 13.0195C25.3359 13.1641 25.5547 13.3418 25.7461 13.5527C25.9414 13.7598 26.1113 13.9863 26.2559 14.2324C26.4238 14.5332 26.5527 14.8652 26.6426 15.2285C26.7363 15.5918 26.7832 15.9785 26.7832 16.3887V17.0918C26.7832 17.4863 26.7402 17.8594 26.6543 18.2109C26.5684 18.5625 26.4473 18.8848 26.291 19.1777C26.1426 19.4395 25.9688 19.6816 25.7695 19.9043C25.5703 20.123 25.3516 20.3066 25.1133 20.4551C24.8359 20.6309 24.5293 20.7656 24.1934 20.8594C23.8613 20.9531 23.5059 21 23.127 21H20.8359ZM22.4941 13.8047V19.6758H23.127C23.3301 19.6758 23.5195 19.6504 23.6953 19.5996C23.8711 19.5488 24.0312 19.4746 24.1758 19.377C24.3242 19.2754 24.457 19.1465 24.5742 18.9902C24.6953 18.8301 24.7988 18.6445 24.8848 18.4336C24.9551 18.25 25.0078 18.0469 25.043 17.8242C25.082 17.5977 25.1016 17.3535 25.1016 17.0918V16.377C25.1016 16.1309 25.082 15.8984 25.043 15.6797C25.0078 15.457 24.9551 15.2539 24.8848 15.0703C24.7988 14.8516 24.6855 14.6562 24.5449 14.4844C24.4082 14.3125 24.248 14.1719 24.0645 14.0625C23.9238 13.9805 23.7676 13.918 23.5957 13.875C23.4277 13.8281 23.2441 13.8047 23.0449 13.8047H22.4941Z" fill="white"/>
</g>
<defs>
<clipPath id="clip0_2038_6788">
<rect width="32" height="32" fill="white"/>
</clipPath>
</defs>
</svg>
