<svg width="32" height="32" viewBox="0 0 32 32" fill="none" xmlns="http://www.w3.org/2000/svg">
<g clip-path="url(#clip0_1996_6558)">
<path d="M9.65234 19.2188H7.0918L6.58789 21H4.85352L7.64844 12.4688H9.14258L11.8848 21H10.1504L9.65234 19.2188ZM7.49609 17.8184H9.26562L8.39258 14.6777L7.49609 17.8184ZM18.8477 12.4688L18.8535 18.123C18.8535 18.5996 18.7871 19.0234 18.6543 19.3945C18.5254 19.7656 18.3379 20.0781 18.0918 20.332C17.8418 20.5898 17.5371 20.7852 17.1777 20.918C16.8223 21.0508 16.416 21.1172 15.959 21.1172C15.5293 21.1172 15.1406 21.0508 14.793 20.918C14.4492 20.7852 14.1543 20.5918 13.9082 20.3379C13.6621 20.084 13.4707 19.7715 13.334 19.4004C13.2012 19.0254 13.1348 18.5996 13.1348 18.123L13.1406 12.4688H14.7871L14.793 18.123C14.7969 18.4082 14.8242 18.6582 14.875 18.873C14.9297 19.0879 15.0098 19.2656 15.1152 19.4062C15.2129 19.5352 15.332 19.6328 15.4727 19.6992C15.6133 19.7617 15.7754 19.793 15.959 19.793C16.1582 19.793 16.334 19.7598 16.4863 19.6934C16.6426 19.623 16.7715 19.5195 16.873 19.3828C16.9824 19.2422 17.0645 19.0664 17.1191 18.8555C17.1738 18.6445 17.2031 18.4004 17.207 18.123L17.2129 12.4688H18.8477ZM23.7598 15.5273L25.2773 12.4688H27.2109L24.8086 16.6992L27.2695 21H25.3477L23.7832 17.8945L22.2246 21H20.2793L22.7402 16.6992L20.3438 12.4688H22.2656L23.7598 15.5273Z" fill="white"/>
</g>
<defs>
<clipPath id="clip0_1996_6558">
<rect width="32" height="32" fill="white"/>
</clipPath>
</defs>
</svg>
