<svg width="32" height="32" viewBox="0 0 32 32" fill="none" xmlns="http://www.w3.org/2000/svg">
<path fill-rule="evenodd" clip-rule="evenodd" d="M6 2C4.89543 2 4 2.89543 4 4V28.9991C4 29.8378 4.97034 30.3039 5.62504 29.7797L16 21.4723L26.375 29.7797C27.0297 30.3039 28 29.8378 28 28.9991V4C28 2.89543 27.1046 2 26 2H6ZM12.5807 18.8993L15.6104 17.2348C15.8543 17.1008 16.1456 17.1008 16.3895 17.2348L19.4192 18.8993C19.5822 18.9889 19.7688 19.0198 19.9503 18.9872C20.406 18.9056 20.712 18.4533 20.6339 17.9771L20.0552 14.4516C20.0087 14.1679 20.0987 13.8783 20.296 13.6773L22.7471 11.1806C22.8789 11.0463 22.9647 10.8703 22.9912 10.6799C23.0577 10.2018 22.7407 9.75783 22.2831 9.68835L18.8958 9.174C18.6232 9.13259 18.3874 8.95363 18.2655 8.69543L16.7507 5.48786C16.6692 5.31533 16.5355 5.17568 16.3704 5.09053C15.9558 4.8767 15.4539 5.05459 15.2492 5.48786L13.7344 8.69543C13.6125 8.95363 13.3767 9.13259 13.1041 9.174L9.71677 9.68835C9.53458 9.71602 9.36619 9.80568 9.23768 9.94345C8.91496 10.2894 8.92173 10.8433 9.25281 11.1806L11.7039 13.6773C11.9012 13.8783 11.9912 14.1679 11.9446 14.4516L11.366 17.9771C11.3349 18.1667 11.3645 18.3618 11.4501 18.5321C11.6653 18.9597 12.1715 19.1242 12.5807 18.8993Z" fill="white"/>
</svg>
