<svg width="30" height="30" viewBox="0 0 30 30" fill="none" xmlns="http://www.w3.org/2000/svg">
<g clip-path="url(#clip0_365_10001)">
<rect x="6" width="18" height="2" fill="black"/>
<rect x="14" y="3" width="2" height="2" fill="black"/>
<rect x="14" y="5" width="2" height="2" fill="black"/>
<rect x="12" y="5" width="2" height="2" fill="black"/>
<rect x="16" y="5" width="2" height="2" fill="black"/>
<rect x="10" y="7" width="10" height="2" fill="black"/>
<rect x="16" y="27" width="2" height="2" transform="rotate(-180 16 27)" fill="black"/>
<rect x="16" y="25" width="2" height="2" transform="rotate(-180 16 25)" fill="black"/>
<rect x="18" y="25" width="2" height="2" transform="rotate(-180 18 25)" fill="black"/>
<rect x="14" y="25" width="2" height="2" transform="rotate(-180 14 25)" fill="black"/>
<rect x="20" y="23" width="10" height="2" transform="rotate(-180 20 23)" fill="black"/>
<rect x="3" y="16" width="2" height="2" transform="rotate(-90 3 16)" fill="black"/>
<rect x="5" y="16" width="2" height="2" transform="rotate(-90 5 16)" fill="black"/>
<rect x="5" y="18" width="2" height="2" transform="rotate(-90 5 18)" fill="black"/>
<rect x="5" y="14" width="2" height="2" transform="rotate(-90 5 14)" fill="black"/>
<rect x="7" y="20" width="10" height="2" transform="rotate(-90 7 20)" fill="black"/>
<rect x="27" y="14" width="2" height="2" transform="rotate(90 27 14)" fill="black"/>
<rect x="25" y="14" width="2" height="2" transform="rotate(90 25 14)" fill="black"/>
<rect x="25" y="12" width="2" height="2" transform="rotate(90 25 12)" fill="black"/>
<rect x="25" y="16" width="2" height="2" transform="rotate(90 25 16)" fill="black"/>
<rect x="23" y="10" width="10" height="2" transform="rotate(90 23 10)" fill="black"/>
<rect x="13" y="16" width="4" height="2" fill="black"/>
<rect x="13" y="16.5" width="4" height="2" fill="black"/>
<rect x="13" y="11.5" width="4" height="2" fill="black"/>
<rect x="13" y="13.5" width="4" height="3" fill="black"/>
<rect x="17" y="13.5" width="2" height="3" fill="black"/>
<rect x="11" y="13.5" width="2" height="3" fill="black"/>
<rect x="4" y="2" width="2" height="2" fill="black"/>
<rect x="24" y="2" width="2" height="2" fill="black"/>
<rect x="26" y="4" width="2" height="2" fill="black"/>
<rect x="2" y="4" width="2" height="2" fill="black"/>
<rect x="4" y="26" width="2" height="2" fill="black"/>
<rect x="2" y="24" width="2" height="2" fill="black"/>
<rect x="24" y="26" width="2" height="2" fill="black"/>
<rect x="26" y="24" width="2" height="2" fill="black"/>
<rect x="28" y="6" width="2" height="18" fill="black"/>
<rect y="6" width="2" height="18" fill="black"/>
<rect x="6" y="28" width="18" height="2" fill="black"/>
</g>
<defs>
<clipPath id="clip0_365_10001">
<rect width="30" height="30" fill="white"/>
</clipPath>
</defs>
</svg>
