<svg width="22" height="22" viewBox="0 0 22 22" fill="none" xmlns="http://www.w3.org/2000/svg">
<path fill-rule="evenodd" clip-rule="evenodd" d="M11 0C4.92529 0 0 4.9242 0 11C0 17.0745 4.92529 22 11 22C17.0747 22 22 17.0745 22 11C22 4.9242 17.0747 0 11 0ZM11.5854 15.5018C11.3706 15.7093 11.1155 15.8123 10.816 15.8123C10.5179 15.8123 10.2642 15.708 10.0547 15.5018C9.84656 15.2944 9.74182 15.0417 9.74182 14.745C9.74182 14.4472 9.84656 14.1931 10.0547 13.9807C10.2642 13.7695 10.5179 13.6626 10.816 13.6626C11.1155 13.6626 11.3719 13.7682 11.5854 13.9807C11.7976 14.1932 11.9037 14.4471 11.9037 14.745C11.9037 15.0417 11.799 15.2944 11.5854 15.5018ZM12.8154 10.9987C13.225 10.7095 13.5499 10.3739 13.7957 9.99049C14.04 9.60696 14.1636 9.14437 14.1609 8.60382C14.1609 8.26183 14.0938 7.9274 13.9568 7.60312C13.8212 7.27876 13.6171 6.99216 13.3458 6.7445C13.0719 6.49684 12.7362 6.29576 12.3387 6.14235C11.9386 5.98894 11.4753 5.91223 10.9503 5.91223C10.4427 5.91223 9.99561 5.99389 9.61023 6.15611C9.22485 6.31834 8.8999 6.53326 8.63672 6.79855C8.37488 7.065 8.1748 7.37183 8.03918 7.71877C7.90356 8.0657 7.83508 8.41902 7.83508 8.77981C7.83508 8.87909 7.84045 8.98097 7.84851 9.08403C7.85791 9.18835 7.87537 9.28897 7.90356 9.38825L9.61694 9.45615C9.57935 9.34797 9.56189 9.20463 9.56189 9.02361C9.56189 8.83503 9.59009 8.64771 9.6438 8.46291C9.69751 8.2782 9.7821 8.11597 9.8949 7.97641C10.009 7.83693 10.1514 7.72246 10.3246 7.63199C10.4965 7.54152 10.7046 7.4962 10.9503 7.4962C11.1759 7.4962 11.376 7.53002 11.5492 7.598C11.7211 7.66589 11.8647 7.75519 11.9775 7.86832C12.0903 7.98145 12.1749 8.11211 12.2286 8.26049C12.2823 8.40887 12.3105 8.55968 12.3105 8.71309C12.3105 9.13682 12.1158 9.49383 11.7264 9.78168L11.0739 10.2682C10.6831 10.5573 10.4065 10.8653 10.244 11.1947C10.0802 11.5241 9.99829 11.8685 9.99829 12.2294C9.99829 12.3287 10.0037 12.4229 10.0117 12.5135C10.0211 12.604 10.0332 12.6933 10.052 12.7838H11.5223V12.7021C11.5223 12.423 11.5868 12.1779 11.713 11.9654C11.8406 11.7542 12.0219 11.5619 12.2582 11.3909L12.8154 10.9987Z" fill="#919191"/>
</svg>
