<svg width="32" height="32" viewBox="0 0 32 32" fill="none" xmlns="http://www.w3.org/2000/svg">
<path fill-rule="evenodd" clip-rule="evenodd" d="M6.2 4.8C5.8287 4.8 5.4726 4.9475 5.21005 5.21005C4.9475 5.4726 4.8 5.8287 4.8 6.2V25.8C4.8 26.1713 4.9475 26.5274 5.21005 26.7899C5.4726 27.0525 5.8287 27.2 6.2 27.2H11.8C12.5732 27.2 13.2 27.8268 13.2 28.6C13.2 29.3732 12.5732 30 11.8 30H6.2C5.08609 30 4.0178 29.5575 3.23015 28.7698C2.4425 27.9822 2 26.9139 2 25.8V6.2C2 5.08609 2.4425 4.0178 3.23015 3.23015C4.0178 2.4425 5.08609 2 6.2 2H11.8C12.5732 2 13.2 2.6268 13.2 3.4C13.2 4.1732 12.5732 4.8 11.8 4.8H6.2Z" fill="white"/>
<path fill-rule="evenodd" clip-rule="evenodd" d="M20.6101 8.01003C21.1568 7.46329 22.0432 7.46329 22.59 8.01003L29.59 15.01C30.1367 15.5568 30.1367 16.4432 29.59 16.9899L22.59 23.9899C22.0432 24.5367 21.1568 24.5367 20.6101 23.9899C20.0633 23.4432 20.0633 22.5568 20.6101 22.01L26.6201 16L20.6101 9.98993C20.0633 9.44319 20.0633 8.55676 20.6101 8.01003Z" fill="white"/>
<path fill-rule="evenodd" clip-rule="evenodd" d="M10.4 16C10.4 15.2268 11.0268 14.6 11.8 14.6H28.6C29.3732 14.6 30 15.2268 30 16C30 16.7732 29.3732 17.4 28.6 17.4H11.8C11.0268 17.4 10.4 16.7732 10.4 16Z" fill="white"/>
</svg>
