<svg width="32" height="32" viewBox="0 0 32 32" fill="none" xmlns="http://www.w3.org/2000/svg">
<g clip-path="url(#clip0_2030_6680)">
<path fill-rule="evenodd" clip-rule="evenodd" d="M28.1142 15.7084C27.8239 15.6426 27.5234 15.6554 27.2386 15.7456C26.9539 15.8359 26.6935 16.0009 26.4799 16.2264C25.9963 16.7372 25.2266 16.7212 24.7609 16.1907C24.2952 15.6602 24.3097 14.816 24.7934 14.3052C25.2916 13.779 25.8992 13.394 26.5637 13.1834C27.2281 12.9728 27.9293 12.9431 28.6066 13.0967C29.2839 13.2503 29.9168 13.5827 30.4506 14.0651C30.9844 14.5475 31.403 15.1653 31.67 15.865C31.9371 16.5648 32.0446 17.3254 31.9833 18.081C31.922 18.8366 31.6937 19.5644 31.3181 20.2015C30.9426 20.8385 30.4311 21.3655 29.8281 21.7369C29.225 22.1083 28.5485 22.3129 27.8571 22.3329C27.8464 22.3332 27.8358 22.3333 27.8251 22.3333H3.54914C2.87769 22.3333 2.33337 21.7363 2.33337 20.9998C2.33337 20.2634 2.87769 19.6663 3.54914 19.6663H27.807C28.0984 19.6554 28.3833 19.568 28.6377 19.4114C28.8961 19.2522 29.1153 19.0264 29.2763 18.7533C29.4372 18.4803 29.535 18.1684 29.5613 17.8446C29.5876 17.5208 29.5415 17.1948 29.4271 16.8949C29.3126 16.595 29.1332 16.3302 28.9045 16.1235C28.6757 15.9167 28.4044 15.7743 28.1142 15.7084Z" fill="white"/>
<path fill-rule="evenodd" clip-rule="evenodd" d="M19.8839 12.5761C19.6845 12.5409 19.4785 12.551 19.2845 12.6056C19.0904 12.6602 18.9144 12.7575 18.7721 12.8888C18.2972 13.3269 17.5197 13.3339 17.0354 12.9043C16.551 12.4746 16.5434 11.7712 17.0182 11.333C17.445 10.9392 17.9732 10.6473 18.5553 10.4836C19.1374 10.3198 19.7554 10.2894 20.3538 10.3949C20.9521 10.5004 21.5122 10.7385 21.9838 11.0881C22.4554 11.4376 22.8237 11.8875 23.0559 12.3975C23.288 12.9075 23.3766 13.4616 23.3138 14.0102C23.2509 14.5588 23.0386 15.0847 22.6958 15.5409C22.3531 15.997 21.8906 16.369 21.3498 16.6236C20.8118 16.8769 20.2131 17.0061 19.6067 16.9998H14.5615C13.8832 16.9998 13.3334 16.5023 13.3334 15.8886C13.3334 15.275 13.8832 14.7775 14.5615 14.7775H19.6318C19.835 14.7801 20.0357 14.7372 20.2159 14.6523C20.3962 14.5674 20.5504 14.4434 20.6646 14.2914C20.7789 14.1393 20.8497 13.964 20.8706 13.7812C20.8915 13.5983 20.862 13.4136 20.7846 13.2436C20.7073 13.0736 20.5845 12.9236 20.4273 12.8071C20.2701 12.6906 20.0834 12.6112 19.8839 12.5761Z" fill="white"/>
<path fill-rule="evenodd" clip-rule="evenodd" d="M21.547 25.0002C22.163 24.9939 22.7714 25.1231 23.318 25.3764C23.8674 25.631 24.3373 26.003 24.6856 26.4591C25.0339 26.9152 25.2496 27.4412 25.3134 27.9898C25.3773 28.5384 25.2872 29.0925 25.0514 29.6025C24.8156 30.1125 24.4413 30.5624 23.9622 30.9119C23.483 31.2614 22.9139 31.4996 22.306 31.6051C21.698 31.7106 21.0702 31.6801 20.4787 31.5164C19.8872 31.3527 19.3506 31.0608 18.917 30.667C18.4345 30.2288 18.4423 29.5253 18.9344 29.0957C19.4265 28.6661 20.2165 28.673 20.699 29.1112C20.8435 29.2425 21.0224 29.3398 21.2195 29.3944C21.4167 29.4489 21.626 29.4591 21.8286 29.4239C22.0313 29.3888 22.221 29.3094 22.3807 29.1929C22.5404 29.0764 22.6652 28.9264 22.7438 28.7564C22.8224 28.5864 22.8524 28.4017 22.8311 28.2188C22.8098 28.0359 22.7379 27.8606 22.6218 27.7086C22.5057 27.5566 22.3491 27.4326 22.166 27.3477C21.9828 27.2628 21.7789 27.2197 21.5724 27.2223L21.5549 27.2226L3.58118 27.2224C2.89204 27.2224 2.33337 26.725 2.33337 26.1113C2.33337 25.4977 2.89204 25.0002 3.58118 25.0002H21.547Z" fill="white"/>
<path d="M6 7H8V9.70943C8 10.1816 8.30211 10.6007 8.75 10.75C9.19789 10.8993 9.5 11.3184 9.5 11.7906V14.5C9.5 15.3284 8.82843 16 8 16H6C5.17157 16 4.5 15.3284 4.5 14.5V11.7906C4.5 11.3184 4.80211 10.8993 5.25 10.75C5.69789 10.6007 6 10.1816 6 9.70943V7Z" fill="white" fill-opacity="0.5"/>
<path fill-rule="evenodd" clip-rule="evenodd" d="M5.30294 1.64008C5.75303 1.23025 6.36348 1 7 1C7.63652 1 8.24697 1.23025 8.69706 1.64008C9.14714 2.04992 9.4 2.60578 9.4 3.18538V10.4438C9.97132 10.834 10.42 11.3582 10.6955 11.9638C11.0325 12.7046 11.0916 13.5259 10.8637 14.3004C10.6358 15.0749 10.1336 15.7592 9.43504 16.2473C8.73647 16.7354 7.88054 17 7 17C6.11946 17 5.26353 16.7354 4.56496 16.2473C3.86638 15.7592 3.3642 15.0749 3.1363 14.3004C2.9084 13.5259 2.96752 12.7046 3.30448 11.9638C3.58 11.3582 4.02868 10.834 4.6 10.4438V3.18538C4.6 2.60578 4.85286 2.04992 5.30294 1.64008ZM7 2.45692C6.78783 2.45692 6.58434 2.53367 6.43432 2.67028C6.28429 2.8069 6.2 2.99218 6.2 3.18538V10.8342C6.2 11.0945 6.04752 11.335 5.8 11.4651C5.34246 11.7056 4.98487 12.0769 4.78269 12.5214C4.58051 12.9658 4.54504 13.4586 4.68178 13.9233C4.81852 14.388 5.11983 14.7986 5.53897 15.0915C5.95812 15.3843 6.47168 15.5431 7 15.5431C7.52832 15.5431 8.04188 15.3843 8.46103 15.0915C8.88017 14.7986 9.18148 14.388 9.31822 13.9233C9.45496 13.4586 9.41949 12.9658 9.21731 12.5214C9.01513 12.0769 8.65754 11.7056 8.2 11.4651C7.95248 11.335 7.8 11.0945 7.8 10.8342V3.18538C7.8 2.99218 7.71571 2.8069 7.56569 2.67028C7.41566 2.53367 7.21217 2.45692 7 2.45692Z" fill="white"/>
</g>
<defs>
<clipPath id="clip0_2030_6680">
<rect width="32" height="32" fill="white" transform="matrix(0 -1 1 0 0 32)"/>
</clipPath>
</defs>
</svg>
