<svg width="347" height="135" viewBox="0 0 347 135" fill="none" xmlns="http://www.w3.org/2000/svg">
<path d="M72.1731 0.949427H274.442C280.668 1.10751 287.054 2.53022 292.163 8.37917C297.271 14.2281 319.143 41.1017 321.378 43.9471C323.613 46.7925 326.007 50.4284 326.646 56.4354C327.284 62.4424 329.041 102.753 329.041 108.285C329.041 114.134 327.284 116.506 326.007 119.193C324.73 121.564 322.814 125.516 321.537 127.887C320.26 130.259 315.95 133.894 309.085 134.052H58.2841C50.9405 134.052 44.874 131.365 40.8829 125.99C36.8918 120.774 15.0205 90.8967 14.0627 89.3159C12.4662 86.7867 11.1891 82.8347 8.95406 78.4084C7.51727 75.563 6.87869 71.1368 10.5505 66.0782C14.382 61.0197 51.7387 12.9635 55.0912 9.16957C58.4437 5.21758 64.1909 0.791347 72.1731 0.949427Z" fill="#4F4A54"/>
<path d="M58.126 135C50.6228 135 44.3966 132.155 40.2459 126.622C36.5741 121.721 14.2239 91.5281 13.266 89.7892C12.3082 88.2084 11.5099 86.3115 10.5521 84.0984C9.91351 82.5176 9.11528 80.6206 8.15742 78.7236C7.19956 76.8267 5.44347 71.7682 9.91351 65.603C13.9046 60.2283 51.421 12.1721 54.4542 8.5363C57.1682 5.37471 63.2346 0 72.0151 0H72.1747H274.444C279.552 0.15808 287.056 1.10656 292.963 7.7459C295.996 11.3817 305.894 23.3958 321.539 42.5234L322.177 43.3138C324.572 46.3173 326.967 49.9532 327.605 56.2763C328.404 62.5995 330 102.91 330 108.285C330 113.659 328.563 116.347 327.286 118.718C327.126 119.034 326.967 119.35 326.807 119.666C325.53 122.037 323.614 125.989 322.337 128.361C321.06 130.89 316.43 134.842 309.087 135H58.2857H58.126ZM72.0151 1.73888C63.8732 1.73888 58.2857 6.63934 55.7314 9.64286C52.6981 13.2787 15.1818 61.1768 11.3503 66.5515C7.3592 71.9262 8.796 76.1944 9.75386 77.9333C10.7117 79.8302 11.5099 81.7272 12.3082 83.466C13.266 85.6792 14.0643 87.418 14.8625 88.8408C15.6607 90.2635 37.6916 120.141 41.6827 125.515C45.5141 130.574 51.2613 133.261 58.2857 133.261H309.406C315.951 133.103 319.942 129.783 321.06 127.57C322.337 125.041 324.253 121.247 325.53 118.876C325.69 118.56 325.849 118.244 326.009 117.927C327.286 115.714 328.404 113.343 328.563 108.285C328.563 102.119 326.807 62.2834 326.169 56.4344C325.53 50.5855 323.295 47.1077 321.06 44.4204L320.421 43.63C300.785 19.4438 294.08 11.3817 291.845 8.85246C287.694 4.11007 282.266 1.89696 274.763 1.73888H72.494C72.1747 1.73888 72.0151 1.73888 72.0151 1.73888Z" fill="#231F20"/>
<path d="M50.4644 124.093C43.1207 124.093 39.2893 121.247 30.3492 109.075C21.7284 97.5354 9.7551 80.937 9.59546 80.7789L10.3937 80.3047C10.5533 80.4628 22.367 97.0611 30.9878 108.601C39.7682 120.457 43.44 123.144 50.4644 123.144H314.516C319.784 122.828 325.212 120.299 326.649 117.453L327.447 117.928C325.85 121.089 320.103 123.935 314.516 124.093H50.4644Z" fill="#231F20"/>
<path d="M269.976 4.58203C276.361 4.58203 280.512 5.37243 284.663 10.2729C288.814 15.1734 313.399 45.3666 315.474 47.8959C317.55 50.4251 319.306 54.219 319.306 58.3291C319.306 62.4392 320.263 81.7249 319.944 86.7834C319.625 92.0001 315.315 95.794 309.727 95.9521H73.9326C66.4293 95.794 63.2364 93.897 59.7242 90.2612C56.2121 86.4673 47.1124 76.8244 44.3984 73.3467C41.3652 69.5528 42.802 66.7073 44.5581 64.02C46.6334 61.4907 76.1676 17.3865 79.0412 12.8022C81.7551 8.37594 86.8638 4.58203 93.0899 4.58203H269.976Z" fill="#4F4A54"/>
<path d="M74.0917 96.5841C66.4288 96.4261 63.2359 94.5291 59.5641 90.7352C55.8923 86.9413 46.9522 77.1403 44.2383 73.6626C41.0454 69.7106 42.4822 66.549 44.3979 63.8617C46.4733 61.0162 76.0075 16.912 78.5618 12.6438C81.9143 7.42722 87.1826 4.26562 92.9298 4.26562H269.815C276.521 4.26562 280.671 5.2141 284.822 10.1146C288.973 15.015 313.877 45.5244 315.633 47.7375C318.028 50.8991 319.465 54.8511 319.465 58.4869C319.465 59.9097 319.624 63.0713 319.784 66.7071C320.103 74.2949 320.423 83.6216 320.263 86.9413C319.944 92.316 315.474 96.4261 309.727 96.5841H74.0917ZM93.0894 5.05602C87.6615 5.05602 82.5529 8.05954 79.5196 13.1181C76.8057 17.3862 47.1119 61.4905 45.1962 64.3359C43.5997 66.7071 42.0033 69.3944 45.0365 73.0303C47.7505 76.508 56.6905 86.1509 60.3623 89.9448C63.8745 93.5806 66.9078 95.4776 74.2514 95.4776H310.046C315.314 95.3195 319.465 91.5256 319.784 86.6251C319.944 83.3055 319.624 73.5045 319.305 66.3909C319.146 62.7551 318.986 59.5935 318.986 58.1708C318.986 53.1122 316.432 49.3183 315.314 48.0537C313.398 45.8406 288.653 15.3312 284.343 10.5888C280.352 6.0045 276.361 5.2141 269.975 5.05602H93.0894Z" fill="#231F20"/>
<path d="M312.282 62.5965C316.273 67.655 313.559 79.9852 304.779 81.4079H252.415C234.376 81.2499 216.016 66.5485 216.176 45.5239C216.336 24.4993 234.695 11.0625 252.894 11.0625C269.497 11.2206 279.714 22.6023 280.672 24.025C283.706 27.977 308.77 58.1702 312.282 62.5965Z" fill="#4F4A54"/>
<path d="M252.413 81.8856C243.314 81.8856 234.054 78.0917 227.189 71.6104C219.686 64.6549 215.695 55.3282 215.695 45.3692C215.855 23.7123 235.012 10.4336 252.733 10.4336H252.892C270.613 10.5917 280.99 23.3961 280.99 23.5542C282.426 25.4512 288.972 33.1971 295.677 41.5753C303.02 50.5858 310.683 59.9125 312.599 62.2837C314.834 64.9711 315.153 70.0296 313.397 74.2978C311.801 78.4078 308.608 81.0952 304.777 81.7275L252.413 81.8856ZM252.733 11.3821C235.491 11.3821 216.813 24.3446 216.653 45.3692C216.653 55.012 220.644 64.1807 227.828 70.82C234.693 77.1432 243.633 80.779 252.413 80.779H304.777C308.129 80.1467 311.003 77.7755 312.599 73.8235C314.196 69.8715 313.876 65.2872 311.961 62.7579C310.045 60.3868 302.541 51.0601 295.038 42.0495C288.174 33.8294 281.788 25.9254 280.351 24.0284C280.191 23.8704 270.134 11.3821 252.892 11.224C252.733 11.3821 252.733 11.3821 252.733 11.3821Z" fill="#231F20"/>
<path d="M242.831 126.941H280.986C282.423 126.941 283.86 128.68 281.146 128.838H242.352C241.235 128.838 240.277 127.416 242.831 126.941Z" fill="#4F4A54"/>
<path d="M242.353 129.31C241.555 129.31 240.917 128.678 240.917 128.046C240.917 127.571 241.076 126.781 242.832 126.465H280.987C282.105 126.465 283.063 127.255 283.063 128.046C283.063 128.52 282.743 129.152 281.147 129.31H242.353ZM242.832 127.413C241.874 127.571 241.715 127.888 241.715 128.046C241.715 128.204 242.034 128.52 242.353 128.52H281.147C281.945 128.52 282.264 128.204 282.264 128.204C282.264 128.046 281.785 127.571 280.987 127.571L242.832 127.413Z" fill="#231F20"/>
<path d="M318.825 127.093C319.304 127.251 319.304 129.781 314.993 130.729C308.448 132.31 305.415 131.203 306.372 129.623C307.33 128.042 308.448 128.99 313.078 128.2C317.707 127.409 317.707 126.461 318.825 127.093Z" fill="#4F4A54"/>
<path d="M309.564 131.995C307.808 131.995 306.531 131.678 306.052 131.046C305.733 130.572 305.733 130.098 306.052 129.623C306.691 128.517 307.649 128.359 309.085 128.359C310.043 128.359 311.32 128.201 313.077 128.043C315.312 127.726 316.429 127.252 317.068 126.936C317.866 126.62 318.345 126.462 318.983 126.936C319.303 127.094 319.462 127.41 319.462 127.885C319.462 128.359 319.143 130.572 315.152 131.362C313.077 131.678 311.001 131.995 309.564 131.995ZM318.185 127.41C318.026 127.41 317.866 127.41 317.387 127.568C316.589 127.884 315.471 128.359 313.236 128.675C311.48 128.991 310.203 128.991 309.245 129.149C307.649 129.149 307.329 129.307 306.85 129.94C306.691 130.256 306.85 130.414 306.85 130.414C307.329 131.046 309.884 131.52 315.152 130.256C317.547 129.781 318.345 128.833 318.664 128.201C318.824 127.884 318.824 127.568 318.824 127.41C318.504 127.41 318.345 127.41 318.185 127.41Z" fill="#231F20"/>
<path d="M252.733 13.5952C272.21 13.9113 286.737 29.8774 286.737 45.8434C286.578 62.5999 273.167 78.4078 253.691 78.4078C234.214 78.2498 218.569 63.8645 218.729 45.053C218.888 27.032 234.693 13.279 252.733 13.5952Z" fill="#AFAFAF"/>
<path d="M254.009 78.882H253.849C233.734 78.7239 218.089 63.8644 218.249 44.8949C218.249 36.5166 221.761 28.6126 227.827 22.6056C234.373 16.2824 243.473 12.8047 252.892 12.8047C273.486 13.1208 287.694 30.3515 287.534 45.6852C287.375 61.8094 274.603 78.882 254.009 78.882ZM252.093 14.2274C243.313 14.2274 234.852 17.5471 228.626 23.5541C222.719 29.245 219.366 36.8328 219.366 44.8949C219.207 63.074 234.373 77.4593 253.69 77.6173H253.849C273.645 77.6173 285.938 61.1771 285.938 45.8433C285.938 31.3 272.368 14.7016 252.572 14.3855C252.572 14.2274 252.413 14.2274 252.093 14.2274Z" fill="#231F20"/>
<path d="M299.671 57.7031C306.536 57.7031 310.687 63.2359 310.687 68.2945C310.687 73.1949 307.174 78.4116 300.15 78.4116C293.445 78.2535 289.135 72.8788 289.135 67.8202C289.294 62.7617 293.605 57.8612 299.671 57.7031Z" fill="#AFAFAF"/>
<path d="M300.308 79.1996H300.149C296.956 79.1996 293.923 77.935 291.688 75.7219C289.612 73.5088 288.495 70.6633 288.495 67.976C288.654 62.9174 292.965 57.3846 299.829 57.2266C303.182 57.2266 306.215 58.4912 308.45 60.8624C310.366 62.9174 311.483 65.7629 311.483 68.6083C311.483 71.4537 310.366 74.2992 308.291 76.3542C306.215 78.0931 303.501 79.1996 300.308 79.1996ZM299.829 58.4912C293.763 58.4912 289.931 63.3917 289.772 67.8179C289.772 70.3472 290.73 72.7184 292.645 74.6153C294.561 76.6704 297.275 77.7769 300.149 77.7769C303.022 77.7769 305.577 76.9865 307.333 75.0896C309.089 73.3507 310.047 70.8214 310.047 68.2921C310.047 65.7629 309.089 63.3917 307.333 61.4947C306.055 60.2301 303.661 58.4912 299.829 58.4912Z" fill="#231F20"/>
<path d="M253.529 72.7168C253.05 72.7168 252.73 72.5587 252.411 72.0845C252.092 71.7684 250.336 68.9229 248.739 66.2356L247.941 64.8128C247.622 64.1805 247.462 63.5482 247.781 63.2321C247.941 63.074 248.26 62.7578 248.899 62.7578C249.538 62.7578 251.773 62.7578 253.848 62.7578C255.604 62.7578 257.36 62.7578 257.839 62.7578C258.637 62.7578 258.957 63.232 259.116 63.3901C259.276 63.7063 259.276 64.3386 258.957 64.6548C258.797 64.8128 258.478 65.6032 257.839 66.5517C256.402 69.081 254.965 71.6103 254.646 72.0845C254.327 72.5587 253.848 72.7168 253.529 72.7168ZM248.739 63.5482C248.58 63.5482 248.58 63.5482 248.58 63.7063C248.58 63.8644 248.58 64.1805 248.739 64.4967L249.538 65.7613C250.655 67.6583 252.89 71.2941 253.209 71.6103C253.369 71.7684 253.529 71.9264 253.688 71.9264C253.848 71.9264 254.008 71.7684 254.008 71.6103C254.327 71.136 256.083 68.1325 257.2 66.2356C257.679 65.2871 258.158 64.6548 258.318 64.3386C258.478 64.1805 258.478 64.0225 258.318 63.8644C258.318 63.7063 257.999 63.7063 257.839 63.7063C257.36 63.7063 255.764 63.7063 253.848 63.7063C251.613 63.5482 249.538 63.5482 248.739 63.5482Z" fill="#231F20"/>
<path d="M233.574 50.5851C233.255 50.5851 233.095 50.5851 232.616 50.427C232.137 50.2689 228.625 48.372 225.432 46.475L224.634 46.0008C223.996 45.6846 223.836 45.2104 223.836 44.8942C223.836 44.42 224.155 43.9457 224.794 43.6296C225.273 43.3134 228.306 41.7326 230.222 40.6261L231.978 39.6776C232.457 39.3614 233.255 39.0453 233.734 39.3614C234.372 39.6776 234.213 40.468 234.213 40.6261C234.213 41.5745 234.213 46.6331 234.372 48.5301V49.1624C234.372 49.6366 234.213 50.1108 233.894 50.2689C234.053 50.5851 233.734 50.5851 233.574 50.5851ZM233.415 40.3099C233.255 40.3099 233.095 40.3099 232.616 40.6261L230.86 41.5745C228.785 42.6811 225.911 44.2619 225.432 44.5781C225.113 44.7361 224.953 44.8942 224.953 45.0523C224.953 45.2104 225.113 45.2104 225.273 45.3685L226.071 45.8427C227.827 46.7912 232.616 49.4785 233.095 49.7947C233.574 49.9528 233.734 49.9528 233.734 49.9528C233.734 49.9528 233.734 49.7947 233.734 49.6366V49.0043C233.734 47.1073 233.574 42.0488 233.574 41.1003H234.053H233.574C233.574 40.468 233.574 40.3099 233.415 40.3099Z" fill="#231F20"/>
<path d="M272.848 50.5855C272.688 50.5855 272.369 50.5855 272.21 50.4275C271.89 50.2694 271.571 49.9532 271.571 49.1628C271.571 48.6886 271.571 47.582 271.571 46.3174C271.571 44.2623 271.411 41.7331 271.571 40.9427C271.571 40.3104 271.731 39.8361 272.21 39.52C272.688 39.2038 273.327 39.3619 274.285 39.8361C275.083 40.3104 279.713 42.9977 280.99 43.7881L281.309 43.9462C281.788 44.2623 282.107 44.5785 282.107 45.0527C282.107 45.3689 281.948 45.8431 281.15 46.3174C280.192 46.9497 274.604 50.1113 273.966 50.4275C273.487 50.5855 273.167 50.5855 272.848 50.5855ZM272.369 40.9427C272.369 41.8911 272.369 44.2623 272.369 46.3174C272.369 47.582 272.369 48.6886 272.369 49.1628C272.369 49.3209 272.369 49.6371 272.529 49.6371C272.688 49.7951 272.848 49.6371 273.167 49.479C273.806 49.1628 279.394 46.0012 280.351 45.3689C280.671 45.2108 280.83 44.8947 280.83 44.8947C280.83 44.7366 280.671 44.7366 280.511 44.5785L280.192 44.4204C278.915 43.63 274.285 41.1008 273.487 40.6265C272.848 40.3104 272.369 40.1523 272.369 40.3104C272.369 40.3104 272.369 40.6265 272.369 40.9427Z" fill="#231F20"/>
<path d="M257.202 27.664C256.723 27.664 250.816 27.664 248.901 27.664H248.102C247.464 27.664 246.985 27.5059 246.825 27.0317C246.666 26.8736 246.506 26.3993 246.825 25.6089C246.985 25.1347 247.943 23.712 248.901 22.1312C249.858 20.7085 250.657 19.2858 250.976 18.6534C251.455 18.0211 251.774 17.5469 252.253 17.5469C252.732 17.5469 253.051 17.705 253.371 18.3373C253.53 18.6534 254.488 20.0761 255.446 21.6569C256.564 23.3958 257.681 25.2928 258 25.6089C258.32 26.0832 258.32 26.5574 258.16 27.0317C258.16 27.3478 257.681 27.664 257.202 27.664ZM248.102 26.7155H248.901C252.572 26.7155 256.883 26.7155 257.202 26.7155C257.362 26.7155 257.521 26.7155 257.521 26.5574C257.681 26.3993 257.521 26.2413 257.362 26.0832C257.042 25.6089 255.925 23.8701 254.807 21.9731C253.85 20.3923 252.892 18.9696 252.732 18.6534C252.572 18.3373 252.413 18.3373 252.413 18.3373C252.413 18.3373 252.093 18.4954 251.774 18.9696C251.455 19.6019 250.497 21.0246 249.699 22.4473C248.741 24.0281 247.783 25.4509 247.623 25.9251C247.464 26.0832 247.464 26.2413 247.464 26.3993C247.783 26.7155 247.943 26.7155 248.102 26.7155Z" fill="#231F20"/>
<path d="M302.859 73.0325H296.792V70.6613H302.54C303.498 70.6613 304.136 69.3967 304.136 68.6063C304.136 68.2901 303.976 67.6578 303.817 67.1836C303.498 66.7093 303.178 66.3932 302.699 66.3932H297.591V67.9739L293.28 65.1285L297.591 62.125V63.8639H302.54C303.657 63.8639 304.775 64.4962 305.733 65.4447C306.531 66.3932 306.85 67.4997 306.85 68.4482C306.85 69.7128 306.531 70.8194 305.733 71.6098C304.934 72.5583 303.976 73.0325 302.859 73.0325ZM297.75 72.084H302.859C303.657 72.084 304.455 71.7679 305.094 70.9775C305.733 70.3451 306.052 69.3967 306.052 68.2901C306.052 67.4997 305.733 66.5512 305.094 65.7608C304.455 64.9704 303.657 64.4962 302.699 64.4962H296.952V63.5477L295.196 64.8124L296.952 65.9189V65.1285H302.859C303.657 65.1285 304.455 65.6028 304.775 66.3932C305.254 67.1836 305.254 67.974 305.254 68.2901C305.254 69.5547 304.296 71.1355 302.859 71.1355H297.91L297.75 72.084Z" fill="#231F20"/>
<path d="M219.684 75.7188C220.802 75.7188 221.76 76.8253 221.76 77.7738C221.76 78.5642 221.121 79.6707 219.844 79.5126C218.567 79.3546 217.609 78.7222 217.609 77.6157C217.609 76.6672 218.407 75.7188 219.684 75.7188Z" fill="#4F4A54"/>
<path d="M219.845 79.9867C218.408 79.9867 217.131 79.0382 217.291 77.7735C217.291 76.5089 218.408 75.4023 219.686 75.4023C221.122 75.4023 222.08 76.667 222.08 77.9316C222.08 78.8801 221.282 79.9867 219.845 79.9867ZM219.686 76.1927C218.887 76.1927 218.089 76.8251 218.089 77.7735C218.089 78.5639 218.887 79.1963 219.845 79.1963C220.803 79.1963 221.282 78.4059 221.282 77.7735C221.122 77.1412 220.484 76.1927 219.686 76.1927Z" fill="#231F20"/>
<path d="M253.368 56.7518C249.856 56.7518 246.504 55.329 244.269 53.1159C242.193 51.0609 241.076 48.2155 241.236 45.0539C241.395 37.466 248.26 33.9883 253.049 33.9883C256.082 33.9883 258.956 35.2529 261.191 37.466C263.426 39.6792 264.703 42.5246 264.544 45.5281C264.544 48.5316 263.426 51.377 261.351 53.4321C259.435 55.4871 256.561 56.7518 253.368 56.7518ZM253.049 35.2529C248.739 35.2529 242.672 38.2564 242.672 45.0539C242.672 47.7412 243.63 50.2705 245.386 52.0094C247.462 54.0644 250.495 55.329 253.528 55.329C256.242 55.329 258.796 54.3806 260.552 52.4836C262.308 50.5866 263.426 48.2154 263.426 45.5281C263.426 42.8407 262.309 40.3115 260.393 38.4145C258.317 36.3595 255.603 35.411 253.049 35.2529Z" fill="#231F20"/>
<path d="M201.01 81.4095H93.2503C88.9399 81.4095 85.2681 77.9318 85.2681 73.5055V18.4938C85.2681 14.2257 88.7802 10.5898 93.2503 10.5898H201.01C205.32 10.5898 208.992 14.0676 208.992 18.4938V73.5055C208.992 77.9318 205.48 81.4095 201.01 81.4095Z" fill="#4F4A54"/>
<path d="M201.008 82.2012H93.2487C88.4594 82.2012 84.4683 78.4073 84.4683 73.5069V18.4952C84.4683 13.7528 88.2997 9.80078 93.2487 9.80078H201.008C205.798 9.80078 209.789 13.7528 209.789 18.4952V73.5069C209.789 78.4073 205.798 82.2012 201.008 82.2012ZM93.2487 11.5397C89.2576 11.5397 86.0647 14.7013 86.0647 18.6532V73.6649C86.0647 77.6169 89.2576 80.7785 93.2487 80.7785H201.008C205 80.7785 208.192 77.6169 208.192 73.6649V18.4952C208.192 14.5432 205 11.3816 201.008 11.3816H93.2487V11.5397Z" fill="#231F20"/>
<path d="M200.69 77.6204H93.888C91.3337 77.6204 89.2583 75.5654 89.2583 73.0361V18.8148C89.2583 16.2855 91.3337 14.2305 93.888 14.2305H200.53C203.085 14.2305 205.16 16.2855 205.16 18.8148V73.0361C205.32 75.5654 203.244 77.6204 200.69 77.6204Z" fill="#AFAFAF"/>
<rect x="134.561" y="53.854" width="1.9661" height="1.91878" transform="rotate(90 134.561 53.854)" fill="black"/>
<rect x="156.627" y="53.854" width="1.9661" height="1.91878" transform="rotate(90 156.627 53.854)" fill="black"/>
<rect x="150.87" y="35.1807" width="1.9661" height="1.91878" transform="rotate(90 150.87 35.1807)" fill="black"/>
<rect x="156.626" y="41.0771" width="1.9661" height="1.91878" transform="rotate(90 156.626 41.0771)" fill="black"/>
<rect x="154.708" y="37.146" width="1.91879" height="1.9661" fill="black"/>
<rect x="150.87" y="41.0771" width="1.91879" height="1.9661" fill="black"/>
<rect x="156.626" y="35.1807" width="1.91879" height="1.9661" fill="black"/>
<rect x="152.789" y="39.1118" width="1.91879" height="1.9661" fill="black"/>
<rect x="158.545" y="43.043" width="1.9661" height="1.91878" transform="rotate(90 158.545 43.043)" fill="black"/>
<rect x="150.87" y="43.043" width="1.9661" height="1.91878" transform="rotate(90 150.87 43.043)" fill="black"/>
<rect x="152.789" y="37.146" width="1.9661" height="1.91878" transform="rotate(90 152.789 37.146)" fill="black"/>
<rect x="132.643" y="35.1807" width="1.9661" height="1.91878" transform="rotate(90 132.643 35.1807)" fill="black"/>
<rect x="138.4" y="41.0771" width="1.9661" height="1.91878" transform="rotate(90 138.4 41.0771)" fill="black"/>
<rect x="136.481" y="37.146" width="1.91879" height="1.9661" fill="black"/>
<rect x="132.643" y="41.0771" width="1.91879" height="1.9661" fill="black"/>
<rect x="138.4" y="35.1807" width="1.91879" height="1.9661" fill="black"/>
<rect x="134.562" y="39.1118" width="1.91879" height="1.9661" fill="black"/>
<rect x="140.319" y="43.043" width="1.9661" height="1.91878" transform="rotate(90 140.319 43.043)" fill="black"/>
<rect x="132.643" y="43.043" width="1.9661" height="1.91878" transform="rotate(90 132.643 43.043)" fill="black"/>
<rect x="134.562" y="37.146" width="1.9661" height="1.91878" transform="rotate(90 134.562 37.146)" fill="black"/>
<rect x="154.708" y="51.8887" width="1.9661" height="20.1472" transform="rotate(90 154.708 51.8887)" fill="black"/>
<path fill-rule="evenodd" clip-rule="evenodd" d="M132.737 17.9844V16.9844H130.737V17.9844V22.4222H125.065C123.961 22.4222 123.065 23.3176 123.065 24.4222V30.3131H118.729H117.729V32.3131H118.729H123.065V39.1925H118.729H117.729V41.1925H118.729H123.065V48.0797H118.729H117.729V50.0797H118.729H123.065V56.9591H118.729H117.729V58.9591H118.729H123.065V64.8396C123.065 65.9442 123.961 66.8396 125.065 66.8396H130.737V66.8423V71.284V72.284H132.737V71.284V66.8423V66.8396H139.41V66.8423V71.284V72.284H141.41V71.284V66.8423V66.8396H148.082V66.8423V71.284V72.284H150.082V71.284V66.8423V66.8396H155.541L156.688 64.8396H125.065L125.065 24.4222H164.427V51.3464L166.444 47.8297H166.429H166.427V41.4425H166.429H170.765H172.015V38.9425H170.765H166.429H166.427V32.3131H166.429H170.765H171.765V30.3131H170.765H166.429H166.427V24.4222C166.427 23.3176 165.531 22.4222 164.427 22.4222H158.754V17.9844V16.9844H156.754V17.9844V22.4222H150.082V17.9844V16.9844H148.082V17.9844V22.4222H141.41V17.9844V16.9844H139.41V17.9844V22.4222H132.737V17.9844Z" fill="black"/>
<path d="M175.686 44.8089C175.455 44.4217 175.123 44.1004 174.725 43.877C174.326 43.6537 173.875 43.5361 173.415 43.5361C172.955 43.5361 172.504 43.6537 172.105 43.877C171.707 44.1004 171.375 44.4217 171.144 44.8089L155.538 71.153C155.308 71.5414 155.186 71.982 155.187 72.4304C155.187 72.8789 155.308 73.3194 155.538 73.7078C155.768 74.0961 156.099 74.4185 156.498 74.6427C156.896 74.8668 157.348 74.9847 157.809 74.9846H189.021C189.482 74.9847 189.934 74.8668 190.332 74.6427C190.731 74.4185 191.062 74.0961 191.292 73.7078C191.522 73.3194 191.643 72.8789 191.643 72.4304C191.643 71.982 191.522 71.5414 191.292 71.153L175.686 44.8089ZM171.79 53.8434C171.79 53.4235 171.961 53.0208 172.266 52.7239C172.571 52.4269 172.984 52.2601 173.415 52.2601C173.846 52.2601 174.259 52.4269 174.564 52.7239C174.868 53.0208 175.04 53.4235 175.04 53.8434V63.9019C175.04 64.3218 174.868 64.7245 174.564 65.0214C174.259 65.3184 173.846 65.4852 173.415 65.4852C172.984 65.4852 172.571 65.3184 172.266 65.0214C171.961 64.7245 171.79 64.3218 171.79 63.9019V53.8434ZM173.427 71.1412C173.036 71.1412 172.655 71.0284 172.33 70.8169C172.005 70.6054 171.752 70.3048 171.602 69.9532C171.453 69.6015 171.414 69.2145 171.49 68.8412C171.566 68.4678 171.754 68.1249 172.031 67.8557C172.307 67.5866 172.659 67.4033 173.042 67.329C173.425 67.2548 173.822 67.2929 174.183 67.4385C174.544 67.5842 174.852 67.8309 175.069 68.1474C175.286 68.4639 175.402 68.836 175.402 69.2167C175.4 69.7266 175.192 70.2152 174.822 70.5758C174.452 70.9364 173.95 71.1397 173.427 71.1412Z" fill="black"/>
<path d="M200.689 78.0923H93.8869C91.0133 78.0923 88.7783 75.8792 88.7783 73.0338V18.8125C88.7783 15.967 91.0133 13.7539 93.8869 13.7539H200.529C203.403 13.7539 205.638 15.967 205.638 18.8125V73.0338C205.638 75.8792 203.403 78.0923 200.689 78.0923ZM93.8869 14.7024C91.6519 14.7024 89.7362 16.5993 89.7362 18.8125V73.0338C89.7362 75.2469 91.6519 77.1438 93.8869 77.1438H200.529C202.764 77.1438 204.68 75.2469 204.68 73.0338V18.8125C204.68 16.5993 202.764 14.7024 200.529 14.7024H93.8869Z" fill="#231F20"/>
<path d="M121.826 110.657L121.188 114.925H118.154L119.91 103.859H140.983L140.664 106.389H122.465L122.145 108.128H140.185L139.866 110.657H121.826Z" fill="#AFAFAF"/>
<path d="M145.133 103.859L143.856 112.396H161.896L161.576 114.925H140.344L142.1 103.859H145.133Z" fill="#AFAFAF"/>
<path d="M167.482 103.859L165.726 114.925H162.693L164.449 103.859H167.482Z" fill="#AFAFAF"/>
<path d="M170.679 110.657L170.04 114.925H167.007L168.763 103.859H186.803C187.601 103.859 188.399 104.176 188.878 104.65C189.357 105.124 189.676 105.756 189.517 106.389L189.197 108.128C189.038 108.76 188.718 109.392 188.08 109.866C187.441 110.341 186.643 110.657 185.845 110.657H170.679ZM171.317 106.389L170.998 108.128H186.004L186.324 106.389H171.317Z" fill="#AFAFAF"/>
<path d="M192.864 110.657L192.226 114.925H189.192L190.948 103.859H208.988C209.786 103.859 210.585 104.176 211.064 104.65C211.543 105.124 211.862 105.756 211.702 106.389L211.383 108.128C211.223 108.76 210.904 109.392 210.265 109.866C209.627 110.341 208.829 110.657 208.03 110.657H192.864ZM193.503 106.389L193.183 108.128H208.19L208.509 106.389H193.503Z" fill="#AFAFAF"/>
<path d="M232.938 112.396L232.618 114.925H211.545L213.302 103.859H234.375L234.055 106.389H216.015L215.696 108.128H233.576L233.257 110.657H215.217L214.898 112.396H232.938Z" fill="#AFAFAF"/>
<path d="M237.407 110.657L236.768 114.925H233.735L235.491 103.859H253.531C254.329 103.859 255.127 104.176 255.606 104.65C256.085 105.124 256.404 105.756 256.245 106.389L255.925 108.128C255.925 108.444 255.606 108.76 255.287 109.076C254.968 109.234 254.648 109.392 254.329 109.392C254.648 109.392 254.968 109.55 255.287 109.708C255.606 110.024 255.606 110.183 255.606 110.657L254.968 114.925H251.934L252.573 110.657H237.407ZM252.733 108.128L253.052 106.389H238.045L237.726 108.128H252.733Z" fill="#AFAFAF"/>
</svg>
