<svg width="376" height="223" viewBox="0 0 376 223" fill="none" xmlns="http://www.w3.org/2000/svg">
<g clip-path="url(#clip0_32_1139)">
<path d="M188.123 28.8894C198.505 28.8894 443.729 27.4346 451.412 27.6424C459.51 27.8502 467.816 29.7208 474.46 37.2029C481.105 44.6851 509.759 80.0174 512.874 83.7585C515.988 87.4996 518.895 92.2798 519.934 100.178C520.972 108.075 523.464 161.074 523.464 168.348C523.464 176.038 521.179 179.156 519.518 182.689C517.857 186.014 515.365 191.003 513.912 194.328C512.251 197.653 506.645 202.226 497.716 202.434C488.787 202.641 180.648 204.096 171.096 204.096C161.545 204.304 153.655 200.563 148.463 193.704C142.857 186.638 114.203 147.565 112.957 145.486C110.88 142.161 109.012 136.965 106.105 131.145C104.236 127.612 103.405 121.793 108.181 114.934C112.957 108.283 161.337 44.6851 165.698 39.697C170.058 34.7089 177.741 28.8894 188.123 28.8894Z" fill="white"/>
<path d="M170.473 205.343C160.714 205.343 152.616 201.602 147.425 194.328C142.65 187.885 113.58 148.188 112.126 146.11C110.88 144.031 109.842 141.537 108.596 138.628C107.766 136.549 106.52 134.055 105.274 131.561C104.028 129.067 101.537 122.416 107.558 114.311C112.749 107.244 161.13 43.8537 165.075 39.0735C168.605 34.9167 176.495 27.8502 188.123 27.8502C188.331 27.8502 188.538 27.8502 188.746 27.8502C195.183 27.8502 239.618 27.6424 290.698 27.2267C363.995 26.8111 447.051 26.3954 451.412 26.3954C458.056 26.6032 467.816 27.6424 475.291 36.3716C478.198 39.697 486.919 50.0888 512.666 81.6801L513.704 82.9272C516.819 86.8761 519.934 91.4485 520.972 99.9698C522.01 108.283 524.502 161.282 524.502 168.348C524.502 175.415 522.633 178.948 520.972 182.066C520.764 182.481 520.556 182.897 520.349 183.313C518.688 186.638 516.196 191.626 514.742 194.952C512.874 198.9 506.645 203.473 497.508 203.681C491.694 203.889 360.673 204.512 264.95 204.928C214.286 205.136 174.211 205.343 170.889 205.343C170.681 205.343 170.473 205.343 170.473 205.343ZM187.915 29.9286C177.118 29.9286 170.058 36.5794 166.736 40.3205C162.791 45.1007 114.41 108.491 109.219 115.558C104.028 122.624 106.105 128.444 107.143 130.522C108.389 133.016 109.427 135.51 110.465 137.796C111.711 140.706 112.749 142.992 113.787 144.863C115.033 146.733 143.688 186.015 149.086 192.873C154.07 199.316 161.337 202.849 170.266 202.849C170.473 202.849 170.473 202.849 170.681 202.849C174.003 202.849 214.078 202.642 264.743 202.434C360.465 202.018 491.279 201.394 497.093 201.187C505.606 200.979 510.797 196.614 512.251 193.704C513.912 190.379 516.404 185.391 517.857 182.066C518.065 181.65 518.272 181.234 518.48 180.819C519.934 177.909 521.595 174.791 521.595 168.141C521.595 160.035 519.103 107.66 518.065 99.9698C517.027 92.2798 514.327 87.9153 511.42 84.1742L510.797 83.135C485.05 51.5437 476.329 40.944 473.63 37.8264C468.231 31.5913 461.379 28.8894 451.412 28.6816C447.051 28.6816 363.995 29.0973 290.698 29.5129C237.957 29.7208 192.483 30.1365 187.915 29.9286Z" fill="#231F20"/>
<path d="M442.068 32.6305C450.789 32.6305 456.188 33.6697 461.794 40.5283C467.4 47.3869 500.831 91.2406 503.53 94.9817C506.229 98.7228 508.721 104.127 508.721 110.154C508.721 116.181 510.174 144.031 509.759 151.513C509.551 158.996 504.568 164.192 497.093 164.607C489.826 164.815 188.746 166.893 178.779 166.686C168.812 166.686 164.452 163.776 159.676 158.58C154.9 153.176 141.404 134.471 137.666 129.483C133.721 124.079 135.382 119.922 137.874 115.973C140.365 112.024 181.271 52.375 185.008 45.9321C188.746 39.4891 195.39 33.8775 203.904 33.8775C212.417 33.8775 433.555 32.6305 442.068 32.6305Z" fill="white"/>
<path d="M180.025 167.101C179.61 167.101 179.194 167.101 178.987 167.101C168.812 167.101 164.452 164.192 159.468 158.788C155.316 154.215 145.349 140.498 139.95 133.224C138.912 131.769 137.874 130.522 137.458 129.691C133.306 124.079 134.967 119.507 137.666 115.558C138.289 114.518 142.027 109.115 147.01 101.84C160.091 82.5114 182.101 50.2966 184.801 45.5164C189.161 37.8264 196.429 33.254 204.319 33.254C208.472 33.254 266.611 33.0461 322.674 32.6305C379.36 32.4226 438.123 32.007 442.276 32.007C451.412 32.007 457.018 33.254 462.625 40.1126C468.439 47.1791 501.869 91.2406 504.36 94.566C507.683 99.1384 509.552 104.75 509.759 110.154C509.759 112.232 509.967 116.805 510.174 122.208C510.59 132.6 511.005 146.733 510.797 151.721C510.382 159.619 505.191 165.023 497.716 165.231C491.071 165.231 203.073 167.101 180.025 167.101ZM442.068 33.0461C437.708 33.0461 379.153 33.254 322.467 33.6697C266.404 33.8775 208.264 34.2932 204.111 34.2932C196.844 34.2932 189.992 38.6578 185.631 45.9321C182.932 50.7123 160.922 83.135 147.841 102.464C142.857 109.738 139.327 115.142 138.497 116.181C136.213 119.507 134.344 123.663 138.289 129.067C138.912 129.898 139.743 131.145 140.781 132.6C146.179 139.875 156.146 153.592 160.091 158.164C164.867 163.36 169.02 166.062 178.779 166.062C190.199 166.062 490.656 164.192 497.093 163.984C503.945 163.776 508.929 158.788 509.136 151.513C509.344 146.525 508.721 132.392 508.513 122.208C508.306 116.805 508.098 112.232 508.098 110.154C508.098 102.88 504.568 97.2679 503.115 95.3974C500.623 92.072 467.193 48.0104 461.379 40.944C456.188 34.2932 450.997 33.0461 442.068 33.0461Z" fill="#231F20"/>
<path d="M355.274 144.031H206.395C200.997 144.031 196.844 139.667 196.844 134.471V62.5591C196.844 57.1553 201.204 52.9985 206.395 52.9985H355.274C360.673 52.9985 364.826 57.3631 364.826 62.5591V134.679C365.033 139.875 360.673 144.031 355.274 144.031Z" fill="#FF8200"/>
<path d="M355.274 145.694H206.395C200.374 145.694 195.39 140.706 195.39 134.679V62.5591C195.39 56.5318 200.374 51.5437 206.395 51.5437H355.274C361.296 51.5437 366.279 56.5318 366.279 62.5591V134.679C366.487 140.706 361.503 145.694 355.274 145.694ZM206.395 54.2456C201.827 54.2456 198.297 57.9867 198.297 62.3512V134.471C198.297 139.043 202.035 142.576 206.395 142.576H355.274C359.842 142.576 363.372 138.835 363.372 134.471V62.5591C363.372 57.9867 359.635 54.4534 355.274 54.4534H206.395V54.2456Z" fill="#231F20"/>
<path d="M207.434 94.3582C207.434 85.2134 207.434 75.8607 207.434 66.7158H205.772C205.772 77.1077 205.772 87.4996 205.772 97.6836H207.434C207.434 96.8522 207.434 95.1895 207.434 94.3582Z" fill="black"/>
<path d="M233.389 90.8249H231.728V89.1622H230.066V87.4995H228.405V85.8368H226.329V84.1741H224.668V85.8368H223.007C223.007 87.9151 223.007 90.617 223.007 92.6954H224.668C224.668 91.2405 224.668 88.9543 224.668 87.4995H226.329V89.1622H227.99V90.8249H229.651V92.4876H231.312V94.1503C232.143 94.1503 233.804 94.1503 234.842 94.1503V92.4876H233.181V90.8249H233.389Z" fill="black"/>
<path d="M219.477 92.4876V90.825H217.816C217.816 91.6563 217.816 93.319 217.816 94.3582C219.269 94.3582 221.553 94.3582 223.007 94.3582V92.6955C222.176 92.4876 220.307 92.4876 219.477 92.4876Z" fill="black"/>
<path d="M297.135 89.1623C297.965 89.1623 299.626 89.1623 300.664 89.1623V90.825C299.834 90.825 298.173 90.825 297.135 90.825V92.4877C298.588 92.4877 300.872 92.4877 302.326 92.4877V90.825H303.987C303.987 86.876 303.987 82.7193 303.987 78.7704H302.326V80.4331H300.664C300.664 82.5115 300.664 85.2133 300.664 87.2917H299.003C299.003 85.2133 299.003 82.5115 299.003 80.4331H300.664V78.7704C299.834 78.7704 298.173 78.7704 297.135 78.7704V80.4331H295.473C295.473 82.5115 295.473 85.2133 295.473 87.2917H297.135V89.1623Z" fill="black"/>
<path d="M235.05 92.4876H236.711C236.711 91.6562 236.711 89.9935 236.711 88.9543H235.05C235.05 89.9935 235.05 91.6562 235.05 92.4876Z" fill="black"/>
<path d="M221.346 89.1622V87.4995H219.684C219.684 88.3309 219.684 89.9936 219.684 91.0327H221.346V89.1622Z" fill="black"/>
<path d="M307.309 89.1622C308.762 89.1622 311.047 89.1622 312.5 89.1622V87.4995H314.161C314.161 86.6681 314.161 85.0054 314.161 83.9662H312.5V82.3035H314.161V80.6408H312.5V78.9781C311.047 78.9781 308.762 78.9781 307.309 78.9781V80.6408H305.648V82.3035H307.309V83.9662C308.14 83.9662 309.801 83.9662 310.839 83.9662C310.839 84.7976 310.839 86.4603 310.839 87.4995H309.178V85.8368C308.347 85.8368 306.686 85.8368 305.648 85.8368V87.4995H307.309V89.1622ZM309.178 82.3035V80.6408H310.839V82.3035H309.178Z" fill="black"/>
<path d="M265.988 82.3036C265.988 83.7584 265.988 86.0447 265.988 87.4995H267.65V89.1622C268.48 89.1622 270.141 89.1622 271.179 89.1622V87.4995H269.518C269.518 85.4211 269.518 82.7193 269.518 80.6409C270.349 80.6409 272.01 80.6409 273.048 80.6409C273.048 82.7193 273.048 85.4211 273.048 87.4995H274.709V89.1622C275.54 89.1622 277.201 89.1622 278.239 89.1622V87.4995H276.578C276.578 85.4211 276.578 82.7193 276.578 80.6409H278.239V78.9782H276.578C276.578 78.1468 276.578 76.4841 276.578 75.4449C275.748 75.4449 274.086 75.4449 273.048 75.4449C273.048 76.2763 273.048 77.939 273.048 78.9782C272.218 78.9782 270.557 78.9782 269.518 78.9782C269.518 78.1468 269.518 76.4841 269.518 75.4449C268.688 75.4449 267.027 75.4449 265.988 75.4449C265.988 76.2763 265.988 77.939 265.988 78.9782H264.327V80.6409H265.988V82.3036Z" fill="black"/>
<path d="M245.432 89.1623C247.508 89.1623 250.208 89.1623 252.284 89.1623V87.4996H253.945C253.945 86.0447 253.945 83.7585 253.945 82.3036H252.284V80.6409C251.454 80.6409 249.792 80.6409 248.754 80.6409V78.9782H247.093V77.3155C247.924 77.3155 249.585 77.3155 250.623 77.3155V78.9782C251.454 78.9782 253.115 78.9782 254.153 78.9782V77.3155H252.492V75.6528C250.415 75.6528 247.716 75.6528 245.64 75.6528V77.3155H243.978C243.978 78.1469 243.978 79.8096 243.978 80.8488H245.64V82.5115C246.47 82.5115 248.131 82.5115 249.169 82.5115V84.1742H250.831C250.831 85.0055 250.831 86.6682 250.831 87.7074C250 87.7074 248.339 87.7074 247.301 87.7074V86.0447H245.64V84.382H243.978C243.978 85.2133 243.978 86.876 243.978 87.9152H245.64V89.1623H245.432Z" fill="black"/>
<path d="M235.05 87.4995H233.389V89.1622H235.05V87.4995Z" fill="black"/>
<path d="M233.181 85.629H231.52V87.2917H233.181V85.629Z" fill="black"/>
<path d="M217.816 85.629H216.154V87.2917C216.985 87.2917 218.646 87.2917 219.684 87.2917V85.629H217.816Z" fill="black"/>
<path d="M216.155 89.1622V87.4995H214.493C214.493 86.6682 214.493 85.0055 214.493 83.9663H212.832C212.832 85.4212 212.832 87.7074 212.832 89.1622C213.455 89.1622 215.324 89.1622 216.155 89.1622Z" fill="black"/>
<path d="M231.52 83.9663H229.859V85.629H231.52V83.9663Z" fill="black"/>
<path d="M217.816 83.9663C218.646 83.9663 220.307 83.9663 221.346 83.9663V82.3036H223.007V80.6409H221.346V78.9782H223.007V80.6409H224.668V78.9782H226.329C226.329 76.8998 226.329 74.1979 226.329 72.1195H224.668C224.668 73.5744 224.668 75.8606 224.668 77.3155C223.837 77.3155 222.176 77.3155 221.138 77.3155V75.6528H219.477V73.9901H217.816V72.3274H216.154V70.6647C215.324 70.6647 213.663 70.6647 212.625 70.6647C212.625 71.496 212.625 73.1587 212.625 74.1979H214.286V75.8606H215.947V77.5233H217.608V79.186H219.269C219.269 80.0174 219.269 81.6801 219.269 82.7192C217.816 82.7192 215.532 82.7192 214.078 82.7192V84.3819C215.116 83.9663 216.985 83.9663 217.816 83.9663Z" fill="black"/>
<path d="M231.52 80.4331C230.689 80.4331 229.028 80.4331 227.99 80.4331V82.0958H226.329V83.7585C227.159 83.7585 228.821 83.7585 229.859 83.7585V82.0958C231.312 82.0958 233.596 82.0958 235.05 82.0958V80.4331C234.219 80.4331 232.351 80.4331 231.52 80.4331Z" fill="black"/>
<path d="M290.075 82.3035C290.075 84.3819 290.075 87.0838 290.075 89.1622C290.905 89.1622 292.566 89.1622 293.605 89.1622C293.605 86.4603 293.605 83.3427 293.605 80.6408H291.944V78.9781C291.113 78.9781 289.452 78.9781 288.414 78.9781V80.6408H290.075V82.3035Z" fill="black"/>
<path d="M288.414 89.1622C288.414 86.4603 288.414 83.3427 288.414 80.6408H286.753V78.9781H285.091C285.091 82.3035 285.091 86.0446 285.091 89.37C285.922 89.1622 287.583 89.1622 288.414 89.1622Z" fill="black"/>
<path d="M283.223 89.1623C283.223 85.8369 283.223 82.0958 283.223 78.7704C282.392 78.7704 280.731 78.7704 279.693 78.7704C279.693 82.0958 279.693 85.8369 279.693 89.1623C280.731 89.1623 282.392 89.1623 283.223 89.1623Z" fill="black"/>
<path d="M257.475 89.1623C258.929 89.1623 261.213 89.1623 262.666 89.1623V87.4996H264.327V85.8369C263.497 85.8369 261.836 85.8369 260.797 85.8369V87.4996H259.136C259.136 86.6682 259.136 85.0055 259.136 83.9663C260.59 83.9663 262.874 83.9663 264.327 83.9663C264.327 83.135 264.327 81.4723 264.327 80.4331H262.666V78.7704C261.213 78.7704 258.929 78.7704 257.475 78.7704V80.4331H255.814C255.814 82.5115 255.814 85.2133 255.814 87.2917H257.475V89.1623ZM259.136 80.4331H260.797V82.0958H259.136V80.4331Z" fill="black"/>
<path d="M235.05 78.7703V80.433H236.711C236.711 78.9781 236.711 76.6919 236.711 75.2371C235.88 75.2371 234.219 75.2371 233.181 75.2371V76.8998H234.842V78.7703H235.05Z" fill="black"/>
<path d="M231.52 78.7704H233.181V77.1077C232.351 77.1077 230.689 77.1077 229.651 77.1077V78.7704H231.52Z" fill="black"/>
<path d="M283.223 77.1076V75.4449C282.392 75.4449 280.731 75.4449 279.693 75.4449V77.1076C280.731 77.1076 282.392 77.1076 283.223 77.1076Z" fill="black"/>
<path d="M228.198 75.445V77.1077H229.859C229.859 76.2763 229.859 74.6136 229.859 73.5745H228.198V75.445Z" fill="black"/>
<path d="M229.859 71.9117V73.5744H231.52C231.52 72.743 231.52 71.0803 231.52 70.0411C230.066 70.0411 227.782 70.0411 226.329 70.0411V71.7038C227.367 71.9117 229.028 71.9117 229.859 71.9117Z" fill="black"/>
<path d="M351.744 66.7158V65.0531H350.083C350.083 75.8606 350.083 86.876 350.083 97.8914C302.533 97.8914 254.983 97.8914 207.641 97.8914V99.5541H209.302V101.217C256.852 101.217 304.402 101.217 351.744 101.217V99.5541H353.405C353.405 88.7466 353.405 77.7312 353.405 66.7158H351.744V66.7158Z" fill="black"/>
<path d="M209.095 65.0531H207.434V66.7158H209.095V65.0531Z" fill="black"/>
<path d="M212.625 65.0531C258.306 65.0531 304.194 65.0531 349.875 65.0531V63.3904C302.949 63.3904 256.022 63.3904 209.095 63.3904V65.0531C210.133 65.0531 211.794 65.0531 212.625 65.0531Z" fill="black"/>
<path d="M23.2558 165.023V122.416L8.72094 136.549L4.15283 131.769L22.2176 114.103L3.94519 95.6053L8.72094 90.825L23.2558 105.374V64.8453L50.2492 96.0209L31.7691 114.103L50.0415 132.6L23.2558 165.023ZM30.108 122.001V146.11L40.9053 133.016L30.108 122.001ZM30.108 83.135V106.205L40.9053 95.6053L30.108 83.135Z" fill="#2667C6"/>
<path d="M62.9153 138.42L57.7242 134.055C67.8987 122.001 67.8987 106.413 57.7242 94.3582L62.9153 89.9937C75.1661 104.334 75.1661 123.871 62.9153 138.42Z" fill="#2667C6"/>
<path d="M75.1661 149.643L69.9751 145.278C85.7558 126.365 85.7558 101.84 69.9751 82.9272L75.1661 78.5626C92.8156 99.762 92.8156 128.444 75.1661 149.643Z" fill="#2667C6"/>
<path d="M215.739 132.185C251.661 132.185 278.447 132.185 314.161 132.185H301.91C318.729 132.185 335.756 132.185 352.575 132.185H349.668H351.329H349.045C349.875 132.185 351.537 132.185 352.575 132.185H349.045C349.875 132.185 351.537 132.185 352.575 132.185H349.668H351.329H349.045C349.875 132.185 351.537 132.185 352.575 132.185C351.952 132.185 350.083 132.185 349.46 132.185H351.121H348.214C349.46 132.185 351.329 132.185 352.782 132.185H349.875H351.537H349.253C350.083 132.185 351.744 132.185 352.782 132.185H349.875C351.329 132.185 353.613 132.185 355.066 132.185V130.522H356.728C356.728 123.663 356.728 116.597 356.728 109.738H355.066V108.075C353.613 108.075 351.329 108.075 349.875 108.075H352.782C351.952 108.075 350.291 108.075 349.253 108.075H351.537H349.875H352.782C351.537 108.075 349.668 108.075 348.214 108.075H351.121H349.46C350.083 108.075 351.952 108.075 352.575 108.075C351.744 108.075 350.083 108.075 349.045 108.075H351.329H349.668H352.575C351.744 108.075 350.083 108.075 349.045 108.075H352.575C351.744 108.075 350.083 108.075 349.045 108.075H351.329H349.668H352.575C335.756 108.075 318.729 108.075 301.91 108.075H314.161C278.239 108.075 251.661 108.075 215.739 108.075V109.738H214.078C214.078 116.597 214.078 123.663 214.078 130.522H215.739V132.185ZM345.723 125.326C345.723 123.871 345.723 121.585 345.723 120.13C344.892 120.13 343.231 120.13 342.193 120.13C342.193 122.208 342.193 124.91 342.193 126.989H340.532C340.532 124.287 340.532 121.169 340.532 118.259C341.985 118.259 344.269 118.259 345.723 118.259V119.922H347.384C347.384 122.001 347.384 124.702 347.384 126.781H345.723V125.326ZM291.736 125.326C291.736 123.871 291.736 121.585 291.736 120.13C290.905 120.13 289.244 120.13 288.206 120.13C288.206 122.208 288.206 124.91 288.206 126.989H286.545C286.545 123.04 286.545 118.883 286.545 114.934H288.206C288.206 115.765 288.206 117.428 288.206 118.467C289.037 118.467 290.698 118.467 291.736 118.467V120.13H293.397C293.397 122.208 293.397 124.91 293.397 126.989H291.736V125.326ZM224.46 125.326C224.46 122.001 224.46 118.259 224.46 114.934C226.537 114.934 229.236 114.934 231.312 114.934V116.597H232.973C232.973 117.428 232.973 119.091 232.973 120.13H231.312V121.793H232.973C232.973 122.624 232.973 124.287 232.973 125.326H231.312V126.989C229.236 126.989 226.537 126.989 224.46 126.989V125.326ZM234.842 125.326C234.842 122.001 234.842 118.259 234.842 114.934H236.503C236.503 118.883 236.503 123.04 236.503 126.989H234.842V125.326ZM238.164 125.326C238.164 123.248 238.164 120.546 238.164 118.467H239.826C239.826 120.546 239.826 123.248 239.826 125.326C240.656 125.326 242.317 125.326 243.355 125.326C243.355 123.248 243.355 120.546 243.355 118.467H245.017C245.017 121.169 245.017 124.287 245.017 127.196C243.563 127.196 241.279 127.196 239.826 127.196V125.534H238.164V125.326ZM246.885 125.326C246.885 123.871 246.885 121.585 246.885 120.13H248.547V118.467C249.377 118.467 251.038 118.467 252.076 118.467V120.13H253.738C253.738 120.961 253.738 122.624 253.738 123.663C252.284 123.663 250 123.663 248.547 123.663V125.326C249.377 125.326 251.038 125.326 252.076 125.326V126.989C251.246 126.989 249.585 126.989 248.547 126.989V125.326H246.885ZM257.267 125.326C257.267 123.871 257.267 121.585 257.267 120.13H255.606V118.467H257.267C257.267 117.636 257.267 115.973 257.267 114.934H258.929C258.929 115.765 258.929 117.428 258.929 118.467H260.59V120.13H258.929C258.929 122.208 258.929 124.91 258.929 126.989H257.267V125.326ZM262.458 125.326C262.458 123.871 262.458 121.585 262.458 120.13H264.12V118.467C264.95 118.467 266.611 118.467 267.65 118.467V120.13H269.311C269.311 121.585 269.311 123.871 269.311 125.326H267.65V126.989C266.819 126.989 265.158 126.989 264.12 126.989V125.326H262.458ZM270.972 125.326C270.972 123.871 270.972 121.585 270.972 120.13H272.633V118.467C273.463 118.467 275.125 118.467 276.163 118.467V120.13H277.824C277.824 121.585 277.824 123.871 277.824 125.326H276.163V126.989C275.332 126.989 273.671 126.989 272.633 126.989V125.326H270.972ZM281.354 125.326C281.354 123.871 281.354 121.585 281.354 120.13H279.693V118.467H281.354C281.354 117.636 281.354 115.973 281.354 114.934H283.015C283.015 115.765 283.015 117.428 283.015 118.467H284.676V120.13H283.015C283.015 122.208 283.015 124.91 283.015 126.989H281.354V125.326ZM319.767 123.455V121.793H318.106V120.13H319.767V118.467H321.429V116.805H323.09V118.467H321.429V120.13H319.767V121.793H321.429V123.455H323.09V125.118H321.429V123.455H319.767V123.455ZM330.15 125.326C330.15 122.624 330.15 119.506 330.15 116.597H331.811V114.934C333.264 114.934 335.548 114.934 337.002 114.934V116.597H338.663C338.663 119.299 338.663 122.416 338.663 125.326H337.002V126.989C335.548 126.989 333.264 126.989 331.811 126.989V125.326H330.15Z" fill="black"/>
<path d="M347.384 125.326C347.384 123.871 347.384 121.585 347.384 120.13H345.723C345.723 122.208 345.723 124.91 345.723 126.989H347.384V125.326Z" fill="#FF8200"/>
<path d="M333.679 126.989C334.51 126.989 336.171 126.989 337.209 126.989V125.326C335.756 125.326 333.472 125.326 332.018 125.326V126.989H333.679Z" fill="#FF8200"/>
<path d="M293.397 125.326C293.397 123.871 293.397 121.585 293.397 120.13H291.736C291.736 122.208 291.736 124.91 291.736 126.989H293.397V125.326Z" fill="#FF8200"/>
<path d="M283.015 125.326C283.015 123.871 283.015 121.585 283.015 120.13H284.676V118.467H283.015C283.015 117.636 283.015 115.973 283.015 114.934H281.354C281.354 115.765 281.354 117.428 281.354 118.467H279.693V120.13H281.354C281.354 122.208 281.354 124.91 281.354 126.989H283.015V125.326Z" fill="#FF8200"/>
<path d="M274.502 126.989H276.163V125.326C275.332 125.326 273.671 125.326 272.633 125.326V126.989H274.502Z" fill="#FF8200"/>
<path d="M265.781 126.989H267.442V125.326C266.611 125.326 264.95 125.326 263.912 125.326V126.989H265.781Z" fill="#FF8200"/>
<path d="M258.929 125.326C258.929 123.871 258.929 121.585 258.929 120.13H260.59V118.467H258.929C258.929 117.636 258.929 115.973 258.929 114.934H257.267C257.267 115.765 257.267 117.428 257.267 118.467H255.606V120.13H257.267C257.267 122.208 257.267 124.91 257.267 126.989H258.929V125.326Z" fill="#FF8200"/>
<path d="M250.415 126.989H252.076V125.326C251.246 125.326 249.585 125.326 248.547 125.326V126.989H250.415Z" fill="#FF8200"/>
<path d="M241.694 126.989C242.525 126.989 244.186 126.989 245.224 126.989C245.224 124.287 245.224 121.169 245.224 118.26H243.563C243.563 120.338 243.563 123.04 243.563 125.118C242.733 125.118 241.071 125.118 240.033 125.118V126.781H241.694V126.989Z" fill="#FF8200"/>
<path d="M236.503 125.326C236.503 122.001 236.503 118.259 236.503 114.934H234.842C234.842 118.883 234.842 123.04 234.842 126.989H236.503V125.326Z" fill="#FF8200"/>
<path d="M227.99 126.989C228.821 126.989 230.482 126.989 231.52 126.989V125.326C230.066 125.326 227.782 125.326 226.329 125.326C226.329 124.495 226.329 122.832 226.329 121.793C227.782 121.793 230.066 121.793 231.52 121.793V120.13C230.066 120.13 227.782 120.13 226.329 120.13C226.329 119.299 226.329 117.636 226.329 116.597C227.782 116.597 230.066 116.597 231.52 116.597V114.934C229.444 114.934 226.744 114.934 224.668 114.934C224.668 118.883 224.668 123.04 224.668 126.989C225.291 126.989 227.159 126.989 227.99 126.989Z" fill="#FF8200"/>
<path d="M335.341 125.326H337.002C337.002 122.624 337.002 119.507 337.002 116.597C335.548 116.597 333.264 116.597 331.811 116.597C331.811 119.299 331.811 122.416 331.811 125.326C332.849 125.326 334.51 125.326 335.341 125.326Z" fill="black"/>
<path d="M323.297 123.455H321.636V125.118H323.297V123.455Z" fill="#FF8200"/>
<path d="M276.163 125.326C276.163 123.871 276.163 121.585 276.163 120.13C275.332 120.13 273.671 120.13 272.633 120.13C272.633 121.585 272.633 123.871 272.633 125.326C273.671 125.326 275.332 125.326 276.163 125.326Z" fill="black"/>
<path d="M267.649 125.326C267.649 123.871 267.649 121.585 267.649 120.13C266.819 120.13 265.158 120.13 264.12 120.13C264.12 121.585 264.12 123.871 264.12 125.326C264.95 125.326 266.819 125.326 267.649 125.326Z" fill="black"/>
<path d="M231.312 125.326H232.973C232.973 124.495 232.973 122.832 232.973 121.793H231.312C231.312 122.624 231.312 124.495 231.312 125.326Z" fill="#FF8200"/>
<path d="M332.018 121.793C332.018 120.338 332.018 118.052 332.018 116.597H330.15C330.15 119.299 330.15 122.416 330.15 125.326H331.811C332.018 124.495 332.018 122.624 332.018 121.793Z" fill="#FF8200"/>
<path d="M321.429 121.793H319.767V123.455H321.429V121.793Z" fill="#FF8200"/>
<path d="M276.163 123.455V125.118H277.824C277.824 123.663 277.824 121.377 277.824 119.922H276.163C276.163 120.961 276.163 122.624 276.163 123.455Z" fill="#FF8200"/>
<path d="M272.841 121.793V120.13H271.179C271.179 121.585 271.179 123.871 271.179 125.326H272.841C272.841 124.495 272.841 122.624 272.841 121.793Z" fill="#FF8200"/>
<path d="M267.65 123.455V125.118H269.311C269.311 123.663 269.311 121.377 269.311 119.922H267.65C267.65 120.961 267.65 122.624 267.65 123.455Z" fill="#FF8200"/>
<path d="M264.12 121.793V120.13H262.458C262.458 121.585 262.458 123.871 262.458 125.326H264.12C264.12 124.495 264.12 122.624 264.12 121.793Z" fill="#FF8200"/>
<path d="M250.415 123.455C251.246 123.455 252.907 123.455 253.945 123.455C253.945 122.624 253.945 120.961 253.945 119.922H252.284V121.585C251.453 121.585 249.792 121.585 248.754 121.585V119.922H247.093C247.093 121.377 247.093 123.663 247.093 125.118H248.754V123.455H250.415Z" fill="#FF8200"/>
<path d="M240.033 121.793C240.033 120.961 240.033 119.299 240.033 118.26H238.372C238.372 120.338 238.372 123.04 238.372 125.118H240.033C240.033 124.495 240.033 122.624 240.033 121.793Z" fill="#FF8200"/>
<path d="M227.99 121.793H226.329C226.329 122.624 226.329 124.287 226.329 125.326C227.782 125.326 230.066 125.326 231.52 125.326C231.52 124.495 231.52 122.832 231.52 121.793C230.482 121.793 228.821 121.793 227.99 121.793Z" fill="black"/>
<path d="M319.767 120.13H318.106V121.793H319.767V120.13Z" fill="#FF8200"/>
<path d="M250.415 121.793H252.076V120.13C251.246 120.13 249.585 120.13 248.547 120.13V121.793H250.415Z" fill="black"/>
<path d="M344.061 118.467C343.231 118.467 341.57 118.467 340.532 118.467C340.532 121.169 340.532 124.287 340.532 127.196H342.193C342.193 125.118 342.193 122.416 342.193 120.338C343.023 120.338 344.684 120.338 345.723 120.338V118.467H344.061Z" fill="#FF8200"/>
<path d="M337.209 120.13C337.209 121.585 337.209 123.871 337.209 125.326H338.87C338.87 122.624 338.87 119.507 338.87 116.597H337.209C337.209 117.428 337.209 119.299 337.209 120.13Z" fill="#FF8200"/>
<path d="M321.429 118.467H319.767V120.13H321.429V118.467Z" fill="#FF8200"/>
<path d="M290.075 118.467H288.414C288.414 117.636 288.414 115.973 288.414 114.934H286.545C286.545 118.883 286.545 123.04 286.545 126.989H288.206C288.206 124.91 288.206 122.208 288.206 120.13C289.037 120.13 290.698 120.13 291.736 120.13V118.467H290.075Z" fill="#FF8200"/>
<path d="M276.163 120.13V118.467C275.332 118.467 273.671 118.467 272.633 118.467V120.13C273.671 120.13 275.332 120.13 276.163 120.13Z" fill="#FF8200"/>
<path d="M267.649 120.13V118.467C266.819 118.467 265.158 118.467 264.12 118.467V120.13C264.95 120.13 266.819 120.13 267.649 120.13Z" fill="#FF8200"/>
<path d="M252.076 120.13V118.467C251.246 118.467 249.585 118.467 248.547 118.467V120.13C249.377 120.13 251.246 120.13 252.076 120.13Z" fill="#FF8200"/>
<path d="M231.312 120.13H232.973C232.973 119.299 232.973 117.636 232.973 116.597H231.312C231.312 117.428 231.312 119.299 231.312 120.13Z" fill="#FF8200"/>
<path d="M323.297 116.597H321.636V118.26H323.297V116.597Z" fill="#FF8200"/>
<path d="M227.99 116.597H226.329C226.329 117.428 226.329 119.091 226.329 120.13C227.782 120.13 230.066 120.13 231.52 120.13C231.52 119.299 231.52 117.636 231.52 116.597C230.482 116.597 228.821 116.597 227.99 116.597Z" fill="black"/>
<path d="M335.341 116.597H337.002V114.934C335.548 114.934 333.264 114.934 331.811 114.934V116.597C332.849 116.597 334.51 116.597 335.341 116.597Z" fill="#FF8200"/>
<path d="M305.817 113.064C305.817 114.366 305.817 115.731 305.817 117.142C305.817 132.91 318.6 145.694 334.368 145.694H335.692C350.729 145.694 362.919 133.504 362.919 118.467C362.919 103.431 350.729 91.2407 335.692 91.2407H327.64C315.588 91.2407 305.817 101.011 305.817 113.064Z" fill="#FFA20D"/>
<path d="M308.14 131.977C327.243 131.977 335.133 131.977 354.236 131.977H350.914H352.782H350.291C351.329 131.977 353.198 131.977 354.236 131.977H350.083C351.121 131.977 352.99 131.977 354.028 131.977H350.706H352.575H350.083C351.121 131.977 352.99 131.977 354.028 131.977C353.405 131.977 351.121 131.977 350.291 131.977H352.159H348.837C350.291 131.977 352.367 131.977 354.028 131.977H350.914H352.782H350.291C351.329 131.977 353.198 131.977 354.236 131.977H350.914C352.575 131.977 355.066 131.977 356.728 131.977V130.106H358.596C358.596 122.208 358.596 114.311 358.596 106.621H356.728V104.75C355.066 104.75 352.575 104.75 350.914 104.75H354.236C353.198 104.75 351.329 104.75 350.291 104.75H352.782H350.914H354.236C352.782 104.75 350.498 104.75 349.045 104.75H352.367H350.498C351.329 104.75 353.405 104.75 354.236 104.75C353.198 104.75 351.329 104.75 350.291 104.75H352.782H350.914H354.236C353.198 104.75 351.329 104.75 350.291 104.75H354.444C353.405 104.75 351.537 104.75 350.498 104.75H352.99H350.914H354.236C335.133 104.75 327.243 104.75 308.14 104.75" fill="#121112"/>
<path d="M348.422 124.287C348.422 122.624 348.422 120.13 348.422 118.467H346.553C346.553 120.961 346.553 123.871 346.553 126.365H348.422V124.287Z" fill="#FFA20D"/>
<path d="M332.641 126.157C333.679 126.157 335.548 126.157 336.586 126.157V124.287C334.925 124.287 332.434 124.287 330.772 124.287V126.157H332.641Z" fill="#FFA20D"/>
<path d="M320.806 122.208H318.937V124.079H320.806V122.208Z" fill="#FFA20D"/>
<path d="M330.772 120.338C330.772 118.675 330.772 116.181 330.772 114.519H328.904C328.904 117.636 328.904 121.169 328.904 124.287H330.772C330.772 123.248 330.772 121.169 330.772 120.338Z" fill="#FFA20D"/>
<path d="M318.937 120.338H317.068V122.209H318.937V120.338Z" fill="#FFA20D"/>
<path d="M316.86 118.26H314.992V120.13H316.86V118.26Z" fill="#FFA20D"/>
<path d="M344.477 116.389C343.439 116.389 341.57 116.389 340.532 116.389C340.532 119.507 340.532 123.04 340.532 126.157H342.4C342.4 123.663 342.4 120.754 342.4 118.26C343.439 118.26 345.307 118.26 346.346 118.26V116.389H344.477Z" fill="#FFA20D"/>
<path d="M336.586 118.26C336.586 119.922 336.586 122.416 336.586 124.079H338.455C338.455 120.961 338.455 117.428 338.455 114.311H336.586C336.586 115.35 336.586 117.428 336.586 118.26Z" fill="#FFA20D"/>
<path d="M318.937 116.389H317.068V118.26H318.937V116.389Z" fill="#FFA20D"/>
<path d="M320.806 114.311H318.937V116.181H320.806V114.311Z" fill="#FFA20D"/>
<path d="M334.718 114.311H336.586V112.44C334.925 112.44 332.434 112.44 330.772 112.44V114.311C331.603 114.311 333.679 114.311 334.718 114.311Z" fill="#FFA20D"/>
<path d="M351.537 135.51C350.291 136.757 350.291 138.628 351.537 139.875L369.186 157.541C370.432 158.788 372.301 158.788 373.547 157.541C374.792 156.294 374.792 154.423 373.547 153.176L355.897 135.51C354.651 134.263 352.782 134.263 351.537 135.51Z" fill="#6D3E32"/>
<path d="M360.673 140.498C360.257 140.082 359.635 139.875 359.219 139.251C358.181 139.043 357.766 140.29 357.351 140.914C356.935 141.953 355.274 142.369 355.066 143.408C355.897 144.031 356.728 144.863 357.558 145.694C358.181 144.447 358.389 142.369 359.842 142.161C360.257 141.953 360.465 141.953 360.88 141.953C361.296 141.953 361.503 141.745 361.711 141.537C361.296 141.122 361.088 140.706 360.673 140.498Z" fill="#512619"/>
<path d="M371.262 158.788C370.432 158.788 369.601 158.372 368.978 157.749L351.329 140.082C350.083 138.835 350.083 136.757 351.329 135.302C351.952 134.679 352.782 134.263 353.613 134.263C354.444 134.263 355.274 134.679 355.897 135.302L373.547 152.968C374.792 154.215 374.792 156.294 373.547 157.749C373.131 158.372 372.093 158.788 371.262 158.788ZM353.613 134.886C352.782 134.886 352.159 135.094 351.744 135.718C350.706 136.757 350.706 138.42 351.744 139.667L369.394 157.333C370.432 158.372 372.093 158.372 373.339 157.333C374.377 156.294 374.377 154.631 373.339 153.384L355.689 135.718C355.066 135.302 354.444 134.886 353.613 134.886Z" fill="#3D2110"/>
<path d="M334.302 150.89C317.068 150.89 303.156 136.965 303.156 119.714C303.156 102.464 317.068 88.5388 334.302 88.5388C351.537 88.5388 365.449 102.464 365.449 119.714C365.449 136.965 351.329 150.89 334.302 150.89ZM334.302 93.7348C319.975 93.7348 308.347 105.374 308.347 119.714C308.347 134.055 319.975 145.694 334.302 145.694C348.63 145.694 360.257 134.055 360.257 119.714C360.257 105.374 348.63 93.7348 334.302 93.7348Z" fill="#6D3E32"/>
<path d="M364.618 124.91C362.126 139.459 349.46 150.682 334.302 150.682C319.56 150.682 307.309 140.29 304.194 126.573C303.779 126.157 303.571 125.534 303.364 125.118C305.856 140.082 318.729 151.306 334.302 151.306C350.498 151.306 363.787 139.043 365.449 123.455C365.241 123.871 364.826 124.495 364.618 124.91Z" fill="#3D2110"/>
<path d="M303.364 119.714C303.364 102.672 317.276 88.7466 334.302 88.7466C351.329 88.7466 365.241 102.672 365.241 119.714C365.241 121.585 365.033 123.248 364.826 124.91C365.033 124.287 365.449 123.871 365.656 123.248C365.864 122.001 365.864 120.961 365.864 119.714C365.864 102.464 351.744 88.3309 334.51 88.3309C317.276 88.3309 303.156 102.464 303.156 119.714C303.156 121.585 303.364 123.248 303.571 124.91C303.779 125.534 304.194 125.949 304.402 126.365C303.779 124.287 303.364 122.001 303.364 119.714Z" fill="#632920"/>
<path d="M334.302 145.694C319.975 145.694 308.347 134.055 308.347 119.714C308.347 105.374 319.975 93.7347 334.302 93.7347C348.63 93.7347 360.257 105.374 360.257 119.714C360.257 134.055 348.63 145.694 334.302 145.694ZM334.302 97.268C321.844 97.268 311.877 107.452 311.877 119.714C311.877 132.185 322.052 142.161 334.302 142.161C346.553 142.161 356.728 131.977 356.728 119.714C356.728 107.244 346.553 97.268 334.302 97.268Z" fill="#7F7F7F"/>
<path d="M334.302 93.5269C319.767 93.5269 308.14 105.374 308.14 119.714C308.14 134.055 319.767 146.11 334.302 146.11C348.837 146.11 360.465 134.263 360.465 119.922C360.465 105.581 348.63 93.5269 334.302 93.5269ZM334.302 144.655C320.598 144.655 309.385 133.432 309.385 119.714C309.385 105.997 320.598 94.7739 334.302 94.7739C348.007 94.7739 359.219 105.997 359.219 119.714C359.219 133.432 348.007 144.655 334.302 144.655Z" fill="black"/>
<path d="M329.527 99.9699C327.035 100.386 320.39 103.503 318.522 107.66C316.653 111.817 324.543 111.401 326.412 106.829C328.281 102.256 331.811 101.009 331.603 100.386C331.188 99.5542 329.527 99.9699 329.527 99.9699Z" fill="white"/>
<path d="M343.854 136.549C343.854 136.133 340.324 138.004 334.925 137.796C329.111 137.381 324.543 134.471 324.751 135.302C325.166 137.173 328.696 140.082 333.472 140.706C338.248 141.122 344.061 137.588 343.854 136.549Z" fill="white"/>
<path d="M334.095 91.0328C320.39 89.7858 301.495 104.75 307.101 117.844C307.309 102.048 321.844 93.9426 334.095 91.0328Z" fill="#93604C"/>
<path d="M360.88 130.314C355.689 138.628 345.723 145.902 336.586 147.772C347.176 150.266 357.766 139.875 360.88 130.314Z" fill="#93604C"/>
<path d="M304.759 187.73C300.151 187.73 295.333 187.73 290.725 187.73V185.971H292.401C292.401 185.091 292.401 183.113 292.401 182.233H294.077C294.077 181.354 294.077 179.376 294.077 178.496H295.752C295.752 176.957 295.752 174.539 295.752 173C294.914 173 293.029 173 292.191 173C292.191 173.879 292.191 175.858 292.191 176.737H290.516C290.516 177.617 290.516 179.595 290.516 180.475H288.84C288.84 181.354 288.84 183.333 288.84 184.212H287.165C287.165 185.091 287.165 187.07 287.165 187.949H285.489C285.489 188.829 285.489 190.807 285.489 191.687C292.401 191.687 299.522 191.687 306.434 191.687V189.928H308.11V187.73C307.482 187.73 305.806 187.73 304.759 187.73Z" fill="black"/>
<path d="M320.273 180.857V179.19H321.879C321.879 177.732 321.879 175.441 321.879 173.984C321.076 173.984 319.27 173.984 318.467 173.984C318.467 174.817 318.467 176.691 318.467 177.524H316.861C316.861 178.357 316.861 180.232 316.861 181.065H315.255C315.255 181.898 315.255 183.772 315.255 184.605H313.65C313.65 185.439 313.65 187.313 313.65 188.146H312.044C312.044 188.979 312.044 190.854 312.044 191.687C312.847 191.687 314.653 191.687 315.456 191.687V190.021H317.062C317.062 189.188 317.062 187.313 317.062 186.48H318.668C318.668 185.647 318.668 183.772 318.668 182.939H320.273V180.857Z" fill="black"/>
<path d="M374.792 178.496H376.366V176.737H377.94C377.94 175.858 377.94 173.879 377.94 173C370.268 173 362.597 173 354.925 173C354.925 173.879 354.925 175.858 354.925 176.737H353.352C353.352 177.617 353.352 179.595 353.352 180.475H351.778C351.778 181.354 351.778 183.333 351.778 184.212H350.008C350.008 185.091 350.008 187.07 350.008 187.949H348.434C348.434 188.829 348.434 190.807 348.434 191.687C349.221 191.687 350.991 191.687 351.778 191.687V189.928H353.352C353.352 189.049 353.352 187.07 353.352 186.191H354.925V184.432C360.433 184.432 365.941 184.432 371.448 184.432V182.673H373.022V180.914H374.596V178.496H374.792ZM371.448 178.496H369.875V180.255C365.547 180.255 361.023 180.255 356.696 180.255V178.496H358.269V176.737C362.597 176.737 367.121 176.737 371.448 176.737V178.496Z" fill="black"/>
<path d="M347.127 178.496H348.764V176.737H350.401C350.401 175.858 350.401 173.879 350.401 173C342.421 173 334.44 173 326.46 173C326.46 173.879 326.46 175.858 326.46 176.737H324.823C324.823 177.617 324.823 179.595 324.823 180.475H323.186C323.186 181.354 323.186 183.333 323.186 184.212H321.549C321.549 185.091 321.549 187.07 321.549 187.949H319.912C319.912 188.829 319.912 190.807 319.912 191.687C320.731 191.687 322.572 191.687 323.391 191.687V189.928H325.028C325.028 189.049 325.028 187.07 325.028 186.191H326.665V184.432C332.394 184.432 338.124 184.432 343.853 184.432V182.673H345.49V180.914H347.127V178.496ZM343.648 178.496H342.011V180.255C337.51 180.255 332.803 180.255 328.302 180.255V178.496H329.939V176.737C334.44 176.737 339.147 176.737 343.648 176.737V178.496Z" fill="black"/>
<path d="M403.841 177.316V175.65H405.478V173.984C397.498 173.984 389.517 173.984 381.537 173.984C381.537 174.817 381.537 176.691 381.537 177.524H379.9C379.9 178.357 379.9 180.232 379.9 181.065H378.263C378.263 181.898 378.263 183.772 378.263 184.605H376.626C376.626 185.439 376.626 187.313 376.626 188.146H374.989C374.989 188.979 374.989 190.854 374.989 191.687C382.355 191.687 389.927 191.687 397.293 191.687V190.021H398.93V187.73C392.791 187.73 386.243 187.73 380.105 187.73V186.063H381.742V184.397C386.857 184.397 391.973 184.397 397.088 184.397V182.731H398.725V181.065C393.61 181.065 388.494 181.065 383.379 181.065V179.399H385.016V177.316C391.359 177.316 397.702 177.316 403.841 177.316Z" fill="black"/>
<path d="M287.774 177.069V175.526H289.423V173.984C280.766 173.984 272.108 173.984 263.451 173.984C263.451 174.755 263.451 176.491 263.451 177.262H261.802C261.802 178.033 261.802 179.769 261.802 180.54H260.153C260.153 181.312 260.153 183.047 260.153 183.819H258.504C258.504 184.59 258.504 186.326 258.504 187.097H256.855C256.855 187.868 256.855 189.604 256.855 190.375H255C255 191.147 255 192.882 255 193.654C255.825 193.654 257.68 193.654 258.504 193.654V192.111H260.153C260.153 191.34 260.153 189.604 260.153 188.833H261.802C261.802 188.061 261.802 186.326 261.802 185.554H263.451V184.012C268.604 184.012 273.757 184.012 278.911 184.012V182.469H280.56V180.926C275.406 180.926 270.253 180.926 265.1 180.926V179.383H266.749V177.069C273.964 177.069 280.972 177.069 287.774 177.069Z" fill="black"/>
</g>
<defs>
<clipPath id="clip0_32_1139">
<rect width="375" height="223" fill="white"/>
</clipPath>
</defs>
</svg>
