<svg width="22" height="22" viewBox="0 0 22 22" fill="none" xmlns="http://www.w3.org/2000/svg">
<g opacity="0.5">
<circle cx="11" cy="11" r="9" fill="#FF8200"/>
<circle cx="11" cy="11" r="9.75" stroke="#FF8200" stroke-opacity="0.5" stroke-width="1.5"/>
<path fill-rule="evenodd" clip-rule="evenodd" d="M7.325 10.9102C7.03505 10.9102 6.8 11.1513 6.8 11.4486V15.2179C6.8 15.5153 7.03505 15.7563 7.325 15.7563H14.675C14.9649 15.7563 15.2 15.5153 15.2 15.2179V11.4486C15.2 11.1513 14.9649 10.9102 14.675 10.9102H7.325ZM5.75 11.4486C5.75 10.5565 6.45515 9.83325 7.325 9.83325H14.675C15.5448 9.83325 16.25 10.5565 16.25 11.4486V15.2179C16.25 16.11 15.5448 16.8333 14.675 16.8333H7.325C6.45515 16.8333 5.75 16.11 5.75 15.2179V11.4486Z" fill="black"/>
<path fill-rule="evenodd" clip-rule="evenodd" d="M11.0146 6.12129C10.4473 6.12129 9.90327 6.32243 9.50215 6.68045C9.10104 7.03848 8.87569 7.52406 8.87569 8.03038V9.93948C8.87569 10.2031 8.63629 10.4167 8.34097 10.4167C8.04565 10.4167 7.80624 10.2031 7.80624 9.93948V8.03038C7.80624 7.2709 8.14426 6.54252 8.74594 6.00549C9.34762 5.46845 10.1637 5.16675 11.0146 5.16675C11.8655 5.16675 12.6815 5.46845 13.2832 6.00549C13.8849 6.54252 14.2229 7.2709 14.2229 8.03038V9.93948C14.2229 10.2031 13.9835 10.4167 13.6882 10.4167C13.3929 10.4167 13.1535 10.2031 13.1535 9.93948V8.03038C13.1535 7.52406 12.9281 7.03848 12.527 6.68045C12.1259 6.32243 11.5818 6.12129 11.0146 6.12129Z" fill="black"/>
<rect x="4.5" y="4.5" width="13" height="13" stroke="#FF8200" stroke-opacity="0.5"/>
</g>
</svg>
