<svg width="268" height="216" viewBox="0 0 268 216" fill="none" xmlns="http://www.w3.org/2000/svg">
<mask id="mask0_2051_35809" style="mask-type:luminance" maskUnits="userSpaceOnUse" x="0" y="0" width="268" height="216">
<path d="M256 0H12C5.37258 0 0 5.37258 0 12V204C0 210.627 5.37258 216 12 216H256C262.627 216 268 210.627 268 204V12C268 5.37258 262.627 0 256 0Z" fill="white"/>
</mask>
<g mask="url(#mask0_2051_35809)">
<path d="M272.5 -5.09998H-7.5V221.9H272.5V-5.09998Z" fill="#E5E5E5"/>
<path d="M113.6 148.8L130.6 144.2L125.5 136.8L118.7 155.6L127.8 151.9L117.1 138.1" stroke="#2769DF" stroke-width="2.5"/>
<path d="M147.1 134.3C147.1 134.3 154 142 150.6 153.8C147.1 166.2 137.6 169.6 137.6 169.6" stroke="#2769DF" stroke-width="3" stroke-linecap="round"/>
<path d="M141.8 138.3C144.9 142.1 145.8 147.2 144.3 151.8C141.8 160.2 135.2 162.4 135.2 162.4" stroke="#2769DF" stroke-width="3" stroke-linecap="round"/>
<path d="M135.8 142.4C137.6 144.6 138.2 147.6 137.3 150.4C136.6 153.2 134.5 155.4 131.9 156.5" stroke="#2769DF" stroke-width="3" stroke-linecap="round"/>
<path d="M152.2 115L175.2 111.3M198.3 115L175.3 111.3" stroke="#605F60" stroke-width="2" stroke-linecap="round" stroke-linejoin="round"/>
<path d="M174.8 111.3V96.6" stroke="#605F60" stroke-width="2" stroke-linecap="round" stroke-linejoin="round"/>
<path fill-rule="evenodd" clip-rule="evenodd" d="M134.4 56H216C217.7 56 219 57.3 219 59V103.7C219 105.4 217.7 106.7 216 106.7H134.4C132.7 106.7 131.4 105.4 131.4 103.7V59C131.4 57.3 132.7 56 134.4 56Z" fill="white" stroke="#999999" stroke-width="2"/>
<path fill-rule="evenodd" clip-rule="evenodd" d="M137.8 60.6H212.6C213.7 60.6 214.6 61.5 214.6 62.6V100.1C214.6 101.2 213.7 102.1 212.6 102.1H137.8C136.7 102.1 135.8 101.2 135.8 100.1V62.6C135.8 61.5 136.7 60.6 137.8 60.6Z" fill="#605F60" stroke="#393939" stroke-width="1.5"/>
<path d="M231.5 85.2L232.5 81.1" stroke="#3C3B3C" stroke-width="2" stroke-linecap="round" stroke-linejoin="round"/>
<path fill-rule="evenodd" clip-rule="evenodd" d="M227.8 66.9V80C227.8 81.7 229.1 83 230.8 83H278.2C279.9 83 281.2 81.7 281.2 80V66.9C281.2 65.2 279.9 63.9 278.2 63.9H230.8C229.1 63.9 227.8 65.2 227.8 66.9Z" fill="white" stroke="#999999" stroke-width="2" stroke-linecap="round" stroke-linejoin="round"/>
<path d="M271.5 67H265.4C264.8 67 264.4 67.4 264.4 68V71C264.4 71.6 264.8 72 265.4 72H271.5C272.1 72 272.5 71.6 272.5 71V68C272.5 67.4 272.1 67 271.5 67Z" stroke="#3C3B3C" stroke-width="1.5" stroke-linecap="round" stroke-linejoin="round"/>
<path d="M259.018 75.1746C259.946 69.4502 256.057 64.058 250.332 63.1309C244.608 62.2038 239.216 66.0927 238.289 71.8171C237.361 77.5415 241.25 82.9336 246.975 83.8608C252.699 84.7879 258.091 80.899 259.018 75.1746Z" fill="#7C7C7C" stroke="#3C3B3C" stroke-width="2" stroke-linecap="round" stroke-linejoin="round"/>
<path d="M248.8 80.3C252.5 80.3 255.5 77.3003 255.5 73.6C255.5 69.8997 252.5 66.9 248.8 66.9C245.1 66.9 242.1 69.8997 242.1 73.6C242.1 77.3003 245.1 80.3 248.8 80.3Z" fill="#605F60" stroke="#3C3B3C" stroke-width="1.5" stroke-linecap="round" stroke-linejoin="round"/>
<path fill-rule="evenodd" clip-rule="evenodd" d="M272.9 11V43.9C272.9 46.1 271.1 47.9 268.9 47.9H158C155.8 47.9 154 46.1 154 43.9V11C154 8.8 155.8 7 158 7H268.9C271.1 7 272.9 8.8 272.9 11Z" fill="white" stroke="#999999" stroke-width="2" stroke-linecap="round" stroke-linejoin="round"/>
<path d="M272.9 11V25.6C272.9 27.8 271.1 29.6 268.9 29.6H158C155.8 29.6 154 27.8 154 25.6V11C154 8.8 155.8 7 158 7H268.9C271.1 7 272.9 8.8 272.9 11Z" stroke="#999999" stroke-width="2" stroke-linecap="round" stroke-linejoin="round"/>
<path fill-rule="evenodd" clip-rule="evenodd" d="M263.7 43.3V45.7C263.7 46.8 262.8 47.7 261.7 47.7H165.3C164.2 47.7 163.3 46.8 163.3 45.7V43.3C163.3 42.2 164.2 41.3 165.3 41.3H261.7C262.8 41.3 263.7 42.2 263.7 43.3Z" fill="#605F60" stroke="#3C3B3C" stroke-width="2" stroke-linecap="round" stroke-linejoin="round"/>
<path fill-rule="evenodd" clip-rule="evenodd" d="M237.7 91.5H259.4C261.6 91.5 263.4 93.3 263.4 95.5V124.5C263.4 126.7 261.6 128.5 259.4 128.5H237.7C235.5 128.5 233.7 126.7 233.7 124.5V95.5C233.7 93.3 235.5 91.5 237.7 91.5Z" fill="white" stroke="#999999" stroke-width="2" stroke-linecap="round" stroke-linejoin="round"/>
<path d="M237.4 91.8H255.2C257.4 91.8 259.2 93.6 259.2 95.8V124.8C259.2 127 257.4 128.8 255.2 128.8H237.4C235.2 128.8 233.4 127 233.4 124.8V95.8C233.4 93.6 235.2 91.8 237.4 91.8Z" stroke="#999999" stroke-width="1.5" stroke-linecap="round" stroke-linejoin="round"/>
<path d="M246.3 124.7C250.774 124.7 254.4 121.074 254.4 116.6C254.4 112.126 250.774 108.5 246.3 108.5C241.826 108.5 238.2 112.126 238.2 116.6C238.2 121.074 241.826 124.7 246.3 124.7Z" fill="#7C7C7C" stroke="#3C3B3C" stroke-width="1.5" stroke-linecap="round" stroke-linejoin="round"/>
<path d="M246.3 103.2C247.791 103.2 249 101.991 249 100.5C249 99.0089 247.791 97.8 246.3 97.8C244.809 97.8 243.6 99.0089 243.6 100.5C243.6 101.991 244.809 103.2 246.3 103.2Z" fill="#7C7C7C" stroke="#3C3B3C" stroke-width="1.5" stroke-linecap="round" stroke-linejoin="round"/>
<path d="M246.6 119.3C247.981 119.3 249.1 118.181 249.1 116.8C249.1 115.419 247.981 114.3 246.6 114.3C245.219 114.3 244.1 115.419 244.1 116.8C244.1 118.181 245.219 119.3 246.6 119.3Z" fill="#605F60" stroke="#3C3B3C" stroke-width="1.5" stroke-linecap="round" stroke-linejoin="round"/>
<path fill-rule="evenodd" clip-rule="evenodd" d="M209.6 118.5H254.4C255.5 118.5 256.4 119.4 256.4 120.5V132.5C256.4 133.6 255.5 134.5 254.4 134.5H209.6C208.5 134.5 207.6 133.6 207.6 132.5V120.5C207.6 119.4 208.5 118.5 209.6 118.5Z" fill="white" stroke="#999999" stroke-width="2" stroke-linecap="round" stroke-linejoin="round"/>
<path d="M209.2 118.3H249.7C250.8 118.3 251.7 119.2 251.7 120.3V132.6C251.7 133.7 250.8 134.6 249.7 134.6H209.2C208.1 134.6 207.2 133.7 207.2 132.6V120.3C207.2 119.2 208.1 118.3 209.2 118.3Z" stroke="#999999" stroke-width="1.5" stroke-linecap="round" stroke-linejoin="round"/>
<path fill-rule="evenodd" clip-rule="evenodd" d="M220.8 122H233.2C233.8 122 234.2 122.4 234.2 123V129C234.2 129.6 233.8 130 233.2 130H220.8C220.2 130 219.8 129.6 219.8 129V123C219.8 122.4 220.2 122 220.8 122Z" fill="#605F60" stroke="#393939" stroke-width="1.5" stroke-linecap="round" stroke-linejoin="round"/>
<path d="M244 130.5C246.485 130.5 248.5 128.485 248.5 126C248.5 123.515 246.485 121.5 244 121.5C241.515 121.5 239.5 123.515 239.5 126C239.5 128.485 241.515 130.5 244 130.5Z" fill="#C8C8C8" stroke="#999999" stroke-width="1.5" stroke-linecap="round" stroke-linejoin="round"/>
<path fill-rule="evenodd" clip-rule="evenodd" d="M213.6 16.7C213.6 16.7 212.6 23.2 211.8 24C211.1 24.6 205.1 25.8 205.1 25.8C205.1 25.8 210.9 27.2 211.8 27.6C213 28.2 213.6 34.3 213.6 34.3C213.6 34.3 214.6 28.4 215.4 27.6C216.1 26.9 222.1 25.8 222.1 25.8C222.1 25.8 216.2 24.6 215.4 24C214.7 23.5 213.6 16.7 213.6 16.7Z" fill="#FF817B" stroke="#FF0000" stroke-linecap="round" stroke-linejoin="round"/>
<path fill-rule="evenodd" clip-rule="evenodd" d="M174.9 95.4C174.9 95.4 173.9 101.6 173.2 102.3C172.6 102.9 166.9 104 166.9 104C166.9 104 172.4 105.3 173.2 105.7C174.3 106.2 174.9 112 174.9 112C174.9 112 175.9 106.4 176.6 105.7C177.2 105.1 182.9 104 182.9 104C182.9 104 177.4 102.8 176.6 102.3C175.9 101.8 174.9 95.4 174.9 95.4Z" fill="#FF817B" stroke="#EA0000" stroke-linecap="round" stroke-linejoin="round"/>
<path fill-rule="evenodd" clip-rule="evenodd" d="M232 59.8C232 59.8 231 66 230.3 66.7C229.7 67.3 224 68.4 224 68.4C224 68.4 229.5 69.7001 230.3 70.1001C231.4 70.6001 232 76.4 232 76.4C232 76.4 233 70.8001 233.7 70.1001C234.3 69.5001 240.1 68.4 240 68.4C239.9 68.4 234.4 67.2 233.7 66.7C233 66.2 232 59.8 232 59.8Z" fill="#FF817B" stroke="#EA0000" stroke-linecap="round" stroke-linejoin="round"/>
<path fill-rule="evenodd" clip-rule="evenodd" d="M212.5 117.6C212.5 117.6 211.5 123.7 210.8 124.4C210.2 125 204.6 126.1 204.6 126.1C204.6 126.1 210 127.4 210.8 127.8C211.9 128.3 212.5 134 212.5 134C212.5 134 213.5 128.5 214.2 127.8C214.8 127.2 220.4 126.1 220.4 126.1C220.4 126.1 214.9 124.9 214.2 124.4C213.5 123.9 212.5 117.6 212.5 117.6Z" fill="#FF817B" stroke="#EA0000" stroke-linecap="round" stroke-linejoin="round"/>
<path fill-rule="evenodd" clip-rule="evenodd" d="M181.8 156.1L167.1 121.7C167.1 121.7 182.9 113.1 207.5 117C234.9 121.3 247.6 138.2 247.6 138.2L188.6 158.2L181.8 156.2V156.1Z" fill="url(#paint0_linear_2051_35809)"/>
<mask id="mask1_2051_35809" style="mask-type:luminance" maskUnits="userSpaceOnUse" x="167" y="115" width="81" height="44">
<path d="M181.8 156.1L167.1 121.7C167.1 121.7 182.9 113.1 207.5 117C234.9 121.3 247.6 138.2 247.6 138.2L188.6 158.2L181.8 156.2V156.1Z" fill="white"/>
</mask>
<g mask="url(#mask1_2051_35809)">
<g opacity="0.7">
<path d="M170.7 135.7C170.7 135.7 176.2 134.6 177.5 138.5C178.7 142.3 186.1 142.4 189.5 140.5C192.9 138.6 195.4 137.8 199.5 138.5C203.6 139.2 206.5 143.4 206.5 143.4C206.5 143.4 208.4 148.8 216.5 147.5C224.6 146.2 225.4 147.5 227.3 150.5" stroke="#EA0000"/>
<path d="M234.2 143.1C232 139.5 230.7 138.1 221.5 139.9C212.3 141.7 210.3 135.1 210.3 135.1C210.3 135.1 207.8 130.7 203.2 130C198.9 129.3 194.5 130.2 190.8 132.5C186.8 134.9 179.3 135.4 177.8 130.8C176.3 126.2 170.7 125.7 170.7 125.7C167.7 125.7 164.8 127 162.8 129.3" stroke="#EA0000"/>
<path d="M167.1 120.3C169 118 172 116.8 175 116.9C175 116.9 180.7 117.5 182.1 122.2C183.5 126.9 191.1 126.6 195.1 124.3C198.8 122.1 203.2 121.3 207.5 122.1C212.2 122.9 214.6 127.4 214.6 127.4C214.6 127.4 216.5 134 225.8 132.5C235.1 131 238.6 132.7 240.8 136.3C243 139.9 243 144.2 243.3 146.4" stroke="#EA0000"/>
</g>
</g>
<path fill-rule="evenodd" clip-rule="evenodd" d="M133.8 184.4C132.7 185 132 186.2 132 187.5C132 189.6 132.8 201.5 132.8 201.5C132.8 201.5 132.8 202.8 136 204.3C139.2 205.8 154.5 212.3 154.5 212.3C154.5 212.3 157 213.8 161.5 212.9C166 212 178.4 210 178.4 210C180.3 209.5 182.1 208.4 183.2 206.7C185.5 203.8 206 165.4 206 165.4C206.7 164.2 206.9 162.7 206.8 161.4C206.7 158.8 206.3 152.4 206.3 152.4C206.3 152.4 206.3 150.6 203.1 148.6C199.9 146.6 196 144 193.6 142.5C191.2 141 191.4 141.5 190.3 141.3H188.4L174.8 143.1C173.6 143.5 172.6 144.3 171.9 145.3C170.4 147.1 133.9 184.4 133.9 184.4H133.8Z" fill="#DEE7ED"/>
<path fill-rule="evenodd" clip-rule="evenodd" d="M190.6 141.3L176.7 143C174.9 143.2 173.2 144 171.8 145.3C169.6 147.3 134.8 183.3 134.8 183.3C134.8 183.3 132.5 185.5 137 187.2C141.5 188.9 154.4 194.3 154.4 194.3C156.7 195 159.1 195.2 161.4 194.9C161.6 194.9 174.3 193.2 174.3 193.2C176.6 193 178.8 191.8 180.1 189.9C181.2 188.6 204.2 153.6 204.2 153.6C204.2 153.6 206.3 151 204 149.6C201.7 148.2 192.6 142.2 192.6 142.2C192 141.7 191.3 141.4 190.6 141.3Z" fill="white"/>
<path d="M171.8 145.3L133.3 185C132.2 186.5 132 186.9 132.1 188.8C132.1 190.3 132.8 201.5 132.8 201.5C133 202.7 133.3 203.4 135 204.4C137 205.7 154.5 212.4 154.5 212.4C156.4 213.2 158.4 213.3 160.5 213.1C164.4 212.5 180.4 210 180.4 210C182.5 209.6 183.3 208.3 184.2 206.8C185.9 204.2 206 165.6 206 165.6C206.8 163.9 206.9 162.3 206.7 160.6C206.5 157.8 206.3 152.6 206.3 152.6C206.3 152.6 206.3 150 204.1 148.7C201.9 147.4 193.1 142.4 193.1 142.4C193.1 142.4 190.8 140.9 187.6 141.6C184.4 142.3 175.7 143.2 175.7 143.2C174.2 143.5 172.8 144.2 171.8 145.4V145.3Z" stroke="#3C3B3C" stroke-width="2" stroke-linecap="round" stroke-linejoin="round"/>
<path fill-rule="evenodd" clip-rule="evenodd" d="M168 167.6C175.2 167.2 181.1 170 181.4 173.9C181.7 177.8 176 181.2 168.8 181.6C161.6 182 155.7 179.2 155.4 175.3C155.1 171.4 160.8 168 168 167.6Z" fill="#FF8200" stroke="#3C3B3C" stroke-width="1.5" stroke-linecap="round" stroke-linejoin="round"/>
<path d="M168.2 172.2C170.6 172.1 172.5 172.8 172.6 173.9C172.7 175 170.8 175.9 168.4 176C166 176.1 164.1 175.4 164 174.3C163.9 173.2 165.8 172.3 168.2 172.2Z" stroke="#3C3B3C" stroke-width="1.5" stroke-linecap="round" stroke-linejoin="round"/>
<path fill-rule="evenodd" clip-rule="evenodd" d="M152.3 181.6C154.8 181.5 156.9 182.4 157 183.8C157.1 185.2 155.1 186.3 152.6 186.5C150.1 186.7 148 185.7 147.9 184.3C147.8 182.9 149.8 181.7 152.3 181.6Z" fill="#FF8200" stroke="#3C3B3C" stroke-width="1.5" stroke-linecap="round" stroke-linejoin="round"/>
<path d="M163 164C163.3 164.2 163.4 164.5 163.2 164.8C163 165.1 162.7 165.2 162.4 165C162.2 165 162.1 164.7 162.1 164.5C162.2 164.1 162.6 163.9 163 164Z" stroke="#3C3B3C" stroke-linecap="round" stroke-linejoin="round"/>
<path fill-rule="evenodd" clip-rule="evenodd" d="M196.1 151L187.8 163.5C187.8 163.5 186.1 166.2 182.9 165.8C179.7 165.4 166.2 162.4 166.2 162.4C166.2 162.4 164.6 162 165.6 160.7C166.6 159.4 176.9 148.1 176.9 148.1C176.9 148.1 177.8 146.9 179.8 146.9C181.8 146.9 194.9 149.1 194.9 149.1C194.9 149.1 197.1 149.6 196 151H196.1Z" fill="#FF8200" stroke="#3C3B3C" stroke-width="1.5" stroke-linecap="round" stroke-linejoin="round"/>
<path fill-rule="evenodd" clip-rule="evenodd" d="M143.2 197.5L150.8 200.1C151.3 200.3 151.6 200.8 151.4 201.4C151.2 202 150.7 202.2 150.1 202L142.5 199.4C142 199.2 141.7 198.7 141.9 198.1C142.1 197.5 142.6 197.3 143.2 197.5Z" fill="#999999" stroke="#3C3B3C" stroke-linecap="round" stroke-linejoin="round"/>
<path fill-rule="evenodd" clip-rule="evenodd" d="M101.2 209.5C101.2 209.5 107.4 207.9 108.5 198.5C109.6 189.1 103.5 185.5 103.5 185.5L103.9 180.8C103.9 180.8 111.8 184.1 115.5 173.5C117.9 164.7 107.6 151.2 107.6 151.2L108.5 143.5C108.5 143.5 113.5 141.7 114.5 132.5C115.5 123.3 110.5 121.5 110.5 121.5L109.7 121L101.1 209.5H101.2Z" fill="white"/>
<path d="M110.1 121.4C110.1 121.4 114.7 124.6 114 132.8C113.3 141 107.9 144.3 107.9 144.3" stroke="#010101" stroke-width="1.5" stroke-linecap="round" stroke-linejoin="round"/>
<path d="M104.9 186.2C104.9 186.2 109.5 189.4 108.8 197.6C108.1 205.8 102.7 209.1 102.7 209.1" stroke="#010101" stroke-width="1.5" stroke-linecap="round" stroke-linejoin="round"/>
<path d="M107.3 150.3C107.3 150.3 111.9 158.3 114.1 163C116.3 167.7 116.6 173.4 112.7 177.9C110.4 180.6 107.8 181.8 104.4 181.1" stroke="#010101" stroke-width="1.5" stroke-linecap="round" stroke-linejoin="round"/>
<path d="M115.6 171.8C116.1 170.2 115.4 168.5 114 167.6C112.6 166.6 111.6 165.1 111.4 163.3L109.8 154.7" stroke="#010101" stroke-width="1.5" stroke-linecap="round" stroke-linejoin="round"/>
<path fill-rule="evenodd" clip-rule="evenodd" d="M5.29999 41.1L-11.4 215.3C-11.4 215.3 -12.3 224.2 -7.50001 228.3C-2.70001 232.4 -0.500009 234.4 8.79999 235.3C18.1 236.2 80.4 242.2 80.4 242.2C80.4 242.2 89.3 243.1 93.4 238.3C97.5 233.5 99.4 232.1 100 226L116.7 51.8C116.7 51.8 117.6 43.9 113.5 39.7C109.4 35.5 105.5 32.6 100.5 32.1C95.5 31.6 22.9 24.8 22.9 24.8C22.9 24.8 14 25.2 10.5 30C6.99999 34.8 5.69999 36.2 5.19999 41.1H5.29999Z" fill="#FF8200"/>
<path d="M24.9 24.9L100.6 32.2C110.5 33.1 117.7 41.9001 116.8 51.8001L100.1 226C99.2 235.9 90.4 243.1 80.5 242.2L4.8 235C-5.1 234.1 -12.3 225.3 -11.4 215.4L5.3 41.1C6.2 31.2 15 24 24.9 24.9Z" stroke="#A05200" stroke-width="2" stroke-linecap="round" stroke-linejoin="round"/>
<path fill-rule="evenodd" clip-rule="evenodd" d="M9.29999 41.6L-7.40001 215.8C-7.40001 215.8 -8.30001 222 -4.80001 225.3C-1.3 228.6 2 230.5 3.6 230.8C5.2 231.1 79.9 238.2 79.9 238.2C79.9 238.2 86.7 238.8 89.9 235.3C93.1 231.8 94.7 229.6 95.1 226.7C95.5 223.8 112 51.4 112 51.4C112 51.4 112.7 47 109.2 41.6C105.7 36.2 97.8 36 97.8 36L22.6 28.9C22.6 28.9 17 29.3 14.3 32.2C11.6 35.1 9.99999 35.7 9.39999 41.5L9.29999 41.6Z" fill="#F4F4F4"/>
<path fill-rule="evenodd" clip-rule="evenodd" d="M24.5 29L99.2 36.2C106.9 36.9 112.5 43.8 111.8 51.5L95.1 225.7C94.4 233.4 87.5 239 79.8 238.3L5.09999 231.1C-2.60001 230.4 -8.20001 223.5 -7.50001 215.8L9.29999 41.6C9.99999 33.9 16.9 28.3 24.6 29H24.5ZM24.5 29L99.2 36.2C106.9 36.9 112.5 43.8 111.8 51.5L95.1 225.7C94.4 233.4 87.5 239 79.8 238.3L5.09999 231.1C-2.60001 230.4 -8.20001 223.5 -7.50001 215.8L9.29999 41.6C9.99999 33.9 16.9 28.3 24.6 29H24.5Z" fill="white" stroke="#A05200" stroke-width="1.5" stroke-linecap="round" stroke-linejoin="round"/>
<path fill-rule="evenodd" clip-rule="evenodd" d="M51.8 37.6L71.7 39.5C72.8 39.5 73.6 40.6 73.5 41.7C73.5 42.8 72.4 43.6 71.3 43.5L51.4 41.6C50.3 41.6 49.5 40.5 49.6 39.4C49.7 38.3 50.7 37.5 51.8 37.6Z" fill="#393939" stroke="#010101" stroke-width="1.5" stroke-linecap="round" stroke-linejoin="round"/>
<path fill-rule="evenodd" clip-rule="evenodd" d="M16.5 56L103 65C104.6 65.2 105.9 66.6 105.7 68.3L104.7 77.3C104.5 78.9 103.1 80.2 101.4 80L14.9 71C13.3 70.8 12 69.4 12.2 67.7L13.2 58.7C13.4 57.1 14.8 55.8 16.5 56Z" fill="#FF8200"/>
<path d="M54.248 70.5337L54.3264 69.7878L56.5641 70.023L56.4857 70.7689L54.248 70.5337ZM53.5805 69.7094L53.9725 65.98L54.7184 66.0584L54.3264 69.7878L53.5805 69.7094ZM56.5641 70.023L56.9561 66.2936L57.702 66.372L57.31 70.1014L56.5641 70.023ZM54.7184 66.0584L54.7968 65.3125L57.0345 65.5477L56.9561 66.2936L54.7184 66.0584ZM60.2152 71.1609L60.5288 68.1773L61.2747 68.2557L60.9611 71.2393L60.2152 71.1609ZM57.9775 70.9257L58.3695 67.1962L60.6072 67.4314L60.5288 68.1773L59.037 68.0205L58.7234 71.0041L57.9775 70.9257Z" fill="white"/>
<path fill-rule="evenodd" clip-rule="evenodd" d="M14.1 78.5L100.6 87.5C102.2 87.7 103.5 89.1 103.3 90.8L102.3 99.8C102.1 101.4 100.7 102.7 99 102.5L12.5 93.5C10.9 93.3 9.6 91.9 9.8 90.2L10.8 81.2C11 79.6 12.4 78.3 14.1 78.5Z" fill="#FF8200"/>
<path d="M44.9951 91.6119L45.1519 90.1201L45.8977 90.1985L45.741 91.6903L44.9951 91.6119ZM44.406 90.0417L44.5628 88.5499L45.3086 88.6283L45.1519 90.1201L44.406 90.0417ZM45.8977 90.1985L46.0545 88.7067L46.8004 88.7851L46.6436 90.2769L45.8977 90.1985ZM43.8169 88.4715L44.0521 86.2338L44.7979 86.3122L44.5628 88.5499L43.8169 88.4715ZM46.8004 88.7851L47.0356 86.5474L47.7815 86.6258L47.5463 88.8635L46.8004 88.7851ZM48.7245 92.0039L48.8029 91.258L50.2947 91.4148L50.2163 92.1606L48.7245 92.0039ZM48.057 91.1796L48.2922 88.9419L49.0381 89.0203L48.8029 91.258L48.057 91.1796ZM50.2947 91.4148L50.5299 89.1771L51.2758 89.2555L51.0406 91.4931L50.2947 91.4148ZM49.0381 89.0203L49.1165 88.2744L50.6083 88.4312L50.5299 89.1771L49.0381 89.0203ZM51.7081 92.3174L52.2569 87.0962L53.0028 87.1746L52.454 92.3958L51.7081 92.3174ZM53.1999 92.4742L53.2783 91.7283L57.0077 92.1203L56.9293 92.8662L53.1999 92.4742ZM57.7536 92.1987L58.0672 89.2152L58.8131 89.2935L58.4995 92.2771L57.7536 92.1987ZM58.4211 93.023L58.4995 92.2771L59.9913 92.4339L60.3049 89.4503L61.0508 89.5287L60.6588 93.2582L58.4211 93.023ZM63.7207 92.8259L63.9559 90.5882L64.7018 90.6666L64.4666 92.9043L63.7207 92.8259ZM61.2479 94.8284L61.7967 89.6071L64.0343 89.8423L63.9559 90.5882L62.4642 90.4314L62.229 92.6691L63.7207 92.8259L63.6423 93.5718L62.1506 93.415L61.9938 94.9068L61.2479 94.8284Z" fill="white"/>
<path fill-rule="evenodd" clip-rule="evenodd" d="M11.8 101L98.3 110C99.9 110.2 101.2 111.6 101 113.3L100 122.3C99.8 123.9 98.4 125.2 96.7 125L10.2 116C8.60001 115.8 7.30002 114.4 7.50002 112.7L8.50002 103.7C8.70002 102.1 10.1 100.8 11.8 101Z" fill="#FF8200"/>
<path d="M37.9939 113.612L38.1507 112.12L38.8966 112.199L38.7398 113.691L37.9939 113.612ZM37.4048 112.042L37.5616 110.55L38.3075 110.629L38.1507 112.12L37.4048 112.042ZM38.8966 112.199L39.0534 110.707L39.7993 110.785L39.6425 112.277L38.8966 112.199ZM36.8157 110.472L37.0509 108.234L37.7968 108.312L37.5616 110.55L36.8157 110.472ZM39.7993 110.785L40.0345 108.548L40.7804 108.626L40.5452 110.864L39.7993 110.785ZM41.7234 114.004L41.8018 113.258L43.2936 113.415L43.2152 114.161L41.7234 114.004ZM41.0559 113.18L41.2911 110.942L42.037 111.021L41.8018 113.258L41.0559 113.18ZM43.2936 113.415L43.5288 111.177L44.2747 111.256L44.0395 113.493L43.2936 113.415ZM42.037 111.021L42.1154 110.275L43.6072 110.431L43.5288 111.177L42.037 111.021ZM44.707 114.318L45.2557 109.096L46.0016 109.175L45.4528 114.396L44.707 114.318ZM46.1987 114.474L46.2771 113.729L50.0066 114.121L49.9282 114.866L46.1987 114.474ZM50.7525 114.199L50.9877 111.961L51.7336 112.04L51.4984 114.277L50.7525 114.199ZM51.42 115.023L51.4984 114.277L52.9902 114.434L53.2253 112.196L51.7336 112.04L51.812 111.294L53.3037 111.451L53.4605 109.959L54.2064 110.037L53.6577 115.258L51.42 115.023ZM55.1494 115.415L55.2278 114.669L56.7196 114.826L56.6412 115.572L55.1494 115.415ZM54.4819 114.591L54.7171 112.353L55.463 112.432L55.2278 114.669L54.4819 114.591ZM56.7196 114.826L56.9548 112.588L57.7007 112.667L57.4655 114.905L56.7196 114.826ZM55.463 112.432L55.5414 111.686L57.0332 111.843L56.9548 112.588L55.463 112.432ZM58.8789 115.807L58.9573 115.061L60.4491 115.218L60.3707 115.964L58.8789 115.807ZM61.1166 116.042L61.195 115.297L62.6867 115.453L62.6084 116.199L61.1166 116.042ZM58.2114 114.983L58.525 111.999L59.2709 112.078L58.9573 115.061L58.2114 114.983ZM60.4491 115.218L60.7627 112.235L61.5086 112.313L61.195 115.297L60.4491 115.218ZM62.6867 115.453L63.0003 112.47L63.7462 112.548L63.4326 115.532L62.6867 115.453ZM66.3378 116.591L66.6514 113.608L67.3973 113.686L67.0837 116.67L66.3378 116.591ZM64.1001 116.356L64.4921 112.627L66.7298 112.862L66.6514 113.608L65.1596 113.451L64.846 116.434L64.1001 116.356Z" fill="white"/>
<path fill-rule="evenodd" clip-rule="evenodd" d="M9.50003 122.4L96 131.4C97.6 131.6 98.9 133 98.7 134.7L97.7 143.7C97.5 145.3 96.1 146.6 94.4 146.4L7.90003 137.4C6.30003 137.2 5.00003 135.8 5.20003 134.1L6.20003 125.1C6.40003 123.5 7.80003 122.2 9.50003 122.4Z" fill="#FF8200"/>
<path d="M42.975 133.453L43.0534 132.707L43.7993 132.785L43.7209 133.531L42.975 133.453ZM42.3075 132.629L42.3859 131.883L43.1318 131.961L43.0534 132.707L42.3075 132.629ZM43.7993 132.785L43.8777 132.039L44.6236 132.118L44.5452 132.864L43.7993 132.785ZM40.5022 135.455L41.0509 130.234L41.7968 130.312L41.7184 131.058L42.4643 131.137L42.3859 131.883L41.64 131.804L41.248 135.534L40.5022 135.455ZM44.9775 135.926L45.3695 132.196L44.6236 132.118L44.702 131.372L45.4479 131.45L45.5263 130.704L46.2722 130.783L45.7234 136.004L44.9775 135.926ZM47.2152 136.161L47.2936 135.415L48.7854 135.572L48.707 136.318L47.2152 136.161ZM46.5477 135.337L46.7829 133.099L47.5288 133.177L47.4504 133.923L48.9421 134.08L49.0205 133.334L49.7664 133.413L49.6096 134.904L47.372 134.669L47.2936 135.415L46.5477 135.337ZM47.5288 133.177L47.6072 132.431L49.0989 132.588L49.0205 133.334L47.5288 133.177ZM52.4364 136.71L52.75 133.726L53.4959 133.804L53.1823 136.788L52.4364 136.71ZM50.1987 136.474L50.5907 132.745L52.8284 132.98L52.75 133.726L51.2582 133.569L50.9446 136.553L50.1987 136.474ZM54.0066 136.121L54.3202 133.137L55.0661 133.215L54.7525 136.199L54.0066 136.121ZM54.6741 136.945L54.7525 136.199L56.2443 136.356L56.5579 133.372L57.3037 133.451L56.9118 137.18L54.6741 136.945Z" fill="white"/>
<path fill-rule="evenodd" clip-rule="evenodd" d="M7.20001 145.8L93.7 154.8C95.3 155 96.6 156.4 96.4 158.1L95.4 167.1C95.2 168.7 93.8 170 92.1 169.8L5.60001 160.8C4.00001 160.6 2.70001 159.2 2.90001 157.5L3.90001 148.5C4.10001 146.9 5.50001 145.6 7.20001 145.8Z" fill="#FF8200"/>
<path d="M37.248 159.534L37.3264 158.788L39.5641 159.023L39.4857 159.769L37.248 159.534ZM39.5641 159.023L39.6425 158.277L40.3884 158.356L40.31 159.101L39.5641 159.023ZM36.5805 158.709L36.9725 154.98L37.7184 155.058L37.3264 158.788L36.5805 158.709ZM39.8777 156.039L39.9561 155.294L40.702 155.372L40.6236 156.118L39.8777 156.039ZM37.7184 155.058L37.7968 154.312L40.0345 154.548L39.9561 155.294L37.7184 155.058ZM43.2152 160.161L43.5288 157.177L44.2747 157.256L43.9611 160.239L43.2152 160.161ZM40.9775 159.926L41.5263 154.704L42.2722 154.783L42.1154 156.275L43.6072 156.431L43.5288 157.177L42.037 157.021L41.7234 160.004L40.9775 159.926ZM44.707 160.318L44.7854 159.572L48.5148 159.964L48.4364 160.71L44.707 160.318ZM49.2607 160.042L49.5743 157.059L50.3202 157.137L50.0066 160.121L49.2607 160.042ZM49.9282 160.866L50.0066 160.121L51.4984 160.277L51.812 157.294L52.5579 157.372L52.1659 161.102L49.9282 160.866ZM55.2278 160.669L55.463 158.432L56.2089 158.51L55.9737 160.748L55.2278 160.669ZM52.755 162.672L53.3037 157.451L55.5414 157.686L55.463 158.432L53.9712 158.275L53.7361 160.513L55.2278 160.669L55.1494 161.415L53.6577 161.258L53.5009 162.75L52.755 162.672Z" fill="white"/>
<path fill-rule="evenodd" clip-rule="evenodd" d="M4.80001 168.3L91.3 177.3C92.9 177.5 94.2 178.9 94 180.6L93 189.6C92.8 191.2 91.4 192.5 89.7 192.3L3.20001 183.3C1.60001 183.1 0.300015 181.7 0.500015 180L1.50002 171C1.70002 169.4 3.10001 168.1 4.80001 168.3Z" fill="#FF8200"/>
<path d="M28.248 180.534L28.3264 179.788L30.5641 180.023L30.4857 180.769L28.248 180.534ZM30.5641 180.023L30.6425 179.277L31.3884 179.356L31.31 180.101L30.5641 180.023ZM27.5805 179.709L27.9725 175.98L28.7184 176.058L28.3264 179.788L27.5805 179.709ZM30.8777 177.039L30.9561 176.294L31.702 176.372L31.6236 177.118L30.8777 177.039ZM28.7184 176.058L28.7968 175.312L31.0345 175.548L30.9561 176.294L28.7184 176.058ZM34.2152 181.161L34.5288 178.177L35.2747 178.256L34.9611 181.239L34.2152 181.161ZM31.9775 180.926L32.5263 175.704L33.2722 175.783L33.1154 177.275L34.6072 177.431L34.5288 178.177L33.037 178.021L32.7234 181.004L31.9775 180.926ZM35.707 181.318L35.7854 180.572L39.5148 180.964L39.4364 181.71L35.707 181.318ZM40.2607 181.042L40.4959 178.804L41.2418 178.883L41.0066 181.121L40.2607 181.042ZM40.9282 181.866L41.0066 181.121L42.4984 181.277L42.7336 179.04L41.2418 178.883L41.3202 178.137L42.812 178.294L42.9688 176.802L43.7146 176.88L43.1659 182.102L40.9282 181.866ZM44.6577 182.258L44.7361 181.513L46.2278 181.669L46.1494 182.415L44.6577 182.258ZM43.9902 181.434L44.2253 179.196L44.9712 179.275L44.7361 181.513L43.9902 181.434ZM46.2278 181.669L46.463 179.432L47.2089 179.51L46.9737 181.748L46.2278 181.669ZM44.9712 179.275L45.0496 178.529L46.5414 178.686L46.463 179.432L44.9712 179.275ZM48.3871 182.65L48.4655 181.905L49.9573 182.061L49.8789 182.807L48.3871 182.65ZM50.6248 182.886L50.7032 182.14L52.195 182.297L52.1166 183.042L50.6248 182.886ZM47.7196 181.826L48.0332 178.843L48.7791 178.921L48.4655 181.905L47.7196 181.826ZM49.9573 182.061L50.2709 179.078L51.0168 179.156L50.7032 182.14L49.9573 182.061ZM52.195 182.297L52.5086 179.313L53.2544 179.391L52.9409 182.375L52.195 182.297ZM55.846 183.434L56.1596 180.451L56.9055 180.529L56.5919 183.513L55.846 183.434ZM53.6084 183.199L54.0003 179.47L56.238 179.705L56.1596 180.451L54.6678 180.294L54.3542 183.278L53.6084 183.199Z" fill="white"/>
<path fill-rule="evenodd" clip-rule="evenodd" d="M-14.4 126.7C-11 124.4 -7.09999 123 -2.99999 122.8C3.50001 122.2 10 121.2 16.4 119.6C16.4 119.6 25.9 115.6 30.3 120.9C34.8 126.2 30.6 141.5 21.8 146.2C15.8 149.3 9.50001 151.7 3.00001 153.4C3.00001 153.4 -6.69999 155.4 -11.7 160" fill="white"/>
<path d="M-14.4 126.7C-11 124.4 -7.09999 123 -2.99999 122.8C3.50001 122.2 10 121.2 16.4 119.6C16.4 119.6 25.9 115.6 30.3 120.9C34.8 126.2 30.6 141.5 21.8 146.2C15.8 149.3 9.50001 151.7 3.00001 153.4C3.00001 153.4 -6.69999 155.4 -11.7 160" stroke="#010101" stroke-width="1.5" stroke-linecap="round" stroke-linejoin="round"/>
<path d="M23.5 118.3C25.1 119.4 26.3 120.9 27.1 122.7C28.2 125.1 24.8 125.5 24.8 125.5C18.5 126.9 12 127.3 5.60001 126.7C-0.399988 126.2 1.00001 122.2 1.00001 122.2" stroke="#010101" stroke-width="1.5" stroke-linecap="round" stroke-linejoin="round"/>
<path d="M5.70001 126.6C5.70001 126.6 8.50001 124.7 8.20001 121.8" stroke="#010101" stroke-width="1.5" stroke-linecap="round" stroke-linejoin="round"/>
</g>
<defs>
<linearGradient id="paint0_linear_2051_35809" x1="200.5" y1="157.7" x2="211" y2="115.5" gradientUnits="userSpaceOnUse">
<stop stop-color="#F98177"/>
<stop offset="0.5" stop-color="#F98177"/>
<stop offset="1" stop-color="#DEE7ED" stop-opacity="0"/>
</linearGradient>
</defs>
</svg>
