<svg width="268" height="216" viewBox="0 0 268 216" fill="none" xmlns="http://www.w3.org/2000/svg">
<mask id="mask0_2051_35501" style="mask-type:luminance" maskUnits="userSpaceOnUse" x="0" y="0" width="268" height="216">
<path d="M256 0H12C5.37258 0 0 5.37258 0 12V204C0 210.627 5.37258 216 12 216H256C262.627 216 268 210.627 268 204V12C268 5.37258 262.627 0 256 0Z" fill="white"/>
</mask>
<g mask="url(#mask0_2051_35501)">
<path d="M274 -5.59998H-6V221.4H274V-5.59998Z" fill="#5B5B5B"/>
<path d="M115.1 148.3L132.1 143.7L127 136.3L120.2 155.1L129.3 151.4L118.6 137.6" stroke="#24A7FF" stroke-width="2.5"/>
<path d="M148.6 133.8C148.6 133.8 155.5 141.5 152.1 153.3C148.6 165.7 139.1 169.1 139.1 169.1" stroke="#24A7FF" stroke-width="3" stroke-linecap="round"/>
<path d="M143.3 137.8C146.4 141.6 147.3 146.7 145.8 151.3C143.3 159.7 136.7 161.9 136.7 161.9" stroke="#24A7FF" stroke-width="3" stroke-linecap="round"/>
<path d="M137.3 141.9C139.1 144.1 139.7 147.1 138.8 149.9C138.1 152.7 136 154.9 133.4 156" stroke="#24A7FF" stroke-width="3" stroke-linecap="round"/>
<path d="M153.7 114.5L176.7 110.8M199.8 114.5L176.8 110.8" stroke="#111111" stroke-width="2" stroke-linecap="round" stroke-linejoin="round"/>
<path d="M176.3 110.8V96.1" stroke="#111111" stroke-width="2" stroke-linecap="round" stroke-linejoin="round"/>
<path fill-rule="evenodd" clip-rule="evenodd" d="M135.9 55.5H217.5C219.2 55.5 220.5 56.8 220.5 58.5V103.2C220.5 104.9 219.2 106.2 217.5 106.2H135.9C134.2 106.2 132.9 104.9 132.9 103.2V58.5C132.9 56.8 134.2 55.5 135.9 55.5Z" fill="#9E9E9E" stroke="#3C3B3C" stroke-width="2"/>
<path fill-rule="evenodd" clip-rule="evenodd" d="M139.3 60.1H214.1C215.2 60.1 216.1 61 216.1 62.1V99.6C216.1 100.7 215.2 101.6 214.1 101.6H139.3C138.2 101.6 137.3 100.7 137.3 99.6V62.1C137.3 61 138.2 60.1 139.3 60.1Z" fill="#212121" stroke="#111111" stroke-width="1.5"/>
<path d="M233 84.7L234 80.6" stroke="#111111" stroke-width="2" stroke-linecap="round" stroke-linejoin="round"/>
<path fill-rule="evenodd" clip-rule="evenodd" d="M229.3 66.4V79.5C229.3 81.2 230.6 82.5 232.3 82.5H279.7C281.4 82.5 282.7 81.2 282.7 79.5V66.4C282.7 64.7 281.4 63.4 279.7 63.4H232.3C230.6 63.4 229.3 64.7 229.3 66.4Z" fill="#9E9E9E" stroke="#3C3B3C" stroke-width="2" stroke-linecap="round" stroke-linejoin="round"/>
<path d="M273 66.5H266.9C266.3 66.5 265.9 66.9 265.9 67.5V70.5C265.9 71.1 266.3 71.5 266.9 71.5H273C273.6 71.5 274 71.1 274 70.5V67.5C274 66.9 273.6 66.5 273 66.5Z" stroke="#3C3B3C" stroke-width="1.5" stroke-linecap="round" stroke-linejoin="round"/>
<path d="M250.2 83.6C255.999 83.6 260.7 78.899 260.7 73.1C260.7 67.301 255.999 62.6 250.2 62.6C244.401 62.6 239.7 67.301 239.7 73.1C239.7 78.899 244.401 83.6 250.2 83.6Z" fill="#EAEAEA" stroke="#3C3B3C" stroke-width="2" stroke-linecap="round" stroke-linejoin="round"/>
<path d="M256.516 75.1325C257.684 71.6213 255.785 67.8282 252.273 66.6602C248.762 65.4922 244.969 67.3916 243.801 70.9028C242.633 74.4139 244.533 78.2071 248.044 79.3751C251.555 80.5431 255.348 78.6436 256.516 75.1325Z" fill="#212121" stroke="#111111" stroke-width="1.5" stroke-linecap="round" stroke-linejoin="round"/>
<path fill-rule="evenodd" clip-rule="evenodd" d="M274.4 10.5V43.4C274.4 45.6 272.6 47.4 270.4 47.4H159.5C157.3 47.4 155.5 45.6 155.5 43.4V10.5C155.5 8.3 157.3 6.5 159.5 6.5H270.4C272.6 6.5 274.4 8.3 274.4 10.5Z" fill="#9E9E9E" stroke="#3C3B3C" stroke-width="2" stroke-linecap="round" stroke-linejoin="round"/>
<path d="M274.4 10.5V25.1C274.4 27.3 272.6 29.1 270.4 29.1H159.5C157.3 29.1 155.5 27.3 155.5 25.1V10.5C155.5 8.3 157.3 6.5 159.5 6.5H270.4C272.6 6.5 274.4 8.3 274.4 10.5Z" stroke="#3C3B3C" stroke-width="2" stroke-linecap="round" stroke-linejoin="round"/>
<path fill-rule="evenodd" clip-rule="evenodd" d="M265.2 42.8V45.2C265.2 46.3 264.3 47.2 263.2 47.2H166.8C165.7 47.2 164.8 46.3 164.8 45.2V42.8C164.8 41.7 165.7 40.8 166.8 40.8H263.2C264.3 40.8 265.2 41.7 265.2 42.8Z" fill="#212121" stroke="#111111" stroke-width="2" stroke-linecap="round" stroke-linejoin="round"/>
<path fill-rule="evenodd" clip-rule="evenodd" d="M239.2 91H260.9C263.1 91 264.9 92.8 264.9 95V124C264.9 126.2 263.1 128 260.9 128H239.2C237 128 235.2 126.2 235.2 124V95C235.2 92.8 237 91 239.2 91Z" fill="#9E9E9E" stroke="#3C3B3C" stroke-width="2" stroke-linecap="round" stroke-linejoin="round"/>
<path d="M238.9 91.3H256.7C258.9 91.3 260.7 93.1 260.7 95.3V124.3C260.7 126.5 258.9 128.3 256.7 128.3H238.9C236.7 128.3 234.9 126.5 234.9 124.3V95.3C234.9 93.1 236.7 91.3 238.9 91.3Z" stroke="#3C3B3C" stroke-width="1.5" stroke-linecap="round" stroke-linejoin="round"/>
<path d="M247.8 124.2C252.274 124.2 255.9 120.574 255.9 116.1C255.9 111.626 252.274 108 247.8 108C243.326 108 239.7 111.626 239.7 116.1C239.7 120.574 243.326 124.2 247.8 124.2Z" fill="#212121" stroke="#3C3B3C" stroke-width="1.5" stroke-linecap="round" stroke-linejoin="round"/>
<path d="M247.8 102.7C249.291 102.7 250.5 101.491 250.5 100C250.5 98.5089 249.291 97.3 247.8 97.3C246.309 97.3 245.1 98.5089 245.1 100C245.1 101.491 246.309 102.7 247.8 102.7Z" fill="#7C7C7C" stroke="#3C3B3C" stroke-width="1.5" stroke-linecap="round" stroke-linejoin="round"/>
<path d="M248.1 118.8C249.481 118.8 250.6 117.681 250.6 116.3C250.6 114.919 249.481 113.8 248.1 113.8C246.719 113.8 245.6 114.919 245.6 116.3C245.6 117.681 246.719 118.8 248.1 118.8Z" fill="#7C7C7C" stroke="#111111" stroke-width="1.5" stroke-linecap="round" stroke-linejoin="round"/>
<path fill-rule="evenodd" clip-rule="evenodd" d="M211.1 118H255.9C257 118 257.9 118.9 257.9 120V132C257.9 133.1 257 134 255.9 134H211.1C210 134 209.1 133.1 209.1 132V120C209.1 118.9 210 118 211.1 118Z" fill="#9E9E9E" stroke="#3C3B3C" stroke-width="2" stroke-linecap="round" stroke-linejoin="round"/>
<path d="M210.7 117.8H251.2C252.3 117.8 253.2 118.7 253.2 119.8V132.1C253.2 133.2 252.3 134.1 251.2 134.1H210.7C209.6 134.1 208.7 133.2 208.7 132.1V119.8C208.7 118.7 209.6 117.8 210.7 117.8Z" stroke="#3C3B3C" stroke-width="1.5" stroke-linecap="round" stroke-linejoin="round"/>
<path fill-rule="evenodd" clip-rule="evenodd" d="M222.3 121.5H234.7C235.3 121.5 235.7 121.9 235.7 122.5V128.5C235.7 129.1 235.3 129.5 234.7 129.5H222.3C221.7 129.5 221.3 129.1 221.3 128.5V122.5C221.3 121.9 221.7 121.5 222.3 121.5Z" fill="#605F60" stroke="#111111" stroke-width="1.5" stroke-linecap="round" stroke-linejoin="round"/>
<path d="M245.5 130C247.985 130 250 127.985 250 125.5C250 123.015 247.985 121 245.5 121C243.015 121 241 123.015 241 125.5C241 127.985 243.015 130 245.5 130Z" fill="#605F60" stroke="#3C3B3C" stroke-width="1.5" stroke-linecap="round" stroke-linejoin="round"/>
<path fill-rule="evenodd" clip-rule="evenodd" d="M215.1 16.2001C215.1 16.2001 214.1 22.7001 213.3 23.5001C212.6 24.1001 206.6 25.3001 206.6 25.3001C206.6 25.3001 212.4 26.7001 213.3 27.1001C214.5 27.7001 215.1 33.8001 215.1 33.8001C215.1 33.8001 216.1 27.9001 216.9 27.1001C217.6 26.4001 223.6 25.3001 223.6 25.3001C223.6 25.3001 217.7 24.1001 216.9 23.5001C216.2 23.0001 215.1 16.2001 215.1 16.2001Z" fill="#FF817B" stroke="#FF0000" stroke-linecap="round" stroke-linejoin="round"/>
<path fill-rule="evenodd" clip-rule="evenodd" d="M176.4 94.9C176.4 94.9 175.4 101.1 174.7 101.8C174 102.5 168.4 103.5 168.4 103.5C168.4 103.5 173.9 104.8 174.7 105.2C175.8 105.7 176.4 111.5 176.4 111.5C176.4 111.5 177.4 105.9 178.1 105.2C178.8 104.5 184.4 103.5 184.4 103.5C184.4 103.5 178.9 102.3 178.1 101.8C177.4 101.3 176.4 94.9 176.4 94.9Z" fill="#FF817B" stroke="#EA0000" stroke-linecap="round" stroke-linejoin="round"/>
<path fill-rule="evenodd" clip-rule="evenodd" d="M233.5 59.3C233.5 59.3 232.5 65.5 231.8 66.2C231.2 66.8 225.5 67.9 225.5 67.9C225.5 67.9 231 69.2001 231.8 69.6001C232.9 70.1001 233.5 75.9 233.5 75.9C233.5 75.9 234.5 70.3001 235.2 69.6001C235.9 68.9001 241.6 67.9 241.5 67.9C241.4 67.9 235.9 66.7 235.2 66.2C234.5 65.7 233.5 59.3 233.5 59.3Z" fill="#FF817B" stroke="#EA0000" stroke-linecap="round" stroke-linejoin="round"/>
<path fill-rule="evenodd" clip-rule="evenodd" d="M214 117.1C214 117.1 213 123.2 212.3 123.9C211.6 124.6 206.1 125.6 206.1 125.6C206.1 125.6 211.5 126.9 212.3 127.3C213.4 127.8 214 133.5 214 133.5C214 133.5 215 128 215.7 127.3C216.4 126.6 221.9 125.6 221.9 125.6C221.9 125.6 216.4 124.4 215.7 123.9C215 123.4 214 117.1 214 117.1Z" fill="#FF817B" stroke="#EA0000" stroke-linecap="round" stroke-linejoin="round"/>
<mask id="mask1_2051_35501" style="mask-type:luminance" maskUnits="userSpaceOnUse" x="168" y="115" width="81" height="43">
<path d="M183.1 155.7L168.4 121.3C168.4 121.3 184.2 112.7 208.8 116.6C236.2 120.9 248.9 137.8 248.9 137.8L189.9 157.8L183.1 155.8V155.7Z" fill="white"/>
</mask>
<g mask="url(#mask1_2051_35501)">
<path fill-rule="evenodd" clip-rule="evenodd" d="M183.4 155.4L168.7 121C168.7 121 184.5 112.4 209.1 116.3C236.5 120.6 249.2 137.5 249.2 137.5L190.2 157.5L183.4 155.5V155.4Z" fill="url(#paint0_linear_2051_35501)"/>
<g opacity="0.7">
<path d="M172.1 135.3C172.1 135.3 177.6 134.2 178.9 138.1C180.1 141.9 187.5 142 190.9 140.1C194.3 138.2 196.8 137.4 200.9 138.1C205 138.8 207.9 143 207.9 143C207.9 143 209.8 148.4 217.9 147.1C226 145.8 226.8 147.1 228.7 150.1" stroke="#EA0000"/>
<path d="M235.6 142.7C233.4 139.1 232.1 137.7 222.9 139.5C213.7 141.3 211.7 134.7 211.7 134.7C211.7 134.7 209.2 130.3 204.6 129.6C200.3 128.9 195.9 129.8 192.2 132.1C188.2 134.5 180.7 135 179.2 130.4C177.7 125.8 172.1 125.3 172.1 125.3C169.1 125.3 166.2 126.6 164.2 128.9" stroke="#EA0000"/>
<path d="M168.5 119.9C170.4 117.6 173.4 116.4 176.4 116.5C176.4 116.5 182.1 117.1 183.5 121.8C184.9 126.5 192.5 126.2 196.5 123.9C200.2 121.7 204.6 120.9 208.9 121.7C213.6 122.5 216 127 216 127C216 127 217.9 133.6 227.2 132.1C236.5 130.6 240 132.3 242.2 135.9C244.4 139.5 244.4 143.8 244.7 146" stroke="#EA0000"/>
</g>
</g>
<path fill-rule="evenodd" clip-rule="evenodd" d="M135.3 183.9C134.2 184.5 133.5 185.7 133.5 187C133.5 189.1 134.3 201 134.3 201C134.3 201 134.3 202.3 137.5 203.8C140.7 205.3 156 211.8 156 211.8C156 211.8 158.5 213.3 163 212.4C167.5 211.5 179.9 209.5 179.9 209.5C181.8 209 183.6 207.9 184.7 206.2C187 203.3 207.5 164.9 207.5 164.9C208.2 163.7 208.4 162.2 208.3 160.9C208.2 158.3 207.8 151.9 207.8 151.9C207.8 151.9 207.8 150.1 204.6 148.1C201.4 146.1 197.5 143.5 195.1 142C192.7 140.5 192.9 141 191.8 140.8H189.9L176.3 142.6C175.1 143 174.1 143.8 173.4 144.8C171.9 146.6 135.4 183.9 135.4 183.9H135.3Z" fill="#DEE7ED"/>
<path fill-rule="evenodd" clip-rule="evenodd" d="M192.1 140.8L178.2 142.5C176.4 142.7 174.7 143.5 173.3 144.8C171.1 146.8 136.3 182.8 136.3 182.8C136.3 182.8 134 185 138.5 186.7C143 188.4 155.9 193.8 155.9 193.8C158.2 194.5 160.6 194.7 162.9 194.4C163.1 194.4 175.8 192.7 175.8 192.7C178.1 192.5 180.3 191.3 181.6 189.4C182.7 188.1 205.7 153.1 205.7 153.1C205.7 153.1 207.8 150.5 205.5 149.1C203.2 147.7 194.1 141.7 194.1 141.7C193.5 141.2 192.8 140.9 192.1 140.8Z" fill="white"/>
<path d="M173.3 144.8L134.8 184.5C133.7 186 133.5 186.4 133.6 188.3C133.6 189.8 134.3 201 134.3 201C134.5 202.2 134.8 202.9 136.5 203.9C138.5 205.2 156 211.9 156 211.9C157.9 212.7 159.9 212.8 162 212.6C165.9 212 181.9 209.5 181.9 209.5C184 209.1 184.8 207.8 185.7 206.3C187.4 203.7 207.5 165.1 207.5 165.1C208.3 163.4 208.4 161.8 208.2 160.1C208 157.3 207.8 152.1 207.8 152.1C207.8 152.1 207.8 149.5 205.6 148.2C203.4 146.9 194.6 141.9 194.6 141.9C194.6 141.9 192.3 140.4 189.1 141.1C185.9 141.8 177.2 142.7 177.2 142.7C175.7 143 174.3 143.7 173.3 144.9V144.8Z" stroke="#1C1C1C" stroke-width="2" stroke-linecap="round" stroke-linejoin="round"/>
<path fill-rule="evenodd" clip-rule="evenodd" d="M169.5 167.1C176.7 166.7 182.6 169.5 182.9 173.4C183.2 177.3 177.5 180.7 170.3 181.1C163.1 181.5 157.2 178.7 156.9 174.8C156.6 170.9 162.3 167.5 169.5 167.1Z" fill="#FF8200" stroke="#1E1E1E" stroke-width="1.5" stroke-linecap="round" stroke-linejoin="round"/>
<path d="M169.7 171.7C172.1 171.6 174 172.3 174.1 173.4C174.2 174.5 172.3 175.4 169.9 175.5C167.5 175.6 165.6 174.9 165.5 173.8C165.4 172.7 167.3 171.8 169.7 171.7Z" stroke="#1E1E1E" stroke-width="1.5" stroke-linecap="round" stroke-linejoin="round"/>
<path fill-rule="evenodd" clip-rule="evenodd" d="M153.8 181.1C156.3 181 158.4 181.9 158.5 183.3C158.6 184.7 156.6 185.8 154.1 186C151.6 186.2 149.5 185.2 149.4 183.8C149.3 182.4 151.3 181.2 153.8 181.1Z" fill="#FF8200" stroke="#1E1E1E" stroke-width="1.5" stroke-linecap="round" stroke-linejoin="round"/>
<path d="M164.5 163.5C164.8 163.7 164.9 164 164.7 164.3C164.5 164.6 164.2 164.7 163.9 164.5C163.7 164.5 163.6 164.2 163.6 164C163.7 163.6 164.1 163.4 164.5 163.5Z" stroke="#1E1E1E" stroke-linecap="round" stroke-linejoin="round"/>
<path fill-rule="evenodd" clip-rule="evenodd" d="M197.6 150.5L189.3 163C189.3 163 187.6 165.7 184.4 165.3C181.2 164.9 167.7 161.9 167.7 161.9C167.7 161.9 166.1 161.5 167.1 160.2C168.1 158.9 178.4 147.6 178.4 147.6C178.4 147.6 179.3 146.4 181.3 146.4C183.3 146.4 196.4 148.6 196.4 148.6C196.4 148.6 198.6 149.1 197.5 150.5H197.6Z" fill="#FF8200" stroke="#1E1E1E" stroke-width="1.5" stroke-linecap="round" stroke-linejoin="round"/>
<path fill-rule="evenodd" clip-rule="evenodd" d="M144.7 197L152.3 199.6C152.8 199.8 153.1 200.3 152.9 200.9C152.7 201.5 152.2 201.7 151.6 201.5L144 198.9C143.5 198.7 143.2 198.2 143.4 197.6C143.6 197 144.1 196.8 144.7 197Z" fill="#999999" stroke="#1E1E1E" stroke-linecap="round" stroke-linejoin="round"/>
<path fill-rule="evenodd" clip-rule="evenodd" d="M102.7 209C102.7 209 108.9 207.4 110 198C111.1 188.6 105 185 105 185L105.4 180.3C105.4 180.3 113.3 183.6 117 173C119.4 164.2 109.1 150.7 109.1 150.7L110 143C110 143 115 141.2 116 132C117 122.8 112 121 112 121L111.2 120.5L102.6 209H102.7Z" fill="white"/>
<path d="M111.6 120.9C111.6 120.9 116.2 124.1 115.5 132.3C114.8 140.5 109.4 143.8 109.4 143.8" stroke="#010101" stroke-width="1.5" stroke-linecap="round" stroke-linejoin="round"/>
<path d="M106.4 185.7C106.4 185.7 111 188.9 110.3 197.1C109.6 205.3 104.2 208.6 104.2 208.6" stroke="#010101" stroke-width="1.5" stroke-linecap="round" stroke-linejoin="round"/>
<path d="M108.8 149.8C108.8 149.8 113.4 157.8 115.6 162.5C117.8 167.2 118.1 172.9 114.2 177.4C111.9 180.1 109.3 181.3 105.9 180.6" stroke="#010101" stroke-width="1.5" stroke-linecap="round" stroke-linejoin="round"/>
<path d="M117.1 171.3C117.6 169.7 116.9 168 115.5 167.1C114.1 166.1 113.1 164.6 112.9 162.8L111.3 154.2" stroke="#010101" stroke-width="1.5" stroke-linecap="round" stroke-linejoin="round"/>
<path fill-rule="evenodd" clip-rule="evenodd" d="M6.79999 40.6L-9.90001 214.8C-9.90001 214.8 -10.8 223.7 -6.00001 227.8C-1.20001 231.9 0.999991 233.9 10.3 234.8C19.6 235.7 81.9 241.7 81.9 241.7C81.9 241.7 90.8 242.6 94.9 237.8C99.1 233 100.9 231.6 101.5 225.5C102.1 219.4 118.2 51.3 118.2 51.3C118.2 51.3 119.1 43.4 115 39.2C110.9 35 107 32.1 102 31.6C97 31.1 24.4 24.3 24.4 24.3C24.4 24.3 15.5 24.7 12 29.5C8.49999 34.3 7.19999 35.7 6.69999 40.6H6.79999Z" fill="#FF8200"/>
<path fill-rule="evenodd" clip-rule="evenodd" d="M26.4 24.4L102.1 31.7C112 32.6 119.2 41.4001 118.3 51.3001L101.6 225.5C100.7 235.4 91.9 242.6 82 241.7L6.3 234.5C-3.6 233.6 -10.8 224.8 -9.9 214.9L6.8 40.6C7.7 30.7 16.5 23.5 26.4 24.4ZM26.4 24.4L102.1 31.7C112 32.6 119.2 41.4001 118.3 51.3001L101.6 225.5C100.7 235.4 91.9 242.6 82 241.7L6.3 234.5C-3.6 233.6 -10.8 224.8 -9.9 214.9L6.8 40.6C7.7 30.7 16.5 23.5 26.4 24.4Z" fill="#FF8200" stroke="#A05200" stroke-width="2" stroke-linecap="round" stroke-linejoin="round"/>
<path fill-rule="evenodd" clip-rule="evenodd" d="M10.8 41.1L-5.90001 215.3C-5.90001 215.3 -6.80001 221.5 -3.30001 224.8C0.199994 228.2 3.49999 230 5.09999 230.3C6.7 230.6 81.4 237.7 81.4 237.7C81.4 237.7 88.2 238.3 91.4 234.8C94.6 231.3 96.2 229.1 96.6 226.2C97 223.3 113.5 50.9 113.5 50.9C113.5 50.9 114.2 46.5 110.7 41.1C107.2 35.7 99.3 35.5 99.3 35.5L24.1 28.4C24.1 28.4 18.5 28.8 15.8 31.7C13.1 34.6 11.5 35.2 10.9 41H10.8V41.1Z" fill="#191919"/>
<path d="M26 28.5L100.7 35.7C108.4 36.4 114 43.3 113.3 51L96.6 225.2C95.9 232.9 89 238.5 81.3 237.8L6.59999 230.6C-1.10001 229.9 -6.70001 223 -6.00001 215.3L10.8 41.1C11.5 33.4 18.4 27.8 26.1 28.5H26Z" stroke="#A05200" stroke-width="1.5" stroke-linecap="round" stroke-linejoin="round"/>
<path fill-rule="evenodd" clip-rule="evenodd" d="M53.3 37.1L73.2 39C74.3 39 75.1 40.1 75 41.2C74.9 42.3 73.9 43.1 72.8 43L52.9 41.1C51.8 41.1 51 40 51.1 38.9C51.2 37.8 52.2 37 53.3 37.1Z" fill="black" stroke="black" stroke-width="1.5" stroke-linecap="round" stroke-linejoin="round"/>
<path fill-rule="evenodd" clip-rule="evenodd" d="M17.4 55.8L104 64.1C105.6 64.3 106.9 65.7 106.7 67.4L105.8 76.4C105.6 78 104.2 79.3 102.5 79.1L15.9 70.8C14.3 70.6 13 69.2 13.2 67.5L14.1 58.5C14.3 56.9 15.7 55.6 17.4 55.8Z" fill="#FF8200"/>
<path d="M54.8392 70.0354L54.9111 69.2889L57.1507 69.5045L57.0789 70.2511L54.8392 70.0354ZM54.1646 69.217L54.524 65.4843L55.2705 65.5561L54.9111 69.2889L54.1646 69.217ZM57.1507 69.5045L57.5102 65.7718L58.2567 65.8437L57.8973 69.5764L57.1507 69.5045ZM55.2705 65.5561L55.3424 64.8096L57.582 65.0252L57.5102 65.7718L55.2705 65.5561ZM60.8116 70.6105L61.0991 67.6243L61.8457 67.6962L61.5581 70.6824L60.8116 70.6105ZM58.572 70.3948L58.9314 66.6621L61.171 66.8778L61.0991 67.6243L59.606 67.4805L59.3185 70.4667L58.572 70.3948Z" fill="white"/>
<path fill-rule="evenodd" clip-rule="evenodd" d="M15.2 78.3L101.8 86.6C103.4 86.8 104.7 88.2 104.5 89.9L103.6 98.9C103.4 100.5 102 101.8 100.3 101.6L13.7 93.3C12.1 93.1 10.8 91.7 11 90L11.9 81C12.1 79.4 13.5 78.1 15.2 78.3Z" fill="#FF8200"/>
<path d="M45.5858 92.1073L45.7295 90.6142L46.4761 90.6861L46.3323 92.1792L45.5858 92.1073ZM44.983 90.5423L45.1268 89.0492L45.8733 89.1211L45.7295 90.6142L44.983 90.5423ZM46.4761 90.6861L46.6198 89.193L47.3664 89.2649L47.2226 90.758L46.4761 90.6861ZM44.3802 88.9773L44.5959 86.7377L45.3424 86.8096L45.1268 89.0492L44.3802 88.9773ZM47.3664 89.2649L47.582 87.0252L48.3286 87.0971L48.1129 89.3368L47.3664 89.2649ZM49.3185 92.4667L49.3904 91.7202L50.8835 91.8639L50.8116 92.6105L49.3185 92.4667ZM48.6438 91.6483L48.8595 89.4087L49.606 89.4805L49.3904 91.7202L48.6438 91.6483ZM50.8835 91.8639L51.0991 89.6243L51.8457 89.6962L51.63 91.9358L50.8835 91.8639ZM49.606 89.4805L49.6779 88.734L51.171 88.8778L51.0991 89.6243L49.606 89.4805ZM52.3047 92.7543L52.8079 87.5284L53.5544 87.6003L53.0512 92.8261L52.3047 92.7543ZM53.7978 92.898L53.8697 92.1515L57.6024 92.5109L57.5305 93.2575L53.7978 92.898ZM58.349 92.5828L58.6365 89.5966L59.383 89.6685L59.0955 92.6547L58.349 92.5828ZM59.0236 93.4012L59.0955 92.6547L60.5886 92.7984L60.8761 89.8123L61.6227 89.8841L61.2633 93.6169L59.0236 93.4012ZM64.3213 93.1579L64.537 90.9182L65.2835 90.9901L65.0679 93.2297L64.3213 93.1579ZM61.866 95.1819L62.3692 89.956L64.6089 90.1717L64.537 90.9182L63.0439 90.7745L62.8282 93.0141L64.3213 93.1579L64.2494 93.9044L62.7563 93.7606L62.6126 95.2537L61.866 95.1819Z" fill="white"/>
<path fill-rule="evenodd" clip-rule="evenodd" d="M13.1 100.8L99.7 109.1C101.3 109.3 102.6 110.7 102.4 112.4L101.5 121.4C101.3 123 99.9 124.3 98.2 124.1L11.6 115.8C10 115.6 8.70001 114.2 8.90001 112.5L9.80001 103.5C10 101.9 11.4 100.6 13.1 100.8Z" fill="#FF8200"/>
<path d="M38.5858 114.107L38.7295 112.614L39.4761 112.686L39.3323 114.179L38.5858 114.107ZM37.983 112.542L38.1268 111.049L38.8733 111.121L38.7295 112.614L37.983 112.542ZM39.4761 112.686L39.6198 111.193L40.3664 111.265L40.2226 112.758L39.4761 112.686ZM37.3802 110.977L37.5959 108.738L38.3424 108.81L38.1268 111.049L37.3802 110.977ZM40.3664 111.265L40.582 109.025L41.3286 109.097L41.1129 111.337L40.3664 111.265ZM42.3185 114.467L42.3904 113.72L43.8835 113.864L43.8116 114.61L42.3185 114.467ZM41.6438 113.648L41.8595 111.409L42.606 111.481L42.3904 113.72L41.6438 113.648ZM43.8835 113.864L44.0991 111.624L44.8457 111.696L44.63 113.936L43.8835 113.864ZM42.606 111.481L42.6779 110.734L44.171 110.878L44.0991 111.624L42.606 111.481ZM45.3047 114.754L45.8079 109.528L46.5544 109.6L46.0512 114.826L45.3047 114.754ZM46.7978 114.898L46.8697 114.151L50.6024 114.511L50.5305 115.257L46.7978 114.898ZM51.349 114.583L51.5646 112.343L52.3112 112.415L52.0955 114.655L51.349 114.583ZM52.0236 115.401L52.0955 114.655L53.5886 114.798L53.8042 112.559L52.3112 112.415L52.383 111.668L53.8761 111.812L54.0199 110.319L54.7664 110.391L54.2633 115.617L52.0236 115.401ZM55.7563 115.761L55.8282 115.014L57.3213 115.158L57.2494 115.904L55.7563 115.761ZM55.0817 114.942L55.2973 112.703L56.0439 112.774L55.8282 115.014L55.0817 114.942ZM57.3213 115.158L57.537 112.918L58.2835 112.99L58.0679 115.23L57.3213 115.158ZM56.0439 112.774L56.1158 112.028L57.6089 112.172L57.537 112.918L56.0439 112.774ZM59.4891 116.12L59.561 115.374L61.0541 115.517L60.9822 116.264L59.4891 116.12ZM61.7287 116.336L61.8006 115.589L63.2937 115.733L63.2218 116.479L61.7287 116.336ZM58.8144 115.302L59.102 112.315L59.8485 112.387L59.561 115.374L58.8144 115.302ZM61.0541 115.517L61.3416 112.531L62.0881 112.603L61.8006 115.589L61.0541 115.517ZM63.2937 115.733L63.5812 112.747L64.3278 112.819L64.0403 115.805L63.2937 115.733ZM66.9546 116.839L67.2421 113.853L67.9886 113.925L67.7011 116.911L66.9546 116.839ZM64.7149 116.623L65.0743 112.891L67.314 113.106L67.2421 113.853L65.749 113.709L65.4615 116.695L64.7149 116.623Z" fill="white"/>
<path fill-rule="evenodd" clip-rule="evenodd" d="M11 122.3L97.6 130.6C99.2 130.8 100.5 132.2 100.3 133.9L99.4 142.9C99.2 144.5 97.8 145.8 96.1 145.6L9.5 137.3C7.9 137.1 6.6 135.7 6.8 134L7.7 125C7.9 123.4 9.3 122.1 11 122.3Z" fill="#FF8200"/>
<path d="M45.548 132.94L45.6198 132.193L46.3664 132.265L46.2945 133.011L45.548 132.94ZM44.8733 132.121L44.9452 131.375L45.6917 131.446L45.6198 132.193L44.8733 132.121ZM46.3664 132.265L46.4383 131.518L47.1848 131.59L47.1129 132.337L46.3664 132.265ZM43.0927 134.964L43.5959 129.738L44.3424 129.81L44.2705 130.556L45.0171 130.628L44.9452 131.375L44.1986 131.303L43.8392 135.035L43.0927 134.964ZM47.572 135.395L47.9314 131.662L47.1848 131.59L47.2567 130.844L48.0033 130.916L48.0751 130.169L48.8217 130.241L48.3185 135.467L47.572 135.395ZM49.8116 135.61L49.8835 134.864L51.3766 135.008L51.3047 135.754L49.8116 135.61ZM49.1369 134.792L49.3526 132.552L50.0991 132.624L50.0272 133.371L51.5203 133.515L51.5922 132.768L52.3388 132.84L52.195 134.333L49.9554 134.117L49.8835 134.864L49.1369 134.792ZM50.0991 132.624L50.171 131.878L51.6641 132.022L51.5922 132.768L50.0991 132.624ZM55.0374 136.114L55.325 133.127L56.0715 133.199L55.784 136.186L55.0374 136.114ZM52.7978 135.898L53.1572 132.165L55.3968 132.381L55.325 133.127L53.8319 132.984L53.5443 135.97L52.7978 135.898ZM56.6024 135.511L56.8899 132.525L57.6365 132.597L57.349 135.583L56.6024 135.511ZM57.2771 136.329L57.349 135.583L58.842 135.727L59.1296 132.74L59.8761 132.812L59.5167 136.545L57.2771 136.329Z" fill="white"/>
<path fill-rule="evenodd" clip-rule="evenodd" d="M8.80002 145.7L95.4 154C97 154.2 98.3 155.6 98.1 157.3L97.2 166.3C97 167.9 95.6 169.2 93.9 169L7.30002 160.7C5.70002 160.5 4.40002 159.1 4.60002 157.4L5.50002 148.4C5.70002 146.8 7.10002 145.5 8.80002 145.7Z" fill="#FF8200"/>
<path d="M39.8392 158.035L39.9111 157.289L42.1507 157.505L42.0789 158.251L39.8392 158.035ZM42.1507 157.505L42.2226 156.758L42.9692 156.83L42.8973 157.576L42.1507 157.505ZM39.1646 157.217L39.524 153.484L40.2705 153.556L39.9111 157.289L39.1646 157.217ZM42.4383 154.518L42.5102 153.772L43.2567 153.844L43.1848 154.59L42.4383 154.518ZM40.2705 153.556L40.3424 152.81L42.582 153.025L42.5102 153.772L40.2705 153.556ZM45.8116 158.61L46.0991 155.624L46.8457 155.696L46.5581 158.682L45.8116 158.61ZM43.572 158.395L44.0751 153.169L44.8217 153.241L44.6779 154.734L46.171 154.878L46.0991 155.624L44.606 155.481L44.3185 158.467L43.572 158.395ZM47.3047 158.754L47.3766 158.008L51.1093 158.367L51.0374 159.114L47.3047 158.754ZM51.8559 158.439L52.1434 155.453L52.8899 155.525L52.6024 158.511L51.8559 158.439ZM52.5305 159.257L52.6024 158.511L54.0955 158.655L54.383 155.668L55.1296 155.74L54.7702 159.473L52.5305 159.257ZM57.8282 159.014L58.0439 156.774L58.7904 156.846L58.5748 159.086L57.8282 159.014ZM55.3729 161.038L55.8761 155.812L58.1158 156.028L58.0439 156.774L56.5508 156.631L56.3351 158.87L57.8282 159.014L57.7563 159.761L56.2633 159.617L56.1195 161.11L55.3729 161.038Z" fill="white"/>
<path fill-rule="evenodd" clip-rule="evenodd" d="M6.60001 168.2L93.2 176.5C94.8 176.7 96.1 178.1 95.9 179.8L95 188.8C94.8 190.4 93.4 191.7 91.7 191.5L5.10001 183.2C3.50001 183 2.20001 181.6 2.40001 179.9L3.30001 170.9C3.50001 169.3 4.90001 168 6.60001 168.2Z" fill="#FF8200"/>
<path d="M32.8392 181.035L32.9111 180.289L35.1507 180.505L35.0789 181.251L32.8392 181.035ZM35.1507 180.505L35.2226 179.758L35.9692 179.83L35.8973 180.576L35.1507 180.505ZM32.1646 180.217L32.524 176.484L33.2705 176.556L32.9111 180.289L32.1646 180.217ZM35.4383 177.518L35.5102 176.772L36.2567 176.844L36.1848 177.59L35.4383 177.518ZM33.2705 176.556L33.3424 175.81L35.582 176.025L35.5102 176.772L33.2705 176.556ZM38.8116 181.61L39.0991 178.624L39.8457 178.696L39.5581 181.682L38.8116 181.61ZM36.572 181.395L37.0751 176.169L37.8217 176.241L37.6779 177.734L39.171 177.878L39.0991 178.624L37.606 178.481L37.3185 181.467L36.572 181.395ZM40.3047 181.754L40.3766 181.008L44.1093 181.367L44.0374 182.114L40.3047 181.754ZM44.8559 181.439L45.0715 179.199L45.8181 179.271L45.6024 181.511L44.8559 181.439ZM45.5305 182.257L45.6024 181.511L47.0955 181.655L47.3112 179.415L45.8181 179.271L45.8899 178.525L47.383 178.668L47.5268 177.175L48.2734 177.247L47.7702 182.473L45.5305 182.257ZM49.2633 182.617L49.3351 181.87L50.8282 182.014L50.7563 182.761L49.2633 182.617ZM48.5886 181.798L48.8042 179.559L49.5508 179.631L49.3351 181.87L48.5886 181.798ZM50.8282 182.014L51.0439 179.774L51.7904 179.846L51.5748 182.086L50.8282 182.014ZM49.5508 179.631L49.6227 178.884L51.1158 179.028L51.0439 179.774L49.5508 179.631ZM52.996 182.976L53.0679 182.23L54.561 182.374L54.4891 183.12L52.996 182.976ZM55.2356 183.192L55.3075 182.445L56.8006 182.589L56.7287 183.336L55.2356 183.192ZM52.3213 182.158L52.6089 179.172L53.3554 179.244L53.0679 182.23L52.3213 182.158ZM54.561 182.374L54.8485 179.387L55.5951 179.459L55.3075 182.445L54.561 182.374ZM56.8006 182.589L57.0881 179.603L57.8347 179.675L57.5472 182.661L56.8006 182.589ZM60.4615 183.695L60.749 180.709L61.4955 180.781L61.208 183.767L60.4615 183.695ZM58.2218 183.479L58.5812 179.747L60.8209 179.962L60.749 180.709L59.2559 180.565L58.9684 183.551L58.2218 183.479Z" fill="white"/>
<path fill-rule="evenodd" clip-rule="evenodd" d="M-12.9 126.2C-9.49999 123.9 -5.59999 122.5 -1.49999 122.3C5.00001 121.7 11.5 120.7 17.9 119.1C17.9 119.1 27.4 115.1 31.8 120.4C36.3 125.7 32.1 141 23.3 145.7C17.3 148.8 11 151.2 4.50001 152.9C4.50001 152.9 -5.19999 154.9 -10.2 159.5" fill="white"/>
<path d="M-12.9 126.2C-9.49999 123.9 -5.59999 122.5 -1.49999 122.3C5.00001 121.7 11.5 120.7 17.9 119.1C17.9 119.1 27.4 115.1 31.8 120.4C36.3 125.7 32.1 141 23.3 145.7C17.3 148.8 11 151.2 4.50001 152.9C4.50001 152.9 -5.19999 154.9 -10.2 159.5" stroke="#010101" stroke-width="1.5" stroke-linecap="round" stroke-linejoin="round"/>
<path d="M25 117.8C26.6 118.9 27.8 120.4 28.6 122.2C29.7 124.6 26.3 125 26.3 125C20 126.4 13.5 126.8 7.10001 126.2C1.10001 125.7 2.50001 121.7 2.50001 121.7" stroke="#010101" stroke-width="1.5" stroke-linecap="round" stroke-linejoin="round"/>
<path d="M7.20001 126.1C7.20001 126.1 10 124.2 9.70001 121.3" stroke="#010101" stroke-width="1.5" stroke-linecap="round" stroke-linejoin="round"/>
</g>
<defs>
<linearGradient id="paint0_linear_2051_35501" x1="202.1" y1="157" x2="212.6" y2="114.8" gradientUnits="userSpaceOnUse">
<stop stop-color="#F98177"/>
<stop offset="0.5" stop-color="#F98177"/>
<stop offset="1" stop-color="#DEE7ED" stop-opacity="0"/>
</linearGradient>
</defs>
</svg>
