<svg width="318" height="77" viewBox="0 0 318 77" fill="none" xmlns="http://www.w3.org/2000/svg">
<path d="M44.0957 10.1562C45.6729 10.1562 46.5518 8.84277 46.5518 6.47949C46.5518 4.11133 45.6729 2.79785 44.0957 2.79785C42.5186 2.79785 41.6396 4.11133 41.6396 6.47949C41.6396 8.84277 42.5186 10.1562 44.0957 10.1562ZM42.6406 6.47949C42.6406 4.63867 43.1436 3.66699 44.0957 3.66699C44.7305 3.66699 45.165 4.10156 45.3848 4.93652L42.6602 7.08496C42.6455 6.89453 42.6406 6.69434 42.6406 6.47949ZM44.0957 9.29199C43.4609 9.29199 43.0264 8.85742 42.8066 8.02734L45.5264 5.86426C45.541 6.05957 45.5459 6.25977 45.5459 6.47949C45.5459 8.31543 45.043 9.29199 44.0957 9.29199ZM49.9773 10.1562C51.5545 10.1562 52.4334 8.84277 52.4334 6.47949C52.4334 4.11133 51.5545 2.79785 49.9773 2.79785C48.4002 2.79785 47.5213 4.11133 47.5213 6.47949C47.5213 8.84277 48.4002 10.1562 49.9773 10.1562ZM48.5223 6.47949C48.5223 4.63867 49.0252 3.66699 49.9773 3.66699C50.6121 3.66699 51.0467 4.10156 51.2664 4.93652L48.5418 7.08496C48.5271 6.89453 48.5223 6.69434 48.5223 6.47949ZM49.9773 9.29199C49.3426 9.29199 48.908 8.85742 48.6883 8.02734L51.408 5.86426C51.4227 6.05957 51.4275 6.25977 51.4275 6.47949C51.4275 8.31543 50.9246 9.29199 49.9773 9.29199ZM61.7406 10.1562C63.3178 10.1562 64.1967 8.84277 64.1967 6.47949C64.1967 4.11133 63.3178 2.79785 61.7406 2.79785C60.1635 2.79785 59.2846 4.11133 59.2846 6.47949C59.2846 8.84277 60.1635 10.1562 61.7406 10.1562ZM60.2855 6.47949C60.2855 4.63867 60.7885 3.66699 61.7406 3.66699C62.3754 3.66699 62.81 4.10156 63.0297 4.93652L60.3051 7.08496C60.2904 6.89453 60.2855 6.69434 60.2855 6.47949ZM61.7406 9.29199C61.1059 9.29199 60.6713 8.85742 60.4516 8.02734L63.1713 5.86426C63.1859 6.05957 63.1908 6.25977 63.1908 6.47949C63.1908 8.31543 62.6879 9.29199 61.7406 9.29199ZM67.6223 10.1562C69.1994 10.1562 70.0783 8.84277 70.0783 6.47949C70.0783 4.11133 69.1994 2.79785 67.6223 2.79785C66.0451 2.79785 65.1662 4.11133 65.1662 6.47949C65.1662 8.84277 66.0451 10.1562 67.6223 10.1562ZM66.1672 6.47949C66.1672 4.63867 66.6701 3.66699 67.6223 3.66699C68.257 3.66699 68.6916 4.10156 68.9113 4.93652L66.1867 7.08496C66.1721 6.89453 66.1672 6.69434 66.1672 6.47949ZM67.6223 9.29199C66.9875 9.29199 66.5529 8.85742 66.3332 8.02734L69.0529 5.86426C69.0676 6.05957 69.0725 6.25977 69.0725 6.47949C69.0725 8.31543 68.5695 9.29199 67.6223 9.29199ZM79.3855 10.1562C80.9627 10.1562 81.8416 8.84277 81.8416 6.47949C81.8416 4.11133 80.9627 2.79785 79.3855 2.79785C77.8084 2.79785 76.9295 4.11133 76.9295 6.47949C76.9295 8.84277 77.8084 10.1562 79.3855 10.1562ZM77.9305 6.47949C77.9305 4.63867 78.4334 3.66699 79.3855 3.66699C80.0203 3.66699 80.4549 4.10156 80.6746 4.93652L77.95 7.08496C77.9354 6.89453 77.9305 6.69434 77.9305 6.47949ZM79.3855 9.29199C78.7508 9.29199 78.3162 8.85742 78.0965 8.02734L80.8162 5.86426C80.8309 6.05957 80.8357 6.25977 80.8357 6.47949C80.8357 8.31543 80.3328 9.29199 79.3855 9.29199ZM85.2672 10.1562C86.8443 10.1562 87.7232 8.84277 87.7232 6.47949C87.7232 4.11133 86.8443 2.79785 85.2672 2.79785C83.69 2.79785 82.8111 4.11133 82.8111 6.47949C82.8111 8.84277 83.69 10.1562 85.2672 10.1562ZM83.8121 6.47949C83.8121 4.63867 84.315 3.66699 85.2672 3.66699C85.902 3.66699 86.3365 4.10156 86.5563 4.93652L83.8316 7.08496C83.817 6.89453 83.8121 6.69434 83.8121 6.47949ZM85.2672 9.29199C84.6324 9.29199 84.1979 8.85742 83.9781 8.02734L86.6979 5.86426C86.7125 6.05957 86.7174 6.25977 86.7174 6.47949C86.7174 8.31543 86.2145 9.29199 85.2672 9.29199ZM272.571 10.1562C274.149 10.1562 275.028 8.84277 275.028 6.47949C275.028 4.11133 274.149 2.79785 272.571 2.79785C270.994 2.79785 270.115 4.11133 270.115 6.47949C270.115 8.84277 270.994 10.1562 272.571 10.1562ZM271.116 6.47949C271.116 4.63867 271.619 3.66699 272.571 3.66699C273.206 3.66699 273.641 4.10156 273.861 4.93652L271.136 7.08496C271.121 6.89453 271.116 6.69434 271.116 6.47949ZM272.571 9.29199C271.937 9.29199 271.502 8.85742 271.282 8.02734L274.002 5.86426C274.017 6.05957 274.022 6.25977 274.022 6.47949C274.022 8.31543 273.519 9.29199 272.571 9.29199ZM278.663 10.1562C280.24 10.1562 281.119 8.84277 281.119 6.47949C281.119 4.11133 280.24 2.79785 278.663 2.79785C277.086 2.79785 276.207 4.11133 276.207 6.47949C276.207 8.84277 277.086 10.1562 278.663 10.1562ZM277.208 6.47949C277.208 4.63867 277.711 3.66699 278.663 3.66699C279.298 3.66699 279.732 4.10156 279.952 4.93652L277.228 7.08496C277.213 6.89453 277.208 6.69434 277.208 6.47949ZM278.663 9.29199C278.028 9.29199 277.594 8.85742 277.374 8.02734L280.094 5.86426C280.108 6.05957 280.113 6.25977 280.113 6.47949C280.113 8.31543 279.61 9.29199 278.663 9.29199ZM290.436 10.1562C292.014 10.1562 292.892 8.84277 292.892 6.47949C292.892 4.11133 292.014 2.79785 290.436 2.79785C288.859 2.79785 287.98 4.11133 287.98 6.47949C287.98 8.84277 288.859 10.1562 290.436 10.1562ZM288.981 6.47949C288.981 4.63867 289.484 3.66699 290.436 3.66699C291.071 3.66699 291.506 4.10156 291.725 4.93652L289.001 7.08496C288.986 6.89453 288.981 6.69434 288.981 6.47949ZM290.436 9.29199C289.802 9.29199 289.367 8.85742 289.147 8.02734L291.867 5.86426C291.882 6.05957 291.887 6.25977 291.887 6.47949C291.887 8.31543 291.384 9.29199 290.436 9.29199ZM296.528 10.1562C298.105 10.1562 298.984 8.84277 298.984 6.47949C298.984 4.11133 298.105 2.79785 296.528 2.79785C294.951 2.79785 294.072 4.11133 294.072 6.47949C294.072 8.84277 294.951 10.1562 296.528 10.1562ZM295.073 6.47949C295.073 4.63867 295.576 3.66699 296.528 3.66699C297.163 3.66699 297.597 4.10156 297.817 4.93652L295.092 7.08496C295.078 6.89453 295.073 6.69434 295.073 6.47949ZM296.528 9.29199C295.893 9.29199 295.459 8.85742 295.239 8.02734L297.959 5.86426C297.973 6.05957 297.978 6.25977 297.978 6.47949C297.978 8.31543 297.475 9.29199 296.528 9.29199ZM308.101 10.1562C309.678 10.1562 310.557 8.84277 310.557 6.47949C310.557 4.11133 309.678 2.79785 308.101 2.79785C306.524 2.79785 305.645 4.11133 305.645 6.47949C305.645 8.84277 306.524 10.1562 308.101 10.1562ZM306.646 6.47949C306.646 4.63867 307.149 3.66699 308.101 3.66699C308.736 3.66699 309.171 4.10156 309.39 4.93652L306.666 7.08496C306.651 6.89453 306.646 6.69434 306.646 6.47949ZM308.101 9.29199C307.467 9.29199 307.032 8.85742 306.812 8.02734L309.532 5.86426C309.547 6.05957 309.552 6.25977 309.552 6.47949C309.552 8.31543 309.049 9.29199 308.101 9.29199ZM314.193 10.1562C315.77 10.1562 316.649 8.84277 316.649 6.47949C316.649 4.11133 315.77 2.79785 314.193 2.79785C312.616 2.79785 311.737 4.11133 311.737 6.47949C311.737 8.84277 312.616 10.1562 314.193 10.1562ZM312.738 6.47949C312.738 4.63867 313.241 3.66699 314.193 3.66699C314.828 3.66699 315.262 4.10156 315.482 4.93652L312.757 7.08496C312.743 6.89453 312.738 6.69434 312.738 6.47949ZM314.193 9.29199C313.558 9.29199 313.124 8.85742 312.904 8.02734L315.624 5.86426C315.638 6.05957 315.643 6.25977 315.643 6.47949C315.643 8.31543 315.14 9.29199 314.193 9.29199Z" fill="#A33DF3" fill-opacity="0.7"/>
<path d="M97.6256 8.8916C96.8346 8.8916 96.3951 8.36914 96.3951 7.42188V2.9541H95.0035V7.50488C95.0035 9.16504 95.9752 10.1416 97.6256 10.1416C99.276 10.1416 100.248 9.16504 100.248 7.50488V2.9541H98.8561V7.42188C98.8561 8.36914 98.4166 8.8916 97.6256 8.8916ZM106.761 10V8.80859H105.301V4.14551H106.761V2.9541H102.454V4.14551H103.914V8.80859H102.454V10H106.761ZM109.089 2.9541V10H111.35C113.337 10 114.353 8.78906 114.353 6.42578C114.353 4.14551 113.322 2.9541 111.35 2.9541H109.089ZM110.476 4.15039H111.159C112.36 4.15039 112.937 4.89746 112.937 6.4502C112.937 8.07129 112.38 8.80371 111.159 8.80371H110.476V4.15039ZM125.877 7.4707H127.904V6.25977H125.877V4.22363H124.622V6.25977H122.596V7.4707H124.622V9.50684H125.877V7.4707ZM137.741 7.67578L137.565 4.86328H137.668L138.747 8.34473H139.684L140.763 4.86328H140.866L140.69 7.67578V10H141.857V2.9541H140.407L139.259 6.9873H139.176L138.019 2.9541H136.574V10H137.741V7.67578ZM147.633 10H149.132L147.017 2.9541H145.377L143.262 10H144.649L145.098 8.27637H147.193L147.633 10ZM146.119 4.33594H146.182L146.915 7.19238H145.377L146.119 4.33594ZM151.909 10V5.28809H151.992L154.419 10H155.649V2.9541H154.448V7.63672H154.365L151.943 2.9541H150.708V10H151.909ZM160.16 8.8916C159.369 8.8916 158.93 8.36914 158.93 7.42188V2.9541H157.538V7.50488C157.538 9.16504 158.51 10.1416 160.16 10.1416C161.811 10.1416 162.782 9.16504 162.782 7.50488V2.9541H161.391V7.42188C161.391 8.36914 160.951 8.8916 160.16 8.8916ZM166.493 10V7.20703H169.276V6.05957H166.493V4.15039H169.554V2.9541H165.101V10H166.493ZM175.559 10H177.058L174.944 2.9541H173.303L171.189 10H172.576L173.025 8.27637H175.12L175.559 10ZM174.046 4.33594H174.109L174.841 7.19238H173.303L174.046 4.33594ZM181.262 8.89648C180.387 8.89648 179.938 8.31543 179.938 7.19727V5.75684C179.938 4.64355 180.387 4.05762 181.242 4.05762C181.96 4.05762 182.438 4.60449 182.453 5.44922H183.859C183.849 3.78418 182.887 2.8125 181.266 2.8125C179.523 2.8125 178.498 3.90137 178.498 5.75684V7.19727C178.498 9.05273 179.523 10.1416 181.266 10.1416C182.868 10.1416 183.864 9.16504 183.864 7.56836H182.458C182.443 8.38867 181.989 8.89648 181.262 8.89648ZM188.78 10V4.15039H190.797V2.9541H185.377V4.15039H187.394V10H188.78ZM195.069 8.8916C194.278 8.8916 193.838 8.36914 193.838 7.42188V2.9541H192.446V7.50488C192.446 9.16504 193.418 10.1416 195.069 10.1416C196.719 10.1416 197.691 9.16504 197.691 7.50488V2.9541H196.299V7.42188C196.299 8.36914 195.86 8.8916 195.069 8.8916ZM202.045 7.40723L203.286 10H204.848L203.437 7.17773C204.204 6.875 204.687 6.11328 204.687 5.2002C204.687 3.80371 203.749 2.9541 202.216 2.9541H199.658V10H201.039V7.40723H202.045ZM201.039 4.08691H202.036C202.817 4.08691 203.276 4.50684 203.276 5.20508C203.276 5.91797 202.807 6.34277 202.021 6.34277H201.039V4.08691ZM211.185 10V8.80859H209.725V4.14551H211.185V2.9541H206.879V4.14551H208.338V8.80859H206.879V10H211.185ZM214.744 10V5.28809H214.827L217.254 10H218.484V2.9541H217.283V7.63672H217.2L214.778 2.9541H213.543V10H214.744ZM224.299 7.69043C224.299 8.44727 223.85 8.89648 223.107 8.89648C222.233 8.89648 221.784 8.3252 221.784 7.19727V5.75684C221.784 4.63379 222.229 4.05762 223.088 4.05762C223.776 4.05762 224.26 4.54102 224.294 5.2832H225.705C225.666 3.74512 224.685 2.8125 223.127 2.8125C221.389 2.8125 220.373 3.8916 220.373 5.75684V7.19727C220.373 9.0625 221.389 10.1416 223.127 10.1416C224.685 10.1416 225.71 9.18945 225.71 7.71973V6.25488H222.985V7.2998H224.299V7.69043ZM234.458 2.9541V10H236.719C238.706 10 239.722 8.78906 239.722 6.42578C239.722 4.14551 238.692 2.9541 236.719 2.9541H234.458ZM235.845 4.15039H236.529C237.73 4.15039 238.306 4.89746 238.306 6.4502C238.306 8.07129 237.749 8.80371 236.529 8.80371H235.845V4.15039ZM245.376 10H246.875L244.76 2.9541H243.12L241.005 10H242.392L242.841 8.27637H244.936L245.376 10ZM243.862 4.33594H243.925L244.658 7.19238H243.12L243.862 4.33594ZM251.615 10V4.15039H253.632V2.9541H248.212V4.15039H250.228V10H251.615ZM259.339 10H260.838L258.724 2.9541H257.083L254.969 10H256.355L256.805 8.27637H258.899L259.339 10ZM257.825 4.33594H257.889L258.621 7.19238H257.083L257.825 4.33594Z" fill="#A33DF3"/>
<path opacity="0.8" d="M44.0957 31.1562C45.6729 31.1562 46.5518 29.8428 46.5518 27.4795C46.5518 25.1113 45.6729 23.7979 44.0957 23.7979C42.5186 23.7979 41.6396 25.1113 41.6396 27.4795C41.6396 29.8428 42.5186 31.1562 44.0957 31.1562ZM42.6406 27.4795C42.6406 25.6387 43.1436 24.667 44.0957 24.667C44.7305 24.667 45.165 25.1016 45.3848 25.9365L42.6602 28.085C42.6455 27.8945 42.6406 27.6943 42.6406 27.4795ZM44.0957 30.292C43.4609 30.292 43.0264 29.8574 42.8066 29.0273L45.5264 26.8643C45.541 27.0596 45.5459 27.2598 45.5459 27.4795C45.5459 29.3154 45.043 30.292 44.0957 30.292ZM49.9773 31.1562C51.5545 31.1562 52.4334 29.8428 52.4334 27.4795C52.4334 25.1113 51.5545 23.7979 49.9773 23.7979C48.4002 23.7979 47.5213 25.1113 47.5213 27.4795C47.5213 29.8428 48.4002 31.1562 49.9773 31.1562ZM48.5223 27.4795C48.5223 25.6387 49.0252 24.667 49.9773 24.667C50.6121 24.667 51.0467 25.1016 51.2664 25.9365L48.5418 28.085C48.5271 27.8945 48.5223 27.6943 48.5223 27.4795ZM49.9773 30.292C49.3426 30.292 48.908 29.8574 48.6883 29.0273L51.408 26.8643C51.4227 27.0596 51.4275 27.2598 51.4275 27.4795C51.4275 29.3154 50.9246 30.292 49.9773 30.292ZM61.7406 31.1562C63.3178 31.1562 64.1967 29.8428 64.1967 27.4795C64.1967 25.1113 63.3178 23.7979 61.7406 23.7979C60.1635 23.7979 59.2846 25.1113 59.2846 27.4795C59.2846 29.8428 60.1635 31.1562 61.7406 31.1562ZM60.2855 27.4795C60.2855 25.6387 60.7885 24.667 61.7406 24.667C62.3754 24.667 62.81 25.1016 63.0297 25.9365L60.3051 28.085C60.2904 27.8945 60.2855 27.6943 60.2855 27.4795ZM61.7406 30.292C61.1059 30.292 60.6713 29.8574 60.4516 29.0273L63.1713 26.8643C63.1859 27.0596 63.1908 27.2598 63.1908 27.4795C63.1908 29.3154 62.6879 30.292 61.7406 30.292ZM67.6223 31.1562C69.1994 31.1562 70.0783 29.8428 70.0783 27.4795C70.0783 25.1113 69.1994 23.7979 67.6223 23.7979C66.0451 23.7979 65.1662 25.1113 65.1662 27.4795C65.1662 29.8428 66.0451 31.1562 67.6223 31.1562ZM66.1672 27.4795C66.1672 25.6387 66.6701 24.667 67.6223 24.667C68.257 24.667 68.6916 25.1016 68.9113 25.9365L66.1867 28.085C66.1721 27.8945 66.1672 27.6943 66.1672 27.4795ZM67.6223 30.292C66.9875 30.292 66.5529 29.8574 66.3332 29.0273L69.0529 26.8643C69.0676 27.0596 69.0725 27.2598 69.0725 27.4795C69.0725 29.3154 68.5695 30.292 67.6223 30.292ZM79.3855 31.1562C80.9627 31.1562 81.8416 29.8428 81.8416 27.4795C81.8416 25.1113 80.9627 23.7979 79.3855 23.7979C77.8084 23.7979 76.9295 25.1113 76.9295 27.4795C76.9295 29.8428 77.8084 31.1562 79.3855 31.1562ZM77.9305 27.4795C77.9305 25.6387 78.4334 24.667 79.3855 24.667C80.0203 24.667 80.4549 25.1016 80.6746 25.9365L77.95 28.085C77.9354 27.8945 77.9305 27.6943 77.9305 27.4795ZM79.3855 30.292C78.7508 30.292 78.3162 29.8574 78.0965 29.0273L80.8162 26.8643C80.8309 27.0596 80.8357 27.2598 80.8357 27.4795C80.8357 29.3154 80.3328 30.292 79.3855 30.292ZM85.2672 31.1562C86.8443 31.1562 87.7232 29.8428 87.7232 27.4795C87.7232 25.1113 86.8443 23.7979 85.2672 23.7979C83.69 23.7979 82.8111 25.1113 82.8111 27.4795C82.8111 29.8428 83.69 31.1562 85.2672 31.1562ZM83.8121 27.4795C83.8121 25.6387 84.315 24.667 85.2672 24.667C85.902 24.667 86.3365 25.1016 86.5563 25.9365L83.8316 28.085C83.817 27.8945 83.8121 27.6943 83.8121 27.4795ZM85.2672 30.292C84.6324 30.292 84.1979 29.8574 83.9781 29.0273L86.6979 26.8643C86.7125 27.0596 86.7174 27.2598 86.7174 27.4795C86.7174 29.3154 86.2145 30.292 85.2672 30.292ZM97.0305 31.1562C98.6076 31.1562 99.4865 29.8428 99.4865 27.4795C99.4865 25.1113 98.6076 23.7979 97.0305 23.7979C95.4533 23.7979 94.5744 25.1113 94.5744 27.4795C94.5744 29.8428 95.4533 31.1562 97.0305 31.1562ZM95.5754 27.4795C95.5754 25.6387 96.0783 24.667 97.0305 24.667C97.6652 24.667 98.0998 25.1016 98.3195 25.9365L95.5949 28.085C95.5803 27.8945 95.5754 27.6943 95.5754 27.4795ZM97.0305 30.292C96.3957 30.292 95.9611 29.8574 95.7414 29.0273L98.4611 26.8643C98.4758 27.0596 98.4807 27.2598 98.4807 27.4795C98.4807 29.3154 97.9777 30.292 97.0305 30.292ZM102.912 31.1562C104.489 31.1562 105.368 29.8428 105.368 27.4795C105.368 25.1113 104.489 23.7979 102.912 23.7979C101.335 23.7979 100.456 25.1113 100.456 27.4795C100.456 29.8428 101.335 31.1562 102.912 31.1562ZM101.457 27.4795C101.457 25.6387 101.96 24.667 102.912 24.667C103.547 24.667 103.981 25.1016 104.201 25.9365L101.477 28.085C101.462 27.8945 101.457 27.6943 101.457 27.4795ZM102.912 30.292C102.277 30.292 101.843 29.8574 101.623 29.0273L104.343 26.8643C104.357 27.0596 104.362 27.2598 104.362 27.4795C104.362 29.3154 103.859 30.292 102.912 30.292ZM114.675 31.1562C116.253 31.1562 117.131 29.8428 117.131 27.4795C117.131 25.1113 116.253 23.7979 114.675 23.7979C113.098 23.7979 112.219 25.1113 112.219 27.4795C112.219 29.8428 113.098 31.1562 114.675 31.1562ZM113.22 27.4795C113.22 25.6387 113.723 24.667 114.675 24.667C115.31 24.667 115.745 25.1016 115.964 25.9365L113.24 28.085C113.225 27.8945 113.22 27.6943 113.22 27.4795ZM114.675 30.292C114.041 30.292 113.606 29.8574 113.386 29.0273L116.106 26.8643C116.121 27.0596 116.126 27.2598 116.126 27.4795C116.126 29.3154 115.623 30.292 114.675 30.292ZM120.557 31.1562C122.134 31.1562 123.013 29.8428 123.013 27.4795C123.013 25.1113 122.134 23.7979 120.557 23.7979C118.98 23.7979 118.101 25.1113 118.101 27.4795C118.101 29.8428 118.98 31.1562 120.557 31.1562ZM119.102 27.4795C119.102 25.6387 119.605 24.667 120.557 24.667C121.192 24.667 121.626 25.1016 121.846 25.9365L119.121 28.085C119.107 27.8945 119.102 27.6943 119.102 27.4795ZM120.557 30.292C119.922 30.292 119.488 29.8574 119.268 29.0273L121.988 26.8643C122.002 27.0596 122.007 27.2598 122.007 27.4795C122.007 29.3154 121.504 30.292 120.557 30.292ZM132.32 31.1562C133.897 31.1562 134.776 29.8428 134.776 27.4795C134.776 25.1113 133.897 23.7979 132.32 23.7979C130.743 23.7979 129.864 25.1113 129.864 27.4795C129.864 29.8428 130.743 31.1562 132.32 31.1562ZM130.865 27.4795C130.865 25.6387 131.368 24.667 132.32 24.667C132.955 24.667 133.39 25.1016 133.609 25.9365L130.885 28.085C130.87 27.8945 130.865 27.6943 130.865 27.4795ZM132.32 30.292C131.686 30.292 131.251 29.8574 131.031 29.0273L133.751 26.8643C133.766 27.0596 133.771 27.2598 133.771 27.4795C133.771 29.3154 133.268 30.292 132.32 30.292ZM138.202 31.1562C139.779 31.1562 140.658 29.8428 140.658 27.4795C140.658 25.1113 139.779 23.7979 138.202 23.7979C136.625 23.7979 135.746 25.1113 135.746 27.4795C135.746 29.8428 136.625 31.1562 138.202 31.1562ZM136.747 27.4795C136.747 25.6387 137.25 24.667 138.202 24.667C138.837 24.667 139.271 25.1016 139.491 25.9365L136.766 28.085C136.752 27.8945 136.747 27.6943 136.747 27.4795ZM138.202 30.292C137.567 30.292 137.133 29.8574 136.913 29.0273L139.633 26.8643C139.647 27.0596 139.652 27.2598 139.652 27.4795C139.652 29.3154 139.149 30.292 138.202 30.292ZM149.965 31.1562C151.542 31.1562 152.421 29.8428 152.421 27.4795C152.421 25.1113 151.542 23.7979 149.965 23.7979C148.388 23.7979 147.509 25.1113 147.509 27.4795C147.509 29.8428 148.388 31.1562 149.965 31.1562ZM148.51 27.4795C148.51 25.6387 149.013 24.667 149.965 24.667C150.6 24.667 151.035 25.1016 151.254 25.9365L148.53 28.085C148.515 27.8945 148.51 27.6943 148.51 27.4795ZM149.965 30.292C149.33 30.292 148.896 29.8574 148.676 29.0273L151.396 26.8643C151.411 27.0596 151.415 27.2598 151.415 27.4795C151.415 29.3154 150.912 30.292 149.965 30.292ZM155.847 31.1562C157.424 31.1562 158.303 29.8428 158.303 27.4795C158.303 25.1113 157.424 23.7979 155.847 23.7979C154.27 23.7979 153.391 25.1113 153.391 27.4795C153.391 29.8428 154.27 31.1562 155.847 31.1562ZM154.392 27.4795C154.392 25.6387 154.895 24.667 155.847 24.667C156.482 24.667 156.916 25.1016 157.136 25.9365L154.411 28.085C154.397 27.8945 154.392 27.6943 154.392 27.4795ZM155.847 30.292C155.212 30.292 154.778 29.8574 154.558 29.0273L157.278 26.8643C157.292 27.0596 157.297 27.2598 157.297 27.4795C157.297 29.3154 156.794 30.292 155.847 30.292ZM167.61 31.1562C169.187 31.1562 170.066 29.8428 170.066 27.4795C170.066 25.1113 169.187 23.7979 167.61 23.7979C166.033 23.7979 165.154 25.1113 165.154 27.4795C165.154 29.8428 166.033 31.1562 167.61 31.1562ZM166.155 27.4795C166.155 25.6387 166.658 24.667 167.61 24.667C168.245 24.667 168.679 25.1016 168.899 25.9365L166.175 28.085C166.16 27.8945 166.155 27.6943 166.155 27.4795ZM167.61 30.292C166.975 30.292 166.541 29.8574 166.321 29.0273L169.041 26.8643C169.055 27.0596 169.06 27.2598 169.06 27.4795C169.06 29.3154 168.557 30.292 167.61 30.292ZM173.492 31.1562C175.069 31.1562 175.948 29.8428 175.948 27.4795C175.948 25.1113 175.069 23.7979 173.492 23.7979C171.915 23.7979 171.036 25.1113 171.036 27.4795C171.036 29.8428 171.915 31.1562 173.492 31.1562ZM172.037 27.4795C172.037 25.6387 172.54 24.667 173.492 24.667C174.127 24.667 174.561 25.1016 174.781 25.9365L172.056 28.085C172.042 27.8945 172.037 27.6943 172.037 27.4795ZM173.492 30.292C172.857 30.292 172.422 29.8574 172.203 29.0273L174.922 26.8643C174.937 27.0596 174.942 27.2598 174.942 27.4795C174.942 29.3154 174.439 30.292 173.492 30.292ZM185.255 31.1562C186.832 31.1562 187.711 29.8428 187.711 27.4795C187.711 25.1113 186.832 23.7979 185.255 23.7979C183.678 23.7979 182.799 25.1113 182.799 27.4795C182.799 29.8428 183.678 31.1562 185.255 31.1562ZM183.8 27.4795C183.8 25.6387 184.303 24.667 185.255 24.667C185.89 24.667 186.324 25.1016 186.544 25.9365L183.82 28.085C183.805 27.8945 183.8 27.6943 183.8 27.4795ZM185.255 30.292C184.62 30.292 184.186 29.8574 183.966 29.0273L186.686 26.8643C186.7 27.0596 186.705 27.2598 186.705 27.4795C186.705 29.3154 186.202 30.292 185.255 30.292ZM191.137 31.1562C192.714 31.1562 193.593 29.8428 193.593 27.4795C193.593 25.1113 192.714 23.7979 191.137 23.7979C189.56 23.7979 188.681 25.1113 188.681 27.4795C188.681 29.8428 189.56 31.1562 191.137 31.1562ZM189.682 27.4795C189.682 25.6387 190.185 24.667 191.137 24.667C191.771 24.667 192.206 25.1016 192.426 25.9365L189.701 28.085C189.687 27.8945 189.682 27.6943 189.682 27.4795ZM191.137 30.292C190.502 30.292 190.067 29.8574 189.848 29.0273L192.567 26.8643C192.582 27.0596 192.587 27.2598 192.587 27.4795C192.587 29.3154 192.084 30.292 191.137 30.292ZM202.9 31.1562C204.477 31.1562 205.356 29.8428 205.356 27.4795C205.356 25.1113 204.477 23.7979 202.9 23.7979C201.323 23.7979 200.444 25.1113 200.444 27.4795C200.444 29.8428 201.323 31.1562 202.9 31.1562ZM201.445 27.4795C201.445 25.6387 201.948 24.667 202.9 24.667C203.535 24.667 203.969 25.1016 204.189 25.9365L201.464 28.085C201.45 27.8945 201.445 27.6943 201.445 27.4795ZM202.9 30.292C202.265 30.292 201.831 29.8574 201.611 29.0273L204.331 26.8643C204.345 27.0596 204.35 27.2598 204.35 27.4795C204.35 29.3154 203.847 30.292 202.9 30.292ZM208.782 31.1562C210.359 31.1562 211.238 29.8428 211.238 27.4795C211.238 25.1113 210.359 23.7979 208.782 23.7979C207.204 23.7979 206.326 25.1113 206.326 27.4795C206.326 29.8428 207.204 31.1562 208.782 31.1562ZM207.327 27.4795C207.327 25.6387 207.829 24.667 208.782 24.667C209.416 24.667 209.851 25.1016 210.071 25.9365L207.346 28.085C207.331 27.8945 207.327 27.6943 207.327 27.4795ZM208.782 30.292C208.147 30.292 207.712 29.8574 207.493 29.0273L210.212 26.8643C210.227 27.0596 210.232 27.2598 210.232 27.4795C210.232 29.3154 209.729 30.292 208.782 30.292ZM220.545 31.1562C222.122 31.1562 223.001 29.8428 223.001 27.4795C223.001 25.1113 222.122 23.7979 220.545 23.7979C218.968 23.7979 218.089 25.1113 218.089 27.4795C218.089 29.8428 218.968 31.1562 220.545 31.1562ZM219.09 27.4795C219.09 25.6387 219.593 24.667 220.545 24.667C221.18 24.667 221.614 25.1016 221.834 25.9365L219.109 28.085C219.095 27.8945 219.09 27.6943 219.09 27.4795ZM220.545 30.292C219.91 30.292 219.476 29.8574 219.256 29.0273L221.976 26.8643C221.99 27.0596 221.995 27.2598 221.995 27.4795C221.995 29.3154 221.492 30.292 220.545 30.292ZM226.427 31.1562C228.004 31.1562 228.883 29.8428 228.883 27.4795C228.883 25.1113 228.004 23.7979 226.427 23.7979C224.849 23.7979 223.971 25.1113 223.971 27.4795C223.971 29.8428 224.849 31.1562 226.427 31.1562ZM224.971 27.4795C224.971 25.6387 225.474 24.667 226.427 24.667C227.061 24.667 227.496 25.1016 227.716 25.9365L224.991 28.085C224.976 27.8945 224.971 27.6943 224.971 27.4795ZM226.427 30.292C225.792 30.292 225.357 29.8574 225.137 29.0273L227.857 26.8643C227.872 27.0596 227.877 27.2598 227.877 27.4795C227.877 29.3154 227.374 30.292 226.427 30.292ZM238.19 31.1562C239.767 31.1562 240.646 29.8428 240.646 27.4795C240.646 25.1113 239.767 23.7979 238.19 23.7979C236.613 23.7979 235.734 25.1113 235.734 27.4795C235.734 29.8428 236.613 31.1562 238.19 31.1562ZM236.735 27.4795C236.735 25.6387 237.238 24.667 238.19 24.667C238.825 24.667 239.259 25.1016 239.479 25.9365L236.754 28.085C236.74 27.8945 236.735 27.6943 236.735 27.4795ZM238.19 30.292C237.555 30.292 237.121 29.8574 236.901 29.0273L239.621 26.8643C239.635 27.0596 239.64 27.2598 239.64 27.4795C239.64 29.3154 239.137 30.292 238.19 30.292ZM244.071 31.1562C245.649 31.1562 246.528 29.8428 246.528 27.4795C246.528 25.1113 245.649 23.7979 244.071 23.7979C242.494 23.7979 241.615 25.1113 241.615 27.4795C241.615 29.8428 242.494 31.1562 244.071 31.1562ZM242.616 27.4795C242.616 25.6387 243.119 24.667 244.071 24.667C244.706 24.667 245.141 25.1016 245.361 25.9365L242.636 28.085C242.621 27.8945 242.616 27.6943 242.616 27.4795ZM244.071 30.292C243.437 30.292 243.002 29.8574 242.782 29.0273L245.502 26.8643C245.517 27.0596 245.522 27.2598 245.522 27.4795C245.522 29.3154 245.019 30.292 244.071 30.292ZM255.835 31.1562C257.412 31.1562 258.291 29.8428 258.291 27.4795C258.291 25.1113 257.412 23.7979 255.835 23.7979C254.258 23.7979 253.379 25.1113 253.379 27.4795C253.379 29.8428 254.258 31.1562 255.835 31.1562ZM254.38 27.4795C254.38 25.6387 254.883 24.667 255.835 24.667C256.47 24.667 256.904 25.1016 257.124 25.9365L254.399 28.085C254.385 27.8945 254.38 27.6943 254.38 27.4795ZM255.835 30.292C255.2 30.292 254.765 29.8574 254.546 29.0273L257.265 26.8643C257.28 27.0596 257.285 27.2598 257.285 27.4795C257.285 29.3154 256.782 30.292 255.835 30.292ZM261.716 31.1562C263.294 31.1562 264.172 29.8428 264.172 27.4795C264.172 25.1113 263.294 23.7979 261.716 23.7979C260.139 23.7979 259.26 25.1113 259.26 27.4795C259.26 29.8428 260.139 31.1562 261.716 31.1562ZM260.261 27.4795C260.261 25.6387 260.764 24.667 261.716 24.667C262.351 24.667 262.786 25.1016 263.005 25.9365L260.281 28.085C260.266 27.8945 260.261 27.6943 260.261 27.4795ZM261.716 30.292C261.082 30.292 260.647 29.8574 260.427 29.0273L263.147 26.8643C263.162 27.0596 263.167 27.2598 263.167 27.4795C263.167 29.3154 262.664 30.292 261.716 30.292ZM273.48 31.1562C275.057 31.1562 275.936 29.8428 275.936 27.4795C275.936 25.1113 275.057 23.7979 273.48 23.7979C271.903 23.7979 271.024 25.1113 271.024 27.4795C271.024 29.8428 271.903 31.1562 273.48 31.1562ZM272.025 27.4795C272.025 25.6387 272.528 24.667 273.48 24.667C274.114 24.667 274.549 25.1016 274.769 25.9365L272.044 28.085C272.029 27.8945 272.025 27.6943 272.025 27.4795ZM273.48 30.292C272.845 30.292 272.41 29.8574 272.191 29.0273L274.91 26.8643C274.925 27.0596 274.93 27.2598 274.93 27.4795C274.93 29.3154 274.427 30.292 273.48 30.292ZM279.361 31.1562C280.938 31.1562 281.817 29.8428 281.817 27.4795C281.817 25.1113 280.938 23.7979 279.361 23.7979C277.784 23.7979 276.905 25.1113 276.905 27.4795C276.905 29.8428 277.784 31.1562 279.361 31.1562ZM277.906 27.4795C277.906 25.6387 278.409 24.667 279.361 24.667C279.996 24.667 280.431 25.1016 280.65 25.9365L277.926 28.085C277.911 27.8945 277.906 27.6943 277.906 27.4795ZM279.361 30.292C278.727 30.292 278.292 29.8574 278.072 29.0273L280.792 26.8643C280.807 27.0596 280.812 27.2598 280.812 27.4795C280.812 29.3154 280.309 30.292 279.361 30.292ZM291.125 31.1562C292.702 31.1562 293.581 29.8428 293.581 27.4795C293.581 25.1113 292.702 23.7979 291.125 23.7979C289.547 23.7979 288.669 25.1113 288.669 27.4795C288.669 29.8428 289.547 31.1562 291.125 31.1562ZM289.67 27.4795C289.67 25.6387 290.172 24.667 291.125 24.667C291.759 24.667 292.194 25.1016 292.414 25.9365L289.689 28.085C289.674 27.8945 289.67 27.6943 289.67 27.4795ZM291.125 30.292C290.49 30.292 290.055 29.8574 289.836 29.0273L292.555 26.8643C292.57 27.0596 292.575 27.2598 292.575 27.4795C292.575 29.3154 292.072 30.292 291.125 30.292ZM297.006 31.1562C298.583 31.1562 299.462 29.8428 299.462 27.4795C299.462 25.1113 298.583 23.7979 297.006 23.7979C295.429 23.7979 294.55 25.1113 294.55 27.4795C294.55 29.8428 295.429 31.1562 297.006 31.1562ZM295.551 27.4795C295.551 25.6387 296.054 24.667 297.006 24.667C297.641 24.667 298.076 25.1016 298.295 25.9365L295.571 28.085C295.556 27.8945 295.551 27.6943 295.551 27.4795ZM297.006 30.292C296.371 30.292 295.937 29.8574 295.717 29.0273L298.437 26.8643C298.452 27.0596 298.456 27.2598 298.456 27.4795C298.456 29.3154 297.954 30.292 297.006 30.292ZM308.77 31.1562C310.347 31.1562 311.226 29.8428 311.226 27.4795C311.226 25.1113 310.347 23.7979 308.77 23.7979C307.192 23.7979 306.313 25.1113 306.313 27.4795C306.313 29.8428 307.192 31.1562 308.77 31.1562ZM307.314 27.4795C307.314 25.6387 307.817 24.667 308.77 24.667C309.404 24.667 309.839 25.1016 310.059 25.9365L307.334 28.085C307.319 27.8945 307.314 27.6943 307.314 27.4795ZM308.77 30.292C308.135 30.292 307.7 29.8574 307.48 29.0273L310.2 26.8643C310.215 27.0596 310.22 27.2598 310.22 27.4795C310.22 29.3154 309.717 30.292 308.77 30.292ZM314.651 31.1562C316.228 31.1562 317.107 29.8428 317.107 27.4795C317.107 25.1113 316.228 23.7979 314.651 23.7979C313.074 23.7979 312.195 25.1113 312.195 27.4795C312.195 29.8428 313.074 31.1562 314.651 31.1562ZM313.196 27.4795C313.196 25.6387 313.699 24.667 314.651 24.667C315.286 24.667 315.721 25.1016 315.94 25.9365L313.216 28.085C313.201 27.8945 313.196 27.6943 313.196 27.4795ZM314.651 30.292C314.016 30.292 313.582 29.8574 313.362 29.0273L316.082 26.8643C316.096 27.0596 316.101 27.2598 316.101 27.4795C316.101 29.3154 315.598 30.292 314.651 30.292Z" fill="#E9E9E9"/>
<path opacity="0.8" d="M44.0957 52.1562C45.6729 52.1562 46.5518 50.8428 46.5518 48.4795C46.5518 46.1113 45.6729 44.7979 44.0957 44.7979C42.5186 44.7979 41.6396 46.1113 41.6396 48.4795C41.6396 50.8428 42.5186 52.1562 44.0957 52.1562ZM42.6406 48.4795C42.6406 46.6387 43.1436 45.667 44.0957 45.667C44.7305 45.667 45.165 46.1016 45.3848 46.9365L42.6602 49.085C42.6455 48.8945 42.6406 48.6943 42.6406 48.4795ZM44.0957 51.292C43.4609 51.292 43.0264 50.8574 42.8066 50.0273L45.5264 47.8643C45.541 48.0596 45.5459 48.2598 45.5459 48.4795C45.5459 50.3154 45.043 51.292 44.0957 51.292ZM49.9773 52.1562C51.5545 52.1562 52.4334 50.8428 52.4334 48.4795C52.4334 46.1113 51.5545 44.7979 49.9773 44.7979C48.4002 44.7979 47.5213 46.1113 47.5213 48.4795C47.5213 50.8428 48.4002 52.1562 49.9773 52.1562ZM48.5223 48.4795C48.5223 46.6387 49.0252 45.667 49.9773 45.667C50.6121 45.667 51.0467 46.1016 51.2664 46.9365L48.5418 49.085C48.5271 48.8945 48.5223 48.6943 48.5223 48.4795ZM49.9773 51.292C49.3426 51.292 48.908 50.8574 48.6883 50.0273L51.408 47.8643C51.4227 48.0596 51.4275 48.2598 51.4275 48.4795C51.4275 50.3154 50.9246 51.292 49.9773 51.292ZM61.7406 52.1562C63.3178 52.1562 64.1967 50.8428 64.1967 48.4795C64.1967 46.1113 63.3178 44.7979 61.7406 44.7979C60.1635 44.7979 59.2846 46.1113 59.2846 48.4795C59.2846 50.8428 60.1635 52.1562 61.7406 52.1562ZM60.2855 48.4795C60.2855 46.6387 60.7885 45.667 61.7406 45.667C62.3754 45.667 62.81 46.1016 63.0297 46.9365L60.3051 49.085C60.2904 48.8945 60.2855 48.6943 60.2855 48.4795ZM61.7406 51.292C61.1059 51.292 60.6713 50.8574 60.4516 50.0273L63.1713 47.8643C63.1859 48.0596 63.1908 48.2598 63.1908 48.4795C63.1908 50.3154 62.6879 51.292 61.7406 51.292ZM67.6223 52.1562C69.1994 52.1562 70.0783 50.8428 70.0783 48.4795C70.0783 46.1113 69.1994 44.7979 67.6223 44.7979C66.0451 44.7979 65.1662 46.1113 65.1662 48.4795C65.1662 50.8428 66.0451 52.1562 67.6223 52.1562ZM66.1672 48.4795C66.1672 46.6387 66.6701 45.667 67.6223 45.667C68.257 45.667 68.6916 46.1016 68.9113 46.9365L66.1867 49.085C66.1721 48.8945 66.1672 48.6943 66.1672 48.4795ZM67.6223 51.292C66.9875 51.292 66.5529 50.8574 66.3332 50.0273L69.0529 47.8643C69.0676 48.0596 69.0725 48.2598 69.0725 48.4795C69.0725 50.3154 68.5695 51.292 67.6223 51.292ZM79.3855 52.1562C80.9627 52.1562 81.8416 50.8428 81.8416 48.4795C81.8416 46.1113 80.9627 44.7979 79.3855 44.7979C77.8084 44.7979 76.9295 46.1113 76.9295 48.4795C76.9295 50.8428 77.8084 52.1562 79.3855 52.1562ZM77.9305 48.4795C77.9305 46.6387 78.4334 45.667 79.3855 45.667C80.0203 45.667 80.4549 46.1016 80.6746 46.9365L77.95 49.085C77.9354 48.8945 77.9305 48.6943 77.9305 48.4795ZM79.3855 51.292C78.7508 51.292 78.3162 50.8574 78.0965 50.0273L80.8162 47.8643C80.8309 48.0596 80.8357 48.2598 80.8357 48.4795C80.8357 50.3154 80.3328 51.292 79.3855 51.292ZM85.2672 52.1562C86.8443 52.1562 87.7232 50.8428 87.7232 48.4795C87.7232 46.1113 86.8443 44.7979 85.2672 44.7979C83.69 44.7979 82.8111 46.1113 82.8111 48.4795C82.8111 50.8428 83.69 52.1562 85.2672 52.1562ZM83.8121 48.4795C83.8121 46.6387 84.315 45.667 85.2672 45.667C85.902 45.667 86.3365 46.1016 86.5563 46.9365L83.8316 49.085C83.817 48.8945 83.8121 48.6943 83.8121 48.4795ZM85.2672 51.292C84.6324 51.292 84.1979 50.8574 83.9781 50.0273L86.6979 47.8643C86.7125 48.0596 86.7174 48.2598 86.7174 48.4795C86.7174 50.3154 86.2145 51.292 85.2672 51.292ZM97.0305 52.1562C98.6076 52.1562 99.4865 50.8428 99.4865 48.4795C99.4865 46.1113 98.6076 44.7979 97.0305 44.7979C95.4533 44.7979 94.5744 46.1113 94.5744 48.4795C94.5744 50.8428 95.4533 52.1562 97.0305 52.1562ZM95.5754 48.4795C95.5754 46.6387 96.0783 45.667 97.0305 45.667C97.6652 45.667 98.0998 46.1016 98.3195 46.9365L95.5949 49.085C95.5803 48.8945 95.5754 48.6943 95.5754 48.4795ZM97.0305 51.292C96.3957 51.292 95.9611 50.8574 95.7414 50.0273L98.4611 47.8643C98.4758 48.0596 98.4807 48.2598 98.4807 48.4795C98.4807 50.3154 97.9777 51.292 97.0305 51.292ZM102.912 52.1562C104.489 52.1562 105.368 50.8428 105.368 48.4795C105.368 46.1113 104.489 44.7979 102.912 44.7979C101.335 44.7979 100.456 46.1113 100.456 48.4795C100.456 50.8428 101.335 52.1562 102.912 52.1562ZM101.457 48.4795C101.457 46.6387 101.96 45.667 102.912 45.667C103.547 45.667 103.981 46.1016 104.201 46.9365L101.477 49.085C101.462 48.8945 101.457 48.6943 101.457 48.4795ZM102.912 51.292C102.277 51.292 101.843 50.8574 101.623 50.0273L104.343 47.8643C104.357 48.0596 104.362 48.2598 104.362 48.4795C104.362 50.3154 103.859 51.292 102.912 51.292ZM114.675 52.1562C116.253 52.1562 117.131 50.8428 117.131 48.4795C117.131 46.1113 116.253 44.7979 114.675 44.7979C113.098 44.7979 112.219 46.1113 112.219 48.4795C112.219 50.8428 113.098 52.1562 114.675 52.1562ZM113.22 48.4795C113.22 46.6387 113.723 45.667 114.675 45.667C115.31 45.667 115.745 46.1016 115.964 46.9365L113.24 49.085C113.225 48.8945 113.22 48.6943 113.22 48.4795ZM114.675 51.292C114.041 51.292 113.606 50.8574 113.386 50.0273L116.106 47.8643C116.121 48.0596 116.126 48.2598 116.126 48.4795C116.126 50.3154 115.623 51.292 114.675 51.292ZM120.557 52.1562C122.134 52.1562 123.013 50.8428 123.013 48.4795C123.013 46.1113 122.134 44.7979 120.557 44.7979C118.98 44.7979 118.101 46.1113 118.101 48.4795C118.101 50.8428 118.98 52.1562 120.557 52.1562ZM119.102 48.4795C119.102 46.6387 119.605 45.667 120.557 45.667C121.192 45.667 121.626 46.1016 121.846 46.9365L119.121 49.085C119.107 48.8945 119.102 48.6943 119.102 48.4795ZM120.557 51.292C119.922 51.292 119.488 50.8574 119.268 50.0273L121.988 47.8643C122.002 48.0596 122.007 48.2598 122.007 48.4795C122.007 50.3154 121.504 51.292 120.557 51.292ZM132.32 52.1562C133.897 52.1562 134.776 50.8428 134.776 48.4795C134.776 46.1113 133.897 44.7979 132.32 44.7979C130.743 44.7979 129.864 46.1113 129.864 48.4795C129.864 50.8428 130.743 52.1562 132.32 52.1562ZM130.865 48.4795C130.865 46.6387 131.368 45.667 132.32 45.667C132.955 45.667 133.39 46.1016 133.609 46.9365L130.885 49.085C130.87 48.8945 130.865 48.6943 130.865 48.4795ZM132.32 51.292C131.686 51.292 131.251 50.8574 131.031 50.0273L133.751 47.8643C133.766 48.0596 133.771 48.2598 133.771 48.4795C133.771 50.3154 133.268 51.292 132.32 51.292ZM138.202 52.1562C139.779 52.1562 140.658 50.8428 140.658 48.4795C140.658 46.1113 139.779 44.7979 138.202 44.7979C136.625 44.7979 135.746 46.1113 135.746 48.4795C135.746 50.8428 136.625 52.1562 138.202 52.1562ZM136.747 48.4795C136.747 46.6387 137.25 45.667 138.202 45.667C138.837 45.667 139.271 46.1016 139.491 46.9365L136.766 49.085C136.752 48.8945 136.747 48.6943 136.747 48.4795ZM138.202 51.292C137.567 51.292 137.133 50.8574 136.913 50.0273L139.633 47.8643C139.647 48.0596 139.652 48.2598 139.652 48.4795C139.652 50.3154 139.149 51.292 138.202 51.292ZM149.965 52.1562C151.542 52.1562 152.421 50.8428 152.421 48.4795C152.421 46.1113 151.542 44.7979 149.965 44.7979C148.388 44.7979 147.509 46.1113 147.509 48.4795C147.509 50.8428 148.388 52.1562 149.965 52.1562ZM148.51 48.4795C148.51 46.6387 149.013 45.667 149.965 45.667C150.6 45.667 151.035 46.1016 151.254 46.9365L148.53 49.085C148.515 48.8945 148.51 48.6943 148.51 48.4795ZM149.965 51.292C149.33 51.292 148.896 50.8574 148.676 50.0273L151.396 47.8643C151.411 48.0596 151.415 48.2598 151.415 48.4795C151.415 50.3154 150.912 51.292 149.965 51.292ZM155.847 52.1562C157.424 52.1562 158.303 50.8428 158.303 48.4795C158.303 46.1113 157.424 44.7979 155.847 44.7979C154.27 44.7979 153.391 46.1113 153.391 48.4795C153.391 50.8428 154.27 52.1562 155.847 52.1562ZM154.392 48.4795C154.392 46.6387 154.895 45.667 155.847 45.667C156.482 45.667 156.916 46.1016 157.136 46.9365L154.411 49.085C154.397 48.8945 154.392 48.6943 154.392 48.4795ZM155.847 51.292C155.212 51.292 154.778 50.8574 154.558 50.0273L157.278 47.8643C157.292 48.0596 157.297 48.2598 157.297 48.4795C157.297 50.3154 156.794 51.292 155.847 51.292ZM167.61 52.1562C169.187 52.1562 170.066 50.8428 170.066 48.4795C170.066 46.1113 169.187 44.7979 167.61 44.7979C166.033 44.7979 165.154 46.1113 165.154 48.4795C165.154 50.8428 166.033 52.1562 167.61 52.1562ZM166.155 48.4795C166.155 46.6387 166.658 45.667 167.61 45.667C168.245 45.667 168.679 46.1016 168.899 46.9365L166.175 49.085C166.16 48.8945 166.155 48.6943 166.155 48.4795ZM167.61 51.292C166.975 51.292 166.541 50.8574 166.321 50.0273L169.041 47.8643C169.055 48.0596 169.06 48.2598 169.06 48.4795C169.06 50.3154 168.557 51.292 167.61 51.292ZM173.492 52.1562C175.069 52.1562 175.948 50.8428 175.948 48.4795C175.948 46.1113 175.069 44.7979 173.492 44.7979C171.915 44.7979 171.036 46.1113 171.036 48.4795C171.036 50.8428 171.915 52.1562 173.492 52.1562ZM172.037 48.4795C172.037 46.6387 172.54 45.667 173.492 45.667C174.127 45.667 174.561 46.1016 174.781 46.9365L172.056 49.085C172.042 48.8945 172.037 48.6943 172.037 48.4795ZM173.492 51.292C172.857 51.292 172.422 50.8574 172.203 50.0273L174.922 47.8643C174.937 48.0596 174.942 48.2598 174.942 48.4795C174.942 50.3154 174.439 51.292 173.492 51.292ZM185.255 52.1562C186.832 52.1562 187.711 50.8428 187.711 48.4795C187.711 46.1113 186.832 44.7979 185.255 44.7979C183.678 44.7979 182.799 46.1113 182.799 48.4795C182.799 50.8428 183.678 52.1562 185.255 52.1562ZM183.8 48.4795C183.8 46.6387 184.303 45.667 185.255 45.667C185.89 45.667 186.324 46.1016 186.544 46.9365L183.82 49.085C183.805 48.8945 183.8 48.6943 183.8 48.4795ZM185.255 51.292C184.62 51.292 184.186 50.8574 183.966 50.0273L186.686 47.8643C186.7 48.0596 186.705 48.2598 186.705 48.4795C186.705 50.3154 186.202 51.292 185.255 51.292ZM191.137 52.1562C192.714 52.1562 193.593 50.8428 193.593 48.4795C193.593 46.1113 192.714 44.7979 191.137 44.7979C189.56 44.7979 188.681 46.1113 188.681 48.4795C188.681 50.8428 189.56 52.1562 191.137 52.1562ZM189.682 48.4795C189.682 46.6387 190.185 45.667 191.137 45.667C191.771 45.667 192.206 46.1016 192.426 46.9365L189.701 49.085C189.687 48.8945 189.682 48.6943 189.682 48.4795ZM191.137 51.292C190.502 51.292 190.067 50.8574 189.848 50.0273L192.567 47.8643C192.582 48.0596 192.587 48.2598 192.587 48.4795C192.587 50.3154 192.084 51.292 191.137 51.292ZM202.9 52.1562C204.477 52.1562 205.356 50.8428 205.356 48.4795C205.356 46.1113 204.477 44.7979 202.9 44.7979C201.323 44.7979 200.444 46.1113 200.444 48.4795C200.444 50.8428 201.323 52.1562 202.9 52.1562ZM201.445 48.4795C201.445 46.6387 201.948 45.667 202.9 45.667C203.535 45.667 203.969 46.1016 204.189 46.9365L201.464 49.085C201.45 48.8945 201.445 48.6943 201.445 48.4795ZM202.9 51.292C202.265 51.292 201.831 50.8574 201.611 50.0273L204.331 47.8643C204.345 48.0596 204.35 48.2598 204.35 48.4795C204.35 50.3154 203.847 51.292 202.9 51.292ZM208.782 52.1562C210.359 52.1562 211.238 50.8428 211.238 48.4795C211.238 46.1113 210.359 44.7979 208.782 44.7979C207.204 44.7979 206.326 46.1113 206.326 48.4795C206.326 50.8428 207.204 52.1562 208.782 52.1562ZM207.327 48.4795C207.327 46.6387 207.829 45.667 208.782 45.667C209.416 45.667 209.851 46.1016 210.071 46.9365L207.346 49.085C207.331 48.8945 207.327 48.6943 207.327 48.4795ZM208.782 51.292C208.147 51.292 207.712 50.8574 207.493 50.0273L210.212 47.8643C210.227 48.0596 210.232 48.2598 210.232 48.4795C210.232 50.3154 209.729 51.292 208.782 51.292ZM220.545 52.1562C222.122 52.1562 223.001 50.8428 223.001 48.4795C223.001 46.1113 222.122 44.7979 220.545 44.7979C218.968 44.7979 218.089 46.1113 218.089 48.4795C218.089 50.8428 218.968 52.1562 220.545 52.1562ZM219.09 48.4795C219.09 46.6387 219.593 45.667 220.545 45.667C221.18 45.667 221.614 46.1016 221.834 46.9365L219.109 49.085C219.095 48.8945 219.09 48.6943 219.09 48.4795ZM220.545 51.292C219.91 51.292 219.476 50.8574 219.256 50.0273L221.976 47.8643C221.99 48.0596 221.995 48.2598 221.995 48.4795C221.995 50.3154 221.492 51.292 220.545 51.292ZM226.427 52.1562C228.004 52.1562 228.883 50.8428 228.883 48.4795C228.883 46.1113 228.004 44.7979 226.427 44.7979C224.849 44.7979 223.971 46.1113 223.971 48.4795C223.971 50.8428 224.849 52.1562 226.427 52.1562ZM224.971 48.4795C224.971 46.6387 225.474 45.667 226.427 45.667C227.061 45.667 227.496 46.1016 227.716 46.9365L224.991 49.085C224.976 48.8945 224.971 48.6943 224.971 48.4795ZM226.427 51.292C225.792 51.292 225.357 50.8574 225.137 50.0273L227.857 47.8643C227.872 48.0596 227.877 48.2598 227.877 48.4795C227.877 50.3154 227.374 51.292 226.427 51.292ZM238.19 52.1562C239.767 52.1562 240.646 50.8428 240.646 48.4795C240.646 46.1113 239.767 44.7979 238.19 44.7979C236.613 44.7979 235.734 46.1113 235.734 48.4795C235.734 50.8428 236.613 52.1562 238.19 52.1562ZM236.735 48.4795C236.735 46.6387 237.238 45.667 238.19 45.667C238.825 45.667 239.259 46.1016 239.479 46.9365L236.754 49.085C236.74 48.8945 236.735 48.6943 236.735 48.4795ZM238.19 51.292C237.555 51.292 237.121 50.8574 236.901 50.0273L239.621 47.8643C239.635 48.0596 239.64 48.2598 239.64 48.4795C239.64 50.3154 239.137 51.292 238.19 51.292ZM244.071 52.1562C245.649 52.1562 246.528 50.8428 246.528 48.4795C246.528 46.1113 245.649 44.7979 244.071 44.7979C242.494 44.7979 241.615 46.1113 241.615 48.4795C241.615 50.8428 242.494 52.1562 244.071 52.1562ZM242.616 48.4795C242.616 46.6387 243.119 45.667 244.071 45.667C244.706 45.667 245.141 46.1016 245.361 46.9365L242.636 49.085C242.621 48.8945 242.616 48.6943 242.616 48.4795ZM244.071 51.292C243.437 51.292 243.002 50.8574 242.782 50.0273L245.502 47.8643C245.517 48.0596 245.522 48.2598 245.522 48.4795C245.522 50.3154 245.019 51.292 244.071 51.292ZM255.835 52.1562C257.412 52.1562 258.291 50.8428 258.291 48.4795C258.291 46.1113 257.412 44.7979 255.835 44.7979C254.258 44.7979 253.379 46.1113 253.379 48.4795C253.379 50.8428 254.258 52.1562 255.835 52.1562ZM254.38 48.4795C254.38 46.6387 254.883 45.667 255.835 45.667C256.47 45.667 256.904 46.1016 257.124 46.9365L254.399 49.085C254.385 48.8945 254.38 48.6943 254.38 48.4795ZM255.835 51.292C255.2 51.292 254.765 50.8574 254.546 50.0273L257.265 47.8643C257.28 48.0596 257.285 48.2598 257.285 48.4795C257.285 50.3154 256.782 51.292 255.835 51.292ZM261.716 52.1562C263.294 52.1562 264.172 50.8428 264.172 48.4795C264.172 46.1113 263.294 44.7979 261.716 44.7979C260.139 44.7979 259.26 46.1113 259.26 48.4795C259.26 50.8428 260.139 52.1562 261.716 52.1562ZM260.261 48.4795C260.261 46.6387 260.764 45.667 261.716 45.667C262.351 45.667 262.786 46.1016 263.005 46.9365L260.281 49.085C260.266 48.8945 260.261 48.6943 260.261 48.4795ZM261.716 51.292C261.082 51.292 260.647 50.8574 260.427 50.0273L263.147 47.8643C263.162 48.0596 263.167 48.2598 263.167 48.4795C263.167 50.3154 262.664 51.292 261.716 51.292ZM273.48 52.1562C275.057 52.1562 275.936 50.8428 275.936 48.4795C275.936 46.1113 275.057 44.7979 273.48 44.7979C271.903 44.7979 271.024 46.1113 271.024 48.4795C271.024 50.8428 271.903 52.1562 273.48 52.1562ZM272.025 48.4795C272.025 46.6387 272.528 45.667 273.48 45.667C274.114 45.667 274.549 46.1016 274.769 46.9365L272.044 49.085C272.029 48.8945 272.025 48.6943 272.025 48.4795ZM273.48 51.292C272.845 51.292 272.41 50.8574 272.191 50.0273L274.91 47.8643C274.925 48.0596 274.93 48.2598 274.93 48.4795C274.93 50.3154 274.427 51.292 273.48 51.292ZM279.361 52.1562C280.938 52.1562 281.817 50.8428 281.817 48.4795C281.817 46.1113 280.938 44.7979 279.361 44.7979C277.784 44.7979 276.905 46.1113 276.905 48.4795C276.905 50.8428 277.784 52.1562 279.361 52.1562ZM277.906 48.4795C277.906 46.6387 278.409 45.667 279.361 45.667C279.996 45.667 280.431 46.1016 280.65 46.9365L277.926 49.085C277.911 48.8945 277.906 48.6943 277.906 48.4795ZM279.361 51.292C278.727 51.292 278.292 50.8574 278.072 50.0273L280.792 47.8643C280.807 48.0596 280.812 48.2598 280.812 48.4795C280.812 50.3154 280.309 51.292 279.361 51.292ZM291.125 52.1562C292.702 52.1562 293.581 50.8428 293.581 48.4795C293.581 46.1113 292.702 44.7979 291.125 44.7979C289.547 44.7979 288.669 46.1113 288.669 48.4795C288.669 50.8428 289.547 52.1562 291.125 52.1562ZM289.67 48.4795C289.67 46.6387 290.172 45.667 291.125 45.667C291.759 45.667 292.194 46.1016 292.414 46.9365L289.689 49.085C289.674 48.8945 289.67 48.6943 289.67 48.4795ZM291.125 51.292C290.49 51.292 290.055 50.8574 289.836 50.0273L292.555 47.8643C292.57 48.0596 292.575 48.2598 292.575 48.4795C292.575 50.3154 292.072 51.292 291.125 51.292ZM297.006 52.1562C298.583 52.1562 299.462 50.8428 299.462 48.4795C299.462 46.1113 298.583 44.7979 297.006 44.7979C295.429 44.7979 294.55 46.1113 294.55 48.4795C294.55 50.8428 295.429 52.1562 297.006 52.1562ZM295.551 48.4795C295.551 46.6387 296.054 45.667 297.006 45.667C297.641 45.667 298.076 46.1016 298.295 46.9365L295.571 49.085C295.556 48.8945 295.551 48.6943 295.551 48.4795ZM297.006 51.292C296.371 51.292 295.937 50.8574 295.717 50.0273L298.437 47.8643C298.452 48.0596 298.456 48.2598 298.456 48.4795C298.456 50.3154 297.954 51.292 297.006 51.292ZM308.77 52.1562C310.347 52.1562 311.226 50.8428 311.226 48.4795C311.226 46.1113 310.347 44.7979 308.77 44.7979C307.192 44.7979 306.313 46.1113 306.313 48.4795C306.313 50.8428 307.192 52.1562 308.77 52.1562ZM307.314 48.4795C307.314 46.6387 307.817 45.667 308.77 45.667C309.404 45.667 309.839 46.1016 310.059 46.9365L307.334 49.085C307.319 48.8945 307.314 48.6943 307.314 48.4795ZM308.77 51.292C308.135 51.292 307.7 50.8574 307.48 50.0273L310.2 47.8643C310.215 48.0596 310.22 48.2598 310.22 48.4795C310.22 50.3154 309.717 51.292 308.77 51.292ZM314.651 52.1562C316.228 52.1562 317.107 50.8428 317.107 48.4795C317.107 46.1113 316.228 44.7979 314.651 44.7979C313.074 44.7979 312.195 46.1113 312.195 48.4795C312.195 50.8428 313.074 52.1562 314.651 52.1562ZM313.196 48.4795C313.196 46.6387 313.699 45.667 314.651 45.667C315.286 45.667 315.721 46.1016 315.94 46.9365L313.216 49.085C313.201 48.8945 313.196 48.6943 313.196 48.4795ZM314.651 51.292C314.016 51.292 313.582 50.8574 313.362 50.0273L316.082 47.8643C316.096 48.0596 316.101 48.2598 316.101 48.4795C316.101 50.3154 315.598 51.292 314.651 51.292Z" fill="#E9E9E9"/>
<path d="M44.0957 73.1562C45.6729 73.1562 46.5518 71.8428 46.5518 69.4795C46.5518 67.1113 45.6729 65.7979 44.0957 65.7979C42.5186 65.7979 41.6396 67.1113 41.6396 69.4795C41.6396 71.8428 42.5186 73.1562 44.0957 73.1562ZM42.6406 69.4795C42.6406 67.6387 43.1436 66.667 44.0957 66.667C44.7305 66.667 45.165 67.1016 45.3848 67.9365L42.6602 70.085C42.6455 69.8945 42.6406 69.6943 42.6406 69.4795ZM44.0957 72.292C43.4609 72.292 43.0264 71.8574 42.8066 71.0273L45.5264 68.8643C45.541 69.0596 45.5459 69.2598 45.5459 69.4795C45.5459 71.3154 45.043 72.292 44.0957 72.292ZM49.9773 73.1562C51.5545 73.1562 52.4334 71.8428 52.4334 69.4795C52.4334 67.1113 51.5545 65.7979 49.9773 65.7979C48.4002 65.7979 47.5213 67.1113 47.5213 69.4795C47.5213 71.8428 48.4002 73.1562 49.9773 73.1562ZM48.5223 69.4795C48.5223 67.6387 49.0252 66.667 49.9773 66.667C50.6121 66.667 51.0467 67.1016 51.2664 67.9365L48.5418 70.085C48.5271 69.8945 48.5223 69.6943 48.5223 69.4795ZM49.9773 72.292C49.3426 72.292 48.908 71.8574 48.6883 71.0273L51.408 68.8643C51.4227 69.0596 51.4275 69.2598 51.4275 69.4795C51.4275 71.3154 50.9246 72.292 49.9773 72.292ZM61.7406 73.1562C63.3178 73.1562 64.1967 71.8428 64.1967 69.4795C64.1967 67.1113 63.3178 65.7979 61.7406 65.7979C60.1635 65.7979 59.2846 67.1113 59.2846 69.4795C59.2846 71.8428 60.1635 73.1562 61.7406 73.1562ZM60.2855 69.4795C60.2855 67.6387 60.7885 66.667 61.7406 66.667C62.3754 66.667 62.81 67.1016 63.0297 67.9365L60.3051 70.085C60.2904 69.8945 60.2855 69.6943 60.2855 69.4795ZM61.7406 72.292C61.1059 72.292 60.6713 71.8574 60.4516 71.0273L63.1713 68.8643C63.1859 69.0596 63.1908 69.2598 63.1908 69.4795C63.1908 71.3154 62.6879 72.292 61.7406 72.292ZM67.6223 73.1562C69.1994 73.1562 70.0783 71.8428 70.0783 69.4795C70.0783 67.1113 69.1994 65.7979 67.6223 65.7979C66.0451 65.7979 65.1662 67.1113 65.1662 69.4795C65.1662 71.8428 66.0451 73.1562 67.6223 73.1562ZM66.1672 69.4795C66.1672 67.6387 66.6701 66.667 67.6223 66.667C68.257 66.667 68.6916 67.1016 68.9113 67.9365L66.1867 70.085C66.1721 69.8945 66.1672 69.6943 66.1672 69.4795ZM67.6223 72.292C66.9875 72.292 66.5529 71.8574 66.3332 71.0273L69.0529 68.8643C69.0676 69.0596 69.0725 69.2598 69.0725 69.4795C69.0725 71.3154 68.5695 72.292 67.6223 72.292ZM114.675 73.1562C116.253 73.1562 117.131 71.8428 117.131 69.4795C117.131 67.1113 116.253 65.7979 114.675 65.7979C113.098 65.7979 112.219 67.1113 112.219 69.4795C112.219 71.8428 113.098 73.1562 114.675 73.1562ZM113.22 69.4795C113.22 67.6387 113.723 66.667 114.675 66.667C115.31 66.667 115.745 67.1016 115.964 67.9365L113.24 70.085C113.225 69.8945 113.22 69.6943 113.22 69.4795ZM114.675 72.292C114.041 72.292 113.606 71.8574 113.386 71.0273L116.106 68.8643C116.121 69.0596 116.126 69.2598 116.126 69.4795C116.126 71.3154 115.623 72.292 114.675 72.292ZM120.557 73.1562C122.134 73.1562 123.013 71.8428 123.013 69.4795C123.013 67.1113 122.134 65.7979 120.557 65.7979C118.98 65.7979 118.101 67.1113 118.101 69.4795C118.101 71.8428 118.98 73.1562 120.557 73.1562ZM119.102 69.4795C119.102 67.6387 119.605 66.667 120.557 66.667C121.192 66.667 121.626 67.1016 121.846 67.9365L119.121 70.085C119.107 69.8945 119.102 69.6943 119.102 69.4795ZM120.557 72.292C119.922 72.292 119.488 71.8574 119.268 71.0273L121.988 68.8643C122.002 69.0596 122.007 69.2598 122.007 69.4795C122.007 71.3154 121.504 72.292 120.557 72.292ZM132.32 73.1562C133.897 73.1562 134.776 71.8428 134.776 69.4795C134.776 67.1113 133.897 65.7979 132.32 65.7979C130.743 65.7979 129.864 67.1113 129.864 69.4795C129.864 71.8428 130.743 73.1562 132.32 73.1562ZM130.865 69.4795C130.865 67.6387 131.368 66.667 132.32 66.667C132.955 66.667 133.39 67.1016 133.609 67.9365L130.885 70.085C130.87 69.8945 130.865 69.6943 130.865 69.4795ZM132.32 72.292C131.686 72.292 131.251 71.8574 131.031 71.0273L133.751 68.8643C133.766 69.0596 133.771 69.2598 133.771 69.4795C133.771 71.3154 133.268 72.292 132.32 72.292ZM138.202 73.1562C139.779 73.1562 140.658 71.8428 140.658 69.4795C140.658 67.1113 139.779 65.7979 138.202 65.7979C136.625 65.7979 135.746 67.1113 135.746 69.4795C135.746 71.8428 136.625 73.1562 138.202 73.1562ZM136.747 69.4795C136.747 67.6387 137.25 66.667 138.202 66.667C138.837 66.667 139.271 67.1016 139.491 67.9365L136.766 70.085C136.752 69.8945 136.747 69.6943 136.747 69.4795ZM138.202 72.292C137.567 72.292 137.133 71.8574 136.913 71.0273L139.633 68.8643C139.647 69.0596 139.652 69.2598 139.652 69.4795C139.652 71.3154 139.149 72.292 138.202 72.292Z" fill="#0BD813" fill-opacity="0.6"/>
<path d="M78.3797 73V70.8564L78.9998 70.0654L80.9236 73H82.5398L79.9568 69.0645L82.3836 65.9541H80.9188L78.4529 69.1621H78.3797V65.9541H77.0613V73H78.3797ZM87.5816 71.8037H84.5299V69.9922H87.401V68.8838H84.5299V67.1504H87.5816V65.9541H83.1383V73H87.5816V71.8037ZM91.8373 73V70.3975L94.098 65.9541H92.599L91.1879 68.957H91.1L89.6889 65.9541H88.1898L90.4506 70.3975V73H91.8373ZM104.343 73H105.842L103.728 65.9541H102.087L99.9727 73H101.359L101.809 71.2764H103.903L104.343 73ZM102.829 67.3359H102.893L103.625 70.1924H102.087L102.829 67.3359Z" fill="#29D02D"/>
<path d="M151.396 73H152.895L150.781 65.9541H149.14L147.026 73H148.412L148.862 71.2764H150.956L151.396 73ZM149.882 67.3359H149.946L150.678 70.1924H149.14L149.882 67.3359ZM155.998 71.8965C155.124 71.8965 154.675 71.3154 154.675 70.1973V68.7568C154.675 67.6436 155.124 67.0576 155.979 67.0576C156.696 67.0576 157.175 67.6045 157.19 68.4492H158.596C158.586 66.7842 157.624 65.8125 156.003 65.8125C154.26 65.8125 153.235 66.9014 153.235 68.7568V70.1973C153.235 72.0527 154.26 73.1416 156.003 73.1416C157.605 73.1416 158.601 72.165 158.601 70.5684H157.195C157.18 71.3887 156.726 71.8965 155.998 71.8965ZM161.88 71.8965C161.006 71.8965 160.557 71.3154 160.557 70.1973V68.7568C160.557 67.6436 161.006 67.0576 161.86 67.0576C162.578 67.0576 163.057 67.6045 163.071 68.4492H164.478C164.468 66.7842 163.506 65.8125 161.885 65.8125C160.142 65.8125 159.116 66.9014 159.116 68.7568V70.1973C159.116 72.0527 160.142 73.1416 161.885 73.1416C163.486 73.1416 164.482 72.165 164.482 70.5684H163.076C163.062 71.3887 162.607 71.8965 161.88 71.8965ZM169.925 71.8037H166.873V69.9922H169.744V68.8838H166.873V67.1504H169.925V65.9541H165.481V73H169.925V71.8037ZM170.86 71.0273C170.909 72.3457 171.91 73.1416 173.506 73.1416C175.152 73.1416 176.148 72.3018 176.148 70.9102C176.148 69.8311 175.552 69.2207 174.19 68.918L173.467 68.752C172.706 68.5859 172.393 68.3125 172.393 67.8145C172.393 67.2871 172.828 66.96 173.526 66.96C174.214 66.96 174.659 67.3164 174.712 67.8975H176.021C175.977 66.6377 174.986 65.8125 173.511 65.8125C171.988 65.8125 171.016 66.6475 171.016 67.9609C171.016 69.0059 171.641 69.6797 172.916 69.9678L173.648 70.1387C174.463 70.3193 174.776 70.5732 174.776 71.0518C174.776 71.623 174.293 71.9893 173.531 71.9893C172.73 71.9893 172.232 71.6377 172.169 71.0273H170.86ZM176.742 71.0273C176.79 72.3457 177.791 73.1416 179.388 73.1416C181.034 73.1416 182.03 72.3018 182.03 70.9102C182.03 69.8311 181.434 69.2207 180.072 68.918L179.349 68.752C178.587 68.5859 178.275 68.3125 178.275 67.8145C178.275 67.2871 178.709 66.96 179.408 66.96C180.096 66.96 180.54 67.3164 180.594 67.8975H181.903C181.859 66.6377 180.868 65.8125 179.393 65.8125C177.87 65.8125 176.898 66.6475 176.898 67.9609C176.898 69.0059 177.523 69.6797 178.797 69.9678L179.53 70.1387C180.345 70.3193 180.658 70.5732 180.658 71.0518C180.658 71.623 180.174 71.9893 179.413 71.9893C178.612 71.9893 178.114 71.6377 178.05 71.0273H176.742ZM191.4 73C192.909 73 193.842 72.2285 193.842 70.9932C193.842 70.0801 193.173 69.3721 192.235 69.3037V69.2207C192.968 69.1084 193.505 68.4688 193.505 67.707C193.505 66.6084 192.689 65.9541 191.337 65.9541H188.744V73H191.4ZM190.102 67.0234H190.961C191.703 67.0234 192.108 67.3506 192.108 67.9561C192.108 68.5225 191.669 68.8545 190.902 68.8545H190.102V67.0234ZM190.102 71.9111V69.8701H190.961C191.913 69.8701 192.396 70.2021 192.396 70.8711C192.396 71.584 191.938 71.9111 190.971 71.9111H190.102ZM199.167 73V71.8086H197.707V67.1455H199.167V65.9541H194.86V67.1455H196.32V71.8086H194.86V73H199.167ZM203.588 73V67.1504H205.605V65.9541H200.185V67.1504H202.202V73H203.588ZM206.15 71.0273C206.199 72.3457 207.2 73.1416 208.796 73.1416C210.442 73.1416 211.438 72.3018 211.438 70.9102C211.438 69.8311 210.842 69.2207 209.48 68.918L208.757 68.752C207.996 68.5859 207.683 68.3125 207.683 67.8145C207.683 67.2871 208.118 66.96 208.816 66.96C209.504 66.96 209.949 67.3164 210.002 67.8975H211.311C211.267 66.6377 210.276 65.8125 208.801 65.8125C207.278 65.8125 206.306 66.6475 206.306 67.9609C206.306 69.0059 206.931 69.6797 208.205 69.9678L208.938 70.1387C209.753 70.3193 210.066 70.5732 210.066 71.0518C210.066 71.623 209.582 71.9893 208.821 71.9893C208.02 71.9893 207.522 71.6377 207.458 71.0273H206.15Z" fill="#F63F3F"/>
<path d="M220.545 73.1562C222.122 73.1562 223.001 71.8428 223.001 69.4795C223.001 67.1113 222.122 65.7979 220.545 65.7979C218.968 65.7979 218.089 67.1113 218.089 69.4795C218.089 71.8428 218.968 73.1562 220.545 73.1562ZM219.09 69.4795C219.09 67.6387 219.593 66.667 220.545 66.667C221.18 66.667 221.614 67.1016 221.834 67.9365L219.109 70.085C219.095 69.8945 219.09 69.6943 219.09 69.4795ZM220.545 72.292C219.91 72.292 219.476 71.8574 219.256 71.0273L221.976 68.8643C221.99 69.0596 221.995 69.2598 221.995 69.4795C221.995 71.3154 221.492 72.292 220.545 72.292ZM226.427 73.1562C228.004 73.1562 228.883 71.8428 228.883 69.4795C228.883 67.1113 228.004 65.7979 226.427 65.7979C224.849 65.7979 223.971 67.1113 223.971 69.4795C223.971 71.8428 224.849 73.1562 226.427 73.1562ZM224.971 69.4795C224.971 67.6387 225.474 66.667 226.427 66.667C227.061 66.667 227.496 67.1016 227.716 67.9365L224.991 70.085C224.976 69.8945 224.971 69.6943 224.971 69.4795ZM226.427 72.292C225.792 72.292 225.357 71.8574 225.137 71.0273L227.857 68.8643C227.872 69.0596 227.877 69.2598 227.877 69.4795C227.877 71.3154 227.374 72.292 226.427 72.292ZM238.19 73.1562C239.767 73.1562 240.646 71.8428 240.646 69.4795C240.646 67.1113 239.767 65.7979 238.19 65.7979C236.613 65.7979 235.734 67.1113 235.734 69.4795C235.734 71.8428 236.613 73.1562 238.19 73.1562ZM236.735 69.4795C236.735 67.6387 237.238 66.667 238.19 66.667C238.825 66.667 239.259 67.1016 239.479 67.9365L236.754 70.085C236.74 69.8945 236.735 69.6943 236.735 69.4795ZM238.19 72.292C237.555 72.292 237.121 71.8574 236.901 71.0273L239.621 68.8643C239.635 69.0596 239.64 69.2598 239.64 69.4795C239.64 71.3154 239.137 72.292 238.19 72.292ZM244.071 73.1562C245.649 73.1562 246.528 71.8428 246.528 69.4795C246.528 67.1113 245.649 65.7979 244.071 65.7979C242.494 65.7979 241.615 67.1113 241.615 69.4795C241.615 71.8428 242.494 73.1562 244.071 73.1562ZM242.616 69.4795C242.616 67.6387 243.119 66.667 244.071 66.667C244.706 66.667 245.141 67.1016 245.361 67.9365L242.636 70.085C242.621 69.8945 242.616 69.6943 242.616 69.4795ZM244.071 72.292C243.437 72.292 243.002 71.8574 242.782 71.0273L245.502 68.8643C245.517 69.0596 245.522 69.2598 245.522 69.4795C245.522 71.3154 245.019 72.292 244.071 72.292ZM291.125 73.1562C292.702 73.1562 293.581 71.8428 293.581 69.4795C293.581 67.1113 292.702 65.7979 291.125 65.7979C289.547 65.7979 288.669 67.1113 288.669 69.4795C288.669 71.8428 289.547 73.1562 291.125 73.1562ZM289.67 69.4795C289.67 67.6387 290.172 66.667 291.125 66.667C291.759 66.667 292.194 67.1016 292.414 67.9365L289.689 70.085C289.674 69.8945 289.67 69.6943 289.67 69.4795ZM291.125 72.292C290.49 72.292 290.055 71.8574 289.836 71.0273L292.555 68.8643C292.57 69.0596 292.575 69.2598 292.575 69.4795C292.575 71.3154 292.072 72.292 291.125 72.292ZM297.006 73.1562C298.583 73.1562 299.462 71.8428 299.462 69.4795C299.462 67.1113 298.583 65.7979 297.006 65.7979C295.429 65.7979 294.55 67.1113 294.55 69.4795C294.55 71.8428 295.429 73.1562 297.006 73.1562ZM295.551 69.4795C295.551 67.6387 296.054 66.667 297.006 66.667C297.641 66.667 298.076 67.1016 298.295 67.9365L295.571 70.085C295.556 69.8945 295.551 69.6943 295.551 69.4795ZM297.006 72.292C296.371 72.292 295.937 71.8574 295.717 71.0273L298.437 68.8643C298.452 69.0596 298.456 69.2598 298.456 69.4795C298.456 71.3154 297.954 72.292 297.006 72.292ZM308.77 73.1562C310.347 73.1562 311.226 71.8428 311.226 69.4795C311.226 67.1113 310.347 65.7979 308.77 65.7979C307.192 65.7979 306.313 67.1113 306.313 69.4795C306.313 71.8428 307.192 73.1562 308.77 73.1562ZM307.314 69.4795C307.314 67.6387 307.817 66.667 308.77 66.667C309.404 66.667 309.839 67.1016 310.059 67.9365L307.334 70.085C307.319 69.8945 307.314 69.6943 307.314 69.4795ZM308.77 72.292C308.135 72.292 307.7 71.8574 307.48 71.0273L310.2 68.8643C310.215 69.0596 310.22 69.2598 310.22 69.4795C310.22 71.3154 309.717 72.292 308.77 72.292ZM314.651 73.1562C316.228 73.1562 317.107 71.8428 317.107 69.4795C317.107 67.1113 316.228 65.7979 314.651 65.7979C313.074 65.7979 312.195 67.1113 312.195 69.4795C312.195 71.8428 313.074 73.1562 314.651 73.1562ZM313.196 69.4795C313.196 67.6387 313.699 66.667 314.651 66.667C315.286 66.667 315.721 67.1016 315.94 67.9365L313.216 70.085C313.201 69.8945 313.196 69.6943 313.196 69.4795ZM314.651 72.292C314.016 72.292 313.582 71.8574 313.362 71.0273L316.082 68.8643C316.096 69.0596 316.101 69.2598 316.101 69.4795C316.101 71.3154 315.598 72.292 314.651 72.292Z" fill="#448BF0" fill-opacity="0.6"/>
<path d="M254.829 73V70.8564L255.449 70.0654L257.373 73H258.989L256.406 69.0645L258.833 65.9541H257.368L254.902 69.1621H254.829V65.9541H253.511V73H254.829ZM264.031 71.8037H260.979V69.9922H263.85V68.8838H260.979V67.1504H264.031V65.9541H259.587V73H264.031V71.8037ZM268.287 73V70.3975L270.547 65.9541H269.048L267.637 68.957H267.549L266.138 65.9541H264.639L266.9 70.3975V73H268.287ZM279.625 73C281.134 73 282.066 72.2285 282.066 70.9932C282.066 70.0801 281.397 69.3721 280.46 69.3037V69.2207C281.192 69.1084 281.729 68.4688 281.729 67.707C281.729 66.6084 280.914 65.9541 279.562 65.9541H276.969V73H279.625ZM278.326 67.0234H279.186C279.928 67.0234 280.333 67.3506 280.333 67.9561C280.333 68.5225 279.894 68.8545 279.127 68.8545H278.326V67.0234ZM278.326 71.9111V69.8701H279.186C280.138 69.8701 280.621 70.2021 280.621 70.8711C280.621 71.584 280.162 71.9111 279.195 71.9111H278.326Z" fill="#448BF0"/>
<path d="M14 2C12.8954 2 12 3.38041 12 5.08333V34.1349C12 34.4527 11.9243 34.7659 11.7791 35.0485L10.2346 38.0564C10.0873 38.3431 10.0873 38.6832 10.2346 38.97L11.7791 41.9778C11.9243 42.2605 12 42.5736 12 42.8914V72.9167C12 74.6196 12.8954 76 14 76" stroke="#919191" stroke-width="0.7"/>
<path d="M4.85742 49.6309C5.61914 49.5898 6.08789 49.0127 6.08789 48.1133C6.08789 47.1963 5.59863 46.6191 4.81934 46.6191C4.18066 46.6191 3.82031 46.9678 3.62402 47.7881L3.52734 48.1748C3.40137 48.6992 3.20215 48.9189 2.85645 48.9189C2.45508 48.9189 2.21484 48.6143 2.21484 48.1074C2.21484 47.6357 2.45801 47.3281 2.87109 47.2812V46.6953C2.15625 46.7275 1.68457 47.29 1.68457 48.1133C1.68457 48.9746 2.16211 49.5312 2.90039 49.5312C3.51562 49.5312 3.89648 49.1709 4.08984 48.3916L4.18066 48.0049C4.31543 47.457 4.51758 47.2314 4.86035 47.2314C5.28516 47.2314 5.55762 47.5742 5.55762 48.1074C5.55762 48.6465 5.29688 48.9951 4.85742 49.042V49.6309ZM5.45801 42.6006L5.45801 44.5312H4.10449L4.10449 42.709H3.59473V44.5312H2.31445V42.6006H1.77246L1.77246 45.1436H6L6 42.6006H5.45801ZM5.52832 39.6338C5.52832 40.2695 5.09766 40.6006 4.27734 40.6006H3.49512C2.6748 40.6006 2.24414 40.2695 2.24414 39.6367C2.24414 39.1299 2.61328 38.7783 3.16699 38.7607V38.1455C2.23828 38.1572 1.68457 38.7168 1.68457 39.6309C1.68457 40.6387 2.34961 41.2275 3.49512 41.2275H4.27734C5.42285 41.2275 6.08789 40.6387 6.08789 39.6309C6.08789 38.7402 5.52246 38.1455 4.66699 38.1455V38.7607C5.2002 38.7725 5.52832 39.1064 5.52832 39.6338ZM6 35.2139H2.31445V33.957H1.77246V37.0801H2.31445V35.8232H6V35.2139ZM4.22168 29.7393H3.55078C2.37891 29.7393 1.68457 30.334 1.68457 31.3096C1.68457 32.2852 2.37891 32.8799 3.55078 32.8799H4.22168C5.39355 32.8799 6.08789 32.2852 6.08789 31.3096C6.08789 30.334 5.39355 29.7393 4.22168 29.7393ZM5.53125 31.3096C5.53125 31.9131 5.06836 32.2646 4.21875 32.2646H3.55371C2.7041 32.2646 2.24121 31.9131 2.24121 31.3096C2.24121 30.7061 2.7041 30.3545 3.55371 30.3545H4.21875C5.06836 30.3545 5.53125 30.7061 5.53125 31.3096ZM4.35059 26.9863L6 26.2129V25.5273L4.23633 26.3828C4.07227 25.9082 3.61523 25.6064 3.06445 25.6064C2.26465 25.6064 1.77246 26.1396 1.77246 27.0039V28.457H6L6 27.8506H4.35059V26.9863ZM2.29102 27.8506V27.0684C2.29102 26.5322 2.57813 26.2217 3.07617 26.2217C3.57422 26.2217 3.8584 26.5352 3.8584 27.0889V27.8506H2.29102Z" fill="#898787"/>
<path d="M18.957 9C19.8652 9 20.4102 8.55469 20.4102 7.81348C20.4102 7.25391 20.0293 6.83496 19.4609 6.78516V6.74121C19.8945 6.66797 20.1992 6.28418 20.1992 5.81836C20.1992 5.16504 19.7275 4.77246 18.9365 4.77246H17.5127V9H18.957ZM18.1133 5.27051H18.7871C19.2998 5.27051 19.5869 5.50781 19.5869 5.92676C19.5869 6.34277 19.2793 6.57422 18.7197 6.57422H18.1133V5.27051ZM18.1133 8.49609V7.05176H18.79C19.4404 7.05176 19.7773 7.29492 19.7773 7.7666C19.7773 8.25293 19.4492 8.49609 18.8047 8.49609H18.1133ZM24.3166 8.44922H22.3566V4.77246H21.7531V9H24.3166V8.44922ZM28.4428 7.22168V6.55078C28.4428 5.37891 27.848 4.68457 26.8725 4.68457C25.8969 4.68457 25.3021 5.37891 25.3021 6.55078V7.22168C25.3021 8.39355 25.8969 9.08789 26.8725 9.08789C27.848 9.08789 28.4428 8.39355 28.4428 7.22168ZM26.8725 8.53125C26.2689 8.53125 25.9174 8.06836 25.9174 7.21875V6.55371C25.9174 5.7041 26.2689 5.24121 26.8725 5.24121C27.476 5.24121 27.8275 5.7041 27.8275 6.55371V7.21875C27.8275 8.06836 27.476 8.53125 26.8725 8.53125ZM30.9752 8.52832C30.3395 8.52832 30.0084 8.09766 30.0084 7.27734V6.49512C30.0084 5.6748 30.3395 5.24414 30.9723 5.24414C31.4791 5.24414 31.8307 5.61328 31.8482 6.16699H32.4635C32.4518 5.23828 31.8922 4.68457 30.9781 4.68457C29.9703 4.68457 29.3814 5.34961 29.3814 6.49512V7.27734C29.3814 8.42285 29.9703 9.08789 30.9781 9.08789C31.8687 9.08789 32.4635 8.52246 32.4635 7.66699H31.8482C31.8365 8.2002 31.5025 8.52832 30.9752 8.52832ZM34.2107 9V7.60254L34.6297 7.09277L35.9715 9H36.7098L35.0457 6.6416L36.575 4.77246H35.8924L34.2488 6.82617H34.2107V4.77246H33.6189V9H34.2107Z" fill="#898989"/>
<path d="M18.957 30C19.8652 30 20.4102 29.5547 20.4102 28.8135C20.4102 28.2539 20.0293 27.835 19.4609 27.7852V27.7412C19.8945 27.668 20.1992 27.2842 20.1992 26.8184C20.1992 26.165 19.7275 25.7725 18.9365 25.7725H17.5127V30H18.957ZM18.1133 26.2705H18.7871C19.2998 26.2705 19.5869 26.5078 19.5869 26.9268C19.5869 27.3428 19.2793 27.5742 18.7197 27.5742H18.1133V26.2705ZM18.1133 29.4961V28.0518H18.79C19.4404 28.0518 19.7773 28.2949 19.7773 28.7666C19.7773 29.2529 19.4492 29.4961 18.8047 29.4961H18.1133ZM24.3166 29.4492H22.3566V25.7725H21.7531V30H24.3166V29.4492ZM28.4428 28.2217V27.5508C28.4428 26.3789 27.848 25.6846 26.8725 25.6846C25.8969 25.6846 25.3021 26.3789 25.3021 27.5508V28.2217C25.3021 29.3936 25.8969 30.0879 26.8725 30.0879C27.848 30.0879 28.4428 29.3936 28.4428 28.2217ZM26.8725 29.5312C26.2689 29.5312 25.9174 29.0684 25.9174 28.2188V27.5537C25.9174 26.7041 26.2689 26.2412 26.8725 26.2412C27.476 26.2412 27.8275 26.7041 27.8275 27.5537V28.2188C27.8275 29.0684 27.476 29.5312 26.8725 29.5312ZM30.9752 29.5283C30.3395 29.5283 30.0084 29.0977 30.0084 28.2773V27.4951C30.0084 26.6748 30.3395 26.2441 30.9723 26.2441C31.4791 26.2441 31.8307 26.6133 31.8482 27.167H32.4635C32.4518 26.2383 31.8922 25.6846 30.9781 25.6846C29.9703 25.6846 29.3814 26.3496 29.3814 27.4951V28.2773C29.3814 29.4229 29.9703 30.0879 30.9781 30.0879C31.8687 30.0879 32.4635 29.5225 32.4635 28.667H31.8482C31.8365 29.2002 31.5025 29.5283 30.9752 29.5283ZM34.2107 30V28.6025L34.6297 28.0928L35.9715 30H36.7098L35.0457 27.6416L36.575 25.7725H35.8924L34.2488 27.8262H34.2107V25.7725H33.6189V30H34.2107Z" fill="#898989"/>
<path d="M18.957 51C19.8652 51 20.4102 50.5547 20.4102 49.8135C20.4102 49.2539 20.0293 48.835 19.4609 48.7852V48.7412C19.8945 48.668 20.1992 48.2842 20.1992 47.8184C20.1992 47.165 19.7275 46.7725 18.9365 46.7725H17.5127V51H18.957ZM18.1133 47.2705H18.7871C19.2998 47.2705 19.5869 47.5078 19.5869 47.9268C19.5869 48.3428 19.2793 48.5742 18.7197 48.5742H18.1133V47.2705ZM18.1133 50.4961V49.0518H18.79C19.4404 49.0518 19.7773 49.2949 19.7773 49.7666C19.7773 50.2529 19.4492 50.4961 18.8047 50.4961H18.1133ZM24.3166 50.4492H22.3566V46.7725H21.7531V51H24.3166V50.4492ZM28.4428 49.2217V48.5508C28.4428 47.3789 27.848 46.6846 26.8725 46.6846C25.8969 46.6846 25.3021 47.3789 25.3021 48.5508V49.2217C25.3021 50.3936 25.8969 51.0879 26.8725 51.0879C27.848 51.0879 28.4428 50.3936 28.4428 49.2217ZM26.8725 50.5312C26.2689 50.5312 25.9174 50.0684 25.9174 49.2188V48.5537C25.9174 47.7041 26.2689 47.2412 26.8725 47.2412C27.476 47.2412 27.8275 47.7041 27.8275 48.5537V49.2188C27.8275 50.0684 27.476 50.5312 26.8725 50.5312ZM30.9752 50.5283C30.3395 50.5283 30.0084 50.0977 30.0084 49.2773V48.4951C30.0084 47.6748 30.3395 47.2441 30.9723 47.2441C31.4791 47.2441 31.8307 47.6133 31.8482 48.167H32.4635C32.4518 47.2383 31.8922 46.6846 30.9781 46.6846C29.9703 46.6846 29.3814 47.3496 29.3814 48.4951V49.2773C29.3814 50.4229 29.9703 51.0879 30.9781 51.0879C31.8687 51.0879 32.4635 50.5225 32.4635 49.667H31.8482C31.8365 50.2002 31.5025 50.5283 30.9752 50.5283ZM34.2107 51V49.6025L34.6297 49.0928L35.9715 51H36.7098L35.0457 48.6416L36.575 46.7725H35.8924L34.2488 48.8262H34.2107V46.7725H33.6189V51H34.2107Z" fill="#898989"/>
<path d="M18.957 72C19.8652 72 20.4102 71.5547 20.4102 70.8135C20.4102 70.2539 20.0293 69.835 19.4609 69.7852V69.7412C19.8945 69.668 20.1992 69.2842 20.1992 68.8184C20.1992 68.165 19.7275 67.7725 18.9365 67.7725H17.5127V72H18.957ZM18.1133 68.2705H18.7871C19.2998 68.2705 19.5869 68.5078 19.5869 68.9268C19.5869 69.3428 19.2793 69.5742 18.7197 69.5742H18.1133V68.2705ZM18.1133 71.4961V70.0518H18.79C19.4404 70.0518 19.7773 70.2949 19.7773 70.7666C19.7773 71.2529 19.4492 71.4961 18.8047 71.4961H18.1133ZM24.3166 71.4492H22.3566V67.7725H21.7531V72H24.3166V71.4492ZM28.4428 70.2217V69.5508C28.4428 68.3789 27.848 67.6846 26.8725 67.6846C25.8969 67.6846 25.3021 68.3789 25.3021 69.5508V70.2217C25.3021 71.3936 25.8969 72.0879 26.8725 72.0879C27.848 72.0879 28.4428 71.3936 28.4428 70.2217ZM26.8725 71.5312C26.2689 71.5312 25.9174 71.0684 25.9174 70.2188V69.5537C25.9174 68.7041 26.2689 68.2412 26.8725 68.2412C27.476 68.2412 27.8275 68.7041 27.8275 69.5537V70.2188C27.8275 71.0684 27.476 71.5312 26.8725 71.5312ZM30.9752 71.5283C30.3395 71.5283 30.0084 71.0977 30.0084 70.2773V69.4951C30.0084 68.6748 30.3395 68.2441 30.9723 68.2441C31.4791 68.2441 31.8307 68.6133 31.8482 69.167H32.4635C32.4518 68.2383 31.8922 67.6846 30.9781 67.6846C29.9703 67.6846 29.3814 68.3496 29.3814 69.4951V70.2773C29.3814 71.4229 29.9703 72.0879 30.9781 72.0879C31.8687 72.0879 32.4635 71.5225 32.4635 70.667H31.8482C31.8365 71.2002 31.5025 71.5283 30.9752 71.5283ZM34.2107 72V70.6025L34.6297 70.0928L35.9715 72H36.7098L35.0457 69.6416L36.575 67.7725H35.8924L34.2488 69.8262H34.2107V67.7725H33.6189V72H34.2107Z" fill="#898989"/>
</svg>
