<svg width="28" height="28" viewBox="0 0 28 28" fill="none" xmlns="http://www.w3.org/2000/svg">
<path d="M16 24V22V20V18V16V14H14H12V16V18V20V22V24V26V28H14H16V26V24Z" fill="white"/>
<path d="M24 18H22V20H24V18Z" fill="white"/>
<path d="M6 18H4V20H6V18Z" fill="white"/>
<path d="M26 16H24V18H26V16Z" fill="white"/>
<path d="M4 16H2V18H4V16Z" fill="white"/>
<path d="M22 14H20V16H22V14Z" fill="white"/>
<path d="M8 14H6V16H8V14Z" fill="white"/>
<path d="M2 14V12V10V8V6V4H0V6V8V10V12V14V16H2V14Z" fill="white"/>
<path d="M20 10V8H18V10V12H20V10Z" fill="white"/>
<path d="M6 10V8V6H4V8V10V12V14H6V12V10Z" fill="white"/>
<path d="M22 10V12V14H24V12V10V8V6H22V8V10Z" fill="white"/>
<path d="M16 8H14H12V10V12H14H16V10V8Z" fill="white"/>
<path d="M8 10V12H10V10V8H8V10Z" fill="white"/>
<path d="M26 6V8V10V12V14V16H28V14V12V10V8V6V4H26V6Z" fill="white"/>
<path d="M22 4H20V6H22V4Z" fill="white"/>
<path d="M8 4H6V6H8V4Z" fill="white"/>
<path d="M26 2H24V4H26V2Z" fill="white"/>
<path d="M4 2H2V4H4V2Z" fill="white"/>
<path d="M24 0H22V2H24V0Z" fill="white"/>
<path d="M6 0H4V2H6V0Z" fill="white"/>
</svg>
