<svg width="24" height="24" viewBox="0 0 24 24" fill="none" xmlns="http://www.w3.org/2000/svg">
<path fill-rule="evenodd" clip-rule="evenodd" d="M11.3861 1.21065C11.7472 0.929784 12.2528 0.929784 12.6139 1.21065L21.6139 8.21065C21.8575 8.4001 22 8.69141 22 9V20C22 20.7957 21.6839 21.5587 21.1213 22.1213C20.5587 22.6839 19.7957 23 19 23H5C4.20435 23 3.44129 22.6839 2.87868 22.1213C2.31607 21.5587 2 20.7957 2 20V9C2 8.69141 2.14247 8.4001 2.38606 8.21065L11.3861 1.21065ZM4 9.48908V20C4 20.2652 4.10536 20.5196 4.29289 20.7071C4.48043 20.8946 4.73478 21 5 21H19C19.2652 21 19.5196 20.8946 19.7071 20.7071C19.8946 20.5196 20 20.2652 20 20V9.48908L12 3.26686L4 9.48908Z" fill="white"/>
<path fill-rule="evenodd" clip-rule="evenodd" d="M8 11.9167C8 11.4104 8.44772 11 9 11H15C15.5523 11 16 11.4104 16 11.9167V21.0833C16 21.5896 15.5523 22 15 22C14.4477 22 14 21.5896 14 21.0833V12.8333H10V21.0833C10 21.5896 9.55228 22 9 22C8.44772 22 8 21.5896 8 21.0833V11.9167Z" fill="white"/>
</svg>
