<svg width="32" height="32" viewBox="0 0 32 32" fill="none" xmlns="http://www.w3.org/2000/svg">
<path d="M11.3711 17.4668H7.71484V21H6.0625V12.4688H11.8281V13.8105H7.71484V16.1309H11.3711V17.4668ZM17.3594 19.2188H14.7988L14.2949 21H12.5605L15.3555 12.4688H16.8496L19.5918 21H17.8574L17.3594 19.2188ZM15.2031 17.8184H16.9727L16.0996 14.6777L15.2031 17.8184ZM23.2656 17.8125H22.0176V21H20.3711V12.4688H23.2305C23.7031 12.4688 24.1309 12.5254 24.5137 12.6387C24.8965 12.748 25.2246 12.9102 25.498 13.125C25.7676 13.3398 25.9746 13.6074 26.1191 13.9277C26.2676 14.248 26.3418 14.6191 26.3418 15.041C26.3418 15.3457 26.3047 15.6211 26.2305 15.8672C26.1602 16.1094 26.0586 16.3262 25.9258 16.5176C25.7891 16.7129 25.625 16.8828 25.4336 17.0273C25.2461 17.1719 25.0352 17.2969 24.8008 17.4023L26.6348 20.9238V21H24.8711L23.2656 17.8125ZM22.0176 16.4766H23.2363C23.4902 16.4766 23.7129 16.4414 23.9043 16.3711C24.0996 16.2969 24.2578 16.1914 24.3789 16.0547C24.4805 15.9453 24.5566 15.8145 24.6074 15.6621C24.6621 15.5098 24.6895 15.3398 24.6895 15.1523C24.6895 14.9258 24.6543 14.7266 24.584 14.5547C24.5176 14.3789 24.416 14.2344 24.2793 14.1211C24.1582 14.0195 24.0098 13.9414 23.834 13.8867C23.6582 13.832 23.457 13.8047 23.2305 13.8047H22.0176V16.4766Z" fill="white"/>
</svg>
