<svg width="24" height="24" viewBox="0 0 24 24" fill="none" xmlns="http://www.w3.org/2000/svg">
<path fill-rule="evenodd" clip-rule="evenodd" d="M7.55556 4.22222C7.55556 3.63285 7.78968 3.06762 8.20643 2.65087C8.62318 2.23413 9.18841 2 9.77778 2H13.1111C13.7005 2 14.2657 2.23413 14.6825 2.65087C15.0992 3.06762 15.3333 3.63285 15.3333 4.22222V5.33333H20.8889C21.1836 5.33333 21.4662 5.4504 21.6746 5.65877C21.8829 5.86714 22 6.14976 22 6.44444C22 6.73913 21.8829 7.02174 21.6746 7.23012C21.4662 7.43849 21.1836 7.55556 20.8889 7.55556H19.7778V18.6667C19.7778 19.5507 19.4266 20.3986 18.8015 21.0237C18.1763 21.6488 17.3285 22 16.4444 22H7.55556C6.6715 22 5.82365 21.6488 5.19853 21.0237C4.57341 20.3986 4.22222 19.5507 4.22222 18.6667V7.55556H3.11111C2.81643 7.55556 2.53381 7.43849 2.32544 7.23012C2.11706 7.02174 2 6.73913 2 6.44444C2 6.14976 2.11706 5.86714 2.32544 5.65877C2.53381 5.4504 2.81643 5.33333 3.11111 5.33333H7.55556V4.22222ZM9.77778 7.55556H6.44444V18.6667C6.44444 18.9614 6.56151 19.244 6.76988 19.4523C6.97826 19.6607 7.26087 19.7778 7.55556 19.7778H16.4444C16.7391 19.7778 17.0217 19.6607 17.2301 19.4523C17.4385 19.244 17.5556 18.9614 17.5556 18.6667V7.55556H9.77778ZM13.1111 5.33333H9.77778V4.22222H13.1111V5.33333ZM9.77778 8.66667C10.0725 8.66667 10.3551 8.78373 10.5635 8.9921C10.7718 9.20048 10.8889 9.48309 10.8889 9.77778V17.5556C10.8889 17.8502 10.7718 18.1329 10.5635 18.3412C10.3551 18.5496 10.0725 18.6667 9.77778 18.6667C9.48309 18.6667 9.20048 18.5496 8.9921 18.3412C8.78373 18.1329 8.66667 17.8502 8.66667 17.5556V9.77778C8.66667 9.48309 8.78373 9.20048 8.9921 8.9921C9.20048 8.78373 9.48309 8.66667 9.77778 8.66667ZM14.2222 8.66667C14.5169 8.66667 14.7995 8.78373 15.0079 8.9921C15.2163 9.20048 15.3333 9.48309 15.3333 9.77778V17.5556C15.3333 17.8502 15.2163 18.1329 15.0079 18.3412C14.7995 18.5496 14.5169 18.6667 14.2222 18.6667C13.9275 18.6667 13.6449 18.5496 13.4365 18.3412C13.2282 18.1329 13.1111 17.8502 13.1111 17.5556V9.77778C13.1111 9.48309 13.2282 9.20048 13.4365 8.9921C13.6449 8.78373 13.9275 8.66667 14.2222 8.66667Z" fill="#F63F3F"/>
</svg>
