<svg width="32" height="32" viewBox="0 0 32 32" fill="none" xmlns="http://www.w3.org/2000/svg">
<path fill-rule="evenodd" clip-rule="evenodd" d="M19.0572 7.89052C18.5365 8.41122 18.5365 9.25544 19.0572 9.77614L24.781 15.5L19.0572 21.2239C18.5365 21.7446 18.5365 22.5888 19.0572 23.1095C19.5779 23.6302 20.4221 23.6302 20.9428 23.1095L27.6095 16.4428C28.1302 15.9221 28.1302 15.0779 27.6095 14.5572L20.9428 7.89052C20.4221 7.36983 19.5779 7.36983 19.0572 7.89052Z" fill="white"/>
<path fill-rule="evenodd" clip-rule="evenodd" d="M28 15.5C28 14.7636 27.403 14.1667 26.6667 14.1667H10.6667C8.89856 14.1667 7.20286 14.8691 5.95262 16.1193C4.70238 17.3696 4 19.0652 4 20.8334V23.5C4 24.2364 4.59695 24.8334 5.33333 24.8334C6.06971 24.8334 6.66667 24.2364 6.66667 23.5V20.8334C6.66667 19.7725 7.08809 18.7551 7.83824 18.0049C8.58839 17.2548 9.6058 16.8334 10.6667 16.8334H26.6667C27.403 16.8334 28 16.2364 28 15.5Z" fill="white"/>
</svg>
