<svg width="32" height="32" viewBox="0 0 32 32" fill="none" xmlns="http://www.w3.org/2000/svg">
<path d="M18.568 17.198C18.661 17.6353 19.0948 17.9208 19.5101 17.7552C20.232 17.4673 20.8765 17.0054 21.3834 16.4056C22.0655 15.5984 22.4598 14.5873 22.504 13.5314C22.5483 12.4755 22.24 11.4349 21.6278 10.5735C21.1729 9.93333 20.5693 9.41915 19.874 9.07188C19.4741 8.8721 19.0179 9.12028 18.8886 9.54828C18.7594 9.97629 19.0102 10.4199 19.3911 10.6539C19.749 10.8737 20.0616 11.1645 20.3081 11.5114C20.7122 12.0799 20.9156 12.7667 20.8864 13.4636C20.8572 14.1605 20.597 14.8278 20.1468 15.3606C19.8721 15.6855 19.5363 15.9492 19.1613 16.1383C18.7621 16.3396 18.4751 16.7607 18.568 17.198Z" fill="white"/>
<path d="M6.92941 6.61741C6.865 6.15905 6.43941 5.83512 5.99089 5.94947C4.51729 6.32513 3.18294 7.13531 2.16681 8.28383C0.964739 9.64253 0.286914 11.3856 0.255253 13.1994C0.223592 15.0132 0.840174 16.7789 1.99409 18.1787C2.96952 19.362 4.27478 20.2182 5.73438 20.6451C6.17864 20.775 6.61526 20.4661 6.69564 20.0103C6.77602 19.5545 6.46877 19.1254 6.02875 18.9818C4.96151 18.6334 4.00885 17.9876 3.28749 17.1125C2.38743 16.0206 1.90649 14.6434 1.93119 13.2287C1.95588 11.8139 2.48459 10.4543 3.4222 9.39451C4.17367 8.54513 5.14828 7.93299 6.22704 7.62202C6.6718 7.49381 6.99383 7.07577 6.92941 6.61741Z" fill="white"/>
<path d="M9.43197 9.46681C9.33902 9.02949 8.90518 8.74401 8.48989 8.90962C7.768 9.19749 7.12351 9.65936 6.6166 10.2592C5.93448 11.0664 5.54025 12.0775 5.49599 13.1334C5.45174 14.1893 5.75998 15.2299 6.37216 16.0913C6.8271 16.7315 7.43069 17.2456 8.12595 17.5929C8.52592 17.7927 8.98213 17.5445 9.11136 17.1165C9.24058 16.6885 8.98982 16.2449 8.60885 16.0109C8.25096 15.791 7.93837 15.5002 7.69189 15.1534C7.28785 14.5849 7.08441 13.8981 7.11362 13.2012C7.14283 12.5043 7.40302 11.837 7.85322 11.3042C8.12785 10.9793 8.46368 10.7156 8.83872 10.5265C9.23793 10.3252 9.52493 9.90413 9.43197 9.46681Z" fill="white"/>
<path d="M20.6547 20.0622C20.7223 20.5151 21.1421 20.8344 21.5881 20.7309C23.1783 20.3618 24.6191 19.5455 25.7129 18.3819C26.9901 17.0232 27.7103 15.2802 27.7439 13.4664C27.7776 11.6525 27.1225 9.88691 25.8964 8.48709C24.846 7.28777 23.4355 6.4244 21.8592 6.00356C21.4178 5.88571 20.9884 6.18928 20.9042 6.63835C20.8176 7.10079 21.1303 7.53904 21.5806 7.67516C22.7263 8.02144 23.7492 8.67075 24.5222 9.55328C25.4785 10.6451 25.9895 12.0223 25.9633 13.4371C25.937 14.8519 25.3753 16.2115 24.379 17.2713C23.5728 18.129 22.5247 18.7448 21.3651 19.0528C20.9119 19.1732 20.5855 19.5985 20.6547 20.0622Z" fill="white"/>
<circle cx="13.9997" cy="13.3332" r="2.85714" fill="white"/>
<rect x="13" y="17.8823" width="2.35294" height="8.47059" rx="1" fill="white"/>
</svg>
