<svg width="22" height="22" viewBox="0 0 22 22" fill="none" xmlns="http://www.w3.org/2000/svg">
<g opacity="0.5">
<circle cx="11" cy="11" r="9" fill="#FF8200"/>
<circle cx="11" cy="11" r="9.75" stroke="#FF8200" stroke-opacity="0.5" stroke-width="1.5"/>
<path fill-rule="evenodd" clip-rule="evenodd" d="M7.325 10.9102C7.03505 10.9102 6.8 11.1513 6.8 11.4486V15.2179C6.8 15.5153 7.03505 15.7563 7.325 15.7563H14.675C14.9649 15.7563 15.2 15.5153 15.2 15.2179V11.4486C15.2 11.1513 14.9649 10.9102 14.675 10.9102H7.325ZM5.75 11.4486C5.75 10.5565 6.45515 9.83325 7.325 9.83325H14.675C15.5448 9.83325 16.25 10.5565 16.25 11.4486V15.2179C16.25 16.11 15.5448 16.8333 14.675 16.8333H7.325C6.45515 16.8333 5.75 16.11 5.75 15.2179V11.4486Z" fill="black"/>
<path d="M8.34545 10.4167C8.04889 10.4167 7.80624 10.2022 7.80624 9.93992V8.03263C7.80624 7.32216 8.10281 6.6403 8.64201 6.11103C9.18122 5.58175 9.91993 5.25275 10.718 5.18122C11.516 5.1097 12.314 5.3052 12.9611 5.7248C13.6081 6.14441 14.0502 6.76428 14.212 7.46044C14.2713 7.71792 14.0826 7.97064 13.7914 8.02309C13.5003 8.07554 13.2145 7.90865 13.1552 7.65117C13.0473 7.18865 12.7508 6.77858 12.3194 6.49249C11.888 6.21116 11.3542 6.08242 10.8258 6.1301C10.292 6.17778 9.80131 6.39712 9.44004 6.74997C9.07877 7.10282 8.88466 7.56057 8.88466 8.03263V9.93992C8.88466 10.2069 8.64201 10.4167 8.34545 10.4167Z" fill="black"/>
<rect x="4.5" y="4.5" width="13" height="13" stroke="#FF8200" stroke-opacity="0.5"/>
</g>
</svg>
