<svg width="238" height="100" viewBox="0 0 238 100" fill="none" xmlns="http://www.w3.org/2000/svg">
<g clip-path="url(#clip0_377_22585)">
<path d="M48.0227 0.70118H197.065C201.65 0.820025 206.358 1.88963 210.122 6.20766C213.887 10.5257 230.021 30.4441 231.648 32.5516C233.276 34.6591 235.059 37.3529 235.529 41.8017C235.998 46.2504 237.296 76.1122 237.296 80.2282C237.296 84.5621 235.998 86.321 235.059 88.3096C234.12 90.0646 232.707 92.9921 231.764 94.751C230.821 96.5099 227.649 99.1998 222.611 99.3147H37.8069C32.3945 99.3147 27.9253 97.3339 24.9844 93.3447C22.0275 89.4624 5.90983 67.3454 5.20543 66.157C4.01153 64.2871 3.08825 61.3596 1.44066 58.0795C0.39799 55.972 -0.0875291 52.6879 2.61864 48.9443C5.44023 45.2007 32.9676 9.60266 35.4191 6.79C37.9064 3.86245 42.1407 0.586296 48.0227 0.70118Z" fill="white"/>
<path d="M37.6714 100C32.1437 100 27.5551 97.8925 24.4987 93.7923C21.7925 90.1636 5.32467 67.797 4.60037 66.5095C3.84605 65.1489 3.18138 63.7409 2.61054 62.2945C2.13696 61.1061 1.55195 59.7195 0.843568 58.3132C0.135187 56.9069 -1.14627 53.1633 2.13696 48.5957C5.07793 44.6342 32.7247 9.01637 34.9573 6.32255C36.9471 3.98131 41.4282 -0.0158386 47.8992 -0.0158386H197.057C200.822 0.103006 206.35 0.804191 210.699 5.72041C212.936 8.41422 220.231 17.3157 231.756 31.4701L232.237 32.0881C234 34.3145 235.763 37.0043 236.237 41.6908C236.822 46.3733 238 76.231 238 80.2123C238.082 82.9272 237.386 85.6091 235.994 87.9452L235.644 88.6503C234.701 90.4053 233.292 93.3328 232.349 95.0878C231.41 96.9615 227.995 99.8891 222.587 100.008H37.6714V100ZM47.9071 1.28749C41.9058 1.28749 37.8067 4.91622 35.9084 7.1307C33.6718 9.82451 6.02907 45.3037 3.20351 49.285C0.266516 53.2663 1.32511 56.4156 2.00961 57.715C2.71401 59.1213 3.303 60.5277 3.89199 61.8152C4.45218 63.1728 5.08043 64.5015 5.77438 65.7965C6.36337 66.8502 22.5964 88.9791 25.5374 92.9604C28.3789 96.7199 32.6332 98.7125 37.8067 98.7125H222.861C227.685 98.5937 230.626 96.1336 231.449 94.4975C232.389 92.6237 233.801 89.811 234.741 88.0561L235.095 87.3549C236.034 85.7149 236.858 83.9559 236.977 80.2242C236.977 75.6606 235.684 46.1554 235.214 41.8175C234.925 38.5327 233.609 35.4207 231.449 32.92L230.976 32.3337C216.51 14.4198 211.567 8.44591 209.923 6.58401C206.863 3.07413 202.863 1.43407 197.336 1.31522H47.9071V1.28749Z" fill="#231F20"/>
<path d="M32.0243 91.9067C26.6159 91.9067 23.7904 89.7991 17.204 80.7828C10.8525 72.2497 2.02955 59.9532 1.91016 59.8186L2.49915 59.4699C2.61854 59.5848 11.3221 71.8813 17.6736 80.4302C24.1446 89.2089 26.8507 91.2015 32.0243 91.2015H226.59C230.47 90.9678 234.47 89.094 235.529 86.9865L236.118 87.3391C234.924 89.6803 230.705 91.7878 226.59 91.9027L32.0243 91.9067Z" fill="#231F20"/>
<path d="M193.77 3.39499C198.474 3.39499 201.534 3.98129 204.591 7.61002C207.647 11.2387 225.766 33.6053 227.275 35.4791C229.056 37.6697 230.051 40.3902 230.1 43.208C230.1 46.2544 230.805 60.5396 230.57 64.2871C230.335 68.1496 227.159 70.9583 223.04 71.0771H49.316C43.7882 70.9583 41.4363 69.5559 38.8495 66.8621C36.2587 64.0494 29.557 56.9069 27.5552 54.3319C25.3186 51.5232 26.3613 49.4157 27.6746 47.423C29.2028 45.5493 50.9636 12.8788 53.0808 9.48381C55.0706 6.20765 58.8473 3.39499 63.4279 3.39499H193.77Z" fill="white"/>
<path d="M49.4354 71.5446C43.7883 71.4297 41.4363 70.0234 38.7301 67.2147C36.024 64.406 29.4496 57.1406 27.4358 54.5656C25.0839 51.6381 26.1425 49.2968 27.5552 47.3082C29.0834 45.2006 50.8482 12.5302 52.7306 9.36893C55.198 5.50251 59.0822 3.16919 63.3165 3.16919H193.651C198.585 3.16919 201.65 3.86245 204.71 7.49514C207.77 11.1278 226.121 33.7242 227.414 35.3643C229.171 37.6577 230.158 40.4436 230.236 43.3269C230.236 44.3806 230.355 46.7219 230.47 49.4157C230.705 55.0331 230.94 61.9419 230.825 64.402C230.59 68.3833 227.295 71.4297 223.06 71.5327L49.4354 71.5446ZM63.4319 3.74757C59.4523 3.74757 55.6676 5.96997 53.435 9.71754C51.4452 12.8867 29.557 45.5493 28.1442 47.6568C26.9503 49.4157 25.7922 51.4043 28.0248 54.0982C30.0147 56.6731 36.613 63.8157 39.3191 66.6284C41.9059 69.3222 44.1425 70.7246 49.5509 70.7246H223.295C227.179 70.6097 230.236 67.797 230.459 64.1683C230.578 61.7082 230.343 54.4507 230.108 49.1819C229.989 46.4881 229.87 44.1469 229.87 43.0892C229.85 40.359 228.897 37.7169 227.167 35.598C225.755 33.9579 207.52 11.3576 204.344 7.84375C201.403 4.44875 198.462 3.88226 193.758 3.74757H63.4319Z" fill="#231F20"/>
<path d="M224.943 46.3693C227.884 50.1169 225.882 59.2521 219.415 60.3058H180.812C167.52 60.187 153.989 49.2968 154.109 33.7242C154.228 18.1516 167.755 8.19632 181.17 8.19632C193.412 8.31913 200.945 16.7452 201.65 17.799C203.886 20.7265 222.356 43.0892 224.943 46.3693Z" fill="white"/>
<path d="M180.832 60.6545C174.126 60.6545 167.301 57.8457 162.243 53.0444C159.556 50.5646 157.416 47.5563 155.958 44.2101C154.5 40.8638 153.757 37.2527 153.774 33.6054C153.894 17.5653 168.01 7.72888 181.067 7.72888H181.182C194.239 7.84377 201.876 17.3315 201.876 17.4464C202.935 18.8528 207.754 24.5771 212.697 30.7967C218.11 37.4718 223.753 44.3806 225.165 46.1356C226.813 48.1163 227.048 51.8718 225.754 55.0331C224.561 58.0795 222.225 60.0682 219.387 60.5396L180.832 60.6545ZM181.075 8.43007C168.368 8.43007 154.606 18.0327 154.491 33.6054C154.485 37.1428 155.213 40.6433 156.63 43.8875C158.047 47.1316 160.122 50.0494 162.725 52.4581C167.775 57.1406 174.361 59.8186 180.832 59.8186H219.435C221.902 59.3511 224.023 57.5962 225.197 54.6686C226.371 51.7411 226.141 48.3302 224.728 46.4723C223.315 44.7134 217.787 37.8045 212.259 31.1334C207.201 25.0406 202.493 19.1895 201.435 17.7832C201.319 17.6643 193.909 8.41422 181.202 8.29934L181.075 8.43007Z" fill="#231F20"/>
<path d="M173.772 94.0261H201.888C202.947 94.0261 204.006 95.3175 202.004 95.4324H173.418C172.598 95.4324 171.89 94.3786 173.772 94.0261Z" fill="white"/>
<path d="M173.418 95.785C173.155 95.7911 172.899 95.6976 172.703 95.5233C172.506 95.349 172.384 95.107 172.359 94.8461C172.359 94.4975 172.479 93.9112 173.772 93.6775H201.889C202.708 93.6775 203.417 94.2598 203.417 94.8461C203.417 95.1987 203.182 95.6661 202.004 95.785H173.418ZM173.772 94.3786C173.068 94.4975 172.948 94.7312 172.948 94.8461C172.982 94.9451 173.045 95.0317 173.128 95.0946C173.212 95.1575 173.313 95.1938 173.418 95.1987H202.004C202.298 95.2249 202.592 95.1416 202.828 94.9649C202.733 94.8056 202.594 94.6768 202.427 94.5939C202.261 94.5111 202.074 94.4776 201.889 94.4975L173.772 94.3786Z" fill="#231F20"/>
<path d="M229.766 94.1449C230.12 94.2598 230.12 96.1257 226.94 96.8387C222.121 98.0272 219.885 97.1874 220.573 96.0187C221.262 94.8501 222.105 95.5513 225.516 94.965C228.926 94.3787 228.942 93.6775 229.766 94.1449Z" fill="white"/>
<path d="M222.941 97.7736C221.647 97.7736 220.708 97.5399 220.354 97.0724C220.24 96.9204 220.178 96.7355 220.178 96.5456C220.178 96.3556 220.24 96.1708 220.354 96.0187C220.824 95.1987 221.548 95.0798 222.591 95.0798C223.295 95.0798 224.238 94.9649 225.532 94.8461C226.551 94.7397 227.546 94.4624 228.473 94.0261C229.062 93.7923 229.412 93.6775 229.881 94.0261C230.004 94.0955 230.103 94.1996 230.166 94.3251C230.229 94.4506 230.253 94.592 230.236 94.7312C230.236 95.0798 230.001 96.712 227.052 97.3062C225.693 97.5515 224.32 97.7076 222.941 97.7736ZM229.308 94.3786C229.106 94.3798 228.906 94.4201 228.719 94.4975C227.741 94.9081 226.712 95.1839 225.659 95.3175C224.366 95.5512 223.426 95.5512 222.718 95.6661C221.524 95.6661 221.309 95.785 220.955 96.2524C220.836 96.4862 220.955 96.605 220.955 96.605C221.309 97.0725 223.192 97.425 227.072 96.4862C228.835 96.1336 229.424 95.4324 229.659 94.9649C229.745 94.7819 229.786 94.5808 229.778 94.3786H229.308Z" fill="#231F20"/>
<path d="M181.075 10.0701C195.425 10.3038 206.147 22.1329 206.147 33.9579C206.027 46.3693 196.146 58.0795 181.795 58.0795C167.444 57.9606 155.927 47.3082 156.035 33.3716C156.126 20.0214 167.775 9.83638 181.075 10.0701Z" fill="#AFAFAF"/>
<path d="M182.006 58.432H181.891C167.066 58.3132 155.541 47.3082 155.657 33.2567C155.68 30.1769 156.316 27.1321 157.528 24.2981C158.739 21.4642 160.503 18.8972 162.717 16.7452C167.54 12.0628 174.258 9.48383 181.182 9.48383C196.357 9.71755 206.827 22.4815 206.708 33.8391C206.592 45.783 197.18 58.432 182.006 58.432ZM180.593 10.5376C174.148 10.5095 167.946 12.982 163.302 17.4306C161.151 19.4786 159.439 21.9378 158.267 24.6607C157.095 27.3836 156.487 30.3142 156.48 33.2766C156.361 46.7456 167.54 57.3981 181.771 57.513H181.891C196.476 57.513 205.534 45.3353 205.534 33.9777C205.534 23.2064 195.533 10.91 180.947 10.6762C180.947 10.5376 180.832 10.5376 180.593 10.5376Z" fill="#231F20"/>
<path d="M215.65 42.7406C216.7 42.7248 217.743 42.9153 218.72 43.301C219.696 43.6868 220.587 44.2603 221.34 44.9887C222.094 45.7171 222.696 46.5862 223.112 47.5464C223.528 48.5065 223.75 49.5388 223.765 50.5843C223.765 54.217 221.178 58.0795 216.004 58.0795C211.062 57.9606 207.886 53.9793 207.886 50.2357C207.993 48.2425 208.853 46.3633 210.293 44.9737C211.732 43.5841 213.645 42.7866 215.65 42.7406Z" fill="#AFAFAF"/>
<path d="M216.12 58.6658H216.004C214.846 58.6652 213.698 58.4371 212.628 57.9946C211.558 57.5521 210.586 56.9038 209.768 56.0868C208.293 54.5335 207.454 52.4877 207.416 50.3506C207.536 48.2162 208.466 46.2067 210.017 44.7285C211.569 43.2503 213.626 42.4138 215.774 42.388C216.898 42.3652 218.015 42.5668 219.059 42.9809C220.104 43.395 221.054 44.0132 221.855 44.799C222.655 45.5847 223.29 46.5222 223.72 47.556C224.151 48.5898 224.369 49.699 224.362 50.8181C224.365 52.9647 223.521 55.0266 222.01 56.5583C220.364 57.9416 218.274 58.6896 216.12 58.6658ZM215.766 43.3269C213.877 43.3145 212.055 44.0242 210.676 45.3098C209.297 46.5953 208.467 48.3585 208.355 50.2357C208.353 51.1732 208.539 52.1017 208.902 52.9665C209.266 53.8312 209.8 54.6148 210.473 55.2708C211.182 56.0211 212.039 56.6167 212.991 57.0197C213.944 57.4227 214.97 57.6244 216.004 57.612C218.122 57.612 220.004 57.0257 221.297 55.6313C222.595 54.2755 223.309 52.4687 223.287 50.5962C223.287 48.7279 222.576 46.9289 221.297 45.5612C220.574 44.8368 219.711 44.2654 218.761 43.8815C217.81 43.4975 216.791 43.3089 215.766 43.3269Z" fill="#231F20"/>
<path d="M181.656 53.8763C181.488 53.8835 181.322 53.8434 181.176 53.7607C181.031 53.678 180.911 53.5561 180.832 53.4089C180.593 53.1712 179.3 51.0637 178.126 49.075L177.537 48.0212C177.302 47.5538 177.183 47.0824 177.418 46.8328C177.522 46.72 177.65 46.6306 177.792 46.5705C177.934 46.5104 178.087 46.481 178.241 46.4842H184.832C185.014 46.4826 185.195 46.5242 185.358 46.6054C185.521 46.6867 185.663 46.8053 185.771 46.9516C185.839 47.1033 185.865 47.2709 185.843 47.4358C185.822 47.6008 185.756 47.7568 185.652 47.8866C185.536 48.0054 185.301 48.5917 184.832 49.2929C183.773 51.1667 182.715 53.0405 182.476 53.393C182.387 53.5311 182.266 53.6457 182.124 53.7271C181.981 53.8085 181.82 53.8543 181.656 53.8605V53.8763ZM178.126 47.0824C178.007 47.0824 178.007 47.0824 178.007 47.2012C177.998 47.4034 178.039 47.6045 178.126 47.7875L178.715 48.7224C179.535 50.1288 181.182 52.8226 181.417 53.0563C181.537 53.1712 181.656 53.29 181.771 53.29C181.832 53.2863 181.89 53.2605 181.933 53.2174C181.976 53.1744 182.002 53.1171 182.006 53.0563C182.241 52.7037 183.534 50.4813 184.358 49.075C184.712 48.3738 185.067 47.8866 185.182 47.6687C185.21 47.6489 185.233 47.6228 185.248 47.5924C185.264 47.5621 185.272 47.5285 185.272 47.4944C185.272 47.4603 185.264 47.4266 185.248 47.3963C185.233 47.366 185.21 47.3398 185.182 47.3201C185.182 47.2012 184.947 47.2012 184.832 47.2012H181.891C180.243 47.0824 178.707 47.0824 178.126 47.0824Z" fill="#231F20"/>
<path d="M166.951 37.4718C166.709 37.4817 166.468 37.4412 166.243 37.3529C165.892 37.238 163.302 35.8317 160.95 34.4254L160.381 34.0688C160.214 34.0081 160.069 33.9012 159.962 33.7608C159.854 33.6204 159.79 33.4523 159.776 33.2765C159.792 33.0698 159.867 32.8719 159.991 32.7057C160.116 32.5395 160.285 32.4119 160.48 32.3377C160.834 32.1039 163.067 30.9313 164.48 30.1113L165.773 29.4101C166.127 29.1764 166.716 28.9427 167.066 29.1764C167.54 29.4101 167.421 29.9964 167.421 30.1113C167.421 30.8165 167.421 34.564 167.54 35.9664V36.4378C167.552 36.59 167.526 36.7428 167.465 36.8826C167.403 37.0223 167.307 37.1444 167.186 37.238C167.301 37.4718 167.066 37.4718 166.951 37.4718ZM166.832 29.8578C166.716 29.8578 166.597 29.8578 166.243 30.0915L164.949 30.7967C163.421 31.6167 161.304 32.7774 160.95 33.0191C160.715 33.1379 160.599 33.2567 160.599 33.3716C160.599 33.4865 160.715 33.4905 160.834 33.6054L161.419 33.9579C162.717 34.6591 166.243 36.6517 166.593 36.8855C166.744 36.9435 166.902 36.9821 167.062 37.0004V36.2992C167.062 34.8928 166.947 31.1492 166.947 30.4441C166.947 29.9766 166.947 29.8578 166.828 29.8578H166.832Z" fill="#231F20"/>
<path d="M195.887 37.4718C195.722 37.4894 195.555 37.4472 195.418 37.3529C195.252 37.2639 195.119 37.1264 195.035 36.9592C194.951 36.7919 194.921 36.603 194.948 36.418V34.3105C194.948 32.7853 194.829 30.9115 194.948 30.349C194.919 30.1459 194.946 29.9388 195.026 29.7498C195.106 29.5607 195.236 29.3968 195.402 29.2754C195.756 29.0378 196.226 29.1566 196.93 29.5092C197.519 29.8578 200.93 31.8504 201.873 32.4367L202.107 32.5516C202.458 32.7853 202.693 33.0191 202.693 33.3716C202.693 33.6054 202.577 33.9579 201.988 34.3105C201.284 34.778 197.165 37.1192 196.695 37.3529C196.435 37.4408 196.162 37.481 195.887 37.4718ZM195.533 30.3411V36.418C195.533 36.5329 195.533 36.7666 195.652 36.7666C195.772 36.8855 195.887 36.7666 196.122 36.6517C196.592 36.418 200.711 34.0728 201.415 33.6054C201.562 33.5309 201.684 33.417 201.769 33.2766C201.769 33.1577 201.65 33.1577 201.534 33.0389L201.3 32.924C200.356 32.3377 196.946 30.4639 196.357 30.1113C195.887 29.8776 195.533 29.7627 195.533 29.8776V30.349V30.3411Z" fill="#231F20"/>
<path d="M184.358 20.4928H177.656C177.183 20.4928 176.832 20.374 176.713 20.0214C176.594 19.9065 176.478 19.5539 176.713 18.9676C176.832 18.619 177.537 17.5653 178.241 16.3927C178.798 15.5622 179.309 14.7027 179.773 13.8177C180.124 13.3502 180.358 12.9977 180.713 12.9977C181.067 12.9977 181.302 13.1165 181.536 13.584C181.656 13.8177 182.36 14.8714 183.065 16.0401C183.888 17.3315 184.712 18.7339 184.947 18.9676C185.051 19.1208 185.115 19.2965 185.136 19.48C185.157 19.6634 185.133 19.8491 185.066 20.0214C185.054 20.2591 184.712 20.4928 184.358 20.4928ZM177.656 19.8075H184.358C184.477 19.8075 184.593 19.8075 184.593 19.6926C184.712 19.5737 184.593 19.4588 184.477 19.34C184.243 18.9874 183.419 17.6999 182.595 16.2976C181.891 15.1091 181.182 14.0712 181.067 13.8375C180.951 13.6038 180.832 13.6038 180.832 13.6038C180.638 13.7183 180.475 13.8789 180.358 14.0712C180.124 14.5387 179.419 15.5924 178.83 16.6462C178.126 17.8346 177.417 18.8725 177.302 19.2251C177.257 19.2704 177.223 19.3253 177.202 19.3857C177.181 19.4461 177.175 19.5104 177.183 19.5737C177.417 19.8075 177.537 19.8075 177.656 19.8075Z" fill="#231F20"/>
<path d="M218.002 54.0982H213.533V52.3432H217.767C218.472 52.3432 218.961 51.4044 218.961 50.8181C218.926 50.4582 218.846 50.1042 218.722 49.7643C218.488 49.4157 218.253 49.182 217.899 49.182H214.106V50.3506L210.922 48.2431L214.106 46.0167V47.3082H217.751C218.617 47.3628 219.429 47.7448 220.021 48.376C220.613 49.0071 220.94 49.8397 220.935 50.7032C220.963 51.1285 220.905 51.5551 220.763 51.9574C220.621 52.3596 220.4 52.7294 220.111 53.0444C219.864 53.369 219.546 53.6327 219.18 53.8154C218.814 53.9981 218.411 54.0948 218.002 54.0982ZM214.237 53.397H218.002C218.322 53.3968 218.637 53.3227 218.923 53.1803C219.209 53.038 219.458 52.8315 219.65 52.577C220.136 52.0342 220.389 51.3229 220.354 50.5962C220.333 49.9115 220.085 49.253 219.65 48.7224C219.449 48.4403 219.184 48.2088 218.878 48.0465C218.571 47.8841 218.23 47.7955 217.883 47.7875H213.648V47.0824L212.355 48.0212L213.648 48.8413V48.255H218.002C218.305 48.2548 218.6 48.3439 218.852 48.511C219.103 48.6781 219.299 48.9158 219.415 49.1938C219.66 49.6201 219.781 50.1055 219.765 50.5962C219.765 51.5351 219.061 52.7037 218.002 52.7037H214.357L214.237 53.397Z" fill="#231F20"/>
<path d="M156.715 56.0868C157.112 56.1138 157.486 56.2833 157.767 56.5637C158.048 56.8442 158.217 57.2167 158.243 57.612C158.248 57.7923 158.214 57.9714 158.143 58.1374C158.072 58.3034 157.966 58.4524 157.833 58.5744C157.699 58.6963 157.541 58.7884 157.369 58.8445C157.197 58.9006 157.015 58.9193 156.835 58.8995C155.891 58.7807 155.187 58.3132 155.187 57.4932C155.193 57.3005 155.238 57.1109 155.318 56.9355C155.398 56.7601 155.513 56.6024 155.655 56.4715C155.798 56.3407 155.964 56.2393 156.146 56.1732C156.328 56.1072 156.522 56.0778 156.715 56.0868Z" fill="white"/>
<path d="M156.835 59.2521C155.776 59.2521 154.845 58.5469 154.952 57.612C154.963 57.1497 155.153 56.7093 155.481 56.3819C155.809 56.0545 156.251 55.8652 156.715 55.8531C157.198 55.8707 157.655 56.0774 157.986 56.4283C158.317 56.7791 158.495 57.2458 158.482 57.7269C158.467 58.1466 158.284 58.5429 157.976 58.8289C157.667 59.1149 157.256 59.2671 156.835 59.2521ZM156.715 56.4394C156.399 56.4394 156.095 56.5646 155.871 56.7875C155.647 57.0104 155.521 57.3127 155.521 57.6279C155.556 57.9371 155.71 58.2206 155.952 58.4176C156.194 58.6146 156.504 58.7094 156.815 58.6816C156.954 58.6827 157.092 58.6561 157.221 58.6036C157.35 58.551 157.467 58.4734 157.566 58.3753C157.664 58.2773 157.742 58.1607 157.795 58.0324C157.848 57.904 157.874 57.7665 157.873 57.6279C157.754 57.1565 157.284 56.4394 156.679 56.4394H156.715Z" fill="#231F20"/>
<path d="M181.537 42.0354C179.035 42.0392 176.631 41.0746 174.831 39.3456C174.056 38.5634 173.456 37.6266 173.071 36.5969C172.686 35.5671 172.525 34.4679 172.598 33.3716C172.714 27.7503 177.772 25.1753 181.302 25.1753C182.423 25.1892 183.53 25.424 184.559 25.8659C185.588 26.3079 186.52 26.9483 187.299 27.7503C188.112 28.5152 188.753 29.4432 189.179 30.4731C189.605 31.5029 189.807 32.611 189.77 33.7242C189.797 35.909 188.951 38.015 187.418 39.5793C186.661 40.3703 185.748 40.9968 184.736 41.4195C183.723 41.8422 182.634 42.0519 181.537 42.0354ZM181.302 26.1142C178.118 26.1142 173.657 28.3366 173.657 33.3716C173.614 35.282 174.328 37.1324 175.647 38.5216C177.251 40.0839 179.403 40.9646 181.648 40.9777C182.61 41.0046 183.568 40.831 184.458 40.4681C185.349 40.1051 186.154 39.5609 186.822 38.8702C188.159 37.4835 188.916 35.6423 188.939 33.7202C188.934 32.7389 188.734 31.7682 188.351 30.864C187.968 29.9599 187.409 29.1399 186.706 28.4514C185.251 27.0429 183.329 26.2118 181.302 26.1142Z" fill="#231F20"/>
<path d="M142.954 60.3058H63.5514C61.993 60.3006 60.5 59.6821 59.398 58.5851C58.2961 57.4882 57.6747 56.002 57.6694 54.4507V13.6988C57.6736 12.1473 58.2947 10.6604 59.3969 9.56329C60.499 8.46615 61.9927 7.84793 63.5514 7.84375H142.954C144.513 7.84793 146.007 8.46602 147.11 9.56304C148.212 10.6601 148.834 12.1469 148.84 13.6988V54.4507C148.847 55.222 148.7 55.9871 148.407 56.7011C148.113 57.415 147.68 58.0636 147.132 58.6089C146.584 59.1541 145.932 59.585 145.215 59.8764C144.497 60.1678 143.729 60.3138 142.954 60.3058Z" fill="white"/>
<path d="M142.954 60.8882H63.5513C62.7011 60.8908 61.8588 60.7261 61.0728 60.4035C60.2868 60.081 59.5725 59.607 58.9712 59.0087C58.3698 58.4105 57.8932 57.6998 57.5687 56.9176C57.2442 56.1354 57.0782 55.297 57.0803 54.4507V13.6988C57.0782 12.8525 57.2442 12.0142 57.5687 11.232C57.8932 10.4497 58.3698 9.73906 58.9712 9.14082C59.5725 8.54258 60.2868 8.06857 61.0728 7.74603C61.8588 7.4235 62.7011 7.2588 63.5513 7.26141H142.954C144.665 7.27588 146.301 7.95863 147.512 9.16265C148.722 10.3667 149.409 11.9957 149.425 13.6988V54.4507C149.427 55.297 149.261 56.1354 148.936 56.9176C148.612 57.6998 148.135 58.4105 147.534 59.0087C146.932 59.607 146.218 60.081 145.432 60.4035C144.646 60.7261 143.804 60.8908 142.954 60.8882ZM63.5513 8.5489C62.8553 8.54575 62.1656 8.67989 61.522 8.94355C60.8784 9.20722 60.2937 9.5952 59.8016 10.0851C59.3094 10.575 58.9197 11.157 58.6548 11.7977C58.3899 12.4384 58.2552 13.1249 58.2583 13.8177V54.5656C58.2552 55.2584 58.3899 55.9449 58.6548 56.5856C58.9197 57.2263 59.3094 57.8083 59.8016 58.2982C60.2937 58.7881 60.8784 59.1761 61.522 59.4397C62.1656 59.7034 62.8553 59.8375 63.5513 59.8344H142.954C143.65 59.8375 144.339 59.7034 144.983 59.4397C145.626 59.1761 146.211 58.7881 146.703 58.2982C147.195 57.8083 147.585 57.2263 147.85 56.5856C148.115 55.9449 148.25 55.2584 148.247 54.5656V13.6988C148.25 13.0061 148.115 12.3195 147.85 11.6788C147.585 11.0382 147.195 10.4561 146.703 9.96623C146.211 9.47635 145.626 9.08837 144.983 8.82471C144.339 8.56104 143.65 8.42691 142.954 8.43005H63.5513V8.5489Z" fill="#231F20"/>
<path d="M142.719 57.4932H64.0209C63.1164 57.4932 62.2489 57.1355 61.6093 56.4988C60.9697 55.8621 60.6104 54.9986 60.6104 54.0982V13.9326C60.6114 13.0325 60.9711 12.1696 61.6104 11.5331C62.2498 10.8966 63.1167 10.5386 64.0209 10.5376H142.599C143.504 10.5386 144.371 10.8966 145.01 11.5331C145.649 12.1696 146.009 13.0325 146.01 13.9326V54.0982C146.034 54.5401 145.965 54.9822 145.81 55.3968C145.654 55.8114 145.415 56.1897 145.106 56.5082C144.797 56.8267 144.426 57.0785 144.015 57.2479C143.605 57.4174 143.163 57.5008 142.719 57.4932Z" fill="#AFAFAF"/>
<path d="M142.719 57.8378H64.0209C63.5248 57.8442 63.0323 57.7516 62.5727 57.5656C62.113 57.3795 61.6954 57.1037 61.3445 56.7544C60.9937 56.4051 60.7166 55.9894 60.5297 55.5319C60.3428 55.0743 60.2498 54.5841 60.2562 54.0902V13.9326C60.2497 13.4388 60.3428 12.9488 60.5297 12.4915C60.7167 12.0342 60.9938 11.6187 61.3448 11.2698C61.6957 10.9208 62.1133 10.6454 62.573 10.4597C63.0326 10.2741 63.5249 10.182 64.0209 10.189H142.599C143.095 10.182 143.588 10.2741 144.047 10.4597C144.507 10.6454 144.925 10.9208 145.276 11.2698C145.627 11.6187 145.904 12.0342 146.091 12.4915C146.278 12.9488 146.371 13.4388 146.364 13.9326V54.0982C146.373 54.5823 146.285 55.0633 146.106 55.5135C145.927 55.9638 145.661 56.3745 145.322 56.7219C144.983 57.0694 144.579 57.3469 144.132 57.5384C143.686 57.7299 143.205 57.8316 142.719 57.8378ZM64.0209 10.8901C63.2148 10.9044 62.4457 11.2295 61.8756 11.797C61.3055 12.3645 60.9789 13.1301 60.9646 13.9326V54.0982C60.9779 54.9009 61.3041 55.6671 61.8745 56.2348C62.4448 56.8025 63.2145 57.1273 64.0209 57.1406H142.599C143.406 57.1274 144.176 56.8027 144.747 56.2351C145.318 55.6675 145.645 54.9013 145.66 54.0982V13.9326C145.644 13.1298 145.317 12.3642 144.746 11.7967C144.176 11.2293 143.406 10.9044 142.599 10.8901H64.0209Z" fill="#231F20"/>
<path d="M84.6078 81.9673L84.1382 85.1365H81.9016L83.195 76.9401H98.7157L98.4809 78.8139H85.0694L84.8346 80.1014H98.1267L97.8919 81.9752L84.6078 81.9673Z" fill="#AFAFAF"/>
<path d="M101.78 76.9322L100.841 83.2706H114.133L113.898 85.1444H98.2539L99.5473 76.9481L101.78 76.9322Z" fill="#AFAFAF"/>
<path d="M118.252 76.9322L116.955 85.1286H114.722L116.015 76.9322H118.252Z" fill="#AFAFAF"/>
<path d="M120.604 81.9673L120.13 85.1365H117.898L119.191 76.9401H132.483C133.049 76.9346 133.596 77.1443 134.011 77.5264C134.195 77.6823 134.335 77.8827 134.418 78.1082C134.501 78.3338 134.524 78.5769 134.485 78.8139L134.246 80.1014C134.134 80.6135 133.844 81.0696 133.426 81.3889C132.954 81.7539 132.377 81.9593 131.779 81.9752L120.604 81.9673ZM121.073 78.7981L120.839 80.0856H131.894L132.129 78.7981H121.073Z" fill="#AFAFAF"/>
<path d="M136.952 81.9673L136.483 85.1365H134.246L135.543 76.9401H148.84C149.405 76.9354 149.952 77.145 150.368 77.5264C150.552 77.682 150.692 77.8825 150.774 78.1082C150.856 78.334 150.878 78.5772 150.837 78.8139L150.603 80.1014C150.489 80.6138 150.197 81.0698 149.779 81.3889C149.307 81.7554 148.729 81.961 148.131 81.9752L136.952 81.9673ZM137.426 78.7981L137.187 80.0856H148.247L148.481 78.7981H137.426Z" fill="#AFAFAF"/>
<path d="M166.477 83.2548L166.243 85.1286H150.722L152.023 76.9322H167.544L167.305 78.806H154.013L153.778 80.0935H166.955L166.72 81.9673H153.42L153.185 83.2548H166.477Z" fill="#AFAFAF"/>
<path d="M169.773 81.9673L169.303 85.1365H167.066L168.36 76.9401H181.656C182.221 76.9362 182.767 77.1457 183.184 77.5264C183.367 77.6825 183.507 77.883 183.589 78.1086C183.671 78.3343 183.694 78.5772 183.654 78.8139L183.419 80.1014C183.419 80.3351 183.184 80.5689 182.949 80.8026C182.734 80.9332 182.492 81.0131 182.241 81.0363C182.492 81.061 182.734 81.1423 182.949 81.274C183.184 81.5078 183.184 81.6226 183.184 81.9752L182.714 85.1444H180.478L180.947 81.9752L169.773 81.9673ZM181.075 80.0935L181.31 78.806H170.242L170.007 80.0935H181.075Z" fill="#AFAFAF"/>
<path d="M101.899 41.9205H101.195H100.606H99.8977V42.6217H100.606H101.195H101.899H102.488H103.193V41.9205H102.488H101.899Z" fill="black"/>
<path d="M82.2557 41.9205H81.6667V42.5068H82.2557H82.9601V41.9205H82.2557Z" fill="black"/>
<path d="M69.2616 41.6887L69.2581 42.3899L69.9624 42.3935L69.966 41.6923L69.2616 41.6887Z" fill="black"/>
<path d="M67.9616 41.7922L67.958 42.4934L68.6624 42.497L68.666 41.7958L67.9616 41.7922Z" fill="black"/>
<path d="M66.6657 41.7763L66.6621 42.4775L67.3665 42.481L67.3701 41.7799L66.6657 41.7763Z" fill="black"/>
<path d="M104.486 41.3342H103.782V40.633H103.193H102.488V41.3342H103.193V41.9205H103.782L104.486 42.0354H105.194H105.779V41.3342H105.194H104.486Z" fill="black"/>
<path d="M81.0094 41.2031L81.0059 41.9043L81.7102 41.9078L81.7138 41.2067L81.0094 41.2031Z" fill="black"/>
<path d="M69.8615 41.1114L69.8579 41.8126L70.5623 41.8161L70.5659 41.115L69.8615 41.1114Z" fill="black"/>
<path d="M68.5617 41.0955L68.5581 41.7966L69.2625 41.8002L69.2661 41.099L68.5617 41.0955Z" fill="black"/>
<path d="M67.2655 41.0756L67.262 41.7767L67.9664 41.7803L67.9699 41.0791L67.2655 41.0756Z" fill="black"/>
<path d="M65.9696 41.0596L65.9661 41.7608L66.6705 41.7643L66.674 41.0632L65.9696 41.0596Z" fill="black"/>
<path d="M106.488 40.7479L105.78 40.633V41.3342H106.488H107.077H107.781V40.7479H107.077H106.488Z" fill="black"/>
<path d="M70.5775 40.4186L70.574 41.1198L71.2784 41.1233L71.2819 40.4222L70.5775 40.4186Z" fill="black"/>
<path d="M69.2775 40.3987L69.2739 41.0999L69.9783 41.1034L69.9819 40.4023L69.2775 40.3987Z" fill="black"/>
<path d="M67.9816 40.3827L67.978 41.0839L68.6824 41.0875L68.686 40.3863L67.9816 40.3827Z" fill="black"/>
<path d="M66.6857 40.4823L66.6821 41.1834L67.3865 41.187L67.3901 40.4858L66.6857 40.4823Z" fill="black"/>
<path d="M65.3817 40.4623L65.3782 41.1635L66.0825 41.1671L66.0861 40.4659L65.3817 40.4623Z" fill="black"/>
<path d="M107.781 40.0467V40.7479H108.37H109.075V40.0467H108.37H107.781Z" fill="black"/>
<path d="M101.899 40.633H102.488V40.0467H101.899H101.195V40.633H101.899Z" fill="black"/>
<path d="M69.8776 39.8213L69.874 40.5225L70.5784 40.5261L70.582 39.8249L69.8776 39.8213Z" fill="black"/>
<path d="M68.5775 39.8054L68.574 40.5066L69.2783 40.5101L69.2819 39.8089L68.5775 39.8054Z" fill="black"/>
<path d="M67.2816 39.7855L67.2781 40.4867L67.9825 40.4902L67.986 39.789L67.2816 39.7855Z" fill="black"/>
<path d="M65.9857 39.7696L65.9822 40.4707L66.6866 40.4743L66.6901 39.7731L65.9857 39.7696Z" fill="black"/>
<path d="M64.6857 39.7496L64.6821 40.4508L65.3865 40.4544L65.3901 39.7532L64.6857 39.7496Z" fill="black"/>
<path d="M69.2975 39.1086L69.2939 39.8098L69.9983 39.8134L70.0019 39.1122L69.2975 39.1086Z" fill="black"/>
<path d="M67.9977 39.0927L67.9941 39.7939L68.6985 39.7974L68.7021 39.0962L67.9977 39.0927Z" fill="black"/>
<path d="M66.7016 39.1883L66.698 39.8894L67.4024 39.893L67.406 39.1918L66.7016 39.1883Z" fill="black"/>
<path d="M65.4018 39.1723L65.3982 39.8735L66.1026 39.877L66.1062 39.1759L65.4018 39.1723Z" fill="black"/>
<path d="M110.368 38.7592H109.664H109.075H108.37H107.781H107.077H106.488H105.78H105.195H104.486H103.897H103.193H102.488H101.899H101.195H100.606H99.8976H99.3126V38.0541H99.8976V37.3529L100.606 37.4718V36.7666H101.195L101.31 36.0654H101.899V35.4791H102.604V34.7779H103.193V34.1916H103.897V33.4905H104.486V32.9042H105.195V32.203H105.899V31.6167H106.488V30.9115H107.192V30.3292H107.781V29.624H108.486V29.0417H109.075V28.3366H109.779V27.7503V27.0491V26.4628V25.7616H109.194V25.1753H108.486L107.781 25.0604H107.192V24.4741H106.488H105.899H105.195H104.606H103.897H103.312H102.604H102.019H101.31V25.0604H100.606H100.017V25.7616H99.3126H98.7236V26.3479H98.0152H97.4302V25.7616H96.7219V25.0604V24.3553H96.1368V23.769V23.0678H95.4285V22.4815H94.8395V21.7803H94.1351V21.194H93.5461V20.4928H92.8417H92.2527V19.7877H91.5483H90.9593V19.2053H90.2549H89.5465H88.9575V18.5002H88.2531H87.6641H86.9597H86.3707H85.6663V17.9139L85.0773 17.799H84.3729H83.784H83.0796H82.4906H81.7822H81.0778H80.4888H79.7844H79.1954H78.491H77.902H77.1976H76.6086H75.9002V18.5002H75.1958H74.6068H73.9024H73.3135V19.0865H72.609H72.0201H71.3157V19.7877H70.7267V20.374H70.0223H69.4333L69.3139 21.0751H68.7249L68.0205 20.9603V21.6614H67.4315V22.3666H66.7271V22.9489H66.1381V23.6541H65.4337V24.2404H64.8447L64.7293 24.9416V25.5279H64.1403V26.229V26.8153H63.4319V27.5165V28.1028H62.8469V28.804V29.3903V30.0955H63.4319V29.3903V28.804H64.1403V28.1028V27.5165H64.7293V26.8153V26.229H65.4337V25.5279V24.9416H66.1381V24.2404H66.7271V23.6541H67.4315V22.9489H68.0205V22.3666H68.7249V21.6614H69.3139H70.0223V21.0751H70.7267H71.3157V20.374H72.0201H72.609H73.3135H73.9024H74.6068H75.1958H75.9002H76.4892H77.1976H77.902H78.491H79.1954V19.7877H78.491H77.902H77.1976H76.6086H75.9002H75.1958H74.6068H73.9024V19.0865H74.6068H75.1958H75.9002H76.6086V18.5002H77.1976H77.902H78.491H79.1954H79.7844H80.4888H81.0778H81.7822H82.3712H83.0796H83.784H84.3729H85.0773V19.2053H85.6663V19.7877H86.3707V19.2053H86.9597V19.7877H87.6641H88.2531H88.9575H89.5465H90.2549V20.4928V21.0751H90.8399L91.5483 21.194H92.2527H92.8417V21.7803H93.5461V22.4815H94.1351V23.0678H94.8395V23.769H95.4285V24.3553V25.0604V25.6427H94.8395L94.7241 26.3479H95.4285H96.1368H96.7219V27.0491V27.6354H97.4302H98.0152V27.0491H98.7236H99.3126V26.3479H100.017H100.606V25.7616H101.31H102.019V25.0604H102.604H103.312H103.897H104.606H105.195H105.899H106.488V25.7616H107.192H107.781H108.486V26.4628H109.075V27.0491H108.486H107.781H107.192H106.488V27.7503H105.899H105.195H104.606V28.3366H103.897H103.193V29.0417H102.604L101.899 28.9229V29.624H101.31V30.3292H100.606V30.9115H100.017V31.6167H99.3126V32.203H98.7236L98.6042 32.9042H98.0152V33.4905H97.3108V34.1916H96.7219V34.7779H96.0175V35.4791H95.4285V36.0654H94.7241V36.7666H94.0197V37.3529H93.4307V38.0541H92.7223V38.6404H92.1373V39.3455H91.4289V39.9279H90.8399V40.633H90.1355H89.5465L89.4311 41.2193H88.8421H88.1377V41.9205H87.5487H86.8443H86.2553V42.5068H85.5469H84.9619H84.2536H83.6646H82.9602V43.208H83.5492H84.2536H84.9619H85.5469H86.2553H86.8443H87.5487H88.1377H88.8421H89.4311H90.1355H90.7245H91.4289H92.1373H92.7223H93.4307H94.0197H94.7241H95.3131H96.0175H96.6064H97.3108H97.8998H98.6042H99.3126H99.8976V42.6217H99.3126H98.6042H98.0152H97.3108H96.6064H96.0175H95.3131H94.7241H94.0197H93.4307H92.7223H92.1373V41.9205V41.2193H92.7223V40.633H93.4307V39.9279H94.0197V39.3455H94.7241H95.3131H96.0175H96.7219H97.3108H98.0152H98.6042V40.0467H99.3126H99.8976H100.606H101.195V39.3455H101.899H102.488H103.193H103.897H104.486H105.195H105.78H106.488H107.077H107.781H108.37L109.075 39.4604V40.0467H109.664H110.368V40.7479V41.3342V42.0354H109.664V42.6217H109.075V43.3269H108.37V43.9092H107.781V44.6143H107.077H106.488L106.369 45.1967H105.78H105.075H104.486V45.9018H103.782H103.193H102.488V46.4881H101.899H101.195H100.606L100.487 47.1893H99.8976H99.1932H98.6042H97.8998V47.7756H97.3108H96.6064H96.0175H95.3131V48.4768H94.7241H94.0197L93.3113 48.3619V49.0631H92.7223V49.7643H93.3113H94.0197H94.6047H95.3131H96.0175H96.6064H97.3108V49.0631H97.8998H98.6042V48.4768V47.7756H99.1932H99.8976H100.487H101.195V47.1893H101.899H102.488H103.193V46.4881H103.782H104.486H105.075V45.9018H105.78H106.369H107.077V45.1967H107.781H108.37V44.6143H109.075V43.9092H109.664V43.3269H110.368V42.6217H110.957V42.0354V41.3342V40.7479L111.077 40.0467V39.4604H110.368V38.7592Z" fill="black"/>
<path d="M68.5976 38.5114L68.594 39.2126L69.2984 39.2161L69.3019 38.5149L68.5976 38.5114Z" fill="black"/>
<path d="M67.2978 38.4954L67.2942 39.1966L67.9986 39.2002L68.0021 38.499L67.2978 38.4954Z" fill="black"/>
<path d="M66.0016 38.4795L65.998 39.1807L66.7024 39.1842L66.706 38.483L66.0016 38.4795Z" fill="black"/>
<path d="M64.7018 38.4596L64.6982 39.1607L65.4026 39.1643L65.4062 38.4631L64.7018 38.4596Z" fill="black"/>
<path d="M68.0136 37.7986L68.01 38.4998L68.7144 38.5034L68.718 37.8022L68.0136 37.7986Z" fill="black"/>
<path d="M66.7177 37.7827L66.7141 38.4839L67.4185 38.4874L67.4221 37.7863L66.7177 37.7827Z" fill="black"/>
<path d="M65.4176 37.8822L65.4141 38.5834L66.1185 38.587L66.122 37.8858L65.4176 37.8822Z" fill="black"/>
<path d="M71.2096 37.2532L71.2061 37.9544L71.9104 37.958L71.914 37.2568L71.2096 37.2532Z" fill="black"/>
<path d="M68.6094 37.238V37.9392H69.3138V38.5255H69.9028V39.2267H70.6072V39.813H71.1961V40.5142H71.9045V41.2193H72.4895V40.5142V39.813V39.2267H73.1979V38.5255V37.9392H72.4895H71.9045V38.5255V39.2267H71.1961V38.5255H70.6072V37.9392H69.9028V37.238V36.6517H69.3138V37.238H68.6094Z" fill="black"/>
<path d="M67.3178 37.2014L67.3142 37.9026L68.0186 37.9061L68.0222 37.205L67.3178 37.2014Z" fill="black"/>
<path d="M66.0216 37.1855L66.0181 37.8867L66.7225 37.8902L66.726 37.189L66.0216 37.1855Z" fill="black"/>
<path d="M64.7218 37.1656L64.7183 37.8667L65.4226 37.8703L65.4262 37.1691L64.7218 37.1656Z" fill="black"/>
<path d="M68.0336 36.5046L68.03 37.2058L68.7344 37.2094L68.738 36.5082L68.0336 36.5046Z" fill="black"/>
<path d="M66.7338 36.4887L66.7302 37.1898L67.4346 37.1934L67.4382 36.4922L66.7338 36.4887Z" fill="black"/>
<path d="M65.3178 36.4727L65.3142 37.1739L66.0186 37.1774L66.0222 36.4763L65.3178 36.4727Z" fill="black"/>
<path d="M71.1962 35.9466H70.6072V36.6517V37.238H71.1962V36.6517V35.9466Z" fill="black"/>
<path d="M67.3336 35.9113L67.3301 36.6125L68.0345 36.6161L68.038 35.9149L67.3336 35.9113Z" fill="black"/>
<path d="M66.0338 35.8954L66.0303 36.5966L66.7347 36.6001L66.7382 35.8989L66.0338 35.8954Z" fill="black"/>
<path d="M80.3893 35.3643V31.8504H79.6809V30.4441H78.9765V29.7429H77.5638V29.0378H74.0219V29.7429H72.6091V30.4441H71.9047V31.8504H71.1963V35.3643H71.9047V36.7666H72.6091V38.173H73.3135V37.4718H74.7263V36.7666H76.8434V36.0496H81.0778V35.3643H80.3893ZM74.5074 32.7853V32.0881H75.9202V33.4944H74.5074V32.7853Z" fill="black"/>
<path d="M66.6376 35.1947L66.634 35.8958L67.3384 35.8994L67.342 35.1982L66.6376 35.1947Z" fill="black"/>
<path d="M83.6646 34.7779V34.0767V33.4904V32.7853V32.0841V31.4978V30.7966H82.9602V31.4978V32.0841V32.7853V33.3716V34.0767V34.7779V35.3642H83.6646H84.2536H84.962V34.7779H84.2536H83.6646Z" fill="black"/>
<path d="M70.6072 34.6591V33.9579V33.3716V32.6704V32.0841V31.3829H70.0222V32.0841V32.6704L69.9028 33.3716V33.9579V34.6591V35.3642V35.9466H70.6072V35.3642V34.6591Z" fill="black"/>
<path d="M84.9619 34.0768V34.7779H85.5469H86.2553V34.0768H85.6663H84.9619Z" fill="black"/>
<path d="M86.2554 33.4904V34.0767H86.9598H87.5488V33.4904H86.9598H86.2554Z" fill="black"/>
<path d="M87.5488 32.7853V33.4905H88.2532H88.8422V32.7853H88.2532H87.5488Z" fill="black"/>
<path d="M88.842 32.203V32.7853H89.5464H90.1354V32.203H89.5464H88.842Z" fill="black"/>
<path d="M81.6669 32.7853V33.3716V34.0768V34.778V35.3642V36.0654H81.0779V36.6517H81.6669H82.3713V36.0654V35.3642V34.778V34.0768V33.3716V32.7853V32.0841V31.4978H81.6669V32.0841V32.7853Z" fill="black"/>
<path d="M90.1613 31.5119L90.1577 32.2131L90.8621 32.2167L90.8657 31.5155L90.1613 31.5119Z" fill="black"/>
<path d="M90.8398 30.9115V31.4978H91.5482H92.1372V30.9115H91.5482H90.8398Z" fill="black"/>
<path d="M81.0779 31.4978H81.6669V30.7967V30.2104H81.0779V30.7967V31.4978Z" fill="black"/>
<path d="M71.3156 30.7966V30.0955H70.6072V30.7966V31.3829H71.3156V30.7966Z" fill="black"/>
<path d="M68.6095 31.3829V32.0841V32.6704V33.3716V33.9579V34.6591V35.2454H68.0205V35.9466H68.6095V36.6517H69.3139V35.9466V35.3642V34.6591V33.9579V33.3716V32.6704V32.0841V31.3829V30.7966H68.7249L68.6095 31.3829Z" fill="black"/>
<path d="M92.1251 30.19L92.1216 30.8912L92.826 30.8948L92.8296 30.1936L92.1251 30.19Z" fill="black"/>
<path d="M92.8418 29.6241V30.2104H93.4308H94.1352V29.6241H93.4308H92.8418Z" fill="black"/>
<path d="M88.2531 29.5092H87.5487H86.9597V30.2103H87.5487H88.2531H88.8421H89.5465V29.624L88.8421 29.5092H88.2531Z" fill="black"/>
<path d="M83.0795 29.5092H82.3711V30.2103V30.7966H82.9601L83.0795 30.2103V29.5092Z" fill="black"/>
<path d="M80.3976 29.5051L80.394 30.2062L81.0984 30.2098L81.102 29.5086L80.3976 29.5051Z" fill="black"/>
<path d="M71.3136 29.3855L71.3101 30.0867L72.0144 30.0902L72.018 29.389L71.3136 29.3855Z" fill="black"/>
<path d="M69.314 30.0955V30.7966H70.0223V30.0955V29.5092H69.314V30.0955Z" fill="black"/>
<path d="M94.0893 28.8642L94.0857 29.5654L94.7901 29.5689L94.7936 28.8677L94.0893 28.8642Z" fill="black"/>
<path d="M89.5464 28.9229V29.624H90.2548H90.8398V28.9229H90.2548H89.5464Z" fill="black"/>
<path d="M86.3053 28.88L86.3018 29.5812L87.0061 29.5847L87.0097 28.8836L86.3053 28.88Z" fill="black"/>
<path d="M81.7614 28.876L81.7578 29.5771L82.4622 29.5807L82.4657 28.8795L81.7614 28.876Z" fill="black"/>
<path d="M79.8136 28.7923L79.8101 29.4935L80.5145 29.497L80.518 28.7959L79.8136 28.7923Z" fill="black"/>
<path d="M71.9096 28.8042L71.906 29.5053L72.6104 29.5089L72.614 28.8077L71.9096 28.8042Z" fill="black"/>
<path d="M69.9657 28.7245L69.9622 29.4257L70.6665 29.4292L70.6701 28.7281L69.9657 28.7245Z" fill="black"/>
<path d="M94.7241 28.3365V28.9228H95.4285H96.0175L96.1369 28.3365H95.4285H94.7241Z" fill="black"/>
<path d="M90.8398 28.2217V28.9229H91.5482H92.1372V28.3366L91.5482 28.2217H90.8398Z" fill="black"/>
<path d="M85.6054 28.1633L85.6018 28.8645L86.3062 28.8681L86.3098 28.1669L85.6054 28.1633Z" fill="black"/>
<path d="M81.0614 28.1672L81.0579 28.8684L81.7622 28.8719L81.7658 28.1707L81.0614 28.1672Z" fill="black"/>
<path d="M79.08 28.9229H79.7844V28.2217H79.08H78.491V28.804L79.08 28.9229Z" fill="black"/>
<path d="M73.9025 28.804V28.2217H73.1981H72.6091V28.804H73.1981H73.9025Z" fill="black"/>
<path d="M70.6818 28.1472L70.6782 28.8483L71.3826 28.8519L71.3862 28.1507L70.6818 28.1472Z" fill="black"/>
<path d="M96.0573 27.5383L96.0537 28.2395L96.7581 28.2431L96.7617 27.5419L96.0573 27.5383Z" fill="black"/>
<path d="M92.1613 27.6059L92.1577 28.3071L92.8621 28.3107L92.8657 27.6095L92.1613 27.6059Z" fill="black"/>
<path d="M75.1957 28.2217H75.9001H76.4891H77.1975H77.7865H78.4909V27.5165H77.7865H77.1975H76.4891H75.9001H75.1957H74.6067H73.9023V28.2217H74.6067H75.1957Z" fill="black"/>
<path d="M71.2777 27.4464L71.2742 28.1476L71.9786 28.1511L71.9821 27.45L71.2777 27.4464Z" fill="black"/>
<path d="M92.8418 26.9302V27.6354H93.4308H94.1352V27.0491L93.4308 26.9302H92.8418Z" fill="black"/>
<path d="M89.5133 26.925L89.5098 27.6262L90.2142 27.6298L90.2177 26.9286L89.5133 26.925Z" fill="black"/>
<path d="M85.6663 26.9302V26.3479H84.9619V26.9302V27.6354V28.2217H85.6663V27.6354V26.9302Z" fill="black"/>
<path d="M81.7822 27.6354V26.9302V26.229H81.0778V26.9302H80.3734L80.4888 26.229H79.7844V25.6427H79.08V26.229H78.491H77.7866H77.1976H76.4892H75.9002H75.1958H74.6068H73.9024H73.3134L73.198 26.9302H73.9024H74.6068H75.1958H75.9002H76.4892H77.1976H77.7866H78.491H79.08V27.5165H79.7844H80.3734V28.2217H81.0778V27.5165L81.7822 27.6354Z" fill="black"/>
<path d="M71.9045 26.9302V27.5165H72.6089H73.1979V26.9302H72.6089H71.9045Z" fill="black"/>
<path d="M94.1251 26.2801L94.1216 26.9813L94.826 26.9848L94.8295 26.2836L94.1251 26.2801Z" fill="black"/>
<path d="M88.9333 26.2123L88.9297 26.9135L89.6341 26.917L89.6376 26.2159L88.9333 26.2123Z" fill="black"/>
<path d="M91.4772 25.5992L91.4736 26.3004L92.178 26.3039L92.1816 25.6027L91.4772 25.5992Z" fill="black"/>
<path d="M88.2333 25.6151L88.2297 26.3163L88.9341 26.3198L88.9377 25.6186L88.2333 25.6151Z" fill="black"/>
<path d="M86.2553 25.6427V25.0604H85.6663V25.6427V26.3479H86.2553V25.6427Z" fill="black"/>
<path d="M80.4496 25.5154L80.446 26.2166L81.1504 26.2201L81.154 25.519L80.4496 25.5154Z" fill="black"/>
<path d="M90.8974 25.0019L90.8938 25.7031L91.5982 25.7067L91.6018 25.0055L90.8974 25.0019Z" fill="black"/>
<path d="M79.7497 24.9182L79.7461 25.6194L80.4505 25.6229L80.4541 24.9217L79.7497 24.9182Z" fill="black"/>
<path d="M93.4413 24.3928L93.4377 25.094L94.1421 25.0975L94.1457 24.3963L93.4413 24.3928Z" fill="black"/>
<path d="M90.2013 24.2932L90.1978 24.9944L90.9021 24.9979L90.9057 24.2968L90.2013 24.2932Z" fill="black"/>
<path d="M86.3053 24.3568L86.3018 25.058L87.0062 25.0616L87.0097 24.3604L86.3053 24.3568Z" fill="black"/>
<path d="M80.4655 24.2214L80.4619 24.9226L81.1663 24.9261L81.1699 24.2249L80.4655 24.2214Z" fill="black"/>
<path d="M92.8612 23.6801L92.8577 24.3812L93.5621 24.3848L93.5656 23.6836L92.8612 23.6801Z" fill="black"/>
<path d="M89.6173 23.696L89.6138 24.3971L90.3182 24.4007L90.3217 23.6995L89.6173 23.696Z" fill="black"/>
<path d="M86.9015 23.664L86.8979 24.3652L87.6023 24.3688L87.6059 23.6676L86.9015 23.664Z" fill="black"/>
<path d="M82.3713 24.3553H81.7823V24.9416H81.0779V25.6428H81.7823V26.2291H82.3713V25.6428V24.9416H83.0797V24.3553V23.6541H82.3713V24.3553Z" fill="black"/>
<path d="M81.0656 23.6401L81.062 24.3413L81.7664 24.3448L81.77 23.6437L81.0656 23.6401Z" fill="black"/>
<path d="M79.7655 23.6241L79.762 24.3253L80.4664 24.3289L80.4699 23.6277L79.7655 23.6241Z" fill="black"/>
<path d="M92.1613 23.0868L92.1577 23.7879L92.8621 23.7915L92.8657 23.0903L92.1613 23.0868Z" fill="black"/>
<path d="M87.6215 22.9673L87.6179 23.6685L88.3223 23.672L88.3259 22.9708L87.6215 22.9673Z" fill="black"/>
<path d="M83.0775 22.9632L83.074 23.6644L83.7784 23.6679L83.7819 22.9668L83.0775 22.9632Z" fill="black"/>
<path d="M81.7816 22.9473L81.7781 23.6485L82.4825 23.652L82.486 22.9508L81.7816 22.9473Z" fill="black"/>
<path d="M80.4855 22.9274L80.4819 23.6286L81.1863 23.6321L81.1899 22.9309L80.4855 22.9274Z" fill="black"/>
<path d="M91.5812 22.3741L91.5776 23.0752L92.282 23.0788L92.2856 22.3776L91.5812 22.3741Z" fill="black"/>
<path d="M88.2213 22.386L88.2178 23.0872L88.9222 23.0907L88.9257 22.3895L88.2213 22.386Z" fill="black"/>
<path d="M82.3776 22.37L82.374 23.0711L83.0784 23.0747L83.082 22.3735L82.3776 22.37Z" fill="black"/>
<path d="M81.0814 22.35L81.0779 23.0512L81.7823 23.0548L81.7858 22.3536L81.0814 22.35Z" fill="black"/>
<path d="M88.9335 21.6892L88.9299 22.3904L89.6343 22.3939L89.6379 21.6927L88.9335 21.6892Z" fill="black"/>
<path d="M82.3713 21.7803H83.0797V21.0751H82.3713H81.7823H81.0779V21.7803H81.7823V22.3666H82.3713V21.7803Z" fill="black"/>
<path d="M89.5334 21.1118L89.5298 21.813L90.2342 21.8166L90.2377 21.1154L89.5334 21.1118Z" fill="black"/>
<path d="M84.9936 20.9923L84.99 21.6935L85.6944 21.6971L85.698 20.9959L84.9936 20.9923Z" fill="black"/>
<path d="M84.373 21.0751H83.6646V21.7803H83.0796V22.3666H83.6646V23.0678H84.373V22.3666H84.962L85.0774 21.7803H84.373V21.0751Z" fill="black"/>
<path d="M85.7094 20.415L85.7058 21.1162L86.4102 21.1197L86.4138 20.4186L85.7094 20.415Z" fill="black"/>
<path d="M84.4135 20.3991L84.4099 21.1003L85.1143 21.1038L85.1179 20.4026L84.4135 20.3991Z" fill="black"/>
<path d="M80.4887 20.374H79.7843H79.1953V21.0751H79.7843H80.4887H81.0777V20.4928L80.4887 20.374Z" fill="black"/>
<path d="M86.3056 19.7182L86.302 20.4194L87.0064 20.423L87.01 19.7218L86.3056 19.7182Z" fill="black"/>
<path d="M85.0094 19.7023L85.0059 20.4035L85.7103 20.407L85.7138 19.7058L85.0094 19.7023Z" fill="black"/>
<path d="M126.132 36.1803V36.8855H126.721H127.425V36.1803H126.721H126.132Z" fill="black"/>
<path d="M127.44 35.5259L127.437 36.2271L128.141 36.2306L128.145 35.5295L127.44 35.5259Z" fill="black"/>
<path d="M137.307 34.3105V33.6053H136.718V33.023V32.3178H136.013V31.6167V31.0304H135.424H134.72V31.6167V32.3178V33.023H135.309V33.6053V34.3105H136.013V35.0117V35.598H136.718V36.2991V36.8855H137.307H138.011V36.2991V35.598V35.0117H137.307V34.3105Z" fill="black"/>
<path d="M127.425 34.3105V33.6053H126.72V34.3105V34.8928H127.425V34.3105Z" fill="black"/>
<path d="M126.132 34.3105V33.6053H125.427V34.1916V34.8928H126.132V34.3105Z" fill="black"/>
<path d="M128.129 34.3105V34.8928V35.598H128.718V34.8928V34.3105V33.6053H128.129V34.3105Z" fill="black"/>
<path d="M143.308 33.023H142.599H142.01H141.306H140.602H140.013V33.6053V34.3105H140.602H141.306H142.01H142.599H143.308H143.893V33.7242V33.023H143.308Z" fill="black"/>
<path d="M121.543 33.6053V32.9042V32.203V31.6167V30.9115H120.839H120.134V31.6167V32.203V32.9042V33.6053H120.839H121.543Z" fill="black"/>
<path d="M132.129 31.0304L132.013 31.6167V32.3178H131.424V33.023V33.6053H130.72V34.3105V34.8928H130.131L130.012 35.598V36.2991V36.8855H130.72H131.424V36.2991V35.598H132.013V34.8928V34.3105H132.718V33.6053V33.023H133.426V32.3178V31.6167V31.0304H132.718H132.129Z" fill="black"/>
<path d="M122.836 30.9115V31.6167V32.3179V32.9042V33.6053V34.1916H122.132V34.8928H121.543L121.428 35.598H120.839L120.134 35.4791V36.1803V36.8855H120.839H121.428H122.132V36.1803H122.836V35.598H123.425V34.8928H124.134V34.1916V33.6053V32.9042V32.3179V31.6167V30.9115H123.545H122.836Z" fill="black"/>
<path d="M117.543 30.9115H116.839H116.25H115.546H114.957H114.252H113.544H112.955H112.25V31.4978V32.203H112.955H113.544H114.252H114.957H115.546H116.25H116.839H117.543V32.9042V33.6053L116.839 33.4905V34.1916H116.25V34.8928H115.546H114.837V35.4791H114.252H113.544H112.955H112.25V36.1803V36.7666H112.839H113.544H114.252H114.837L115.546 36.8855V36.1803H116.25H116.839V35.4791H117.543V34.8928H118.132V34.1916H118.837V33.6053V32.9042V32.203V31.6167V30.9115H118.248H117.543Z" fill="black"/>
<path d="M138.011 30.3292H137.299V32.4367H139.416V30.3292H138.003H138.011ZM138.719 31.7316H138.011V31.0304H138.719V31.7316Z" fill="black"/>
<path d="M113.074 23.0678V23.769H113.779V23.0678V22.3666H113.074V23.0678Z" fill="black"/>
<path d="M110.488 23.0678V23.769H111.077V23.0678V22.3666H110.488V23.0678Z" fill="black"/>
<path d="M115.781 21.0752V21.7803V22.4815V23.0678V23.769H116.37V23.0678V22.4815V21.7803V21.0752H115.781Z" fill="black"/>
<path d="M113.074 21.0752H112.485V21.7803V22.3666H113.074V21.7803V21.0752Z" fill="black"/>
<path d="M109.825 21.7094L109.822 22.4105L110.526 22.4141L110.53 21.7129L109.825 21.7094Z" fill="black"/>
<path d="M109.194 21.0752H108.486V21.7803H109.194H109.779V21.0752H109.194Z" fill="black"/>
<path d="M115.781 19.7877H115.072V20.4928V21.0751H115.781V20.4928V19.7877Z" fill="black"/>
<path d="M111.833 20.3915L111.829 21.0927L112.534 21.0962L112.537 20.395L111.833 20.3915Z" fill="black"/>
<path d="M111.133 19.7783L111.129 20.4795L111.834 20.483L111.837 19.7818L111.133 19.7783Z" fill="black"/>
<path d="M115.072 18.5002H114.487V19.0865V19.7877H115.072V19.0865V18.5002Z" fill="black"/>
<path d="M110.488 19.0865H109.779V19.7877H110.488H111.077V19.0865H110.488Z" fill="black"/>
<path d="M109.194 18.5002H108.486V19.0865H109.194H109.779V18.5002H109.194Z" fill="black"/>
<path d="M113.749 17.7636L113.745 18.4648L114.45 18.4683L114.453 17.7672L113.749 17.7636Z" fill="black"/>
<path d="M113.074 17.2127L112.485 17.0978V17.799H113.074H113.779V17.2127H113.074Z" fill="black"/>
<path d="M111.781 16.5115H111.192V17.0978H111.781H112.485V16.5115H111.781Z" fill="black"/>
<path d="M110.488 15.8064H109.779H109.194H108.486V16.5115H109.194H109.779H110.488H111.192V15.8064H110.488Z" fill="black"/>
</g>
<defs>
<clipPath id="clip0_377_22585">
<rect width="238" height="100" fill="white"/>
</clipPath>
</defs>
</svg>
