<svg width="24" height="24" viewBox="0 0 24 24" fill="none" xmlns="http://www.w3.org/2000/svg">
<path fill-rule="evenodd" clip-rule="evenodd" d="M9.70711 6.29289C10.0976 6.68342 10.0976 7.31658 9.70711 7.70711L5.41421 12L9.70711 16.2929C10.0976 16.6834 10.0976 17.3166 9.70711 17.7071C9.31658 18.0976 8.68342 18.0976 8.29289 17.7071L3.29289 12.7071C2.90237 12.3166 2.90237 11.6834 3.29289 11.2929L8.29289 6.29289C8.68342 5.90237 9.31658 5.90237 9.70711 6.29289Z" fill="white"/>
<path fill-rule="evenodd" clip-rule="evenodd" d="M3 12C3 11.4477 3.44772 11 4 11H16C17.3261 11 18.5979 11.5268 19.5355 12.4645C20.4732 13.4021 21 14.6739 21 16V18C21 18.5523 20.5523 19 20 19C19.4477 19 19 18.5523 19 18V16C19 15.2044 18.6839 14.4413 18.1213 13.8787C17.5587 13.3161 16.7956 13 16 13H4C3.44772 13 3 12.5523 3 12Z" fill="white"/>
</svg>
