<svg width="268" height="216" viewBox="0 0 268 216" fill="none" xmlns="http://www.w3.org/2000/svg">
<mask id="mask0_2051_30194" style="mask-type:luminance" maskUnits="userSpaceOnUse" x="0" y="0" width="268" height="216">
<path d="M256 0H12C5.37258 0 0 5.37258 0 12V204C0 210.627 5.37258 216 12 216H256C262.627 216 268 210.627 268 204V12C268 5.37258 262.627 0 256 0Z" fill="white"/>
</mask>
<g mask="url(#mask0_2051_30194)">
<path d="M272.5 -5.1001H-7.5V221.9H272.5V-5.1001Z" fill="#E5E5E5"/>
<path d="M113.6 148.8L130.6 144.2L125.5 136.8L118.7 155.6L127.8 151.9L117.1 138.1" stroke="#2769DF" stroke-width="2.5"/>
<path d="M147.1 134.3C147.1 134.3 154 142 150.6 153.8C147.1 166.2 137.6 169.6 137.6 169.6" stroke="#2769DF" stroke-width="3" stroke-linecap="round"/>
<path d="M141.8 138.3C144.9 142.1 145.8 147.2 144.3 151.8C141.8 160.2 135.2 162.4 135.2 162.4" stroke="#2769DF" stroke-width="3" stroke-linecap="round"/>
<path d="M135.8 142.4C137.6 144.6 138.2 147.6 137.3 150.4C136.6 153.2 134.5 155.4 131.9 156.5" stroke="#2769DF" stroke-width="3" stroke-linecap="round"/>
<path d="M152.2 115L175.2 111.3M198.3 115L175.3 111.3" stroke="#605F60" stroke-width="2" stroke-linecap="round" stroke-linejoin="round"/>
<path d="M174.8 111.3V96.5999" stroke="#605F60" stroke-width="2" stroke-linecap="round" stroke-linejoin="round"/>
<path fill-rule="evenodd" clip-rule="evenodd" d="M134.4 56H216C217.7 56 219 57.3 219 59V103.7C219 105.4 217.7 106.7 216 106.7H134.4C132.7 106.7 131.4 105.4 131.4 103.7V59C131.4 57.3 132.7 56 134.4 56Z" fill="white" stroke="#999999" stroke-width="2"/>
<path fill-rule="evenodd" clip-rule="evenodd" d="M137.8 60.5999H212.6C213.7 60.5999 214.6 61.4999 214.6 62.5999V100.1C214.6 101.2 213.7 102.1 212.6 102.1H137.8C136.7 102.1 135.8 101.2 135.8 100.1V62.5999C135.8 61.4999 136.7 60.5999 137.8 60.5999Z" fill="#605F60" stroke="#393939" stroke-width="1.5"/>
<path d="M231.5 85.1998L232.5 81.0999" stroke="#3C3B3C" stroke-width="2" stroke-linecap="round" stroke-linejoin="round"/>
<path fill-rule="evenodd" clip-rule="evenodd" d="M227.8 66.8999V79.9999C227.8 81.6999 229.1 82.9999 230.8 82.9999H278.2C279.9 82.9999 281.2 81.6999 281.2 79.9999V66.8999C281.2 65.1999 279.9 63.8999 278.2 63.8999H230.8C229.1 63.8999 227.8 65.1999 227.8 66.8999Z" fill="white" stroke="#999999" stroke-width="2" stroke-linecap="round" stroke-linejoin="round"/>
<path d="M271.5 67H265.4C264.8 67 264.4 67.4 264.4 68V71C264.4 71.6 264.8 72 265.4 72H271.5C272.1 72 272.5 71.6 272.5 71V68C272.5 67.4 272.1 67 271.5 67Z" stroke="#3C3B3C" stroke-width="1.5" stroke-linecap="round" stroke-linejoin="round"/>
<path d="M259.018 75.1745C259.946 69.4501 256.057 64.0579 250.332 63.1308C244.608 62.2036 239.216 66.0926 238.289 71.817C237.361 77.5413 241.25 82.9335 246.975 83.8606C252.699 84.7878 258.091 80.8989 259.018 75.1745Z" fill="#7C7C7C" stroke="#3C3B3C" stroke-width="2" stroke-linecap="round" stroke-linejoin="round"/>
<path d="M248.8 80.2999C252.5 80.2999 255.5 77.3002 255.5 73.5999C255.5 69.8996 252.5 66.8999 248.8 66.8999C245.1 66.8999 242.1 69.8996 242.1 73.5999C242.1 77.3002 245.1 80.2999 248.8 80.2999Z" fill="#605F60" stroke="#3C3B3C" stroke-width="1.5" stroke-linecap="round" stroke-linejoin="round"/>
<path fill-rule="evenodd" clip-rule="evenodd" d="M272.9 11V43.9C272.9 46.1 271.1 47.9 268.9 47.9H158C155.8 47.9 154 46.1 154 43.9V11C154 8.8 155.8 7 158 7H268.9C271.1 7 272.9 8.8 272.9 11Z" fill="white" stroke="#999999" stroke-width="2" stroke-linecap="round" stroke-linejoin="round"/>
<path d="M272.9 11V25.6C272.9 27.8 271.1 29.6 268.9 29.6H158C155.8 29.6 154 27.8 154 25.6V11C154 8.8 155.8 7 158 7H268.9C271.1 7 272.9 8.8 272.9 11Z" stroke="#999999" stroke-width="2" stroke-linecap="round" stroke-linejoin="round"/>
<path fill-rule="evenodd" clip-rule="evenodd" d="M263.7 43.2998V45.6998C263.7 46.7998 262.8 47.6998 261.7 47.6998H165.3C164.2 47.6998 163.3 46.7998 163.3 45.6998V43.2998C163.3 42.1998 164.2 41.2998 165.3 41.2998H261.7C262.8 41.2998 263.7 42.1998 263.7 43.2998Z" fill="#605F60" stroke="#3C3B3C" stroke-width="2" stroke-linecap="round" stroke-linejoin="round"/>
<path fill-rule="evenodd" clip-rule="evenodd" d="M237.7 91.5H259.4C261.6 91.5 263.4 93.3 263.4 95.5V124.5C263.4 126.7 261.6 128.5 259.4 128.5H237.7C235.5 128.5 233.7 126.7 233.7 124.5V95.5C233.7 93.3 235.5 91.5 237.7 91.5Z" fill="white" stroke="#999999" stroke-width="2" stroke-linecap="round" stroke-linejoin="round"/>
<path d="M237.4 91.7998H255.2C257.4 91.7998 259.2 93.5998 259.2 95.7998V124.8C259.2 127 257.4 128.8 255.2 128.8H237.4C235.2 128.8 233.4 127 233.4 124.8V95.7998C233.4 93.5998 235.2 91.7998 237.4 91.7998Z" stroke="#999999" stroke-width="1.5" stroke-linecap="round" stroke-linejoin="round"/>
<path d="M246.3 124.7C250.773 124.7 254.4 121.074 254.4 116.6C254.4 112.126 250.773 108.5 246.3 108.5C241.826 108.5 238.2 112.126 238.2 116.6C238.2 121.074 241.826 124.7 246.3 124.7Z" fill="#7C7C7C" stroke="#3C3B3C" stroke-width="1.5" stroke-linecap="round" stroke-linejoin="round"/>
<path d="M246.3 103.2C247.791 103.2 249 101.991 249 100.5C249 99.0086 247.791 97.7998 246.3 97.7998C244.809 97.7998 243.6 99.0086 243.6 100.5C243.6 101.991 244.809 103.2 246.3 103.2Z" fill="#7C7C7C" stroke="#3C3B3C" stroke-width="1.5" stroke-linecap="round" stroke-linejoin="round"/>
<path d="M246.6 119.3C247.981 119.3 249.1 118.181 249.1 116.8C249.1 115.419 247.981 114.3 246.6 114.3C245.219 114.3 244.1 115.419 244.1 116.8C244.1 118.181 245.219 119.3 246.6 119.3Z" fill="#605F60" stroke="#3C3B3C" stroke-width="1.5" stroke-linecap="round" stroke-linejoin="round"/>
<path fill-rule="evenodd" clip-rule="evenodd" d="M209.6 118.5H254.4C255.5 118.5 256.4 119.4 256.4 120.5V132.5C256.4 133.6 255.5 134.5 254.4 134.5H209.6C208.5 134.5 207.6 133.6 207.6 132.5V120.5C207.6 119.4 208.5 118.5 209.6 118.5Z" fill="white" stroke="#999999" stroke-width="2" stroke-linecap="round" stroke-linejoin="round"/>
<path d="M209.2 118.3H249.7C250.8 118.3 251.7 119.2 251.7 120.3V132.6C251.7 133.7 250.8 134.6 249.7 134.6H209.2C208.1 134.6 207.2 133.7 207.2 132.6V120.3C207.2 119.2 208.1 118.3 209.2 118.3Z" stroke="#999999" stroke-width="1.5" stroke-linecap="round" stroke-linejoin="round"/>
<path fill-rule="evenodd" clip-rule="evenodd" d="M220.8 122H233.2C233.8 122 234.2 122.4 234.2 123V129C234.2 129.6 233.8 130 233.2 130H220.8C220.2 130 219.8 129.6 219.8 129V123C219.8 122.4 220.2 122 220.8 122Z" fill="#605F60" stroke="#393939" stroke-width="1.5" stroke-linecap="round" stroke-linejoin="round"/>
<path d="M244 130.5C246.485 130.5 248.5 128.485 248.5 126C248.5 123.515 246.485 121.5 244 121.5C241.515 121.5 239.5 123.515 239.5 126C239.5 128.485 241.515 130.5 244 130.5Z" fill="#C8C8C8" stroke="#999999" stroke-width="1.5" stroke-linecap="round" stroke-linejoin="round"/>
<path fill-rule="evenodd" clip-rule="evenodd" d="M213.6 16.7C213.6 16.7 212.6 23.2 211.8 24C211.1 24.6 205.1 25.8 205.1 25.8C205.1 25.8 210.9 27.2 211.8 27.6C213 28.2 213.6 34.3 213.6 34.3C213.6 34.3 214.6 28.4 215.4 27.6C216.1 26.9 222.1 25.8 222.1 25.8C222.1 25.8 216.2 24.6 215.4 24C214.7 23.5 213.6 16.7 213.6 16.7Z" fill="#FF817B" stroke="#FF0000" stroke-linecap="round" stroke-linejoin="round"/>
<path fill-rule="evenodd" clip-rule="evenodd" d="M174.9 95.3999C174.9 95.3999 173.9 101.6 173.2 102.3C172.6 102.9 166.9 104 166.9 104C166.9 104 172.4 105.3 173.2 105.7C174.3 106.2 174.9 112 174.9 112C174.9 112 175.9 106.4 176.6 105.7C177.2 105.1 182.9 104 182.9 104C182.9 104 177.4 102.8 176.6 102.3C175.9 101.8 174.9 95.3999 174.9 95.3999Z" fill="#FF817B" stroke="#EA0000" stroke-linecap="round" stroke-linejoin="round"/>
<path fill-rule="evenodd" clip-rule="evenodd" d="M232 59.7998C232 59.7998 231 65.9998 230.3 66.6998C229.7 67.2998 224 68.3998 224 68.3998C224 68.3998 229.5 69.6998 230.3 70.0998C231.4 70.5998 232 76.3998 232 76.3998C232 76.3998 233 70.7998 233.7 70.0998C234.3 69.4998 240.1 68.3998 240 68.3998C239.9 68.3998 234.4 67.1998 233.7 66.6998C233 66.1998 232 59.7998 232 59.7998Z" fill="#FF817B" stroke="#EA0000" stroke-linecap="round" stroke-linejoin="round"/>
<path fill-rule="evenodd" clip-rule="evenodd" d="M212.5 117.6C212.5 117.6 211.5 123.7 210.8 124.4C210.2 125 204.6 126.1 204.6 126.1C204.6 126.1 210 127.4 210.8 127.8C211.9 128.3 212.5 134 212.5 134C212.5 134 213.5 128.5 214.2 127.8C214.8 127.2 220.4 126.1 220.4 126.1C220.4 126.1 214.9 124.9 214.2 124.4C213.5 123.9 212.5 117.6 212.5 117.6Z" fill="#FF817B" stroke="#EA0000" stroke-linecap="round" stroke-linejoin="round"/>
<path fill-rule="evenodd" clip-rule="evenodd" d="M181.8 156.1L167.1 121.7C167.1 121.7 182.9 113.1 207.5 117C234.9 121.3 247.6 138.2 247.6 138.2L188.6 158.2L181.8 156.2V156.1Z" fill="url(#paint0_linear_2051_30194)"/>
<mask id="mask1_2051_30194" style="mask-type:luminance" maskUnits="userSpaceOnUse" x="167" y="115" width="81" height="44">
<path d="M181.8 156.1L167.1 121.7C167.1 121.7 182.9 113.1 207.5 117C234.9 121.3 247.6 138.2 247.6 138.2L188.6 158.2L181.8 156.2V156.1Z" fill="white"/>
</mask>
<g mask="url(#mask1_2051_30194)">
<g opacity="0.7">
<path d="M170.7 135.7C170.7 135.7 176.2 134.6 177.5 138.5C178.7 142.3 186.1 142.4 189.5 140.5C192.9 138.6 195.4 137.8 199.5 138.5C203.6 139.2 206.5 143.4 206.5 143.4C206.5 143.4 208.4 148.8 216.5 147.5C224.6 146.2 225.4 147.5 227.3 150.5" stroke="#EA0000"/>
<path d="M234.2 143.1C232 139.5 230.7 138.1 221.5 139.9C212.3 141.7 210.3 135.1 210.3 135.1C210.3 135.1 207.8 130.7 203.2 130C198.9 129.3 194.5 130.2 190.8 132.5C186.8 134.9 179.3 135.4 177.8 130.8C176.3 126.2 170.7 125.7 170.7 125.7C167.7 125.7 164.8 127 162.8 129.3" stroke="#EA0000"/>
<path d="M167.1 120.3C169 118 172 116.8 175 116.9C175 116.9 180.7 117.5 182.1 122.2C183.5 126.9 191.1 126.6 195.1 124.3C198.8 122.1 203.2 121.3 207.5 122.1C212.2 122.9 214.6 127.4 214.6 127.4C214.6 127.4 216.5 134 225.8 132.5C235.1 131 238.6 132.7 240.8 136.3C243 139.9 243 144.2 243.3 146.4" stroke="#EA0000"/>
</g>
</g>
<path fill-rule="evenodd" clip-rule="evenodd" d="M133.8 184.4C132.7 185 132 186.2 132 187.5C132 189.6 132.8 201.5 132.8 201.5C132.8 201.5 132.8 202.8 136 204.3C139.2 205.8 154.5 212.3 154.5 212.3C154.5 212.3 157 213.8 161.5 212.9C166 212 178.4 210 178.4 210C180.3 209.5 182.1 208.4 183.2 206.7C185.5 203.8 206 165.4 206 165.4C206.7 164.2 206.9 162.7 206.8 161.4C206.7 158.8 206.3 152.4 206.3 152.4C206.3 152.4 206.3 150.6 203.1 148.6C199.9 146.6 196 144 193.6 142.5C191.2 141 191.4 141.5 190.3 141.3H188.4L174.8 143.1C173.6 143.5 172.6 144.3 171.9 145.3C170.4 147.1 133.9 184.4 133.9 184.4H133.8Z" fill="#DEE7ED"/>
<path fill-rule="evenodd" clip-rule="evenodd" d="M190.6 141.3L176.7 143C174.9 143.2 173.2 144 171.8 145.3C169.6 147.3 134.8 183.3 134.8 183.3C134.8 183.3 132.5 185.5 137 187.2C141.5 188.9 154.4 194.3 154.4 194.3C156.7 195 159.1 195.2 161.4 194.9C161.6 194.9 174.3 193.2 174.3 193.2C176.6 193 178.8 191.8 180.1 189.9C181.2 188.6 204.2 153.6 204.2 153.6C204.2 153.6 206.3 151 204 149.6C201.7 148.2 192.6 142.2 192.6 142.2C192 141.7 191.3 141.4 190.6 141.3Z" fill="white"/>
<path d="M171.8 145.3L133.3 185C132.2 186.5 132 186.9 132.1 188.8C132.1 190.3 132.8 201.5 132.8 201.5C133 202.7 133.3 203.4 135 204.4C137 205.7 154.5 212.4 154.5 212.4C156.4 213.2 158.4 213.3 160.5 213.1C164.4 212.5 180.4 210 180.4 210C182.5 209.6 183.3 208.3 184.2 206.8C185.9 204.2 206 165.6 206 165.6C206.8 163.9 206.9 162.3 206.7 160.6C206.5 157.8 206.3 152.6 206.3 152.6C206.3 152.6 206.3 150 204.1 148.7C201.9 147.4 193.1 142.4 193.1 142.4C193.1 142.4 190.8 140.9 187.6 141.6C184.4 142.3 175.7 143.2 175.7 143.2C174.2 143.5 172.8 144.2 171.8 145.4V145.3Z" stroke="#3C3B3C" stroke-width="2" stroke-linecap="round" stroke-linejoin="round"/>
<path fill-rule="evenodd" clip-rule="evenodd" d="M168 167.6C175.2 167.2 181.1 170 181.4 173.9C181.7 177.8 176 181.2 168.8 181.6C161.6 182 155.7 179.2 155.4 175.3C155.1 171.4 160.8 168 168 167.6Z" fill="#FF8200" stroke="#3C3B3C" stroke-width="1.5" stroke-linecap="round" stroke-linejoin="round"/>
<path d="M168.2 172.2C170.6 172.1 172.5 172.8 172.6 173.9C172.7 175 170.8 175.9 168.4 176C166 176.1 164.1 175.4 164 174.3C163.9 173.2 165.8 172.3 168.2 172.2Z" stroke="#3C3B3C" stroke-width="1.5" stroke-linecap="round" stroke-linejoin="round"/>
<path fill-rule="evenodd" clip-rule="evenodd" d="M152.3 181.6C154.8 181.5 156.9 182.4 157 183.8C157.1 185.2 155.1 186.3 152.6 186.5C150.1 186.7 148 185.7 147.9 184.3C147.8 182.9 149.8 181.7 152.3 181.6Z" fill="#FF8200" stroke="#3C3B3C" stroke-width="1.5" stroke-linecap="round" stroke-linejoin="round"/>
<path d="M163 164C163.3 164.2 163.4 164.5 163.2 164.8C163 165.1 162.7 165.2 162.4 165C162.2 165 162.1 164.7 162.1 164.5C162.2 164.1 162.6 163.9 163 164Z" stroke="#3C3B3C" stroke-linecap="round" stroke-linejoin="round"/>
<path fill-rule="evenodd" clip-rule="evenodd" d="M196.1 151L187.8 163.5C187.8 163.5 186.1 166.2 182.9 165.8C179.7 165.4 166.2 162.4 166.2 162.4C166.2 162.4 164.6 162 165.6 160.7C166.6 159.4 176.9 148.1 176.9 148.1C176.9 148.1 177.8 146.9 179.8 146.9C181.8 146.9 194.9 149.1 194.9 149.1C194.9 149.1 197.1 149.6 196 151H196.1Z" fill="#FF8200" stroke="#3C3B3C" stroke-width="1.5" stroke-linecap="round" stroke-linejoin="round"/>
<path fill-rule="evenodd" clip-rule="evenodd" d="M143.2 197.5L150.8 200.1C151.3 200.3 151.6 200.8 151.4 201.4C151.2 202 150.7 202.2 150.1 202L142.5 199.4C142 199.2 141.7 198.7 141.9 198.1C142.1 197.5 142.6 197.3 143.2 197.5Z" fill="#999999" stroke="#3C3B3C" stroke-linecap="round" stroke-linejoin="round"/>
<path fill-rule="evenodd" clip-rule="evenodd" d="M101.2 209.5C101.2 209.5 107.4 207.9 108.5 198.5C109.6 189.1 103.5 185.5 103.5 185.5L103.9 180.8C103.9 180.8 111.8 184.1 115.5 173.5C117.9 164.7 107.6 151.2 107.6 151.2L108.5 143.5C108.5 143.5 113.5 141.7 114.5 132.5C115.5 123.3 110.5 121.5 110.5 121.5L109.7 121L101.1 209.5H101.2Z" fill="white"/>
<path d="M110.1 121.4C110.1 121.4 114.7 124.6 114 132.8C113.3 141 107.9 144.3 107.9 144.3" stroke="#010101" stroke-width="1.5" stroke-linecap="round" stroke-linejoin="round"/>
<path d="M104.9 186.2C104.9 186.2 109.5 189.4 108.8 197.6C108.1 205.8 102.7 209.1 102.7 209.1" stroke="#010101" stroke-width="1.5" stroke-linecap="round" stroke-linejoin="round"/>
<path d="M107.3 150.3C107.3 150.3 111.9 158.3 114.1 163C116.3 167.7 116.6 173.4 112.7 177.9C110.4 180.6 107.8 181.8 104.4 181.1" stroke="#010101" stroke-width="1.5" stroke-linecap="round" stroke-linejoin="round"/>
<path d="M115.6 171.8C116.1 170.2 115.4 168.5 114 167.6C112.6 166.6 111.6 165.1 111.4 163.3L109.8 154.7" stroke="#010101" stroke-width="1.5" stroke-linecap="round" stroke-linejoin="round"/>
<path fill-rule="evenodd" clip-rule="evenodd" d="M5.30002 41.0998L-11.4 215.3C-11.4 215.3 -12.3 224.2 -7.49998 228.3C-2.69998 232.4 -0.499978 234.4 8.80002 235.3C18.1 236.2 80.4 242.2 80.4 242.2C80.4 242.2 89.3 243.1 93.4 238.3C97.5 233.5 99.4 232.1 100 226L116.7 51.7998C116.7 51.7998 117.6 43.8998 113.5 39.6998C109.4 35.4998 105.5 32.5998 100.5 32.0998C95.5 31.5998 22.9 24.7998 22.9 24.7998C22.9 24.7998 14 25.1998 10.5 29.9998C7.00002 34.7998 5.70002 36.1998 5.20002 41.0998H5.30002Z" fill="#FF8200"/>
<path d="M24.9 24.8999L100.6 32.1999C110.5 33.0999 117.7 41.8999 116.8 51.7999L100.1 226C99.2 235.9 90.4 243.1 80.5 242.2L4.8 235C-5.1 234.1 -12.3 225.3 -11.4 215.4L5.3 41.0999C6.2 31.1999 15 23.9999 24.9 24.8999Z" stroke="#A05200" stroke-width="2" stroke-linecap="round" stroke-linejoin="round"/>
<path fill-rule="evenodd" clip-rule="evenodd" d="M9.30002 41.5999L-7.39998 215.8C-7.39998 215.8 -8.29997 222 -4.79997 225.3C-1.29997 228.6 2.00003 230.5 3.60003 230.8C5.20003 231.1 79.9 238.2 79.9 238.2C79.9 238.2 86.7 238.8 89.9 235.3C93.1 231.8 94.7 229.6 95.1 226.7C95.5 223.8 112 51.3999 112 51.3999C112 51.3999 112.7 46.9999 109.2 41.5999C105.7 36.1999 97.8 35.9999 97.8 35.9999L22.6 28.8999C22.6 28.8999 17 29.2999 14.3 32.1999C11.6 35.0999 10 35.6999 9.40002 41.4999L9.30002 41.5999Z" fill="#F4F4F4"/>
<path fill-rule="evenodd" clip-rule="evenodd" d="M24.5 29L99.2 36.2C106.9 36.9 112.5 43.8 111.8 51.5L95.1 225.7C94.4 233.4 87.5 239 79.8 238.3L5.09999 231.1C-2.60001 230.4 -8.20001 223.5 -7.50001 215.8L9.29999 41.6C9.99999 33.9 16.9 28.3 24.6 29H24.5ZM24.5 29L99.2 36.2C106.9 36.9 112.5 43.8 111.8 51.5L95.1 225.7C94.4 233.4 87.5 239 79.8 238.3L5.09999 231.1C-2.60001 230.4 -8.20001 223.5 -7.50001 215.8L9.29999 41.6C9.99999 33.9 16.9 28.3 24.6 29H24.5Z" fill="white" stroke="#A05200" stroke-width="1.5" stroke-linecap="round" stroke-linejoin="round"/>
<path fill-rule="evenodd" clip-rule="evenodd" d="M51.8 37.6L71.7 39.5C72.8 39.5 73.6 40.6 73.5 41.7C73.5 42.8 72.4 43.6 71.3 43.5L51.4 41.6C50.3 41.6 49.5 40.5 49.6 39.4C49.7 38.3 50.7 37.5 51.8 37.6Z" fill="#393939" stroke="#010101" stroke-width="1.5" stroke-linecap="round" stroke-linejoin="round"/>
<path fill-rule="evenodd" clip-rule="evenodd" d="M53 63.9999L63.7 65.0999C64.8 65.1999 65.6 66.1999 65.5 67.2999L64.4 78.0999C64.3 79.1999 63.3 79.9999 62.2 79.8999L51.5 78.7999C50.4 78.6999 49.6 77.6999 49.7 76.5999L50.8 65.7999C50.9 64.6999 51.9 63.8999 53 63.9999Z" fill="#5A5A5A"/>
<path d="M53.505 70.7216L53.8275 72.1817L54.4633 70.8152L54.9104 70.8588L54.634 73.6891L54.2841 73.655L54.3944 72.5256L54.539 71.3465L53.8673 72.8195L53.6612 72.7994L53.3259 71.2693L53.2436 72.4132L53.1334 73.5426L52.7835 73.5084L53.0598 70.6781L53.505 70.7216ZM56.9098 72.5907L55.7279 72.4752L55.6299 73.4783L57.0082 73.6129L56.9784 73.9181L55.2405 73.7484L55.5169 70.9181L57.2372 71.0861L57.2072 71.3932L55.8465 71.2603L55.7577 72.1701L56.9396 72.2855L56.9098 72.5907ZM59.3888 74.1534L59.0233 74.1178L58.1315 71.8956L57.9192 74.0099L57.5557 73.9744L57.8321 71.1441L58.1975 71.1798L59.0897 73.3981L59.3016 71.2877L59.6651 71.3231L59.3888 74.1534ZM62.06 71.557L61.8767 73.4741C61.8638 73.6062 61.8284 73.7277 61.7705 73.8385C61.7126 73.9493 61.6386 74.0435 61.5486 74.121C61.4585 74.1999 61.3546 74.2591 61.2369 74.2986C61.1194 74.3368 60.9932 74.3494 60.8584 74.3362C60.7211 74.3228 60.5984 74.286 60.4905 74.2257C60.3825 74.1654 60.2926 74.088 60.2208 73.9933C60.1488 73.8999 60.0957 73.7934 60.0616 73.6736C60.0277 73.5525 60.0165 73.4258 60.0281 73.2935L60.2191 71.3772L60.5613 71.4107L60.3819 73.3281C60.375 73.4124 60.38 73.4947 60.397 73.5749C60.4154 73.6551 60.4456 73.7274 60.4877 73.7917C60.5285 73.8559 60.5822 73.9095 60.6486 73.9527C60.7163 73.9959 60.7962 74.022 60.8882 74.031C60.9802 74.04 61.0629 74.0304 61.1363 74.0023C61.2099 73.9728 61.2736 73.93 61.3275 73.8737C61.3799 73.8187 61.4223 73.7535 61.4545 73.6781C61.4867 73.6028 61.5082 73.5231 61.5191 73.4391L61.712 71.523L62.06 71.557Z" fill="white"/>
<path fill-rule="evenodd" clip-rule="evenodd" d="M18.1999 60.4999L28.6999 61.4999C29.7999 61.5999 30.5999 62.5999 30.4999 63.6999L29.3999 74.1999C29.2999 75.2999 28.2999 76.0999 27.1999 75.9999L16.6999 74.9999C15.5999 74.8999 14.7999 73.8999 14.8999 72.7999L15.8999 62.2999C15.9999 61.1999 16.9999 60.3999 18.0999 60.4999H18.1999Z" fill="#E35048"/>
<path fill-rule="evenodd" clip-rule="evenodd" d="M16 82.3998L26.6 83.4998C27.7 83.5998 28.5 84.5998 28.4 85.6998L27.3 96.2998C27.2 97.3998 26.2 98.1998 25.1 98.0998L14.5 96.9998C13.4 96.8998 12.6 95.8998 12.7 94.7998L13.8 84.1998C13.9 83.0998 14.9 82.2998 16 82.3998Z" fill="#5A5A5A"/>
<path fill-rule="evenodd" clip-rule="evenodd" d="M38.9 84.6998L49.8 85.7999C50.9 85.8999 51.7 86.8998 51.6 87.9998L50.5 98.8998C50.4 99.9998 49.4 100.8 48.3 100.7L37.4 99.5999C36.3 99.4999 35.5 98.4998 35.6 97.3998L36.7 86.4998C36.8 85.3998 37.8 84.5998 38.9 84.6998Z" fill="#5A5A5A"/>
<path fill-rule="evenodd" clip-rule="evenodd" d="M62.8 86.9999L73.7 88.0999C74.8 88.1999 75.6 89.1999 75.5 90.2999L74.4 101.3C74.3 102.4 73.3 103.2 72.2 103.1L61.3 102C60.2 101.9 59.4 100.9 59.5 99.7999L60.6 88.7999C60.7 87.6999 61.7 86.8999 62.8 86.9999Z" fill="#5A5A5A"/>
<path fill-rule="evenodd" clip-rule="evenodd" d="M85.3 89.2999L96.6 90.3999C97.7 90.4999 98.5 91.4999 98.4 92.5999L97.3 103.9C97.2 105 96.2 105.8 95.1 105.7L83.8 104.6C82.7 104.5 81.9 103.5 82 102.4L83.1 91.0999C83.2 89.9999 84.2 89.1999 85.3 89.2999Z" fill="#5A5A5A"/>
<path d="M86.0694 97.8214C86.0793 97.6714 86.1373 97.548 86.2435 97.4512C86.3498 97.3525 86.4916 97.309 86.669 97.3206C86.8444 97.3322 86.9784 97.3929 87.071 97.5027C87.1655 97.6127 87.2078 97.7436 87.1978 97.8957C87.1878 98.0477 87.1278 98.171 87.0179 98.2655C86.91 98.3582 86.7703 98.399 86.5988 98.3877C86.4253 98.3763 86.2913 98.3166 86.1966 98.2085C86.1019 98.1005 86.0595 97.9715 86.0694 97.8214ZM89.6651 98.058C89.675 97.9079 89.733 97.7845 89.8392 97.6877C89.9455 97.589 90.0874 97.5455 90.2647 97.5572C90.4401 97.5687 90.5741 97.6294 90.6667 97.7392C90.7613 97.8492 90.8035 97.9802 90.7935 98.1322C90.7835 98.2842 90.7236 98.4075 90.6136 98.502C90.5057 98.5948 90.366 98.6355 90.1945 98.6242C90.0211 98.6128 89.887 98.5531 89.7923 98.4451C89.6977 98.3371 89.6553 98.208 89.6651 98.058ZM93.2609 98.2945C93.2707 98.1444 93.3288 98.021 93.435 97.9243C93.5413 97.8256 93.6831 97.7821 93.8605 97.7937C94.0359 97.8053 94.1699 97.866 94.2625 97.9758C94.357 98.0857 94.3993 98.2167 94.3893 98.3687C94.3793 98.5208 94.3193 98.644 94.2093 98.7386C94.1015 98.8313 93.9618 98.872 93.7903 98.8608C93.6168 98.8494 93.4827 98.7896 93.3881 98.6816C93.2934 98.5736 93.251 98.4446 93.2609 98.2945Z" fill="white"/>
<path fill-rule="evenodd" clip-rule="evenodd" d="M3.99997 202.8L14.6 203.9C15.7 204 16.5 205 16.4 206.1L15.3 216.7C15.2 217.8 14.2 218.6 13.1 218.5L2.49997 217.4C1.39997 217.3 0.599968 216.3 0.699968 215.2L1.79997 204.6C1.89997 203.5 2.89997 202.7 3.99997 202.8Z" fill="#5A5A5A"/>
<path d="M6.00033 211.627L5.64071 211.592L5.87229 209.221L5.10415 209.43L5.13623 209.102L6.24755 208.794L6.27671 208.797L6.00033 211.627ZM8.96086 211.916L7.1064 211.735L7.13164 211.477L8.15948 210.537C8.2514 210.453 8.32871 210.378 8.39139 210.312C8.45408 210.247 8.50524 210.185 8.54488 210.127C8.5844 210.071 8.61388 210.017 8.63332 209.965C8.65289 209.912 8.66546 209.857 8.67103 209.8C8.67786 209.73 8.67259 209.663 8.65521 209.6C8.63925 209.536 8.61211 209.479 8.57377 209.429C8.53414 209.38 8.48448 209.339 8.42481 209.307C8.36656 209.274 8.29856 209.253 8.2208 209.246C8.1262 209.237 8.04258 209.242 7.96994 209.263C7.8986 209.283 7.83785 209.316 7.78768 209.361C7.73609 209.407 7.69516 209.464 7.66487 209.533C7.63588 209.602 7.61708 209.681 7.60848 209.769L7.24691 209.734C7.25856 209.614 7.29024 209.504 7.34196 209.403C7.3938 209.301 7.46311 209.214 7.54988 209.143C7.63536 209.072 7.73675 209.018 7.85405 208.982C7.97264 208.947 8.10451 208.936 8.24966 208.95C8.38314 208.963 8.50105 208.995 8.60339 209.046C8.70715 209.095 8.79255 209.158 8.85959 209.236C8.92662 209.313 8.97489 209.401 9.00441 209.501C9.03522 209.601 9.04512 209.707 9.03411 209.82C9.02588 209.904 9.00346 209.986 8.96685 210.066C8.93037 210.145 8.88423 210.222 8.82844 210.298C8.77135 210.374 8.70654 210.448 8.63403 210.521C8.56294 210.592 8.48795 210.663 8.40909 210.734L7.56855 211.484L8.98952 211.623L8.96086 211.916ZM10.1909 210.433L10.4475 210.458C10.5382 210.467 10.6191 210.463 10.6902 210.445C10.7626 210.427 10.8248 210.399 10.877 210.361C10.9278 210.323 10.9684 210.275 10.9989 210.218C11.0293 210.161 11.048 210.096 11.055 210.025C11.0632 209.941 11.0593 209.866 11.0434 209.802C11.0276 209.736 11.0003 209.681 10.9616 209.635C10.924 209.591 10.8751 209.556 10.8148 209.531C10.7559 209.504 10.6869 209.487 10.6079 209.479C10.5314 209.471 10.4603 209.476 10.3945 209.493C10.3302 209.509 10.2739 209.537 10.2256 209.575C10.1761 209.613 10.1361 209.661 10.1057 209.718C10.0752 209.776 10.0564 209.841 10.0492 209.915L9.68763 209.88C9.69813 209.772 9.72874 209.673 9.77945 209.583C9.83158 209.491 9.89935 209.413 9.98277 209.349C10.0661 209.287 10.1628 209.241 10.273 209.211C10.3846 209.18 10.5059 209.171 10.6367 209.183C10.7637 209.196 10.878 209.225 10.9796 209.27C11.0812 209.314 11.1664 209.373 11.235 209.448C11.3035 209.523 11.3537 209.612 11.3854 209.716C11.4171 209.82 11.4266 209.937 11.4138 210.068C11.4085 210.122 11.3946 210.178 11.3721 210.235C11.3495 210.291 11.3181 210.345 11.2778 210.396C11.2374 210.448 11.1869 210.496 11.1263 210.54C11.0672 210.583 10.9979 210.617 10.9182 210.642C11.0073 210.68 11.08 210.727 11.1362 210.781C11.1937 210.835 11.2384 210.893 11.2701 210.957C11.3006 211.02 11.3197 211.085 11.3275 211.153C11.3366 211.22 11.338 211.286 11.3317 211.351C11.3188 211.483 11.2847 211.598 11.2293 211.696C11.174 211.794 11.1027 211.874 11.0155 211.936C10.9282 212 10.8276 212.045 10.7138 212.072C10.6014 212.097 10.4817 212.104 10.3547 212.092C10.2303 212.08 10.1147 212.051 10.008 212.005C9.90255 211.959 9.81295 211.899 9.73918 211.824C9.66542 211.748 9.6093 211.66 9.57085 211.558C9.53368 211.456 9.52118 211.343 9.53333 211.219L9.89294 211.254C9.88573 211.328 9.89146 211.396 9.91014 211.46C9.93011 211.523 9.96133 211.578 10.0038 211.626C10.0463 211.673 10.0994 211.712 10.1632 211.741C10.2284 211.771 10.3017 211.79 10.3834 211.798C10.465 211.806 10.5399 211.803 10.608 211.789C10.6763 211.773 10.7359 211.746 10.7868 211.706C10.8378 211.667 10.8787 211.616 10.9097 211.553C10.942 211.49 10.9626 211.413 10.9713 211.324C10.9799 211.236 10.9724 211.158 10.9488 211.092C10.9266 211.024 10.8917 210.967 10.8441 210.919C10.7951 210.871 10.7341 210.833 10.6609 210.805C10.5891 210.777 10.5084 210.759 10.419 210.75L10.1624 210.725L10.1909 210.433Z" fill="white"/>
<path fill-rule="evenodd" clip-rule="evenodd" d="M73.4 209.7L84.7 210.8C85.8 210.9 86.6 211.9 86.5 213L85.4 224.3C85.3 225.4 84.3 226.2 83.2 226.1L71.9 225C70.8 224.9 70 223.9 70.1 222.8L71.2 211.5C71.3 210.4 72.3 209.6 73.4 209.7Z" fill="#5A5A5A"/>
<path fill-rule="evenodd" clip-rule="evenodd" d="M8.79994 155L19.3999 156.1C20.4999 156.2 21.2999 157.2 21.1999 158.3L17.3999 196.2C17.2999 197.3 16.2999 198.1 15.1999 198L4.59994 196.9C3.49994 196.8 2.69994 195.8 2.79994 194.7L6.59994 156.8C6.69994 155.7 7.69994 154.9 8.79994 155Z" fill="#5A5A5A"/>
<path d="M11.7486 177.841C11.719 177.97 11.6735 178.087 11.6122 178.193C11.5511 178.297 11.4765 178.383 11.3886 178.453C11.2992 178.524 11.1967 178.577 11.0809 178.61C10.9666 178.642 10.8414 178.651 10.7053 178.638C10.5887 178.626 10.484 178.6 10.3913 178.558C10.2999 178.515 10.2202 178.461 10.152 178.395C10.0826 178.33 10.0245 178.255 9.97776 178.17C9.93235 178.086 9.89671 177.996 9.87083 177.899C9.84365 177.802 9.82599 177.702 9.81785 177.597C9.811 177.493 9.81205 177.389 9.821 177.284L9.85954 176.889C9.87108 176.784 9.89028 176.682 9.91712 176.581C9.94526 176.48 9.98203 176.385 10.0274 176.295C10.0715 176.205 10.124 176.123 10.1849 176.05C10.2471 175.975 10.3187 175.912 10.3996 175.861C10.4791 175.81 10.5678 175.772 10.6655 175.749C10.7634 175.725 10.8714 175.718 10.9893 175.73C11.1305 175.744 11.2547 175.778 11.3619 175.833C11.4692 175.887 11.5591 175.957 11.6317 176.044C11.7042 176.132 11.759 176.234 11.7961 176.35C11.8344 176.466 11.8548 176.593 11.8572 176.729L11.4976 176.694C11.4943 176.607 11.482 176.526 11.4607 176.449C11.4394 176.372 11.4075 176.304 11.365 176.243C11.3225 176.183 11.2677 176.134 11.2008 176.096C11.1353 176.057 11.0552 176.033 10.9606 176.023C10.8751 176.015 10.7979 176.022 10.729 176.044C10.6616 176.065 10.6022 176.097 10.5508 176.14C10.4982 176.184 10.4526 176.235 10.414 176.296C10.3767 176.356 10.3448 176.421 10.3184 176.49C10.292 176.56 10.2706 176.632 10.2542 176.706C10.2392 176.779 10.2283 176.851 10.2215 176.921L10.1826 177.319C10.1757 177.389 10.1725 177.462 10.173 177.538C10.1748 177.613 10.182 177.687 10.1945 177.76C10.2068 177.834 10.2255 177.905 10.2504 177.971C10.2753 178.038 10.3093 178.097 10.3526 178.15C10.3957 178.204 10.4483 178.248 10.5103 178.283C10.5725 178.317 10.647 178.338 10.7338 178.346C10.8284 178.356 10.9115 178.349 10.9831 178.325C11.056 178.303 11.119 178.266 11.1723 178.216C11.2254 178.168 11.2698 178.109 11.3054 178.039C11.3411 177.968 11.369 177.89 11.389 177.806L11.7486 177.841ZM13.9981 178.92L13.658 178.887L13.7857 177.579L12.6252 177.465L12.4975 178.774L12.1592 178.741L12.4356 175.91L12.7739 175.943L12.655 177.16L13.8155 177.274L13.9343 176.057L14.2745 176.09L13.9981 178.92Z" fill="white"/>
<path fill-rule="evenodd" clip-rule="evenodd" d="M78.0999 161.9L89.3999 163C90.4999 163.1 91.2999 164.1 91.1999 165.2L87.1999 205C87.0999 206.1 86.0999 206.9 84.9999 206.8L73.6999 205.7C72.5999 205.6 71.7999 204.6 71.8999 203.5L75.8999 163.7C75.9999 162.6 76.9999 161.8 78.0999 161.9Z" fill="#5A5A5A"/>
<path d="M79.2412 186.581L78.6234 183.664L79.0083 183.701L79.424 185.875L79.4514 186.017L79.508 185.879L80.3399 183.831L80.7228 183.869L79.5542 186.612L79.2412 186.581ZM82.9013 185.675C82.8902 185.776 82.8711 185.877 82.8441 185.979C82.8186 186.08 82.7843 186.177 82.7412 186.269C82.6982 186.362 82.646 186.447 82.5848 186.525C82.5248 186.603 82.4556 186.669 82.3769 186.724C82.2983 186.78 82.2099 186.821 82.1117 186.848C82.015 186.874 81.9083 186.881 81.7917 186.869C81.6751 186.858 81.5711 186.83 81.48 186.786C81.3902 186.741 81.3121 186.683 81.2456 186.614C81.1791 186.545 81.1233 186.466 81.0783 186.378C81.0334 186.288 80.9987 186.194 80.9744 186.095C80.9488 185.996 80.9326 185.894 80.9257 185.79C80.9189 185.686 80.9197 185.583 80.9283 185.482L80.9598 185.159C80.971 185.058 80.9893 184.958 81.0149 184.857C81.0418 184.755 81.0775 184.657 81.1219 184.565C81.1649 184.472 81.2164 184.387 81.2764 184.309C81.3377 184.23 81.4078 184.162 81.4865 184.106C81.5652 184.051 81.6529 184.01 81.7496 183.984C81.8477 183.957 81.9551 183.95 82.0718 183.961C82.1884 183.972 82.2922 184.001 82.3833 184.046C82.4745 184.091 82.5533 184.147 82.6198 184.217C82.6863 184.286 82.7414 184.365 82.785 184.455C82.83 184.543 82.8654 184.636 82.891 184.736C82.9153 184.835 82.9302 184.937 82.9356 185.042C82.9423 185.148 82.9414 185.251 82.9328 185.352L82.9013 185.675ZM82.5775 185.313C82.5828 185.246 82.5851 185.175 82.5844 185.102C82.5838 185.028 82.578 184.953 82.567 184.879C82.5545 184.806 82.5358 184.735 82.5111 184.667C82.4864 184.598 82.4532 184.536 82.4115 184.481C82.3697 184.427 82.3184 184.383 82.2577 184.348C82.1971 184.312 82.1247 184.29 82.0404 184.282C81.9575 184.274 81.8828 184.281 81.8164 184.305C81.75 184.329 81.6911 184.363 81.6396 184.407C81.588 184.453 81.5435 184.508 81.5059 184.571C81.4685 184.633 81.4372 184.698 81.4121 184.768C81.3856 184.839 81.3642 184.91 81.3479 184.983C81.333 185.055 81.3217 185.124 81.314 185.19L81.2821 185.517C81.2769 185.583 81.2746 185.653 81.2752 185.728C81.277 185.803 81.2842 185.877 81.2967 185.95C81.309 186.024 81.3275 186.096 81.3522 186.165C81.3768 186.234 81.4101 186.296 81.4519 186.35C81.4936 186.405 81.5448 186.45 81.6054 186.486C81.666 186.522 81.7384 186.544 81.8226 186.553C81.9069 186.561 81.9822 186.553 82.0486 186.53C82.1163 186.506 82.1759 186.471 82.2275 186.425C82.2777 186.38 82.3209 186.327 82.357 186.265C82.3945 186.202 82.4266 186.135 82.4531 186.065C82.4782 185.995 82.4976 185.924 82.5113 185.851C82.5263 185.777 82.5377 185.707 82.5456 185.64L82.5775 185.313ZM83.7653 186.715L85.1493 186.85L85.1195 187.155L83.3759 186.985L83.6522 184.155L84.0119 184.19L83.7653 186.715Z" fill="white"/>
<path fill-rule="evenodd" clip-rule="evenodd" d="M88.3 67.4999L98.8 68.4999C99.9 68.5999 100.7 69.5999 100.6 70.6999L99.6 81.1999C99.5 82.2999 98.5 83.0999 97.4 82.9999L86.9 81.9999C85.8 81.8999 85 80.8999 85.1 79.7999L86.1 69.2999C86.2 68.1999 87.2 67.3999 88.3 67.4999Z" fill="#5A5A5A"/>
<path d="M89.2033 74.1766L88.3285 74.0912L88.0821 76.6143L87.7322 76.5802L87.9786 74.057L87.1039 73.9716L87.1339 73.6645L89.2333 73.8695L89.2033 74.1766ZM90.1329 76.8146L89.5151 73.897L89.9 73.9346L90.3157 76.1083L90.3431 76.2503L90.3997 76.1126L91.2316 74.0646L91.6145 74.102L90.4459 76.8452L90.1329 76.8146ZM92.2805 77.2696L91.9578 77.2381L93.4398 74.2802L93.7606 74.3116L92.2805 77.2696ZM95.6435 76.6129L94.6987 76.5206L94.3997 77.2313L94.0401 77.1961L95.2301 74.4551L95.5314 74.4845L96.1531 77.4025L95.7954 77.3676L95.6435 76.6129ZM94.8265 76.2172L95.5788 76.2906L95.3255 75.0256L94.8265 76.2172ZM97.3058 77.515L96.688 74.5974L97.0729 74.635L97.4886 76.8088L97.516 76.9508L97.5726 76.813L98.4045 74.7651L98.7874 74.8024L97.6188 77.5456L97.3058 77.515Z" fill="white"/>
<path d="M52.1999 158C65.3995 158 76.0999 147.3 76.0999 134.1C76.0999 120.9 65.3995 110.2 52.1999 110.2C39.0003 110.2 28.2999 120.9 28.2999 134.1C28.2999 147.3 39.0003 158 52.1999 158Z" fill="#5A5A5A"/>
<path d="M52.5 140.9C56.2555 140.9 59.3 137.855 59.3 134.1C59.3 130.344 56.2555 127.3 52.5 127.3C48.7444 127.3 45.7 130.344 45.7 134.1C45.7 137.855 48.7444 140.9 52.5 140.9Z" fill="#8E8E8E" fill-opacity="0.4" stroke="white" stroke-width="0.5"/>
<path d="M51.7955 134.441C51.7843 134.542 51.7653 134.644 51.7383 134.746C51.7128 134.847 51.6785 134.943 51.6354 135.036C51.5923 135.129 51.5402 135.214 51.479 135.291C51.419 135.369 51.3497 135.436 51.2711 135.491C51.1924 135.546 51.104 135.587 51.0059 135.614C50.9092 135.64 50.8025 135.647 50.6859 135.636C50.5692 135.625 50.4653 135.597 50.3741 135.553C50.2844 135.507 50.2063 135.45 50.1398 135.38C50.0733 135.311 50.0175 135.232 49.9725 135.144C49.9275 135.055 49.8929 134.961 49.8686 134.861C49.843 134.762 49.8267 134.66 49.8199 134.556C49.813 134.452 49.8139 134.35 49.8225 134.249L49.854 133.926C49.8652 133.825 49.8835 133.724 49.9091 133.623C49.936 133.521 49.9717 133.424 50.016 133.331C50.0591 133.239 50.1106 133.154 50.1705 133.076C50.2319 132.997 50.302 132.929 50.3807 132.873C50.4594 132.817 50.5471 132.777 50.6438 132.751C50.7419 132.724 50.8493 132.716 50.966 132.728C51.0826 132.739 51.1864 132.767 51.2775 132.813C51.3687 132.857 51.4475 132.914 51.514 132.983C51.5805 133.052 51.6356 133.132 51.6792 133.221C51.7242 133.309 51.7595 133.403 51.7852 133.502C51.8095 133.601 51.8244 133.704 51.8298 133.809C51.8365 133.914 51.8356 134.017 51.827 134.119L51.7955 134.441ZM51.4717 134.08C51.477 134.012 51.4793 133.942 51.4786 133.869C51.478 133.794 51.4722 133.72 51.4611 133.645C51.4487 133.572 51.43 133.502 51.4053 133.434C51.3806 133.365 51.3474 133.302 51.3057 133.247C51.2639 133.194 51.2126 133.149 51.1519 133.115C51.0913 133.079 51.0189 133.056 50.9346 133.048C50.8517 133.04 50.777 133.048 50.7106 133.072C50.6442 133.095 50.5853 133.129 50.5338 133.174C50.4822 133.22 50.4376 133.274 50.4001 133.338C50.3627 133.399 50.3314 133.465 50.3063 133.534C50.2798 133.605 50.2584 133.677 50.2421 133.75C50.2272 133.822 50.2159 133.891 50.2082 133.957L50.1763 134.283C50.1711 134.349 50.1688 134.42 50.1694 134.494C50.1712 134.569 50.1784 134.643 50.1909 134.716C50.2032 134.791 50.2217 134.863 50.2464 134.932C50.271 135.001 50.3043 135.062 50.3461 135.116C50.3878 135.171 50.439 135.217 50.4996 135.253C50.5602 135.289 50.6326 135.311 50.7168 135.319C50.801 135.327 50.8764 135.32 50.9428 135.296C51.0105 135.273 51.0701 135.238 51.1217 135.192C51.1719 135.147 51.215 135.094 51.2512 135.032C51.2887 134.969 51.3208 134.902 51.3473 134.831C51.3724 134.762 51.3918 134.69 51.4055 134.617C51.4205 134.544 51.4319 134.474 51.4398 134.407L51.4717 134.08ZM53.0301 134.499L52.6803 134.826L52.5869 135.782L52.2195 135.746L52.4959 132.916L52.8633 132.952L52.7283 134.334L53.0358 134.019L53.9674 133.06L54.4048 133.103L53.2944 134.244L54.1945 135.939L53.7571 135.897L53.0301 134.499Z" fill="white"/>
<path d="M51.5 119.1L53.7 117.3L55.5 119.5" stroke="white" stroke-width="0.5"/>
<path d="M48.5 149.9L50.3 152.1L52.5 150.3" stroke="white" stroke-width="0.5"/>
<path d="M67.1999 133.7L68.9999 135.9L66.7999 137.7" stroke="white" stroke-width="0.5"/>
<path d="M37.3 130.8L35.1 132.6L36.9 134.8" stroke="white" stroke-width="0.5"/>
<path d="M23.7 65.8001C24.9 66.3001 25.7 67.5001 25.7 68.8001C25.7 70.1001 24.2 72.1001 22.4 72.1001C20.6 72.1001 19.1 70.6001 19.1 68.8001C19.1 67.0001 20.2 65.9001 21.7 65.6001" stroke="white" stroke-width="0.5"/>
<path d="M22.4984 67.5L22.6984 64.5" stroke="white" stroke-width="0.5"/>
<path d="M20.6 93.9998C22.6435 93.9998 24.3 92.3433 24.3 90.2999C24.3 88.2564 22.6435 86.5999 20.6 86.5999C18.5566 86.5999 16.9 88.2564 16.9 90.2999C16.9 92.3433 18.5566 93.9998 20.6 93.9998Z" stroke="white" stroke-width="0.5"/>
<path d="M20.4 92.5025L20.7 89.8025" stroke="white" stroke-width="0.8"/>
<path d="M20.8122 89.0947L20.9 88.199" stroke="white" stroke-width="0.8"/>
<path d="M40.8 91.2999L43.8 89.3999L46.4 91.8999L46 95.4999C45.9 95.7999 45.7 95.8999 45.4 95.9999C45 95.9999 40.9 95.5999 40.9 95.5999C40.6 95.5999 40.4 95.2999 40.4 94.9999C40.4 94.4999 40.8 91.3999 40.8 91.3999V91.2999Z" stroke="white" stroke-width="0.5"/>
<path d="M42.1 95.2998L42.4 92.2998L44.4 92.4998L44.1 95.4998" stroke="white" stroke-width="0.5"/>
<path d="M69.6 96.9998V96.1998C69.7 95.5998 69.3001 95.0998 68.7001 94.9998C67.7001 94.8998 64.8 94.5999 64.8 94.5999" stroke="white" stroke-width="0.5"/>
<path d="M65.9977 93.2983L64.4977 94.4983L65.6977 96.2983" stroke="white" stroke-width="0.5"/>
<path d="M83.7999 166.1L83.2999 170.8" stroke="white" stroke-width="0.5"/>
<path d="M85.9 168.7L81.1 168.2" stroke="white" stroke-width="0.5"/>
<path d="M82.4 200.2L77.6 199.7" stroke="white" stroke-width="0.5"/>
<path d="M13.7999 159.2L13.2999 163.9" stroke="white" stroke-width="0.5"/>
<path d="M15.9 161.7L11.1 161.2" stroke="white" stroke-width="0.5"/>
<path d="M13 191.3L8.19995 190.8" stroke="white" stroke-width="0.5"/>
<path fill-rule="evenodd" clip-rule="evenodd" d="M-14.4 126.7C-11 124.4 -7.10002 123 -3.00002 122.8C3.49998 122.2 9.99998 121.2 16.4 119.6C16.4 119.6 25.9 115.6 30.3 120.9C34.8 126.2 30.6 141.5 21.8 146.2C15.8 149.3 9.49998 151.7 2.99998 153.4C2.99998 153.4 -6.70002 155.4 -11.7 160" fill="white"/>
<path d="M-14.4 126.7C-11 124.4 -7.10002 123 -3.00002 122.8C3.49998 122.2 9.99997 121.2 16.4 119.6C16.4 119.6 25.9 115.6 30.3 120.9C34.8 126.2 30.6 141.5 21.8 146.2C15.8 149.3 9.49998 151.7 2.99998 153.4C2.99998 153.4 -6.70002 155.4 -11.7 160" stroke="#010101" stroke-width="1.5" stroke-linecap="round" stroke-linejoin="round"/>
<path d="M23.5 118.3C25.1 119.4 26.3 120.9 27.1 122.7C28.2 125.1 24.8 125.5 24.8 125.5C18.5 126.9 12 127.3 5.60001 126.7C-0.399988 126.2 1.00001 122.2 1.00001 122.2" stroke="#010101" stroke-width="1.5" stroke-linecap="round" stroke-linejoin="round"/>
<path d="M5.69995 126.6C5.69995 126.6 8.49995 124.7 8.19995 121.8" stroke="#010101" stroke-width="1.5" stroke-linecap="round" stroke-linejoin="round"/>
</g>
<defs>
<linearGradient id="paint0_linear_2051_30194" x1="200.5" y1="157.7" x2="211" y2="115.5" gradientUnits="userSpaceOnUse">
<stop stop-color="#F98177"/>
<stop offset="0.5" stop-color="#F98177"/>
<stop offset="1" stop-color="#DEE7ED" stop-opacity="0"/>
</linearGradient>
</defs>
</svg>
