<svg width="32" height="32" viewBox="0 0 32 32" fill="none" xmlns="http://www.w3.org/2000/svg">
<path d="M26.6667 25.4815L26.6667 6.5185C26.6667 5.86394 26.0697 5.33331 25.3333 5.33331L21.3333 5.33331C20.597 5.33331 20 5.86394 20 6.5185L20 25.4815C20 26.136 20.597 26.6666 21.3333 26.6666H25.3333C26.0697 26.6666 26.6667 26.136 26.6667 25.4815Z" fill="white" stroke="white" stroke-width="2" stroke-linecap="round" stroke-linejoin="round"/>
<path d="M12 25.4815L12 6.5185C12 5.86394 11.403 5.33331 10.6667 5.33331L6.66667 5.33331C5.93029 5.33331 5.33333 5.86394 5.33333 6.5185L5.33333 25.4815C5.33333 26.136 5.93029 26.6666 6.66667 26.6666H10.6667C11.403 26.6666 12 26.136 12 25.4815Z" fill="white" stroke="white" stroke-width="2" stroke-linecap="round" stroke-linejoin="round"/>
</svg>
