<svg width="28" height="28" viewBox="0 0 28 28" fill="none" xmlns="http://www.w3.org/2000/svg">
<path fill-rule="evenodd" clip-rule="evenodd" d="M11.4461 14.2837L5.64273 9.36903C5.16654 8.96576 5.10391 8.24987 5.50284 7.77004C5.90177 7.29021 6.61119 7.22814 7.08738 7.63141L22.0159 20.274C22.4921 20.6772 22.5547 21.3931 22.1558 21.8729C21.7568 22.3528 21.0474 22.4148 20.5712 22.0116L18.3802 20.1561L14.2514 24.2733C13.6119 24.911 12.5382 24.5067 12.446 23.6452L12.4396 23.5249L12.4396 16.2003L8.85742 19.0597C8.39972 19.4248 7.73184 19.3508 7.36568 18.8944C7.02769 18.4731 7.06492 17.8732 7.43264 17.4963L7.53143 17.4069L11.4461 14.2837ZM14.5619 16.9224V20.9656L16.7544 18.7792L14.5619 16.9224ZM12.4396 4.47508L12.4396 10.0081L16.2055 13.1973L19.4705 10.5931L19.5795 10.4932C19.8473 10.2111 19.931 9.8111 19.8201 9.44876L19.7672 9.31393L19.7199 9.22535L19.6904 9.17887C19.6524 9.12231 19.6082 9.06851 19.5579 9.01835L14.2514 3.72673L14.1616 3.64617C13.4856 3.10197 12.4396 3.57321 12.4396 4.47508ZM14.5619 11.7991V7.03243L17.2173 9.68035L14.5619 11.7991Z" fill="#589DFF"/>
</svg>
