<svg width="347" height="57" viewBox="0 0 347 57" fill="none" xmlns="http://www.w3.org/2000/svg">
<rect width="347" height="57" rx="12" fill="#171717"/>
<rect x="53" y="8" width="234" height="41" rx="12" fill="#303030"/>
<path d="M70.7283 33.2529C73.1072 33.2529 74.7957 31.8447 75.0076 29.7803L75.0145 29.7051H73.0047L72.991 29.7598C72.7723 30.8125 71.9178 31.5029 70.7352 31.5029C69.1766 31.5029 68.2127 30.1904 68.2127 28.0713V28.0576C68.2127 25.9385 69.1766 24.6328 70.7283 24.6328C71.9041 24.6328 72.7859 25.3848 72.9979 26.4922V26.54H75.0076V26.458C74.8162 24.373 73.0662 22.8828 70.7283 22.8828C67.8641 22.8828 66.1004 24.8584 66.1004 28.0576V28.0713C66.1004 31.2705 67.8709 33.2529 70.7283 33.2529ZM78.9049 33.1572C79.9781 33.1572 80.7438 32.6582 81.0855 31.8379H81.2086V33H83.2047V25.4736H81.2086V29.8213C81.2086 30.8398 80.6754 31.5029 79.691 31.5029C78.7477 31.5029 78.3443 30.9492 78.3443 29.8828V25.4736H76.3482V30.3408C76.3482 32.1318 77.2164 33.1572 78.9049 33.1572ZM87.9018 33.1572C89.8295 33.1572 91.2035 32.1865 91.2035 30.6963V30.6895C91.2035 29.5752 90.4994 28.9463 88.9955 28.625L87.7445 28.3584C86.9652 28.1875 86.685 27.9551 86.685 27.5518V27.5449C86.685 27.0391 87.1771 26.7178 87.8676 26.7178C88.6127 26.7178 89.057 27.0938 89.1664 27.4971L89.1732 27.5312H91.0258V27.5039C90.9438 26.2939 89.85 25.3096 87.8744 25.3096C85.9945 25.3096 84.7367 26.2529 84.7367 27.668V27.6748C84.7367 28.8027 85.4477 29.5068 86.8832 29.8145L88.141 30.0811C88.9066 30.252 89.2074 30.5049 89.2074 30.9082V30.9219C89.2074 31.4209 88.6879 31.749 87.9223 31.749C87.1361 31.749 86.6781 31.4141 86.5209 30.9492L86.5072 30.9219H84.5453L84.5521 30.9492C84.6957 32.2412 85.8578 33.1572 87.9018 33.1572ZM95.6203 33.0273C96.0031 33.0273 96.3723 32.9863 96.6184 32.9385V31.4551C96.427 31.4756 96.2902 31.4893 96.0305 31.4893C95.3537 31.4893 95.0666 31.1885 95.0666 30.5117V26.9775H96.6184V25.4736H95.0666V23.6758H93.05V25.4736H91.8879V26.9775H93.05V30.9697C93.05 32.4326 93.7883 33.0273 95.6203 33.0273ZM101.268 33.1572C103.585 33.1572 104.979 31.6943 104.979 29.2402V29.2266C104.979 26.793 103.564 25.3096 101.268 25.3096C98.9707 25.3096 97.5557 26.7998 97.5557 29.2266V29.2402C97.5557 31.6875 98.9502 33.1572 101.268 33.1572ZM101.268 31.5918C100.201 31.5918 99.5996 30.7236 99.5996 29.2402V29.2266C99.5996 27.7568 100.208 26.875 101.268 26.875C102.32 26.875 102.936 27.7568 102.936 29.2266V29.2402C102.936 30.7236 102.327 31.5918 101.268 31.5918ZM106.306 33H108.303V28.4609C108.303 27.5996 108.849 26.9639 109.629 26.9639C110.408 26.9639 110.866 27.4355 110.866 28.2422V33H112.862V28.3721C112.862 27.5586 113.382 26.9639 114.188 26.9639C115.022 26.9639 115.432 27.4219 115.432 28.3311V33H117.429V27.832C117.429 26.2803 116.492 25.3096 114.995 25.3096C113.942 25.3096 113.067 25.8633 112.725 26.6973H112.602C112.295 25.8291 111.536 25.3096 110.511 25.3096C109.526 25.3096 108.747 25.8018 108.426 26.6494H108.303V25.4736H106.306V33ZM120.082 24.3184C120.697 24.3184 121.203 23.8262 121.203 23.2109C121.203 22.5889 120.697 22.0967 120.082 22.0967C119.466 22.0967 118.954 22.5889 118.954 23.2109C118.954 23.8262 119.466 24.3184 120.082 24.3184ZM119.077 33H121.073V25.4736H119.077V33ZM122.612 33H128.894V31.4961H125.189V31.373L128.805 26.7451V25.4736H122.666V26.9775H126.447V27.1006L122.612 31.8516V33ZM133.543 33.1572C135.744 33.1572 136.715 31.8857 136.947 30.9424L136.961 30.874H135.102L135.081 30.915C134.945 31.2021 134.459 31.667 133.584 31.667C132.525 31.667 131.862 30.9492 131.841 29.7119H137.023V29.0898C137.023 26.8135 135.655 25.3096 133.461 25.3096C131.267 25.3096 129.865 26.8477 129.865 29.2402V29.2471C129.865 31.6602 131.253 33.1572 133.543 33.1572ZM133.495 26.8066C134.363 26.8066 134.986 27.3672 135.109 28.4609H131.862C131.985 27.3945 132.627 26.8066 133.495 26.8066Z" fill="#D6D6D6"/>
<path fill-rule="evenodd" clip-rule="evenodd" d="M265.297 33.5303C265.582 33.8232 266.043 33.8232 266.328 33.5303L270.703 29.0303C270.988 28.7374 270.988 28.2626 270.703 27.9697L266.328 23.4697C266.043 23.1768 265.582 23.1768 265.297 23.4697C265.012 23.7626 265.012 24.2374 265.297 24.5303L269.156 28.5L265.297 32.4697C265.012 32.7626 265.012 33.2374 265.297 33.5303Z" fill="#D6D6D6"/>
<path d="M322 29L284.37 29.1338" stroke="#F63F3F" stroke-width="3" stroke-linecap="round" stroke-linejoin="round"/>
<path d="M289.37 34.1348L284.37 29.1348L289.37 24.1348" stroke="#F63F3F" stroke-width="3" stroke-linecap="round" stroke-linejoin="round"/>
</svg>
