<svg width="24" height="24" viewBox="0 0 24 24" fill="none" xmlns="http://www.w3.org/2000/svg">
<path fill-rule="evenodd" clip-rule="evenodd" d="M2 12C2 11.4477 2.44772 11 3 11H11C11.5523 11 12 11.4477 12 12C12 12.5523 11.5523 13 11 13H3C2.44772 13 2 12.5523 2 12Z" fill="black"/>
<path fill-rule="evenodd" clip-rule="evenodd" d="M2 6C2 5.44772 2.44772 5 3 5H16C16.5523 5 17 5.44772 17 6C17 6.55228 16.5523 7 16 7H3C2.44772 7 2 6.55228 2 6Z" fill="black"/>
<path fill-rule="evenodd" clip-rule="evenodd" d="M2 18C2 17.4477 2.44772 17 3 17H16C16.5523 17 17 17.4477 17 18C17 18.5523 16.5523 19 16 19H3C2.44772 19 2 18.5523 2 18Z" fill="black"/>
<path fill-rule="evenodd" clip-rule="evenodd" d="M23.7437 13.7343C24.0854 14.0467 24.0854 14.5533 23.7437 14.8657L21.1187 17.2657C20.777 17.5781 20.223 17.5781 19.8813 17.2657L17.2563 14.8657C16.9146 14.5533 16.9146 14.0467 17.2563 13.7343C17.598 13.4219 18.152 13.4219 18.4937 13.7343L20.5 15.5686L22.5063 13.7343C22.848 13.4219 23.402 13.4219 23.7437 13.7343Z" fill="black"/>
<path fill-rule="evenodd" clip-rule="evenodd" d="M23.7437 10.2657C23.402 10.5781 22.848 10.5781 22.5063 10.2657L20.5 8.43137L18.4937 10.2657C18.152 10.5781 17.598 10.5781 17.2563 10.2657C16.9146 9.95327 16.9146 9.44673 17.2563 9.13431L19.8813 6.73431C20.223 6.4219 20.777 6.4219 21.1187 6.73431L23.7437 9.13431C24.0854 9.44673 24.0854 9.95327 23.7437 10.2657Z" fill="black"/>
<line x1="20.45" y1="8" x2="20.45" y2="16" stroke="black" stroke-width="1.5"/>
</svg>
