<svg width="12" height="12" viewBox="0 0 12 12" fill="none" xmlns="http://www.w3.org/2000/svg">
<g clip-path="url(#clip0_266_134)">
<path fill-rule="evenodd" clip-rule="evenodd" d="M4.50364 6.06411L1.23388 3.32045C0.966149 3.0958 0.931228 2.69665 1.15588 2.42893C1.38053 2.1612 1.77968 2.12628 2.0474 2.35093L10.2704 9.25085C10.5381 9.4755 10.5731 9.87465 10.3484 10.1424C10.1238 10.4101 9.72461 10.445 9.45688 10.2204L8.4084 9.34059L6.08281 11.6384C5.72268 11.9942 5.11802 11.7686 5.06613 11.2879L5.06255 11.2208L5.06253 7.13391L3.04528 8.72938C2.78753 8.93312 2.41143 8.89183 2.20523 8.63716C2.0149 8.40209 2.03586 8.06738 2.24294 7.85703L2.29857 7.80717L4.50364 6.06411ZM6.25766 7.53591V9.794L7.49352 8.57292L6.25766 7.53591ZM5.06255 0.59169L5.06254 3.24561L6.25766 4.24843V2.01785L7.75299 3.49529L6.52093 4.46935L7.44913 5.2482L9.02184 4.00533L9.08323 3.94956C9.23403 3.79217 9.2812 3.569 9.21871 3.36682L9.18896 3.29159L9.16227 3.24217L9.14567 3.21624C9.12427 3.18468 9.09942 3.15466 9.07109 3.12667L6.08281 0.174139L6.03226 0.129191C5.65155 -0.174453 5.06255 0.0884785 5.06255 0.59169Z" fill="#FFFCFC"/>
</g>
<defs>
<clipPath id="clip0_266_134">
<rect width="12" height="12" fill="white"/>
</clipPath>
</defs>
</svg>
