<svg width="28" height="28" viewBox="0 0 28 28" fill="none" xmlns="http://www.w3.org/2000/svg">
<path fill-rule="evenodd" clip-rule="evenodd" d="M9.50203 18.929L10.1762 19.085C10.8194 19.2338 11.4455 18.8256 11.5746 18.1733C11.7037 17.5211 11.287 16.8717 10.6438 16.7229L7.3296 15.9561C6.73618 15.8188 6.14807 16.156 5.96412 16.7389L5.05651 19.6153C4.85713 20.2471 5.20216 20.9376 5.82715 21.1576C6.45215 21.3775 7.12043 21.0436 7.3198 20.4117L7.4193 20.0964C8.80847 21.9844 10.6721 23.1421 12.1849 23.6744C14.0656 24.3362 16.8347 24.5364 19.5057 23.2018C20.4407 22.7345 21.2346 22.1365 21.8973 21.4754L20.0918 19.8398C19.6171 20.2914 19.0598 20.6989 18.4158 21.0207C16.3958 22.03 14.2927 21.8739 12.9069 21.3863C11.8451 21.0126 10.5286 20.2075 9.50203 18.929ZM17.2131 4.51588C18.1136 4.83274 19.1384 5.37117 20.1134 6.15328L18.5153 7.91738C17.8263 7.39174 17.1148 7.02346 16.4911 6.80401C15.1054 6.31637 13.0022 6.16027 10.9822 7.16961C8.97044 8.17487 7.80493 10.016 7.35956 11.4275C7.16018 12.0593 6.4919 12.3932 5.8669 12.1733C5.24191 11.9534 4.89688 11.2629 5.09626 10.631C5.69291 8.74015 7.2132 6.32723 9.89236 4.9885C12.5633 3.65387 15.3324 3.85407 17.2131 4.51588ZM14.7717 10.995C14.2994 10.5228 14.2994 9.7572 14.7717 9.28499C15.244 8.81279 16.0097 8.81279 16.482 9.28499L19.0501 11.8526L21.6135 9.28966C22.0858 8.81745 22.8515 8.81745 23.3238 9.28966C23.7961 9.76186 23.7961 10.5275 23.3238 10.9997L20.7604 13.5626L23.3232 16.125C23.7955 16.5972 23.7955 17.3628 23.3232 17.835C22.8509 18.3072 22.0852 18.3072 21.6129 17.835L19.0501 15.2726L16.4826 17.8397C16.0103 18.3119 15.2446 18.3119 14.7723 17.8397C14.3 17.3675 14.3 16.6019 14.7723 16.1297L17.3398 13.5626L14.7717 10.995Z" fill="#F63F3F"/>
</svg>
