<svg width="268" height="216" viewBox="0 0 268 216" fill="none" xmlns="http://www.w3.org/2000/svg">
<g clip-path="url(#clip0_217_26699)">
<rect width="268" height="216" rx="12" fill="#F2F2F2"/>
<path d="M121.88 67H31.5934C25.3604 67 20.3076 72.1731 20.3076 78.5545V263.427C20.3076 269.808 25.3604 274.981 31.5934 274.981H121.88C128.113 274.981 133.166 269.808 133.166 263.427V78.5545C133.166 72.1731 128.113 67 121.88 67Z" fill="#505050" stroke="#1C1C1C" stroke-width="2" stroke-linecap="round" stroke-linejoin="round"/>
<rect x="24.0311" y="70.7245" width="105.409" height="200.532" rx="7.5" fill="#F9F1EB" stroke="#1C1C1C"/>
<rect x="65.9496" y="77.0992" width="21.5716" height="1.99973" rx="0.999864" fill="#1C1C1C" stroke="#1C1C1C"/>
<rect x="30.5958" y="104.103" width="92.1956" height="18.3444" rx="3" fill="#FF8200"/>
<path d="M64.0696 116.103V115.228H66.6946V116.103H64.0696ZM63.1946 115.228V110.853H64.0696V115.228H63.1946ZM66.6946 115.228V110.853H67.5696V115.228H66.6946ZM64.0696 110.853V109.978H66.6946V110.853H64.0696ZM71.5696 116.103V112.603H72.4446V116.103H71.5696ZM68.9446 116.103V111.728H71.5696V112.603H69.8196V116.103H68.9446ZM73.8196 116.103V115.228H78.1946V116.103H73.8196ZM80.4446 116.103V115.228H82.1946V116.103H80.4446ZM79.5696 115.228V112.603H80.4446V115.228H79.5696ZM82.1946 115.228V112.603H83.0696V115.228H82.1946ZM80.4446 112.603V111.728H82.1946V112.603H80.4446ZM84.4446 116.103V110.853H85.3196V112.603H86.1946V113.478H85.3196V116.103H84.4446ZM85.3196 110.853V109.978H86.1946V110.853H85.3196ZM87.5696 116.103V110.853H88.4446V112.603H89.3196V113.478H88.4446V116.103H87.5696ZM88.4446 110.853V109.978H89.3196V110.853H88.4446Z" fill="white"/>
<rect x="30.5957" y="129.785" width="92.1956" height="18.3444" rx="3" fill="#FF8200"/>
<path d="M65.5546 141.785V140.035H66.4296V141.785H65.5546ZM64.6796 140.035V138.285H65.5546V140.035H64.6796ZM66.4296 140.035V138.285H67.3046V140.035H66.4296ZM63.8046 138.285V135.66H64.6796V138.285H63.8046ZM67.3046 138.285V135.66H68.1796V138.285H67.3046ZM70.4296 141.785V140.91H72.1796V141.785H70.4296ZM69.5546 140.91V138.285H70.4296V140.91H69.5546ZM72.1796 140.91V138.285H73.0546V140.91H72.1796ZM70.4296 138.285V137.41H72.1796V138.285H70.4296ZM74.4296 141.785V135.66H75.3046V141.785H74.4296ZM76.6796 141.785V140.91H81.0546V141.785H76.6796ZM82.4296 140.91V137.41H83.3046V140.91H82.4296ZM83.3046 141.785V140.91H85.0546V137.41H85.9296V141.785H83.3046ZM89.9296 140.91V138.285H90.8046V140.91H89.9296ZM87.3046 143.535V137.41H89.9296V138.285H88.1796V140.91H89.9296V141.785H88.1796V143.535H87.3046Z" fill="white"/>
<rect x="30.5958" y="155.468" width="92.1956" height="18.3444" rx="3" fill="#FF8200"/>
<path d="M59.6163 167.468V166.593H62.2413V167.468H59.6163ZM62.2413 166.593V165.718H63.1163V166.593H62.2413ZM58.7413 166.593V162.218H59.6163V166.593H58.7413ZM62.2413 163.093V162.218H63.1163V163.093H62.2413ZM59.6163 162.218V161.343H62.2413V162.218H59.6163ZM67.1163 167.468V163.968H67.9913V167.468H67.1163ZM64.4913 167.468V161.343H65.3663V163.093H67.1163V163.968H65.3663V167.468H64.4913ZM69.3663 167.468V166.593H73.7413V167.468H69.3663ZM75.1163 166.593V163.968H75.9913V166.593H75.1163ZM75.9913 167.468V166.593H77.7413V163.968H75.9913V163.093H77.7413V161.343H78.6163V167.468H75.9913ZM80.8663 167.468V166.593H82.6163V167.468H80.8663ZM79.9913 166.593V163.968H80.8663V166.593H79.9913ZM82.6163 166.593V163.968H83.4913V166.593H82.6163ZM80.8663 163.968V163.093H82.6163V163.968H80.8663ZM85.7413 167.468V166.593H87.4913V167.468H85.7413ZM88.3663 167.468V166.593H90.1163V167.468H88.3663ZM84.8663 166.593V163.093H85.7413V166.593H84.8663ZM87.4913 166.593V163.093H88.3663V166.593H87.4913ZM90.1163 166.593V163.093H90.9913V166.593H90.1163ZM94.9913 167.468V163.968H95.8663V167.468H94.9913ZM92.3663 167.468V163.093H94.9913V163.968H93.2413V167.468H92.3663Z" fill="white"/>
<path d="M6.65615 177.155L38.2028 161.849C40.9184 160.531 44.1004 162.586 44.1967 165.603C44.4035 172.076 44.9554 176.368 42.677 181.606C42.5632 181.867 42.4145 182.115 42.2433 182.344L38.2526 187.665C38.0855 187.888 37.8956 188.092 37.6859 188.276L34.3856 191.162C34.1293 191.387 33.8455 191.577 33.541 191.729L28.3277 194.336C28.1094 194.445 27.8817 194.534 27.6472 194.602L24.0998 195.625C22.6697 196.037 21.5868 197.209 21.289 198.668L15.052 229.21C14.4845 231.989 11.2858 233.311 8.92222 231.744L-14.5033 216.209C-16.3171 215.007 -16.8364 212.575 -15.6721 210.736L4.20615 179.343C4.80335 178.4 5.65182 177.643 6.65615 177.155Z" fill="url(#paint0_linear_217_26699)"/>
<path d="M-20.0004 215.537L4.21487 179.256C4.80738 178.369 5.62597 177.655 6.58622 177.189L37.4417 162.218C40.3219 160.821 43.8624 163.248 44.2844 166.422C44.8805 170.904 45.6713 174.642 40.7531 183.387C35.8275 192.145 28.8301 194.961 24.8523 195.867C23.0653 196.273 21.462 197.542 21.0175 199.32L10.702 240.588" stroke="#AAAAAA" stroke-width="1.5"/>
<path d="M22.2681 178L22.2681 174.874C22.2682 173.41 21.4687 172.067 20.1836 171.371L19.4996 171" stroke="#AAAAAA"/>
<path d="M17.6548 171.85L26.0977 167.628L34.798 163.278C35.6257 162.864 36.628 163.083 37.2041 163.803C38.0214 164.825 38.4731 166.091 38.4875 167.401L38.4995 168.5L38.4804 170.221C38.4714 171.033 37.9724 171.761 37.2175 172.063L20.6186 178.702C19.6037 179.108 18.4535 178.627 18.0343 177.621L16.6974 174.412C16.2931 173.442 16.7117 172.321 17.6548 171.85Z" stroke="#AAAAAA"/>
<path d="M143.852 201.666H135.488C134.752 201.666 134.154 202.263 134.154 203L134.186 206.294C134.626 206.208 134.835 206.814 134.436 207.018L134.186 207.146L129.837 208.863C128.309 209.466 127.305 210.941 127.305 212.583V219.989C127.305 222.007 128.808 223.709 130.811 223.959L131.977 224.104C132.51 224.17 133.051 224.129 133.567 223.982L142.373 221.473L145.253 220.396C146.816 219.811 147.852 218.318 147.852 216.649V205.666C147.852 203.457 146.061 201.666 143.852 201.666Z" fill="url(#paint1_linear_217_26699)"/>
<path d="M142.188 221.473L142.45 222.175L142.422 222.186L142.393 222.194L142.188 221.473ZM137.116 205.067C137.5 204.914 137.937 205.101 138.09 205.486C138.244 205.871 138.056 206.307 137.671 206.461L137.116 205.067ZM133.382 223.982L133.588 224.703L133.382 223.982ZM131.791 224.104L131.699 224.848L131.791 224.104ZM133.969 200.916H139.667V202.416H133.969V200.916ZM148.417 209.666V216.649H146.917V209.666H148.417ZM145.331 221.098L142.45 222.175L141.925 220.77L144.805 219.693L145.331 221.098ZM142.393 222.194L133.588 224.703L133.177 223.26L141.982 220.751L142.393 222.194ZM131.699 224.848L130.533 224.703L130.718 223.214L131.884 223.36L131.699 224.848ZM126.37 219.989V212.573H127.87V219.989H126.37ZM129.36 208.161L137.116 205.067L137.671 206.461L129.916 209.554L129.36 208.161ZM130.533 224.703C128.155 224.407 126.37 222.386 126.37 219.989H127.87C127.87 221.629 129.091 223.012 130.718 223.214L130.533 224.703ZM133.588 224.703C132.974 224.878 132.332 224.927 131.699 224.848L131.884 223.36C132.317 223.414 132.757 223.38 133.177 223.26L133.588 224.703ZM148.417 216.649C148.417 218.631 147.187 220.404 145.331 221.098L144.805 219.693C146.075 219.218 146.917 218.005 146.917 216.649H148.417ZM126.37 212.573C126.37 210.629 127.555 208.881 129.36 208.161L129.916 209.554C128.681 210.047 127.87 211.243 127.87 212.573H126.37ZM139.667 200.916C144.499 200.916 148.417 204.833 148.417 209.666H146.917C146.917 205.662 143.671 202.416 139.667 202.416V200.916Z" fill="#AAAAAA"/>
<path d="M139.583 209.533L139.583 213.053C139.583 213.347 139.648 213.638 139.774 213.904L141.002 216.5" stroke="#AAAAAA"/>
<path d="M141.702 216.222L135.805 219.498C134.818 220.047 133.573 219.675 133.055 218.677L131.979 216.604C131.9 216.452 131.841 216.291 131.804 216.123L131.259 213.694C131.033 212.685 131.619 211.668 132.608 211.351L139.396 209.175C140.524 208.813 141.715 209.498 141.962 210.651L142.691 214.054C142.875 214.913 142.474 215.793 141.702 216.222Z" stroke="#AAAAAA"/>
<path d="M145.11 176.676H134.774C134.747 176.676 134.721 176.667 134.699 176.651C134.618 176.589 134.501 176.647 134.501 176.749V179.5V182.5L128.532 185.426C127.353 186.004 126.532 187.125 126.337 188.424L125.605 193.308C125.536 193.766 125.547 194.232 125.638 194.686L126.45 198.744C126.781 200.398 128.113 201.666 129.78 201.916L133.019 202.4C133.339 202.448 133.664 202.457 133.986 202.426L138.055 202.042C138.351 202.014 138.644 201.953 138.926 201.86L144.433 200.054L148.301 198.607C149.863 198.023 150.899 196.529 150.899 194.861V184.007C150.899 183.346 150.736 182.695 150.423 182.113L148.633 178.783C147.936 177.485 146.582 176.676 145.11 176.676Z" fill="url(#paint2_linear_217_26699)"/>
<path d="M144.433 200.054L144.695 200.756L144.671 200.765L144.646 200.773L144.433 200.054ZM138.496 180.816C138.881 180.663 139.317 180.85 139.471 181.235C139.624 181.62 139.437 182.056 139.052 182.209L138.496 180.816ZM126.222 199.352L126.942 199.14L126.222 199.352ZM129.035 202.271L129.134 201.528L129.035 202.271ZM126.422 200.031L127.141 199.82L126.422 200.031ZM147.001 199.093L147.264 199.796L147.001 199.093ZM127.918 185.843L128.196 186.54L127.918 185.843ZM126.256 187.658L126.974 187.874L126.256 187.658ZM134.151 175.926H142.899V177.426H134.151V175.926ZM151.649 184.676V193.473H150.149V184.676H151.649ZM147.264 199.796L144.695 200.756L144.17 199.351L146.738 198.391L147.264 199.796ZM144.646 200.773L139.425 202.322L138.998 200.884L144.219 199.335L144.646 200.773ZM129.531 203.094L128.936 203.015L129.134 201.528L129.73 201.607L129.531 203.094ZM127.64 185.147L138.496 180.816L139.052 182.209L128.196 186.54L127.64 185.147ZM125.702 200.243L125.503 199.563L126.942 199.14L127.141 199.82L125.702 200.243ZM125.503 199.563C124.338 195.605 124.35 191.394 125.537 187.442L126.974 187.874C125.871 191.547 125.86 195.461 126.942 199.14L125.503 199.563ZM128.936 203.015C127.405 202.811 126.138 201.724 125.702 200.243L127.141 199.82C127.41 200.733 128.191 201.402 129.134 201.528L128.936 203.015ZM139.425 202.322C136.218 203.273 132.847 203.536 129.531 203.094L129.73 201.607C132.836 202.021 135.994 201.775 138.998 200.884L139.425 202.322ZM151.649 193.473C151.649 196.289 149.901 198.809 147.264 199.796L146.738 198.391C148.79 197.624 150.149 195.664 150.149 193.473H151.649ZM128.196 186.54C127.606 186.775 127.156 187.266 126.974 187.874L125.537 187.442C125.851 186.397 126.626 185.551 127.64 185.147L128.196 186.54ZM142.899 175.926C147.732 175.926 151.649 179.844 151.649 184.676H150.149C150.149 180.672 146.903 177.426 142.899 177.426V175.926Z" fill="#AAAAAA"/>
<path d="M140.502 186.5L140.502 190.93C140.502 191.302 140.606 191.667 140.804 191.983L143.001 195.5" stroke="#AAAAAA"/>
<path d="M143.64 195.578L132.507 199.033C131.67 199.292 130.78 198.839 130.505 198.011L130.24 197.218C129.427 194.779 129.248 192.172 129.721 189.641C129.819 189.113 130.228 188.695 130.756 188.584L141.163 186.388C142.197 186.17 143.22 186.788 143.501 187.801L144.982 193.132C145.271 194.172 144.676 195.256 143.64 195.578Z" stroke="#AAAAAA"/>
<path d="M160.35 18.4815C160.067 15.4049 162.488 12.75 165.578 12.75H278.422C281.512 12.75 283.933 15.4049 283.65 18.4815L281.088 46.2981C280.934 47.9704 279.531 49.25 277.852 49.25H166.149C164.469 49.25 163.066 47.9704 162.912 46.2981L160.35 18.4815Z" fill="#E9E9E9" stroke="#CCCCCC" stroke-width="1.5"/>
<path d="M204.504 19.1246H236.004" stroke="#CCCCCC" stroke-linecap="round"/>
<path d="M170.994 37.3558L166.573 48.0224C166.3 48.6809 166.784 49.4053 167.497 49.4053H276.406C277.143 49.4053 277.627 48.634 277.306 47.97L272.148 37.3033C271.981 36.958 271.631 36.7386 271.248 36.7386H171.918C171.514 36.7386 171.149 36.9822 170.994 37.3558Z" fill="#DFDFDF" stroke="#CCCCCC"/>
<path d="M213 35.9994V36.5H228V36C228 34.8954 227.105 34 226 34H215C213.895 34 213 34.8948 213 35.9994Z" fill="#DFDFDF" stroke="#CCCCCC"/>
<path d="M170.25 39.9044H271.75" stroke="#CCCCCC" stroke-linecap="square"/>
<path d="M169.497 43.0704H274.497" stroke="#CCCCCC" stroke-linecap="square"/>
<path d="M167.746 46.2375H276.246" stroke="#CCCCCC" stroke-linecap="square"/>
<path d="M173.001 20.3333C173.001 21.1617 172.329 21.8333 171.501 21.8333C170.673 21.8333 170.001 21.1617 170.001 20.3333C170 19.5048 170.672 18.8333 171.5 18.8333C172.329 18.8333 173 19.5048 173.001 20.3333Z" fill="#DFDFDF" stroke="#CCCCCC"/>
<g opacity="0.7">
<path d="M212.449 37.1959C212.236 37.152 212.236 36.848 212.449 36.8041L218.662 35.5221C218.729 35.5083 218.784 35.4616 218.808 35.398L220.313 31.4853C220.379 31.3144 220.621 31.3144 220.687 31.4853L222.192 35.398C222.216 35.4616 222.271 35.5083 222.338 35.5221L228.551 36.8041C228.764 36.848 228.764 37.152 228.551 37.1959L222.338 38.4779C222.271 38.4917 222.216 38.5384 222.192 38.602L220.687 42.5147C220.621 42.6856 220.379 42.6856 220.313 42.5147L218.808 38.602C218.784 38.5384 218.729 38.4917 218.662 38.4779L212.449 37.1959Z" fill="#F63F3F"/>
<path d="M215.307 37.1966C215.09 37.1554 215.09 36.8448 215.307 36.8036L219.424 36.0223C219.496 36.0086 219.555 35.9567 219.577 35.8869L220.312 33.5943C220.371 33.4091 220.633 33.4091 220.693 33.5943L221.427 35.8869C221.45 35.9567 221.509 36.0086 221.581 36.0223L225.698 36.8036C225.915 36.8448 225.915 37.1554 225.698 37.1966L221.581 37.9779C221.509 37.9916 221.45 38.0436 221.427 38.1134L220.693 40.4059C220.633 40.5912 220.371 40.5912 220.312 40.4059L219.577 38.1134C219.555 38.0436 219.496 37.9916 219.424 37.9779L215.307 37.1966Z" fill="white" fill-opacity="0.3"/>
<path d="M217.452 37.1969C217.232 37.1578 217.232 36.8422 217.452 36.8031L219.742 36.3957C219.814 36.3829 219.873 36.3323 219.897 36.2634L220.31 35.0535C220.372 34.8731 220.627 34.8731 220.689 35.0535L221.102 36.2634C221.126 36.3323 221.185 36.3829 221.257 36.3957L223.547 36.8031C223.767 36.8422 223.767 37.1578 223.547 37.1969L221.257 37.6043C221.185 37.6171 221.126 37.6677 221.102 37.7366L220.689 38.9465C220.627 39.1269 220.372 39.1269 220.31 38.9465L219.897 37.7366C219.873 37.6677 219.814 37.6171 219.742 37.6043L217.452 37.1969Z" fill="white" fill-opacity="0.5"/>
</g>
<rect x="196.5" y="62.75" width="80.8129" height="49.9456" rx="3.25" fill="#DFDFDF" stroke="#CCCCCC" stroke-width="1.5"/>
<rect x="198.823" y="65.0722" width="76.1683" height="45.301" rx="1.5" fill="#E9E9E9" stroke="#CCCCCC"/>
<path fill-rule="evenodd" clip-rule="evenodd" d="M236.669 117.41L224.701 119.52C224.293 119.592 224.021 119.981 224.092 120.389C224.164 120.797 224.553 121.069 224.961 120.997L236.88 118.896L248.799 120.997C249.207 121.069 249.596 120.797 249.668 120.389C249.74 119.981 249.467 119.592 249.059 119.52L238.374 117.636V112H236.874V117.382C236.804 117.382 236.735 117.392 236.669 117.41Z" fill="#CCCCCC"/>
<g opacity="0.7">
<path d="M226.553 111.066C226.34 111.022 226.34 110.718 226.553 110.674L235.189 108.892C235.255 108.879 235.311 108.832 235.335 108.768L237.417 103.356C237.483 103.185 237.724 103.185 237.79 103.356L239.872 108.768C239.896 108.832 239.952 108.879 240.018 108.892L248.654 110.674C248.867 110.718 248.867 111.022 248.654 111.066L240.018 112.848C239.952 112.862 239.896 112.909 239.872 112.972L237.79 118.385C237.724 118.556 237.483 118.556 237.417 118.385L235.335 112.972C235.311 112.909 235.255 112.862 235.189 112.848L226.553 111.066Z" fill="#F63F3F"/>
<path d="M230.327 111.067C230.11 111.026 230.11 110.715 230.327 110.674L236.201 109.559C236.273 109.546 236.332 109.494 236.354 109.424L237.409 106.131C237.469 105.946 237.731 105.946 237.79 106.131L238.845 109.424C238.868 109.494 238.927 109.546 238.999 109.559L244.872 110.674C245.089 110.715 245.089 111.026 244.872 111.067L238.999 112.182C238.927 112.195 238.868 112.247 238.845 112.317L237.79 115.61C237.731 115.795 237.469 115.795 237.409 115.61L236.354 112.317C236.332 112.247 236.273 112.195 236.201 112.182L230.327 111.067Z" fill="white" fill-opacity="0.3"/>
<path d="M233.17 111.067C232.95 111.028 232.95 110.712 233.17 110.673L236.631 110.057C236.702 110.045 236.761 109.994 236.785 109.925L237.412 108.09C237.474 107.91 237.729 107.91 237.791 108.09L238.418 109.925C238.441 109.994 238.5 110.045 238.572 110.057L242.033 110.673C242.253 110.712 242.253 111.028 242.033 111.067L238.572 111.683C238.5 111.695 238.441 111.746 238.418 111.815L237.791 113.65C237.729 113.83 237.474 113.83 237.412 113.65L236.785 111.815C236.761 111.746 236.702 111.695 236.631 111.683L233.17 111.067Z" fill="white" fill-opacity="0.5"/>
</g>
<rect x="155.75" y="104.431" width="50.5" height="14.5" rx="2.25" fill="#E9E9E9" stroke="#CCCCCC" stroke-width="1.5"/>
<path d="M172.498 115.236H174.498" stroke="#CCCCCC" stroke-linecap="round"/>
<path d="M177.496 115.236H179.496" stroke="#CCCCCC" stroke-linecap="round"/>
<path d="M182.498 115.236H184.498" stroke="#CCCCCC" stroke-linecap="round"/>
<path d="M187.498 115.236H189.498" stroke="#CCCCCC" stroke-linecap="round"/>
<path d="M169.499 110.236C169.499 111.617 168.38 112.736 167 112.736C165.619 112.736 164.499 111.617 164.499 110.236C164.498 108.856 165.617 107.736 166.998 107.736C168.379 107.736 169.498 108.856 169.499 110.236Z" fill="#DFDFDF" stroke="#CCCCCC"/>
<circle cx="3" cy="3" r="2.5" transform="matrix(1 1.19728e-09 0.000291546 1 191.998 107.236)" fill="#DFDFDF" stroke="#CCCCCC"/>
<rect x="173.498" y="107.736" width="15" height="4.33333" rx="0.5" fill="#DFDFDF" stroke="#CCCCCC"/>
<g opacity="0.7">
<path d="M194.883 106.195C194.674 106.149 194.674 105.851 194.883 105.805L199.546 104.774C199.613 104.759 199.668 104.711 199.691 104.646L200.812 101.524C200.875 101.348 201.125 101.348 201.188 101.524L202.309 104.646C202.332 104.711 202.387 104.759 202.454 104.774L207.117 105.805C207.326 105.851 207.326 106.149 207.117 106.195L202.454 107.226C202.387 107.241 202.332 107.289 202.309 107.354L201.188 110.476C201.125 110.652 200.875 110.652 200.812 110.476L199.691 107.354C199.668 107.289 199.613 107.241 199.546 107.226L194.883 106.195Z" fill="#F63F3F"/>
<path d="M197.122 106.196C196.908 106.153 196.908 105.848 197.122 105.804L200.139 105.191C200.211 105.176 200.27 105.123 200.291 105.052L200.813 103.307C200.87 103.117 201.139 103.117 201.196 103.307L201.718 105.052C201.739 105.123 201.797 105.176 201.87 105.191L204.887 105.804C205.1 105.848 205.1 106.153 204.887 106.196L201.87 106.81C201.797 106.824 201.739 106.878 201.718 106.948L201.196 108.693C201.139 108.883 200.87 108.883 200.813 108.693L200.291 106.948C200.27 106.878 200.211 106.824 200.139 106.81L197.122 106.196Z" fill="white" fill-opacity="0.3"/>
<path d="M198.799 106.196C198.583 106.155 198.583 105.845 198.799 105.803L200.384 105.501C200.456 105.488 200.515 105.436 200.537 105.366L200.809 104.514C200.868 104.328 201.131 104.328 201.19 104.514L201.462 105.366C201.484 105.436 201.543 105.488 201.615 105.501L203.2 105.803C203.416 105.845 203.416 106.155 203.2 106.196L201.615 106.499C201.543 106.512 201.484 106.564 201.462 106.634L201.19 107.486C201.131 107.672 200.868 107.672 200.809 107.486L200.537 106.634C200.515 106.564 200.456 106.512 200.384 106.499L198.799 106.196Z" fill="white" fill-opacity="0.5"/>
</g>
<path d="M213.807 143.622C214.54 145.054 214.629 146.729 214.048 148.189L198.336 187.697C197.678 189.35 196.247 190.516 194.533 190.794L182.695 192.716C181.705 192.877 180.682 192.731 179.751 192.296L170.914 188.167C168.287 186.94 167.042 183.767 168.132 181.081L186.154 136.698C186.688 135.384 187.718 134.369 189.011 133.883L202.997 128.633C204.498 128.069 206.208 128.776 206.977 130.277L213.807 143.622Z" fill="#EEEEEE" stroke="#919191" stroke-width="1.5"/>
<path d="M207.103 134.399L207.549 134.108C208.037 133.79 208.693 133.955 208.972 134.466L211.187 138.515C211.438 138.973 211.293 139.547 210.855 139.833L210.409 140.123C209.921 140.441 209.265 140.276 208.986 139.765L206.771 135.717C206.52 135.259 206.665 134.684 207.103 134.399Z" fill="#CCCCCC" stroke="#919191"/>
<path d="M208.894 145.287C209.56 146.748 209.604 148.413 209.014 149.864L194.058 186.698C193.402 188.315 192.033 189.485 190.371 189.852L181.61 191.783C180.49 192.03 179.31 191.894 178.245 191.396L171.001 188.012C168.241 186.722 166.939 183.384 168.096 180.567L186.145 136.647C186.711 135.27 187.799 134.21 189.16 133.709L198.579 130.242C200.251 129.627 202.143 130.469 202.92 132.175L208.894 145.287Z" fill="white" stroke="#919191"/>
<path d="M182.44 180.22C179.609 179.128 178.199 175.951 179.29 173.124C180.381 170.297 183.56 168.889 186.391 169.98C189.222 171.072 190.631 174.249 189.54 177.076C188.449 179.903 185.27 181.311 182.44 180.22Z" fill="#FF8200" fill-opacity="0.35" stroke="#919191"/>
<path d="M176.915 183.439C176.143 183.142 175.759 182.275 176.056 181.505C176.353 180.734 177.22 180.35 177.992 180.648C178.764 180.946 179.148 181.812 178.851 182.582C178.553 183.353 177.687 183.737 176.915 183.439Z" fill="#FF8200" fill-opacity="0.35" stroke="#919191"/>
<rect x="-0.646526" y="0.286598" width="22.9509" height="12.9834" rx="1.5" transform="matrix(-0.360006 0.93295 -0.933047 -0.359754 202.405 149.198)" fill="#FF8200" fill-opacity="0.35" stroke="#919191"/>
<g clip-path="url(#clip1_217_26699)">
<path fill-rule="evenodd" clip-rule="evenodd" d="M193.979 160.791L193.96 160.805L193.911 160.836L193.858 160.862L190.011 162.548C189.547 162.751 189.064 162.323 189.187 161.856L189.208 161.792L190.672 157.976L188.217 158.743C187.904 158.841 187.567 158.667 187.466 158.356C187.372 158.068 187.512 157.763 187.781 157.641L187.85 157.614L190.776 156.701L189.212 154.064C189.044 153.782 189.138 153.42 189.422 153.256C189.684 153.105 190.016 153.175 190.197 153.409L190.239 153.471L191.551 155.683L193.015 151.868C193.195 151.398 193.839 151.364 194.086 151.784L194.117 151.844L195.849 155.672C195.866 155.708 195.878 155.745 195.887 155.782L195.893 155.812L195.9 155.868L195.901 155.949C195.887 156.16 195.763 156.351 195.566 156.444L195.489 156.474L192.562 157.387L194.127 160.024C194.23 160.198 194.234 160.401 194.157 160.569C194.133 160.621 194.103 160.668 194.066 160.71L194.027 160.75L193.979 160.791ZM191.788 158.404L190.835 160.888L192.761 160.044L191.788 158.404ZM192.667 156.111L193.62 153.627L194.487 155.543L192.667 156.111Z" fill="#589DFF"/>
</g>
<path d="M211.395 138.072C209.923 138.373 208.656 137.006 209.07 135.562L218.469 102.777C218.898 101.28 220.801 100.827 221.861 101.97L245.902 127.921C246.961 129.064 246.363 130.925 244.835 131.237L211.395 138.072Z" fill="url(#paint3_linear_217_26699)"/>
<path opacity="0.2" d="M224.904 132.531L224.902 130.277C224.901 128.956 223.992 127.807 222.705 127.502V127.502C221.418 127.197 220.509 126.049 220.508 124.727V124.727C220.507 123.406 219.598 122.258 218.311 121.952L216.116 121.431" stroke="#F63F3F" stroke-width="0.5" stroke-linecap="round"/>
<path opacity="0.4" d="M218.39 135.82L218.994 133.777C219.291 132.769 218.517 131.764 217.466 131.794V131.794C216.415 131.823 215.64 130.818 215.938 129.81V129.81C216.236 128.803 215.462 127.798 214.411 127.827L212.279 127.887" stroke="#F63F3F" stroke-width="0.5" stroke-linecap="round"/>
<path opacity="0.1" d="M220.864 115.214L222.93 115.69C224.085 115.957 224.805 117.108 224.539 118.262V118.262C224.267 119.442 225.026 120.612 226.214 120.848L226.779 120.959C227.929 121.187 228.801 122.129 228.94 123.292L229.062 124.317C229.182 125.325 230.008 126.104 231.024 126.163V126.163C232.222 126.234 233.117 127.291 232.988 128.483L232.857 129.697" stroke="#F63F3F" stroke-width="0.5" stroke-linecap="round"/>
</g>
<defs>
<linearGradient id="paint0_linear_217_26699" x1="18.517" y1="184.92" x2="-11.1359" y2="233.239" gradientUnits="userSpaceOnUse">
<stop stop-color="#ECECEC"/>
<stop offset="1" stop-color="#F2F2F2"/>
</linearGradient>
<linearGradient id="paint1_linear_217_26699" x1="136.5" y1="212.5" x2="142.5" y2="202.5" gradientUnits="userSpaceOnUse">
<stop offset="0.898776" stop-color="#F2F2F2"/>
<stop offset="1" stop-color="#D9D9D9" stop-opacity="0"/>
</linearGradient>
<linearGradient id="paint2_linear_217_26699" x1="133.924" y1="202.472" x2="155.001" y2="173" gradientUnits="userSpaceOnUse">
<stop offset="0.744982" stop-color="#ECECEC"/>
<stop offset="1" stop-color="#F2F2F2" stop-opacity="0"/>
</linearGradient>
<linearGradient id="paint3_linear_217_26699" x1="208.161" y1="138.733" x2="233.058" y2="115.668" gradientUnits="userSpaceOnUse">
<stop stop-color="#FF0000" stop-opacity="0.5"/>
<stop offset="1" stop-color="#FFDCDC" stop-opacity="0"/>
</linearGradient>
<clipPath id="clip0_217_26699">
<rect width="268" height="216" rx="12" fill="white"/>
</clipPath>
<clipPath id="clip1_217_26699">
<rect width="11.9999" height="12.0001" fill="white" transform="matrix(0.933561 0.358435 -0.358143 0.93366 188.5 149.5)"/>
</clipPath>
</defs>
</svg>
