<svg width="24" height="24" viewBox="0 0 24 24" fill="none" xmlns="http://www.w3.org/2000/svg">
<path fill-rule="evenodd" clip-rule="evenodd" d="M19.34 9.72502C19.8354 9.26079 20.5072 9 21.2076 9C21.908 9 22.5798 9.26079 23.0751 9.72502L23.2266 9.867C23.7218 10.3314 24 10.9611 24 11.6177C24 12.2744 23.7218 12.9041 23.2266 13.3685L21.6972 14.8039L13.025 22.9327C12.9123 23.0384 12.7711 23.1135 12.6165 23.1498L9.09444 23.9753C8.94688 24.0099 8.79227 24.0081 8.64566 23.9701C8.49905 23.9321 8.36546 23.8591 8.25789 23.7582C8.15033 23.6574 8.07247 23.5322 8.0319 23.3947C7.99132 23.2573 7.98943 23.1123 8.02638 22.974L8.90689 19.6723C8.94567 19.5273 9.02571 19.395 9.13847 19.2893L17.8608 11.1126L19.34 9.72585V9.72502ZM21.8301 10.8922C21.665 10.7374 21.4411 10.6505 21.2076 10.6505C20.9741 10.6505 20.7502 10.7374 20.5851 10.8922L19.7169 11.7061L21.0861 13.0408L21.9816 12.2013C22.1466 12.0465 22.2394 11.8366 22.2394 11.6177C22.2394 11.3989 22.1466 11.1889 21.9816 11.0342L21.8301 10.8922ZM19.8402 14.2079L18.471 12.874L10.5561 20.2947L10.0903 22.0396L11.9526 21.603L19.841 14.2079H19.8402Z" fill="black"/>
<path fill-rule="evenodd" clip-rule="evenodd" d="M19 1.7H3C2.28203 1.7 1.7 2.28203 1.7 3V19C1.7 19.718 2.28203 20.3 3 20.3H6.86447C6.59089 20.8301 6.45479 21.4148 6.45852 22H3C1.34315 22 0 20.6569 0 19V3C0 1.34315 1.34315 0 3 0H19C20.6569 0 22 1.34315 22 3V7.416C21.4164 7.41641 20.8318 7.55587 20.3 7.83671V3C20.3 2.28203 19.718 1.7 19 1.7ZM17.3401 20.3H19C19.718 20.3 20.3 19.718 20.3 19V17.5853L22 16.0262V19C22 20.6569 20.6569 22 19 22H15.4865L17.3401 20.3ZM18.4685 9.35486L17.3174 7.53223V7.51514L18.8896 5.06787H17.4951L16.5962 6.73926H16.562L15.6562 5.06787H14.1899L15.6973 7.50146V7.52197L14.1899 10H15.5229L16.4766 8.40039H16.5073L17.4678 10H17.7651L18.4685 9.35486ZM4.64502 10H3.39062V5.06787H4.64502V7.00244H6.61035V5.06787H7.86133V10H6.61035V8.01074H4.64502V10ZM12.9038 10H9.52344V5.06787H12.9038V6.07617H10.7778V7.06055H12.7773V7.9834H10.7778V8.9917H12.9038V10Z" fill="black"/>
</svg>
