<svg width="12" height="12" viewBox="0 0 12 12" fill="none" xmlns="http://www.w3.org/2000/svg">
<g clip-path="url(#clip0_266_131)">
<path fill-rule="evenodd" clip-rule="evenodd" d="M9.15835 8.57645L9.14564 8.59626L9.11095 8.64239L9.07107 8.68583L6.08279 11.6384C5.72265 11.9942 5.118 11.7686 5.0661 11.2879L5.06252 11.2208L5.0625 7.13391L3.04525 8.72938C2.7875 8.93312 2.4114 8.89183 2.20521 8.63716C2.01487 8.40209 2.03584 8.06738 2.24291 7.85703L2.29854 7.80717L4.70331 5.90625L2.29854 4.00533C2.0408 3.8016 1.99901 3.43 2.20521 3.17534C2.39554 2.94026 2.73065 2.887 2.9838 3.04044L3.04525 3.08312L5.0625 4.67799L5.06252 0.59169C5.06252 0.0884785 5.65152 -0.174453 6.03224 0.129191L6.08279 0.174139L9.07107 3.12667C9.09939 3.15466 9.12424 3.18468 9.14564 3.21624L9.16224 3.24217L9.18893 3.29159L9.21868 3.36682C9.28117 3.569 9.234 3.79217 9.08321 3.94956L9.02181 4.00533L6.61641 5.90625L9.02181 7.80717C9.18076 7.9328 9.25638 8.1205 9.24501 8.30475C9.24119 8.3624 9.22981 8.41693 9.21051 8.46953L9.18893 8.52088L9.15835 8.57645ZM6.25763 7.13436V9.794L7.75296 8.31656L6.25763 7.13436ZM6.25763 4.67749V2.01785L7.75296 3.49529L6.25763 4.67749Z" fill="white"/>
</g>
<defs>
<clipPath id="clip0_266_131">
<rect width="12" height="12" fill="white"/>
</clipPath>
</defs>
</svg>
