<svg width="115" height="86" viewBox="0 0 115 86" fill="none" xmlns="http://www.w3.org/2000/svg">
<g clip-path="url(#clip0_3967_169719)">
<path fill-rule="evenodd" clip-rule="evenodd" d="M34.3437 11.0781C33.7915 11.0781 33.3438 11.5258 33.3438 12.0781V73.474C33.3438 74.0262 33.7915 74.474 34.3438 74.474H66.8245L65.5216 76.474H34.3438C32.6869 76.474 31.3438 75.1308 31.3438 73.474V12.0781C31.3438 10.4213 32.6869 9.07812 34.3437 9.07812H72.7043H73.1352L73.4311 9.39124L83.383 19.9211L83.6562 20.2102V20.608V20.8281V48.6348L81.6562 51.7051V21.8281H72.7734H71.7734V20.8281V11.0781H34.3437ZM73.7734 19.8281H80.5433L73.7734 12.6652V19.8281Z" fill="#616161"/>
<rect x="46.2808" y="52.1255" width="2.18711" height="2.14068" transform="rotate(90 46.2808 52.1255)" fill="#616161"/>
<rect x="70.8989" y="52.1255" width="2.18711" height="2.14068" transform="rotate(90 70.8989 52.1255)" fill="#616161"/>
<rect x="64.4761" y="31.3542" width="2.18711" height="2.14067" transform="rotate(90 64.4761 31.3542)" fill="#616161"/>
<rect x="70.8975" y="37.9158" width="2.18711" height="2.14067" transform="rotate(90 70.8975 37.9158)" fill="#616161"/>
<rect x="68.7568" y="33.54" width="2.14068" height="2.18711" fill="#616161"/>
<rect x="64.4761" y="37.9158" width="2.14068" height="2.18711" fill="#616161"/>
<rect x="70.8975" y="31.3542" width="2.14068" height="2.18711" fill="#616161"/>
<rect x="66.6172" y="35.7256" width="2.14067" height="2.18711" fill="#616161"/>
<rect x="73.0386" y="40.1013" width="2.18711" height="2.14068" transform="rotate(90 73.0386 40.1013)" fill="#616161"/>
<rect x="64.4761" y="40.1013" width="2.18711" height="2.14067" transform="rotate(90 64.4761 40.1013)" fill="#616161"/>
<rect x="66.6172" y="33.54" width="2.18711" height="2.14068" transform="rotate(90 66.6172 33.54)" fill="#616161"/>
<rect x="44.1426" y="31.3542" width="2.18711" height="2.14068" transform="rotate(90 44.1426 31.3542)" fill="#616161"/>
<rect x="50.564" y="37.9158" width="2.18711" height="2.14068" transform="rotate(90 50.564 37.9158)" fill="#616161"/>
<rect x="48.4233" y="33.54" width="2.14068" height="2.18711" fill="#616161"/>
<rect x="44.1426" y="37.9158" width="2.14068" height="2.18711" fill="#616161"/>
<rect x="50.564" y="31.3542" width="2.14068" height="2.18711" fill="#616161"/>
<rect x="46.2837" y="35.7256" width="2.14068" height="2.18711" fill="#616161"/>
<rect x="52.7051" y="40.1013" width="2.18711" height="2.14068" transform="rotate(90 52.7051 40.1013)" fill="#616161"/>
<rect x="44.1426" y="40.1013" width="2.18711" height="2.14068" transform="rotate(90 44.1426 40.1013)" fill="#616161"/>
<rect x="46.2837" y="33.54" width="2.18711" height="2.14067" transform="rotate(90 46.2837 33.54)" fill="#616161"/>
<rect x="68.7583" y="49.9399" width="2.18711" height="22.4771" transform="rotate(90 68.7583 49.9399)" fill="#616161"/>
<path d="M82.8651 54.7456C84.0546 52.9837 86.6486 52.9837 87.838 54.7456L102.423 76.3499C103.768 78.3424 102.34 81.0285 99.9365 81.0285H70.7667C68.3627 81.0285 66.9351 78.3424 68.2802 76.3499L82.8651 54.7456Z" fill="#F63F3F"/>
<ellipse cx="85.3506" cy="74.3669" rx="1.43016" ry="1.42695" fill="white"/>
<rect x="83.9204" y="60.5776" width="2.86033" height="9.51302" rx="1.43016" fill="white"/>
</g>
<defs>
<clipPath id="clip0_3967_169719">
<rect width="115" height="86" fill="white"/>
</clipPath>
</defs>
</svg>
