<svg width="56" height="56" viewBox="0 0 56 56" fill="none" xmlns="http://www.w3.org/2000/svg">
<path d="M12.3455 18H44.2869C45.2459 18 46.147 18.4584 46.7117 19.2335L51.4247 25.7027C51.7986 26.2158 52 26.8344 52 27.4692V35C52 36.6569 50.6569 38 49 38H12.0021C11.2012 38 10.4335 37.6797 9.87003 37.1105L4.12688 31.3088C3.08454 30.2558 2.96701 28.5996 3.85021 27.4099L9.93678 19.2117C10.5027 18.4494 11.3961 18 12.3455 18Z" fill="#589DFF" stroke="#589DFF" stroke-width="2"/>
<g clip-path="url(#clip0_25_177)">
<path fill-rule="evenodd" clip-rule="evenodd" d="M31.9225 31.0059L31.9088 31.029L31.8712 31.0828L31.828 31.1335L28.5907 34.5781C28.2005 34.9932 27.5455 34.73 27.4892 34.1692L27.4854 34.0909L27.4854 29.3229L25.3 31.1843C25.0208 31.422 24.6133 31.3738 24.3899 31.0767C24.1838 30.8024 24.2065 30.4119 24.4308 30.1665L24.4911 30.1084L27.0962 27.8906L24.4911 25.6729C24.2118 25.4352 24.1666 25.0017 24.3899 24.7046C24.5961 24.4303 24.9592 24.3682 25.2334 24.5472L25.3 24.597L27.4854 26.4577L27.4854 21.6903C27.4854 21.1032 28.1235 20.7965 28.5359 21.1507L28.5907 21.2032L31.828 24.6478C31.8586 24.6804 31.8856 24.7155 31.9088 24.7523L31.9267 24.7825L31.9557 24.8402L31.9879 24.928C32.0556 25.1638 32.0045 25.4242 31.8411 25.6078L31.7746 25.6729L29.1688 27.8906L31.7746 30.1084C31.9468 30.2549 32.0287 30.4739 32.0164 30.6889C32.0123 30.7561 31.9999 30.8198 31.979 30.8811L31.9557 30.941L31.9225 31.0059ZM28.78 29.3234V32.4263L30.3999 30.7026L28.78 29.3234ZM28.78 26.4571V23.3542L30.3999 25.0778L28.78 26.4571Z" fill="#589DFF"/>
</g>
<path d="M28.5536 32.8285C28.7545 32.6276 28.8674 32.3551 28.8674 32.071C28.8674 31.7868 28.7545 31.5143 28.5536 31.3134C28.3526 31.1125 28.0801 30.9996 27.7959 30.9996C27.5118 30.9996 27.2393 31.1125 27.0383 31.3134C26.8374 31.5143 26.7245 31.7868 26.7245 32.071C26.7245 32.3551 26.8374 32.6276 27.0383 32.8285C27.2393 33.0295 27.5118 33.1423 27.7959 33.1423C28.0801 33.1423 28.3526 33.0295 28.5536 32.8285Z" fill="white"/>
<path d="M27.7959 24.5713C27.0099 24.5713 26.4245 24.9656 26.1974 25.3976C26.1468 25.5001 26.0762 25.5914 25.9898 25.6663C25.9034 25.7411 25.8029 25.7979 25.6942 25.8333C25.5855 25.8687 25.4708 25.882 25.3569 25.8725C25.243 25.8629 25.1321 25.8306 25.0308 25.7776C24.9296 25.7245 24.84 25.6517 24.7673 25.5635C24.6945 25.4753 24.6402 25.3734 24.6075 25.2639C24.5747 25.1544 24.5642 25.0394 24.5765 24.9258C24.5889 24.8121 24.6239 24.7021 24.6794 24.6022C25.2459 23.5214 26.4734 22.8571 27.7959 22.8571C29.5359 22.8571 31.2245 24.0605 31.2245 25.857C31.2245 27.3543 30.0519 28.4403 28.6531 28.76V28.8568C28.6531 29.0841 28.5628 29.3022 28.402 29.4629C28.2413 29.6236 28.0233 29.7139 27.7959 29.7139C27.5686 29.7139 27.3506 29.6236 27.1899 29.4629C27.0291 29.3022 26.9388 29.0841 26.9388 28.8568V27.9997C26.9388 27.7724 27.0291 27.5544 27.1899 27.3937C27.3506 27.2329 27.5686 27.1426 27.7959 27.1426C28.8957 27.1426 29.5102 26.4269 29.5102 25.857C29.5102 25.287 28.8957 24.5713 27.7959 24.5713Z" fill="white"/>
<defs>
<clipPath id="clip0_25_177">
<rect width="13" height="14" fill="white" transform="translate(22 21)"/>
</clipPath>
</defs>
</svg>
