<svg width="42" height="24" viewBox="0 0 42 24" fill="none" xmlns="http://www.w3.org/2000/svg">
<path d="M6.97885 4.21049C7.58029 3.29869 8.59953 2.75 9.69181 2.75H34.4303C35.5326 2.75 36.5597 3.30868 37.1586 4.23401L40.7283 9.74894C41.0688 10.275 41.25 10.8883 41.25 11.5149V18C41.25 19.7949 39.7949 21.25 38 21.25H9.34742C8.41312 21.25 7.52401 20.8479 6.90698 20.1463L2.5807 15.2272C1.61287 14.1268 1.50125 12.5147 2.30818 11.2914L6.97885 4.21049Z" fill="#F63F3F" stroke="#F63F3F" stroke-width="1.5"/>
<path fill-rule="evenodd" clip-rule="evenodd" d="M19.2133 14.6682L19.5955 14.7566C19.9602 14.841 20.3151 14.6096 20.3883 14.2398C20.4615 13.87 20.2253 13.5018 19.8606 13.4175L17.9817 12.9828C17.6453 12.9049 17.3119 13.0961 17.2076 13.4266L16.693 15.0573C16.58 15.4155 16.7756 15.8069 17.1299 15.9316C17.4843 16.0563 17.8631 15.867 17.9762 15.5088L18.0326 15.33C18.8201 16.4003 19.8766 17.0567 20.7343 17.3585C21.8005 17.7337 23.3704 17.8472 24.8846 17.0905C25.4492 16.8084 25.923 16.4422 26.3129 16.0382C26.12 15.9537 25.9373 15.8371 25.7726 15.6879L25.2169 15.1845C24.9478 15.4406 24.6319 15.6716 24.2667 15.854C23.1216 16.4262 21.9292 16.3377 21.1436 16.0613C20.5416 15.8495 19.7953 15.393 19.2133 14.6682ZM23.5849 6.49706C24.1021 6.67906 24.6917 6.98999 25.2509 7.44291C25.1642 7.5113 25.082 7.58782 25.0053 7.67242L24.3232 8.42546C23.9326 8.12746 23.5292 7.91866 23.1756 7.79425C22.39 7.51779 21.1977 7.4293 20.0525 8.00152C18.9119 8.57142 18.2512 9.6152 17.9987 10.4154C17.8857 10.7736 17.5068 10.9629 17.1525 10.8382C16.7982 10.7135 16.6026 10.3221 16.7156 9.96388C17.0538 8.89189 17.9157 7.52395 19.4346 6.765C20.9488 6.00836 22.5187 6.12186 23.5849 6.49706ZM22.2008 10.1702C21.9331 9.90251 21.9331 9.46848 22.2008 9.20077C22.4686 8.93307 22.9027 8.93307 23.1704 9.20077L24.6263 10.6564L26.0796 9.20342C26.3473 8.93571 26.7814 8.93571 27.0492 9.20342C27.3169 9.47112 27.3169 9.90515 27.0492 10.1729L25.5959 11.6259L27.0489 13.0785C27.3166 13.3462 27.3166 13.7803 27.0489 14.048C26.7811 14.3157 26.347 14.3157 26.0792 14.048L24.6263 12.5953L23.1708 14.0506C22.903 14.3183 22.4689 14.3183 22.2011 14.0506C21.9334 13.7829 21.9334 13.3489 22.2011 13.0812L23.6567 11.6259L22.2008 10.1702Z" fill="white"/>
</svg>
