<svg width="18" height="18" viewBox="0 0 18 18" fill="none" xmlns="http://www.w3.org/2000/svg">
<path d="M10.4951 2.95411L11.2413 2.87948V2.87948L10.4951 2.95411ZM10.4845 2.85741L11.2268 2.75046L11.2268 2.75046L10.4845 2.85741ZM10.5142 3.12539L11.2543 3.00406V3.00406L10.5142 3.12539ZM12.0844 3.7758L12.522 4.38494L12.522 4.38494L12.0844 3.7758ZM12.2183 3.66881L12.6932 4.2493L12.6984 4.24498L12.2183 3.66881ZM12.2183 3.66879L11.7434 3.08829L11.7382 3.09262L12.2183 3.66879ZM12.2928 3.60902L12.7424 4.2093L12.7425 4.20929L12.2928 3.60902ZM13.5685 3.67264L14.0756 3.12009L14.0756 3.12008L13.5685 3.67264ZM13.6367 3.73956L13.1064 4.26989V4.26989L13.6367 3.73956ZM14.2624 4.36521L14.8318 3.87712L14.8131 3.85525L14.7927 3.83488L14.2624 4.36521ZM14.2624 4.36522L13.6929 4.85332L13.7117 4.8752L13.7321 4.89557L14.2624 4.36522ZM14.329 4.43314L14.8815 3.92591L14.8815 3.92591L14.329 4.43314ZM14.3926 5.70909L13.7924 5.25935L13.7924 5.25937L14.3926 5.70909ZM14.3331 5.78325L14.9129 6.25899L14.9136 6.25818L14.3331 5.78325ZM14.3331 5.78331L13.7533 5.30757L13.7526 5.30838L14.3331 5.78331ZM14.2265 5.91662L13.6175 5.4789L13.6175 5.47891L14.2265 5.91662ZM14.8771 7.48711L14.7559 8.22726L14.7559 8.22726L14.8771 7.48711ZM15.0469 7.50606L15.1702 6.76627L15.146 6.76223L15.1216 6.75978L15.0469 7.50606ZM15.047 7.50606L14.9237 8.24586L14.9479 8.2499L14.9723 8.25234L15.047 7.50606ZM15.142 7.51649L15.0355 8.25889L15.0355 8.25889L15.142 7.51649ZM15.9991 8.46354L16.7484 8.43145L16.7484 8.43143L15.9991 8.46354ZM15.9991 9.5387L16.7484 9.57044L16.7484 9.57043L15.9991 9.5387ZM15.1415 10.4863L15.0354 9.74386L15.0354 9.74387L15.1415 10.4863ZM15.0475 10.4966L14.9729 9.75025L14.9616 9.75156L15.0475 10.4966ZM15.0475 10.4966L15.1221 11.243L15.1334 11.2417L15.0475 10.4966ZM14.8797 10.5153L15.0002 11.2556H15.0002L14.8797 10.5153ZM14.2288 12.0865L13.6201 12.5247L13.6202 12.5247L14.2288 12.0865ZM14.3341 12.2182L13.7536 12.6932L13.758 12.6984L14.3341 12.2182ZM14.3341 12.2183L14.9146 11.7433L14.9103 11.7381L14.3341 12.2183ZM14.393 12.2916L13.793 12.7416L14.393 12.2916ZM14.3293 13.5683L14.8815 14.0758L14.8815 14.0758L14.3293 13.5683ZM14.2634 13.6354L14.7938 14.1657V14.1657L14.2634 13.6354ZM13.6375 14.2613L13.1072 13.731V13.731L13.6375 14.2613ZM13.569 14.3286L13.062 13.7759L13.062 13.7759L13.569 14.3286ZM12.2936 14.3922L11.8442 14.9926L11.8442 14.9926L12.2936 14.3922ZM12.2187 14.3321L11.7306 14.9015L11.7371 14.9071L11.7438 14.9125L12.2187 14.3321ZM12.2187 14.332L12.7068 13.7626L12.7002 13.757L12.6936 13.7516L12.2187 14.332ZM12.0841 14.2245L12.5214 13.6152L12.5214 13.6152L12.0841 14.2245ZM10.5142 14.8748L11.2543 14.9964L11.2543 14.9964L10.5142 14.8748ZM10.495 15.0462L11.2408 15.1256L11.2413 15.1208L10.495 15.0462ZM10.495 15.0464L9.74923 14.967L9.749 14.9692L10.495 15.0464ZM10.495 15.0464L9.74899 14.9693L9.74873 14.9718L10.495 15.0464ZM10.4845 15.1425L9.74212 15.0356L9.74212 15.0356L10.4845 15.1425ZM9.53794 15.9991L9.50549 15.2498L9.50549 15.2498L9.53794 15.9991ZM8.46228 15.9991L8.43051 16.7484L8.43052 16.7484L8.46228 15.9991ZM7.51472 15.1416L8.25716 15.0354V15.0354L7.51472 15.1416ZM7.50443 15.0477L8.25071 14.9731L8.25039 14.97L7.50443 15.0477ZM7.50442 15.0476L6.75814 15.1222L6.75846 15.1253L7.50442 15.0476ZM7.48564 14.8792L6.74543 15L6.74543 15L7.48564 14.8792ZM5.91474 14.2285L5.47677 13.6196L5.47676 13.6196L5.91474 14.2285ZM5.78161 14.3349L5.30667 13.7544L5.30147 13.7587L5.78161 14.3349ZM5.78159 14.3349L6.25654 14.9154L6.26173 14.9111L5.78159 14.3349ZM5.70653 14.3951L6.1561 14.9955L6.15611 14.9955L5.70653 14.3951ZM4.431 14.3315L4.93808 13.7789L4.93807 13.7789L4.431 14.3315ZM4.36273 14.2646L3.82847 14.791L3.83241 14.7949L4.36273 14.2646ZM4.36263 14.2645L4.89689 13.7381L4.89297 13.7341L4.36263 14.2645ZM3.73745 13.6393L4.26778 13.109L4.26778 13.109L3.73745 13.6393ZM3.67012 13.5706L3.11742 14.0776L3.11742 14.0776L3.67012 13.5706ZM3.60651 12.2954L3.00611 11.8459L3.00611 11.8459L3.60651 12.2954ZM3.66677 12.2203L4.24731 12.6953L4.2548 12.6858L3.66677 12.2203ZM3.6668 12.2202L3.08625 11.7452L3.07876 11.7547L3.6668 12.2202ZM3.77421 12.0858L3.165 11.6484H3.165L3.77421 12.0858ZM3.12387 10.5157L3.24533 9.77565L3.24531 9.77564L3.12387 10.5157ZM2.95309 10.4967L3.02772 9.7504L3.02772 9.7504L2.95309 10.4967ZM2.85785 10.4862L2.75124 11.2286L2.75125 11.2286L2.85785 10.4862ZM2.00092 9.53933L2.75023 9.50712L2.00092 9.53933ZM2.00094 8.46291L1.25165 8.43033H1.25165L2.00094 8.46291ZM2.85736 7.51658L2.96434 8.25891L2.96434 8.25891L2.85736 7.51658ZM2.9537 7.506L3.02832 8.25227L3.02833 8.25227L2.9537 7.506ZM3.12644 7.48668L3.24843 8.2267L3.24843 8.2267L3.12644 7.48668ZM3.77649 5.91733L3.16696 6.35433L3.16696 6.35433L3.77649 5.91733ZM3.66781 5.78129L3.07807 6.24466L3.08265 6.25049L3.08734 6.25622L3.66781 5.78129ZM3.66781 5.78129L4.25763 5.31786L4.24989 5.30834L3.66781 5.78129ZM3.6678 5.78128L4.24989 5.30834L4.24827 5.30635L3.6678 5.78128ZM3.60684 5.70526L3.0062 6.15442L3.00621 6.15442L3.60684 5.70526ZM3.6704 4.4308L3.11745 3.9241L3.11744 3.92411L3.6704 4.4308ZM3.73853 4.36133L4.26885 4.89166L4.27867 4.88184L4.28812 4.87167L3.73853 4.36133ZM3.73853 4.36132L3.2082 3.83099L3.19838 3.84081L3.18894 3.85098L3.73853 4.36132ZM4.36347 3.73638L4.8938 4.26671H4.8938L4.36347 3.73638ZM4.43146 3.66968L3.92426 3.11719L3.92426 3.11719L4.43146 3.66968ZM5.70735 3.60605L5.25764 4.20626L5.25764 4.20627L5.70735 3.60605ZM5.78176 3.66576L5.30683 4.24622L5.30684 4.24622L5.78176 3.66576ZM5.91484 3.77213L5.47699 4.38105L5.47699 4.38105L5.91484 3.77213ZM7.48555 3.12152L8.22574 3.24249L8.22574 3.24249L7.48555 3.12152ZM7.5044 2.95254L8.2507 3.02717L8.25117 3.02211L7.5044 2.95254ZM7.50441 2.95246L6.75812 2.87782L6.75765 2.88289L7.50441 2.95246ZM7.51474 2.8583L8.25717 2.96459L8.25717 2.96457L7.51474 2.8583ZM8.46215 2.0009L8.43027 1.25158L8.46215 2.0009ZM9.53807 2.00094L9.50552 2.75024H9.50552L9.53807 2.00094ZM11.2413 2.87948C11.2371 2.83699 11.2328 2.79209 11.2268 2.75046L9.74212 2.96435C9.74186 2.9626 9.74217 2.96439 9.74336 2.97538C9.74462 2.98707 9.74617 3.00254 9.74879 3.02874L11.2413 2.87948ZM11.2543 3.00406C11.2551 3.0092 11.2544 3.0061 11.2518 2.98186C11.2493 2.95875 11.2462 2.92765 11.2413 2.87948L9.74879 3.02874C9.75668 3.10761 9.7641 3.18598 9.77406 3.24673L11.2543 3.00406ZM11.6469 3.16667C11.4962 3.27488 11.2843 3.18711 11.2543 3.00406L9.77406 3.24673C9.98412 4.52807 11.4674 5.14246 12.522 4.38494L11.6469 3.16667ZM11.7434 3.08834C11.7061 3.1188 11.6821 3.13842 11.6642 3.15286C11.6454 3.16797 11.6427 3.16966 11.6469 3.16667L12.522 4.38494C12.5719 4.34904 12.6323 4.29912 12.6932 4.24928L11.7434 3.08834ZM11.7382 3.09262L11.7382 3.09265L12.6984 4.24498L12.6985 4.24496L11.7382 3.09262ZM11.8432 3.00873C11.81 3.03361 11.7758 3.06181 11.7434 3.08832L12.6932 4.24927C12.7132 4.23291 12.725 4.22328 12.734 4.21606C12.7424 4.20929 12.7438 4.20827 12.7424 4.2093L11.8432 3.00873ZM14.0756 3.12008C13.4552 2.55067 12.5172 2.50388 11.8432 3.00874L12.7425 4.20929C12.8387 4.13717 12.9727 4.14386 13.0614 4.2252L14.0756 3.12008ZM14.167 3.20923C14.1374 3.17959 14.1062 3.14814 14.0756 3.12009L13.0614 4.22519C13.0601 4.22405 13.0615 4.22522 13.0691 4.23279C13.0774 4.24086 13.0881 4.25162 13.1064 4.26989L14.167 3.20923ZM14.7927 3.83488L14.167 3.20923L13.1064 4.26989L13.732 4.89554L14.7927 3.83488ZM14.8318 3.87713L14.8318 3.87712L13.6929 4.85331L13.6929 4.85332L14.8318 3.87713ZM14.8815 3.92591C14.8535 3.89547 14.8222 3.8644 14.7927 3.83488L13.7321 4.89557C13.7502 4.91375 13.761 4.92447 13.769 4.93262C13.7765 4.94027 13.7777 4.94161 13.7765 4.94037L14.8815 3.92591ZM14.9928 6.15882C15.498 5.48472 15.4512 4.54641 14.8815 3.92591L13.7765 4.94036C13.8579 5.02901 13.8646 5.16305 13.7924 5.25935L14.9928 6.15882ZM14.9136 6.25818C14.94 6.22592 14.9681 6.19188 14.9929 6.15881L13.7924 5.25937C13.7935 5.258 13.7924 5.25944 13.7857 5.2678C13.7785 5.27672 13.769 5.28843 13.7527 5.30833L14.9136 6.25818ZM14.9129 6.25905L14.9129 6.25899L13.7533 5.30751L13.7533 5.30757L14.9129 6.25905ZM14.8356 6.35434C14.8326 6.35849 14.8343 6.35583 14.8493 6.3371C14.8637 6.31919 14.8832 6.2953 14.9136 6.25824L13.7526 5.30838C13.703 5.36905 13.6533 5.42915 13.6175 5.4789L14.8356 6.35434ZM14.9982 6.74695C14.8151 6.71699 14.7273 6.50501 14.8356 6.35433L13.6175 5.47891C12.8595 6.53362 13.4741 8.01748 14.7559 8.22726L14.9982 6.74695ZM15.1216 6.75978C15.0738 6.75501 15.043 6.75192 15.0202 6.74943C14.9962 6.74681 14.9931 6.74613 14.9982 6.74695L14.7559 8.22726C14.8164 8.23716 14.8942 8.24452 14.9723 8.25234L15.1216 6.75978ZM15.1703 6.76627L15.1702 6.76627L14.9236 8.24586L14.9237 8.24586L15.1703 6.76627ZM15.2485 6.77409C15.2075 6.7682 15.1633 6.76396 15.1216 6.75978L14.9723 8.25234C14.9981 8.25491 15.0132 8.25644 15.0247 8.25767C15.0354 8.25883 15.0372 8.25913 15.0355 8.25889L15.2485 6.77409ZM16.7484 8.43143C16.7123 7.59006 16.0821 6.89369 15.2485 6.77409L15.0355 8.25889C15.1546 8.27597 15.2446 8.37546 15.2498 8.49565L16.7484 8.43143ZM16.75 8.55905C16.75 8.51716 16.7502 8.47287 16.7484 8.43145L15.2498 8.49564C15.2497 8.49394 15.2498 8.49572 15.2499 8.50651C15.25 8.51801 15.25 8.53322 15.25 8.55905H16.75ZM16.75 9.4443V8.55905H15.25V9.4443H16.75ZM16.7484 9.57043C16.7502 9.52948 16.75 9.4857 16.75 9.4443H15.25C15.25 9.46982 15.25 9.48485 15.2499 9.49623C15.2498 9.50689 15.2497 9.50865 15.2498 9.50697L16.7484 9.57043ZM15.2477 11.2288C16.082 11.1095 16.7128 10.4125 16.7484 9.57044L15.2498 9.50696C15.2447 9.62725 15.1546 9.72682 15.0354 9.74386L15.2477 11.2288ZM15.1222 11.2429C15.1634 11.2388 15.2071 11.2346 15.2477 11.2288L15.0354 9.74387C15.037 9.74362 15.0353 9.74392 15.0247 9.74507C15.0134 9.74629 14.9984 9.74779 14.9729 9.75034L15.1222 11.2429ZM15.1334 11.2417L15.1335 11.2417L14.9616 9.75156L14.9615 9.75157L15.1334 11.2417ZM15.0002 11.2556C14.9952 11.2564 14.9983 11.2557 15.0219 11.2531C15.0445 11.2507 15.0749 11.2476 15.1221 11.2429L14.9728 9.75034C14.8957 9.75806 14.8188 9.76534 14.7591 9.77508L15.0002 11.2556ZM14.8375 11.6484C14.729 11.4976 14.8169 11.2854 15.0002 11.2556L14.7591 9.77508C13.476 9.98408 12.8607 11.4696 13.6201 12.5247L14.8375 11.6484ZM14.9146 11.7433C14.8846 11.7067 14.8653 11.6831 14.8511 11.6654C14.8362 11.6469 14.8346 11.6443 14.8375 11.6484L13.6202 12.5247C13.6555 12.5738 13.7046 12.6332 13.7537 12.6932L14.9146 11.7433ZM14.9103 11.7381L14.9103 11.7381L13.758 12.6984L13.758 12.6984L14.9103 11.7381ZM14.9929 11.8415C14.9684 11.8089 14.9407 11.7752 14.9146 11.7433L13.7537 12.6932C13.7698 12.7128 13.7792 12.7244 13.7863 12.7332C13.793 12.7415 13.794 12.7429 13.793 12.7416L14.9929 11.8415ZM14.8815 14.0758C15.452 13.4551 15.4988 12.5159 14.9929 11.8415L13.793 12.7416C13.8653 12.8379 13.8586 12.9721 13.7771 13.0608L14.8815 14.0758ZM14.7938 14.1657C14.8229 14.1366 14.8539 14.1059 14.8815 14.0758L13.7771 13.0608C13.7782 13.0595 13.7771 13.0609 13.7696 13.0684C13.7617 13.0765 13.7511 13.0871 13.7331 13.1051L14.7938 14.1657ZM14.1679 14.7916L14.7938 14.1657L13.7331 13.1051L13.1072 13.731L14.1679 14.7916ZM14.076 14.8813C14.1067 14.853 14.1381 14.8214 14.1679 14.7916L13.1072 13.731C13.0888 13.7493 13.078 13.7601 13.0698 13.7683C13.0621 13.7759 13.0607 13.777 13.062 13.7759L14.076 14.8813ZM11.8442 14.9926C12.518 15.4971 13.4556 15.4503 14.076 14.8813L13.062 13.7759C12.9733 13.8572 12.8394 13.8639 12.7431 13.7918L11.8442 14.9926ZM11.7438 14.9125C11.7764 14.9392 11.8108 14.9676 11.8442 14.9926L12.7431 13.7918C12.7445 13.7928 12.743 13.7918 12.7346 13.785C12.7256 13.7777 12.7137 13.768 12.6936 13.7516L11.7438 14.9125ZM11.7306 14.9015L11.7306 14.9015L12.7068 13.7626L12.7068 13.7626L11.7306 14.9015ZM11.6467 14.8338C11.6425 14.8308 11.6452 14.8325 11.6641 14.8477C11.6822 14.8622 11.7063 14.8819 11.7437 14.9125L12.6936 13.7516C12.6324 13.7015 12.5717 13.6513 12.5214 13.6152L11.6467 14.8338ZM11.2543 14.9964C11.2843 14.8134 11.4961 14.7257 11.6467 14.8338L12.5214 13.6152C11.467 12.8584 9.98452 13.4724 9.77411 14.7532L11.2543 14.9964ZM11.2413 15.1208C11.2461 15.0727 11.2492 15.0416 11.2518 15.0185C11.2544 14.9943 11.2551 14.9912 11.2543 14.9964L9.77411 14.7532C9.76408 14.8142 9.75664 14.8927 9.74876 14.9716L11.2413 15.1208ZM11.2408 15.1257L11.2408 15.1256L9.74925 14.9669L9.74923 14.967L11.2408 15.1257ZM11.241 15.1236L11.241 15.1235L9.749 14.9692L9.749 14.9693L11.241 15.1236ZM11.2268 15.2493C11.2328 15.2078 11.2371 15.1632 11.2413 15.121L9.74873 14.9718C9.74614 14.9978 9.7446 15.0131 9.74335 15.0247C9.74218 15.0355 9.74188 15.0373 9.74212 15.0356L11.2268 15.2493ZM9.57039 16.7484C10.4111 16.712 11.1069 16.0823 11.2268 15.2493L9.74212 15.0356C9.72499 15.1546 9.6256 15.2446 9.50549 15.2498L9.57039 16.7484ZM9.44142 16.75C9.48375 16.75 9.52851 16.7502 9.57039 16.7484L9.50549 15.2498C9.5072 15.2497 9.50541 15.2498 9.49451 15.2499C9.48289 15.25 9.46752 15.25 9.44142 15.25V16.75ZM8.55678 16.75H9.44142V15.25H8.55678V16.75ZM8.43052 16.7484C8.47151 16.7502 8.51533 16.75 8.55678 16.75V15.25C8.53123 15.25 8.51618 15.25 8.5048 15.2499C8.49413 15.2498 8.49237 15.2497 8.49404 15.2498L8.43052 16.7484ZM6.77227 15.2477C6.89158 16.082 7.58853 16.7127 8.43051 16.7484L8.49406 15.2498C8.37377 15.2447 8.27421 15.1546 8.25716 15.0354L6.77227 15.2477ZM6.75815 15.1223C6.76227 15.1635 6.76646 15.2071 6.77227 15.2477L8.25716 15.0354C8.2574 15.0371 8.2571 15.0353 8.25596 15.0247C8.25475 15.0134 8.25325 14.9985 8.25071 14.9731L6.75815 15.1223ZM6.75846 15.1253L6.75846 15.1254L8.25039 14.97L8.25038 14.9699L6.75846 15.1253ZM6.74543 15C6.74461 14.995 6.74529 14.998 6.74788 15.0218C6.75035 15.0444 6.75341 15.0749 6.75814 15.1222L8.2507 14.973C8.24295 14.8955 8.23564 14.8184 8.22584 14.7583L6.74543 15ZM6.35271 14.8373C6.50341 14.7289 6.71553 14.8168 6.74543 15L8.22584 14.7583C8.0165 13.4758 6.53168 12.8608 5.47677 13.6196L6.35271 14.8373ZM6.25653 14.9154C6.29358 14.8851 6.31751 14.8655 6.33543 14.8511C6.35424 14.836 6.35689 14.8343 6.35271 14.8373L5.47676 13.6196C5.42735 13.6552 5.36735 13.7048 5.30669 13.7544L6.25653 14.9154ZM6.26173 14.9111L6.26175 14.9111L5.30147 13.7587L5.30145 13.7588L6.26173 14.9111ZM6.15611 14.9955C6.1894 14.9705 6.22381 14.9422 6.25652 14.9154L5.30666 13.7545C5.28651 13.7709 5.2746 13.7807 5.26554 13.788C5.25703 13.7948 5.25556 13.7959 5.25695 13.7948L6.15611 14.9955ZM3.92393 14.8841C4.54431 15.4534 5.48215 15.5002 6.1561 14.9955L5.25696 13.7948C5.16068 13.8669 5.0267 13.8602 4.93808 13.7789L3.92393 14.8841ZM3.83241 14.7949C3.86205 14.8245 3.89331 14.856 3.92393 14.8841L4.93807 13.7789C4.93933 13.7801 4.93798 13.7789 4.93029 13.7713C4.92209 13.7633 4.91132 13.7525 4.89305 13.7342L3.83241 14.7949ZM3.82839 14.7909L3.82849 14.791L4.89697 13.7382L4.89688 13.7381L3.82839 14.7909ZM3.20712 14.1696L3.8323 14.7948L4.89297 13.7341L4.26778 13.109L3.20712 14.1696ZM3.11742 14.0776C3.14565 14.1084 3.1773 14.1398 3.20713 14.1696L4.26778 13.109C4.2494 13.0906 4.23857 13.0797 4.23045 13.0715C4.22283 13.0638 4.22166 13.0624 4.22281 13.0637L3.11742 14.0776ZM3.00611 11.8459C2.50166 12.5198 2.54842 13.4573 3.11742 14.0776L4.22281 13.0637C4.14153 12.975 4.13485 12.8411 4.20691 12.7448L3.00611 11.8459ZM3.0863 11.7453C3.05955 11.778 3.03114 11.8125 3.00611 11.8459L4.20691 12.7449C4.20588 12.7462 4.20691 12.7448 4.21375 12.7363C4.22103 12.7272 4.23074 12.7154 4.24724 12.6952L3.0863 11.7453ZM3.07876 11.7547L3.07873 11.7547L4.2548 12.6858L4.25483 12.6858L3.07876 11.7547ZM3.165 11.6484C3.16802 11.6442 3.16633 11.6468 3.15113 11.6658C3.13663 11.6838 3.11691 11.7079 3.08633 11.7453L4.24726 12.6952C4.29732 12.634 4.34744 12.5734 4.38343 12.5233L3.165 11.6484ZM3.00242 11.2558C3.18543 11.2859 3.27317 11.4977 3.165 11.6484L4.38343 12.5233C5.14062 11.4688 4.52639 9.98588 3.24533 9.77565L3.00242 11.2558ZM2.87847 11.243C2.92644 11.2478 2.95737 11.2509 2.98035 11.2534C3.00441 11.256 3.00751 11.2567 3.00243 11.2558L3.24531 9.77564C3.18443 9.76566 3.10626 9.75825 3.02772 9.7504L2.87847 11.243ZM2.75125 11.2286C2.79243 11.2345 2.83664 11.2388 2.87847 11.243L3.02772 9.7504C3.00195 9.74782 2.98676 9.7463 2.97529 9.74506C2.96454 9.7439 2.96277 9.7436 2.96445 9.74384L2.75125 11.2286ZM1.25161 9.57154C1.28778 10.4127 1.91783 11.1089 2.75124 11.2286L2.96446 9.74384C2.8454 9.72674 2.7554 9.62729 2.75023 9.50712L1.25161 9.57154ZM1.25 9.44352C1.25 9.48554 1.24983 9.52997 1.25161 9.57154L2.75023 9.50712C2.7503 9.50882 2.75018 9.50704 2.75009 9.49622C2.75001 9.48468 2.75 9.46943 2.75 9.44352H1.25ZM1.25 8.55982V9.44352H2.75V8.55982H1.25ZM1.25165 8.43033C1.24982 8.47237 1.25 8.51732 1.25 8.55982H2.75C2.75 8.53362 2.75001 8.51819 2.7501 8.50651C2.75018 8.49557 2.75031 8.49377 2.75024 8.49549L1.25165 8.43033ZM2.75038 6.77425C1.91767 6.89425 1.2882 7.58981 1.25165 8.43033L2.75024 8.49549C2.75546 8.37542 2.84538 8.27605 2.96434 8.25891L2.75038 6.77425ZM2.87907 6.75972C2.83678 6.76395 2.79204 6.76824 2.75038 6.77425L2.96434 8.25891C2.96264 8.25916 2.96442 8.25885 2.97529 8.25767C2.9869 8.25642 3.00225 8.25488 3.02832 8.25227L2.87907 6.75972ZM3.00446 6.74667C3.00959 6.74582 3.00646 6.74653 2.98213 6.74919C2.95888 6.75173 2.9276 6.75487 2.87907 6.75972L3.02833 8.25227C3.10777 8.24433 3.18685 8.23685 3.24843 8.2267L3.00446 6.74667ZM3.16696 6.35433C3.27493 6.50492 3.18728 6.71653 3.00445 6.74667L3.24843 8.2267C4.52825 8.01572 5.1418 6.53447 4.38602 5.48032L3.16696 6.35433ZM3.08734 6.25622C3.11829 6.29405 3.13824 6.31845 3.15292 6.33672C3.1683 6.35587 3.17001 6.35858 3.16696 6.35433L4.38602 5.48032C4.34965 5.42959 4.29894 5.36828 4.24828 5.30637L3.08734 6.25622ZM3.07807 6.24466L3.07807 6.24466L4.25755 5.31793L4.25755 5.31792L3.07807 6.24466ZM3.08572 6.25423L3.08572 6.25423L4.24989 5.30834L4.24989 5.30834L3.08572 6.25423ZM3.00621 6.15442C3.03151 6.18826 3.06027 6.22313 3.08734 6.25621L4.24827 5.30635C4.23158 5.28596 4.22175 5.27393 4.21438 5.26478C4.20747 5.25619 4.20642 5.25471 4.20747 5.25611L3.00621 6.15442ZM3.11744 3.92411C2.54922 4.54422 2.5025 5.48085 3.0062 6.15442L4.20747 5.25611C4.13551 5.15988 4.14218 5.02608 4.22336 4.93749L3.11744 3.92411ZM3.2082 3.83099C3.17802 3.86117 3.14599 3.89295 3.11745 3.9241L4.22336 4.9375C4.22219 4.93877 4.22338 4.93739 4.23108 4.92957C4.2393 4.92122 4.25025 4.91026 4.26885 4.89166L3.2082 3.83099ZM3.18894 3.85098L3.18893 3.85099L4.28812 4.87167L4.28813 4.87166L3.18894 3.85098ZM3.83314 3.20605L3.2082 3.83099L4.26886 4.89165L4.8938 4.26671L3.83314 3.20605ZM3.92426 3.11719C3.89379 3.14516 3.86268 3.17652 3.83314 3.20605L4.8938 4.26671C4.91201 4.24851 4.92274 4.23779 4.93091 4.22974C4.93857 4.22219 4.93991 4.22103 4.93866 4.22217L3.92426 3.11719ZM6.15706 3.00583C5.48298 2.50078 4.54474 2.54757 3.92426 3.11719L4.93866 4.22217C5.0273 4.1408 5.16134 4.13411 5.25764 4.20626L6.15706 3.00583ZM6.25669 3.08529C6.2243 3.05878 6.19016 3.03063 6.15706 3.00583L5.25764 4.20627C5.25627 4.20524 5.25772 4.20626 5.26613 4.21304C5.27509 4.22025 5.28686 4.22988 5.30683 4.24622L6.25669 3.08529ZM6.3527 3.16321C6.35685 3.1662 6.3542 3.16452 6.33547 3.14946C6.31758 3.1351 6.29371 3.11557 6.25669 3.08529L5.30684 4.24622C5.36743 4.2958 5.42742 4.34541 5.47699 4.38105L6.3527 3.16321ZM6.74537 3.00056C6.71544 3.18373 6.50339 3.27156 6.3527 3.16321L5.47699 4.38105C6.53181 5.13953 8.01619 4.52469 8.22574 3.24249L6.74537 3.00056ZM6.75813 2.87791C6.75338 2.92539 6.75031 2.95599 6.74783 2.97873C6.74523 3.00253 6.74455 3.00559 6.74537 3.00056L8.22574 3.24249C8.23558 3.18223 8.24291 3.10487 8.25068 3.02716L6.75813 2.87791ZM6.75765 2.88289L6.75764 2.88296L8.25117 3.02211L8.25118 3.02204L6.75765 2.88289ZM6.77231 2.75201C6.76647 2.79275 6.76227 2.83652 6.75813 2.87782L8.25069 3.02711C8.25324 3.00162 8.25474 2.98662 8.25596 2.97527C8.25711 2.96464 8.25741 2.96291 8.25717 2.96459L6.77231 2.75201ZM8.43027 1.25158C7.58848 1.28739 6.8917 1.91797 6.7723 2.75202L8.25717 2.96457C8.27422 2.84542 8.37376 2.75534 8.49402 2.75023L8.43027 1.25158ZM8.55695 1.25C8.51537 1.25 8.47141 1.24983 8.43027 1.25158L8.49402 2.75023C8.49233 2.7503 8.4941 2.75017 8.5048 2.75009C8.51622 2.75 8.53132 2.75 8.55695 2.75V1.25ZM9.44126 1.25H8.55695V2.75H9.44126V1.25ZM9.57062 1.25165C9.52862 1.24982 9.48372 1.25 9.44126 1.25V2.75C9.46744 2.75 9.48285 2.75001 9.49451 2.7501C9.50544 2.75018 9.50724 2.75031 9.50552 2.75024L9.57062 1.25165ZM11.2268 2.75046C11.1068 1.91769 10.4112 1.28816 9.57062 1.25165L9.50552 2.75024C9.6256 2.75545 9.72498 2.84538 9.74212 2.96435L11.2268 2.75046ZM10.1885 9.00047C10.1885 9.65684 9.65641 10.1889 9.00005 10.1889V11.6889C10.4848 11.6889 11.6885 10.4853 11.6885 9.00047H10.1885ZM9.00005 7.81201C9.65641 7.81201 10.1885 8.3441 10.1885 9.00047H11.6885C11.6885 7.51568 10.4848 6.31201 9.00005 6.31201V7.81201ZM7.81158 9.00047C7.81158 8.3441 8.34368 7.81201 9.00005 7.81201V6.31201C7.51525 6.31201 6.31158 7.51568 6.31158 9.00047H7.81158ZM9.00005 10.1889C8.34368 10.1889 7.81158 9.65684 7.81158 9.00047H6.31158C6.31158 10.4853 7.51525 11.6889 9.00005 11.6889V10.1889Z" fill="black"/>
</svg>
