<svg width="110" height="62" viewBox="0 0 110 62" fill="none" xmlns="http://www.w3.org/2000/svg">
<path fill-rule="evenodd" clip-rule="evenodd" d="M26.8415 7.96155H69.9851C71.3089 7.96155 72.547 8.61654 73.2919 9.71095L74.7975 11.9231H77.2168L74.9453 8.58565C73.828 6.94403 71.9709 5.96155 69.9851 5.96155H26.8415C25.0218 5.96155 23.3003 6.78743 22.1616 8.20683L12.6853 20.0182C10.7216 22.4658 10.9756 26.0131 13.2679 28.156L22.2333 36.5369C23.3447 37.5759 24.8093 38.1539 26.3307 38.1539H59.397V36.1539H26.3307C25.3164 36.1539 24.34 35.7685 23.5991 35.0759L14.6337 26.695C13.1055 25.2664 12.9362 22.9015 14.2453 21.2698L23.7215 9.4584C24.4807 8.51213 25.6283 7.96155 26.8415 7.96155Z" fill="#589DFF"/>
<path fill-rule="evenodd" clip-rule="evenodd" d="M69.9131 24.6759C69.9131 23.5713 70.8085 22.6759 71.9131 22.6759H97.2234C98.328 22.6759 99.2234 23.5713 99.2234 24.6759V49.3796C99.2234 50.4842 98.328 51.3796 97.2234 51.3796H71.9131C70.8085 51.3796 69.9131 50.4842 69.9131 49.3796V24.6759Z" stroke="#FF8200" stroke-width="2" stroke-linecap="round" stroke-linejoin="round"/>
<path d="M74.1562 16.6331V22.2983" stroke="#FF8200" stroke-width="2" stroke-linecap="round" stroke-linejoin="round"/>
<path d="M81.0977 16.6331V22.2983" stroke="#FF8200" stroke-width="2" stroke-linecap="round" stroke-linejoin="round"/>
<path d="M88.04 16.6331V22.2983" stroke="#FF8200" stroke-width="2" stroke-linecap="round" stroke-linejoin="round"/>
<path d="M94.9814 16.6331V22.2983" stroke="#FF8200" stroke-width="2" stroke-linecap="round" stroke-linejoin="round"/>
<path d="M74.1562 51.7573V57.4225" stroke="#FF8200" stroke-width="2" stroke-linecap="round" stroke-linejoin="round"/>
<path d="M81.0977 51.7573V57.4225" stroke="#FF8200" stroke-width="2" stroke-linecap="round" stroke-linejoin="round"/>
<path d="M88.04 51.7573V57.4225" stroke="#FF8200" stroke-width="2" stroke-linecap="round" stroke-linejoin="round"/>
<path d="M94.9814 51.7573V57.4225" stroke="#FF8200" stroke-width="2" stroke-linecap="round" stroke-linejoin="round"/>
<path d="M99.6094 26.8304H105.394" stroke="#FF8200" stroke-width="2" stroke-linecap="round" stroke-linejoin="round"/>
<path d="M99.6094 33.2214H105.394" stroke="#FF8200" stroke-width="2" stroke-linecap="round" stroke-linejoin="round"/>
<path d="M99.6094 46.0921H105.394" stroke="#FF8200" stroke-width="2" stroke-linecap="round" stroke-linejoin="round"/>
<path d="M99.6094 39.2939H105.394" stroke="#FF8200" stroke-width="2" stroke-linecap="round" stroke-linejoin="round"/>
<path d="M63.7432 26.8304H69.5281" stroke="#FF8200" stroke-width="2" stroke-linecap="round" stroke-linejoin="round"/>
<path d="M63.7432 33.279H69.5281" stroke="#FF8200" stroke-width="2" stroke-linecap="round" stroke-linejoin="round"/>
<path d="M63.7432 46.0921H69.5281" stroke="#FF8200" stroke-width="2" stroke-linecap="round" stroke-linejoin="round"/>
<path d="M63.7432 39.7276H69.5281" stroke="#FF8200" stroke-width="2" stroke-linecap="round" stroke-linejoin="round"/>
<path d="M85.7883 42.6339C86.0299 42.3995 86.1656 42.0815 86.1656 41.75C86.1656 41.4185 86.0299 41.1005 85.7883 40.8661C85.5466 40.6317 85.2189 40.5 84.8773 40.5C84.5356 40.5 84.2079 40.6317 83.9662 40.8661C83.7246 41.1005 83.5889 41.4185 83.5889 41.75C83.5889 42.0815 83.7246 42.3995 83.9662 42.6339C84.2079 42.8683 84.5356 43 84.8773 43C85.2189 43 85.5466 42.8683 85.7883 42.6339Z" fill="#FF8200"/>
<path d="M84.8773 33C83.9321 33 83.2282 33.46 82.955 33.964C82.8942 34.0836 82.8093 34.1902 82.7054 34.2775C82.6015 34.3648 82.4806 34.4311 82.3499 34.4724C82.2192 34.5137 82.0813 34.5292 81.9443 34.5181C81.8074 34.5069 81.6741 34.4692 81.5523 34.4073C81.4305 34.3454 81.3228 34.2605 81.2353 34.1576C81.1479 34.0547 81.0826 33.9358 81.0432 33.8081C81.0038 33.6803 80.9912 33.5461 81.006 33.4136C81.0209 33.281 81.0629 33.1526 81.1297 33.036C81.811 31.775 83.2869 31 84.8773 31C86.9695 31 89 32.404 89 34.5C89 36.247 87.59 37.514 85.9079 37.887V38C85.9079 38.2652 85.7993 38.5196 85.6061 38.7071C85.4128 38.8946 85.1506 39 84.8773 39C84.6039 39 84.3417 38.8946 84.1484 38.7071C83.9552 38.5196 83.8466 38.2652 83.8466 38V37C83.8466 36.7348 83.9552 36.4804 84.1484 36.2929C84.3417 36.1054 84.6039 36 84.8773 36C86.1996 36 86.9386 35.165 86.9386 34.5C86.9386 33.835 86.1996 33 84.8773 33Z" fill="#FF8200"/>
<g clip-path="url(#clip0_1208_111225)">
<path fill-rule="evenodd" clip-rule="evenodd" d="M53.6284 26.0497L53.6096 26.0809L53.5584 26.1537L53.4996 26.2222L49.0925 30.8802C48.5614 31.4416 47.6696 31.0857 47.5931 30.3273L47.5878 30.2215L47.5878 23.7739L44.6127 26.2909C44.2326 26.6123 43.6779 26.5472 43.3738 26.1454C43.0931 25.7746 43.1241 25.2465 43.4295 24.9147L43.5115 24.836L47.0581 21.8371L43.5115 18.8381C43.1314 18.5167 43.0697 17.9305 43.3738 17.5287C43.6546 17.1579 44.1488 17.0738 44.5221 17.3159L44.6127 17.3832L47.5878 19.8994L47.5878 13.4527C47.5878 12.6588 48.4565 12.244 49.018 12.723L49.0925 12.794L53.4996 17.4519C53.5414 17.4961 53.578 17.5435 53.6096 17.5932L53.6341 17.6342L53.6735 17.7121L53.7173 17.8308C53.8095 18.1498 53.7399 18.5019 53.5175 18.7502L53.427 18.8381L49.8795 21.8371L53.427 24.836C53.6614 25.0342 53.7729 25.3303 53.7562 25.621C53.7505 25.712 53.7337 25.798 53.7053 25.881L53.6735 25.962L53.6284 26.0497ZM49.3502 23.7746V27.9705L51.5556 25.6396L49.3502 23.7746ZM49.3502 19.8986V15.7026L51.5556 18.0335L49.3502 19.8986Z" fill="#589DFF"/>
</g>
<defs>
<clipPath id="clip0_1208_111225">
<rect width="17.6976" height="18.9315" fill="white" transform="translate(40.1201 12.5192)"/>
</clipPath>
</defs>
</svg>
