<svg width="120" height="72" viewBox="0 0 120 72" fill="none" xmlns="http://www.w3.org/2000/svg">
<g clip-path="url(#clip0_2881_241148)">
<path d="M8.2799 13H55.3199V11H8.2799V13ZM60.1999 17.6667V108.333H62.1999V17.6667H60.1999ZM55.3199 113H8.2799V115H55.3199V113ZM3.3999 108.333V17.6667H1.3999V108.333H3.3999ZM8.2799 113C5.5496 113 3.3999 110.876 3.3999 108.333H1.3999C1.3999 112.05 4.51534 115 8.2799 115V113ZM60.1999 108.333C60.1999 110.876 58.0502 113 55.3199 113V115C59.0845 115 62.1999 112.05 62.1999 108.333H60.1999ZM55.3199 13C58.0502 13 60.1999 15.1238 60.1999 17.6667H62.1999C62.1999 13.9503 59.0845 11 55.3199 11V13ZM8.2799 11C4.51534 11 1.3999 13.9503 1.3999 17.6667H3.3999C3.3999 15.1239 5.5496 13 8.2799 13V11Z" fill="#616161"/>
<rect x="25.2" y="16.7998" width="13.2" height="1.8" rx="0.900001" fill="#616161"/>
<g filter="url(#filter0_d_2881_241148)">
<g clip-path="url(#clip1_2881_241148)">
<rect x="12" y="27.6001" width="39.6" height="39.6" rx="4" fill="#FF8200"/>
<path d="M40.806 66.8555C40.806 66.333 40.806 65.6168 40.806 65.0943H40.2797C40.2797 64.5719 40.2797 63.8557 40.2797 63.3332H39.7534C39.7534 62.394 39.7534 61.3373 39.7534 60.398H40.2797C40.2797 60.1045 40.2797 59.5175 40.2797 59.224C40.9376 59.224 41.7271 59.224 42.385 59.224V58.6369C42.8534 58.6369 43.4956 58.6369 43.964 58.6369V58.0499C44.4324 58.0499 45.0746 58.0499 45.543 58.0499V57.4628C46.0114 57.4628 46.6535 57.4628 47.122 57.4628V56.8758C47.3851 56.8758 47.9115 56.8758 48.1746 56.8758V56.2888H48.701V55.7017H49.2273V55.1147H49.7536V54.5277H50.2799C50.2799 53.5884 50.2799 52.5317 50.2799 51.5925H49.7536V51.0054C46.7799 51.0054 43.7798 51.0054 40.806 51.0054V50.4184H41.3324V49.8314H41.8587V49.2443H42.385V48.6573H42.9113V48.0702H43.4377V47.4832H43.964V46.8962H44.4903V46.3091H45.0167V45.7221H45.543V45.1351H46.0693V44.548H46.5956V43.961H47.122V43.3739H47.6483V42.7869H48.1746V42.1999H48.701V41.6128H49.2273C49.2273 40.879 49.2273 39.9985 49.2273 39.2647H48.701V38.6776C48.2325 38.6776 47.5904 38.6776 47.122 38.6776V38.0906C45.5588 38.0906 43.9482 38.0906 42.385 38.0906V38.6776C42.1218 38.6776 41.5955 38.6776 41.3324 38.6776V39.2647C41.0692 39.2647 40.5429 39.2647 40.2797 39.2647V39.8517C40.0165 39.8517 39.4902 39.8517 39.227 39.8517V39.2647H38.7007C38.7007 38.9712 38.7007 38.3841 38.7007 38.0906H38.1744C38.1744 37.7971 38.1744 37.21 38.1744 36.9165H37.6481V36.3295H37.1217V35.7424H36.5954V35.1554H36.0691V34.5684C35.8059 34.5684 35.2796 34.5684 35.0164 34.5684V33.9813C34.7532 33.9813 34.2269 33.9813 33.9637 33.9813V33.3943C33.4953 33.3943 32.8532 33.3943 32.3848 33.3943V32.8073C31.5426 32.8073 30.5952 32.8073 29.7531 32.8073V32.2202C27.132 32.2202 24.4793 32.2202 21.8582 32.2202V32.8073C21.2003 32.8073 20.4108 32.8073 19.7529 32.8073V33.3943C19.2844 33.3943 18.6423 33.3943 18.1739 33.3943V33.9813H17.6475V34.5684C17.3844 34.5684 16.8581 34.5684 16.5949 34.5684V35.1554C16.3317 35.1554 15.8054 35.1554 15.5422 35.1554V35.7424H15.0159V36.3295H14.4896V36.9165H13.9632V37.5036H13.4369V38.0906H12.9106C12.9106 38.3841 12.9106 38.9712 12.9106 39.2647H12.3843C12.3843 39.5582 12.3843 40.1452 12.3843 40.4387H11.8579C11.8579 40.7323 11.8579 41.3193 11.8579 41.6128H11.3316C11.3316 41.9063 11.3316 42.4934 11.3316 42.7869H10.8053C10.8053 43.0804 10.8053 43.6675 10.8053 43.961H10.2789C10.2789 44.2545 10.2789 44.8415 10.2789 45.1351H9.75261C9.75261 45.6575 9.75261 46.3737 9.75261 46.8962H9.22628C9.22628 47.63 9.22628 48.5105 9.22628 49.2443H8.69995C8.69995 50.9878 8.69995 52.7842 8.69995 54.5277H9.22628C9.22628 52.9837 9.22628 51.3753 9.22628 49.8314H9.75261C9.75261 49.0976 9.75261 48.217 9.75261 47.4832H10.2789C10.2789 46.9607 10.2789 46.2446 10.2789 45.7221H10.8053C10.8053 45.4286 10.8053 44.8415 10.8053 44.548H11.3316C11.3316 44.2545 11.3316 43.6675 11.3316 43.3739H11.8579C11.8579 43.0804 11.8579 42.4934 11.8579 42.1999H12.3843C12.3843 41.9063 12.3843 41.3193 12.3843 41.0258H12.9106C12.9106 40.7323 12.9106 40.1452 12.9106 39.8517H13.4369C13.4369 39.5582 13.4369 38.9712 13.4369 38.6776H13.9632V38.0906H14.4896V37.5036H15.0159V36.9165H15.5422V36.3295H16.0686V35.7424C16.3317 35.7424 16.8581 35.7424 17.1212 35.7424V35.1554C17.3844 35.1554 17.9107 35.1554 18.1739 35.1554V34.5684C20.2634 34.5684 22.4003 34.5684 24.4898 34.5684V33.9813C23.1056 33.9813 21.6634 33.9813 20.2792 33.9813V33.3943C20.9371 33.3943 21.7266 33.3943 22.3845 33.3943V32.8073C24.653 32.8073 26.9583 32.8073 29.2268 32.8073V33.3943H29.7531V33.9813H30.2794V33.3943H30.8058V33.9813C31.6479 33.9813 32.5953 33.9813 33.4374 33.9813C33.4374 34.2748 33.4374 34.8619 33.4374 35.1554C34.0953 35.1554 34.8848 35.1554 35.5427 35.1554V35.7424H36.0691V36.3295H36.5954V36.9165H37.1217V37.5036H37.6481C37.6481 38.026 37.6481 38.7422 37.6481 39.2647H37.1217V39.8517C37.5902 39.8517 38.2323 39.8517 38.7007 39.8517C38.7007 40.1452 38.7007 40.7323 38.7007 41.0258C38.9639 41.0258 39.4902 41.0258 39.7534 41.0258V40.4387C40.0165 40.4387 40.5429 40.4387 40.806 40.4387V39.8517C41.0692 39.8517 41.5955 39.8517 41.8587 39.8517V39.2647C42.1218 39.2647 42.6482 39.2647 42.9113 39.2647V38.6776C44.1166 38.6776 45.3904 38.6776 46.5956 38.6776V39.2647C47.0641 39.2647 47.7062 39.2647 48.1746 39.2647V39.8517H48.701V40.4387C48.0431 40.4387 47.2536 40.4387 46.5956 40.4387V41.0258C46.1272 41.0258 45.4851 41.0258 45.0167 41.0258V41.6128C44.7535 41.6128 44.2272 41.6128 43.964 41.6128V42.1999C43.7008 42.1999 43.1745 42.1999 42.9113 42.1999V42.7869H42.385V43.3739H41.8587V43.961H41.3324V44.548H40.806V45.1351H40.2797V45.7221H39.7534V46.3091H39.227V46.8962H38.7007V47.4832H38.1744V48.0702H37.6481V48.6573H37.1217V49.2443H36.5954V49.8314H36.0691V50.4184H35.5427V51.0054H35.0164V51.5925H34.4901V52.1795H33.9637V52.7665C33.7006 52.7665 33.1743 52.7665 32.9111 52.7665V53.3536C32.6479 53.3536 32.1216 53.3536 31.8584 53.3536V53.9406C31.39 53.9406 30.7479 53.9406 30.2794 53.9406V54.5277C29.4373 54.5277 28.4899 54.5277 27.6478 54.5277V55.1147C32.2005 55.1147 36.7796 55.1147 41.3324 55.1147V54.5277C39.2428 54.5277 37.1059 54.5277 35.0164 54.5277C35.0164 54.2341 35.0164 53.6471 35.0164 53.3536H35.5427V52.7665H36.0691V52.1795H36.5954V51.5925C37.8007 51.5925 39.0744 51.5925 40.2797 51.5925V52.1795C40.9376 52.1795 41.7271 52.1795 42.385 52.1795V51.5925C44.4745 51.5925 46.6114 51.5925 48.701 51.5925V52.1795C48.9641 52.1795 49.4905 52.1795 49.7536 52.1795C49.7536 52.702 49.7536 53.4182 49.7536 53.9406H49.2273V54.5277H48.701V55.1147H48.1746V55.7017H47.6483V56.2888C47.3851 56.2888 46.8588 56.2888 46.5956 56.2888V56.8758C46.1272 56.8758 45.4851 56.8758 45.0167 56.8758V57.4628C44.5482 57.4628 43.9061 57.4628 43.4377 57.4628V58.0499C42.9692 58.0499 42.3271 58.0499 41.8587 58.0499V58.6369C41.2008 58.6369 40.4113 58.6369 39.7534 58.6369V59.224C39.0955 59.224 38.306 59.224 37.6481 59.224V59.811C37.1796 59.811 36.5375 59.811 36.0691 59.811V60.398C35.8059 60.398 35.2796 60.398 35.0164 60.398V60.9851C34.7532 60.9851 34.2269 60.9851 33.9637 60.9851C33.9637 61.2786 33.9637 61.8656 33.9637 62.1592H34.4901V61.5721H35.0164V62.1592H35.5427V62.7462H36.0691V62.1592H36.5954V62.7462H37.1217V63.3332H37.6481V62.7462H38.1744V63.3332H38.7007V63.9203H39.227V64.5073H39.7534V65.0943H39.227V65.6814C39.4902 65.6814 40.0165 65.6814 40.2797 65.6814C40.2797 66.2038 40.2797 66.92 40.2797 67.4425C40.5429 67.4425 41.0692 67.4425 41.3324 67.4425V66.8555H40.806Z" fill="black"/>
<path d="M40.2797 66.2684V65.6814C40.0165 65.6814 39.4902 65.6814 39.227 65.6814V66.2684H38.7007V65.6814H38.1744V66.2684H37.6481V65.6814H37.1217V65.0943H36.5954V65.6814H36.0691V65.0943H35.5427V65.6814H35.0164V65.0943H34.4901V64.5073H33.9638V63.9203H33.4374V63.3332H32.9111V63.9203H32.3848V63.3332H31.8584V62.7462H32.3848V62.1591H31.8584V61.5721H32.3848V62.1591H32.9111V61.5721H33.4374V62.1591H33.9638C33.9638 61.8656 33.9638 61.2786 33.9638 60.9851C34.2269 60.9851 34.7532 60.9851 35.0164 60.9851V60.398C35.2796 60.398 35.8059 60.398 36.0691 60.398V59.811C36.5375 59.811 37.1796 59.811 37.6481 59.811V59.224C38.306 59.224 39.0955 59.224 39.7534 59.224V58.6369C40.4113 58.6369 41.2008 58.6369 41.8587 58.6369V58.0499C42.3271 58.0499 42.9692 58.0499 43.4377 58.0499V57.4628C43.9061 57.4628 44.5482 57.4628 45.0167 57.4628V56.8758C45.4851 56.8758 46.1272 56.8758 46.5956 56.8758V56.2888C46.8588 56.2888 47.3851 56.2888 47.6483 56.2888V55.7017H48.1746V55.1147H48.701V54.5277H49.2273V53.9406H49.7536C49.7536 53.4181 49.7536 52.702 49.7536 52.1795C49.4905 52.1795 48.9641 52.1795 48.701 52.1795V52.7665C48.4378 52.7665 47.9115 52.7665 47.6483 52.7665V53.3536C47.1799 53.3536 46.5378 53.3536 46.0693 53.3536V53.9406C45.4114 53.9406 44.6219 53.9406 43.964 53.9406V54.5277C43.1219 54.5277 42.1745 54.5277 41.3324 54.5277V55.1147C36.7796 55.1147 32.2005 55.1147 27.6478 55.1147V54.5277C27.3846 54.5277 26.8583 54.5277 26.5951 54.5277V53.9406H26.0688V53.3536H26.5951V53.9406C26.8583 53.9406 27.3846 53.9406 27.6478 53.9406V54.5277C28.4899 54.5277 29.4373 54.5277 30.2794 54.5277V53.9406C30.7479 53.9406 31.39 53.9406 31.8584 53.9406V53.3536C32.1216 53.3536 32.6479 53.3536 32.9111 53.3536V52.7665C33.1743 52.7665 33.7006 52.7665 33.9638 52.7665V52.1795H34.4901V51.5925H35.0164V51.0054H35.5427V50.4184H36.0691V49.8313H36.5954V49.2443H37.1217V48.6573H37.6481V48.0702H38.1744V47.4832H38.7007V46.8962H39.227V46.3091H39.7534V45.7221H40.2797V45.135H40.806V44.548H41.3324V43.961H41.8587V43.3739H42.385V42.7869H42.9113V42.1999C43.1745 42.1999 43.7008 42.1999 43.964 42.1999V41.6128C44.2272 41.6128 44.7535 41.6128 45.0167 41.6128V41.0258C45.4851 41.0258 46.1272 41.0258 46.5956 41.0258V40.4387C47.2536 40.4387 48.0431 40.4387 48.701 40.4387V39.8517H48.1746V39.2647C47.7062 39.2647 47.0641 39.2647 46.5956 39.2647V38.6776C45.3904 38.6776 44.1166 38.6776 42.9113 38.6776V39.2647C42.6482 39.2647 42.1219 39.2647 41.8587 39.2647V39.8517C41.5955 39.8517 41.0692 39.8517 40.806 39.8517V40.4387C40.5429 40.4387 40.0165 40.4387 39.7534 40.4387V41.0258C39.4902 41.0258 38.9639 41.0258 38.7007 41.0258V41.6128H38.1744V42.1999C37.9112 42.1999 37.3849 42.1999 37.1217 42.1999V42.7869H36.5954V43.3739C36.3322 43.3739 35.8059 43.3739 35.5427 43.3739V43.961H35.0164V44.548C34.7532 44.548 34.2269 44.548 33.9638 44.548V45.135H33.4374V45.7221C33.1743 45.7221 32.6479 45.7221 32.3848 45.7221V46.3091C32.1216 46.3091 31.5953 46.3091 31.3321 46.3091V46.8962C31.0689 46.8962 30.5426 46.8962 30.2794 46.8962V47.4832C30.0163 47.4832 29.49 47.4832 29.2268 47.4832V48.0702C28.7584 48.0702 28.1162 48.0702 27.6478 48.0702C27.6478 46.7259 27.6478 45.3053 27.6478 43.961H27.1215C27.1215 43.6674 27.1215 43.0804 27.1215 42.7869H26.5951V42.1999H26.0688V41.6128H25.5425V41.0258C25.2793 41.0258 24.753 41.0258 24.4898 41.0258V40.4387C22.9266 40.4387 21.3161 40.4387 19.7529 40.4387V41.0258C19.4897 41.0258 18.9634 41.0258 18.7002 41.0258V41.6128H18.1739V42.1999H17.6475V42.7869H17.1212C17.1212 43.0804 17.1212 43.6674 17.1212 43.961H16.5949C16.5949 45.7045 16.5949 47.5008 16.5949 49.2443H17.1212C17.1212 49.5378 17.1212 50.1249 17.1212 50.4184H17.6475V51.0054H18.1739V51.5925H18.7002C18.7002 51.2989 18.7002 50.7119 18.7002 50.4184H18.1739V49.8313H17.6475C17.6475 49.5378 17.6475 48.9508 17.6475 48.6573H17.1212C17.1212 47.313 17.1212 45.8923 17.1212 44.548H17.6475C17.6475 44.2545 17.6475 43.6674 17.6475 43.3739H18.1739V42.7869H18.7002V42.1999H19.2265V41.6128C19.4897 41.6128 20.016 41.6128 20.2792 41.6128V41.0258C21.4845 41.0258 22.7582 41.0258 23.9635 41.0258V41.6128C24.2267 41.6128 24.753 41.6128 25.0162 41.6128V42.1999H25.5425V42.7869H26.0688V43.3739H26.5951C26.5951 43.6674 26.5951 44.2545 26.5951 44.548H27.1215C27.1215 46.0919 27.1215 47.7004 27.1215 49.2443C26.8583 49.2443 26.332 49.2443 26.0688 49.2443V48.6573C25.0425 48.6573 23.9372 48.6573 22.9108 48.6573V49.2443C22.4424 49.2443 21.8003 49.2443 21.3319 49.2443V49.8313C21.0687 49.8313 20.5424 49.8313 20.2792 49.8313V50.4184H19.7529C19.7529 50.7119 19.7529 51.2989 19.7529 51.5925H19.2265C19.2265 52.1149 19.2265 52.8311 19.2265 53.3536H18.7002V52.7665H18.1739V53.3536H17.6475V53.9406H17.1212V54.5277H16.5949V53.9406H16.0686V54.5277H15.5422V53.9406H15.0159V54.5277H14.4896V53.9406H13.9632V53.3536H13.4369V52.7665H12.9106V52.1795H13.4369V51.5925H12.9106V51.0054H13.4369V50.4184H12.9106V49.8313H13.4369V49.2443H13.9632V48.6573H14.4896V48.0702H15.0159V48.6573H15.5422V48.0702H16.0686C16.0686 46.7259 16.0686 45.3053 16.0686 43.961H16.5949C16.5949 43.6674 16.5949 43.0804 16.5949 42.7869H17.1212V42.1999H17.6475V41.6128H18.1739V41.0258H18.7002V40.4387C18.9634 40.4387 19.4897 40.4387 19.7529 40.4387V39.8517C21.3161 39.8517 22.9266 39.8517 24.4898 39.8517V39.2647H25.0162V38.6776H25.5425V38.0906H25.0162V37.5035H25.5425V36.9165H26.0688V36.3295H26.5951V35.7424H26.0688V35.1554C25.6004 35.1554 24.9583 35.1554 24.4898 35.1554V34.5684C22.4003 34.5684 20.2634 34.5684 18.1739 34.5684V35.1554C17.9107 35.1554 17.3844 35.1554 17.1212 35.1554V35.7424C16.8581 35.7424 16.3317 35.7424 16.0686 35.7424V36.3295H15.5422V36.9165H15.0159V37.5035H14.4896V38.0906H13.9632V38.6776H13.4369C13.4369 38.9711 13.4369 39.5582 13.4369 39.8517H12.9106C12.9106 40.1452 12.9106 40.7323 12.9106 41.0258H12.3843C12.3843 41.3193 12.3843 41.9063 12.3843 42.1999H11.8579C11.8579 42.4934 11.8579 43.0804 11.8579 43.3739H11.3316C11.3316 43.6674 11.3316 44.2545 11.3316 44.548H10.8053C10.8053 44.8415 10.8053 45.4286 10.8053 45.7221H10.2789C10.2789 46.2445 10.2789 46.9607 10.2789 47.4832H9.75261C9.75261 48.217 9.75261 49.0975 9.75261 49.8313H9.22628C9.22628 51.3753 9.22628 52.9837 9.22628 54.5277H8.69995C8.69995 58.8248 8.69995 63.1454 8.69995 67.4425C19.2213 67.4425 29.7584 67.4425 40.2797 67.4425C40.2797 67.149 40.2797 66.5619 40.2797 66.2684Z" fill="white"/>
<path d="M39.227 65.6812H38.7007V66.2682H39.227V65.6812Z" fill="black"/>
<path d="M38.1743 65.6812H37.6479V66.2682H38.1743V65.6812Z" fill="black"/>
<path d="M39.227 65.0942H38.7007V65.6813H39.227V65.0942Z" fill="white"/>
<path d="M38.7006 65.0942H38.1743V65.6813H38.7006V65.0942Z" fill="black"/>
<path d="M38.1743 65.0942H37.6479V65.6813H38.1743V65.0942Z" fill="white"/>
<path d="M37.6482 65.0942H37.1218V65.6813H37.6482V65.0942Z" fill="black"/>
<path d="M36.5954 65.0942H36.0691V65.6813H36.5954V65.0942Z" fill="black"/>
<path d="M35.5427 65.0942H35.0164V65.6813H35.5427V65.0942Z" fill="black"/>
<path d="M39.7534 64.5073H39.2271V65.0944H39.7534V64.5073Z" fill="white"/>
<path d="M39.227 64.5073H38.7007V65.0944H39.227V64.5073Z" fill="black"/>
<path d="M38.7006 64.5073H38.1743V65.0944H38.7006V64.5073Z" fill="white"/>
<path d="M38.1743 64.5073H37.6479V65.0944H38.1743V64.5073Z" fill="black"/>
<path d="M37.6482 64.5073H37.1218V65.0944H37.6482V64.5073Z" fill="white"/>
<path d="M37.1218 64.5073H36.5955V65.0944H37.1218V64.5073Z" fill="black"/>
<path d="M36.5954 64.5073H36.0691V65.0944H36.5954V64.5073Z" fill="white"/>
<path d="M36.0691 64.5073H35.5427V65.0944H36.0691V64.5073Z" fill="black"/>
<path d="M35.5427 64.5073H35.0164V65.0944H35.5427V64.5073Z" fill="white"/>
<path d="M35.0163 64.5073H34.49V65.0944H35.0163V64.5073Z" fill="black"/>
<path d="M39.227 63.9204H38.7007V64.5075H39.227V63.9204Z" fill="white"/>
<path d="M38.7006 63.9204H38.1743V64.5075H38.7006V63.9204Z" fill="black"/>
<path d="M38.1743 63.9204H37.6479V64.5075H38.1743V63.9204Z" fill="white"/>
<path d="M37.6482 63.9204H37.1218V64.5075H37.6482V63.9204Z" fill="black"/>
<path d="M37.1218 63.9204H36.5955V64.5075H37.1218V63.9204Z" fill="white"/>
<path d="M36.5954 63.9204H36.0691V64.5075H36.5954V63.9204Z" fill="black"/>
<path d="M36.0691 63.9204H35.5427V64.5075H36.0691V63.9204Z" fill="white"/>
<path d="M35.5427 63.9204H35.0164V64.5075H35.5427V63.9204Z" fill="black"/>
<path d="M35.0163 63.9204H34.49V64.5075H35.0163V63.9204Z" fill="white"/>
<path d="M34.49 63.9204H33.9636V64.5075H34.49V63.9204Z" fill="black"/>
<path d="M38.7006 63.333H38.1743V63.92H38.7006V63.333Z" fill="white"/>
<path d="M38.1743 63.333H37.6479V63.92H38.1743V63.333Z" fill="black"/>
<path d="M37.6482 63.333H37.1218V63.92H37.6482V63.333Z" fill="white"/>
<path d="M37.1218 63.333H36.5955V63.92H37.1218V63.333Z" fill="black"/>
<path d="M36.5954 63.333H36.0691V63.92H36.5954V63.333Z" fill="white"/>
<path d="M36.0691 63.333H35.5427V63.92H36.0691V63.333Z" fill="black"/>
<path d="M35.5427 63.333H35.0164V63.92H35.5427V63.333Z" fill="white"/>
<path d="M35.0163 63.333H34.49V63.92H35.0163V63.333Z" fill="black"/>
<path d="M34.49 63.333H33.9636V63.92H34.49V63.333Z" fill="white"/>
<path d="M33.9638 63.333H33.4375V63.92H33.9638V63.333Z" fill="black"/>
<path d="M32.9111 63.333H32.3848V63.92H32.9111V63.333Z" fill="black"/>
<path d="M38.1743 62.7461H37.6479V63.3331H38.1743V62.7461Z" fill="white"/>
<path d="M37.1218 62.7461H36.5955V63.3331H37.1218V62.7461Z" fill="white"/>
<path d="M36.5954 62.7461H36.0691V63.3331H36.5954V62.7461Z" fill="black"/>
<path d="M36.0691 62.7461H35.5427V63.3331H36.0691V62.7461Z" fill="white"/>
<path d="M35.5427 62.7461H35.0164V63.3331H35.5427V62.7461Z" fill="black"/>
<path d="M35.0163 62.7461H34.49V63.3331H35.0163V62.7461Z" fill="white"/>
<path d="M34.49 62.7461H33.9636V63.3331H34.49V62.7461Z" fill="black"/>
<path d="M33.9638 62.7461H33.4375V63.3331H33.9638V62.7461Z" fill="white"/>
<path d="M33.4375 62.7461H32.9111V63.3331H33.4375V62.7461Z" fill="black"/>
<path d="M32.9111 62.7461H32.3848V63.3331H32.9111V62.7461Z" fill="white"/>
<path d="M32.3847 62.7461H31.8584V63.3331H32.3847V62.7461Z" fill="black"/>
<path d="M36.5954 62.1592H36.0691V62.7462H36.5954V62.1592Z" fill="white"/>
<path d="M35.5427 62.1592H35.0164V62.7462H35.5427V62.1592Z" fill="white"/>
<path d="M35.0163 62.1592H34.49V62.7462H35.0163V62.1592Z" fill="black"/>
<path d="M34.49 62.1592H33.9636V62.7462H34.49V62.1592Z" fill="white"/>
<path d="M33.9638 62.1592H33.4375V62.7462H33.9638V62.1592Z" fill="black"/>
<path d="M33.4375 62.1592H32.9111V62.7462H33.4375V62.1592Z" fill="white"/>
<path d="M32.9111 62.1592H32.3848V62.7462H32.9111V62.1592Z" fill="black"/>
<path d="M35.0163 61.5723H34.49V62.1593H35.0163V61.5723Z" fill="white"/>
<path d="M33.4375 61.5723H32.9111V62.1593H33.4375V61.5723Z" fill="black"/>
<path d="M32.3847 61.5723H31.8584V62.1593H32.3847V61.5723Z" fill="black"/>
<path d="M42.3849 54.5275C42.8534 54.5275 43.4955 54.5275 43.9639 54.5275V53.9404C43.1218 53.9404 42.1744 53.9404 41.3323 53.9404V54.5275C41.5954 54.5275 42.1218 54.5275 42.3849 54.5275Z" fill="black"/>
<path d="M27.1215 53.9404H26.5952V54.5275C26.8584 54.5275 27.3847 54.5275 27.6479 54.5275V53.9404H27.1215Z" fill="black"/>
<path d="M17.1213 53.9404H16.595V54.5275H17.1213V53.9404Z" fill="black"/>
<path d="M16.0686 53.9404H15.5422V54.5275H16.0686V53.9404Z" fill="black"/>
<path d="M15.0158 53.9404H14.4895V54.5275H15.0158V53.9404Z" fill="black"/>
<path d="M45.0167 53.3536H44.4904V52.7666C44.2272 52.7666 43.7009 52.7666 43.4377 52.7666V53.3536H43.9641V53.9407C44.622 53.9407 45.4115 53.9407 46.0694 53.9407V53.3536C45.8062 53.3536 45.2799 53.3536 45.0167 53.3536Z" fill="black"/>
<path d="M41.8586 53.9404C42.5165 53.9404 43.306 53.9404 43.964 53.9404V53.3534H43.4376V52.7664C43.1745 52.7664 42.6481 52.7664 42.385 52.7664V52.1793C41.7271 52.1793 40.9376 52.1793 40.2796 52.1793V51.5923C39.0744 51.5923 37.8006 51.5923 36.5953 51.5923V52.1793H36.069V52.7664H35.5427V53.3534H35.0164C35.0164 53.6469 35.0164 54.234 35.0164 54.5275C37.1059 54.5275 39.2428 54.5275 41.3323 54.5275V53.9404H41.8586Z" fill="white"/>
<path d="M26.5952 53.3535H26.0688V53.9406H26.5952V53.3535Z" fill="black"/>
<path d="M17.6474 53.3535H17.1211V53.9406H17.6474V53.3535Z" fill="black"/>
<path d="M17.1213 53.3535H16.595V53.9406H17.1213V53.3535Z" fill="white"/>
<path d="M16.5949 53.3535H16.0686V53.9406H16.5949V53.3535Z" fill="black"/>
<path d="M16.0686 53.3535H15.5422V53.9406H16.0686V53.3535Z" fill="white"/>
<path d="M15.5422 53.3535H15.0159V53.9406H15.5422V53.3535Z" fill="black"/>
<path d="M15.0158 53.3535H14.4895V53.9406H15.0158V53.3535Z" fill="white"/>
<path d="M14.4895 53.3535H13.9631V53.9406H14.4895V53.3535Z" fill="black"/>
<path d="M46.5957 52.7666H46.0693V53.3536C46.5378 53.3536 47.1799 53.3536 47.6483 53.3536V52.7666C47.3852 52.7666 46.8588 52.7666 46.5957 52.7666Z" fill="black"/>
<path d="M18.1738 52.7666H17.6475V53.3536H18.1738V52.7666Z" fill="black"/>
<path d="M17.6474 52.7666H17.1211V53.3536H17.6474V52.7666Z" fill="white"/>
<path d="M17.1213 52.7666H16.595V53.3536H17.1213V52.7666Z" fill="black"/>
<path d="M16.5949 52.7666H16.0686V53.3536H16.5949V52.7666Z" fill="white"/>
<path d="M16.0686 52.7666H15.5422V53.3536H16.0686V52.7666Z" fill="black"/>
<path d="M15.5422 52.7666H15.0159V53.3536H15.5422V52.7666Z" fill="white"/>
<path d="M15.0158 52.7666H14.4895V53.3536H15.0158V52.7666Z" fill="black"/>
<path d="M14.4895 52.7666H13.9631V53.3536H14.4895V52.7666Z" fill="white"/>
<path d="M13.9633 52.7666H13.437V53.3536H13.9633V52.7666Z" fill="black"/>
<path d="M47.6484 52.1797V52.7667C47.9116 52.7667 48.4379 52.7667 48.7011 52.7667V52.1797C48.4379 52.1797 47.9116 52.1797 47.6484 52.1797Z" fill="black"/>
<path d="M42.9113 52.7667H43.4377V52.1797C43.1745 52.1797 42.6482 52.1797 42.385 52.1797V52.7667H42.9113Z" fill="black"/>
<path d="M18.1738 52.1797H17.6475V52.7667H18.1738V52.1797Z" fill="white"/>
<path d="M17.6474 52.1797H17.1211V52.7667H17.6474V52.1797Z" fill="black"/>
<path d="M17.1213 52.1797H16.595V52.7667H17.1213V52.1797Z" fill="white"/>
<path d="M16.5949 52.1797H16.0686V52.7667H16.5949V52.1797Z" fill="black"/>
<path d="M16.0686 52.1797H15.5422V52.7667H16.0686V52.1797Z" fill="white"/>
<path d="M15.5422 52.1797H15.0159V52.7667H15.5422V52.1797Z" fill="black"/>
<path d="M15.0158 52.1797H14.4895V52.7667H15.0158V52.1797Z" fill="white"/>
<path d="M14.4895 52.1797H13.9631V52.7667H14.4895V52.1797Z" fill="black"/>
<path d="M13.9633 52.1797H13.437V52.7667H13.9633V52.1797Z" fill="white"/>
<path d="M13.437 52.1797H12.9106V52.7667H13.437V52.1797Z" fill="black"/>
<path d="M43.4377 52.1793V52.7664C43.7008 52.7664 44.2272 52.7664 44.4903 52.7664V53.3534C44.9588 53.3534 45.6009 53.3534 46.0693 53.3534V52.7664C46.5377 52.7664 47.1799 52.7664 47.6483 52.7664V52.1793C47.9115 52.1793 48.4378 52.1793 48.701 52.1793V51.5923C46.6114 51.5923 44.4745 51.5923 42.385 51.5923V52.1793C42.6482 52.1793 43.1745 52.1793 43.4377 52.1793Z" fill="white"/>
<path d="M17.6474 51.5923H17.1211V52.1793H17.6474V51.5923Z" fill="white"/>
<path d="M17.1213 51.5923H16.595V52.1793H17.1213V51.5923Z" fill="black"/>
<path d="M16.5949 51.5923H16.0686V52.1793H16.5949V51.5923Z" fill="white"/>
<path d="M16.0686 51.5923H15.5422V52.1793H16.0686V51.5923Z" fill="black"/>
<path d="M15.5422 51.5923H15.0159V52.1793H15.5422V51.5923Z" fill="white"/>
<path d="M15.0158 51.5923H14.4895V52.1793H15.0158V51.5923Z" fill="black"/>
<path d="M14.4895 51.5923H13.9631V52.1793H14.4895V51.5923Z" fill="white"/>
<path d="M13.9633 51.5923H13.437V52.1793H13.9633V51.5923Z" fill="black"/>
<path d="M17.1213 51.0054H16.595V51.5924H17.1213V51.0054Z" fill="white"/>
<path d="M16.5949 51.0054H16.0686V51.5924H16.5949V51.0054Z" fill="black"/>
<path d="M16.0686 51.0054H15.5422V51.5924H16.0686V51.0054Z" fill="white"/>
<path d="M15.5422 51.0054H15.0159V51.5924H15.5422V51.0054Z" fill="black"/>
<path d="M15.0158 51.0054H14.4895V51.5924H15.0158V51.0054Z" fill="white"/>
<path d="M14.4895 51.0054H13.9631V51.5924H14.4895V51.0054Z" fill="black"/>
<path d="M13.9633 51.0054H13.437V51.5924H13.9633V51.0054Z" fill="white"/>
<path d="M13.437 51.0054H12.9106V51.5924H13.437V51.0054Z" fill="black"/>
<path d="M16.5949 50.4185H16.0686V51.0055H16.5949V50.4185Z" fill="white"/>
<path d="M16.0686 50.4185H15.5422V51.0055H16.0686V50.4185Z" fill="black"/>
<path d="M15.5422 50.4185H15.0159V51.0055H15.5422V50.4185Z" fill="white"/>
<path d="M15.0158 50.4185H14.4895V51.0055H15.0158V50.4185Z" fill="black"/>
<path d="M14.4895 50.4185H13.9631V51.0055H14.4895V50.4185Z" fill="white"/>
<path d="M13.9633 50.4185H13.437V51.0055H13.9633V50.4185Z" fill="black"/>
<path d="M19.7528 50.4184C19.7528 50.1248 19.7528 49.5378 19.7528 49.2443H19.2264C19.2264 48.9508 19.2264 48.3637 19.2264 48.0702H18.7001C18.7001 47.1309 18.7001 46.0743 18.7001 45.135H19.2264C19.2264 44.8415 19.2264 44.2545 19.2264 43.9609H19.7528V43.3739C20.0159 43.3739 20.5423 43.3739 20.8054 43.3739V42.7869C21.6476 42.7869 22.595 42.7869 23.4371 42.7869V43.3739C23.7002 43.3739 24.2266 43.3739 24.4897 43.3739V43.9609H25.0161C25.0161 44.2545 25.0161 44.8415 25.0161 45.135H25.5424C25.5424 46.0743 25.5424 47.1309 25.5424 48.0702H26.0687V48.6572H26.5951C26.5951 47.3129 26.5951 45.8923 26.5951 44.548H26.0687C26.0687 44.2545 26.0687 43.6674 26.0687 43.3739H25.5424V42.7869H25.0161V42.1998C24.7529 42.1998 24.2266 42.1998 23.9634 42.1998V41.6128C22.7581 41.6128 21.4844 41.6128 20.2791 41.6128V42.1998C20.0159 42.1998 19.4896 42.1998 19.2264 42.1998V42.7869H18.7001V43.3739H18.1738C18.1738 43.6674 18.1738 44.2545 18.1738 44.548H17.6475C17.6475 45.8923 17.6475 47.3129 17.6475 48.6572H18.1738C18.1738 48.9508 18.1738 49.5378 18.1738 49.8313H18.7001V50.4184C18.9633 50.4184 19.4896 50.4184 19.7528 50.4184Z" fill="white"/>
<path d="M18.7002 49.8315H18.1738V50.4186H18.7002V49.8315Z" fill="black"/>
<path d="M16.0686 49.8312V50.4182H16.5949V51.0053H17.1213V51.5923H17.6476V52.1793H18.1739V52.7664H18.7002V53.3534H19.2266C19.2266 52.8309 19.2266 52.1148 19.2266 51.5923H19.7529C19.7529 51.2988 19.7529 50.7117 19.7529 50.4182C19.4897 50.4182 18.9634 50.4182 18.7002 50.4182C18.7002 50.7117 18.7002 51.2988 18.7002 51.5923H18.1739V51.0053H17.6476V50.4182H17.1213C17.1213 50.1247 17.1213 49.5377 17.1213 49.2441H16.5949V49.8312H16.0686Z" fill="black"/>
<path d="M16.0686 49.8315H15.5422V50.4186H16.0686V49.8315Z" fill="white"/>
<path d="M15.5422 49.8315H15.0159V50.4186H15.5422V49.8315Z" fill="black"/>
<path d="M15.0158 49.8315H14.4895V50.4186H15.0158V49.8315Z" fill="white"/>
<path d="M14.4895 49.8315H13.9631V50.4186H14.4895V49.8315Z" fill="black"/>
<path d="M13.9633 49.8315H13.437V50.4186H13.9633V49.8315Z" fill="white"/>
<path d="M13.437 49.8315H12.9106V50.4186H13.437V49.8315Z" fill="black"/>
<path d="M16.5949 49.2441H16.0686V49.8312H16.5949V49.2441Z" fill="white"/>
<path d="M16.0686 49.2441H15.5422V49.8312H16.0686V49.2441Z" fill="black"/>
<path d="M15.5422 49.2441H15.0159V49.8312H15.5422V49.2441Z" fill="white"/>
<path d="M15.0158 49.2441H14.4895V49.8312H15.0158V49.2441Z" fill="black"/>
<path d="M14.4895 49.2441H13.9631V49.8312H14.4895V49.2441Z" fill="white"/>
<path d="M13.9633 49.2441H13.437V49.8312H13.9633V49.2441Z" fill="black"/>
<path d="M18.1738 48.6572H17.6475C17.6475 48.9507 17.6475 49.5378 17.6475 49.8313H18.1738C18.1738 49.5378 18.1738 48.9507 18.1738 48.6572Z" fill="black"/>
<path d="M16.0686 48.6572H15.5422V49.2443H16.0686V48.6572Z" fill="white"/>
<path d="M15.5422 48.6572H15.0159V49.2443H15.5422V48.6572Z" fill="black"/>
<path d="M15.0158 48.6572H14.4895V49.2443H15.0158V48.6572Z" fill="white"/>
<path d="M14.4895 48.6572H13.9631V49.2443H14.4895V48.6572Z" fill="black"/>
<path d="M25.5425 48.0705C25.5425 47.1312 25.5425 46.0745 25.5425 45.1353H25.0161C25.0161 44.8417 25.0161 44.2547 25.0161 43.9612H24.4898V43.3741C24.2267 43.3741 23.7003 43.3741 23.4372 43.3741V42.7871C22.595 42.7871 21.6476 42.7871 20.8055 42.7871V43.3741C20.5423 43.3741 20.016 43.3741 19.7529 43.3741V43.9612H19.2265C19.2265 44.2547 19.2265 44.8417 19.2265 45.1353H18.7002C18.7002 46.0745 18.7002 47.1312 18.7002 48.0705H19.2265C19.2265 48.364 19.2265 48.951 19.2265 49.2445H19.7529C19.7529 49.538 19.7529 50.1251 19.7529 50.4186H20.2792V49.8316C20.5423 49.8316 21.0687 49.8316 21.3318 49.8316V49.2445C21.8003 49.2445 22.4424 49.2445 22.9108 49.2445V48.6575C23.9372 48.6575 25.0425 48.6575 26.0688 48.6575V48.0705H25.5425ZM20.8055 45.7223V45.1353C21.0687 45.1353 21.595 45.1353 21.8582 45.1353C21.8582 45.4288 21.8582 46.0158 21.8582 46.3093C21.595 46.3093 21.0687 46.3093 20.8055 46.3093V45.7223Z" fill="black"/>
<path d="M15.0158 48.0703H14.4895V48.6573H15.0158V48.0703Z" fill="black"/>
<path d="M28.174 47.4832C28.174 46.3384 28.174 45.1057 28.174 43.9609H27.6477C27.6477 45.3053 27.6477 46.7259 27.6477 48.0702C28.1161 48.0702 28.7583 48.0702 29.2267 48.0702V47.4832C28.9635 47.4832 28.4372 47.4832 28.174 47.4832Z" fill="black"/>
<path d="M17.6474 47.483C17.6474 46.5438 17.6474 45.4871 17.6474 44.5479H17.1211C17.1211 45.8922 17.1211 47.3128 17.1211 48.6571H17.6474C17.6474 48.3636 17.6474 47.7766 17.6474 47.483Z" fill="black"/>
<path d="M29.2268 46.896V47.483C29.49 47.483 30.0163 47.483 30.2795 47.483V46.896C30.0163 46.896 29.49 46.896 29.2268 46.896Z" fill="black"/>
<path d="M30.2795 46.3091V46.8961C30.5427 46.8961 31.069 46.8961 31.3322 46.8961V46.3091C31.069 46.3091 30.5427 46.3091 30.2795 46.3091Z" fill="black"/>
<path d="M31.332 45.7222V46.3092C31.5952 46.3092 32.1215 46.3092 32.3847 46.3092V45.7222C32.1215 45.7222 31.5952 45.7222 31.332 45.7222Z" fill="black"/>
<path d="M21.8581 46.3093C21.8581 46.0158 21.8581 45.4288 21.8581 45.1353C21.5949 45.1353 21.0686 45.1353 20.8054 45.1353C20.8054 45.4288 20.8054 46.0158 20.8054 46.3093C21.0686 46.3093 21.5949 46.3093 21.8581 46.3093Z" fill="white"/>
<path d="M32.3848 45.1353V45.7223C32.6479 45.7223 33.1743 45.7223 33.4374 45.7223V45.1353C33.1743 45.1353 32.6479 45.1353 32.3848 45.1353Z" fill="black"/>
<path d="M26.5952 45.7219C26.5952 46.6612 26.5952 47.7179 26.5952 48.6571H26.0688V49.2442C26.332 49.2442 26.8583 49.2442 27.1215 49.2442C27.1215 47.7002 27.1215 46.0918 27.1215 44.5479H26.5952C26.5952 44.8414 26.5952 45.4284 26.5952 45.7219Z" fill="black"/>
<path d="M33.9638 44.5479H33.4375V45.1349H33.9638V44.5479Z" fill="black"/>
<path d="M33.9636 43.9609V44.548C34.2268 44.548 34.7531 44.548 35.0163 44.548V43.9609C34.7531 43.9609 34.2268 43.9609 33.9636 43.9609Z" fill="black"/>
<path d="M26.0688 44.5481H26.5952C26.5952 44.2546 26.5952 43.6675 26.5952 43.374H26.0688C26.0688 43.6675 26.0688 44.2546 26.0688 44.5481Z" fill="black"/>
<path d="M18.1738 43.9611V43.374H17.6475C17.6475 43.6675 17.6475 44.2546 17.6475 44.5481H18.1738V43.9611Z" fill="black"/>
<path d="M16.0686 44.548C16.0686 45.6927 16.0686 46.9255 16.0686 48.0702H15.5422V48.6572H16.0686V49.2443H16.5949C16.5949 47.5008 16.5949 45.7044 16.5949 43.9609H16.0686V44.548Z" fill="black"/>
<path d="M35.5427 43.374H35.0164V43.9611H35.5427V43.374Z" fill="black"/>
<path d="M35.5427 42.7871V43.3741C35.8059 43.3741 36.3322 43.3741 36.5954 43.3741V42.7871C36.3322 42.7871 35.8059 42.7871 35.5427 42.7871Z" fill="black"/>
<path d="M31.8586 42.7871C31.5954 42.7871 31.0691 42.7871 30.8059 42.7871V43.3741C31.4638 43.3741 32.2533 43.3741 32.9112 43.3741V42.7871C32.6481 42.7871 32.1217 42.7871 31.8586 42.7871Z" fill="black"/>
<path d="M27.6479 42.7871H27.1216C27.1216 43.0806 27.1216 43.6677 27.1216 43.9612H27.6479C27.6479 43.6677 27.6479 43.0806 27.6479 42.7871Z" fill="black"/>
<path d="M26.0688 42.7871H25.5425V43.3741H26.0688V42.7871Z" fill="black"/>
<path d="M18.7002 42.7871H18.1738V43.3741H18.7002V42.7871Z" fill="black"/>
<path d="M16.595 43.3741V43.9612H17.1213C17.1213 43.6677 17.1213 43.0806 17.1213 42.7871H16.595V43.3741Z" fill="black"/>
<path d="M37.1218 42.1997H36.5955V42.7867H37.1218V42.1997Z" fill="black"/>
<path d="M32.9111 42.1997V42.7867C33.1743 42.7867 33.7006 42.7867 33.9638 42.7867V42.1997C33.7006 42.1997 33.1743 42.1997 32.9111 42.1997Z" fill="black"/>
<path d="M30.8059 42.1997H30.2795V42.7867H30.8059V42.1997Z" fill="black"/>
<path d="M27.1215 42.1997H26.5952V42.7867H27.1215V42.1997Z" fill="black"/>
<path d="M25.5424 42.1997H25.0161V42.7867H25.5424V42.1997Z" fill="black"/>
<path d="M19.2265 42.1997H18.7002V42.7867H19.2265V42.1997Z" fill="black"/>
<path d="M17.6474 42.1997H17.1211V42.7867H17.6474V42.1997Z" fill="black"/>
<path d="M37.1218 41.6128V42.1998C37.385 42.1998 37.9113 42.1998 38.1745 42.1998V41.6128C37.9113 41.6128 37.385 41.6128 37.1218 41.6128Z" fill="black"/>
<path d="M33.9636 41.6128V42.1998C34.2268 42.1998 34.7531 42.1998 35.0163 42.1998V41.6128C34.7531 41.6128 34.2268 41.6128 33.9636 41.6128Z" fill="black"/>
<path d="M30.2795 41.6128H29.7532V42.1998H30.2795V41.6128Z" fill="black"/>
<path d="M26.5952 41.6128H26.0688V42.1998H26.5952V41.6128Z" fill="black"/>
<path d="M24.4897 42.1998H25.016V41.6128C24.7529 41.6128 24.2265 41.6128 23.9634 41.6128V42.1998H24.4897Z" fill="black"/>
<path d="M20.2792 42.1998V41.6128C20.0161 41.6128 19.4897 41.6128 19.2266 41.6128V42.1998C19.4897 42.1998 20.0161 42.1998 20.2792 42.1998Z" fill="black"/>
<path d="M18.1738 41.6128H17.6475V42.1998H18.1738V41.6128Z" fill="black"/>
<path d="M38.7006 41.0259H38.1743V41.6129H38.7006V41.0259Z" fill="black"/>
<path d="M35.5427 41.0259H35.0164V41.6129H35.5427V41.0259Z" fill="black"/>
<path d="M21.3317 41.6129C22.1738 41.6129 23.1212 41.6129 23.9634 41.6129V41.0259C22.7581 41.0259 21.4843 41.0259 20.2791 41.0259V41.6129C20.5422 41.6129 21.0685 41.6129 21.3317 41.6129Z" fill="black"/>
<path d="M18.7002 41.0259H18.1738V41.6129H18.7002V41.0259Z" fill="black"/>
<path d="M35.5427 40.439V41.026C35.8059 41.026 36.3322 41.026 36.5954 41.026V40.439C36.3322 40.439 35.8059 40.439 35.5427 40.439Z" fill="black"/>
<path d="M33.4375 40.439H32.9111V41.026H33.4375V40.439Z" fill="black"/>
<path d="M29.7531 40.4386V39.8516H29.2268C29.2268 40.374 29.2268 41.0902 29.2268 41.6127H29.7531C29.7531 41.3192 29.7531 40.7321 29.7531 40.4386Z" fill="black"/>
<path d="M26.5952 41.0258C26.5952 40.7322 26.5952 40.1452 26.5952 39.8517H26.0689V40.4387H25.5425V39.8517H25.0162V39.2646H24.4899V39.8517C22.9267 39.8517 21.3161 39.8517 19.7529 39.8517V40.4387C21.3161 40.4387 22.9267 40.4387 24.4899 40.4387V41.0258C24.7531 41.0258 25.2794 41.0258 25.5425 41.0258V41.6128H26.0689V41.0258H26.5952Z" fill="black"/>
<path d="M18.7002 40.439V41.026C18.9634 41.026 19.4897 41.026 19.7529 41.026V40.439C19.4897 40.439 18.9634 40.439 18.7002 40.439Z" fill="black"/>
<path d="M37.1218 39.8516H36.5955V40.4386H37.1218V39.8516Z" fill="black"/>
<path d="M32.9111 39.8516H32.3848V40.4386H32.9111V39.8516Z" fill="black"/>
<path d="M26.0688 39.8516H25.5425V40.4386H26.0688V39.8516Z" fill="white"/>
<path d="M35.0163 39.2646H34.49V39.8517H35.0163V39.2646Z" fill="black"/>
<path d="M32.3847 39.2646H31.8584V39.8517H32.3847V39.2646Z" fill="black"/>
<path d="M30.2795 39.2648V38.6777H29.7532C29.7532 38.9713 29.7532 39.5583 29.7532 39.8518H30.2795V39.2648Z" fill="black"/>
<path d="M26.5952 39.2646H26.0688V39.8517H26.5952V39.2646Z" fill="white"/>
<path d="M26.0688 39.2646H25.5425V39.8517H26.0688V39.2646Z" fill="black"/>
<path d="M25.5424 39.2646H25.0161V39.8517H25.5424V39.2646Z" fill="white"/>
<path d="M34.49 38.6777H33.9636V39.2648H34.49V38.6777Z" fill="black"/>
<path d="M26.0688 38.6777H25.5425V39.2648H26.0688V38.6777Z" fill="white"/>
<path d="M25.5424 38.6777H25.0161V39.2648H25.5424V38.6777Z" fill="black"/>
<path d="M36.5954 38.0908H36.0691V38.6779H36.5954V38.0908Z" fill="black"/>
<path d="M33.9638 38.0908H33.4375V38.6779H33.9638V38.0908Z" fill="black"/>
<path d="M30.8059 38.0908H30.2795V38.6779H30.8059V38.0908Z" fill="black"/>
<path d="M26.5952 38.0908H26.0688V38.6779H26.5952V38.0908Z" fill="white"/>
<path d="M26.0688 38.0908H25.5425V38.6779H26.0688V38.0908Z" fill="black"/>
<path d="M36.0691 37.5034H35.5427V38.0905H36.0691V37.5034Z" fill="black"/>
<path d="M33.4375 37.5034H32.9111V38.0905H33.4375V37.5034Z" fill="black"/>
<path d="M31.3322 37.5034H30.8059V38.0905H31.3322V37.5034Z" fill="black"/>
<path d="M27.1215 38.0905H26.5952V38.6775H26.0688V39.2645H26.5952V39.8516H27.1215C27.1215 39.5581 27.1215 38.971 27.1215 38.6775H27.6478C27.6478 38.384 27.6478 37.7969 27.6478 37.5034H27.1215V38.0905Z" fill="black"/>
<path d="M27.1215 37.5034H26.5952V38.0905H27.1215V37.5034Z" fill="white"/>
<path d="M26.5952 37.5034H26.0688V38.0905H26.5952V37.5034Z" fill="black"/>
<path d="M26.0688 37.5034H25.5425V38.0905H26.0688V37.5034Z" fill="white"/>
<path d="M25.5424 37.5034H25.0161V38.0905H25.5424V37.5034Z" fill="black"/>
<path d="M35.5427 36.9165H35.0164V37.5035H35.5427V36.9165Z" fill="black"/>
<path d="M31.8584 36.9165H31.332V37.5035H31.8584V36.9165Z" fill="black"/>
<path d="M28.174 36.9165H27.6477V37.5035H28.174V36.9165Z" fill="black"/>
<path d="M27.6479 36.9165H27.1216V37.5035H27.6479V36.9165Z" fill="white"/>
<path d="M27.1215 36.9165H26.5952V37.5035H27.1215V36.9165Z" fill="black"/>
<path d="M26.5952 36.9165H26.0688V37.5035H26.5952V36.9165Z" fill="white"/>
<path d="M26.0688 36.9165H25.5425V37.5035H26.0688V36.9165Z" fill="black"/>
<path d="M35.0163 36.3296H34.49V36.9166H35.0163V36.3296Z" fill="black"/>
<path d="M32.3847 36.3296H31.8584V36.9166H32.3847V36.3296Z" fill="black"/>
<path d="M28.174 36.3296H27.6477V36.9166H28.174V36.3296Z" fill="white"/>
<path d="M27.6479 36.3296H27.1216V36.9166H27.6479V36.3296Z" fill="black"/>
<path d="M27.1215 36.3296H26.5952V36.9166H27.1215V36.3296Z" fill="white"/>
<path d="M26.5952 36.3296H26.0688V36.9166H26.5952V36.3296Z" fill="black"/>
<path d="M32.9111 35.7423V36.3293H32.3848V36.9164H31.8585V37.5034H31.3322V38.0905H30.8058V38.6775H30.2795C30.2795 38.971 30.2795 39.5581 30.2795 39.8516H29.7532C29.7532 40.374 29.7532 41.0902 29.7532 41.6127H30.2795V42.1997H30.8058V42.7868C31.4637 42.7868 32.2532 42.7868 32.9111 42.7868V42.1997C33.1743 42.1997 33.7006 42.1997 33.9638 42.1997V41.6127C34.227 41.6127 34.7533 41.6127 35.0165 41.6127V41.0257H35.5428V40.4386C35.806 40.4386 36.3323 40.4386 36.5955 40.4386V39.8516H37.1218V39.2645H37.6481C37.6481 38.7421 37.6481 38.0259 37.6481 37.5034H37.1218V36.9164H36.5955V36.3293H36.0691V35.7423H35.5428V35.1553C34.8849 35.1553 34.0954 35.1553 33.4375 35.1553V35.7423H32.9111ZM35.5428 36.9164V37.5034H36.0691V38.0905H36.5955V38.6775H36.0691V38.0905H35.5428V37.5034H35.0165V36.9164H34.4901V36.3293H35.0165V36.9164H35.5428ZM35.0165 39.8516H34.4901V39.2645H33.9638V38.6775H33.4375V38.0905H32.9111V37.5034H33.4375V38.0905H33.9638V38.6775H34.4901V39.2645H35.0165V39.8516ZM33.4375 41.0257H32.9111V40.4386H32.3848V39.8516H31.8585V39.2645H32.3848V39.8516H32.9111V40.4386H33.4375V41.0257Z" fill="white"/>
<path d="M32.9111 35.7427H32.3848V36.3297H32.9111V35.7427Z" fill="black"/>
<path d="M28.174 36.3293V36.9164H28.7004V36.3293H29.2267V35.7423H28.7004V35.1553H28.174V35.7423H27.6477V36.3293H28.174Z" fill="black"/>
<path d="M27.6479 35.7427H27.1216V36.3297H27.6479V35.7427Z" fill="white"/>
<path d="M27.1215 35.7423H27.6478V35.1553C27.1794 35.1553 26.5373 35.1553 26.0688 35.1553V35.7423H26.5952V36.3293H27.1215V35.7423Z" fill="black"/>
<path d="M33.4375 35.1553H32.9111V35.7423H33.4375V35.1553Z" fill="black"/>
<path d="M29.7531 35.1553H29.2268V35.7423H29.7531V35.1553Z" fill="black"/>
<path d="M29.2268 35.1553H28.7004V35.7423H29.2268V35.1553Z" fill="white"/>
<path d="M30.2795 34.5685V35.1555H29.7532V35.7426H29.2268V36.3296H28.7005V36.9166H28.1742V37.5037H27.6478C27.6478 37.7972 27.6478 38.3842 27.6478 38.6777H27.1215C27.1215 38.9713 27.1215 39.5583 27.1215 39.8518H26.5952C26.5952 40.1453 26.5952 40.7324 26.5952 41.0259H26.0688V41.6129H26.5952V42.2H27.1215V42.787H27.6478C27.6478 43.0805 27.6478 43.6676 27.6478 43.9611H28.1742C28.1742 45.1058 28.1742 46.3386 28.1742 47.4833C28.4373 47.4833 28.9637 47.4833 29.2268 47.4833V46.8963C29.49 46.8963 30.0163 46.8963 30.2795 46.8963V46.3092C30.5426 46.3092 31.069 46.3092 31.3321 46.3092V45.7222C31.5953 45.7222 32.1216 45.7222 32.3848 45.7222V45.1352C32.648 45.1352 33.1743 45.1352 33.4375 45.1352V44.5481H33.9638V43.9611C34.2269 43.9611 34.7533 43.9611 35.0164 43.9611V43.3741H35.5428V42.787C35.8059 42.787 36.3323 42.787 36.5954 42.787V42.2H37.1218V41.6129C37.3849 41.6129 37.9113 41.6129 38.1744 41.6129V41.0259H38.7007C38.7007 40.7324 38.7007 40.1453 38.7007 39.8518C38.2323 39.8518 37.5902 39.8518 37.1218 39.8518V40.4389H36.5954V41.0259C36.3323 41.0259 35.8059 41.0259 35.5428 41.0259V41.6129H35.0164V42.2C34.7533 42.2 34.2269 42.2 33.9638 42.2V42.787C33.7006 42.787 33.1743 42.787 32.9111 42.787V43.3741C32.2532 43.3741 31.4637 43.3741 30.8058 43.3741V42.787H30.2795V42.2H29.7532V41.6129H29.2268C29.2268 41.0905 29.2268 40.3743 29.2268 39.8518H29.7532C29.7532 39.5583 29.7532 38.9713 29.7532 38.6777H30.2795V38.0907H30.8058V37.5037H31.3321V36.9166H31.8585V36.3296H32.3848V35.7426H32.9111V35.1555H33.4375C33.4375 34.862 33.4375 34.275 33.4375 33.9814C32.5953 33.9814 31.6479 33.9814 30.8058 33.9814V34.5685H30.2795Z" fill="white"/>
<path d="M30.2795 34.5684H29.7532V35.1554H30.2795V34.5684Z" fill="black"/>
<path d="M29.7531 34.5684H29.2268V35.1554H29.7531V34.5684Z" fill="white"/>
<path d="M29.2268 34.5684H28.7004V35.1554H29.2268V34.5684Z" fill="black"/>
<path d="M25.0161 35.1554C25.2792 35.1554 25.8056 35.1554 26.0687 35.1554V34.5684C25.6003 34.5684 24.9582 34.5684 24.4897 34.5684V35.1554H25.0161Z" fill="black"/>
<path d="M30.8059 33.9814H30.2795V34.5685H30.8059V33.9814Z" fill="black"/>
<path d="M30.2795 33.9814H29.7532V34.5685H30.2795V33.9814Z" fill="white"/>
<path d="M29.7531 33.9814H29.2268V34.5685H29.7531V33.9814Z" fill="black"/>
<path d="M25.5423 34.5682H26.0687V35.1553C26.5371 35.1553 27.1792 35.1553 27.6477 35.1553V35.7423H28.174V35.1553H28.7003V34.5682H29.2266V33.9812H29.753V33.3942H29.2266V32.8071C26.9582 32.8071 24.6528 32.8071 22.3844 32.8071V33.3942C21.7265 33.3942 20.937 33.3942 20.2791 33.3942V33.9812C21.6633 33.9812 23.1054 33.9812 24.4897 33.9812V34.5682C24.7529 34.5682 25.2792 34.5682 25.5423 34.5682Z" fill="white"/>
<path d="M30.8059 33.3945H30.2795V33.9816H30.8059V33.3945Z" fill="white"/>
</g>
</g>
<path d="M77.0994 62.6386C79.497 62.6386 80.9923 61.2528 80.9923 59.1903V53.0995H79.0458V59.0163C79.0458 60.2216 78.3498 60.9886 77.0994 60.9886C75.849 60.9886 75.1464 60.2216 75.1464 59.0163V53.0995H73.2V59.1903C73.2 61.2593 74.7146 62.6386 77.0994 62.6386Z" fill="#616161"/>
<path d="M82.7733 64.7526H84.6553V61.2657H84.7713C85.1323 62.0392 85.925 62.5097 86.8983 62.5097C88.6965 62.5097 89.7793 61.1368 89.7793 58.8552V58.8423C89.7793 56.58 88.6707 55.1878 86.8983 55.1878C85.8928 55.1878 85.1387 55.639 84.7713 56.3995H84.6553V55.3038H82.7733V64.7526ZM86.2537 60.9499C85.2676 60.9499 84.636 60.1571 84.636 58.8552V58.8423C84.636 57.5403 85.2612 56.7476 86.2537 56.7476C87.2528 56.7476 87.8651 57.5403 87.8651 58.8423V58.8552C87.8651 60.1571 87.2463 60.9499 86.2537 60.9499Z" fill="#616161"/>
<path d="M93.5648 62.5097C94.5638 62.5097 95.3179 62.0649 95.6853 61.298H95.8013V62.4001H97.6833V52.5903H95.8013V56.4382H95.6853C95.3308 55.6647 94.538 55.1878 93.5648 55.1878C91.7665 55.1878 90.6837 56.5606 90.6837 58.8423V58.8552C90.6837 61.1239 91.7923 62.5097 93.5648 62.5097ZM94.2029 60.9499C93.2103 60.9499 92.598 60.1636 92.598 58.8552V58.8423C92.598 57.5468 93.2103 56.7476 94.2029 56.7476C95.1954 56.7476 95.8206 57.5468 95.8206 58.8487V58.8616C95.8206 60.1636 95.2019 60.9499 94.2029 60.9499Z" fill="#616161"/>
<path d="M101.275 62.5097C102.204 62.5097 102.951 62.1165 103.312 61.4591H103.428V62.4001H105.284V57.5532C105.284 56.0386 104.221 55.1491 102.339 55.1491C100.554 55.1491 99.3805 55.9741 99.2322 57.2181L99.2258 57.2761H100.966L100.979 57.2503C101.127 56.8313 101.559 56.5929 102.236 56.5929C103.009 56.5929 103.428 56.9409 103.428 57.5532V58.1397L101.714 58.2429C99.9477 58.346 98.9615 59.0937 98.9615 60.3698V60.3827C98.9615 61.6718 99.9219 62.5097 101.275 62.5097ZM100.798 60.2667V60.2538C100.798 59.7382 101.192 59.4353 101.997 59.3837L103.428 59.2935V59.8155C103.428 60.5632 102.777 61.1368 101.907 61.1368C101.256 61.1368 100.798 60.8081 100.798 60.2667Z" fill="#616161"/>
<path d="M109.785 62.4259C110.146 62.4259 110.494 62.3872 110.726 62.3421V60.9435C110.546 60.9628 110.417 60.9757 110.172 60.9757C109.534 60.9757 109.263 60.6921 109.263 60.054V56.7218H110.726V55.3038H109.263V53.6087H107.362V55.3038H106.266V56.7218H107.362V60.4858C107.362 61.8651 108.058 62.4259 109.785 62.4259Z" fill="#616161"/>
<path d="M115.072 62.5483C117.148 62.5483 118.063 61.3495 118.282 60.4601L118.295 60.3956H116.542L116.523 60.4343C116.394 60.705 115.936 61.1433 115.111 61.1433C114.112 61.1433 113.487 60.4665 113.468 59.2999H118.353V58.7134C118.353 56.5671 117.064 55.1491 114.995 55.1491C112.926 55.1491 111.605 56.5993 111.605 58.8552V58.8616C111.605 61.1368 112.913 62.5483 115.072 62.5483ZM115.027 56.5606C115.846 56.5606 116.432 57.0892 116.548 58.1204H113.487C113.603 57.1149 114.209 56.5606 115.027 56.5606Z" fill="#616161"/>
<path fill-rule="evenodd" clip-rule="evenodd" d="M107.4 37.9999C108.118 37.9999 108.71 38.5404 108.791 39.2366L108.8 39.3999V42.1999C108.8 44.4367 107.052 46.265 104.847 46.3928L104.6 46.3999H85C82.7633 46.3999 80.9349 44.6514 80.8072 42.4467L80.8 42.1999V39.3999C80.8 38.6267 81.4269 37.9999 82.2 37.9999C82.918 37.9999 83.5098 38.5404 83.5906 39.2366L83.6 39.3999V42.1999C83.6 42.9179 84.1405 43.5096 84.8368 43.5905L85 43.5999H104.6C105.318 43.5999 105.91 43.0595 105.991 42.3632L106 42.1999V39.3999C106 38.6267 106.627 37.9999 107.4 37.9999ZM95.0078 37.9845L94.926 37.9943L94.8 37.9999L94.6946 37.996L94.519 37.9716L94.363 37.9303L94.2075 37.8688L94.071 37.7955L93.9244 37.6923L93.81 37.5898L89.61 33.3899C89.0633 32.8431 89.0633 31.9567 89.61 31.41C90.1568 30.8632 91.0432 30.8632 91.5899 31.41L93.4 33.2203V19.7999C93.4 19.0267 94.0268 18.3999 94.8 18.3999C95.5732 18.3999 96.2 19.0267 96.2 19.7999V33.2203L98.01 31.41C98.5568 30.8632 99.4432 30.8632 99.9899 31.41C100.537 31.9567 100.537 32.8431 99.9899 33.3899L95.7899 37.5898C95.7404 37.6394 95.688 37.6845 95.6334 37.725L95.4777 37.8254L95.3199 37.9002L95.1724 37.9497L95.0078 37.9845Z" fill="#F63F3F"/>
<path d="M59.9994 25.6638C66.8845 25.6638 72.466 20.0823 72.466 13.1971C72.466 6.31199 66.8845 0.730469 59.9994 0.730469C53.1142 0.730469 47.5327 6.31199 47.5327 13.1971C47.5327 20.0823 53.1142 25.6638 59.9994 25.6638Z" fill="#F63F3F"/>
<ellipse cx="60.0027" cy="18.629" rx="1.46929" ry="1.46929" fill="white"/>
<rect x="58.5334" y="4.69434" width="2.93857" height="9.83085" rx="1.46929" fill="white"/>
</g>
<defs>
<filter id="filter0_d_2881_241148" x="-5" y="14.6001" width="73.6001" height="73.6001" filterUnits="userSpaceOnUse" color-interpolation-filters="sRGB">
<feFlood flood-opacity="0" result="BackgroundImageFix"/>
<feColorMatrix in="SourceAlpha" type="matrix" values="0 0 0 0 0 0 0 0 0 0 0 0 0 0 0 0 0 0 127 0" result="hardAlpha"/>
<feMorphology radius="1" operator="dilate" in="SourceAlpha" result="effect1_dropShadow_2881_241148"/>
<feOffset dy="4"/>
<feGaussianBlur stdDeviation="8"/>
<feComposite in2="hardAlpha" operator="out"/>
<feColorMatrix type="matrix" values="0 0 0 0 0.796078 0 0 0 0 0.796078 0 0 0 0 0.796078 0 0 0 0.25 0"/>
<feBlend mode="normal" in2="BackgroundImageFix" result="effect1_dropShadow_2881_241148"/>
<feBlend mode="normal" in="SourceGraphic" in2="effect1_dropShadow_2881_241148" result="shape"/>
</filter>
<clipPath id="clip0_2881_241148">
<rect width="120" height="72" fill="white"/>
</clipPath>
<clipPath id="clip1_2881_241148">
<rect x="12" y="27.6001" width="39.6" height="39.6" rx="4" fill="white"/>
</clipPath>
</defs>
</svg>
