<svg width="32" height="32" viewBox="0 0 32 32" fill="none" xmlns="http://www.w3.org/2000/svg">
<path fill-rule="evenodd" clip-rule="evenodd" d="M11.6424 4.47975C11.8957 4.17576 12.271 4 12.6667 4H19.3333C19.729 4 20.1043 4.17576 20.3576 4.47975L23.2912 8H26.6667C27.7275 8 28.745 8.42143 29.4951 9.17157C30.2452 9.92172 30.6667 10.9391 30.6667 12V24C30.6667 25.0609 30.2452 26.0783 29.4951 26.8284C28.745 27.5786 27.7275 28 26.6667 28H5.33334C4.27248 28 3.25506 27.5786 2.50492 26.8284C1.75477 26.0783 1.33334 25.0609 1.33334 24V12C1.33334 10.9391 1.75477 9.92172 2.50492 9.17157C3.25506 8.42143 4.27248 8 5.33334 8H8.70884L11.6424 4.47975ZM13.2912 6.66667L10.3576 10.1869C10.1043 10.4909 9.72905 10.6667 9.33334 10.6667H5.33334C4.97972 10.6667 4.64058 10.8071 4.39053 11.0572C4.14049 11.3072 4.00001 11.6464 4.00001 12V24C4.00001 24.3536 4.14049 24.6928 4.39053 24.9428C4.64058 25.1929 4.97972 25.3333 5.33334 25.3333H26.6667C27.0203 25.3333 27.3594 25.1929 27.6095 24.9428C27.8595 24.6928 28 24.3536 28 24V12C28 11.6464 27.8595 11.3072 27.6095 11.0572C27.3594 10.8071 27.0203 10.6667 26.6667 10.6667H22.6667C22.271 10.6667 21.8957 10.4909 21.6424 10.1869L18.7088 6.66667H13.2912Z" fill="white"/>
<path fill-rule="evenodd" clip-rule="evenodd" d="M16 14.6667C14.5272 14.6667 13.3333 15.8606 13.3333 17.3333C13.3333 18.8061 14.5272 20 16 20C17.4727 20 18.6667 18.8061 18.6667 17.3333C18.6667 15.8606 17.4727 14.6667 16 14.6667ZM10.6667 17.3333C10.6667 14.3878 13.0545 12 16 12C18.9455 12 21.3333 14.3878 21.3333 17.3333C21.3333 20.2789 18.9455 22.6667 16 22.6667C13.0545 22.6667 10.6667 20.2789 10.6667 17.3333Z" fill="white"/>
</svg>
