<svg width="32" height="32" viewBox="0 0 32 32" fill="none" xmlns="http://www.w3.org/2000/svg">
<path fill-rule="evenodd" clip-rule="evenodd" d="M12.9428 7.89052C13.4635 8.41122 13.4635 9.25544 12.9428 9.77614L7.21895 15.5L12.9428 21.2239C13.4635 21.7446 13.4635 22.5888 12.9428 23.1095C12.4221 23.6302 11.5779 23.6302 11.0572 23.1095L4.39052 16.4428C3.86983 15.9221 3.86983 15.0779 4.39052 14.5572L11.0572 7.89052C11.5779 7.36983 12.4221 7.36983 12.9428 7.89052Z" fill="white"/>
<path fill-rule="evenodd" clip-rule="evenodd" d="M4 15.5C4 14.7636 4.59695 14.1667 5.33333 14.1667H21.3333C23.1014 14.1667 24.7971 14.8691 26.0474 16.1193C27.2976 17.3696 28 19.0652 28 20.8334V23.5C28 24.2364 27.403 24.8334 26.6667 24.8334C25.9303 24.8334 25.3333 24.2364 25.3333 23.5V20.8334C25.3333 19.7725 24.9119 18.7551 24.1618 18.0049C23.4116 17.2548 22.3942 16.8334 21.3333 16.8334H5.33333C4.59695 16.8334 4 16.2364 4 15.5Z" fill="white"/>
</svg>
