<svg width="24" height="24" viewBox="0 0 24 24" fill="none" xmlns="http://www.w3.org/2000/svg">
<mask id="path-1-inside-1_275_207" fill="white">
<path fill-rule="evenodd" clip-rule="evenodd" d="M12 23C18.0751 23 23 18.0751 23 12C23 5.92487 18.0751 1 12 1C5.92487 1 1 5.92487 1 12C1 18.0751 5.92487 23 12 23ZM13.25 7.25C13.25 7.94036 12.6904 8.5 12 8.5C11.3096 8.5 10.75 7.94036 10.75 7.25C10.75 6.55964 11.3096 6 12 6C12.6904 6 13.25 6.55964 13.25 7.25ZM10.75 11.25C10.75 10.5596 11.3096 10 12 10C12.6904 10 13.25 10.5596 13.25 11.25V16.75C13.25 17.4404 12.6904 18 12 18C11.3096 18 10.75 17.4404 10.75 16.75V11.25Z"/>
</mask>
<path fill-rule="evenodd" clip-rule="evenodd" d="M12 23C18.0751 23 23 18.0751 23 12C23 5.92487 18.0751 1 12 1C5.92487 1 1 5.92487 1 12C1 18.0751 5.92487 23 12 23ZM13.25 7.25C13.25 7.94036 12.6904 8.5 12 8.5C11.3096 8.5 10.75 7.94036 10.75 7.25C10.75 6.55964 11.3096 6 12 6C12.6904 6 13.25 6.55964 13.25 7.25ZM10.75 11.25C10.75 10.5596 11.3096 10 12 10C12.6904 10 13.25 10.5596 13.25 11.25V16.75C13.25 17.4404 12.6904 18 12 18C11.3096 18 10.75 17.4404 10.75 16.75V11.25Z" fill="#CCCCCC"/>
<path d="M21 12C21 16.9706 16.9706 21 12 21V25C19.1797 25 25 19.1797 25 12H21ZM12 3C16.9706 3 21 7.02944 21 12H25C25 4.8203 19.1797 -1 12 -1V3ZM3 12C3 7.02944 7.02944 3 12 3V-1C4.8203 -1 -1 4.8203 -1 12H3ZM12 21C7.02944 21 3 16.9706 3 12H-1C-1 19.1797 4.8203 25 12 25V21ZM12 10.5C13.7949 10.5 15.25 9.04492 15.25 7.25H11.25C11.25 6.83579 11.5858 6.5 12 6.5V10.5ZM8.75 7.25C8.75 9.04492 10.2051 10.5 12 10.5V6.5C12.4142 6.5 12.75 6.83579 12.75 7.25H8.75ZM12 4C10.2051 4 8.75 5.45508 8.75 7.25H12.75C12.75 7.66421 12.4142 8 12 8V4ZM15.25 7.25C15.25 5.45508 13.7949 4 12 4V8C11.5858 8 11.25 7.66421 11.25 7.25H15.25ZM12 8C10.2051 8 8.75 9.45508 8.75 11.25H12.75C12.75 11.6642 12.4142 12 12 12V8ZM15.25 11.25C15.25 9.45508 13.7949 8 12 8V12C11.5858 12 11.25 11.6642 11.25 11.25H15.25ZM15.25 16.75V11.25H11.25V16.75H15.25ZM12 20C13.7949 20 15.25 18.5449 15.25 16.75H11.25C11.25 16.3358 11.5858 16 12 16V20ZM8.75 16.75C8.75 18.5449 10.2051 20 12 20V16C12.4142 16 12.75 16.3358 12.75 16.75H8.75ZM8.75 11.25V16.75H12.75V11.25H8.75Z" fill="#CCCCCC" mask="url(#path-1-inside-1_275_207)"/>
</svg>
