<svg width="32" height="32" viewBox="0 0 32 32" fill="none" xmlns="http://www.w3.org/2000/svg">
<path fill-rule="evenodd" clip-rule="evenodd" d="M29.1142 19.7809C29.6467 20.4248 29.7229 21.3319 29.305 22.0556L27.7645 24.7239C27.3467 25.4475 26.5231 25.8351 25.6992 25.6959L21.9025 25.0543C21.4292 24.9744 20.9659 25.2419 20.7986 25.6917L19.4561 29.3003C19.1647 30.0834 18.4172 30.6029 17.5816 30.6029H14.5004C13.6648 30.6029 12.9173 30.0834 12.6259 29.3003L11.2834 25.6917C11.1161 25.2419 10.6528 24.9744 10.1796 25.0543L6.38281 25.6959C5.55893 25.8351 4.73534 25.4475 4.31755 24.7239L2.77697 22.0556C2.35916 21.3319 2.43527 20.4248 2.96781 19.7809L5.42175 16.8138C5.72761 16.444 5.72761 15.909 5.42174 15.5392L2.96779 12.5721C2.43526 11.9282 2.35914 11.0211 2.77693 10.2974L4.31753 7.62898C4.73532 6.90533 5.55897 6.51769 6.38288 6.65694L10.1795 7.29861C10.6528 7.37859 11.1161 7.11109 11.2834 6.66127L12.626 3.05252C12.9173 2.26936 13.6648 1.74988 14.5004 1.74988H17.5816C18.4172 1.74988 19.1647 2.26936 19.4561 3.05252L20.7986 6.66127C20.9659 7.11109 21.4293 7.37859 21.9025 7.29861L25.6991 6.65694C26.523 6.51769 27.3467 6.90533 27.7645 7.62898L29.3051 10.2974C29.7229 11.0211 29.6468 11.9282 29.1142 12.5721L26.6603 15.5392C26.3544 15.909 26.3544 16.444 26.6603 16.8138L29.1142 19.7809ZM15.6797 21.0838C18.5895 21.0838 20.9483 18.725 20.9483 15.8152C20.9483 12.9055 18.5895 10.5467 15.6797 10.5467C12.77 10.5467 10.4112 12.9055 10.4112 15.8152C10.4112 18.725 12.77 21.0838 15.6797 21.0838Z" fill="white"/>
</svg>
