<?xml version="1.0" encoding="UTF-8" standalone="no"?>
<!DOCTYPE svg PUBLIC "-//W3C//DTD SVG 1.1//EN" "http://www.w3.org/Graphics/SVG/1.1/DTD/svg11.dtd">
<svg width="100%" height="100%" viewBox="0 0 28 24" version="1.1" xmlns="http://www.w3.org/2000/svg" xmlns:xlink="http://www.w3.org/1999/xlink" xml:space="preserve" xmlns:serif="http://www.serif.com/" style="fill-rule:evenodd;clip-rule:evenodd;stroke-linejoin:round;stroke-miterlimit:2;">
    <path d="M15.798,21.732C15.926,22.21 16.419,22.497 16.885,22.331C18.82,21.642 20.535,20.433 21.834,18.828C23.323,16.99 24.191,14.728 24.315,12.366C24.439,10.005 23.812,7.665 22.523,5.681C21.399,3.949 19.82,2.567 17.968,1.68C17.521,1.466 17.001,1.7 16.824,2.162C16.647,2.624 16.88,3.138 17.323,3.359C18.823,4.106 20.102,5.242 21.021,6.657C22.103,8.323 22.629,10.289 22.526,12.273C22.422,14.256 21.692,16.156 20.442,17.7C19.381,19.011 17.99,20.008 16.419,20.594C15.956,20.767 15.67,21.254 15.798,21.732ZM9.428,14.657C9.545,15.093 9.999,15.359 10.405,15.162C10.971,14.887 11.473,14.491 11.872,13.998C12.445,13.291 12.778,12.421 12.826,11.512C12.874,10.604 12.633,9.704 12.137,8.941C11.791,8.408 11.334,7.962 10.8,7.63C10.416,7.391 9.937,7.608 9.775,8.03C9.613,8.452 9.836,8.917 10.19,9.199C10.413,9.377 10.607,9.59 10.765,9.833C11.072,10.306 11.221,10.864 11.192,11.427C11.162,11.99 10.955,12.529 10.6,12.968C10.418,13.192 10.203,13.384 9.962,13.538C9.581,13.781 9.311,14.22 9.428,14.657ZM13.427,18.554C12.988,18.725 12.518,18.451 12.396,17.996C12.275,17.541 12.548,17.079 12.981,16.894C13.885,16.509 14.686,15.907 15.31,15.137C16.114,14.144 16.583,12.923 16.649,11.648C16.716,10.372 16.378,9.109 15.682,8.038C15.142,7.206 14.409,6.524 13.55,6.046C13.138,5.817 12.915,5.329 13.083,4.89C13.252,4.45 13.748,4.226 14.167,4.442C15.359,5.058 16.376,5.975 17.113,7.109C18.004,8.482 18.438,10.102 18.353,11.737C18.267,13.372 17.666,14.938 16.636,16.21C15.785,17.261 14.678,18.067 13.427,18.554Z" style="fill:white;"/>
</svg>
