<svg width="127" height="73" viewBox="0 0 127 73" fill="none" xmlns="http://www.w3.org/2000/svg">
<path fill-rule="evenodd" clip-rule="evenodd" d="M35.7989 17.8167H89.8357C91.1571 17.8167 92.3933 18.4693 93.1386 19.5604L95.5805 23.135L96.7605 21.3168L94.7901 18.4323C93.672 16.7956 91.8178 15.8167 89.8357 15.8167H35.7989C33.983 15.8167 32.2647 16.6391 31.1257 18.0535L18.406 33.8494C16.4326 36.3 16.6875 39.8588 18.9899 42.0032L31.199 53.3746C32.3095 54.4089 33.7707 54.984 35.2883 54.984H74.9108L76.2088 52.984H35.2883C34.2766 52.984 33.3025 52.6006 32.5621 51.911L20.353 40.5396C18.818 39.11 18.6481 36.7376 19.9637 35.1038L32.6835 19.3079C33.4428 18.365 34.5883 17.8167 35.7989 17.8167Z" fill="#616161"/>
<path fill-rule="evenodd" clip-rule="evenodd" d="M58.4786 35.6612L52.8947 30.993C52.4386 30.6117 52.3793 29.934 52.7623 29.4793C53.1452 29.0245 53.8254 28.965 54.2815 29.3463L68.3002 41.0662C68.7563 41.4475 68.8156 42.1252 68.4327 42.58C68.0497 43.0347 67.3695 43.0942 66.9134 42.7129L65.1339 41.2252L61.1609 45.1362C60.547 45.7406 59.5162 45.3574 59.4278 44.541L59.4217 44.4271L59.4216 37.4858L55.9828 40.1956C55.5435 40.5416 54.9023 40.4715 54.5508 40.0389C54.2264 39.6397 54.2621 39.0712 54.6151 38.7139L54.7099 38.6292L58.4786 35.6612ZM61.4613 38.1548V41.9962L63.5715 39.9189L61.4613 38.1548ZM59.4217 26.3743L59.4216 30.8789L61.4613 32.5841V28.7913L64.0104 31.3006L61.9074 32.957L63.4918 34.2816L66.171 32.1721L66.2757 32.0774C66.5327 31.8101 66.6131 31.431 66.5066 31.0877L66.4559 30.9599L66.4104 30.876L66.3821 30.8319C66.3456 30.7783 66.3033 30.7273 66.255 30.6798L61.1609 25.6651L61.0747 25.5888C60.4257 25.0731 59.4217 25.5197 59.4217 26.3743Z" fill="#616161"/>
<path d="M98.2295 28.0602C99.4191 26.2995 102.012 26.2995 103.201 28.0602L120.265 53.3175C121.612 55.3099 120.184 57.997 117.78 57.997H83.6511C81.2466 57.997 79.8192 55.3099 81.1653 53.3175L98.2295 28.0602Z" fill="#F63F3F"/>
<ellipse cx="100.715" cy="50.524" rx="1.60562" ry="1.60076" fill="white"/>
<rect x="99.1094" y="35.0552" width="3.21124" height="10.6718" rx="1.60562" fill="white"/>
</svg>
