<svg width="54" height="24" viewBox="0 0 54 24" fill="none" xmlns="http://www.w3.org/2000/svg">
<path d="M9.13581 3.42538L6.4238 7.21221L2.3346 13.0201C1.87101 13.7533 1.90628 14.1525 2.3346 14.8497L4.13554 17.4026L6.91111 21.1256C7.43695 21.8005 7.84409 22.0248 8.88156 21.9979H22.2933H41.4045H46.638H50.2399C51.5429 21.6482 51.9226 21.1358 51.9984 19.679V14.2966V13.3392V11.5522C52.0158 10.6517 51.8929 10.1943 51.4264 9.46729L50.5577 8.31847L47.5702 4.34017L46.6804 3.21264C45.8574 2.26918 45.2837 2.12493 44.2226 2H42.9088H39.4128H33.9676H29.8573H21.2551H14.4963H11.5512C10.3526 2.15329 9.89093 2.57155 9.13581 3.42538Z" stroke="#007AFF" stroke-width="3"/>
<ellipse cx="39.5627" cy="10.9503" rx="5.02513" ry="5.24847" fill="#007AFF"/>
<rect x="13.4321" y="5.70184" width="16.0804" height="8.39754" rx="1" fill="#007AFF"/>
</svg>
