<svg width="154" height="92" viewBox="0 0 154 92" fill="none" xmlns="http://www.w3.org/2000/svg">
<rect x="1.54004" y="87.3999" width="1.54" height="3.06667" fill="black"/>
<rect x="3.08008" y="82.7998" width="1.54" height="4.6" fill="black"/>
<rect x="4.62012" y="76.6665" width="1.54" height="6.13334" fill="black"/>
<rect x="6.16016" y="72.0664" width="1.54" height="4.6" fill="black"/>
<rect x="7.7002" y="65.9331" width="1.54" height="6.13333" fill="black"/>
<rect x="10.7803" y="65.9331" width="1.54" height="9.2" fill="black"/>
<rect x="9.24023" y="39.8667" width="1.54" height="26.0667" fill="black"/>
<rect x="10.7803" y="33.7334" width="1.54" height="6.13333" fill="black"/>
<rect x="12.3198" y="29.1333" width="1.54" height="4.6" fill="black"/>
<rect x="13.8599" y="26.0664" width="1.54" height="3.06667" fill="black"/>
<rect x="15.3999" y="23" width="1.54" height="3.06667" fill="black"/>
<rect x="16.9399" y="21.4663" width="1.54" height="1.53333" fill="black"/>
<rect x="26.1802" y="12.2666" width="3.08" height="1.53333" fill="black"/>
<rect x="32.3398" y="9.19971" width="4.62" height="1.53333" fill="black"/>
<rect x="36.96" y="7.6665" width="18.48" height="1.53333" fill="black"/>
<rect x="55.4399" y="9.19971" width="6.16" height="1.53333" fill="black"/>
<rect x="61.6001" y="10.7334" width="3.08" height="1.53333" fill="black"/>
<rect x="64.6802" y="12.2666" width="3.08" height="1.53333" fill="black"/>
<rect x="67.7603" y="13.7998" width="1.54" height="1.53333" fill="black"/>
<rect x="77" y="23" width="1.54" height="3.06667" fill="black"/>
<rect x="80.0801" y="29.1333" width="1.54" height="4.6" fill="black"/>
<rect x="81.6201" y="33.7334" width="1.54" height="3.06667" fill="black"/>
<rect x="80.0801" y="36.7998" width="1.54" height="1.53333" fill="black"/>
<rect x="72.3799" y="41.3999" width="3.08" height="1.53333" fill="black"/>
<rect x="67.7603" y="44.4663" width="3.07999" height="1.53333" fill="black"/>
<rect x="75.46" y="39.8667" width="1.54" height="1.53334" fill="black"/>
<rect x="70.8398" y="42.9331" width="1.54" height="1.53333" fill="black"/>
<rect x="77" y="38.333" width="3.08" height="1.53333" fill="black"/>
<rect x="83.1602" y="33.7334" width="1.53999" height="1.53333" fill="black"/>
<rect x="84.7002" y="32.1997" width="3.08" height="1.53333" fill="black"/>
<rect x="90.8599" y="29.1333" width="6.16" height="1.53333" fill="black"/>
<rect x="97.02" y="30.6665" width="3.08" height="1.53333" fill="black"/>
<rect x="100.1" y="32.1997" width="1.54" height="1.53333" fill="black"/>
<rect x="101.64" y="33.7334" width="1.54" height="7.66667" fill="black"/>
<rect x="100.1" y="38.333" width="1.54" height="6.13334" fill="black"/>
<rect x="98.5601" y="38.333" width="1.54" height="7.66667" fill="black"/>
<rect x="97.02" y="38.333" width="1.54" height="9.2" fill="black"/>
<rect x="95.48" y="39.8667" width="1.53999" height="9.2" fill="black"/>
<rect x="121.66" y="15.333" width="1.53999" height="3.06667" fill="black"/>
<rect x="123.2" y="13.7998" width="1.54" height="6.13333" fill="black"/>
<rect x="124.74" y="13.7998" width="1.54" height="7.66667" fill="black"/>
<rect x="130.9" y="19.9331" width="1.54001" height="7.66667" fill="black"/>
<rect x="140.14" y="15.333" width="1.53999" height="12.2667" fill="black"/>
<rect x="141.68" y="12.2666" width="1.54001" height="12.2667" fill="black"/>
<rect x="143.22" y="9.19971" width="1.53999" height="12.2667" fill="black"/>
<rect x="146.3" y="3.06641" width="1.53999" height="12.2667" fill="black"/>
<rect x="147.84" y="1.5332" width="1.54001" height="10.7333" fill="black"/>
<rect x="149.38" y="1.5332" width="1.53999" height="7.66667" fill="black"/>
<rect x="150.92" y="3.06641" width="1.54001" height="3.06667" fill="black"/>
<rect x="144.76" y="6.1333" width="1.54001" height="12.2667" fill="black"/>
<rect x="138.6" y="18.3999" width="1.53999" height="12.2667" fill="black"/>
<rect x="137.06" y="21.4663" width="1.54001" height="10.7333" fill="black"/>
<rect x="135.52" y="24.5332" width="1.53999" height="7.66667" fill="black"/>
<rect x="133.98" y="23" width="1.54001" height="7.66667" fill="black"/>
<rect x="132.44" y="21.4663" width="1.53999" height="7.66667" fill="black"/>
<rect x="129.36" y="18.3999" width="1.53999" height="7.66667" fill="black"/>
<rect x="127.82" y="16.8667" width="1.54" height="7.66667" fill="black"/>
<rect x="126.28" y="15.333" width="1.54" height="7.66667" fill="black"/>
<rect x="93.9399" y="39.8667" width="1.54" height="10.7333" fill="black"/>
<rect x="92.3999" y="41.3999" width="1.54" height="10.7333" fill="black"/>
<rect x="87.7803" y="46" width="1.54" height="10.7333" fill="black"/>
<rect x="86.2402" y="47.5332" width="1.54" height="13.8" fill="black"/>
<rect x="87.7803" y="58.2666" width="1.54" height="3.06667" fill="black"/>
<rect x="89.3198" y="58.2666" width="6.16" height="1.53333" fill="black"/>
<rect x="95.48" y="56.7334" width="7.7" height="1.53333" fill="black"/>
<rect x="103.18" y="58.2666" width="1.54" height="6.13334" fill="black"/>
<rect x="101.64" y="64.3999" width="1.54" height="1.53333" fill="black"/>
<rect x="98.5601" y="67.4663" width="1.54" height="1.53333" fill="black"/>
<rect x="95.48" y="69" width="3.07999" height="1.53333" fill="black"/>
<rect x="90.8599" y="70.5332" width="4.62" height="1.53333" fill="black"/>
<rect x="86.2402" y="72.0664" width="4.62" height="1.53333" fill="black"/>
<rect x="81.6201" y="73.6001" width="9.24" height="1.53333" fill="black"/>
<rect x="77" y="75.1333" width="13.86" height="1.53333" fill="black"/>
<rect x="70.8398" y="76.6665" width="20.02" height="1.53333" fill="black"/>
<rect x="73.9199" y="78.1997" width="13.86" height="1.53333" fill="black"/>
<rect x="77" y="79.7334" width="7.7" height="1.53334" fill="black"/>
<rect x="89.3198" y="78.1997" width="1.54" height="3.06667" fill="black"/>
<rect x="90.8599" y="81.2666" width="1.54" height="6.13333" fill="black"/>
<rect x="92.3999" y="87.3999" width="1.54" height="3.06667" fill="black"/>
<rect x="92.3999" y="82.7998" width="6.16" height="1.53333" fill="black"/>
<rect x="98.5601" y="81.2666" width="3.08" height="1.53333" fill="black"/>
<rect x="107.8" y="76.6665" width="1.53999" height="1.53333" fill="black"/>
<rect x="115.5" y="67.4663" width="1.54" height="3.06667" fill="black"/>
<rect x="123.2" y="47.5332" width="1.54" height="6.13334" fill="black"/>
<rect x="129.36" y="47.5332" width="1.53999" height="3.06667" fill="black"/>
<rect x="132.44" y="56.7334" width="3.08" height="1.53333" fill="black"/>
<rect x="138.6" y="59.7998" width="1.53999" height="1.53333" fill="black"/>
<rect x="123.2" y="62.8667" width="1.54" height="6.13334" fill="black"/>
<rect x="141.68" y="64.3999" width="1.54001" height="9.2" fill="black"/>
<rect x="140.14" y="61.333" width="1.53999" height="3.06667" fill="black"/>
<rect x="127.82" y="75.1333" width="3.07999" height="1.53333" fill="black"/>
<rect x="140.14" y="73.6001" width="1.53999" height="1.53333" fill="black"/>
<rect x="137.06" y="75.1333" width="3.08" height="1.53333" fill="black"/>
<rect x="130.9" y="76.6665" width="6.16" height="1.53333" fill="black"/>
<rect x="133.98" y="78.1997" width="1.54001" height="3.06667" fill="black"/>
<rect x="129.36" y="87.3999" width="1.53999" height="3.06667" fill="black"/>
<rect x="130.9" y="84.333" width="1.54001" height="3.06667" fill="black"/>
<rect x="132.44" y="81.2666" width="1.53999" height="3.06667" fill="black"/>
<rect x="126.28" y="72.0664" width="1.54" height="3.06667" fill="black"/>
<rect x="124.74" y="69" width="1.54" height="3.06667" fill="black"/>
<rect x="124.74" y="61.333" width="1.54" height="1.53333" fill="black"/>
<rect x="126.28" y="59.7998" width="1.54" height="1.53333" fill="black"/>
<rect x="135.52" y="58.2666" width="3.08" height="1.53333" fill="black"/>
<rect x="129.36" y="47.5332" width="1.53999" height="3.06667" fill="black"/>
<rect x="127.82" y="58.2666" width="3.07999" height="1.53333" fill="black"/>
<rect x="130.9" y="50.6001" width="1.54001" height="7.66667" fill="black"/>
<rect x="124.74" y="46" width="4.62" height="1.53333" fill="black"/>
<rect x="121.66" y="53.6665" width="1.53999" height="4.6" fill="black"/>
<rect x="120.12" y="58.2666" width="1.54" height="3.06667" fill="black"/>
<rect x="118.58" y="61.333" width="1.54" height="3.06667" fill="black"/>
<rect x="117.04" y="64.3999" width="1.54" height="3.06667" fill="black"/>
<rect x="113.96" y="70.5332" width="1.54" height="1.53333" fill="black"/>
<rect x="112.42" y="72.0664" width="1.54" height="1.53333" fill="black"/>
<rect x="110.88" y="73.6001" width="1.54" height="1.53333" fill="black"/>
<rect x="109.34" y="75.1333" width="1.54" height="1.53333" fill="black"/>
<rect x="104.72" y="78.1997" width="3.08" height="1.53333" fill="black"/>
<rect x="101.64" y="79.7334" width="3.08" height="1.53334" fill="black"/>
<rect x="100.1" y="65.9331" width="1.54" height="1.53333" fill="black"/>
<rect x="84.7002" y="49.0664" width="1.54" height="12.2667" fill="black"/>
<rect x="83.1602" y="50.6001" width="1.53999" height="10.7333" fill="black"/>
<rect x="81.6201" y="52.1333" width="1.54" height="7.66666" fill="black"/>
<rect x="80.0801" y="53.6665" width="1.54" height="6.13333" fill="black"/>
<rect x="78.54" y="55.1997" width="1.54" height="3.06667" fill="black"/>
<rect x="77" y="56.7334" width="1.54" height="1.53333" fill="black"/>
<rect x="73.9199" y="58.2666" width="3.08" height="1.53333" fill="black"/>
<rect x="69.2998" y="59.7998" width="4.62" height="1.53333" fill="black"/>
<rect x="64.6802" y="61.333" width="4.62" height="1.53333" fill="black"/>
<rect x="53.8999" y="62.8667" width="21.56" height="1.53334" fill="black"/>
<rect x="49.2803" y="61.333" width="4.62" height="1.53333" fill="black"/>
<rect x="46.2002" y="59.7998" width="3.08" height="1.53333" fill="black"/>
<rect x="44.6602" y="58.2666" width="1.54" height="1.53333" fill="black"/>
<rect x="50.8198" y="49.0664" width="1.54" height="1.53333" fill="black"/>
<rect x="47.7402" y="47.5332" width="3.08" height="1.53333" fill="black"/>
<rect x="50.8198" y="44.4663" width="1.54" height="3.06667" fill="black"/>
<rect x="50.8198" y="33.7334" width="1.54" height="3.06667" fill="black"/>
<rect x="49.2803" y="32.1997" width="1.54" height="1.53333" fill="black"/>
<rect x="47.7402" y="30.6665" width="1.54" height="1.53333" fill="black"/>
<rect x="32.3398" y="30.6665" width="1.54" height="1.53333" fill="black"/>
<rect x="30.7998" y="32.1997" width="1.54" height="1.53333" fill="black"/>
<rect x="29.2603" y="33.7334" width="1.54" height="3.06667" fill="black"/>
<rect x="27.7202" y="36.7998" width="1.54" height="7.66667" fill="black"/>
<rect x="29.2603" y="44.4663" width="1.54" height="3.06667" fill="black"/>
<rect x="30.7998" y="47.5332" width="1.54" height="1.53333" fill="black"/>
<rect x="35.4199" y="47.5332" width="3.08" height="1.53333" fill="black"/>
<rect x="32.3398" y="50.6001" width="1.54" height="3.06667" fill="black"/>
<rect x="30.7998" y="53.6665" width="1.54" height="3.06667" fill="black"/>
<rect x="32.3398" y="49.0664" width="3.08" height="1.53333" fill="black"/>
<rect x="35.4199" y="46" width="12.32" height="1.53333" fill="black"/>
<rect x="33.8799" y="44.4663" width="13.86" height="1.53333" fill="black"/>
<rect x="32.3398" y="42.9331" width="16.94" height="1.53333" fill="black"/>
<rect x="32.3398" y="38.333" width="16.94" height="1.53333" fill="black"/>
<rect x="40.04" y="36.7998" width="9.24" height="1.53333" fill="black"/>
<rect x="40.04" y="35.2666" width="7.7" height="1.53333" fill="black"/>
<rect x="35.4199" y="33.7334" width="10.78" height="1.53333" fill="black"/>
<rect x="36.96" y="32.1997" width="7.7" height="1.53333" fill="black"/>
<rect x="33.8799" y="35.2666" width="3.08" height="1.53333" fill="black"/>
<rect x="32.3398" y="36.7998" width="4.62" height="1.53333" fill="black"/>
<rect x="32.3398" y="39.8667" width="16.94" height="1.53334" fill="black"/>
<rect x="32.3398" y="41.3999" width="16.94" height="1.53333" fill="black"/>
<rect x="44.6602" y="29.1333" width="3.08" height="1.53333" fill="black"/>
<rect x="33.8799" y="29.1333" width="3.08" height="1.53333" fill="black"/>
<rect x="36.96" y="27.6001" width="7.7" height="1.53333" fill="black"/>
<rect x="52.3599" y="36.7998" width="1.54" height="7.66667" fill="black"/>
<rect x="75.46" y="61.333" width="7.7" height="1.53333" fill="black"/>
<rect x="89.3198" y="44.4663" width="1.54" height="10.7333" fill="black"/>
<rect x="90.8599" y="42.9331" width="1.54" height="10.7333" fill="black"/>
<rect x="87.7803" y="30.6665" width="3.08" height="1.53333" fill="black"/>
<rect x="78.54" y="26.0664" width="1.54" height="3.06667" fill="black"/>
<rect x="75.46" y="21.4663" width="1.54" height="1.53333" fill="black"/>
<rect x="73.9199" y="19.9331" width="1.54" height="1.53333" fill="black"/>
<rect x="72.3799" y="18.3999" width="1.54" height="1.53333" fill="black"/>
<rect x="70.8398" y="16.8667" width="1.54" height="1.53333" fill="black"/>
<rect x="69.2998" y="15.333" width="1.53999" height="1.53333" fill="black"/>
<rect x="29.2603" y="10.7334" width="3.08" height="1.53333" fill="black"/>
<rect x="24.6401" y="13.7998" width="1.54" height="1.53333" fill="black"/>
<rect x="23.1001" y="15.333" width="1.54" height="1.53333" fill="black"/>
<rect x="21.5601" y="16.8667" width="1.54" height="1.53333" fill="black"/>
<rect x="20.02" y="18.3999" width="1.54" height="1.53333" fill="black"/>
<rect x="18.48" y="19.9331" width="1.54" height="1.53333" fill="black"/>
<rect x="12.3198" y="75.1333" width="1.54" height="6.13334" fill="black"/>
<rect x="13.8599" y="81.2666" width="1.54" height="6.13333" fill="black"/>
<rect x="15.3999" y="87.3999" width="1.54" height="3.06667" fill="black"/>
</svg>
