<svg width="110" height="62" viewBox="0 0 110 62" fill="none" xmlns="http://www.w3.org/2000/svg">
<path fill-rule="evenodd" clip-rule="evenodd" d="M26.8415 7.96155H69.9851C71.309 7.96155 72.547 8.61654 73.2919 9.71095L75.0648 12.3159C75.7058 12.0646 76.3609 11.841 77.0287 11.6468L74.9453 8.58565C73.828 6.94403 71.9709 5.96155 69.9851 5.96155H26.8415C25.0218 5.96155 23.3003 6.78743 22.1616 8.20683L12.6853 20.0182C10.7216 22.4658 10.9756 26.0131 13.2679 28.156L22.2333 36.5369C23.3447 37.5759 24.8093 38.1539 26.3307 38.1539H61.1105C60.9683 37.4973 60.8549 36.8302 60.7716 36.1539H26.3307C25.3164 36.1539 24.34 35.7685 23.5991 35.0759L14.6337 26.695C13.1055 25.2664 12.9362 22.9015 14.2453 21.2698L23.7215 9.4584C24.4807 8.51213 25.6283 7.96155 26.8415 7.96155Z" fill="#589DFF"/>
<g clip-path="url(#clip0_1208_111159)">
<path fill-rule="evenodd" clip-rule="evenodd" d="M53.6284 26.0497L53.6096 26.0809L53.5584 26.1537L53.4996 26.2222L49.0925 30.8802C48.5614 31.4416 47.6696 31.0857 47.5931 30.3273L47.5878 30.2215L47.5878 23.7739L44.6127 26.2909C44.2326 26.6124 43.6779 26.5472 43.3738 26.1454C43.0931 25.7746 43.1241 25.2465 43.4295 24.9147L43.5115 24.836L47.0581 21.8371L43.5115 18.8381C43.1314 18.5167 43.0697 17.9305 43.3738 17.5287C43.6546 17.1579 44.1488 17.0738 44.5221 17.3159L44.6127 17.3832L47.5878 19.8994L47.5878 13.4527C47.5878 12.6588 48.4565 12.244 49.018 12.723L49.0925 12.794L53.4996 17.4519C53.5414 17.4961 53.578 17.5435 53.6096 17.5932L53.6341 17.6342L53.6735 17.7121L53.7173 17.8308C53.8095 18.1498 53.7399 18.5019 53.5175 18.7502L53.427 18.8381L49.8795 21.8371L53.427 24.836C53.6614 25.0342 53.7729 25.3304 53.7562 25.621C53.7505 25.712 53.7337 25.798 53.7053 25.881L53.6735 25.962L53.6284 26.0497ZM49.3502 23.7746V27.9705L51.5556 25.6396L49.3502 23.7746ZM49.3502 19.8986V15.7026L51.5556 18.0335L49.3502 19.8986Z" fill="#589DFF"/>
</g>
<path fill-rule="evenodd" clip-rule="evenodd" d="M82 14C72.0589 14 64 22.0589 64 32C64 41.9411 72.0589 50 82 50C91.9411 50 100 41.9411 100 32C100 22.0589 91.9411 14 82 14ZM66.4545 32C66.4545 23.4145 73.4145 16.4545 82 16.4545C90.5855 16.4545 97.5455 23.4145 97.5455 32C97.5455 40.5855 90.5855 47.5455 82 47.5455C73.4145 47.5455 66.4545 40.5855 66.4545 32Z" fill="#FF8200"/>
<path fill-rule="evenodd" clip-rule="evenodd" d="M81.8008 28.3C82.6292 28.3 83.3008 27.6284 83.3008 26.8C83.3008 25.9716 82.6292 25.3 81.8008 25.3C80.9724 25.3 80.3008 25.9716 80.3008 26.8C80.3008 27.6284 80.9724 28.3 81.8008 28.3ZM80 30.5714C79.4477 30.5714 79 30.9552 79 31.4286C79 31.9019 79.4477 32.2857 80 32.2857H81V36.2857H80C79.4477 36.2857 79 36.6695 79 37.1428C79 37.6162 79.4477 38 80 38H84C84.5523 38 85 37.6162 85 37.1428C85 36.6695 84.5523 36.2857 84 36.2857H83V31.4286C83 30.9552 82.5523 30.5714 82 30.5714H80Z" fill="#FF8200"/>
<defs>
<clipPath id="clip0_1208_111159">
<rect width="17.6976" height="18.9315" fill="white" transform="translate(40.1201 12.5192)"/>
</clipPath>
</defs>
</svg>
