<svg width="238" height="100" viewBox="0 0 238 100" fill="none" xmlns="http://www.w3.org/2000/svg">
<g clip-path="url(#clip0_2752_8019)">
<g opacity="0.5">
<path d="M47.8144 0.717052H196.238C200.82 0.836574 205.482 1.87243 209.228 6.21506C212.973 10.5577 229.031 30.478 230.665 32.5497C232.298 34.6613 234.051 37.3704 234.53 41.7927C235.008 46.2151 236.283 76.0955 236.283 80.1991C236.283 84.5417 235.008 86.2947 234.051 88.2868C233.095 90.0398 231.701 92.988 230.784 94.741C229.828 96.4939 226.68 99.2031 221.66 99.3226H37.614C32.2349 99.3226 27.7722 97.3306 24.8635 93.3465C21.9149 89.482 5.89711 67.3306 5.17989 66.1752C4.02438 64.3027 3.06809 61.3545 1.43443 58.0876C0.398456 55.976 -0.079688 52.7091 2.58995 48.9641C5.41897 45.219 32.7927 9.60151 35.2631 6.81267C37.7335 3.86446 41.9571 0.59753 47.8144 0.717052Z" fill="#E8E8E8"/>
</g>
<path d="M38.0124 96.0158C33.5498 96.0158 29.4457 93.7449 27.0948 89.96L13.0294 67.5696L13.388 67.6094C13.4677 67.6094 13.5873 67.5696 13.6271 67.4899C13.667 67.4102 13.7068 67.2907 13.6271 67.211L10.6387 61.6333L12.3919 59.721C12.4317 59.6811 12.4716 59.6015 12.4716 59.5218C12.4716 59.4421 12.4317 59.3624 12.3521 59.3226L9.72227 57.3305C9.68242 57.2907 9.60273 57.2907 9.56288 57.2907C9.48319 57.2907 9.4035 57.3305 9.36366 57.3704L7.69015 59.2031L5.73773 57.6891C4.7416 56.8923 4.14392 55.7768 4.02438 54.5417C3.90485 53.2668 4.3033 52.0716 5.14005 51.1154L5.57835 50.5975L8.24799 52.5497C8.28783 52.5895 8.36752 52.5895 8.40737 52.5895C8.48706 52.5895 8.56675 52.5497 8.64644 52.47L31.5973 22.5497C31.677 22.4301 31.677 22.2708 31.5575 22.1513L29.2863 20.2389L33.9084 14.1433C36.3788 10.9959 40.0844 9.20306 44.1088 9.20306C47.0573 9.20306 49.8067 10.1592 52.1177 11.9919C52.1575 12.0317 52.2372 12.0716 52.2771 12.0716L158.186 11.6732C158.345 11.6732 158.465 11.5537 158.465 11.3943V5.21899H201.538V18.207H164.322C164.163 18.207 164.043 18.3266 164.043 18.4859V49.9999C164.043 50.1592 164.163 50.2788 164.322 50.2788H197.314C197.473 50.2788 197.593 50.1592 197.593 49.9999V24.0238H211.3C211.419 24.0238 211.499 23.9839 211.539 23.8644L214.328 18.8047L230.186 39.6413L231.143 68.725H223.373C223.214 68.725 223.094 68.8445 223.094 69.0039V92.3106C223.094 93.6254 222.018 94.6612 220.743 94.6612H214.926C212.376 94.6612 210.304 92.5895 210.304 90.0397V74.4222C210.304 74.3027 210.224 74.1831 210.065 74.1433L204.685 72.9879H204.646C204.566 72.9879 204.367 72.9879 204.088 72.9481C203.57 72.9082 202.813 72.8286 202.215 72.8286C201.737 72.8286 201.378 72.8684 201.259 73.0676L199.107 75.1393L155.118 73.9441L148.304 69.9999C148.264 69.96 148.225 69.96 148.145 69.96L141.132 70.4381H141.092L127.943 73.8644L68.8527 91.6333L44.6666 96.0158H38.0124Z" fill="#518755"/>
<path d="M201.299 5.5378V17.9282H164.362C164.043 17.9282 163.804 18.1673 163.804 18.486V49.9999C163.804 50.3187 164.043 50.5577 164.362 50.5577H197.354C197.673 50.5577 197.912 50.3187 197.912 49.9999V24.3027H211.34C211.539 24.3027 211.738 24.1832 211.818 24.0239L214.408 19.3227L229.947 39.7211L230.864 68.4063H223.373C223.054 68.4063 222.815 68.6454 222.815 68.9641V92.3107C222.815 93.4661 221.899 94.3824 220.743 94.3824H214.926C212.535 94.3824 210.583 92.4302 210.583 90.0398V74.4223C210.583 74.1434 210.383 73.9442 210.144 73.8645L204.765 72.7091C204.725 72.7091 204.685 72.7091 204.646 72.7091C204.606 72.7091 204.327 72.6693 204.128 72.6693C203.57 72.6294 202.813 72.5498 202.255 72.5498C201.896 72.5498 201.338 72.5497 201.06 72.9083L199.027 74.9003L155.237 73.7051L148.464 69.8007C148.384 69.7609 148.264 69.7211 148.185 69.7211H148.145L141.172 70.1992C141.132 70.1992 141.092 70.1992 141.052 70.1992L127.904 73.6254C127.904 73.6254 127.904 73.6254 127.864 73.6254L68.8129 91.3944L44.6268 95.737H38.0125C33.6295 95.737 29.6449 93.5458 27.3339 89.8406L13.5474 67.8884C13.667 67.8485 13.7865 67.7689 13.8662 67.6493C13.9857 67.49 13.9857 67.2509 13.906 67.0517L10.9973 61.6334L12.631 59.8804C12.7505 59.7609 12.7904 59.6015 12.7904 59.4422C12.7904 59.2828 12.7107 59.1235 12.5513 59.0438L9.9215 57.0517C9.80196 56.9721 9.68243 56.9322 9.56289 56.9322C9.40351 56.9322 9.24413 57.0119 9.12459 57.1314L7.65031 58.7649L5.89712 57.4103C4.98068 56.6932 4.383 55.6175 4.26346 54.4621C4.14392 53.2669 4.50253 52.1513 5.29944 51.235L5.57836 50.9163L8.04877 52.7091C8.1683 52.7888 8.24799 52.8286 8.36753 52.8286C8.52691 52.8286 8.68629 52.7489 8.80583 52.5896L31.7567 22.6693C31.956 22.4302 31.9161 22.0717 31.677 21.9123L29.6051 20.1593L34.0678 14.3027C36.4983 11.235 40.1243 9.44218 44.0689 9.44218C46.9378 9.44218 49.6473 10.3984 51.9185 12.1513C51.9982 12.231 52.1575 12.2709 52.2771 12.2709L158.186 11.8725C158.505 11.8725 158.744 11.6334 158.744 11.3147V5.5378H201.299ZM201.856 4.94019H158.226V11.3147L52.3169 11.7131C49.8864 9.80074 46.9776 8.88441 44.1088 8.88441C40.1641 8.88441 36.2991 10.6374 33.6693 13.9442L28.8879 20.239L31.3981 22.3505L8.44722 52.2709L5.57836 50.1593L4.98068 50.8764C3.14779 52.9482 3.46655 56.1752 5.65805 57.8884L7.8097 59.5617L9.64258 57.5298L12.2724 59.5219L10.3598 61.5936L13.4279 67.3705L12.5114 67.2908L26.8558 90.1593C29.2863 93.984 33.4701 96.3346 38.0125 96.3346H44.6666L68.9723 91.9521L128.063 74.1832L141.212 70.7569L148.185 70.2788L155.078 74.2629L199.227 75.4581L201.498 73.2669C201.538 73.1474 201.817 73.1075 202.255 73.1075C203.092 73.1075 204.407 73.2669 204.646 73.2669L210.025 74.4223V90.0398C210.025 92.7489 212.216 94.9402 214.926 94.9402H220.743C222.217 94.9402 223.373 93.745 223.373 92.3107V68.9641H231.422L230.465 39.482L214.368 18.2868L211.34 23.745H197.354V50.0398H164.362V18.486H201.856V4.94019Z" fill="#4F6054"/>
<path d="M181.137 99.2031V96.8924C181.137 96.4143 180.738 96.0159 180.26 96.0159H46.5393C43.6705 96.0159 41.3993 93.7848 41.3196 90.9163C41.2797 89.3625 41.2399 88.2071 41.1602 87.0916C40.961 84.7808 39.4867 82.9083 37.4546 82.4302C36.7772 82.0716 36.0202 81.8724 35.3029 81.8724C34.1474 81.8724 33.0318 82.3505 32.1153 83.227C30.9996 84.3027 29.6449 85.3386 27.8917 86.4541C27.4534 86.733 26.8956 86.8924 26.3776 86.8924C25.4213 86.8924 24.5049 86.4143 23.947 85.6175L10.7981 66.0557C10.0809 65.0198 10.1207 63.6254 10.8778 62.6294L43.0329 29.243C43.0728 29.2031 43.1126 29.1234 43.1126 29.0438C43.1126 28.9641 43.0728 28.8844 43.0329 28.8446L37.096 23.3465L40.6024 19.5617C42.1962 17.8087 43.1525 15.5378 43.272 13.1473L43.5509 7.45013C43.6306 5.57762 45.1846 4.10352 47.0573 4.10352L201.219 5.69714C204.048 5.73698 206.678 7.01188 208.471 9.24296L219.667 23.2669C219.349 23.4661 219.03 23.6653 218.711 23.8645C216.28 25.3784 213.73 26.9322 211.778 29.0438C211.3 29.5617 211.18 30.239 211.459 30.8366C211.738 31.474 212.415 31.9521 213.053 31.9521C213.491 31.9521 213.89 31.7529 214.208 31.4342C215.962 29.5617 218.233 28.1274 220.464 26.7728C220.902 26.494 221.381 26.2151 221.819 25.9362L228.672 34.5019C230.426 36.733 231.342 39.482 231.183 42.3107L203.61 48.6852L203.649 48.5657C210.343 37.8884 209.427 26.1752 201.219 17.2509L198.151 14.0637C198.111 14.0238 198.031 13.984 197.952 13.984C197.912 13.984 197.912 13.984 197.872 13.984L148.145 25.8565C148.025 25.8963 147.946 26.0159 147.946 26.1354L148.543 72.988C148.543 73.1473 148.663 73.2669 148.822 73.2669L204.526 73.5856L210.224 82.6294L207.076 95.1394C206.917 95.8167 206.279 96.2947 205.562 96.2947H201.299C200.9 96.2947 200.621 96.6135 200.621 96.972V99.2031H181.137ZM45.3838 87.8884C44.308 87.8884 43.7502 88.725 43.7502 89.6015C43.7502 90.4382 44.308 91.3147 45.3838 91.3147C46.4596 91.3147 47.0175 90.478 47.0175 89.6015C47.0175 88.7649 46.4596 87.8884 45.3838 87.8884ZM46.8182 73.8645C46.4995 73.8645 46.1807 73.9043 45.862 73.9043C45.6229 73.9043 45.3838 73.9442 45.1447 73.9442C44.2283 73.984 43.4712 74.741 43.4712 75.6573V80.1593C43.4712 80.6772 43.6705 81.0756 44.0291 81.3943C44.3478 81.6732 44.7463 81.7928 45.1846 81.7928C46.0213 81.7928 46.8979 81.235 46.8979 80.1593V77.2509C47.0175 77.2509 47.137 77.2908 47.2167 77.2908C47.3761 77.3306 47.5355 77.3306 47.655 77.3306C48.6113 77.3306 49.209 76.5338 49.2887 75.7768C49.3683 75.0597 49.0496 74.223 48.0933 73.984C47.6948 73.9043 47.2964 73.8645 46.8182 73.8645Z" fill="#8BBC61"/>
<path d="M47.0573 4.34268L201.219 5.97615C203.968 6.01599 206.518 7.25105 208.232 9.40244L219.229 23.1873C218.99 23.3068 218.791 23.4662 218.552 23.5857C216.121 25.0997 213.571 26.6933 211.579 28.8048C211.021 29.4024 210.901 30.1993 211.22 30.9164C211.539 31.6734 212.296 32.1913 213.053 32.1913C213.571 32.1913 214.009 31.9921 214.408 31.5538C216.121 29.6813 218.392 28.2869 220.584 26.9722C220.982 26.7331 221.341 26.4941 221.699 26.255L228.433 34.6614C230.107 36.773 230.983 39.3626 230.904 42.0718L204.207 48.2869C207.116 43.4662 208.55 38.2471 208.351 33.1475C208.152 27.251 205.841 21.8327 201.458 17.0518L198.39 13.9044C198.27 13.7849 198.151 13.7451 197.991 13.7451C197.952 13.7451 197.912 13.7451 197.872 13.7451L148.065 25.5777C147.826 25.6574 147.627 25.8566 147.627 26.1355L148.225 72.9881C148.225 73.3068 148.464 73.5459 148.782 73.5459L204.327 73.8646L209.865 82.6694L206.757 95.0598C206.598 95.6176 206.12 96.016 205.522 96.016H201.259C200.741 96.016 200.302 96.4542 200.302 96.9722V98.9244H181.376V96.8925C181.376 96.255 180.858 95.7371 180.22 95.7371H46.5393C43.8298 95.7371 41.6782 93.6255 41.5985 90.9164C41.5587 89.3626 41.5188 88.1674 41.4391 87.0917C41.2399 84.6614 39.6859 82.7092 37.5343 82.1913C36.8171 81.8327 36.0202 81.6335 35.2631 81.6335C34.0279 81.6335 32.8325 82.1515 31.8762 83.0678C30.7606 84.1435 29.4457 85.1395 27.7323 86.255C27.3339 86.5339 26.8557 86.6534 26.3377 86.6534C25.4611 86.6534 24.6642 86.2152 24.1463 85.4981L10.9973 65.9363C10.3598 64.9801 10.3996 63.7849 11.077 62.8686L43.2322 29.4821C43.3517 29.3626 43.3915 29.2431 43.3915 29.0837C43.3915 28.9244 43.3119 28.8048 43.2322 28.6853L37.4944 23.3068L40.8016 19.7212C42.4751 17.9283 43.4314 15.5777 43.5509 13.1475L43.8298 7.45025C43.9095 5.69726 45.344 4.34268 47.0573 4.34268ZM45.1447 82.0718C46.1409 82.0718 47.137 81.3945 47.137 80.1594V77.5698C47.2964 77.6096 47.4558 77.6495 47.655 77.6495C48.7707 77.6495 49.4879 76.7331 49.5676 75.8566C49.6871 74.8606 49.1293 74.024 48.1331 73.7849C47.7347 73.6654 47.3362 73.6255 46.8182 73.6255C46.4995 73.6255 46.1409 73.6654 45.8221 73.6654C45.583 73.6654 45.344 73.7052 45.1049 73.7052C44.0291 73.7451 43.1525 74.6216 43.1525 75.6973V80.1993C43.1525 81.4343 44.1486 82.0718 45.1447 82.0718ZM45.3838 91.5937C46.6589 91.5937 47.2964 90.5977 47.2964 89.6016C47.2964 88.6056 46.619 87.6096 45.3838 87.6096C44.1088 87.6096 43.4712 88.6056 43.4712 89.6016C43.4314 90.5977 44.1088 91.5937 45.3838 91.5937ZM47.0573 3.78491C45.0252 3.78491 43.3517 5.37854 43.272 7.41041L42.9931 13.1076C42.8736 15.4184 41.9571 17.6096 40.4031 19.3228L36.7374 23.3467L42.8337 29.0837L10.6785 62.51C9.84178 63.6255 9.80194 65.1395 10.559 66.255L23.708 85.8168C24.3056 86.7331 25.3416 87.2511 26.3776 87.2511C26.9354 87.2511 27.5331 87.0917 28.0511 86.773C29.5652 85.8168 30.9996 84.7809 32.3145 83.506C33.2708 82.5897 34.3068 82.2311 35.3029 82.2311C36.0202 82.2311 36.7374 82.4303 37.3749 82.7491C39.407 83.1873 40.7219 85.0598 40.9211 87.1315C41.0407 88.4064 41.0805 89.6813 41.0805 90.9562C41.1602 93.9443 43.5908 96.3347 46.5792 96.3347H180.3C180.619 96.3347 180.898 96.6136 180.898 96.9323V99.522H200.94V97.012C200.94 96.773 201.139 96.6136 201.338 96.6136H205.602C206.439 96.6136 207.156 96.0558 207.355 95.2192L210.503 82.5897L204.646 73.3068L148.782 72.9881L148.185 26.1355L197.952 14.3028L201.02 17.4503C210.025 27.2909 209.188 39.2032 203.371 48.4861L203.092 49.1236L231.422 42.5499C231.621 39.6016 230.704 36.6534 228.872 34.3427L221.859 25.5379L221.819 25.5777C219.149 27.2909 216.201 28.8447 214.009 31.1953C213.73 31.514 213.372 31.6335 213.053 31.6335C211.977 31.6335 211.021 30.1993 211.977 29.2032C214.248 26.773 217.277 25.0598 220.066 23.3068L208.67 9.04388C206.837 6.77296 204.128 5.41838 201.219 5.41838L47.0573 3.78491ZM45.1447 81.514C44.4275 81.514 43.7103 81.0758 43.7103 80.1594V75.6574C43.7103 74.8606 44.3478 74.263 45.1447 74.2232C45.7026 74.2232 46.2604 74.1435 46.8182 74.1435C47.2167 74.1435 47.5753 74.1833 47.9738 74.263C49.6074 74.6614 49.0894 77.0518 47.6152 77.0518C47.4956 77.0518 47.3761 77.0518 47.2167 77.012C47.0175 76.9722 46.8182 76.9323 46.619 76.9323C46.5792 76.9323 46.5393 76.9323 46.5393 76.9323V80.1196C46.5393 81.0758 45.862 81.514 45.1447 81.514ZM45.3838 91.0359C43.5509 91.0359 43.5509 88.2072 45.3838 88.2072C47.1769 88.1674 47.1769 91.0359 45.3838 91.0359Z" fill="#547F67"/>
<path d="M208.949 95.3386H187.432L179.423 87.3306H174.363C173.447 87.3306 172.65 86.5736 172.65 85.6174C172.65 84.6613 173.407 83.9043 174.363 83.9043H180.818L188.827 91.9123H208.949C209.865 91.9123 210.662 92.6692 210.662 93.6254C210.662 94.5816 209.865 95.3386 208.949 95.3386Z" fill="#61A7C6"/>
<path d="M208.949 95.5377H187.353L179.344 87.5298H174.363C173.327 87.5298 172.451 86.6931 172.451 85.6174C172.451 84.5417 173.287 83.7051 174.363 83.7051H180.898L188.907 91.713H208.949C209.985 91.713 210.861 92.5497 210.861 93.6254C210.861 94.7011 209.985 95.5377 208.949 95.5377ZM187.512 95.1393H208.949C209.786 95.1393 210.463 94.462 210.463 93.6254C210.463 92.7887 209.786 92.1115 208.949 92.1115H188.747L180.738 84.1035H174.363C173.526 84.1035 172.849 84.7808 172.849 85.6174C172.849 86.4541 173.526 87.1314 174.363 87.1314H179.503L187.512 95.1393Z" fill="#3A75AA"/>
<path d="M208.949 91.2748H189.584L181.575 83.2669H174.363C173.447 83.2669 172.65 82.5099 172.65 81.5537C172.65 80.5975 173.407 79.8406 174.363 79.8406H182.97L190.979 87.8485H208.949C209.865 87.8485 210.662 88.6055 210.662 89.5617C210.662 90.5179 209.865 91.2748 208.949 91.2748Z" fill="#D4D879"/>
<path d="M208.949 91.474H189.504L181.495 83.4661H174.363C173.327 83.4661 172.451 82.6294 172.451 81.5537C172.451 80.478 173.287 79.6414 174.363 79.6414H183.049L191.058 87.6493H208.949C209.985 87.6493 210.861 88.486 210.861 89.5617C210.861 90.6374 209.985 91.474 208.949 91.474ZM189.664 91.0756H208.949C209.786 91.0756 210.463 90.3983 210.463 89.5617C210.463 88.725 209.786 88.0477 208.949 88.0477H190.899L182.89 80.1194H174.363C173.526 80.1194 172.849 80.7967 172.849 81.6334C172.849 82.47 173.526 83.1473 174.363 83.1473H181.655L189.664 91.0756Z" fill="#82992E"/>
<path d="M208.949 87.1315H191.457L183.448 79.1236H174.403C173.487 79.1236 172.69 78.3666 172.69 77.4104C172.69 76.4542 173.447 75.6973 174.403 75.6973H184.882L192.891 83.7052H208.989C209.905 83.7052 210.702 84.4622 210.702 85.4184C210.702 86.3746 209.865 87.1315 208.949 87.1315Z" fill="#E1E1E1"/>
<path d="M208.949 87.3307H191.377L183.368 79.3228H174.403C173.367 79.3228 172.49 78.4861 172.49 77.4104C172.49 76.3347 173.327 75.498 174.403 75.498H184.962L192.971 83.506H208.989C210.025 83.506 210.901 84.3427 210.901 85.4184C210.901 86.4941 209.985 87.3307 208.949 87.3307ZM191.536 86.9323H208.949C209.786 86.9323 210.463 86.255 210.463 85.4184C210.463 84.5817 209.786 83.9044 208.949 83.9044H192.772L184.763 75.8965H174.363C173.526 75.8965 172.849 76.5737 172.849 77.4104C172.849 78.2471 173.526 78.9243 174.363 78.9243H183.488L191.536 86.9323Z" fill="#918988"/>
<path d="M174.363 70.7571H160.138V88.6854H174.363V70.7571Z" fill="#858585"/>
<path d="M174.363 88.9243H160.138C159.979 88.9243 159.859 88.8048 159.859 88.6454V70.7171C159.859 70.5578 159.979 70.4382 160.138 70.4382H174.363C174.523 70.4382 174.642 70.5578 174.642 70.7171V88.6454C174.642 88.8048 174.523 88.9243 174.363 88.9243ZM160.417 88.3665H174.084V70.996H160.417V88.3665Z" fill="#757575"/>
<path d="M158.106 61.0757C157.708 60.7968 157.349 60.5179 157.11 60.1594C156.991 60 156.831 59.8407 156.672 59.761V59.7211C156.672 59.5618 156.632 59.3626 156.632 59.2032C156.552 58.4861 156.034 58.008 155.397 58.008C155.038 58.008 154.68 58.1673 154.44 58.4462C154.241 58.6853 154.122 58.9642 154.162 59.243C154.162 59.3227 154.162 59.4024 154.201 59.4423C154.162 59.4024 154.122 59.4024 154.042 59.3626C153.604 59.0837 153.404 58.9642 153.126 58.6853C153.006 58.5658 152.886 58.4462 152.767 58.3267L152.687 58.247L152.568 58.0877C152.488 57.9681 152.408 57.8486 152.369 57.6893L152.329 57.6096C152.329 57.5697 152.289 57.5299 152.289 57.4502C152.249 57.2909 152.209 57.1713 152.169 57.012C152.169 56.9721 152.129 56.7729 152.129 56.7729V56.7331C152.09 56.3745 152.09 56.016 152.09 55.6176C152.09 55.0199 152.09 54.4622 152.09 53.8646C152.687 53.5458 153.365 53.3865 154.122 53.3865C154.998 53.3865 155.875 53.6255 156.552 54.0638C157.947 54.9004 158.545 56.2948 159.182 57.8088C159.421 58.3666 159.66 58.9243 159.939 59.4821C159.381 60.0797 158.744 60.5976 158.106 61.0757Z" fill="#6B6B6D"/>
<path d="M154.122 53.745C154.958 53.745 155.755 53.9841 156.433 54.3825C157.748 55.1793 158.305 56.5339 158.943 57.9681C159.142 58.4462 159.381 58.9641 159.62 59.4821C159.142 59.9203 158.624 60.3187 158.106 60.7171C157.787 60.4781 157.548 60.2789 157.349 60C157.23 59.8406 157.11 59.7211 156.951 59.6016C156.951 59.4422 156.911 59.3227 156.911 59.1634C156.791 58.3267 156.194 57.7291 155.397 57.7291C154.958 57.7291 154.52 57.9283 154.241 58.2869C154.042 58.4861 153.962 58.7251 153.922 58.9641C153.683 58.8048 153.564 58.6853 153.365 58.5259C153.245 58.4064 153.126 58.2869 153.046 58.1673C153.046 58.1275 153.006 58.1275 153.006 58.0877C153.006 58.0478 152.966 58.0478 152.966 58.008L152.926 57.9681C152.847 57.8486 152.807 57.7689 152.727 57.6096V57.5697C152.727 57.5299 152.687 57.49 152.687 57.4104C152.647 57.2908 152.608 57.1315 152.568 57.012C152.568 56.9721 152.568 56.8924 152.528 56.8526V56.7729V56.7331C152.488 56.3745 152.488 56.0159 152.488 55.6574C152.488 55.1394 152.488 54.6215 152.488 54.1036C152.887 53.8645 153.484 53.745 154.122 53.745ZM154.122 53.1873C153.325 53.1873 152.528 53.3865 151.811 53.7849C151.811 54.4223 151.771 55.0598 151.811 55.6972C151.811 56.0558 151.851 56.4542 151.851 56.8128C151.851 56.8526 151.851 56.8526 151.851 56.8924C151.851 56.9721 151.89 57.0518 151.89 57.1315C151.93 57.2908 151.97 57.4502 152.01 57.6096C152.05 57.6892 152.05 57.7689 152.09 57.8486V57.8885C152.169 58.0478 152.249 58.1673 152.329 58.2869C152.329 58.3267 152.448 58.4462 152.448 58.4462C152.488 58.4861 152.488 58.5259 152.528 58.5657C152.647 58.6853 152.767 58.8446 152.926 58.9641C153.245 59.243 153.444 59.4024 153.883 59.6414C154.082 59.761 154.281 59.8805 154.52 60C154.48 59.761 154.48 59.4821 154.44 59.243C154.361 58.7251 154.919 58.2869 155.397 58.2869C155.955 58.2869 156.273 58.7251 156.353 59.243C156.393 59.4821 156.393 59.7211 156.433 59.9602C156.632 60.0398 156.791 60.1594 156.911 60.3586C157.23 60.7968 157.708 61.1155 158.146 61.4343C158.903 60.8367 159.66 60.2789 160.338 59.6016C159.222 57.6096 158.823 55.1394 156.751 53.9044C155.955 53.4263 155.038 53.1873 154.122 53.1873Z" fill="#494949"/>
<path d="M168.346 62.9084C168.625 60.7969 169.263 59.2032 170.179 58.2471C172.451 59.2032 174.961 59.6813 177.352 60.0797L178.029 60.1993C178.109 60.1993 178.188 60.2391 178.308 60.2391C178.388 60.2391 178.427 60.2391 178.507 60.2391V62.7491H168.904C168.825 62.7491 168.745 62.7889 168.705 62.8287L168.307 63.1873C168.307 63.0678 168.346 62.9881 168.346 62.9084Z" fill="#6B6B6D"/>
<path d="M170.259 58.5657C172.53 59.4821 174.961 59.9203 177.312 60.3585L177.989 60.4781C178.069 60.4781 178.109 60.5179 178.188 60.5179V62.4701H168.864C168.785 62.4701 168.745 62.4701 168.665 62.5099C168.984 60.757 169.502 59.4024 170.259 58.5657ZM170.14 57.8884C168.865 59.1235 168.307 61.1155 168.068 62.8685C168.028 63.1872 167.988 63.5458 167.948 63.8645L168.864 62.988H178.746V59.8406C178.587 59.9203 178.427 59.9601 178.268 59.9601C178.188 59.9601 178.148 59.9601 178.069 59.9601C175.399 59.4024 172.65 59.004 170.14 57.8884Z" fill="#494949"/>
<path d="M82.3204 99.2032V90.9562C82.3204 90.0399 81.5634 89.2829 80.6469 89.2829H58.6125C58.1343 89.2829 57.7359 89.6813 57.7359 90.1594V91.8725C57.7359 92.3108 57.3773 92.6693 56.939 92.6693H49.0097C48.691 92.6693 48.4519 92.4303 48.4519 92.1116V82.4303C48.4519 82.1116 48.691 81.8725 49.0097 81.8725H50.0856C50.9223 81.8725 51.5997 81.1952 51.5997 80.3586V69.5618C51.5997 69.0837 51.9981 68.6853 52.4763 68.6853H53.313C54.1099 68.6853 54.7873 68.0478 54.7873 67.2112V55.498C54.7873 54.9004 55.2655 54.4223 55.8631 54.4223H63.3939C63.4736 54.4223 63.5533 54.3825 63.5931 54.3426C63.633 54.3028 63.6728 54.2231 63.6728 54.1434C62.6767 37.251 61.9993 37.251 61.5212 37.251H54.9865C53.7912 37.251 52.8349 36.2948 52.8349 35.0996V19.2032C52.8349 18.008 53.7912 17.012 54.9865 17.012H64.8682C64.908 17.0518 65.0276 17.1315 65.2666 17.4104C65.3065 17.4901 65.3862 17.4901 65.4659 17.4901C65.5456 17.4901 65.6252 17.4502 65.6651 17.4104L70.4864 12.0717C70.5661 11.9921 70.5661 11.8725 70.5262 11.753C70.4864 11.6335 70.3668 11.5936 70.2871 11.5936H52.795V8.96416C52.795 5.89644 55.3053 3.38647 58.3734 3.38647H201.697L213.85 18.0877L208.75 20.0797L204.805 16.4542C204.765 16.4144 204.685 16.3745 204.606 16.3745C204.566 16.3745 204.566 16.3745 204.526 16.3745L188.827 20.1195L183.328 21.0359C183.249 21.0359 183.169 21.1156 183.129 21.1952C183.089 21.2749 183.089 21.3546 183.129 21.4343L195.84 44.9403L191.058 46.9323C190.939 46.9721 190.859 47.1315 190.899 47.251C190.939 47.3705 191.058 47.4901 191.178 47.4901H197.792C197.952 47.7291 198.191 47.8885 198.47 47.9283L198.669 47.9682C198.589 48.5259 198.948 49.0438 199.545 49.2829C200.183 49.5618 200.86 49.6813 201.538 49.8407L201.737 49.8805C202.255 50 202.813 50.1195 203.211 50.4383C203.45 50.6773 203.61 51.1156 203.689 51.514L203.729 51.5936C203.809 51.8327 203.889 52.1116 203.928 52.3506C204.008 52.7092 204.128 53.1076 204.247 53.4662C204.725 54.9801 205.761 56.3745 207.275 57.6494C207.714 58.0478 208.152 58.4064 208.63 58.7251C210.383 59.9203 212.415 60.6375 214.527 60.7968C214.567 60.7968 214.607 60.7968 214.607 60.7968V67.1315C214.607 67.2909 214.726 67.4104 214.886 67.4104H218.313C218.472 67.4104 218.591 67.2909 218.591 67.1315V63.7052C219.548 64.263 220.584 64.7809 221.58 65.259C221.978 65.4582 222.337 65.6175 222.735 65.8168C222.935 65.8964 223.134 65.9363 223.333 65.9363C223.731 65.9363 224.09 65.7769 224.329 65.4582C224.568 65.1793 224.648 64.7809 224.528 64.4223C224.449 64.0239 224.329 63.6255 224.249 63.1873C224.21 62.9482 224.13 62.6693 224.09 62.4303V62.3905C224.05 62.1116 223.971 61.8327 223.891 61.5538C223.811 61.2351 223.612 60.8765 223.174 60.6773C222.974 60.5976 222.775 60.5578 222.536 60.5179L222.377 60.4781C221.341 60.2391 220.384 60.1195 219.428 60.0797C220.384 59.8008 221.301 59.2829 222.098 58.5658C222.098 58.5658 222.257 58.5658 222.297 58.5658C222.815 58.6056 223.333 58.6454 223.891 58.6853C224.728 58.765 225.564 58.8446 226.401 58.8446C227.397 58.8446 228.274 58.7251 229.071 58.5259C229.589 58.3666 229.947 57.8885 229.947 57.3307C229.947 56.8128 229.589 56.255 229.031 56.1355C228.314 56.016 227.517 55.9761 226.64 55.9761C225.843 55.9761 225.046 56.016 224.249 56.0558H224.05C224.329 55.5777 224.528 55.0199 224.728 54.502C224.927 53.9841 225.086 53.4263 225.206 52.8685C225.206 52.8685 225.803 52.8287 226.082 52.8287C226.361 52.8287 226.64 52.8287 226.919 52.8287C226.999 52.8287 227.118 52.8287 227.198 52.8287C227.397 52.8287 227.596 52.8287 227.796 52.8685C227.875 52.8685 227.955 52.8685 228.035 52.9084C228.035 52.9084 228.274 52.9482 228.314 52.9482C228.393 52.9482 228.473 52.9482 228.513 52.9482C228.752 52.9482 228.911 52.9084 229.111 52.7889C229.39 52.6295 229.589 52.3506 229.668 52.0319C229.748 51.6733 229.668 51.2749 229.469 50.9562C229.31 50.7172 229.071 50.5578 228.792 50.518C228.194 50.4383 227.557 50.3984 226.839 50.3984C226.401 50.3984 225.963 50.3984 225.525 50.4383C225.564 49.2032 225.445 48.0478 225.166 46.9323C225.883 46.5339 226.68 46.1753 227.437 45.8168C227.915 45.5777 228.433 45.3387 228.911 45.0996C229.19 44.9801 229.39 44.7012 229.469 44.3825C229.549 44.0239 229.509 43.7052 229.35 43.4263C229.23 43.2271 228.951 43.2271 228.712 43.2271C227.477 43.2271 223.851 44.1036 222.855 44.4622C220.145 41.3148 216.4 40.996 214.926 40.996C213.85 40.996 212.854 41.1554 212.296 41.3944C212.176 41.4343 212.137 41.5538 212.137 41.6733H201.219V30.5179L205.761 25.2191L210.941 38.6056C210.981 38.7251 211.101 38.8048 211.22 38.8048H211.579C215.085 38.8048 219.867 39.2032 223.333 39.5219C225.325 39.6813 226.919 39.8407 227.596 39.8407H230.545C231.422 39.8407 232.099 40.5578 232.099 41.3944V85.2988C232.099 90.4781 227.875 94.7012 222.696 94.7012H219.229C218.91 94.7012 218.631 94.4223 218.631 94.1036V90.3984C218.631 85.9363 215.005 82.3108 210.543 82.3108H191.935C191.736 82.3108 191.536 82.1514 191.536 81.9124V76.7331C191.536 76.5339 191.696 76.3347 191.935 76.3347H198.709C199.187 76.3347 199.545 75.9363 199.545 75.498V69.004C199.545 68.9243 199.506 68.8845 199.506 68.8446L194.963 62.8287C194.923 62.749 194.844 62.7092 194.724 62.7092H181.177V60.3984C181.894 60.5976 182.691 60.7172 183.607 60.7172C184.285 60.7172 185.042 60.6375 185.958 60.5179C188.269 60.1992 189.982 59.5618 191.178 58.6454C191.736 58.2072 191.895 57.6096 191.616 57.012C191.417 56.6136 191.337 56.1753 191.258 55.7371C191.218 55.4183 191.138 55.0996 191.058 54.7809C190.899 54.263 190.461 53.9442 189.903 53.9442C189.504 53.9442 189.106 54.1434 188.867 54.4622C188.668 54.7411 188.588 55.0996 188.707 55.498C188.747 55.5777 188.747 55.6574 188.787 55.7371C188.747 55.7371 188.747 55.7371 188.707 55.7371C188.389 55.7371 188.11 55.8566 187.871 56.0956C187.592 56.3745 187.153 56.6136 186.675 56.7729C186.118 56.9721 185.48 57.1315 184.683 57.2909C183.647 57.4901 182.571 57.5697 181.535 57.6893L181.177 57.7291V57.012C181.177 56.9323 181.137 56.8128 181.057 56.7729C181.017 56.7331 180.977 56.7331 180.898 56.7331C180.858 56.7331 180.818 56.7331 180.778 56.7729L178.786 57.8486C178.746 57.8486 178.706 57.8486 178.666 57.8088C178.348 57.7291 177.989 57.6893 177.67 57.6494C175.319 57.251 172.929 56.8128 170.817 55.8168C170.658 55.6972 170.498 55.6176 170.299 55.5777C169.382 55.0996 168.546 54.5419 167.749 53.9841C166.593 53.2271 165.398 52.4303 164.083 51.8725C164.123 51.6733 164.123 51.4741 164.043 51.2749C163.964 50.9562 163.764 50.6773 163.485 50.5578C163.286 50.4383 163.087 50.3984 162.888 50.3984C162.489 50.3984 162.091 50.5976 161.852 50.996C161.812 51.0757 161.732 51.1554 161.692 51.2351L161.573 51.3944L161.533 51.4343C161.533 51.4343 161.533 51.4343 161.493 51.4741C161.453 51.514 161.453 51.514 161.413 51.5538C161.334 51.6335 161.294 51.7132 161.214 51.7929C160.975 52.0717 160.736 52.3506 160.377 52.6693C160.099 52.9482 159.82 53.2271 159.541 53.4662C158.943 52.7889 158.266 52.2311 157.509 51.8725C156.473 51.3546 155.317 51.0757 154.122 51.0757C153.126 51.0757 152.169 51.2749 151.333 51.6335C151.293 51.6335 151.253 51.5936 151.213 51.5936C151.093 50.3984 150.974 49.1634 150.894 47.7689C150.934 46.9721 150.934 46.1355 150.934 45.4184C150.934 44.1036 150.894 42.7889 150.854 41.4741C150.854 41.1156 150.815 40.757 150.815 40.3984C152.209 41.0757 153.763 41.3944 155.277 41.753C155.397 41.7929 155.476 41.7929 155.596 41.7929C156.194 41.7929 156.672 41.4343 156.791 40.8765C156.911 40.3187 156.672 39.761 156.194 39.4821H159.859V46.494C159.859 46.6534 159.979 46.7729 160.099 46.7729L180.818 48.8845C180.818 48.8845 180.818 48.8845 180.858 48.8845C180.938 48.8845 180.977 48.8446 181.057 48.8048C181.097 48.765 181.137 48.6853 181.137 48.6056V47.6096H184.245C184.364 47.6096 184.484 47.5299 184.524 47.4104C184.564 47.2909 184.524 47.1713 184.404 47.0917L156.034 29.004C156.273 28.6056 156.592 28.1275 156.951 27.7291C157.309 27.3705 157.389 26.8925 157.19 26.4542C157.03 26.0956 156.712 25.8168 156.353 25.6972C157.748 22.4303 160.218 19.1634 163.685 16.0558C164.043 15.7371 164.163 15.259 164.003 14.8207C163.804 14.3427 163.326 13.9841 162.808 13.9841C162.529 13.9841 162.21 14.1036 162.011 14.3028C156.991 18.8446 153.922 23.7052 152.887 28.8446H152.448C152.488 27.5299 152.528 26.2152 152.568 24.9004C152.687 21.1952 152.847 17.3705 152.727 13.5857C152.687 11.8327 152.568 10.1195 152.408 8.52592C152.488 8.48608 152.568 8.44624 152.647 8.36655C152.926 8.16735 153.126 7.92831 153.205 7.64942C153.285 7.29086 153.245 6.97213 153.086 6.73309C153.006 6.57373 152.926 6.41436 152.847 6.255C152.807 6.17532 152.767 6.09564 152.727 5.97612C152.608 5.73707 152.408 5.53787 152.209 5.41835C151.89 5.21914 151.572 5.21914 151.333 5.21914C151.253 5.21914 151.213 5.21914 151.133 5.21914C150.934 5.21914 150.695 5.21914 150.496 5.21914C150.177 5.21914 149.858 5.33867 149.619 5.57771C149.38 5.81675 149.261 6.09564 149.261 6.4542C149.261 6.89245 149.34 7.25102 149.5 7.56974C149.5 7.60958 149.5 7.64942 149.539 7.68926C149.619 7.96815 149.779 8.16735 149.978 8.32671C150.536 13.8247 150.336 19.4821 150.137 24.9004C150.097 25.7769 150.057 26.6136 150.057 27.4901C148.902 28.4064 134.597 37.4901 121.887 45.498C117.265 48.4064 112.683 51.3148 108.539 53.9442C108.419 54.0239 108.379 54.1434 108.419 54.263C108.459 54.3825 108.578 54.4622 108.698 54.4622H146.83C146.989 54.4622 147.109 54.3427 147.109 54.1833V39.4821H148.344C148.344 41.9921 148.344 44.8207 148.504 47.5697C148.464 48.4462 148.384 49.2032 148.264 49.9203C148.185 50.0797 148.145 50.2789 148.145 50.4781V50.5976C148.025 51.0757 147.906 51.514 147.746 51.9124C147.547 52.4303 147.826 52.9881 148.225 53.267C148.384 54.9801 148.862 56.2948 149.659 57.4104C149.699 57.4901 149.739 57.5299 149.818 57.6096C149.858 57.8885 149.938 58.1275 150.018 58.3666C150.735 60.3984 152.608 61.514 154.361 62.3506C154.361 62.3506 154.361 62.3506 154.401 62.3506C154.401 62.9482 154.401 63.5857 154.401 64.1833C154.401 65.8168 154.401 67.5299 154.64 69.2032C154.719 69.9203 155.237 70.3984 155.875 70.3984C156.234 70.3984 156.592 70.2391 156.831 69.9602C157.03 69.7211 157.15 69.4423 157.11 69.1634C156.911 67.5299 156.911 65.8566 156.871 64.2231C156.871 63.8646 156.871 63.506 156.871 63.1873C156.991 63.3068 157.15 63.4263 157.269 63.5458C157.509 63.7849 157.787 63.9044 158.106 63.9044C158.425 63.9044 158.704 63.7849 158.983 63.5857C159.222 63.3865 159.501 63.1873 159.74 62.9881C160.656 62.2709 161.613 61.5538 162.37 60.6375C162.688 60.2391 162.848 59.6415 162.529 59.1634C162.011 58.3666 161.652 57.5299 161.254 56.6534C161.134 56.3347 160.975 55.9761 160.816 55.6574L161.134 55.3387C161.573 54.9004 162.051 54.4622 162.489 53.9841C163.964 54.4622 165.278 55.3387 166.553 56.2152C167.032 56.5339 167.51 56.8526 167.988 57.1713C166.952 58.4861 166.275 60.2391 165.956 62.3905C165.796 63.4263 165.717 64.502 165.717 65.5777L159.899 70.9562C159.859 70.996 159.82 71.0757 159.82 71.1554V92.1514C159.82 92.4701 159.581 92.7092 159.262 92.7092H147.587C147.308 92.7092 147.069 92.4701 147.069 92.1913V90.6375C147.069 89.9203 146.471 89.3227 145.754 89.3227H132.286C131.808 89.3227 131.41 89.7211 131.41 90.1992V99.2032H82.3204ZM198.39 54.3825C197.952 54.3825 197.513 54.6215 197.314 54.9801C196.995 55.5379 197.155 56.2152 197.712 56.6534C200.143 58.4462 201.737 60.1594 202.613 62.0717C203.53 64.0239 203.689 66.3745 203.012 69.004C202.932 69.3626 202.972 69.7211 203.211 70.0399C203.45 70.3586 203.849 70.518 204.247 70.518C204.805 70.518 205.243 70.1992 205.363 69.6415C206.16 66.4542 206 63.5458 204.805 60.996C203.45 58.0478 200.82 55.8964 198.988 54.5419C198.828 54.4622 198.629 54.3825 198.39 54.3825ZM202.653 8.04783C202.295 8.04783 201.976 8.16735 201.777 8.4064C201.338 8.88448 201.338 9.56177 201.777 10.1195C201.856 10.1992 201.896 10.2789 201.976 10.3586L202.095 10.5179C202.215 10.6773 202.374 10.8765 202.494 11.0757C202.813 11.514 203.131 11.9522 203.49 12.3905C204.247 13.3068 205.044 14.0239 205.921 14.4622C206.12 14.5419 206.319 14.6215 206.518 14.6215C206.957 14.6215 207.355 14.3825 207.554 14.0239C207.714 13.7052 207.754 13.3466 207.634 13.0279C207.554 12.749 207.355 12.51 207.076 12.3506C206.877 12.2311 206.638 12.1116 206.478 11.9921L206.359 11.8725L206.279 11.8327C206.239 11.7928 206.16 11.753 206.12 11.6733C205.801 11.3944 205.522 11.0757 205.203 10.6773L205.044 10.4781L204.885 10.2789C204.765 10.1195 204.486 9.72114 204.486 9.72114C204.207 9.32273 203.889 8.88448 203.53 8.48608C203.331 8.20719 203.012 8.04783 202.653 8.04783ZM180.181 10.1992C180.898 10.2789 181.655 10.3984 182.492 10.5578C184.484 10.9164 186.476 11.514 188.429 12.0319C189.504 12.3506 190.62 12.6295 191.736 12.9084C191.855 12.9482 191.935 12.9482 192.054 12.9482C192.732 12.9482 193.17 12.3905 193.25 11.8725C193.33 11.3546 193.09 10.757 192.413 10.5578C191.377 10.2789 190.381 9.92034 189.385 9.60161C188.947 9.44225 188.508 9.32273 188.07 9.16337C190.66 9.004 193.449 8.92432 196.796 8.92432C197.234 8.92432 197.593 8.72512 197.832 8.36655C198.071 7.96815 198.071 7.45022 197.832 7.05181C197.633 6.69325 197.234 6.49404 196.796 6.49404C192.054 6.49404 185.759 6.65341 179.503 7.7291C179.105 7.68926 178.706 7.68926 178.348 7.68926C177.79 7.68926 177.272 7.7291 176.754 7.76894C175.12 7.92831 173.686 8.28687 172.371 8.92432C172.092 9.04385 171.893 9.28289 171.813 9.60161C171.694 9.96018 171.733 10.3187 171.933 10.5976C172.172 10.9562 172.53 11.1952 172.969 11.1952C173.168 11.1952 173.367 11.1554 173.566 11.0359C174.562 10.5578 175.638 10.2789 176.913 10.1594C177.152 10.3586 177.431 10.4781 177.75 10.4781C177.83 10.4781 177.909 10.4781 178.029 10.4383C178.148 10.3984 178.507 10.3586 178.507 10.3586C178.666 10.4383 178.866 10.5179 179.065 10.5179C179.184 10.5179 179.304 10.4781 179.423 10.4383C179.623 10.3586 179.902 10.2789 180.181 10.1992Z" fill="#6B6B6D"/>
<path d="M201.578 3.74507L213.412 18.0479L208.829 19.8407L205.004 16.3347C204.885 16.255 204.765 16.1753 204.606 16.1753C204.566 16.1753 204.526 16.1753 204.486 16.1753L188.867 19.9602L183.368 20.8765C183.169 20.9164 183.049 21.0359 182.97 21.1953C182.89 21.3546 182.89 21.5538 182.97 21.7132L195.521 44.9403L191.018 46.8128C190.779 46.9323 190.62 47.1714 190.7 47.4502C190.74 47.7291 190.979 47.8885 191.258 47.8885H197.752C197.952 48.1275 198.191 48.2471 198.47 48.3267C198.509 48.8845 198.868 49.4024 199.506 49.6415C200.183 49.9204 200.86 50.0797 201.538 50.1993H201.617L201.737 50.2391C202.215 50.3586 202.773 50.4383 203.052 50.7172C203.251 50.8765 203.371 51.3148 203.45 51.6734L203.49 51.753C203.57 51.9921 203.61 52.271 203.689 52.51C203.769 52.8686 203.889 53.267 204.008 53.6654C204.526 55.2192 205.562 56.6534 207.116 57.9682C207.554 58.3666 208.032 58.7252 208.471 59.0439C210.224 60.2391 212.216 60.9562 214.328 61.1554V67.2511C214.328 67.5698 214.567 67.8088 214.886 67.8088H218.313C218.631 67.8088 218.87 67.5698 218.87 67.2511V64.3028C219.707 64.7809 220.584 65.2192 221.46 65.6176C221.859 65.8168 222.217 65.9762 222.616 66.1754C222.855 66.2949 223.094 66.3347 223.333 66.3347C223.811 66.3347 224.25 66.1355 224.528 65.7371C224.807 65.3785 224.887 64.9005 224.807 64.4622C224.728 64.0638 224.608 63.6654 224.528 63.267C224.489 63.0279 224.409 62.7491 224.369 62.51V62.4303C224.289 62.1514 224.249 61.8726 224.17 61.5937C224.05 61.275 223.851 60.7969 223.293 60.5578C223.054 60.4383 222.815 60.3985 222.616 60.3586C222.576 60.3586 222.536 60.3586 222.456 60.3188C221.859 60.1993 221.261 60.0797 220.703 60.0001C221.261 59.7212 221.779 59.3626 222.257 58.9244C222.297 58.9244 222.297 58.9244 222.337 58.9244C222.855 58.9642 223.373 59.004 223.891 59.0439C224.728 59.1236 225.564 59.2032 226.401 59.2032C227.437 59.2032 228.314 59.0837 229.15 58.8447C229.788 58.6455 230.266 58.0479 230.266 57.4104C230.266 56.8128 229.828 56.0558 229.111 55.9363C228.393 55.8168 227.597 55.7769 226.68 55.7769C225.963 55.7769 225.246 55.8168 224.568 55.8566C224.767 55.4981 224.927 55.0997 225.046 54.7013C225.206 54.2232 225.365 53.7451 225.485 53.2271C225.724 53.2271 225.923 53.2271 226.162 53.1873C226.481 53.1873 226.76 53.1873 226.999 53.1873C227.079 53.1873 227.198 53.1873 227.278 53.1873C227.477 53.1873 227.676 53.1873 227.836 53.2271C227.915 53.2271 227.995 53.2271 228.075 53.2271H228.154C228.194 53.2271 228.274 53.2271 228.314 53.2271C228.393 53.2271 228.473 53.2271 228.593 53.2271C228.872 53.2271 229.111 53.1475 229.31 53.0279C229.668 52.8287 229.908 52.4702 229.987 52.1116C230.067 51.6734 229.987 51.1953 229.748 50.8367C229.549 50.518 229.23 50.3188 228.872 50.2789C228.274 50.1993 227.636 50.1594 226.879 50.1594C226.521 50.1594 226.202 50.1594 225.843 50.1594C225.843 49.0837 225.764 48.0877 225.525 47.0917C226.202 46.7331 226.879 46.4144 227.557 46.0957C228.035 45.8566 228.553 45.6176 229.031 45.3785C229.39 45.2192 229.629 44.8606 229.748 44.4622C229.868 44.0638 229.788 43.6255 229.589 43.267C229.35 42.9084 228.911 42.9084 228.712 42.9084C227.517 42.9084 224.17 43.7052 222.935 44.1036C220.145 40.9961 216.4 40.6773 214.886 40.6773C213.77 40.6773 212.734 40.8367 212.137 41.1156C212.017 41.1554 211.937 41.275 211.858 41.3945H201.418V30.6375L205.602 25.7769L210.622 38.7252C210.702 38.9244 210.901 39.0837 211.14 39.0837C211.26 39.0837 211.379 39.0837 211.499 39.0837C215.005 39.0837 219.747 39.4821 223.253 39.8008C225.246 39.9602 226.839 40.1196 227.517 40.1196H230.465C231.183 40.1196 231.74 40.6773 231.74 41.3945V85.2989C231.74 90.3188 227.636 94.4224 222.616 94.4224H219.149C218.99 94.4224 218.831 94.3028 218.831 94.1036V90.3985C218.831 85.7769 215.085 82.0319 210.463 82.0319H191.855C191.815 82.0319 191.736 81.9921 191.736 81.9124V76.7331C191.736 76.6933 191.776 76.6136 191.855 76.6136H198.629C199.266 76.6136 199.745 76.0957 199.745 75.4981V69.004C199.745 68.8845 199.705 68.765 199.625 68.6455L195.083 62.6295C194.963 62.4702 194.804 62.3905 194.644 62.3905H181.376V60.757C182.013 60.9164 182.731 60.9961 183.528 60.9961C184.245 60.9961 185.002 60.9164 185.918 60.7969C188.269 60.4781 190.022 59.8407 191.297 58.8845C191.975 58.3666 192.134 57.6495 191.815 56.8925C191.656 56.5339 191.576 56.1355 191.497 55.6973C191.457 55.3785 191.377 55.0598 191.258 54.7411C191.058 54.1036 190.501 53.7052 189.823 53.7052C189.305 53.7052 188.827 53.9443 188.548 54.3427C188.309 54.7012 188.229 55.0997 188.349 55.5379C188.07 55.5777 187.831 55.7371 187.632 55.9363C187.393 56.1754 186.994 56.4144 186.556 56.5738C185.998 56.773 185.36 56.9323 184.603 57.0917C183.607 57.2909 182.531 57.3706 181.495 57.4901C181.456 57.4901 181.456 57.4901 181.416 57.4901V57.0917C181.416 56.8925 181.296 56.6933 181.137 56.6136C181.057 56.5738 180.938 56.5339 180.858 56.5339C180.778 56.5339 180.659 56.5738 180.579 56.6136L178.706 57.6096C178.388 57.5299 178.029 57.4901 177.71 57.4503C175.399 57.0518 173.008 56.6136 170.936 55.6574C170.777 55.5379 170.578 55.4582 170.379 55.3785C169.502 54.9005 168.665 54.3427 167.868 53.8248C166.753 53.0678 165.597 52.3108 164.322 51.753C164.322 51.5937 164.322 51.3945 164.242 51.2351C164.123 50.8367 163.884 50.518 163.525 50.3586C163.286 50.2391 163.047 50.1594 162.808 50.1594C162.29 50.1594 161.812 50.3985 161.533 50.8765C161.493 50.9562 161.413 51.0359 161.374 51.1156C161.334 51.1554 161.334 51.1953 161.294 51.2351L161.254 51.275C161.254 51.3148 161.214 51.3148 161.214 51.3546C161.174 51.3945 161.135 51.4343 161.135 51.4343C161.055 51.514 161.015 51.5937 160.935 51.6734C160.696 51.9522 160.457 52.2311 160.138 52.5499C159.939 52.7491 159.74 52.9483 159.541 53.1475C158.983 52.5499 158.345 52.0718 157.628 51.7132C156.552 51.1953 155.357 50.8765 154.122 50.8765C153.205 50.8765 152.289 51.0359 151.492 51.3546C151.372 50.2789 151.293 49.1236 151.213 47.8487C151.253 47.012 151.253 46.2152 151.253 45.4981C151.253 44.1833 151.213 42.8287 151.173 41.5538C151.173 41.3546 151.173 41.1554 151.173 40.9562C152.488 41.514 153.923 41.8327 155.277 42.1514H155.317C155.437 42.1913 155.556 42.1913 155.676 42.1913C156.393 42.1913 156.991 41.7132 157.15 41.0757C157.23 40.6773 157.15 40.2391 156.951 39.9204H159.62V46.6534C159.62 46.9323 159.859 47.1714 160.138 47.2112L180.858 49.3228H180.898C181.017 49.3228 181.177 49.2829 181.256 49.1634C181.376 49.0439 181.456 48.8845 181.456 48.7252V48.008H184.285C184.524 48.008 184.763 47.8487 184.842 47.6096C184.922 47.3706 184.803 47.0917 184.603 46.9722L156.433 29.004C156.632 28.6853 156.871 28.3267 157.19 28.008C157.628 27.5698 157.748 26.9722 157.509 26.4144C157.349 26.0558 157.11 25.7769 156.791 25.6176C158.186 22.4702 160.617 19.3228 163.924 16.3347C164.362 15.9363 164.521 15.3387 164.322 14.7809C164.083 14.1833 163.485 13.7451 162.848 13.7451C162.489 13.7451 162.131 13.8646 161.852 14.1435C156.991 18.5259 153.923 23.267 152.807 28.2471C152.847 27.1315 152.887 26.016 152.926 24.9403C153.046 21.2351 153.205 17.4104 153.086 13.6255C153.046 11.9522 152.926 10.2789 152.807 8.72515C152.847 8.68531 152.887 8.68531 152.926 8.64547C153.126 8.52595 153.484 8.20722 153.604 7.72913C153.683 7.33073 153.644 6.93232 153.444 6.57376C153.365 6.41439 153.285 6.29487 153.205 6.13551C153.165 6.05583 153.126 5.93631 153.086 5.85662C152.966 5.57774 152.727 5.3387 152.448 5.17933C152.09 4.98013 151.691 4.94029 151.412 4.94029C151.333 4.94029 151.253 4.94029 151.213 4.94029C151.014 4.94029 150.775 4.94029 150.575 4.94029C150.177 4.94029 149.779 5.09965 149.5 5.37854C149.221 5.65742 149.061 6.05583 149.061 6.45423C149.061 6.93232 149.141 7.33073 149.3 7.64945C149.3 7.68929 149.3 7.72913 149.34 7.76898C149.42 8.04786 149.579 8.2869 149.779 8.44627C150.336 13.9044 150.137 19.4821 149.938 24.8606C149.898 25.6973 149.898 26.4941 149.858 27.3307C148.185 28.5658 134.199 37.4104 121.807 45.259C117.185 48.1674 112.603 51.0757 108.459 53.7052C108.26 53.8248 108.14 54.1036 108.22 54.3427C108.3 54.5817 108.499 54.7411 108.778 54.7411H146.91C147.228 54.7411 147.468 54.502 147.468 54.1833V52.51C147.507 52.9084 147.746 53.267 148.025 53.506C148.225 55.2192 148.703 56.5339 149.5 57.6495C149.54 57.6893 149.579 57.769 149.619 57.8088C149.659 58.0479 149.739 58.2869 149.818 58.4861C150.536 60.5578 152.408 61.7132 154.201 62.5897C154.201 63.1475 154.201 63.7052 154.201 64.2232C154.201 65.8566 154.201 67.5698 154.44 69.2431C154.56 70.0797 155.158 70.6773 155.955 70.6773C156.393 70.6773 156.831 70.4781 157.11 70.1196C157.389 69.8008 157.509 69.4423 157.429 69.0837C157.23 67.4502 157.23 65.8168 157.19 64.1833C157.19 64.0638 157.19 63.9044 157.19 63.7849C157.469 64.024 157.787 64.1435 158.146 64.1435C158.505 64.1435 158.863 64.024 159.182 63.7451C159.421 63.5459 159.7 63.3467 159.939 63.1475C160.856 62.4303 161.852 61.6734 162.609 60.757C163.007 60.2789 163.206 59.5618 162.768 58.9244C162.25 58.1674 161.892 57.3307 161.533 56.4542C161.413 56.1754 161.294 55.9363 161.174 55.6574C161.214 55.6176 161.294 55.5379 161.334 55.4981C161.732 55.0997 162.17 54.7012 162.609 54.263C163.964 54.7411 165.159 55.5379 166.434 56.4144C166.832 56.6933 167.231 56.9323 167.629 57.2112C166.673 58.526 166.035 60.2789 165.717 62.3108C165.557 63.3068 165.478 64.3427 165.478 65.4184L159.74 70.7172C159.62 70.8367 159.541 70.9562 159.541 71.1156V92.1116C159.541 92.271 159.421 92.3905 159.262 92.3905H147.587C147.428 92.3905 147.348 92.271 147.348 92.1515V90.5977C147.348 89.7212 146.631 89.004 145.754 89.004H132.286C131.649 89.004 131.131 89.522 131.131 90.1594V98.9642H82.5994V90.9961C82.5994 89.9204 81.7228 89.004 80.6071 89.004H58.5726C57.9351 89.004 57.4171 89.522 57.4171 90.1594V91.8726C57.4171 92.1515 57.178 92.3905 56.8991 92.3905H49.0098C48.8504 92.3905 48.7308 92.271 48.7308 92.1116V82.4303C48.7308 82.271 48.8504 82.1515 49.0098 82.1515H50.0856C51.0817 82.1515 51.8786 81.3546 51.8786 80.3586V69.5618C51.8786 69.2431 52.1575 68.9642 52.4763 68.9642H53.3131C54.2693 68.9642 55.0662 68.1674 55.0662 67.2112V55.4981C55.0662 55.0598 55.4249 54.7013 55.8632 54.7013H63.3939C63.5533 54.7013 63.7127 54.6216 63.7924 54.5419C63.8721 54.4622 63.9518 54.263 63.9518 54.1036C62.9556 36.9323 62.2782 36.9323 61.5212 36.9323H54.9866C53.9506 36.9323 53.1138 36.0957 53.1138 35.0598V19.2032C53.1138 18.1674 53.9506 17.3307 54.9866 17.3307H64.7487C64.7885 17.3706 64.908 17.4901 65.0276 17.6495C65.1471 17.769 65.3065 17.8487 65.4659 17.8487C65.6253 17.8487 65.7846 17.769 65.9042 17.6495L70.7255 12.3108C70.8848 12.1514 70.9247 11.9124 70.8051 11.7132C70.6856 11.514 70.5262 11.3945 70.2872 11.3945H53.074V9.04388C53.074 6.13551 55.4647 3.74507 58.3734 3.74507H201.578ZM179.463 7.41041C179.065 7.37057 178.666 7.37057 178.308 7.37057C177.75 7.37057 177.232 7.41041 176.714 7.45025C175.08 7.60961 173.606 7.96818 172.212 8.64547C171.893 8.80483 171.614 9.12356 171.494 9.48212C171.375 9.88053 171.415 10.3586 171.614 10.7172C171.893 11.1953 172.371 11.4343 172.889 11.4343C173.128 11.4343 173.407 11.3945 173.606 11.275C174.523 10.8367 175.559 10.5578 176.754 10.4383C177.033 10.6375 177.352 10.757 177.67 10.757C177.79 10.757 177.87 10.757 177.989 10.7172C178.109 10.6773 178.268 10.6773 178.388 10.6375C178.587 10.7172 178.786 10.757 178.985 10.757C179.145 10.757 179.304 10.7172 179.463 10.6773C179.702 10.5977 179.942 10.518 180.181 10.4781C180.898 10.5578 181.615 10.6773 182.452 10.8367C184.444 11.1953 186.436 11.753 188.349 12.3108C189.425 12.6295 190.54 12.9084 191.656 13.1873C191.776 13.2271 191.935 13.2271 192.054 13.2271C192.772 13.2271 193.409 12.6694 193.529 11.9124C193.648 11.1554 193.21 10.4781 192.453 10.2789C191.457 10.0001 190.501 9.68133 189.544 9.32276C191.696 9.20324 194.087 9.1634 196.796 9.1634C197.633 9.1634 198.27 8.52595 198.27 7.64945C198.27 6.8128 197.633 6.13551 196.796 6.13551C192.054 6.21519 185.759 6.33471 179.463 7.41041ZM206.479 14.8208C207.036 14.8208 207.514 14.5419 207.793 14.0638C207.993 13.7052 208.032 13.2271 207.913 12.8287C207.793 12.4702 207.554 12.1913 207.236 11.9921C207.036 11.8726 206.837 11.7929 206.678 11.6335C206.638 11.5937 206.638 11.5937 206.598 11.5538H206.558L206.479 11.4742C206.439 11.4343 206.359 11.3945 206.319 11.3546C206.04 11.0757 205.721 10.7969 205.443 10.3985L205.363 10.3188L205.323 10.2789L205.283 10.1993L205.164 10.0001C205.044 9.84069 204.964 9.72117 204.845 9.5618L204.765 9.48212C204.486 9.08372 204.167 8.64547 203.809 8.20722C203.57 7.8885 203.171 7.72913 202.733 7.72913C202.295 7.72913 201.896 7.8885 201.617 8.16738C201.06 8.76499 201.06 9.60164 201.617 10.2391C201.697 10.3188 201.737 10.3985 201.817 10.4781L201.856 10.518L201.936 10.5977C202.056 10.757 202.175 10.9562 202.335 11.1156V11.1554C202.653 11.5538 202.972 12.0319 203.331 12.4702C204.088 13.4263 204.964 14.1435 205.841 14.5817C205.96 14.7411 206.239 14.8208 206.479 14.8208ZM204.287 70.8367C204.964 70.8367 205.522 70.3985 205.682 69.761C206.518 66.5339 206.319 63.5459 205.084 60.9164C203.689 57.9283 201.06 55.7371 199.187 54.3825C198.948 54.2232 198.709 54.1435 198.43 54.1435C197.912 54.1435 197.354 54.4622 197.075 54.9005C196.677 55.5777 196.876 56.4144 197.553 56.9323C199.944 58.6853 201.498 60.3985 202.374 62.271C203.291 64.1833 203.41 66.4542 202.733 69.004C202.613 69.4821 202.693 69.9204 202.972 70.2789C203.331 70.5977 203.769 70.8367 204.287 70.8367ZM148.025 39.761C148.025 42.1913 148.025 44.9005 148.145 47.5698C148.105 48.4064 148.025 49.1634 147.946 49.8407C147.866 50.0399 147.786 50.2391 147.786 50.4781V50.5578C147.667 51.0359 147.547 51.4343 147.428 51.7929C147.388 51.8726 147.388 51.9921 147.348 52.0718V39.761H148.025ZM201.856 3.14746H58.4133C55.1858 3.14746 52.556 5.77694 52.556 9.00403V11.9124H70.3669L65.5456 17.251C65.2666 16.9323 65.0674 16.7331 64.9877 16.7331H54.9866C53.6318 16.7331 52.5161 17.8487 52.5161 19.2032V35.02C52.5161 36.3746 53.6318 37.4901 54.9866 37.4901H61.561C62.3181 37.4901 62.9556 46.3746 63.4338 54.1036H55.903C55.1459 54.1036 54.5084 54.7013 54.5084 55.4981V67.2112C54.5084 67.8487 53.9904 68.4064 53.3131 68.4064H52.4763C51.8388 68.4064 51.3208 68.9244 51.3208 69.5618V80.3586C51.3208 81.0359 50.7629 81.5937 50.0856 81.5937H49.0098C48.5316 81.5937 48.173 81.9522 48.173 82.4303V92.1116C48.173 92.5499 48.5316 92.9483 49.0098 92.9483H56.939C57.5367 92.9483 58.0148 92.4702 58.0148 91.8726V90.1594C58.0148 89.8407 58.2937 89.5618 58.6125 89.5618H80.6469C81.4438 89.5618 82.0415 90.1993 82.0415 90.9562V99.4821H131.689V90.1196C131.689 89.8008 131.968 89.522 132.286 89.522H145.794C146.352 89.522 146.79 89.9602 146.79 90.518V92.0718C146.79 92.51 147.149 92.9084 147.627 92.9084H159.302C159.78 92.9084 160.138 92.5499 160.138 92.0718V71.0758L166.035 65.6176C166.035 64.502 166.115 63.4263 166.235 62.3108C166.514 60.3586 167.151 58.4463 168.426 56.9722C166.474 55.8168 164.76 54.263 162.569 53.5857C162.529 53.5857 162.489 53.5459 162.41 53.506C161.772 54.1833 161.135 54.8208 160.457 55.4582C161.055 56.6933 161.453 58.008 162.25 59.1634C162.489 59.522 162.37 60.0001 162.091 60.3188C161.135 61.4742 159.899 62.3108 158.704 63.2271C158.505 63.3865 158.266 63.506 158.027 63.506C157.788 63.506 157.588 63.4263 157.389 63.2271C157.11 62.9483 156.791 62.7092 156.512 62.4702C156.552 64.6614 156.473 66.8925 156.752 69.0837C156.831 69.6016 156.273 70.0399 155.795 70.0399C155.237 70.0399 154.919 69.6016 154.839 69.0837C154.56 66.773 154.64 64.4224 154.6 62.0718C154.52 62.0718 154.48 62.0319 154.401 61.9921C152.647 61.1554 150.854 60.0797 150.177 58.1674C150.097 57.9283 150.018 57.6495 149.978 57.3706C149.898 57.2909 149.858 57.251 149.779 57.1714C148.862 55.9363 148.504 54.502 148.384 53.0279C147.986 52.8287 147.707 52.3506 147.866 51.9522C148.025 51.514 148.185 51.0359 148.264 50.5578C148.264 50.518 148.264 50.4383 148.264 50.3985C148.264 50.2391 148.304 50.0797 148.384 49.9602C148.504 49.1634 148.583 48.3267 148.623 47.5299C148.504 44.7411 148.464 41.9522 148.504 39.1634H146.711V54.0638H108.579C125.353 43.4263 150.177 27.8088 150.217 27.4901C150.416 20.9961 150.815 14.502 150.137 8.00802C149.938 7.8885 149.779 7.68929 149.699 7.45025C149.699 7.41041 149.699 7.37057 149.659 7.33073C149.5 7.012 149.42 6.65344 149.42 6.29487C149.42 5.77694 149.858 5.3387 150.376 5.3387C150.575 5.3387 150.815 5.3387 151.014 5.3387C151.093 5.3387 151.133 5.3387 151.213 5.3387C151.452 5.3387 151.731 5.37854 151.97 5.49806C152.129 5.61758 152.289 5.77694 152.408 5.93631C152.448 6.01599 152.488 6.09567 152.528 6.17535C152.608 6.33471 152.687 6.53392 152.807 6.69328C152.926 6.93232 152.966 7.17137 152.887 7.41041C152.847 7.64945 152.647 7.84866 152.448 7.96818C152.329 8.04786 152.169 8.12754 152.05 8.16738C152.209 9.92037 152.329 11.6734 152.369 13.4263C152.528 18.6056 152.209 23.7849 152.05 28.9642H153.006C154.082 23.1873 157.748 18.2869 162.051 14.3825C162.25 14.2232 162.449 14.1435 162.688 14.1435C163.446 14.1435 164.083 15.0997 163.406 15.7371C160.298 18.5259 157.469 21.9124 155.875 25.8168C155.915 25.8168 155.915 25.8168 155.955 25.8168C156.672 25.8168 157.309 26.773 156.672 27.4104C156.234 27.8885 155.875 28.4064 155.556 28.9642L184.165 47.2112H180.778V48.5259L160.059 46.4144V39.2032H154.759C154.839 39.2431 154.879 39.2829 154.958 39.3228C155.038 39.3626 155.118 39.4024 155.198 39.4423C155.237 39.4423 155.277 39.4821 155.277 39.4821C155.277 39.4821 155.277 39.4821 155.317 39.4821C155.476 39.5618 155.636 39.6016 155.795 39.6813C156.313 39.8407 156.552 40.3188 156.433 40.8367C156.353 41.275 155.915 41.514 155.516 41.514C155.437 41.514 155.357 41.514 155.277 41.4742C153.604 41.1156 151.93 40.7172 150.416 39.9204C150.456 41.753 150.536 43.5459 150.536 45.3785C150.536 46.1355 150.536 46.9323 150.496 47.7291C150.576 49.0837 150.655 50.4383 150.815 51.7929C150.934 51.7929 151.093 51.8327 151.213 51.8726C152.09 51.4742 153.006 51.275 153.962 51.275C155.078 51.275 156.234 51.5538 157.19 52.0319C158.027 52.4702 158.744 53.0678 159.341 53.7849C159.7 53.4662 160.059 53.1076 160.377 52.7491C160.656 52.4702 160.935 52.1514 161.214 51.8726C161.294 51.7929 161.334 51.7132 161.413 51.6335C161.453 51.5538 161.573 51.4742 161.613 51.3945C161.573 51.4742 161.533 51.4742 161.533 51.4742C161.533 51.4742 161.533 51.4742 161.573 51.4343L161.613 51.3945C161.652 51.3546 161.692 51.3148 161.692 51.275C161.732 51.1953 161.812 51.1156 161.852 51.0359C162.051 50.757 162.33 50.5977 162.649 50.5977C162.808 50.5977 162.967 50.6375 163.127 50.7172C163.525 50.9164 163.724 51.5538 163.485 51.9522C165.836 52.8686 167.749 54.5817 169.98 55.7769C170.14 55.8168 170.299 55.8965 170.418 55.9762C172.889 57.1714 175.718 57.5299 178.388 58.0479C178.467 58.0479 178.507 58.0877 178.547 58.0877L180.659 56.9722V58.008C181.934 57.8885 183.209 57.769 184.484 57.5698C185.161 57.4503 185.878 57.2909 186.556 57.012C187.034 56.8526 187.512 56.5738 187.831 56.255C188.03 56.0558 188.229 55.9762 188.468 55.9762C188.628 55.9762 188.787 56.016 188.907 56.0957C188.867 55.8566 188.787 55.6176 188.707 55.3387C188.508 54.6216 189.066 54.1833 189.624 54.1833C189.983 54.1833 190.381 54.3825 190.501 54.8208C190.74 55.5777 190.74 56.3746 191.098 57.0518C191.337 57.5698 191.178 58.008 190.779 58.3267C189.345 59.4024 187.393 59.8805 185.679 60.1196C184.922 60.2391 184.165 60.3188 183.368 60.3188C182.452 60.3188 181.535 60.1993 180.659 59.8805V62.8287H194.485L199.027 68.8447V75.3387C199.027 75.6574 198.788 75.8965 198.47 75.8965H191.696C191.337 75.8965 191.018 76.2152 191.018 76.5738V81.753C191.018 82.1116 191.337 82.4303 191.696 82.4303H210.304C214.607 82.4303 218.113 85.9363 218.113 90.2391V93.9443C218.113 94.4224 218.512 94.8208 218.99 94.8208H222.456C227.796 94.8208 232.139 90.4781 232.139 85.1395V41.3945C232.139 40.3586 231.302 39.5618 230.306 39.5618H227.357C225.525 39.5618 216.878 38.5658 211.34 38.5658C211.22 38.5658 211.101 38.5658 210.981 38.5658L205.841 24.7012L200.94 30.4383V42.0718H212.575L212.455 41.753C212.894 41.5538 213.81 41.3546 214.966 41.3546C217.277 41.3546 220.504 42.1116 222.815 44.9004C223.214 44.7012 227.437 43.6255 228.752 43.6255C228.951 43.6255 229.111 43.6654 229.15 43.7052C229.429 44.1036 229.27 44.7809 228.832 44.9801C227.517 45.6176 226.162 46.1754 224.887 46.8925C225.246 48.1674 225.365 49.4821 225.285 50.8367C225.803 50.7969 226.361 50.7969 226.879 50.7969C227.517 50.7969 228.154 50.8367 228.792 50.9164C229.31 50.9961 229.549 51.6335 229.429 52.0718C229.39 52.3108 229.19 52.51 228.991 52.6295C228.832 52.7092 228.712 52.7491 228.553 52.7491C228.473 52.7491 228.393 52.7491 228.274 52.7092C228.314 52.7092 228.354 52.7092 228.354 52.7092C228.354 52.7092 228.154 52.6694 228.115 52.6694C228.035 52.6694 227.955 52.6694 227.875 52.6295C227.676 52.6295 227.477 52.5897 227.278 52.5897C227.198 52.5897 227.079 52.5897 226.999 52.5897C226.72 52.5897 226.441 52.5897 226.162 52.5897C225.803 52.5897 225.445 52.6295 225.046 52.6295C224.927 53.267 224.767 53.8646 224.528 54.4622C224.289 55.1395 223.971 55.8168 223.612 56.4144C224.648 56.3746 225.684 56.2949 226.72 56.2949C227.517 56.2949 228.274 56.3347 229.071 56.4542C229.469 56.5339 229.748 56.9722 229.748 57.3706C229.748 57.769 229.469 58.1674 229.071 58.2869C228.234 58.526 227.357 58.6056 226.481 58.6056C225.126 58.6056 223.771 58.4064 222.377 58.3267C222.257 58.3267 222.178 58.3267 222.058 58.3267C221.062 59.2829 219.827 59.9204 218.352 60.0797V60.4383C218.552 60.4383 218.711 60.4383 218.91 60.4383C220.066 60.4383 221.221 60.5977 222.377 60.8367C222.616 60.8765 222.855 60.9164 223.094 61.0359C223.413 61.1953 223.572 61.4343 223.652 61.753C223.732 62.0319 223.811 62.3108 223.851 62.5897C224.01 63.267 224.13 63.9044 224.289 64.5817C224.449 65.2192 223.931 65.7371 223.373 65.7371C223.214 65.7371 223.054 65.6973 222.935 65.6176C221.42 64.8606 219.827 64.1435 218.392 63.267V67.2112H214.966V60.5578C214.886 60.5977 214.766 60.5977 214.687 60.5977H214.647C212.575 60.4383 210.583 59.761 208.869 58.5658C208.391 58.2471 207.953 57.8885 207.554 57.5299C206.239 56.4144 205.124 55.0598 204.606 53.506C204.407 52.8686 204.287 52.2311 204.088 51.6335C203.968 51.1953 203.809 50.6375 203.49 50.3188C203.052 49.9204 202.335 49.8008 201.777 49.6813C201.099 49.522 200.422 49.4024 199.784 49.1236C199.306 48.9244 198.988 48.5259 199.147 47.9682C199.147 47.9283 199.187 47.8885 199.187 47.8487C199.107 47.8487 199.027 47.8088 198.908 47.8088C198.828 47.8088 198.749 47.769 198.669 47.769C198.43 47.7291 198.231 47.5299 198.111 47.3307H191.337L196.437 45.2192L183.567 21.4742L189.066 20.5578L204.765 16.8128L208.829 20.5578L214.448 18.3267L201.856 3.14746ZM179.503 7.96818C185.201 6.97216 191.018 6.73312 196.796 6.73312C197.991 6.73312 197.991 8.60563 196.796 8.60563C193.369 8.60563 189.983 8.68531 186.596 8.96419C188.508 9.52196 190.421 10.2789 192.333 10.8367C193.409 11.1554 193.09 12.6694 192.094 12.6694C192.015 12.6694 191.935 12.6694 191.855 12.6295C188.787 11.8726 185.759 10.8367 182.611 10.2391C181.854 10.0797 181.017 9.96021 180.22 9.88053C179.902 9.92037 179.623 10.0001 179.304 10.1196C179.224 10.1594 179.145 10.1594 179.065 10.1594C178.906 10.1594 178.706 10.0797 178.587 10.0001C178.388 10.0399 178.188 10.0797 177.989 10.1196C177.909 10.1196 177.83 10.1594 177.79 10.1594C177.471 10.1594 177.232 10.0001 177.073 9.80085C175.837 9.92037 174.602 10.1594 173.487 10.7172C173.327 10.7969 173.168 10.8367 173.008 10.8367C172.69 10.8367 172.411 10.6773 172.212 10.3985C171.972 10.0001 172.092 9.32276 172.53 9.12356C173.885 8.48611 175.319 8.12754 176.834 8.00802C177.352 7.96818 177.87 7.92834 178.388 7.92834C178.706 7.96818 179.105 7.96818 179.503 7.96818ZM206.479 14.263C206.319 14.263 206.16 14.2232 206 14.1435C205.084 13.6654 204.327 12.9483 203.649 12.1514C203.331 11.753 203.012 11.3148 202.693 10.8765C202.574 10.6773 202.414 10.518 202.295 10.3188C202.255 10.2789 202.215 10.2391 202.215 10.1993C202.135 10.1196 202.096 10.0399 202.016 9.92037C201.697 9.52196 201.657 9.00403 202.016 8.60563C202.175 8.44627 202.454 8.32674 202.693 8.32674C202.932 8.32674 203.171 8.40643 203.331 8.60563C203.649 9.00403 203.968 9.40244 204.287 9.84069C204.407 10.0399 204.566 10.1993 204.685 10.3985C204.765 10.4781 204.805 10.5578 204.885 10.6773C204.925 10.7172 204.964 10.757 205.004 10.7969C205.283 11.1554 205.602 11.514 205.961 11.8327C206.04 11.9124 206.12 11.9921 206.2 12.0319C206.239 12.0718 206.279 12.1116 206.359 12.1514C206.558 12.3108 206.797 12.4303 206.996 12.5499C207.475 12.7889 207.554 13.3865 207.315 13.8248C207.116 14.1036 206.797 14.263 206.479 14.263ZM204.287 70.2789C203.729 70.2789 203.131 69.8008 203.331 69.1236C203.928 66.773 203.968 64.2232 202.932 61.9921C201.856 59.7212 199.944 57.9283 197.912 56.4542C197.513 56.1355 197.314 55.6574 197.593 55.1793C197.752 54.9005 198.111 54.7013 198.43 54.7013C198.589 54.7013 198.749 54.7411 198.868 54.8208C201.179 56.4941 203.371 58.526 204.606 61.1554C205.841 63.8646 205.881 66.773 205.164 69.6016C205.004 70.0797 204.646 70.2789 204.287 70.2789Z" fill="#494949"/>
<path d="M7.65033 43.3466L25.5807 20L29.0871 22.3904L11.1169 45.7769L7.65033 43.3466Z" fill="#6B6B6D"/>
<path d="M25.6604 20.3585L28.6886 22.4701L11.077 45.4183L8.04877 43.3067L25.6604 20.3585ZM25.5409 19.6016L7.25186 43.4263L11.1965 46.1753L29.4856 22.3506L25.5409 19.6016Z" fill="#494949"/>
<path d="M28.3908 60.8521L20.7423 69.46L29.3512 77.1075L36.9996 68.4997L28.3908 60.8521Z" fill="#6B6B6D"/>
<path d="M28.4097 61.235L36.6179 68.5259L29.3262 76.7331L21.118 69.4422L28.4097 61.235ZM28.3699 60.4382L20.3211 69.4821L29.366 77.5299L37.4148 68.486L28.3699 60.4382Z" fill="#494949"/>
<path d="M43.8581 32.5194L38.5121 38.5352L44.5285 43.8805L49.8745 37.8648L43.8581 32.5194Z" fill="#6B6B6D"/>
<path d="M43.8697 32.9084L49.4879 37.8885L44.5072 43.506L38.889 38.5259L43.8697 32.9084ZM43.8299 32.1116L38.0921 38.5658L44.5471 44.3028L50.2848 37.8486L43.8299 32.1116Z" fill="#494949"/>
<path d="M32.8093 55.2268L29.7129 58.7112L31.7084 60.4841L34.8049 56.9998L32.8093 55.2268Z" fill="#6B6B6D"/>
<path d="M32.7927 55.6972L34.3467 57.0916L31.6372 60.1594L30.0832 58.7649L32.7927 55.6972ZM32.7529 54.9004L29.2863 58.8048L31.677 60.9562L35.1436 57.0518L32.7529 54.9004Z" fill="#494949"/>
<path d="M42.3691 44.471L39.2727 47.9553L41.2682 49.7283L44.3647 46.2439L42.3691 44.471Z" fill="#6B6B6D"/>
<path d="M42.3556 44.9003L43.9096 46.2948L41.2001 49.3625L39.6461 47.9681L42.3556 44.9003ZM42.3158 44.1035L38.8492 48.0079L41.2399 50.1593L44.7065 46.2549L42.3158 44.1035Z" fill="#494949"/>
<path d="M36.2324 58.6597L33.136 62.1445L35.1318 63.9175L38.2282 60.4327L36.2324 58.6597Z" fill="#6B6B6D"/>
<path d="M36.2194 59.0837L37.7734 60.4781L35.0639 63.5458L33.5099 62.1514L36.2194 59.0837ZM36.1796 58.2869L32.713 62.1912L35.1037 64.3426L38.5703 60.4383L36.1796 58.2869Z" fill="#494949"/>
<path d="M35.5102 52.1304L34.1606 53.6494L37.8246 56.9038L39.1741 55.3847L35.5102 52.1304Z" fill="#6B6B6D"/>
<path d="M35.5819 52.5497L38.8094 55.4183L37.8531 56.494L34.6256 53.6254L35.5819 52.5497ZM35.5022 51.7529L33.7888 53.6653L37.8929 57.2908L39.6063 55.3784L35.5022 51.7529Z" fill="#494949"/>
<path d="M38.0336 49.3587L36.6839 50.8777L40.3479 54.1325L41.6976 52.6135L38.0336 49.3587Z" fill="#6B6B6D"/>
<path d="M38.0124 49.7609L41.2399 52.6295L40.2836 53.7051L37.0562 50.8366L38.0124 49.7609ZM37.9726 48.9641L36.2592 50.8765L40.3633 54.502L42.0767 52.5896L37.9726 48.9641Z" fill="#494949"/>
<path d="M40.9452 56.7473L39.5955 58.2664L41.1147 59.6159L42.4644 58.0969L40.9452 56.7473Z" fill="#6B6B6D"/>
<path d="M40.9212 57.2111L41.997 58.1673L41.0407 59.243L39.9649 58.2868L40.9212 57.2111ZM40.8813 56.4143L39.168 58.3267L41.0805 60.0398L42.7939 58.1274L40.8813 56.4143Z" fill="#494949"/>
<path d="M43.3607 54.1299L42.0112 55.6489L43.5304 56.9983L44.8799 55.4793L43.3607 54.1299Z" fill="#6B6B6D"/>
<path d="M43.3916 54.542L44.4674 55.4982L43.5111 56.5738L42.4353 55.6177L43.3916 54.542ZM43.3119 53.7053L41.5985 55.6177L43.5111 57.3308L45.2245 55.4185L43.3119 53.7053Z" fill="#494949"/>
<path d="M45.7484 51.46L44.3987 52.979L45.9179 54.3286L47.2676 52.8095L45.7484 51.46Z" fill="#6B6B6D"/>
<path d="M45.7823 51.8327L46.8581 52.7889L45.9018 53.8646L44.826 52.9084L45.7823 51.8327ZM45.7425 51.0359L44.0291 52.9482L45.9417 54.6614L47.655 52.749L45.7425 51.0359Z" fill="#494949"/>
<path d="M48.1062 48.8257L46.7563 50.3445L48.2753 51.6943L49.6252 50.1754L48.1062 48.8257Z" fill="#6B6B6D"/>
<path d="M48.1332 49.2431L49.209 50.1993L48.2527 51.275L47.1769 50.3188L48.1332 49.2431ZM48.0933 48.4463L46.38 50.3586L48.2925 52.0718L50.0059 50.1594L48.0933 48.4463Z" fill="#494949"/>
<path d="M37.6012 99.9602C32.103 99.9602 27.5212 97.8495 24.4932 93.7475C21.784 90.1235 5.4089 67.7419 4.69175 66.4675C3.97459 65.3126 3.4168 63.8789 2.69965 62.2461C2.22154 61.0912 1.66375 59.6575 0.946599 58.2636C0.229443 56.8698 -1.0455 53.1262 2.22154 48.5464C5.13001 44.5639 32.6608 8.96057 34.892 6.29231C36.9239 3.98248 41.3464 0 47.8008 0H47.9203H196.332C200.077 0.119474 205.575 0.83632 209.918 5.73477C212.149 8.44285 219.4 17.3238 230.875 31.5014L231.353 32.0988C233.106 34.3289 234.859 36.9972 235.337 41.6965C235.935 46.3959 237.09 76.2246 237.09 80.2071C237.09 84.1896 236.054 86.1808 235.098 87.9331C234.978 88.172 234.859 88.411 234.739 88.6499C233.783 90.4022 232.389 93.3493 231.472 95.1015C230.516 96.9733 227.13 99.9203 221.751 100H37.7207L37.6012 99.9602ZM47.8008 1.27439C41.8245 1.27439 37.7207 4.89845 35.8482 7.12863C33.617 9.83672 6.12606 45.3206 3.29728 49.3031C0.388811 53.2855 1.4247 56.4317 2.14186 57.7459C2.85901 59.1398 3.4168 60.5735 4.01443 61.8479C4.73159 63.4807 5.28937 64.7551 5.887 65.8303C6.48463 66.8658 22.6206 89.0084 25.5689 92.9908C28.3977 96.7344 32.5811 98.7256 37.7606 98.7256H221.99C226.811 98.6061 229.719 96.137 230.556 94.5042C231.512 92.6324 232.907 89.8049 233.823 88.0526C233.942 87.8136 234.062 87.5747 234.182 87.3357C235.138 85.7029 235.935 83.9506 236.054 80.2071C236.054 75.6272 234.779 46.1569 234.301 41.816C233.823 37.4751 232.189 34.9263 230.556 32.9351L230.078 32.3377C215.655 14.4166 210.754 8.44285 209.121 6.57109C206.053 3.02668 202.069 1.39387 196.531 1.27439H48.1593C47.9203 1.27439 47.8008 1.27439 47.8008 1.27439Z" fill="#231F20"/>
<path d="M31.8763 91.9523C26.4972 91.9523 23.6681 89.8407 17.1335 80.8367C10.7981 72.271 3.58609 60.6375 3.46655 60.518L4.06423 60.1594C4.18377 60.2789 11.2762 71.9124 17.6116 80.4781C24.0666 89.2431 26.7362 91.2351 31.9161 91.2351H225.644C229.509 90.9961 232.418 89.1236 233.494 87.012L234.091 87.3706C232.936 89.7212 229.748 91.8327 225.644 91.9523H31.8763Z" fill="white"/>
<g opacity="0.33">
<path d="M229.15 43.2271C229.15 40.1992 227.875 37.3705 226.321 35.498C224.767 33.6255 206.757 11.2351 203.729 7.60958C200.701 3.98408 197.633 3.38647 192.931 3.38647H63.1548C58.5726 3.38647 54.8272 6.21516 52.8349 9.48209C50.7231 12.8685 29.0472 45.5379 27.5331 47.4104C26.2581 49.4024 25.1822 51.514 27.4136 54.3028C29.4058 56.8925 36.0999 64.0239 38.65 66.8526C41.2399 69.5618 43.5509 70.9562 49.0894 71.0757H222.098C226.202 70.9562 229.35 68.1674 229.589 64.3028C229.828 60.5578 229.15 46.255 229.15 43.2271ZM155.915 60.2391C152.05 60.2391 152.05 54.263 155.915 54.263C159.74 54.263 159.74 60.2391 155.915 60.2391Z" fill="white"/>
</g>
<path d="M49.209 71.5538C43.5908 71.4343 41.2399 70.0398 38.5304 67.2112C35.821 64.3825 29.2863 57.1315 27.2941 54.5817C24.9432 51.6733 26.019 49.3227 27.4136 47.3307C28.9277 45.2191 50.6036 12.5498 52.4763 9.4024C54.9467 5.53785 58.8117 3.18726 63.0353 3.18726H192.812C197.713 3.18726 200.781 3.90439 203.809 7.52988C206.837 11.1554 225.126 33.745 226.401 35.4183C228.154 37.7689 229.23 40.6773 229.23 43.3865C229.23 44.4223 229.35 46.7729 229.469 49.4821C229.708 55.0996 229.947 62.0319 229.828 64.4622C229.589 68.4462 226.321 71.4741 222.098 71.5936L49.209 71.5538ZM63.1548 3.74502C59.1703 3.74502 55.4249 5.9761 53.1935 9.72112C51.2012 12.8685 29.4059 45.5777 28.0113 47.6494C26.8558 49.4024 25.6604 51.3944 27.8917 54.1036C29.884 56.6932 36.4585 63.8247 39.1281 66.6534C41.7181 69.3626 43.9494 70.757 49.3285 70.757H222.337C226.202 70.6375 229.23 67.8486 229.469 64.1833C229.589 61.7132 229.35 54.4622 229.111 49.2032C228.991 46.494 228.872 44.1833 228.872 43.1076C228.872 39.3626 226.999 36.5339 226.162 35.6175C224.767 33.9841 206.598 11.3546 203.45 7.84861C200.542 4.46216 197.593 3.86455 192.891 3.74502H63.1548Z" fill="white"/>
<path d="M45.583 60.4382C47.8144 60.4382 49.6473 62.2709 49.6473 64.5019C49.6473 66.733 47.8144 68.5657 45.583 68.5657C43.3517 68.5657 41.5188 66.733 41.5188 64.5019C41.5188 62.2709 43.3119 60.4382 45.583 60.4382ZM45.583 60.0398C43.1126 60.0398 41.1204 62.0318 41.1204 64.5019C41.1204 66.9721 43.1126 68.9641 45.583 68.9641C48.0535 68.9641 50.0457 66.9721 50.0457 64.5019C50.0457 62.0318 48.0535 60.0398 45.583 60.0398Z" fill="white"/>
<path d="M35.5819 81.9521C38.0124 81.9521 40.0047 83.9442 40.0047 86.3744C40.0047 88.8047 38.0124 90.7967 35.5819 90.7967C33.1513 90.7967 31.159 88.8047 31.159 86.3744C31.159 83.9442 33.1115 81.9521 35.5819 81.9521ZM35.5819 81.5537C32.9122 81.5537 30.7606 83.7051 30.7606 86.3744C30.7606 89.0438 32.9122 91.235 35.5819 91.235C38.2515 91.235 40.4032 89.0836 40.4032 86.4143C40.4032 83.7449 38.2515 81.5537 35.5819 81.5537Z" fill="white"/>
<path d="M39.6062 11.2749C41.8376 11.2749 43.6705 13.1075 43.6705 15.3386C43.6705 17.5697 41.8376 19.4024 39.6062 19.4024C37.3749 19.4024 35.542 17.5697 35.542 15.3386C35.5819 13.1075 37.3749 11.2749 39.6062 11.2749ZM39.6062 10.8765C37.1358 10.8765 35.1436 12.8685 35.1436 15.3386C35.1436 17.8087 37.1358 19.8008 39.6062 19.8008C42.0766 19.8008 44.0689 17.8087 44.0689 15.3386C44.0689 12.8685 42.0766 10.8765 39.6062 10.8765Z" fill="white"/>
<path d="M210.344 78.8845C212.933 78.8845 215.045 80.996 215.045 83.5857C215.045 86.1753 212.933 88.2869 210.344 88.2869C207.754 88.2869 205.642 86.1753 205.642 83.5857C205.642 80.996 207.754 78.8845 210.344 78.8845ZM210.344 78.4861C207.514 78.4861 205.243 80.757 205.243 83.5857C205.243 86.4144 207.514 88.6853 210.344 88.6853C213.173 88.6853 215.444 86.4144 215.444 83.5857C215.444 80.757 213.133 78.4861 210.344 78.4861Z" fill="white"/>
<path d="M210.622 17.1316C213.053 17.1316 215.045 19.1236 215.045 21.5539C215.045 23.9841 213.053 25.9762 210.622 25.9762C208.192 25.9762 206.2 23.9841 206.2 21.5539C206.2 19.1236 208.192 17.1316 210.622 17.1316ZM210.622 16.7332C207.953 16.7332 205.801 18.8845 205.801 21.5539C205.801 24.2232 207.953 26.3746 210.622 26.3746C213.292 26.3746 215.444 24.2232 215.444 21.5539C215.444 18.8845 213.292 16.7332 210.622 16.7332Z" fill="white"/>
<path d="M156.567 54.5019C158.161 54.5019 159.436 55.7768 159.436 57.3704C159.436 58.9641 158.161 60.239 156.567 60.239C154.973 60.239 153.698 58.9641 153.698 57.3704C153.698 55.8167 154.973 54.5019 156.567 54.5019ZM156.567 54.1035C154.774 54.1035 153.3 55.5776 153.3 57.3704C153.3 59.1633 154.774 60.6374 156.567 60.6374C158.36 60.6374 159.835 59.1633 159.835 57.3704C159.835 55.5776 158.4 54.1035 156.567 54.1035Z" fill="white"/>
<path d="M161.134 61.9123C163.087 61.9123 164.641 63.5059 164.641 65.4183C164.641 67.3705 163.047 68.9243 161.134 68.9243C159.182 68.9243 157.628 67.3307 157.628 65.4183C157.628 63.4661 159.182 61.9123 161.134 61.9123ZM161.134 61.5139C158.983 61.5139 157.23 63.2669 157.23 65.4183C157.23 67.5697 158.983 69.3227 161.134 69.3227C163.286 69.3227 165.039 67.5697 165.039 65.4183C165.079 63.2669 163.326 61.5139 161.134 61.5139Z" fill="white"/>
<path d="M172.49 61.9123C174.443 61.9123 175.997 63.5059 175.997 65.4183C175.997 67.3705 174.403 68.9243 172.49 68.9243C170.538 68.9243 168.984 67.3307 168.984 65.4183C168.984 63.4661 170.578 61.9123 172.49 61.9123ZM172.49 61.5139C170.339 61.5139 168.586 63.2669 168.586 65.4183C168.586 67.5697 170.339 69.3227 172.49 69.3227C174.642 69.3227 176.395 67.5697 176.395 65.4183C176.435 63.2669 174.682 61.5139 172.49 61.5139Z" fill="white"/>
<path d="M7.3452 48.2765L7.08377 48.5771L16.3144 56.602L16.5759 56.3013L7.3452 48.2765Z" fill="white"/>
<path d="M32.3591 19.4424L32.095 19.7407L40.7188 27.371L40.9829 27.0726L32.3591 19.4424Z" fill="white"/>
<path d="M109.544 84.3269C106.947 84.3269 104.271 84.3269 101.674 84.3269V83.3685H102.633C102.633 82.8893 102.633 81.851 102.633 81.3718H103.592C103.592 80.8926 103.592 79.8543 103.592 79.3751H104.55C104.55 78.5365 104.55 77.2586 104.55 76.46C104.071 76.46 103.032 76.46 102.553 76.46C102.553 76.9392 102.553 77.9774 102.553 78.4566H101.594C101.594 78.9359 101.594 79.9741 101.594 80.4533H100.635C100.635 80.9325 100.635 81.9708 100.635 82.45H99.6766C99.6766 82.9292 99.6766 83.9675 99.6766 84.4467H98.7178C98.7178 84.9259 98.7178 85.9642 98.7178 86.4434C102.593 86.4434 106.588 86.4434 110.463 86.4434V85.485H111.422V84.3269C111.062 84.3269 110.103 84.3269 109.544 84.3269Z" fill="#AFAFAF"/>
<path d="M118.453 80.4534V79.495H119.412C119.412 78.6564 119.412 77.3785 119.412 76.5798C118.932 76.5798 117.894 76.5798 117.414 76.5798C117.414 77.059 117.414 78.0973 117.414 78.5765H116.455C116.455 79.0557 116.455 80.094 116.455 80.5732H115.497C115.497 81.0524 115.497 82.0907 115.497 82.5699H114.538C114.538 83.0491 114.538 84.0874 114.538 84.5666H113.619C113.619 85.0458 113.619 86.0841 113.619 86.5633C114.098 86.5633 115.137 86.5633 115.616 86.5633V85.6049H116.575C116.575 85.1257 116.575 84.0874 116.575 83.6082H117.534C117.534 83.129 117.534 82.0907 117.534 81.6115H118.493L118.453 80.4534Z" fill="#AFAFAF"/>
<path d="M149.933 79.3751H150.892V78.4566H151.851C151.851 77.9774 151.851 76.9392 151.851 76.46C147.257 76.46 142.702 76.46 138.108 76.46C138.108 76.9392 138.108 77.9774 138.108 78.4566H137.149C137.149 78.9359 137.149 79.9741 137.149 80.4533H136.191C136.191 80.9325 136.191 81.9708 136.191 82.45H135.152C135.152 82.9292 135.152 83.9675 135.152 84.4467H134.193C134.193 84.9259 134.193 85.9642 134.193 86.4434C134.672 86.4434 135.711 86.4434 136.191 86.4434V85.485H137.149C137.149 85.0058 137.149 83.9675 137.149 83.4883H138.108V82.5299C141.384 82.5299 144.7 82.5299 147.976 82.5299V81.5715H148.934V80.6131H149.893V79.3352L149.933 79.3751ZM147.936 79.3751H146.977V80.3335C144.38 80.3335 141.704 80.3335 139.107 80.3335V79.3751H140.066V78.4566C142.662 78.4566 145.339 78.4566 147.936 78.4566V79.3751Z" fill="#AFAFAF"/>
<path d="M134.193 79.3751H135.152V78.4566H136.111C136.111 77.9774 136.111 76.9392 136.111 76.46C131.516 76.46 126.962 76.46 122.368 76.46C122.368 76.9392 122.368 77.9774 122.368 78.4566H121.409C121.409 78.9359 121.409 79.9741 121.409 80.4533H120.45C120.45 80.9325 120.45 81.9708 120.45 82.45H119.492C119.492 82.9292 119.492 83.9675 119.492 84.4467H118.533C118.533 84.9259 118.533 85.9642 118.533 86.4434C119.012 86.4434 120.051 86.4434 120.53 86.4434V85.485H121.489C121.489 85.0058 121.489 83.9675 121.489 83.4883H122.448V82.5299C125.724 82.5299 129.04 82.5299 132.315 82.5299V81.5715H133.274V80.6131H134.233V79.3751H134.193ZM132.196 79.3751H131.237V80.3335C128.64 80.3335 125.963 80.3335 123.367 80.3335V79.3751H124.325V78.4566C126.922 78.4566 129.599 78.4566 132.196 78.4566V79.3751Z" fill="#AFAFAF"/>
<path d="M166.592 78.4564V77.498H167.551V76.5396C162.957 76.5396 158.403 76.5396 153.808 76.5396C153.808 77.0188 153.808 78.057 153.808 78.5362H152.85C152.85 79.0154 152.85 80.0537 152.85 80.5329H151.891C151.891 81.0121 151.891 82.0504 151.891 82.5296H150.932C150.932 83.0088 150.932 84.0471 150.932 84.5263H149.973C149.973 85.0055 149.973 86.0438 149.973 86.523C154.208 86.523 158.562 86.523 162.757 86.523V85.5646H163.716V84.2867C160.2 84.2867 156.445 84.2867 152.929 84.2867V83.3283H153.888V82.4498C156.805 82.4498 159.761 82.4498 162.677 82.4498V81.4913H163.636V80.5329C160.72 80.5329 157.763 80.5329 154.847 80.5329V79.5745H155.806V78.4564C159.441 78.4564 163.077 78.4564 166.592 78.4564Z" fill="#AFAFAF"/>
<path d="M99.7964 78.4564V77.498H100.755V76.5396C95.8414 76.5396 90.8876 76.5396 85.9738 76.5396C85.9738 77.0188 85.9738 78.057 85.9738 78.5362H85.015C85.015 79.0154 85.015 80.0537 85.015 80.5329H84.0562C84.0562 81.0121 84.0562 82.0504 84.0562 82.5296H83.0975C83.0975 83.0088 83.0975 84.0471 83.0975 84.5263H82.1387C82.1387 85.0055 82.1387 86.0438 82.1387 86.523H81.1C81.1 87.0022 81.1 88.0405 81.1 88.5197C81.5794 88.5197 82.6181 88.5197 83.0975 88.5197V87.5613H84.0562C84.0562 87.0821 84.0562 86.0438 84.0562 85.5646H85.015C85.015 85.0854 85.015 84.0471 85.015 83.5679H85.9738V82.6095C88.8901 82.6095 91.8464 82.6095 94.7627 82.6095V81.6511H95.7215V80.6927C92.8052 80.6927 89.8489 80.6927 86.9326 80.6927V79.7343H87.8914V78.4564C91.9263 78.4564 95.9213 78.4564 99.7964 78.4564Z" fill="#AFAFAF"/>
<path d="M183.411 76.46C178.817 76.46 174.263 76.46 169.668 76.46C169.668 76.9392 169.668 77.9774 169.668 78.4566H168.71C168.71 78.9359 168.71 79.9741 168.71 80.4533H167.751C167.751 80.9325 167.751 81.9708 167.751 82.45H166.792C166.792 82.9292 166.792 83.9675 166.792 84.4467H165.633C165.633 84.9259 165.633 85.9642 165.633 86.4434C166.113 86.4434 167.152 86.4434 167.631 86.4434V85.485H168.59C168.59 85.0058 168.59 83.9675 168.59 83.4883H169.548V82.5299C171.786 82.5299 174.143 82.5299 176.46 82.5299V83.4883H177.419V84.3269H178.377V85.2853H179.336V86.2437H180.295V87.2021H181.254V88.1606C181.733 88.1606 182.772 88.1606 183.251 88.1606C183.251 87.6814 183.251 86.6431 183.251 86.1639H182.292V85.2055H181.334V84.3669H180.335V83.4084H179.376C179.376 82.9292 179.376 81.891 179.376 81.4117H180.335V80.4533H181.294V79.4949H182.252V78.4566H183.211V77.4982H184.17V76.5398H183.451L183.411 76.46ZM179.416 79.3751H178.457V80.3335C175.861 80.3335 173.184 80.3335 170.587 80.3335V79.3751H171.546V78.4566C174.143 78.4566 176.819 78.4566 179.416 78.4566V79.3751Z" fill="#AFAFAF"/>
<g opacity="0.33">
<path d="M224.833 46.3615C227.752 50.1052 225.792 59.2256 219.314 60.3009H180.763C167.487 60.1814 153.97 49.3087 154.09 33.7363C154.21 18.164 167.727 8.20728 181.123 8.20728C193.36 8.32676 200.879 16.7701 201.558 17.8056C203.798 20.7129 222.273 43.0957 224.833 46.3615Z" fill="white"/>
</g>
<path d="M180.763 60.659C174.045 60.659 167.247 57.8313 162.208 53.0521C156.689 47.9144 153.73 40.9845 153.73 33.6165C153.85 17.5663 167.967 7.729 181.003 7.729H181.123C194.16 7.84848 201.798 17.3273 201.798 17.4468C202.838 18.8407 207.677 24.5758 212.596 30.7888C217.994 37.4797 223.633 44.3698 225.073 46.1222C226.712 48.1135 226.952 51.8573 225.673 55.0036C224.513 58.0304 222.153 60.0218 219.314 60.4997L180.763 60.659ZM181.003 8.44589C168.326 8.44589 154.57 18.0442 154.45 33.6165C154.45 40.7455 157.369 47.5559 162.688 52.4547C167.727 57.1542 174.325 59.8226 180.803 59.8226H219.354C221.834 59.3447 223.953 57.5923 225.113 54.685C226.272 51.7776 226.072 48.3525 224.633 46.4806C223.233 44.7282 217.715 37.7983 212.156 31.1472C207.117 25.0537 202.398 19.1992 201.358 17.8052C201.198 17.6857 193.8 8.44589 181.003 8.44589Z" fill="white"/>
<path d="M215.555 42.7371C220.594 42.7371 223.673 46.8392 223.673 50.583C223.673 54.2072 221.074 58.0704 215.915 58.0704C210.996 57.9509 207.797 53.9683 207.797 50.2245C207.917 46.4808 211.076 42.8565 215.555 42.7371Z" fill="#AFAFAF"/>
<path d="M216.035 58.6676H215.915C213.555 58.6676 211.316 57.7118 209.676 56.0789C208.157 54.446 207.317 52.3352 207.317 50.3438C207.437 46.6001 210.596 42.4979 215.675 42.3784C218.154 42.3784 220.394 43.3343 222.033 45.0866C223.433 46.6001 224.273 48.7109 224.273 50.8217C224.273 52.9326 223.433 55.0434 221.913 56.5568C220.394 57.8313 218.394 58.6676 216.035 58.6676ZM215.675 43.3343C211.196 43.3343 208.397 46.9585 208.277 50.2243C208.277 52.0962 208.997 53.8486 210.396 55.2425C211.796 56.7559 213.795 57.5923 215.915 57.5923C218.034 57.5923 219.914 56.9949 221.194 55.601C222.473 54.3265 223.193 52.4546 223.193 50.5828C223.193 48.7109 222.473 46.9585 221.194 45.5646C220.274 44.6087 218.514 43.3343 215.675 43.3343Z" fill="#231F20"/>
<path d="M181.086 10.0793C195.49 10.3184 206.202 22.1532 206.202 33.988C206.082 46.4206 196.172 58.1358 181.768 58.1358C167.365 58.0163 155.81 47.3769 155.931 33.4302C156.091 20.0413 167.766 9.84023 181.086 10.0793Z" fill="#AFAFAF"/>
<path d="M182.009 58.4544H181.889C167.044 58.3349 155.489 47.3369 155.57 33.2706C155.57 27.0543 158.177 21.1967 162.631 16.7735C167.485 12.0715 174.186 9.52124 181.167 9.52124C196.372 9.76033 206.884 22.5116 206.764 33.8683C206.683 45.7828 197.255 58.4544 182.009 58.4544ZM180.605 10.5573C174.105 10.5573 167.887 13.0279 163.273 17.451C158.9 21.6748 156.452 27.2934 156.452 33.2706C156.332 46.7391 167.526 57.4184 181.809 57.5379H181.929C196.573 57.5379 205.64 45.3445 205.64 33.9878C205.64 23.2289 195.61 10.9159 181.006 10.6768C180.966 10.5573 180.846 10.5573 180.605 10.5573Z" fill="#231F20"/>
<path d="M184.722 46.4807C184.403 46.4807 183.083 46.4807 181.803 46.4807C180.284 46.4807 178.644 46.4807 178.164 46.4807C177.684 46.4807 177.444 46.7197 177.324 46.8392C177.084 47.0383 177.204 47.5162 177.444 47.9941L178.044 49.0296C179.244 51.021 180.523 53.1318 180.763 53.3708C181.003 53.7292 181.243 53.8487 181.603 53.8487C181.803 53.8487 182.163 53.7292 182.363 53.4106C182.603 53.0522 183.683 51.1803 184.722 49.3084C185.202 48.6314 185.442 48.034 185.562 47.9145C185.802 47.6755 185.802 47.1976 185.682 46.9586C185.562 46.8392 185.322 46.4807 184.722 46.4807ZM185.162 47.7154C185.042 47.9543 184.682 48.3924 184.323 49.1093C183.483 50.5032 182.203 52.7335 181.963 53.092C181.963 53.2115 181.843 53.3309 181.723 53.3309C181.603 53.3309 181.483 53.2115 181.363 53.092C181.123 52.853 179.484 50.1448 178.644 48.7509L178.044 47.795C177.924 47.556 177.924 47.3171 177.924 47.1976C177.924 47.0781 177.924 47.0781 178.044 47.0781C178.644 47.0781 180.164 47.0781 181.883 47.2374C183.283 47.2374 184.443 47.2374 184.802 47.2374C184.922 47.2374 185.162 47.2374 185.162 47.3569C185.282 47.4764 185.282 47.5959 185.162 47.7154Z" fill="#231F20"/>
<path d="M166.967 29.1161C166.647 28.8771 166.047 29.1161 165.687 29.355L164.407 30.0719C163.008 30.9083 160.768 32.0633 160.408 32.3022C159.928 32.5412 159.689 32.8996 159.689 33.2581C159.689 33.497 159.809 33.8555 160.288 34.0944L160.888 34.4529C163.248 35.8468 165.807 37.2408 166.167 37.3602C166.527 37.4797 166.647 37.4797 166.887 37.4797C167.007 37.4797 167.247 37.4797 167.087 37.2408C167.327 37.1213 167.447 36.7628 167.447 36.4044V35.9265C167.327 34.5325 167.327 30.7888 167.327 30.0719C167.327 29.9524 167.447 29.355 166.967 29.1161ZM167.007 36.8027C167.007 36.9222 167.007 37.0416 167.007 37.0416C167.007 37.0416 166.887 37.0416 166.527 36.9222C166.207 36.723 162.648 34.7317 161.368 34.0148L160.768 33.6563C160.648 33.5369 160.528 33.5369 160.528 33.4174C160.528 33.2979 160.648 33.1784 160.888 33.0589C161.248 32.82 163.368 31.665 164.887 30.8286L166.167 30.1117C166.527 29.8728 166.647 29.8728 166.767 29.8728C166.887 29.8728 166.887 29.9923 166.887 30.4702C166.887 31.1871 167.007 34.9308 167.007 36.3247V36.8027Z" fill="#231F20"/>
<path d="M201.998 32.5414L201.758 32.422C200.839 31.8644 197.439 29.873 196.84 29.5146C196.16 29.1561 195.68 29.0765 195.32 29.2756C194.96 29.4748 194.84 29.8332 194.84 30.3111C194.72 30.9085 194.84 32.7804 194.84 34.2938C194.84 35.2497 194.84 36.0462 194.84 36.4046C194.84 37.0021 195.08 37.241 195.32 37.3605C195.44 37.48 195.68 37.48 195.8 37.48C196.04 37.48 196.28 37.48 196.6 37.3605C197.039 37.1614 201.158 34.8116 201.878 34.3336C202.478 33.9752 202.598 33.6168 202.598 33.3778C202.598 33.0194 202.358 32.7804 201.998 32.5414ZM201.318 33.6168C200.639 34.0549 196.52 36.4046 196.04 36.6436C195.8 36.7631 195.68 36.8826 195.56 36.7631C195.44 36.7631 195.44 36.5241 195.44 36.4046C195.44 36.0462 195.44 35.2497 195.44 34.2938C195.44 32.7804 195.44 31.028 195.44 30.3111C195.44 30.0722 195.44 29.873 195.44 29.8332C195.44 29.7137 195.8 29.8332 196.28 30.0722C196.84 30.4306 200.239 32.3025 201.198 32.8999L201.438 33.0194C201.558 33.1388 201.678 33.1388 201.678 33.2583C201.678 33.2583 201.558 33.4973 201.318 33.6168Z" fill="#231F20"/>
<path d="M177.604 20.4738H178.164C179.564 20.4738 183.923 20.4738 184.283 20.4738C184.643 20.4738 185.002 20.2747 185.002 19.9561C185.122 19.6375 185.122 19.279 184.882 18.9206C184.643 18.7214 183.843 17.2877 183.003 16.0132C182.323 14.8184 181.603 13.7829 181.483 13.5439C181.243 13.066 181.003 12.9465 180.643 12.9465C180.284 12.9465 180.044 13.305 179.684 13.7829C179.444 14.2608 178.884 15.3361 178.164 16.3716C177.484 17.5665 176.764 18.602 176.644 18.9604C176.405 19.518 176.524 19.8764 176.644 19.9959C176.764 20.3543 177.124 20.4738 177.604 20.4738ZM177.284 19.2392C177.404 18.8807 178.084 17.8054 178.804 16.6504C179.364 15.5751 180.084 14.5396 180.324 14.0617C180.563 13.7032 180.803 13.5838 180.803 13.5838C180.803 13.5838 180.923 13.5838 181.043 13.8227C181.163 14.0617 181.843 15.137 182.563 16.292C183.403 17.6859 184.203 18.9604 184.443 19.3188C184.563 19.4383 184.682 19.5578 184.563 19.6773C184.563 19.7968 184.443 19.7968 184.323 19.7968C184.083 19.7968 180.923 19.7968 178.204 19.7968H177.604C177.484 19.7968 177.364 19.7968 177.164 19.5976C177.164 19.4782 177.164 19.3587 177.284 19.2392Z" fill="#231F20"/>
<path d="M219.994 48.4321C219.274 47.7551 218.474 47.2771 217.634 47.2771H213.995V46.0027L210.836 48.233L213.995 50.3438V49.1888H217.754C218.114 49.1888 218.354 49.4278 218.594 49.7862C218.714 50.1049 218.834 50.5828 218.834 50.8217C218.834 51.3793 218.394 52.3352 217.674 52.3352H213.435V54.0876H217.914C218.714 54.0876 219.434 53.7291 219.994 53.0122C220.594 52.4148 220.834 51.6183 220.834 50.6624C220.834 49.9456 220.594 49.149 219.994 48.4321ZM219.554 52.5343C219.074 53.1317 218.514 53.3707 217.914 53.3707H214.155L214.275 52.6538H217.914C218.954 52.6538 219.674 51.4988 219.674 50.543C219.674 50.304 219.674 49.7464 219.314 49.149C219.074 48.5516 218.514 48.1932 217.914 48.1932H213.555V48.7906L212.276 47.9542L213.555 46.9984V47.7152H217.794C218.514 47.7152 219.074 48.0737 219.554 48.6711C220.034 49.2685 220.274 49.9456 220.274 50.543C220.274 51.3793 220.034 52.0564 219.554 52.5343Z" fill="#231F20"/>
<path d="M181.256 25.1333C177.692 25.1333 172.646 27.7171 172.525 33.3219C172.405 35.6672 173.246 37.774 174.768 39.2845C176.45 40.954 178.893 41.9875 181.496 41.9875C183.819 41.9875 185.942 41.0732 187.384 39.523C188.906 38.0125 189.747 35.9057 189.747 33.6797C189.867 31.4536 188.906 29.3469 187.263 27.7171C185.621 26.0873 183.499 25.1333 181.256 25.1333ZM186.783 38.8472C185.501 40.2385 183.619 40.954 181.617 40.954C179.374 40.954 177.131 40 175.609 38.4895C174.328 37.2174 173.607 35.3492 173.607 33.3617C173.607 28.3531 178.092 26.1271 181.256 26.1271C183.138 26.2066 185.141 26.9221 186.663 28.4723C188.064 29.8636 188.906 31.7319 188.906 33.7194C188.906 35.7069 188.064 37.4559 186.783 38.8472Z" fill="#231F20"/>
<path d="M156.649 56.4373C156.049 56.4373 155.49 56.9153 155.49 57.5926C155.49 58.1902 156.089 58.6285 156.769 58.6285C157.489 58.6285 157.809 58.0309 157.809 57.5926C157.729 57.1544 157.249 56.4373 156.649 56.4373Z" fill="white"/>
<path d="M156.649 55.8401C155.729 55.8401 154.89 56.6366 154.89 57.5925C154.77 58.5085 155.729 59.2254 156.769 59.2254C157.849 59.2254 158.409 58.4288 158.409 57.712C158.409 56.7959 157.689 55.8401 156.649 55.8401ZM156.769 58.628C156.089 58.628 155.49 58.1899 155.49 57.5925C155.49 56.9154 156.049 56.4375 156.649 56.4375C157.249 56.4375 157.729 57.1544 157.809 57.5925C157.809 58.0306 157.489 58.628 156.769 58.628Z" fill="#231F20"/>
<path d="M143.881 62.5722H62.1986C58.3336 62.5722 55.1858 59.4248 55.1858 55.5603V12.612C55.1858 8.74751 58.3336 5.6001 62.1986 5.6001H143.881C147.746 5.6001 150.894 8.74751 150.894 12.612V55.5603C150.894 59.4248 147.746 62.5722 143.881 62.5722ZM62.1986 5.9985C58.5726 5.9985 55.5842 8.94671 55.5842 12.612V55.5603C55.5842 59.1858 58.5328 62.1738 62.1986 62.1738H143.881C147.507 62.1738 150.496 59.2256 150.496 55.5603V12.612C150.496 8.98655 147.547 5.9985 143.881 5.9985H62.1986Z" fill="white"/>
<path d="M142.628 60.6068H63.5749C60.4271 60.6068 57.7177 58.0172 57.7177 54.7503V13.9933C57.7177 10.8459 60.3076 8.13672 63.5749 8.13672H142.628C145.776 8.13672 148.485 10.7264 148.485 13.9933V54.7503C148.485 58.0172 145.935 60.6068 142.628 60.6068Z" fill="#686868"/>
<path d="M142.628 60.9254H63.5749C60.0685 60.9254 57.12 58.0967 57.12 54.4712V13.7142C57.12 10.2082 59.949 7.26001 63.5749 7.26001H142.628C146.134 7.26001 149.083 10.1684 149.083 13.7142V54.4712C149.083 58.0967 146.174 60.9254 142.628 60.9254ZM63.5749 8.57475C60.6662 8.57475 58.3154 10.9253 58.3154 13.8337V54.5907C58.3154 57.4991 60.6662 59.8497 63.5749 59.8497H142.628C145.537 59.8497 147.888 57.4991 147.888 54.5907V13.7142C147.888 10.8058 145.537 8.45523 142.628 8.45523H63.5749V8.57475Z" fill="#231F20"/>
<path d="M142.695 57.5H64.0485C62.1693 57.5 60.65 55.9852 60.65 54.1116V13.9285C60.65 12.0549 62.1693 10.54 64.0485 10.54H142.575C144.454 10.54 145.973 12.0549 145.973 13.9285V54.1116C146.093 55.9852 144.574 57.5 142.695 57.5Z" fill="#AFAFAF"/>
<path d="M142.429 57.8577H64.053C61.9412 57.8577 60.3076 56.2242 60.3076 54.1126V13.9533C60.3076 11.8417 61.9412 10.2083 64.053 10.2083H142.309C144.421 10.2083 146.055 11.8417 146.055 13.9533V54.1126C146.055 56.2242 144.381 57.8577 142.429 57.8577ZM64.053 10.8855C62.4194 10.8855 61.0248 12.28 61.0248 13.9134V54.0728C61.0248 55.7063 62.4194 57.1007 64.053 57.1007H142.309C143.943 57.1007 145.338 55.7063 145.338 54.0728V13.9533C145.338 12.3198 143.943 10.9254 142.309 10.9254H64.053V10.8855Z" fill="#231F20"/>
</g>
<defs>
<clipPath id="clip0_2752_8019">
<rect width="237" height="100" fill="white"/>
</clipPath>
</defs>
</svg>
