<svg width="25" height="25" viewBox="0 0 25 25" fill="none" xmlns="http://www.w3.org/2000/svg">
<g id="GitHub_logo" clip-path="url(#clip0_1775_80168)">
<g id="Group">
<path id="Vector" d="M12.5001 0.5C5.8735 0.5 0.5 6.00144 0.5 12.7881C0.5 18.2173 3.93839 22.8234 8.7064 24.4482C9.30613 24.562 9.52631 24.1817 9.52631 23.8571C9.52631 23.5641 9.51518 22.5961 9.51001 21.5693C6.17157 22.3127 5.46712 20.1195 5.46712 20.1195C4.92125 18.6992 4.13473 18.3215 4.13473 18.3215C3.04596 17.5588 4.2168 17.5745 4.2168 17.5745C5.42181 17.6612 6.05632 18.8408 6.05632 18.8408C7.1266 20.7194 8.86359 20.1763 9.54836 19.8623C9.65607 19.0681 9.96706 18.526 10.3102 18.2191C7.64486 17.9084 4.84295 16.8548 4.84295 12.1463C4.84295 10.8047 5.31172 9.70855 6.07937 8.84801C5.95477 8.5385 5.54402 7.28869 6.19562 5.5961C6.19562 5.5961 7.20331 5.26584 9.4965 6.85568C10.4537 6.58341 11.4803 6.44687 12.5001 6.44219C13.5199 6.44687 14.5473 6.58341 15.5063 6.85568C17.7967 5.26584 18.803 5.5961 18.803 5.5961C19.4562 7.28869 19.0452 8.5385 18.9206 8.84801C19.6901 9.70855 20.1557 10.8047 20.1557 12.1463C20.1557 16.866 17.3484 17.9052 14.6762 18.2094C15.1067 18.5907 15.4902 19.3385 15.4902 20.485C15.4902 22.1291 15.4763 23.4524 15.4763 23.8571C15.4763 24.1841 15.6923 24.5673 16.3006 24.4466C21.066 22.82 24.5 18.2155 24.5 12.7881C24.5 6.00144 19.1273 0.5 12.5001 0.5ZM4.99443 18.0047C4.968 18.0657 4.8742 18.084 4.78876 18.0421C4.70172 18.002 4.65283 17.9188 4.68105 17.8575C4.70688 17.7947 4.80088 17.7772 4.88772 17.8193C4.97495 17.8594 5.02463 17.9434 4.99443 18.0047ZM5.5847 18.544C5.52747 18.5983 5.41559 18.5731 5.33968 18.4872C5.26119 18.4016 5.24648 18.287 5.30451 18.2318C5.36353 18.1775 5.47203 18.2029 5.55072 18.2886C5.62921 18.3753 5.64451 18.4891 5.5847 18.544ZM5.98965 19.234C5.91612 19.2863 5.7959 19.2373 5.72158 19.128C5.64805 19.0188 5.64805 18.8877 5.72317 18.8352C5.79769 18.7827 5.91612 18.8299 5.99144 18.9384C6.06476 19.0495 6.06476 19.1805 5.98965 19.234ZM6.6745 20.0332C6.60873 20.1075 6.46863 20.0876 6.36609 19.9862C6.26117 19.8871 6.23196 19.7465 6.29793 19.6722C6.3645 19.5978 6.50539 19.6187 6.60873 19.7193C6.71285 19.8181 6.74465 19.9598 6.6745 20.0332ZM7.55961 20.303C7.5306 20.3993 7.39567 20.443 7.25975 20.4021C7.12402 20.36 7.0352 20.2473 7.06262 20.15C7.09084 20.0531 7.22636 20.0076 7.36328 20.0513C7.4988 20.0932 7.58783 20.2052 7.55961 20.303ZM8.5669 20.4175C8.57028 20.5188 8.45502 20.6028 8.31235 20.6047C8.16887 20.6079 8.05282 20.5259 8.05123 20.4262C8.05123 20.3239 8.1639 20.2406 8.30738 20.2382C8.45006 20.2353 8.5669 20.3167 8.5669 20.4175ZM9.55645 20.3786C9.57354 20.4775 9.47438 20.5791 9.3327 20.6061C9.1934 20.6322 9.06443 20.5711 9.04674 20.473C9.02946 20.3717 9.1304 20.2702 9.2695 20.2439C9.41139 20.2187 9.53837 20.2781 9.55645 20.3786Z" fill="white"/>
</g>
</g>
<defs>
<clipPath id="clip0_1775_80168">
<rect width="24" height="24" fill="white" transform="translate(0.5 0.5)"/>
</clipPath>
</defs>
</svg>
