<svg width="12" height="12" viewBox="0 0 12 12" fill="none" xmlns="http://www.w3.org/2000/svg">
<g clip-path="url(#clip0_266_155)">
<path fill-rule="evenodd" clip-rule="evenodd" d="M3.21247 8.66818L3.59466 8.75661C3.9593 8.84097 4.31424 8.60959 4.38746 8.2398C4.46067 7.87001 4.22442 7.50185 3.85978 7.41749L1.98086 6.98278C1.64444 6.90495 1.31103 7.0961 1.20674 7.42659L0.69219 9.05726C0.579159 9.41547 0.774765 9.80693 1.12909 9.93161C1.48341 10.0563 1.86228 9.86699 1.97531 9.50877L2.03172 9.33001C2.81927 10.4003 3.87579 11.0567 4.73343 11.3585C5.79966 11.7337 7.36952 11.8472 8.88376 11.0905C10.4026 10.3316 11.2645 8.96363 11.6028 7.89165C11.7158 7.53344 11.5202 7.14198 11.1659 7.01729C10.8116 6.89261 10.4327 7.08192 10.3197 7.44013C10.0672 8.24033 9.40642 9.2841 8.26589 9.85401C7.12071 10.4262 5.92839 10.3377 5.14275 10.0613C4.54078 9.84945 3.79443 9.39303 3.21247 8.66818ZM7.17476 1.79425C7.5915 1.9409 8.07745 2.20477 8.53014 2.59379L9.21607 1.83659C9.29011 1.75485 9.36973 1.68115 9.45381 1.61555C8.83617 1.06801 8.16457 0.701322 7.58408 0.497055C6.51785 0.121861 4.94799 0.00836259 3.43375 0.764996C1.91487 1.52395 1.05299 2.89189 0.714727 3.96388C0.601696 4.32209 0.797301 4.71355 1.15162 4.83823C1.50595 4.96291 1.88481 4.7736 1.99784 4.41539C2.25034 3.6152 2.91109 2.57142 4.05162 2.00152C5.1968 1.4293 6.38912 1.51779 7.17476 1.79425ZM11.7558 2.44713C12.0612 2.72703 12.0818 3.20145 11.8019 3.50679L7.67693 8.00679C7.5307 8.16631 7.3227 8.25489 7.10636 8.24978C6.89002 8.24468 6.68644 8.14637 6.5479 7.98013L4.67291 5.73013C4.40773 5.41193 4.45073 4.939 4.76893 4.67383C5.08714 4.40866 5.56006 4.45165 5.82523 4.76986L7.15096 6.36073L10.6962 2.4932C10.9761 2.18787 11.4505 2.16724 11.7558 2.44713Z" fill="white"/>
</g>
<defs>
<clipPath id="clip0_266_155">
<rect width="12" height="12" fill="white"/>
</clipPath>
</defs>
</svg>
