<svg width="24" height="24" viewBox="0 0 24 24" fill="none" xmlns="http://www.w3.org/2000/svg">
<path fill-rule="evenodd" clip-rule="evenodd" d="M3.18239 4.20351C4.77334 2.63229 7.58976 1 11.0462 1C14.493 1 17.2497 2.56384 18.8486 4.1429C20.1244 5.4029 21.44 7.44119 21.9111 9.95959L21.9048 9.92232C22.3841 9.44895 23.1612 9.44895 23.6405 9.92232C24.1198 10.3957 24.1198 11.1632 23.6405 11.6365L21.7328 13.9783C21.2906 14.415 20.5866 14.4536 20.0982 14.0677L17.81 11.626C17.2807 11.2078 17.1949 10.4451 17.6183 9.92232C18.0418 9.39958 18.8142 9.31482 19.3435 9.73302C18.8908 8.07233 17.9841 6.71756 17.1128 5.8571C15.8935 4.6529 13.736 3.42424 11.0462 3.42424C8.36582 3.42424 6.14542 4.70565 4.91814 5.91771C3.69881 7.12191 2.4547 9.25259 2.4547 11.9091C2.4547 14.5562 3.75222 16.749 4.9795 17.9611C6.19884 19.1653 8.35629 20.3939 11.0462 20.3939C11.724 20.3939 12.2735 20.9366 12.2735 21.6061C12.2735 22.2755 11.724 22.8182 11.0462 22.8182C7.59929 22.8182 4.84266 21.2543 3.24375 19.6753C1.6528 18.1041 -1.90735e-06 15.3226 -1.90735e-06 11.9091C-1.90735e-06 8.50499 1.58348 5.78257 3.18239 4.20351ZM19.3435 9.73302C19.4116 9.98283 19.4694 10.2396 19.5153 10.5026L19.3435 9.73302ZM21.9713 10.3144C21.9531 10.1951 21.933 10.0768 21.9111 9.95959L21.9713 10.3144Z" fill="black"/>
<path d="M11.3 7C12.018 7 12.6 7.55964 12.6 8.25V12C12.6 12.6904 12.018 13.25 11.3 13.25C10.582 13.25 10 12.6904 10 12V8.25C10 7.55964 10.582 7 11.3 7Z" fill="black"/>
<path d="M11.3 14.5C10.582 14.5 10 15.0596 10 15.75C10 16.4404 10.582 17 11.3 17C12.018 17 12.6 16.4404 12.6 15.75C12.6 15.0596 12.018 14.5 11.3 14.5Z" fill="black"/>
</svg>
