<svg width="32" height="32" viewBox="0 0 32 32" fill="none" xmlns="http://www.w3.org/2000/svg">
<path d="M7.97852 21H6.33789L3.96484 15.498V21H2.30664V12.4688H3.96484L6.32031 17.9473L6.32617 12.4688H7.97852V21ZM14.8105 17.2617H11.3066V19.6699H15.4023V21H9.6543V12.4688H15.3848V13.8105H11.3066V15.9609H14.8105V17.2617ZM20.9629 19.2188H18.4023L17.8984 21H16.1641L18.959 12.4688H20.4531L23.1953 21H21.4609L20.9629 19.2188ZM18.8066 17.8184H20.5762L19.7031 14.6777L18.8066 17.8184ZM26.8691 17.8125H25.6211V21H23.9746V12.4688H26.834C27.3066 12.4688 27.7344 12.5254 28.1172 12.6387C28.5 12.748 28.8281 12.9102 29.1016 13.125C29.3711 13.3398 29.5781 13.6074 29.7227 13.9277C29.8711 14.248 29.9453 14.6191 29.9453 15.041C29.9453 15.3457 29.9082 15.6211 29.834 15.8672C29.7637 16.1094 29.6621 16.3262 29.5293 16.5176C29.3926 16.7129 29.2285 16.8828 29.0371 17.0273C28.8496 17.1719 28.6387 17.2969 28.4043 17.4023L30.2383 20.9238V21H28.4746L26.8691 17.8125ZM25.6211 16.4766H26.8398C27.0938 16.4766 27.3164 16.4414 27.5078 16.3711C27.7031 16.2969 27.8613 16.1914 27.9824 16.0547C28.084 15.9453 28.1602 15.8145 28.2109 15.6621C28.2656 15.5098 28.293 15.3398 28.293 15.1523C28.293 14.9258 28.2578 14.7266 28.1875 14.5547C28.1211 14.3789 28.0195 14.2344 27.8828 14.1211C27.7617 14.0195 27.6133 13.9414 27.4375 13.8867C27.2617 13.832 27.0605 13.8047 26.834 13.8047H25.6211V16.4766Z" fill="white"/>
</svg>
