<svg width="16" height="16" viewBox="0 0 16 16" fill="none" xmlns="http://www.w3.org/2000/svg">
<g clip-path="url(#clip0_935_6423)">
<path fill-rule="evenodd" clip-rule="evenodd" d="M4.28394 11.5576L4.79353 11.6755C5.27971 11.788 5.75298 11.4795 5.85059 10.9864C5.94821 10.4934 5.63321 10.0025 5.14703 9.88999L2.6418 9.31039C2.19324 9.20661 1.74869 9.46147 1.60964 9.90213L0.923572 12.0764C0.772864 12.554 1.03367 13.0759 1.5061 13.2422C1.97853 13.4084 2.48369 13.156 2.6344 12.6784L2.70961 12.44C3.75968 13.8671 5.16837 14.7422 6.31189 15.1446C7.73353 15.6449 9.82668 15.7962 11.8457 14.7874C13.8708 13.7754 15.02 11.9515 15.471 10.5222C15.6217 10.0446 15.3609 9.52264 14.8885 9.3564C14.4161 9.19016 13.9109 9.44257 13.7602 9.92019C13.4235 10.9871 12.5425 12.3788 11.0218 13.1387C9.49494 13.9016 7.90517 13.7837 6.85766 13.415C6.05503 13.1326 5.05989 12.5241 4.28394 11.5576ZM9.56699 2.39234C10.1227 2.58787 10.7706 2.9397 11.3742 3.45839L12.5779 2.12956C11.7621 1.41306 10.878 0.932046 10.1128 0.66275C8.69112 0.162492 6.59797 0.0111604 4.57899 1.02C2.55381 2.03195 1.40463 3.85587 0.953621 5.28518C0.802912 5.76279 1.06372 6.28474 1.53615 6.45098C2.00858 6.61723 2.51374 6.36481 2.66444 5.8872C3.0011 4.82028 3.88211 3.42857 5.40281 2.6687C6.92972 1.90574 8.51948 2.02373 9.56699 2.39234ZM15.6751 3.26285C16.0822 3.63604 16.1097 4.26861 15.7365 4.67573L10.2366 10.6757C10.0416 10.8884 9.76425 11.0065 9.4758 10.9997C9.18735 10.9929 8.9159 10.8618 8.73118 10.6402L6.23119 7.64019C5.87763 7.21591 5.93495 6.58535 6.35923 6.23178C6.7835 5.87822 7.41407 5.93554 7.76763 6.35982L9.53527 8.48099L14.2622 3.32428C14.6354 2.91716 15.268 2.88966 15.6751 3.26285Z" fill="#589DFF"/>
</g>
<defs>
<clipPath id="clip0_935_6423">
<rect width="16" height="16" fill="white"/>
</clipPath>
</defs>
</svg>
