<svg width="16" height="16" viewBox="0 0 16 16" fill="none" xmlns="http://www.w3.org/2000/svg">
<g clip-path="url(#clip0_1083_105883)">
<path fill-rule="evenodd" clip-rule="evenodd" d="M4.28492 11.5575L4.79451 11.6754C5.28069 11.7879 5.75395 11.4794 5.85157 10.9863C5.94918 10.4933 5.63419 10.0024 5.148 9.8899L2.64278 9.3103C2.19421 9.20652 1.74966 9.46138 1.61062 9.90203L0.924548 12.0763C0.77384 12.5539 1.03465 13.0758 1.50708 13.2421C1.97951 13.4083 2.48466 13.1559 2.63537 12.6783L2.71058 12.4399C3.76065 13.867 5.16935 14.7422 6.31287 15.1445C7.7345 15.6448 9.82766 15.7961 11.8466 14.7873C13.8718 13.7753 15.021 11.9514 15.472 10.5221C15.6227 10.0445 15.3619 9.52255 14.8895 9.35631C14.417 9.19007 13.9119 9.44248 13.7612 9.9201C13.4245 10.987 12.5435 12.3787 11.0228 13.1386C9.49591 13.9016 7.90614 13.7836 6.85863 13.415C6.05601 13.1325 5.06087 12.524 4.28492 11.5575ZM9.56797 2.39225C10.1236 2.58778 10.7716 2.93961 11.3751 3.4583L12.5789 2.12946C11.7631 1.41297 10.879 0.931954 10.1137 0.662659C8.6921 0.1624 6.59894 0.0110688 4.57997 1.01991C2.55479 2.03185 1.40561 3.85578 0.954598 5.28509C0.803889 5.7627 1.0647 6.28465 1.53713 6.45089C2.00956 6.61714 2.51471 6.36472 2.66542 5.88711C3.00208 4.82019 3.88308 3.42848 5.40379 2.66861C6.93069 1.90565 8.52046 2.02364 9.56797 2.39225ZM15.6761 3.26276C16.0832 3.63595 16.1107 4.26852 15.7375 4.67564L10.2375 10.6756C10.0426 10.8883 9.76523 11.0064 9.47678 10.9996C9.18833 10.9928 8.91688 10.8617 8.73216 10.6401L6.23217 7.6401C5.87861 7.21582 5.93593 6.58525 6.36021 6.23169C6.78448 5.87813 7.41504 5.93545 7.76861 6.35973L9.53624 8.4809L14.2632 3.32419C14.6364 2.91707 15.269 2.88957 15.6761 3.26276Z" fill="#589DFF"/>
</g>
<defs>
<clipPath id="clip0_1083_105883">
<rect width="16" height="16" fill="white"/>
</clipPath>
</defs>
</svg>
