<svg width="83" height="48" viewBox="0 0 83 48" fill="none" xmlns="http://www.w3.org/2000/svg">
<path fill-rule="evenodd" clip-rule="evenodd" d="M21.5459 24.089C21.5459 13.1684 30.2412 4.27945 41.0756 4.00646C41.1429 4.00218 41.2108 4 41.2794 4C41.3088 4 41.3382 4.0004 41.3674 4.0012C41.4412 4.0004 41.5151 4 41.589 4C52.6608 4 61.6321 12.9964 61.6321 24.089C61.6321 25.0218 61.5687 25.9398 61.4459 26.8389C60.8786 26.2819 60.2569 25.7805 59.5894 25.3433C59.6177 24.9289 59.6321 24.5106 59.6321 24.089C59.6321 22.5888 59.45 21.1313 59.1067 19.7375H48.4644C48.571 21.1396 48.6271 22.5962 48.6271 24.089C48.6271 24.1203 48.6271 24.1516 48.627 24.1829C47.9227 24.455 47.2502 24.7913 46.6166 25.1845C46.6236 24.8222 46.6271 24.457 46.6271 24.089C46.6271 22.5875 46.5685 21.1306 46.4584 19.7375H36.1004C35.9903 21.1306 35.9317 22.5875 35.9317 24.089C35.9317 25.6479 35.9949 27.1588 36.1132 28.6H43.0278C42.5944 29.2263 42.2183 29.8955 41.9072 30.6H36.3179C36.6317 33.1458 37.1228 35.4158 37.7398 37.2714C38.2948 38.9405 38.9337 40.2191 39.5947 41.0598C40.2147 41.8485 40.7551 42.135 41.1791 42.1734C41.2327 42.1746 41.2864 42.1756 41.3401 42.1763C41.6618 42.1585 42.0536 41.9975 42.4986 41.5764C43.0077 42.4576 43.6242 43.2688 44.3303 43.9917C43.4341 44.1145 42.5189 44.178 41.589 44.178C41.5151 44.178 41.4412 44.1776 41.3674 44.1768C41.3572 44.1771 41.347 44.1773 41.3368 44.1775C41.3303 44.1776 41.3238 44.1777 41.3174 44.1778L41.2794 44.178C41.2108 44.178 41.1429 44.1758 41.0756 44.1715C30.2412 43.8986 21.5459 35.0096 21.5459 24.089ZM24.6894 17.7375C26.8026 12.0886 31.6529 7.78216 37.6197 6.43917C36.9343 7.46664 36.3404 8.77647 35.842 10.2755C35.1447 12.3723 34.6091 14.9157 34.2848 17.7375H24.6894ZM24.0713 19.7375C23.728 21.1313 23.5459 22.5888 23.5459 24.089C23.5459 25.6466 23.7422 27.1581 24.1114 28.6H34.1068C33.9921 27.1489 33.9317 25.6385 33.9317 24.089C33.9317 22.5962 33.9877 21.1396 34.0944 19.7375H24.0713ZM37.6197 41.7388C31.7092 40.4085 26.8943 36.1703 24.75 30.6H34.3034C34.6293 33.3582 35.1579 35.8453 35.842 37.9025C36.3404 39.4015 36.9343 40.7114 37.6197 41.7388ZM58.4886 17.7375H48.274C47.9497 14.9157 47.4141 12.3723 46.7168 10.2755C46.1943 8.70431 45.5671 7.34098 44.8394 6.29277C51.134 7.44091 56.2911 11.8634 58.4886 17.7375ZM36.2985 17.7375C36.6112 15.127 37.1099 12.8008 37.7398 10.9066C38.2948 9.23746 38.9337 7.95887 39.5947 7.11816C40.2147 6.32952 40.7551 6.04296 41.1791 6.00458C41.2327 6.00338 41.2864 6.00242 41.3401 6.00169C41.7698 6.02545 42.3246 6.30474 42.9641 7.11816C43.625 7.95887 44.2639 9.23746 44.819 10.9066C45.4489 12.8008 45.9475 15.127 46.2602 17.7375H36.2985Z" fill="#919191"/>
<path fill-rule="evenodd" clip-rule="evenodd" d="M52.9907 44.797C58.1017 44.797 62.245 40.6438 62.245 35.5204C62.245 30.3971 58.1017 26.2438 52.9907 26.2438C47.8796 26.2438 43.7363 30.3971 43.7363 35.5204C43.7363 40.6438 47.8796 44.797 52.9907 44.797ZM48.1712 41.2758C46.5348 39.8974 45.4947 37.8307 45.4947 35.5204C45.4947 31.3705 48.8507 28.0063 52.9907 28.0063C54.6252 28.0063 56.1376 28.5308 57.3695 29.421L48.1712 41.2758ZM59.0165 31.0502C59.9403 32.2994 60.4867 33.846 60.4867 35.5204C60.4867 39.6703 57.1306 43.0345 52.9907 43.0345C51.9855 43.0345 51.0266 42.8362 50.1507 42.4765L59.0165 31.0502Z" fill="#F63F3F"/>
</svg>
