<svg width="18" height="18" viewBox="0 0 18 18" fill="none" xmlns="http://www.w3.org/2000/svg">
<path fill-rule="evenodd" clip-rule="evenodd" d="M15.5307 1.35565C15.8382 1.04812 16.3368 1.04812 16.6443 1.35565C16.9519 1.66319 16.9519 2.16181 16.6443 2.46935L13.9261 5.18763C15.6222 5.62619 16.875 7.16679 16.875 9C16.875 11.1746 15.1121 12.9375 12.9375 12.9375H11.3625C10.9276 12.9375 10.575 12.5849 10.575 12.15C10.575 11.7151 10.9276 11.3625 11.3625 11.3625H12.9375C14.2423 11.3625 15.3 10.3048 15.3 9C15.3 7.69523 14.2423 6.6375 12.9375 6.6375H12.4762L10.9012 8.2125H12.15C12.5849 8.2125 12.9375 8.56508 12.9375 9C12.9375 9.43493 12.5849 9.7875 12.15 9.7875H9.32619L7.33314 11.7806C7.39177 11.8907 7.425 12.0165 7.425 12.15C7.425 12.5849 7.07242 12.9375 6.6375 12.9375H6.17619L2.46935 16.6443C2.16181 16.9519 1.66319 16.9519 1.35565 16.6443C1.04812 16.3368 1.04812 15.8382 1.35565 15.5307L15.5307 1.35565ZM5.85 8.2125H6.46819L5.21493 9.46576C5.11911 9.33532 5.0625 9.17427 5.0625 9C5.0625 8.56508 5.41508 8.2125 5.85 8.2125ZM2.7 9C2.7 9.81034 3.10798 10.5254 3.72974 10.951L2.60447 12.0762C1.70263 11.3547 1.125 10.2448 1.125 9C1.125 6.82538 2.88788 5.0625 5.0625 5.0625H6.6375C7.07242 5.0625 7.425 5.41508 7.425 5.85C7.425 6.28492 7.07242 6.6375 6.6375 6.6375H5.0625C3.75773 6.6375 2.7 7.69523 2.7 9Z" fill="#F63F3F"/>
</svg>
