<?xml version="1.0" encoding="UTF-8" standalone="no"?>
<!DOCTYPE svg PUBLIC "-//W3C//DTD SVG 1.1//EN" "http://www.w3.org/Graphics/SVG/1.1/DTD/svg11.dtd">
<svg width="100%" height="100%" viewBox="0 0 315 132" version="1.1" xmlns="http://www.w3.org/2000/svg" xmlns:xlink="http://www.w3.org/1999/xlink" xml:space="preserve" xmlns:serif="http://www.serif.com/" style="fill-rule:evenodd;clip-rule:evenodd;stroke-linejoin:round;stroke-miterlimit:2;">
    <g transform="matrix(1.32304,0,0,1.3204,0.00700028,-0.01529)">
        <rect x="99.901" y="41.92" width="3.291" height="0.703" style="fill-rule:nonzero;"/>
    </g>
    <g transform="matrix(1.32304,0,0,1.3204,0.00700028,-0.01529)">
        <rect x="81.684" y="41.92" width="1.293" height="0.586" style="fill-rule:nonzero;"/>
    </g>
    <g transform="matrix(1.32304,0,0,1.3204,0.00700028,-0.01529)">
        <path d="M69.314,41.537L69.311,42.24L70.016,42.243L70.02,41.541L69.314,41.537Z" style="fill-rule:nonzero;"/>
    </g>
    <g transform="matrix(1.32304,0,0,1.3204,0.00700028,-0.01529)">
        <path d="M67.922,41.722L67.918,42.425L68.623,42.428L68.627,41.726L67.922,41.722Z" style="fill-rule:nonzero;"/>
    </g>
    <g transform="matrix(1.32304,0,0,1.3204,0.00700028,-0.01529)">
        <path d="M66.643,41.79L66.639,42.493L67.345,42.497L67.348,41.794L66.643,41.79Z" style="fill-rule:nonzero;"/>
    </g>
    <g transform="matrix(1.32304,0,0,1.3204,0.00700028,-0.01529)">
        <path d="M105.778,41.335L103.78,41.335L103.78,40.632L102.487,40.632L102.487,41.335L103.192,41.335L103.192,41.92L103.78,41.92L104.485,42.038L105.778,42.038L105.778,41.335Z" style="fill-rule:nonzero;"/>
    </g>
    <g transform="matrix(1.32304,0,0,1.3204,0.00700028,-0.01529)">
        <path d="M81.016,41.277L81.012,41.98L81.717,41.983L81.721,41.281L81.016,41.277Z" style="fill-rule:nonzero;"/>
    </g>
    <g transform="matrix(1.32304,0,0,1.3204,0.00700028,-0.01529)">
        <path d="M69.861,41.043L69.858,41.745L70.563,41.749L70.566,41.046L69.861,41.043Z" style="fill-rule:nonzero;"/>
    </g>
    <g transform="matrix(1.32304,0,0,1.3204,0.00700028,-0.01529)">
        <path d="M68.584,40.994L68.58,41.697L69.285,41.7L69.289,40.998L68.584,40.994Z" style="fill-rule:nonzero;"/>
    </g>
    <g transform="matrix(1.32304,0,0,1.3204,0.00700028,-0.01529)">
        <path d="M67.306,41.062L67.303,41.765L68.008,41.769L68.011,41.066L67.306,41.062Z" style="fill-rule:nonzero;"/>
    </g>
    <g transform="matrix(1.32304,0,0,1.3204,0.00700028,-0.01529)">
        <path d="M66.029,40.897L66.025,41.599L66.73,41.603L66.734,40.901L66.029,40.897Z" style="fill-rule:nonzero;"/>
    </g>
    <g transform="matrix(1.32304,0,0,1.3204,0.00700028,-0.01529)">
        <path d="M106.483,40.749L105.778,40.632L105.778,41.335L107.776,41.335L107.776,40.749L106.483,40.749Z" style="fill-rule:nonzero;"/>
    </g>
    <g transform="matrix(1.32304,0,0,1.3204,0.00700028,-0.01529)">
        <path d="M70.524,40.312L70.52,41.015L71.226,41.019L71.229,40.316L70.524,40.312Z" style="fill-rule:nonzero;"/>
    </g>
    <g transform="matrix(1.32304,0,0,1.3204,0.00700028,-0.01529)">
        <path d="M69.246,40.263L69.243,40.966L69.948,40.969L69.952,40.267L69.246,40.263Z" style="fill-rule:nonzero;"/>
    </g>
    <g transform="matrix(1.32304,0,0,1.3204,0.00700028,-0.01529)">
        <path d="M68.086,40.332L68.082,41.035L68.787,41.038L68.791,40.336L68.086,40.332Z" style="fill-rule:nonzero;"/>
    </g>
    <g transform="matrix(1.32304,0,0,1.3204,0.00700028,-0.01529)">
        <path d="M66.693,40.4L66.689,41.103L67.395,41.106L67.398,40.404L66.693,40.4Z" style="fill-rule:nonzero;"/>
    </g>
    <g transform="matrix(1.32304,0,0,1.3204,0.00700028,-0.01529)">
        <path d="M65.415,40.351L65.412,41.054L66.117,41.057L66.12,40.355L65.415,40.351Z" style="fill-rule:nonzero;"/>
    </g>
    <g transform="matrix(1.32304,0,0,1.3204,0.00700028,-0.01529)">
        <rect x="107.776" y="40.047" width="1.293" height="0.703" style="fill-rule:nonzero;"/>
    </g>
    <g transform="matrix(1.32304,0,0,1.3204,0.00700028,-0.01529)">
        <rect x="101.194" y="40.047" width="1.293" height="0.586" style="fill-rule:nonzero;"/>
    </g>
    <g transform="matrix(1.32304,0,0,1.3204,0.00700028,-0.01529)">
        <path d="M69.91,39.77L69.907,40.472L70.612,40.476L70.616,39.773L69.91,39.77Z" style="fill-rule:nonzero;"/>
    </g>
    <g transform="matrix(1.32304,0,0,1.3204,0.00700028,-0.01529)">
        <path d="M68.75,39.721L68.746,40.424L69.451,40.427L69.455,39.725L68.75,39.721Z" style="fill-rule:nonzero;"/>
    </g>
    <g transform="matrix(1.32304,0,0,1.3204,0.00700028,-0.01529)">
        <path d="M67.354,39.789L67.35,40.491L68.055,40.495L68.059,39.792L67.354,39.789Z" style="fill-rule:nonzero;"/>
    </g>
    <g transform="matrix(1.32304,0,0,1.3204,0.00700028,-0.01529)">
        <path d="M65.96,39.74L65.956,40.443L66.661,40.446L66.665,39.744L65.96,39.74Z" style="fill-rule:nonzero;"/>
    </g>
    <g transform="matrix(1.32304,0,0,1.3204,0.00700028,-0.01529)">
        <path d="M64.682,39.691L64.678,40.393L65.384,40.397L65.387,39.694L64.682,39.691Z" style="fill-rule:nonzero;"/>
    </g>
    <g transform="matrix(1.32304,0,0,1.3204,0.00700028,-0.01529)">
        <path d="M69.412,39.108L69.408,39.81L70.114,39.814L70.117,39.111L69.412,39.108Z" style="fill-rule:nonzero;"/>
    </g>
    <g transform="matrix(1.32304,0,0,1.3204,0.00700028,-0.01529)">
        <path d="M68.134,39.058L68.13,39.761L68.835,39.764L68.839,39.062L68.134,39.058Z" style="fill-rule:nonzero;"/>
    </g>
    <g transform="matrix(1.32304,0,0,1.3204,0.00700028,-0.01529)">
        <path d="M66.858,39.127L66.854,39.83L67.56,39.833L67.563,39.131L66.858,39.127Z" style="fill-rule:nonzero;"/>
    </g>
    <g transform="matrix(1.32304,0,0,1.3204,0.00700028,-0.01529)">
        <path d="M65.463,39.195L65.46,39.898L66.165,39.901L66.169,39.199L65.463,39.195Z" style="fill-rule:nonzero;"/>
    </g>
    <g transform="matrix(1.32304,0,0,1.3204,0.00700028,-0.01529)">
        <path d="M110.361,38.759L99.314,38.759L99.314,38.056L99.901,38.056L99.901,37.354L100.606,37.471L100.606,36.768L101.194,36.768L101.312,36.066L101.899,36.066L101.899,35.48L102.604,35.48L102.604,34.778L103.192,34.778L103.192,34.192L103.897,34.192L103.897,33.49L104.485,33.49L104.485,32.904L105.19,32.904L105.19,32.201L105.895,32.201L105.895,31.616L106.483,31.616L106.483,30.913L107.188,30.913L107.188,30.328L107.776,30.328L107.776,29.625L108.481,29.625L108.481,29.04L109.069,29.04L109.069,28.337L109.774,28.337L109.774,25.761L109.186,25.761L109.186,25.176L108.481,25.176L107.776,25.058L107.188,25.058L107.188,24.473L101.312,24.473L101.312,25.058L100.019,25.058L100.019,25.761L98.726,25.761L98.726,26.347L97.433,26.347L97.433,25.761L96.728,25.761L96.728,24.356L96.14,24.356L96.14,23.068L95.435,23.068L95.435,22.482L94.847,22.482L94.847,21.78L94.142,21.78L94.142,21.194L93.555,21.194L93.555,20.492L92.262,20.492L92.262,19.789L90.969,19.789L90.969,19.204L88.971,19.204L88.971,18.501L85.68,18.501L85.68,17.916L85.092,17.799L75.925,17.799L75.925,18.501L73.339,18.501L73.339,19.087L71.341,19.087L71.341,19.789L70.754,19.789L70.754,20.375L69.461,20.375L69.343,21.077L68.756,21.077L68.05,20.96L68.05,21.663L67.463,21.663L67.463,22.365L66.757,22.365L66.757,22.951L66.17,22.951L66.17,23.653L65.465,23.653L65.465,24.239L64.877,24.239L64.76,24.941L64.76,25.527L64.172,25.527L64.172,26.815L63.467,26.815L63.467,28.103L62.879,28.103L62.879,30.094L63.467,30.094L63.467,28.806L64.172,28.806L64.172,27.518L64.76,27.518L64.76,26.23L65.465,26.23L65.465,24.941L66.17,24.941L66.17,24.239L66.757,24.239L66.757,23.653L67.463,23.653L67.463,22.951L68.05,22.951L68.05,22.365L68.756,22.365L68.756,21.663L70.048,21.663L70.048,21.077L71.341,21.077L71.341,20.375L79.216,20.375L79.216,19.789L73.927,19.789L73.927,19.087L76.63,19.087L76.63,18.501L85.092,18.501L85.092,19.204L85.68,19.204L85.68,19.789L86.385,19.789L86.385,19.204L86.973,19.204L86.973,19.789L90.264,19.789L90.264,21.077L90.851,21.077L91.557,21.194L92.849,21.194L92.849,21.78L93.555,21.78L93.555,22.482L94.142,22.482L94.142,23.068L94.847,23.068L94.847,23.77L95.435,23.77L95.435,25.644L94.847,25.644L94.73,26.347L96.728,26.347L96.728,27.635L98.021,27.635L98.021,27.049L99.314,27.049L99.314,26.347L100.606,26.347L100.606,25.761L102.017,25.761L102.017,25.058L106.483,25.058L106.483,25.761L108.481,25.761L108.481,26.464L109.069,26.464L109.069,27.049L106.483,27.049L106.483,27.752L104.602,27.752L104.602,28.337L103.192,28.337L103.192,29.04L102.604,29.04L101.899,28.923L101.899,29.625L101.312,29.625L101.312,30.328L100.606,30.328L100.606,30.913L100.019,30.913L100.019,31.616L99.314,31.616L99.314,32.201L98.726,32.201L98.608,32.904L98.021,32.904L98.021,33.49L97.316,33.49L97.316,34.192L96.728,34.192L96.728,34.778L96.023,34.778L96.023,35.48L95.435,35.48L95.435,36.066L94.73,36.066L94.73,36.768L94.025,36.768L94.025,37.354L93.437,37.354L93.437,38.056L92.732,38.056L92.732,38.642L92.144,38.642L92.144,39.344L91.439,39.344L91.439,39.93L90.851,39.93L90.851,40.632L89.559,40.632L89.441,41.218L88.148,41.218L88.148,41.92L86.268,41.92L86.268,42.506L82.977,42.506L82.977,43.208L99.901,43.208L99.901,42.623L92.144,42.623L92.144,41.218L92.732,41.218L92.732,40.632L93.437,40.632L93.437,39.93L94.025,39.93L94.025,39.344L98.608,39.344L98.608,40.047L101.194,40.047L101.194,39.344L108.363,39.344L109.069,39.461L109.069,40.047L110.361,40.047L110.361,42.038L109.656,42.038L109.656,42.623L109.069,42.623L109.069,43.326L108.363,43.326L108.363,43.911L107.776,43.911L107.776,44.614L106.483,44.614L106.365,45.199L104.485,45.199L104.485,45.902L102.487,45.902L102.487,46.487L100.606,46.487L100.489,47.19L97.903,47.19L97.903,47.775L95.318,47.775L95.318,48.478L94.025,48.478L93.32,48.361L93.32,49.063L92.732,49.063L92.732,49.766L97.316,49.766L97.316,49.063L98.608,49.063L98.608,47.775L101.194,47.775L101.194,47.19L103.192,47.19L103.192,46.487L105.073,46.487L105.073,45.902L107.071,45.902L107.071,45.199L108.363,45.199L108.363,44.614L109.069,44.614L109.069,43.911L109.656,43.911L109.656,43.326L110.361,43.326L110.361,42.623L110.949,42.623L110.949,40.749L111.067,40.047L111.067,39.461L110.361,39.461L110.361,38.759Z" style="fill-rule:nonzero;"/>
    </g>
    <g transform="matrix(1.32304,0,0,1.3204,0.00700028,-0.01529)">
        <path d="M68.681,38.564L68.677,39.267L69.382,39.271L69.386,38.568L68.681,38.564Z" style="fill-rule:nonzero;"/>
    </g>
    <g transform="matrix(1.32304,0,0,1.3204,0.00700028,-0.01529)">
        <path d="M67.403,38.515L67.399,39.218L68.104,39.221L68.108,38.519L67.403,38.515Z" style="fill-rule:nonzero;"/>
    </g>
    <g transform="matrix(1.32304,0,0,1.3204,0.00700028,-0.01529)">
        <path d="M66.009,38.466L66.005,39.169L66.71,39.172L66.714,38.47L66.009,38.466Z" style="fill-rule:nonzero;"/>
    </g>
    <g transform="matrix(1.32304,0,0,1.3204,0.00700028,-0.01529)">
        <path d="M64.731,38.537L64.728,39.239L65.433,39.243L65.436,38.54L64.731,38.537Z" style="fill-rule:nonzero;"/>
    </g>
    <g transform="matrix(1.32304,0,0,1.3204,0.00700028,-0.01529)">
        <path d="M68.065,37.902L68.061,38.604L68.766,38.608L68.77,37.905L68.065,37.902Z" style="fill-rule:nonzero;"/>
    </g>
    <g transform="matrix(1.32304,0,0,1.3204,0.00700028,-0.01529)">
        <path d="M66.905,37.737L66.902,38.439L67.607,38.443L67.61,37.74L66.905,37.737Z" style="fill-rule:nonzero;"/>
    </g>
    <g transform="matrix(1.32304,0,0,1.3204,0.00700028,-0.01529)">
        <path d="M65.513,37.922L65.509,38.625L66.214,38.628L66.218,37.926L65.513,37.922Z" style="fill-rule:nonzero;"/>
    </g>
    <g transform="matrix(1.32304,0,0,1.3204,0.00700028,-0.01529)">
        <path d="M71.17,37.272L71.166,37.974L71.871,37.978L71.875,37.276L71.17,37.272Z" style="fill-rule:nonzero;"/>
    </g>
    <g transform="matrix(1.32304,0,0,1.3204,0.00700028,-0.01529)">
        <path d="M68.638,37.237L68.638,37.939L69.343,37.939L69.343,38.525L69.931,38.525L69.931,39.227L70.636,39.227L70.636,39.813L71.224,39.813L71.224,40.515L71.929,40.515L71.929,41.218L72.516,41.218L72.516,39.227L73.222,39.227L73.222,37.939L71.929,37.939L71.929,39.227L71.224,39.227L71.224,38.525L70.636,38.525L70.636,37.939L69.931,37.939L69.931,36.651L69.343,36.651L69.343,37.237L68.638,37.237Z" style="fill-rule:nonzero;"/>
    </g>
    <g transform="matrix(1.32304,0,0,1.3204,0.00700028,-0.01529)">
        <path d="M67.452,37.242L67.449,37.945L68.154,37.949L68.157,37.246L67.452,37.242Z" style="fill-rule:nonzero;"/>
    </g>
    <g transform="matrix(1.32304,0,0,1.3204,0.00700028,-0.01529)">
        <path d="M66.174,37.193L66.171,37.896L66.876,37.9L66.879,37.197L66.174,37.193Z" style="fill-rule:nonzero;"/>
    </g>
    <g transform="matrix(1.32304,0,0,1.3204,0.00700028,-0.01529)">
        <path d="M64.663,37.147L64.66,37.849L65.365,37.853L65.368,37.15L64.663,37.147Z" style="fill-rule:nonzero;"/>
    </g>
    <g transform="matrix(1.32304,0,0,1.3204,0.00700028,-0.01529)">
        <path d="M68.115,36.628L68.111,37.331L68.816,37.335L68.82,36.632L68.115,36.628Z" style="fill-rule:nonzero;"/>
    </g>
    <g transform="matrix(1.32304,0,0,1.3204,0.00700028,-0.01529)">
        <path d="M66.837,36.463L66.834,37.165L67.539,37.169L67.542,36.466L66.837,36.463Z" style="fill-rule:nonzero;"/>
    </g>
    <g transform="matrix(1.32304,0,0,1.3204,0.00700028,-0.01529)">
        <path d="M65.441,36.417L65.437,37.12L66.143,37.123L66.146,36.421L65.441,36.417Z" style="fill-rule:nonzero;"/>
    </g>
    <g transform="matrix(1.32304,0,0,1.3204,0.00700028,-0.01529)">
        <rect x="70.636" y="35.949" width="0.588" height="1.288" style="fill-rule:nonzero;"/>
    </g>
    <g transform="matrix(1.32304,0,0,1.3204,0.00700028,-0.01529)">
        <path d="M67.384,35.969L67.381,36.671L68.086,36.675L68.089,35.972L67.384,35.969Z" style="fill-rule:nonzero;"/>
    </g>
    <g transform="matrix(1.32304,0,0,1.3204,0.00700028,-0.01529)">
        <path d="M66.106,35.804L66.103,36.506L66.808,36.51L66.811,35.807L66.106,35.804Z" style="fill-rule:nonzero;"/>
    </g>
    <g transform="matrix(1.32304,0,0,1.3204,0.00700028,-0.01529)">
        <path d="M80.391,35.363L80.391,31.85L79.686,31.85L79.686,30.445L78.981,30.445L78.981,29.742L77.57,29.742L77.57,29.04L74.044,29.04L74.044,29.742L72.634,29.742L72.634,30.445L71.929,30.445L71.929,31.85L71.224,31.85L71.224,35.363L71.929,35.363L71.929,36.768L72.634,36.768L72.634,38.173L73.339,38.173L73.339,37.471L74.75,37.471L74.75,36.768L76.865,36.768L76.865,36.066L81.096,36.066L81.096,35.363L80.391,35.363ZM74.515,33.489L74.515,32.084L75.925,32.084L75.925,33.489L74.515,33.489Z" style="fill-rule:nonzero;"/>
    </g>
    <g transform="matrix(1.32304,0,0,1.3204,0.00700028,-0.01529)">
        <path d="M66.651,35.193L66.647,35.895L67.353,35.899L67.356,35.196L66.651,35.193Z" style="fill-rule:nonzero;"/>
    </g>
    <g transform="matrix(1.32304,0,0,1.3204,0.00700028,-0.01529)">
        <path d="M83.682,34.778L83.682,30.796L82.977,30.796L82.977,35.363L84.975,35.363L84.975,34.778L83.682,34.778Z" style="fill-rule:nonzero;"/>
    </g>
    <g transform="matrix(1.32304,0,0,1.3204,0.00700028,-0.01529)">
        <path d="M70.636,35.949L70.636,31.382L70.048,31.382L70.048,32.67L69.931,33.372L69.931,35.949L70.636,35.949Z" style="fill-rule:nonzero;"/>
    </g>
    <g transform="matrix(1.32304,0,0,1.3204,0.00700028,-0.01529)">
        <rect x="84.975" y="34.075" width="1.293" height="0.703" style="fill-rule:nonzero;"/>
    </g>
    <g transform="matrix(1.32304,0,0,1.3204,0.00700028,-0.01529)">
        <rect x="86.268" y="33.489" width="1.293" height="0.585" style="fill-rule:nonzero;"/>
    </g>
    <g transform="matrix(1.32304,0,0,1.3204,0.00700028,-0.01529)">
        <rect x="87.561" y="32.787" width="1.293" height="0.703" style="fill-rule:nonzero;"/>
    </g>
    <g transform="matrix(1.32304,0,0,1.3204,0.00700028,-0.01529)">
        <rect x="88.853" y="32.201" width="1.293" height="0.586" style="fill-rule:nonzero;"/>
    </g>
    <g transform="matrix(1.32304,0,0,1.3204,0.00700028,-0.01529)">
        <path d="M81.684,31.499L81.684,36.066L81.096,36.066L81.096,36.651L82.389,36.651L82.389,31.499L81.684,31.499Z" style="fill-rule:nonzero;"/>
    </g>
    <g transform="matrix(1.32304,0,0,1.3204,0.00700028,-0.01529)">
        <path d="M90.148,31.544L90.144,32.247L90.849,32.251L90.853,31.548L90.148,31.544Z" style="fill-rule:nonzero;"/>
    </g>
    <g transform="matrix(1.32304,0,0,1.3204,0.00700028,-0.01529)">
        <rect x="90.851" y="30.913" width="1.293" height="0.585" style="fill-rule:nonzero;"/>
    </g>
    <g transform="matrix(1.32304,0,0,1.3204,0.00700028,-0.01529)">
        <rect x="81.096" y="30.211" width="0.588" height="1.288" style="fill-rule:nonzero;"/>
    </g>
    <g transform="matrix(1.32304,0,0,1.3204,0.00700028,-0.01529)">
        <rect x="70.636" y="30.094" width="0.705" height="1.288" style="fill-rule:nonzero;"/>
    </g>
    <g transform="matrix(1.32304,0,0,1.3204,0.00700028,-0.01529)">
        <path d="M68.638,31.382L68.638,35.246L68.05,35.246L68.05,35.949L68.638,35.949L68.638,36.651L69.343,36.651L69.343,30.796L68.756,30.796L68.638,31.382Z" style="fill-rule:nonzero;"/>
    </g>
    <g transform="matrix(1.32304,0,0,1.3204,0.00700028,-0.01529)">
        <path d="M92.169,30.286L92.165,30.988L92.871,30.992L92.874,30.289L92.169,30.286Z" style="fill-rule:nonzero;"/>
    </g>
    <g transform="matrix(1.32304,0,0,1.3204,0.00700028,-0.01529)">
        <rect x="92.849" y="29.625" width="1.293" height="0.585" style="fill-rule:nonzero;"/>
    </g>
    <g transform="matrix(1.32304,0,0,1.3204,0.00700028,-0.01529)">
        <path d="M88.853,29.508L86.973,29.508L86.973,30.211L89.559,30.211L89.559,29.625L88.853,29.508Z" style="fill-rule:nonzero;"/>
    </g>
    <g transform="matrix(1.32304,0,0,1.3204,0.00700028,-0.01529)">
        <path d="M83.094,29.508L82.389,29.508L82.389,30.796L82.977,30.796L83.094,30.211L83.094,29.508Z" style="fill-rule:nonzero;"/>
    </g>
    <g transform="matrix(1.32304,0,0,1.3204,0.00700028,-0.01529)">
        <path d="M80.287,29.504L80.283,30.207L80.989,30.211L80.992,29.508L80.287,29.504Z" style="fill-rule:nonzero;"/>
    </g>
    <g transform="matrix(1.32304,0,0,1.3204,0.00700028,-0.01529)">
        <path d="M71.342,29.399L71.338,30.102L72.043,30.105L72.047,29.403L71.342,29.399Z" style="fill-rule:nonzero;"/>
    </g>
    <g transform="matrix(1.32304,0,0,1.3204,0.00700028,-0.01529)">
        <rect x="69.343" y="29.508" width="0.705" height="1.288" style="fill-rule:nonzero;"/>
    </g>
    <g transform="matrix(1.32304,0,0,1.3204,0.00700028,-0.01529)">
        <path d="M94.075,28.792L94.072,29.495L94.777,29.498L94.78,28.796L94.075,28.792Z" style="fill-rule:nonzero;"/>
    </g>
    <g transform="matrix(1.32304,0,0,1.3204,0.00700028,-0.01529)">
        <rect x="89.559" y="28.923" width="1.293" height="0.703" style="fill-rule:nonzero;"/>
    </g>
    <g transform="matrix(1.32304,0,0,1.3204,0.00700028,-0.01529)">
        <path d="M86.412,28.852L86.408,29.555L87.114,29.558L87.117,28.856L86.412,28.852Z" style="fill-rule:nonzero;"/>
    </g>
    <g transform="matrix(1.32304,0,0,1.3204,0.00700028,-0.01529)">
        <path d="M81.764,28.857L81.76,29.56L82.465,29.564L82.469,28.861L81.764,28.857Z" style="fill-rule:nonzero;"/>
    </g>
    <g transform="matrix(1.32304,0,0,1.3204,0.00700028,-0.01529)">
        <path d="M79.906,28.843L79.902,29.546L80.607,29.549L80.611,28.847L79.906,28.843Z" style="fill-rule:nonzero;"/>
    </g>
    <g transform="matrix(1.32304,0,0,1.3204,0.00700028,-0.01529)">
        <path d="M71.889,28.788L71.885,29.49L72.591,29.494L72.594,28.791L71.889,28.788Z" style="fill-rule:nonzero;"/>
    </g>
    <g transform="matrix(1.32304,0,0,1.3204,0.00700028,-0.01529)">
        <path d="M69.911,28.774L69.908,29.476L70.613,29.48L70.616,28.777L69.911,28.774Z" style="fill-rule:nonzero;"/>
    </g>
    <g transform="matrix(1.32304,0,0,1.3204,0.00700028,-0.01529)">
        <path d="M94.73,28.337L94.73,28.923L96.023,28.923L96.14,28.337L94.73,28.337Z" style="fill-rule:nonzero;"/>
    </g>
    <g transform="matrix(1.32304,0,0,1.3204,0.00700028,-0.01529)">
        <path d="M90.851,28.22L90.851,28.923L92.144,28.923L92.144,28.337L91.557,28.22L90.851,28.22Z" style="fill-rule:nonzero;"/>
    </g>
    <g transform="matrix(1.32304,0,0,1.3204,0.00700028,-0.01529)">
        <path d="M85.677,28.076L85.674,28.779L86.379,28.782L86.382,28.08L85.677,28.076Z" style="fill-rule:nonzero;"/>
    </g>
    <g transform="matrix(1.32304,0,0,1.3204,0.00700028,-0.01529)">
        <path d="M81.148,28.198L81.144,28.9L81.85,28.904L81.853,28.201L81.148,28.198Z" style="fill-rule:nonzero;"/>
    </g>
    <g transform="matrix(1.32304,0,0,1.3204,0.00700028,-0.01529)">
        <path d="M79.098,28.923L79.804,28.923L79.804,28.22L78.511,28.22L78.511,28.806L79.098,28.923Z" style="fill-rule:nonzero;"/>
    </g>
    <g transform="matrix(1.32304,0,0,1.3204,0.00700028,-0.01529)">
        <rect x="72.634" y="28.22" width="1.293" height="0.585" style="fill-rule:nonzero;"/>
    </g>
    <g transform="matrix(1.32304,0,0,1.3204,0.00700028,-0.01529)">
        <path d="M70.694,28.161L70.69,28.863L71.395,28.867L71.399,28.164L70.694,28.161Z" style="fill-rule:nonzero;"/>
    </g>
    <g transform="matrix(1.32304,0,0,1.3204,0.00700028,-0.01529)">
        <path d="M96.099,27.534L96.095,28.237L96.8,28.24L96.804,27.538L96.099,27.534Z" style="fill-rule:nonzero;"/>
    </g>
    <g transform="matrix(1.32304,0,0,1.3204,0.00700028,-0.01529)">
        <path d="M92.15,27.738L92.147,28.441L92.852,28.444L92.856,27.742L92.15,27.738Z" style="fill-rule:nonzero;"/>
    </g>
    <g transform="matrix(1.32304,0,0,1.3204,0.00700028,-0.01529)">
        <rect x="73.927" y="27.518" width="4.584" height="0.703" style="fill-rule:nonzero;"/>
    </g>
    <g transform="matrix(1.32304,0,0,1.3204,0.00700028,-0.01529)">
        <path d="M71.239,27.433L71.236,28.135L71.941,28.139L71.944,27.436L71.239,27.433Z" style="fill-rule:nonzero;"/>
    </g>
    <g transform="matrix(1.32304,0,0,1.3204,0.00700028,-0.01529)">
        <path d="M92.849,26.932L92.849,27.635L94.142,27.635L94.142,27.049L93.437,26.932L92.849,26.932Z" style="fill-rule:nonzero;"/>
    </g>
    <g transform="matrix(1.32304,0,0,1.3204,0.00700028,-0.01529)">
        <path d="M89.677,26.833L89.673,27.535L90.379,27.539L90.382,26.836L89.677,26.833Z" style="fill-rule:nonzero;"/>
    </g>
    <g transform="matrix(1.32304,0,0,1.3204,0.00700028,-0.01529)">
        <rect x="84.975" y="26.347" width="0.705" height="1.874" style="fill-rule:nonzero;"/>
    </g>
    <g transform="matrix(1.32304,0,0,1.3204,0.00700028,-0.01529)">
        <path d="M81.802,27.635L81.802,26.23L81.096,26.23L81.096,26.932L80.391,26.932L80.509,26.23L79.804,26.23L79.804,25.644L79.098,25.644L79.098,26.23L73.339,26.23L73.222,26.932L79.098,26.932L79.098,27.518L80.391,27.518L80.391,28.22L81.096,28.22L81.096,27.518L81.802,27.635Z" style="fill-rule:nonzero;"/>
    </g>
    <g transform="matrix(1.32304,0,0,1.3204,0.00700028,-0.01529)">
        <rect x="71.929" y="26.932" width="1.293" height="0.585" style="fill-rule:nonzero;"/>
    </g>
    <g transform="matrix(1.32304,0,0,1.3204,0.00700028,-0.01529)">
        <path d="M94.056,26.364L94.053,27.067L94.758,27.071L94.761,26.368L94.056,26.364Z" style="fill-rule:nonzero;"/>
    </g>
    <g transform="matrix(1.32304,0,0,1.3204,0.00700028,-0.01529)">
        <path d="M89.061,26.169L89.058,26.872L89.763,26.876L89.766,26.173L89.061,26.169Z" style="fill-rule:nonzero;"/>
    </g>
    <g transform="matrix(1.32304,0,0,1.3204,0.00700028,-0.01529)">
        <path d="M91.584,25.573L91.58,26.275L92.285,26.279L92.289,25.576L91.584,25.573Z" style="fill-rule:nonzero;"/>
    </g>
    <g transform="matrix(1.32304,0,0,1.3204,0.00700028,-0.01529)">
        <path d="M88.33,25.626L88.327,26.329L89.032,26.333L89.035,25.63L88.33,25.626Z" style="fill-rule:nonzero;"/>
    </g>
    <g transform="matrix(1.32304,0,0,1.3204,0.00700028,-0.01529)">
        <rect x="85.68" y="25.058" width="0.588" height="1.288" style="fill-rule:nonzero;"/>
    </g>
    <g transform="matrix(1.32304,0,0,1.3204,0.00700028,-0.01529)">
        <path d="M80.547,25.453L80.543,26.155L81.248,26.159L81.252,25.456L80.547,25.453Z" style="fill-rule:nonzero;"/>
    </g>
    <g transform="matrix(1.32304,0,0,1.3204,0.00700028,-0.01529)">
        <path d="M90.969,24.911L90.965,25.613L91.671,25.617L91.674,24.915L90.969,24.911Z" style="fill-rule:nonzero;"/>
    </g>
    <g transform="matrix(1.32304,0,0,1.3204,0.00700028,-0.01529)">
        <path d="M79.815,24.909L79.812,25.612L80.517,25.615L80.521,24.913L79.815,24.909Z" style="fill-rule:nonzero;"/>
    </g>
    <g transform="matrix(1.32304,0,0,1.3204,0.00700028,-0.01529)">
        <path d="M93.375,24.432L93.371,25.134L94.077,25.138L94.08,24.435L93.375,24.432Z" style="fill-rule:nonzero;"/>
    </g>
    <g transform="matrix(1.32304,0,0,1.3204,0.00700028,-0.01529)">
        <path d="M90.12,24.252L90.116,24.955L90.821,24.958L90.825,24.256L90.12,24.252Z" style="fill-rule:nonzero;"/>
    </g>
    <g transform="matrix(1.32304,0,0,1.3204,0.00700028,-0.01529)">
        <path d="M86.289,24.456L86.286,25.158L86.991,25.162L86.995,24.459L86.289,24.456Z" style="fill-rule:nonzero;"/>
    </g>
    <g transform="matrix(1.32304,0,0,1.3204,0.00700028,-0.01529)">
        <path d="M80.595,24.179L80.592,24.882L81.297,24.885L81.3,24.183L80.595,24.179Z" style="fill-rule:nonzero;"/>
    </g>
    <g transform="matrix(1.32304,0,0,1.3204,0.00700028,-0.01529)">
        <path d="M92.759,23.653L92.756,24.355L93.461,24.359L93.465,23.656L92.759,23.653Z" style="fill-rule:nonzero;"/>
    </g>
    <g transform="matrix(1.32304,0,0,1.3204,0.00700028,-0.01529)">
        <path d="M89.506,23.706L89.502,24.409L90.208,24.413L90.211,23.71L89.506,23.706Z" style="fill-rule:nonzero;"/>
    </g>
    <g transform="matrix(1.32304,0,0,1.3204,0.00700028,-0.01529)">
        <path d="M86.95,23.611L86.946,24.314L87.652,24.317L87.655,23.615L86.95,23.611Z" style="fill-rule:nonzero;"/>
    </g>
    <g transform="matrix(1.32304,0,0,1.3204,0.00700028,-0.01529)">
        <path d="M82.389,24.356L81.802,24.356L81.802,24.941L81.096,24.941L81.096,25.644L81.802,25.644L81.802,26.23L82.389,26.23L82.389,24.941L83.094,24.941L83.094,23.653L82.389,23.653L82.389,24.356Z" style="fill-rule:nonzero;"/>
    </g>
    <g transform="matrix(1.32304,0,0,1.3204,0.00700028,-0.01529)">
        <path d="M81.142,23.685L81.138,24.388L81.844,24.392L81.847,23.689L81.142,23.685Z" style="fill-rule:nonzero;"/>
    </g>
    <g transform="matrix(1.32304,0,0,1.3204,0.00700028,-0.01529)">
        <path d="M79.864,23.636L79.86,24.339L80.566,24.342L80.569,23.64L79.864,23.636Z" style="fill-rule:nonzero;"/>
    </g>
    <g transform="matrix(1.32304,0,0,1.3204,0.00700028,-0.01529)">
        <path d="M92.146,23.11L92.142,23.812L92.847,23.816L92.851,23.113L92.146,23.11Z" style="fill-rule:nonzero;"/>
    </g>
    <g transform="matrix(1.32304,0,0,1.3204,0.00700028,-0.01529)">
        <path d="M87.612,22.882L87.608,23.585L88.313,23.588L88.317,22.886L87.612,22.882Z" style="fill-rule:nonzero;"/>
    </g>
    <g transform="matrix(1.32304,0,0,1.3204,0.00700028,-0.01529)">
        <path d="M83.084,22.887L83.08,23.589L83.785,23.593L83.789,22.89L83.084,22.887Z" style="fill-rule:nonzero;"/>
    </g>
    <g transform="matrix(1.32304,0,0,1.3204,0.00700028,-0.01529)">
        <path d="M81.805,22.955L81.801,23.658L82.506,23.661L82.51,22.959L81.805,22.955Z" style="fill-rule:nonzero;"/>
    </g>
    <g transform="matrix(1.32304,0,0,1.3204,0.00700028,-0.01529)">
        <path d="M80.526,23.022L80.522,23.725L81.228,23.729L81.231,23.026L80.526,23.022Z" style="fill-rule:nonzero;"/>
    </g>
    <g transform="matrix(1.32304,0,0,1.3204,0.00700028,-0.01529)">
        <path d="M91.53,22.447L91.526,23.149L92.231,23.153L92.235,22.45L91.53,22.447Z" style="fill-rule:nonzero;"/>
    </g>
    <g transform="matrix(1.32304,0,0,1.3204,0.00700028,-0.01529)">
        <path d="M88.159,22.271L88.156,22.973L88.861,22.977L88.865,22.274L88.159,22.271Z" style="fill-rule:nonzero;"/>
    </g>
    <g transform="matrix(1.32304,0,0,1.3204,0.00700028,-0.01529)">
        <path d="M82.353,22.344L82.349,23.046L83.055,23.05L83.058,22.347L82.353,22.344Z" style="fill-rule:nonzero;"/>
    </g>
    <g transform="matrix(1.32304,0,0,1.3204,0.00700028,-0.01529)">
        <path d="M81.074,22.411L81.07,23.114L81.775,23.118L81.779,22.415L81.074,22.411Z" style="fill-rule:nonzero;"/>
    </g>
    <g transform="matrix(1.32304,0,0,1.3204,0.00700028,-0.01529)">
        <path d="M88.939,21.657L88.936,22.36L89.641,22.363L89.644,21.661L88.939,21.657Z" style="fill-rule:nonzero;"/>
    </g>
    <g transform="matrix(1.32304,0,0,1.3204,0.00700028,-0.01529)">
        <path d="M82.389,21.78L83.094,21.78L83.094,21.077L81.096,21.077L81.096,21.78L81.802,21.78L81.802,22.365L82.389,22.365L82.389,21.78Z" style="fill-rule:nonzero;"/>
    </g>
    <g transform="matrix(1.32304,0,0,1.3204,0.00700028,-0.01529)">
        <path d="M89.487,21.047L89.483,21.749L90.188,21.753L90.192,21.05L89.487,21.047Z" style="fill-rule:nonzero;"/>
    </g>
    <g transform="matrix(1.32304,0,0,1.3204,0.00700028,-0.01529)">
        <path d="M85.072,21.051L85.068,21.753L85.773,21.757L85.777,21.054L85.072,21.051Z" style="fill-rule:nonzero;"/>
    </g>
    <g transform="matrix(1.32304,0,0,1.3204,0.00700028,-0.01529)">
        <path d="M84.387,21.077L83.682,21.077L83.682,21.78L83.094,21.78L83.094,22.365L83.682,22.365L83.682,23.068L84.387,23.068L84.387,22.365L84.975,22.365L85.092,21.78L84.387,21.78L84.387,21.077Z" style="fill-rule:nonzero;"/>
    </g>
    <g transform="matrix(1.32304,0,0,1.3204,0.00700028,-0.01529)">
        <path d="M85.737,20.437L85.733,21.14L86.438,21.143L86.442,20.441L85.737,20.437Z" style="fill-rule:nonzero;"/>
    </g>
    <g transform="matrix(1.32304,0,0,1.3204,0.00700028,-0.01529)">
        <path d="M84.459,20.389L84.455,21.091L85.16,21.095L85.164,20.392L84.459,20.389Z" style="fill-rule:nonzero;"/>
    </g>
    <g transform="matrix(1.32304,0,0,1.3204,0.00700028,-0.01529)">
        <path d="M80.509,20.375L79.216,20.375L79.216,21.077L81.096,21.077L81.096,20.492L80.509,20.375Z" style="fill-rule:nonzero;"/>
    </g>
    <g transform="matrix(1.32304,0,0,1.3204,0.00700028,-0.01529)">
        <path d="M86.281,19.826L86.278,20.529L86.983,20.533L86.986,19.83L86.281,19.826Z" style="fill-rule:nonzero;"/>
    </g>
    <g transform="matrix(1.32304,0,0,1.3204,0.00700028,-0.01529)">
        <path d="M85.004,19.777L85,20.48L85.705,20.483L85.709,19.781L85.004,19.777Z" style="fill-rule:nonzero;"/>
    </g>
    <g transform="matrix(1.32304,0,0,1.3204,0.00700028,-0.01529)">
        <rect x="126.111" y="36.183" width="1.292" height="0.703" style="fill-rule:nonzero;"/>
    </g>
    <g transform="matrix(1.32304,0,0,1.3204,0.00700028,-0.01529)">
        <path d="M127.436,35.522L127.432,36.225L128.138,36.228L128.141,35.526L127.436,35.522Z" style="fill-rule:nonzero;"/>
    </g>
    <g transform="matrix(1.32304,0,0,1.3204,0.00700028,-0.01529)">
        <path d="M137.276,35.012L137.276,33.607L136.688,33.607L136.688,32.319L135.983,32.319L135.983,31.031L134.69,31.031L134.69,33.021L135.278,33.021L135.278,34.309L135.983,34.309L135.983,35.597L136.688,35.597L136.688,36.885L137.981,36.885L137.981,35.012L137.276,35.012Z" style="fill-rule:nonzero;"/>
    </g>
    <g transform="matrix(1.32304,0,0,1.3204,0.00700028,-0.01529)">
        <rect x="126.698" y="33.607" width="0.705" height="1.288" style="fill-rule:nonzero;"/>
    </g>
    <g transform="matrix(1.32304,0,0,1.3204,0.00700028,-0.01529)">
        <rect x="125.405" y="33.607" width="0.706" height="1.288" style="fill-rule:nonzero;"/>
    </g>
    <g transform="matrix(1.32304,0,0,1.3204,0.00700028,-0.01529)">
        <rect x="128.109" y="33.607" width="0.587" height="1.991" style="fill-rule:nonzero;"/>
    </g>
    <g transform="matrix(1.32304,0,0,1.3204,0.00700028,-0.01529)">
        <rect x="139.979" y="33.021" width="3.879" height="1.288" style="fill-rule:nonzero;"/>
    </g>
    <g transform="matrix(1.32304,0,0,1.3204,0.00700028,-0.01529)">
        <rect x="120.117" y="30.913" width="1.41" height="2.693" style="fill-rule:nonzero;"/>
    </g>
    <g transform="matrix(1.32304,0,0,1.3204,0.00700028,-0.01529)">
        <path d="M132.105,31.031L131.987,31.616L131.987,32.319L131.4,32.319L131.4,33.607L130.694,33.607L130.694,34.895L130.107,34.895L129.989,35.597L129.989,36.885L131.4,36.885L131.4,35.597L131.987,35.597L131.987,34.309L132.692,34.309L132.692,33.021L133.398,33.021L133.398,31.031L132.105,31.031Z" style="fill-rule:nonzero;"/>
    </g>
    <g transform="matrix(1.32304,0,0,1.3204,0.00700028,-0.01529)">
        <path d="M122.82,30.913L122.82,34.192L122.115,34.192L122.115,34.895L121.527,34.895L121.409,35.597L120.822,35.597L120.117,35.48L120.117,36.885L122.115,36.885L122.115,36.183L122.82,36.183L122.82,35.597L123.407,35.597L123.407,34.895L124.113,34.895L124.113,30.913L122.82,30.913Z" style="fill-rule:nonzero;"/>
    </g>
    <g transform="matrix(1.32304,0,0,1.3204,0.00700028,-0.01529)">
        <path d="M118.824,30.913L112.242,30.913L112.242,32.201L117.531,32.201L117.531,33.606L116.826,33.489L116.826,34.192L116.238,34.192L116.238,34.895L114.828,34.895L114.828,35.48L112.242,35.48L112.242,36.768L114.828,36.768L115.533,36.885L115.533,36.183L116.826,36.183L116.826,35.48L117.531,35.48L117.531,34.895L118.119,34.895L118.119,34.192L118.824,34.192L118.824,30.913Z" style="fill-rule:nonzero;"/>
    </g>
    <g transform="matrix(1.32304,0,0,1.3204,0.00700028,-0.01529)">
        <path d="M139.392,30.328L137.276,30.328L137.276,32.436L139.392,32.436L139.392,30.328ZM138.686,31.733L137.981,31.733L137.981,31.031L138.686,31.031L138.686,31.733Z" style="fill-rule:nonzero;"/>
    </g>
    <g transform="matrix(1.32304,0,0,1.3204,0.00700028,-0.01529)">
        <rect x="113.065" y="22.365" width="0.705" height="1.405" style="fill-rule:nonzero;"/>
    </g>
    <g transform="matrix(1.32304,0,0,1.3204,0.00700028,-0.01529)">
        <rect x="110.479" y="22.365" width="0.588" height="1.405" style="fill-rule:nonzero;"/>
    </g>
    <g transform="matrix(1.32304,0,0,1.3204,0.00700028,-0.01529)">
        <rect x="115.768" y="21.077" width="0.588" height="2.693" style="fill-rule:nonzero;"/>
    </g>
    <g transform="matrix(1.32304,0,0,1.3204,0.00700028,-0.01529)">
        <rect x="112.477" y="21.077" width="0.588" height="1.288" style="fill-rule:nonzero;"/>
    </g>
    <g transform="matrix(1.32304,0,0,1.3204,0.00700028,-0.01529)">
        <path d="M109.809,21.83L109.806,22.532L110.511,22.536L110.515,21.833L109.809,21.83Z" style="fill-rule:nonzero;"/>
    </g>
    <g transform="matrix(1.32304,0,0,1.3204,0.00700028,-0.01529)">
        <rect x="108.481" y="21.077" width="1.293" height="0.703" style="fill-rule:nonzero;"/>
    </g>
    <g transform="matrix(1.32304,0,0,1.3204,0.00700028,-0.01529)">
        <rect x="115.063" y="19.789" width="0.705" height="1.288" style="fill-rule:nonzero;"/>
    </g>
    <g transform="matrix(1.32304,0,0,1.3204,0.00700028,-0.01529)">
        <path d="M111.907,20.421L111.903,21.123L112.608,21.127L112.612,20.424L111.907,20.421Z" style="fill-rule:nonzero;"/>
    </g>
    <g transform="matrix(1.32304,0,0,1.3204,0.00700028,-0.01529)">
        <path d="M111.057,19.709L111.053,20.411L111.759,20.415L111.762,19.712L111.057,19.709Z" style="fill-rule:nonzero;"/>
    </g>
    <g transform="matrix(1.32304,0,0,1.3204,0.00700028,-0.01529)">
        <rect x="114.475" y="18.501" width="0.588" height="1.288" style="fill-rule:nonzero;"/>
    </g>
    <g transform="matrix(1.32304,0,0,1.3204,0.00700028,-0.01529)">
        <rect x="109.774" y="19.087" width="1.293" height="0.703" style="fill-rule:nonzero;"/>
    </g>
    <g transform="matrix(1.32304,0,0,1.3204,0.00700028,-0.01529)">
        <rect x="108.481" y="18.501" width="1.293" height="0.585" style="fill-rule:nonzero;"/>
    </g>
    <g transform="matrix(1.32304,0,0,1.3204,0.00700028,-0.01529)">
        <path d="M113.869,17.688L113.865,18.39L114.57,18.394L114.574,17.691L113.869,17.688Z" style="fill-rule:nonzero;"/>
    </g>
    <g transform="matrix(1.32304,0,0,1.3204,0.00700028,-0.01529)">
        <path d="M113.065,17.213L112.477,17.096L112.477,17.799L113.77,17.799L113.77,17.213L113.065,17.213Z" style="fill-rule:nonzero;"/>
    </g>
    <g transform="matrix(1.32304,0,0,1.3204,0.00700028,-0.01529)">
        <rect x="111.184" y="16.511" width="1.293" height="0.585" style="fill-rule:nonzero;"/>
    </g>
    <g transform="matrix(1.32304,0,0,1.3204,0.00700028,-0.01529)">
        <rect x="108.481" y="15.808" width="2.703" height="0.703" style="fill-rule:nonzero;"/>
    </g>
</svg>
