<svg width="238" height="100" viewBox="0 0 238 100" fill="none" xmlns="http://www.w3.org/2000/svg">
<path d="M102.234 42.916H101.555H100.989H100.31V43.5988H100.989H101.555H102.234H102.801H103.48V42.916H102.801H102.234Z" fill="black"/>
<path d="M83.3291 42.916H82.7631V43.485H83.3291H84.0084V42.916H83.3291Z" fill="black"/>
<path d="M70.8299 42.6954L70.8264 43.3782L71.5056 43.3817L71.5091 42.6989L70.8299 42.6954Z" fill="black"/>
<path d="M69.58 42.7928L69.5765 43.4756L70.2557 43.4791L70.2592 42.7963L69.58 42.7928Z" fill="black"/>
<path d="M68.3315 42.7755L68.328 43.4583L69.0072 43.4617L69.0107 42.779L68.3315 42.7755Z" fill="black"/>
<path d="M104.725 42.3458H104.046V41.6631H103.48H102.801V42.3458H103.48V42.9148H104.046L104.725 43.0286H105.404H105.97V42.3458H105.404H104.725Z" fill="black"/>
<path d="M82.135 42.2159L82.1315 42.8987L82.8107 42.9022L82.8142 42.2194L82.135 42.2159Z" fill="black"/>
<path d="M71.4053 42.1305L71.4018 42.8132L72.0811 42.8167L72.0846 42.134L71.4053 42.1305Z" fill="black"/>
<path d="M70.1569 42.1163L70.1534 42.7991L70.8326 42.8026L70.8361 42.1198L70.1569 42.1163Z" fill="black"/>
<path d="M68.9077 42.099L68.9042 42.7817L69.5834 42.7852L69.5869 42.1025L68.9077 42.099Z" fill="black"/>
<path d="M67.6592 42.0822L67.6557 42.7649L68.3349 42.7684L68.3384 42.0856L67.6592 42.0822Z" fill="black"/>
<path d="M106.65 41.7769L105.971 41.6631V42.3458H106.65H107.216H107.895V41.7769H107.216H106.65Z" fill="black"/>
<path d="M72.0952 41.4571L72.0917 42.1399L72.7709 42.1434L72.7744 41.4606L72.0952 41.4571Z" fill="black"/>
<path d="M70.846 41.4398L70.8425 42.1226L71.5218 42.1261L71.5253 41.4433L70.846 41.4398Z" fill="black"/>
<path d="M69.5975 41.4225L69.594 42.1052L70.2733 42.1087L70.2768 41.426L69.5975 41.4225Z" fill="black"/>
<path d="M68.3476 41.5199L68.3441 42.2026L69.0234 42.2061L69.0269 41.5234L68.3476 41.5199Z" fill="black"/>
<path d="M67.0992 41.5028L67.0957 42.1855L67.7749 42.189L67.7784 41.5063L67.0992 41.5028Z" fill="black"/>
<path d="M107.895 41.0952V41.778H108.461H109.14V41.0952H108.461H107.895Z" fill="black"/>
<path d="M102.235 41.6642H102.801V41.0952H102.235H101.556V41.6642H102.235Z" fill="black"/>
<path d="M71.4222 40.8776L71.4187 41.5603L72.0979 41.5638L72.1014 40.8811L71.4222 40.8776Z" fill="black"/>
<path d="M70.173 40.8602L70.1695 41.543L70.8487 41.5465L70.8522 40.8637L70.173 40.8602Z" fill="black"/>
<path d="M68.9245 40.8434L68.921 41.5261L69.6002 41.5296L69.6037 40.8469L68.9245 40.8434Z" fill="black"/>
<path d="M67.6753 40.8261L67.6718 41.5088L68.3511 41.5123L68.3546 40.8295L67.6753 40.8261Z" fill="black"/>
<path d="M66.4261 40.809L66.4226 41.4917L67.1019 41.4952L67.1054 40.8125L66.4261 40.809Z" fill="black"/>
<path d="M70.8629 40.184L70.8594 40.8667L71.5386 40.8702L71.5421 40.1874L70.8629 40.184Z" fill="black"/>
<path d="M69.6144 40.1671L69.6109 40.8499L70.2901 40.8533L70.2936 40.1706L69.6144 40.1671Z" fill="black"/>
<path d="M68.3645 40.2638L68.361 40.9465L69.0402 40.95L69.0437 40.2673L68.3645 40.2638Z" fill="black"/>
<path d="M67.1153 40.2467L67.1118 40.9294L67.791 40.9329L67.7945 40.2502L67.1153 40.2467Z" fill="black"/>
<path d="M110.386 39.8436H109.706H109.14H108.461H107.895H107.216H106.65H105.97H105.404H104.725H104.159H103.48H102.801H102.235H101.555H100.989H100.31H99.7441V39.1609H100.31V38.4781L100.989 38.5919V37.9092H101.555L101.669 37.2264H102.235V36.6575H102.914V35.9747H103.48V35.4058H104.159V34.723H104.725V34.1541H105.404V33.4714H106.084V32.9024H106.65V32.2197H107.329V31.6507H107.895V30.968H108.574V30.399H109.14V29.7163H109.819V29.1473V28.4646V27.8956V27.2129H109.253V26.6439H108.574L107.895 26.5301H107.329V25.9612H106.65H106.084H105.404H104.838H104.159H103.593H102.914H102.348H101.669V26.5301H100.989H100.423V27.2129H99.7441H99.178V27.7818H98.4988H97.9328V27.2129H97.2535V26.5301V25.8474H96.6875V25.2784V24.5957H96.0082V24.0267H95.4422V23.344H94.763V22.775H94.1969V22.0923H93.5177H92.9516V21.4095H92.2724H91.7064V20.8406H91.0271H90.3479H89.7818V20.1578H89.1026H88.5366H87.8573H87.2913H86.6121V19.5889L86.046 19.4751H85.3668H84.8007H84.1215H83.5555H82.8762H82.197H81.6309H80.9517H80.3857H79.7064H79.1404H78.4611H77.8951H77.2159V20.1578H76.5366H75.9706H75.2914H74.7253V20.7268H74.0461H73.48H72.8008V21.4095H72.2348V21.9785H71.5555H70.9895L70.8763 22.6612H70.3103L69.631 22.5474V23.2302H69.065V23.9129H68.3857V24.4819H67.8197V25.1646H67.1405V25.7336H66.5744L66.4612 26.4163V26.9853H65.8952V27.668V28.237H65.2159V28.9197V29.4887H64.6499V30.1714V30.7404V31.4231H65.2159V30.7404V30.1714H65.8952V29.4887V28.9197H66.4612V28.237V27.668H67.1405V26.9853V26.4163H67.8197V25.7336H68.3857V25.1646H69.065V24.4819H69.631V23.9129H70.3103V23.2302H70.8763H71.5555V22.6612H72.2348H72.8008V21.9785H73.48H74.0461H74.7253H75.2914H75.9706H76.5366H77.2159H77.7819H78.4611H79.1404H79.7064H80.3857V21.4095H79.7064H79.1404H78.4611H77.8951H77.2159H76.5366H75.9706H75.2914V20.7268H75.9706H76.5366H77.2159H77.8951V20.1578H78.4611H79.1404H79.7064H80.3857H80.9517H81.6309H82.197H82.8762H83.4423H84.1215H84.8007H85.3668H86.046V20.8406H86.6121V21.4095H87.2913V20.8406H87.8573V21.4095H88.5366H89.1026H89.7818H90.3479H91.0271V22.0923V22.6612H91.5932L92.2724 22.775H92.9516H93.5177V23.344H94.1969V24.0267H94.763V24.5957H95.4422V25.2784H96.0082V25.8474V26.5301V27.0991H95.4422L95.329 27.7818H96.0082H96.6875H97.2535V28.4646V29.0335H97.9328H98.4988V28.4646H99.178H99.7441V27.7818H100.423H100.989V27.2129H101.669H102.348V26.5301H102.914H103.593H104.159H104.838H105.404H106.084H106.65V27.2129H107.329H107.895H108.574V27.8956H109.14V28.4646H108.574H107.895H107.329H106.65V29.1473H106.084H105.404H104.838V29.7163H104.159H103.48V30.399H102.914L102.235 30.2852V30.968H101.669V31.6507H100.989V32.2197H100.423V32.9024H99.7441V33.4714H99.178L99.0648 34.1541H98.4988V34.723H97.8195V35.4058H97.2535V35.9747H96.5743V36.6575H96.0082V37.2264H95.329V37.9092H94.6497V38.4781H94.0837V39.1609H93.4045V39.7298H92.8384V40.4126H92.1592V40.9815H91.5932V41.6643H90.9139H90.3479L90.2347 42.2332H89.6686H88.9894V42.916H88.4234H87.7441H87.1781V43.4849H86.4989H85.9328H85.2536H84.6875H84.0083V44.1677H84.5743H85.2536H85.9328H86.4989H87.1781H87.7441H88.4234H88.9894H89.6686H90.2347H90.9139H91.48H92.1592H92.8384H93.4045H94.0837H94.6497H95.329H95.895H96.5743H97.1403H97.8195H98.3856H99.0648H99.7441H100.31V43.5987H99.7441H99.0648H98.4988H97.8195H97.1403H96.5743H95.895H95.329H94.6497H94.0837H93.4045H92.8384V42.916V42.2332H93.4045V41.6643H94.0837V40.9815H94.6497V40.4126H95.329H95.895H96.5743H97.2535H97.8195H98.4988H99.0648V41.0953H99.7441H100.31H100.989H101.555V40.4126H102.235H102.801H103.48H104.159H104.725H105.404H105.97H106.65H107.216H107.895H108.461L109.14 40.5264V41.0953H109.706H110.386V41.7781V42.347V43.0298H109.706V43.5987H109.14V44.2815H108.461V44.8504H107.895V45.5332H107.216H106.65L106.536 46.1021H105.97H105.291H104.725V46.7849H104.046H103.48H102.801V47.3538H102.235H101.555H100.989L100.876 48.0366H100.31H99.6309H99.0648H98.3856V48.6055H97.8195H97.1403H96.5743H95.895V49.2883H95.329H94.6497L93.9705 49.1745V49.8572H93.4045V50.54H93.9705H94.6497H95.2158H95.895H96.5743H97.1403H97.8195V49.8572H98.3856H99.0648V49.2883V48.6055H99.6309H100.31H100.876H101.555V48.0366H102.235H102.801H103.48V47.3538H104.046H104.725H105.291V46.7849H105.97H106.536H107.216V46.1021H107.895H108.461V45.5332H109.14V44.8504H109.706V44.2815H110.386V43.5987H110.952V43.0298V42.347V41.7781L111.065 41.0953V40.5264H110.386V39.8436Z" fill="black"/>
<path d="M70.1898 39.6046L70.1863 40.2874L70.8656 40.2908L70.8691 39.6081L70.1898 39.6046Z" fill="black"/>
<path d="M68.9406 39.5875L68.9371 40.2703L69.6164 40.2738L69.6199 39.591L68.9406 39.5875Z" fill="black"/>
<path d="M67.6921 39.5702L67.6886 40.2529L68.3679 40.2564L68.3714 39.5737L67.6921 39.5702Z" fill="black"/>
<path d="M66.443 39.5533L66.4395 40.2361L67.1187 40.2396L67.1222 39.5568L66.443 39.5533Z" fill="black"/>
<path d="M69.6305 38.911L69.627 39.5938L70.3062 39.5972L70.3097 38.9145L69.6305 38.911Z" fill="black"/>
<path d="M68.3813 38.8939L68.3778 39.5767L69.0571 39.5802L69.0606 38.8974L68.3813 38.8939Z" fill="black"/>
<path d="M67.1321 38.9911L67.1286 39.6738L67.8079 39.6773L67.8114 38.9946L67.1321 38.9911Z" fill="black"/>
<path d="M72.7043 38.3829L72.7008 39.0657L73.3801 39.0692L73.3836 38.3864L72.7043 38.3829Z" fill="black"/>
<path d="M70.1968 38.3646V39.0474H70.8761V39.6163H71.4421V40.299H72.1214V40.868H72.6874V41.5507H73.3666V42.2335H73.9327V41.5507V40.868V40.299H74.6119V39.6163V39.0474H73.9327H73.3666V39.6163V40.299H72.6874V39.6163H72.1214V39.0474H71.4421V38.3646V37.7957H70.8761V38.3646H70.1968Z" fill="black"/>
<path d="M68.9575 38.3314L68.954 39.0142L69.6333 39.0177L69.6368 38.3349L68.9575 38.3314Z" fill="black"/>
<path d="M67.7083 38.3146L67.7048 38.9973L68.3841 39.0008L68.3876 38.3181L67.7083 38.3146Z" fill="black"/>
<path d="M66.4598 38.3002L66.4563 38.9829L67.1356 38.9864L67.1391 38.3037L66.4598 38.3002Z" fill="black"/>
<path d="M69.6473 37.6552L69.6438 38.3379L70.3231 38.3414L70.3266 37.6586L69.6473 37.6552Z" fill="black"/>
<path d="M68.3982 37.641L68.3947 38.3237L69.0739 38.3272L69.0774 37.6445L68.3982 37.641Z" fill="black"/>
<path d="M67.036 37.621L67.0325 38.3037L67.7117 38.3072L67.7152 37.6245L67.036 37.621Z" fill="black"/>
<path d="M72.6879 37.1135H72.1219V37.7963V38.3652H72.6879V37.7963V37.1135Z" fill="black"/>
<path d="M68.9736 37.076L68.9701 37.7588L69.6494 37.7623L69.6529 37.0795L68.9736 37.076Z" fill="black"/>
<path d="M67.7251 37.0614L67.7216 37.7441L68.4009 37.7476L68.4044 37.0649L67.7251 37.0614Z" fill="black"/>
<path d="M81.5177 36.5426V35.8599V35.1772V34.4944V33.8117V33.1289H80.8384V32.4462V31.7634H80.1592V31.0807H79.4799H78.8007V30.3979H78.1215H77.4422H76.763H76.0837H75.4045V31.0807H74.7252H74.046V31.7634H73.3668V32.4462V33.1289H72.6875V33.8117V34.4944V35.1772V35.8599V36.5426H73.3668V37.2254V37.9081H74.046V38.5909V39.2736H74.7252V38.5909H75.4045H76.0837V37.9081H76.763H77.4422H78.1215V37.2254H78.8007H79.4799H80.1592H80.8384H81.5177H82.1969V36.5426H81.5177ZM75.8573 34.0393V33.3565H76.5366H77.2158V34.0393V34.722H76.5366H75.8573V34.0393Z" fill="black"/>
<path d="M68.3013 36.3822L68.2978 37.0649L68.977 37.0684L68.9805 36.3857L68.3013 36.3822Z" fill="black"/>
<path d="M84.6873 35.9734V35.2906V34.7217V34.0389V33.3562V32.7872V32.1045H84.0081V32.7872V33.3562V34.0389V34.6079V35.2906V35.9734V36.5423H84.6873H85.2533H85.9326V35.9734H85.2533H84.6873Z" fill="black"/>
<path d="M72.1218 35.8617V35.1789V34.61V33.9272V33.3583V32.6755H71.5557V33.3583V33.9272L71.4425 34.61V35.1789V35.8617V36.5444V37.1134H72.1218V36.5444V35.8617Z" fill="black"/>
<path d="M85.9331 35.2927V35.9755H86.4991H87.1784V35.2927H86.6123H85.9331Z" fill="black"/>
<path d="M87.1781 34.7219V35.2909H87.8573H88.4234V34.7219H87.8573H87.1781Z" fill="black"/>
<path d="M88.423 34.0398V34.7225H89.1023H89.6683V34.0398H89.1023H88.423Z" fill="black"/>
<path d="M89.6687 33.4717V34.0406H90.348H90.914V33.4717H90.348H89.6687Z" fill="black"/>
<path d="M82.7628 34.0413V34.6102V35.293V35.9757V36.5446V37.2274H82.1968V37.7963H82.7628H83.4421V37.2274V36.5446V35.9757V35.293V34.6102V34.0413V33.3585V32.7896H82.7628V33.3585V34.0413Z" fill="black"/>
<path d="M90.9459 32.8031L90.9424 33.4858L91.6217 33.4893L91.6252 32.8066L90.9459 32.8031Z" fill="black"/>
<path d="M91.593 32.2188V32.7877H92.2723H92.8383V32.2188H92.2723H91.593Z" fill="black"/>
<path d="M82.1968 32.7883H82.7628V32.1056V31.5366H82.1968V32.1056V32.7883Z" fill="black"/>
<path d="M72.8011 32.1051V31.4224H72.1219V32.1051V32.6741H72.8011V32.1051Z" fill="black"/>
<path d="M70.1972 32.6734V33.3562V33.9251V34.6079V35.1768V35.8596V36.4285H69.6312V37.1113H70.1972V37.794H70.8765V37.1113V36.5423V35.8596V35.1768V34.6079V33.9251V33.3562V32.6734V32.1045H70.3104L70.1972 32.6734Z" fill="black"/>
<path d="M92.8359 31.5162L92.8324 32.199L93.5116 32.2025L93.5151 31.5197L92.8359 31.5162Z" fill="black"/>
<path d="M93.5173 30.9688V31.5377H94.0834H94.7626V30.9688H94.0834H93.5173Z" fill="black"/>
<path d="M89.1027 30.8545H88.4234H87.8574V31.5372H88.4234H89.1027H89.6687H90.3479V30.9683L89.6687 30.8545H89.1027Z" fill="black"/>
<path d="M84.1217 30.8545H83.4424V31.5372V32.1062H84.0085L84.1217 31.5372V30.8545Z" fill="black"/>
<path d="M81.5469 30.8539L81.5434 31.5366L82.2226 31.5401L82.2261 30.8574L81.5469 30.8539Z" fill="black"/>
<path d="M72.804 30.7367L72.8005 31.4194L73.4797 31.4229L73.4832 30.7402L72.804 30.7367Z" fill="black"/>
<path d="M70.8762 31.4234V32.1062H71.5554V31.4234V30.8545H70.8762V31.4234Z" fill="black"/>
<path d="M94.7258 30.2286L94.7223 30.9114L95.4015 30.9149L95.405 30.2321L94.7258 30.2286Z" fill="black"/>
<path d="M90.3481 30.2866V30.9694H91.0273H91.5934V30.2866H91.0273H90.3481Z" fill="black"/>
<path d="M87.2321 30.243L87.2286 30.9258L87.9078 30.9293L87.9113 30.2465L87.2321 30.243Z" fill="black"/>
<path d="M82.8606 30.243L82.8571 30.9258L83.5364 30.9293L83.5399 30.2465L82.8606 30.243Z" fill="black"/>
<path d="M80.9876 30.1605L80.9841 30.8433L81.6633 30.8468L81.6668 30.164L80.9876 30.1605Z" fill="black"/>
<path d="M73.3801 30.1747L73.3766 30.8574L74.0559 30.8609L74.0594 30.1782L73.3801 30.1747Z" fill="black"/>
<path d="M71.5071 30.0917L71.5036 30.7744L72.1828 30.7779L72.1863 30.0952L71.5071 30.0917Z" fill="black"/>
<path d="M95.3287 29.7156V30.2845H96.0079H96.574L96.6872 29.7156H96.0079H95.3287Z" fill="black"/>
<path d="M91.593 29.6016V30.2843H92.2723H92.8383V29.7154L92.2723 29.6016H91.593Z" fill="black"/>
<path d="M86.5591 29.5497L86.5556 30.2324L87.2348 30.2359L87.2383 29.5532L86.5591 29.5497Z" fill="black"/>
<path d="M82.1876 29.5497L82.1841 30.2324L82.8634 30.2359L82.8669 29.5532L82.1876 29.5497Z" fill="black"/>
<path d="M80.2721 30.2843H80.9514V29.6016H80.2721H79.7061V30.1705L80.2721 30.2843Z" fill="black"/>
<path d="M75.2914 30.1705V29.6016H74.6122H74.0462V30.1705H74.6122H75.2914Z" fill="black"/>
<path d="M72.1963 29.5294L72.1928 30.2122L72.872 30.2157L72.8755 29.5329L72.1963 29.5294Z" fill="black"/>
<path d="M96.6164 28.9415L96.6129 29.6243L97.2922 29.6278L97.2957 28.945L96.6164 28.9415Z" fill="black"/>
<path d="M92.8689 29.0045L92.8654 29.6873L93.5446 29.6907L93.5481 29.008L92.8689 29.0045Z" fill="black"/>
<path d="M76.5364 29.6022H77.2157H77.7817H78.4609H79.027H79.7062V28.9194H79.027H78.4609H77.7817H77.2157H76.5364H75.9704H75.2911V29.6022H75.9704H76.5364Z" fill="black"/>
<path d="M72.7724 28.8531L72.7689 29.5359L73.4482 29.5394L73.4517 28.8566L72.7724 28.8531Z" fill="black"/>
<path d="M93.5173 28.3513V29.0341H94.0834H94.7626V28.4651L94.0834 28.3513H93.5173Z" fill="black"/>
<path d="M90.3228 28.3451L90.3193 29.0278L90.9986 29.0313L91.0021 28.3486L90.3228 28.3451Z" fill="black"/>
<path d="M86.6123 28.3495V27.7805H85.9331V28.3495V29.0322V29.6012H86.6123V29.0322V28.3495Z" fill="black"/>
<path d="M82.8759 29.0328V28.3501V27.6673H82.1967V28.3501H81.5174L81.6306 27.6673H80.9514V27.0984H80.2722V27.6673H79.7061H79.0269H78.4608H77.7816H77.2156H76.5363H75.9703H75.2911H74.725L74.6118 28.3501H75.2911H75.9703H76.5363H77.2156H77.7816H78.4608H79.0269H79.7061H80.2722V28.919H80.9514H81.5174V29.6018H82.1967V28.919L82.8759 29.0328Z" fill="black"/>
<path d="M73.3668 28.3513V28.9203H74.0461H74.6121V28.3513H74.0461H73.3668Z" fill="black"/>
<path d="M94.7595 27.7174L94.756 28.4001L95.4352 28.4036L95.4387 27.7209L94.7595 27.7174Z" fill="black"/>
<path d="M89.7635 27.6517L89.76 28.3345L90.4392 28.338L90.4427 27.6552L89.7635 27.6517Z" fill="black"/>
<path d="M92.2127 27.058L92.2092 27.7407L92.8884 27.7442L92.8919 27.0615L92.2127 27.058Z" fill="black"/>
<path d="M89.0905 27.0721L89.087 27.7549L89.7662 27.7584L89.7697 27.0756L89.0905 27.0721Z" fill="black"/>
<path d="M87.1778 27.0995V26.5305H86.6118V27.0995V27.7822H87.1778V27.0995Z" fill="black"/>
<path d="M81.5967 26.972L81.5932 27.6548L82.2725 27.6583L82.276 26.9755L81.5967 26.972Z" fill="black"/>
<path d="M91.6534 26.4784L91.6499 27.1611L92.3291 27.1646L92.3326 26.4819L91.6534 26.4784Z" fill="black"/>
<path d="M80.9237 26.3929L80.9202 27.0757L81.5995 27.0792L81.603 26.3964L80.9237 26.3929Z" fill="black"/>
<path d="M94.1026 25.8849L94.0991 26.5676L94.7784 26.5711L94.7819 25.8884L94.1026 25.8849Z" fill="black"/>
<path d="M90.9804 25.7848L90.9769 26.4675L91.6561 26.471L91.6596 25.7883L90.9804 25.7848Z" fill="black"/>
<path d="M87.2335 25.8475L87.23 26.5303L87.9092 26.5338L87.9127 25.851L87.2335 25.8475Z" fill="black"/>
<path d="M81.6136 25.7164L81.6101 26.3992L82.2893 26.4027L82.2928 25.7199L81.6136 25.7164Z" fill="black"/>
<path d="M93.5433 25.1913L93.5398 25.874L94.219 25.8775L94.2225 25.1948L93.5433 25.1913Z" fill="black"/>
<path d="M90.421 25.2057L90.4175 25.8884L91.0968 25.8919L91.1003 25.2092L90.421 25.2057Z" fill="black"/>
<path d="M87.8097 25.1713L87.8062 25.854L88.4854 25.8575L88.4889 25.1748L87.8097 25.1713Z" fill="black"/>
<path d="M83.442 25.8461H82.876V26.415H82.1968V27.0978H82.876V27.6667H83.442V27.0978V26.415H84.1213V25.8461V25.1633H83.442V25.8461Z" fill="black"/>
<path d="M82.189 25.1542L82.1855 25.8369L82.8648 25.8404L82.8683 25.1577L82.189 25.1542Z" fill="black"/>
<path d="M80.9405 25.1371L80.937 25.8198L81.6163 25.8233L81.6198 25.1406L80.9405 25.1371Z" fill="black"/>
<path d="M92.8703 24.6119L92.8668 25.2947L93.546 25.2982L93.5495 24.6154L92.8703 24.6119Z" fill="black"/>
<path d="M88.4995 24.4979L88.496 25.1807L89.1753 25.1842L89.1788 24.5014L88.4995 24.4979Z" fill="black"/>
<path d="M84.1281 24.4947L84.1246 25.1775L84.8038 25.181L84.8073 24.4982L84.1281 24.4947Z" fill="black"/>
<path d="M82.8789 24.4779L82.8754 25.1606L83.5546 25.1641L83.5581 24.4814L82.8789 24.4779Z" fill="black"/>
<path d="M81.6297 24.4606L81.6262 25.1433L82.3054 25.1468L82.3089 24.4641L81.6297 24.4606Z" fill="black"/>
<path d="M92.311 23.9183L92.3075 24.6011L92.9867 24.6046L92.9902 23.9218L92.311 23.9183Z" fill="black"/>
<path d="M89.075 23.9325L89.0715 24.6152L89.7508 24.6187L89.7543 23.936L89.075 23.9325Z" fill="black"/>
<path d="M83.4544 23.9156L83.4509 24.5984L84.1301 24.6019L84.1336 23.9191L83.4544 23.9156Z" fill="black"/>
<path d="M82.2059 23.8983L82.2024 24.5811L82.8816 24.5845L82.8851 23.9018L82.2059 23.8983Z" fill="black"/>
<path d="M89.7649 23.2591L89.7614 23.9419L90.4406 23.9454L90.4441 23.2626L89.7649 23.2591Z" fill="black"/>
<path d="M83.442 23.3431H84.1213V22.6604H83.442H82.876H82.1968V23.3431H82.876V23.9121H83.442V23.3431Z" fill="black"/>
<path d="M90.3403 22.6937L90.3368 23.3765L91.0161 23.38L91.0196 22.6972L90.3403 22.6937Z" fill="black"/>
<path d="M85.9696 22.5797L85.9661 23.2625L86.6453 23.2659L86.6488 22.5832L85.9696 22.5797Z" fill="black"/>
<path d="M85.3671 22.6604H84.6878V23.3431H84.1218V23.9121H84.6878V24.5948H85.3671V23.9121H85.9331L86.0463 23.3431H85.3671V22.6604Z" fill="black"/>
<path d="M86.6587 22.0175L86.6552 22.7002L87.3344 22.7037L87.3379 22.0209L86.6587 22.0175Z" fill="black"/>
<path d="M85.4095 22.0004L85.406 22.6831L86.0853 22.6866L86.0888 22.0039L85.4095 22.0004Z" fill="black"/>
<path d="M81.6307 21.978H80.9515H80.3854V22.6608H80.9515H81.6307H82.1968V22.0918L81.6307 21.978Z" fill="black"/>
<path d="M87.2349 21.3409L87.2314 22.0237L87.9106 22.0272L87.9141 21.3444L87.2349 21.3409Z" fill="black"/>
<path d="M85.9864 21.3241L85.9829 22.0068L86.6622 22.0103L86.6657 21.3276L85.9864 21.3241Z" fill="black"/>
<path d="M125.556 37.3391V38.0219H126.122H126.801V37.3391H126.122H125.556Z" fill="black"/>
<path d="M126.826 36.7023L126.822 37.385L127.501 37.3885L127.505 36.7058L126.826 36.7023Z" fill="black"/>
<path d="M136.31 35.5191V34.8364H135.744V34.2675V33.5847H135.064V32.902V32.333H134.498H133.819V32.902V33.5847V34.2675H134.385V34.8364V35.5191H135.064V36.2019V36.7708H135.744V37.4536V38.0225H136.31H136.989V37.4536V36.7708V36.2019H136.31V35.5191Z" fill="black"/>
<path d="M126.8 35.5189V34.8362H126.121V35.5189V36.0879H126.8V35.5189Z" fill="black"/>
<path d="M125.555 35.5189V34.8362H124.876V35.4051V36.0879H125.555V35.5189Z" fill="black"/>
<path d="M127.48 35.5189V36.0879V36.7706H128.046V36.0879V35.5189V34.8362H127.48V35.5189Z" fill="black"/>
<path d="M142.084 34.2681H141.405H140.839H140.159H139.48H138.914V34.837V35.5198H139.48H140.159H140.839H141.405H142.084H142.65V34.9508V34.2681H142.084Z" fill="black"/>
<path d="M121.14 34.8359V34.1532V33.4704V32.9015V32.2188H120.461H119.782V32.9015V33.4704V34.1532V34.8359H120.461H121.14Z" fill="black"/>
<path d="M131.329 32.333L131.216 32.902V33.5847H130.65V34.2675V34.8364H129.97V35.5191V36.0881H129.404L129.291 36.7708V37.4536V38.0225H129.97H130.65V37.4536V36.7708H131.216V36.0881V35.5191H131.895V34.8364V34.2675H132.574V33.5847V32.902V32.333H131.895H131.329Z" fill="black"/>
<path d="M122.386 32.2188V32.9015V33.5842V34.1532V34.8359V35.4049H121.706V36.0876H121.14L121.027 36.7704H120.461L119.782 36.6566V37.3393V38.0221H120.461H121.027H121.706V37.3393H122.386V36.7704H122.952V36.0876H123.631V35.4049V34.8359V34.1532V33.5842V32.9015V32.2188H123.065H122.386Z" fill="black"/>
<path d="M117.291 32.2188H116.612H116.046H115.367H114.801H114.121H113.442H112.876H112.197V32.7877V33.4704H112.876H113.442H114.121H114.801H115.367H116.046H116.612H117.291V34.1532V34.8359L116.612 34.7221V35.4049H116.046V36.0876H115.367H114.687V36.6566H114.121H113.442H112.876H112.197V37.3393V37.9083H112.763H113.442H114.121H114.687L115.367 38.0221V37.3393H116.046H116.612V36.6566H117.291V36.0876H117.857V35.4049H118.536V34.8359V34.1532V33.4704V32.9015V32.2188H117.97H117.291Z" fill="black"/>
<path d="M136.989 31.6509H136.31V32.3336V33.0164V33.6991H136.989H137.668H138.347V33.0164V32.3336V31.6509H137.668H136.989ZM137.668 33.0164H136.989V32.3336H137.668V33.0164Z" fill="black"/>
<path d="M112.989 24.5961V25.2788H113.669V24.5961V23.9133H112.989V24.5961Z" fill="black"/>
<path d="M110.499 24.5961V25.2788H111.065V24.5961V23.9133H110.499V24.5961Z" fill="black"/>
<path d="M115.593 22.6604V23.3431V24.0259V24.5948V25.2776H116.159V24.5948V24.0259V23.3431V22.6604H115.593Z" fill="black"/>
<path d="M112.99 22.6604H112.424V23.3431V23.9121H112.99V23.3431V22.6604Z" fill="black"/>
<path d="M109.872 23.2706L109.868 23.9534L110.548 23.9569L110.551 23.2741L109.872 23.2706Z" fill="black"/>
<path d="M109.254 22.6604H108.574V23.3431H109.254H109.82V22.6604H109.254Z" fill="black"/>
<path d="M115.593 21.4102H114.914V22.0929V22.6619H115.593V22.0929V21.4102Z" fill="black"/>
<path d="M111.8 21.9918L111.797 22.6746L112.476 22.6781L112.48 21.9953L111.8 21.9918Z" fill="black"/>
<path d="M111.127 21.3981L111.124 22.0808L111.803 22.0843L111.807 21.4016L111.127 21.3981Z" fill="black"/>
<path d="M114.914 20.1572H114.348V20.7262V21.4089H114.914V20.7262V20.1572Z" fill="black"/>
<path d="M110.499 20.7253H109.819V21.4081H110.499H111.065V20.7253H110.499Z" fill="black"/>
<path d="M109.254 20.1572H108.574V20.7262H109.254H109.82V20.1572H109.254Z" fill="black"/>
<path d="M113.649 19.443L113.645 20.1257L114.325 20.1292L114.328 19.4465L113.649 19.443Z" fill="black"/>
<path d="M112.99 18.9068L112.424 18.793V19.4757H112.99H113.669V18.9068H112.99Z" fill="black"/>
<path d="M111.744 18.2222H111.178V18.7911H111.744H112.423V18.2222H111.744Z" fill="black"/>
<path d="M110.499 17.54H109.82H109.254H108.574V18.2228H109.254H109.82H110.499H111.178V17.54H110.499Z" fill="black"/>
</svg>
