<svg width="24" height="24" viewBox="0 0 24 24" fill="none" xmlns="http://www.w3.org/2000/svg">
<path fill-rule="evenodd" clip-rule="evenodd" d="M11.4434 19.4783L7.11528 21.8562C6.53065 22.1774 5.80756 21.9425 5.5002 21.3316C5.37781 21.0883 5.33558 20.8096 5.38004 20.5387L6.20664 15.5023C6.27317 15.0969 6.14455 14.6833 5.86269 14.3961L2.36116 10.8294C1.88819 10.3476 1.87851 9.55634 2.33954 9.06208C2.52313 8.86526 2.76368 8.73717 3.02396 8.69765L7.86296 7.96285C8.25249 7.9037 8.58922 7.64804 8.76342 7.27918L10.9275 2.69694C11.2198 2.07799 11.9369 1.82386 12.5292 2.12933C12.7651 2.25097 12.956 2.45047 13.0724 2.69694L15.2364 7.27918C15.4106 7.64804 15.7474 7.9037 16.1369 7.96285L20.9759 8.69765C21.6295 8.7969 22.0824 9.43109 21.9874 10.1141C21.9496 10.3861 21.827 10.6375 21.6387 10.8294L18.1372 14.3961C17.8553 14.6833 17.7267 15.0969 17.7932 15.5023L18.6198 20.5387C18.7315 21.219 18.2942 21.8651 17.6433 21.9818C17.384 22.0282 17.1174 21.9841 16.8846 21.8562L12.5564 19.4783C12.208 19.2869 11.7918 19.2869 11.4434 19.4783ZM10.4804 17.7255C11.4285 17.2046 12.5713 17.2046 13.5195 17.7255L16.3902 19.3026L15.8196 15.8263C15.6504 14.7955 15.9786 13.74 16.7099 12.995L19.2066 10.4519L15.8366 9.94019C14.7817 9.78 13.8836 9.09812 13.428 8.13327L11.9999 5.1095L10.5719 8.13327C10.1162 9.09812 9.21811 9.78 8.16321 9.94019L4.79328 10.4519L7.2899 12.995C8.02125 13.74 8.34941 14.7955 8.18023 15.8263L7.60967 19.3026L10.4804 17.7255Z" fill="#FECF5D"/>
</svg>
