<svg width="347" height="135" viewBox="0 0 347 135" fill="none" xmlns="http://www.w3.org/2000/svg">
<g clip-path="url(#clip0_1592_8785)">
<path d="M73.4203 1.92736H269.884C275.931 2.08193 282.133 3.47303 287.095 9.192C292.057 14.911 313.301 41.1873 315.472 43.9695C317.643 46.7517 319.968 50.3068 320.589 56.1803C321.209 62.0538 322.915 101.468 322.915 106.878C322.915 112.597 321.209 114.916 319.968 117.543C318.728 119.862 316.867 123.726 315.627 126.044C314.386 128.363 310.2 131.918 303.532 132.073H59.9299C52.7971 132.073 46.9047 129.445 43.0282 124.19C39.1516 119.089 17.9082 89.8758 16.9778 88.3302C15.4272 85.8571 14.1867 81.9929 12.0158 77.6651C10.6203 74.8829 10 70.555 13.5664 65.6089C17.2879 60.6627 53.5724 13.6744 56.8287 9.96483C60.085 6.10067 65.6672 1.7728 73.4203 1.92736Z" fill="white"/>
<path d="M59.7748 133C52.4869 133 46.4395 130.218 42.4079 124.808C38.8415 120.016 17.1328 90.4941 16.2025 88.7939C15.2721 87.2482 14.4968 85.3934 13.5664 83.2295C12.9462 81.6838 12.1709 79.829 11.2405 77.9742C10.3101 76.1194 8.60445 71.1733 12.9462 65.1452C16.8227 59.8899 53.2622 12.9016 56.2084 9.3466C58.8445 6.25527 64.7368 1 73.2652 1H73.4203H269.883C274.845 1.15457 282.133 2.08197 287.871 8.57377C290.817 12.1288 300.431 23.8759 315.627 42.5785L316.247 43.3513C318.573 46.2881 320.899 49.8431 321.519 56.0258C322.294 62.2084 323.845 101.623 323.845 106.878C323.845 112.133 322.449 114.761 321.209 117.08C321.054 117.389 320.899 117.698 320.744 118.007C319.503 120.326 317.643 124.19 316.402 126.508C315.162 128.981 310.665 132.845 303.532 133H59.9299C59.9299 133 59.7748 133 59.7748 133ZM73.2652 2.70023C65.357 2.70023 59.9299 7.4918 57.4489 10.4286C54.5027 13.9836 18.0632 60.8173 14.3417 66.0726C10.4652 71.3279 11.8607 75.5012 12.7911 77.2014C13.7215 79.0562 14.4968 80.911 15.2721 82.6112C16.2025 84.7752 16.9778 86.4754 17.7531 87.8665C18.5284 89.2576 39.9269 118.471 43.8035 123.726C47.5249 128.672 53.1072 131.3 59.9299 131.3H303.842C310.2 131.145 314.076 127.899 315.162 125.735C316.402 123.262 318.263 119.553 319.503 117.234C319.658 116.925 319.813 116.616 319.968 116.307C321.209 114.143 322.294 111.824 322.449 106.878C322.449 100.85 320.744 61.8993 320.123 56.1803C319.503 50.4614 317.332 47.0609 315.162 44.4333L314.541 43.6604C295.469 20.0117 288.956 12.1288 286.785 9.65574C282.754 5.01874 277.482 2.8548 270.194 2.70023H73.7304C73.4203 2.70023 73.2652 2.70023 73.2652 2.70023Z" fill="#231F20"/>
<path d="M52.3319 122.335C45.199 122.335 41.4775 119.553 32.7941 107.651C24.4207 96.3678 12.7911 80.1383 12.636 79.9837L13.4114 79.52C13.5664 79.6746 25.041 95.9041 33.4143 107.187C41.9427 118.78 45.5091 121.408 52.3319 121.408H308.804C313.921 121.098 319.193 118.625 320.589 115.843L321.364 116.307C319.813 119.398 314.231 122.18 308.804 122.335H52.3319V122.335Z" fill="#231F20"/>
<path d="M265.542 5.48242C271.744 5.48242 275.776 6.25526 279.807 11.0468C283.839 15.8384 307.719 45.3606 309.734 47.8337C311.75 50.3068 313.456 54.0164 313.456 58.0351C313.456 62.0538 314.386 80.911 314.076 85.8571C313.766 90.9578 309.579 94.6674 304.152 94.822H75.1259C67.838 94.6674 64.7368 92.8126 61.3254 89.2576C57.9141 85.548 49.0756 76.1194 46.4395 72.7189C43.4933 69.0093 44.8889 66.2271 46.5946 63.5995C48.6104 61.1264 77.2968 18.0023 80.0879 13.5199C82.724 9.19202 87.6859 5.48242 93.7333 5.48242H265.542Z" fill="white"/>
<path d="M75.281 95.4403C67.838 95.2857 64.7368 93.431 61.1704 89.7213C57.604 86.0117 48.9205 76.4286 46.2845 73.0281C43.1832 69.164 44.5788 66.0726 46.4395 63.445C48.4553 60.6628 77.1417 17.5387 79.6227 13.3654C82.879 8.26468 87.9961 5.17334 93.5783 5.17334H265.387C271.899 5.17334 275.931 6.10074 279.962 10.8923C283.994 15.6839 308.184 45.5153 309.889 47.6792C312.215 50.7705 313.611 54.6347 313.611 58.1897C313.611 59.5808 313.766 62.6722 313.921 66.2272C314.231 73.6464 314.541 82.7658 314.386 86.0117C314.076 91.267 309.734 95.2857 304.152 95.4403H75.281ZM93.7333 5.94617C88.4612 5.94617 83.4993 8.88294 80.5531 13.8291C77.9171 18.0024 49.0756 61.1265 47.2148 63.9087C45.6642 66.2272 44.1136 68.8548 47.0598 72.4099C49.6958 75.8103 58.3793 85.2389 61.9457 88.9485C65.3571 92.5035 68.3032 94.3584 75.4361 94.3584H304.462C309.579 94.2038 313.611 90.4942 313.921 85.7026C314.076 82.4567 313.766 72.8736 313.456 65.9181C313.301 62.363 313.146 59.2717 313.146 57.8806C313.146 52.9345 310.665 49.2249 309.579 47.9883C307.719 45.8244 283.684 15.993 279.497 11.356C275.621 6.87357 271.744 6.10074 265.542 5.94617H93.7333Z" fill="#231F20"/>
<path d="M306.633 62.2083C310.51 67.1545 307.874 79.2107 299.345 80.6018H248.485C230.963 80.4472 213.131 66.0725 213.286 45.5151C213.441 24.9578 231.273 11.8196 248.95 11.8196C265.077 11.9741 275 23.103 275.931 24.4941C278.877 28.3582 303.222 57.8805 306.633 62.2083Z" fill="white"/>
<path d="M248.485 81.0656C239.646 81.0656 230.653 77.356 223.985 71.0187C216.697 64.2178 212.821 55.0984 212.821 45.3607C212.976 24.185 231.583 11.2014 248.795 11.2014H248.95C266.162 11.356 276.241 23.8759 276.241 24.0305C277.637 25.8853 283.994 33.459 290.507 41.6511C297.64 50.4614 305.083 59.5808 306.943 61.8993C309.114 64.5269 309.424 69.4731 307.719 73.6464C306.168 77.6651 303.067 80.2928 299.345 80.911L248.485 81.0656ZM248.795 12.1288C232.048 12.1288 213.906 24.8033 213.751 45.3607C213.751 54.7892 217.628 63.7541 224.605 70.2459C231.273 76.4286 239.957 79.9836 248.485 79.9836H299.345C302.602 79.3653 305.393 77.0469 306.943 73.1827C308.494 69.3185 308.184 64.8361 306.323 62.363C304.462 60.0445 297.174 50.9251 289.886 42.1148C283.219 34.0773 277.016 26.349 275.621 24.4942C275.466 24.3396 265.697 12.1288 248.795 12.1288Z" fill="#231F20"/>
<path d="M239.181 125.117H276.241C277.637 125.117 279.032 126.817 276.396 126.972H238.716C237.631 126.972 236.7 125.581 239.181 125.117Z" fill="white"/>
<path d="M238.716 127.436C237.941 127.436 237.32 126.817 237.32 126.199C237.32 125.735 237.476 124.962 239.181 124.653H276.241C277.326 124.653 278.257 125.426 278.257 126.199C278.257 126.663 277.947 127.281 276.396 127.436H238.716ZM239.181 125.581C238.251 125.735 238.096 126.044 238.096 126.199C238.096 126.354 238.406 126.663 238.716 126.663H276.396C277.171 126.663 277.481 126.354 277.481 126.354C277.481 126.199 277.016 125.735 276.241 125.735L239.181 125.581Z" fill="#231F20"/>
<path d="M312.991 125.272C313.456 125.426 313.456 127.899 309.269 128.827C302.912 130.372 299.965 129.29 300.896 127.745C301.826 126.199 302.912 127.126 307.408 126.354C311.905 125.581 311.905 124.653 312.991 125.272Z" fill="white"/>
<path d="M303.997 130.063C302.291 130.063 301.051 129.754 300.586 129.136C300.276 128.672 300.276 128.208 300.586 127.745C301.206 126.663 302.136 126.508 303.532 126.508C304.462 126.508 305.703 126.354 307.408 126.199C309.579 125.89 310.665 125.426 311.285 125.117C312.06 124.808 312.525 124.653 313.146 125.117C313.456 125.272 313.611 125.581 313.611 126.045C313.611 126.508 313.301 128.672 309.424 129.445C307.408 129.754 305.393 130.063 303.997 130.063ZM312.37 125.581C312.215 125.581 312.06 125.581 311.595 125.735C310.82 126.045 309.734 126.508 307.563 126.817C305.858 127.126 304.617 127.126 303.687 127.281C302.136 127.281 301.826 127.436 301.361 128.054C301.206 128.363 301.361 128.518 301.361 128.518C301.826 129.136 304.307 129.6 309.424 128.363C311.75 127.899 312.525 126.972 312.836 126.354C312.991 126.045 312.991 125.735 312.991 125.581C312.681 125.581 312.525 125.581 312.37 125.581Z" fill="#231F20"/>
<path d="M248.795 14.2928C267.713 14.602 281.823 30.2132 281.823 45.8244C281.668 62.2085 268.643 77.6652 249.725 77.6652C230.808 77.5106 215.612 63.445 215.767 45.0516C215.922 27.431 231.273 13.9837 248.795 14.2928Z" fill="#AFAFAF"/>
<path d="M250.036 78.1289H249.88C230.343 77.9744 215.147 63.4451 215.302 44.8971C215.302 36.705 218.713 28.9767 224.605 23.1032C230.963 16.9205 239.801 13.52 248.95 13.52C268.953 13.8292 282.754 30.6769 282.598 45.6699C282.443 61.4357 270.038 78.1289 250.036 78.1289ZM248.175 14.9111C239.646 14.9111 231.428 18.157 225.381 24.0306C219.643 29.595 216.387 37.0142 216.387 44.8971C216.232 62.6722 230.963 76.7378 249.725 76.8924H249.88C269.108 76.8924 281.048 60.8174 281.048 45.8245C281.048 31.6043 267.868 15.3748 248.64 15.0657C248.64 14.9111 248.485 14.9111 248.175 14.9111Z" fill="#231F20"/>
<path d="M294.383 57.4167C301.051 57.4167 305.082 62.8266 305.082 67.7727C305.082 72.5643 301.671 77.665 294.848 77.665C288.336 77.5104 284.149 72.2552 284.149 67.309C284.304 62.3629 288.491 57.5713 294.383 57.4167Z" fill="#AFAFAF"/>
<path d="M295.003 78.4379H294.848C291.747 78.4379 288.801 77.2014 286.63 75.0374C284.614 72.8735 283.529 70.0913 283.529 67.4637C283.684 62.5175 287.871 57.1077 294.538 56.9531C297.795 56.9531 300.741 58.1897 302.912 60.5082C304.772 62.5175 305.858 65.2997 305.858 68.0819C305.858 70.8641 304.772 73.6463 302.757 75.6557C300.741 77.3559 298.105 78.4379 295.003 78.4379ZM294.538 58.1897C288.646 58.1897 284.924 62.9812 284.769 67.3091C284.769 69.7822 285.7 72.1007 287.56 73.9555C289.421 75.9648 292.057 77.0468 294.848 77.0468C297.64 77.0468 300.12 76.274 301.826 74.4192C303.532 72.7189 304.462 70.2459 304.462 67.7728C304.462 65.2997 303.532 62.9812 301.826 61.1264C300.586 59.8899 298.26 58.1897 294.538 58.1897Z" fill="#231F20"/>
<path d="M249.57 72.1007C249.105 72.1007 248.795 71.9462 248.485 71.4825C248.175 71.1733 246.469 68.3911 244.919 65.7635L244.143 64.3724C243.833 63.7541 243.678 63.1359 243.988 62.8267C244.143 62.6722 244.453 62.363 245.074 62.363C245.694 62.363 247.865 62.363 249.881 62.363C251.586 62.363 253.292 62.363 253.757 62.363C254.532 62.363 254.842 62.8267 254.998 62.9813C255.153 63.2904 255.153 63.9087 254.842 64.2178C254.687 64.3724 254.377 65.1452 253.757 66.0726C252.361 68.5457 250.966 71.0188 250.656 71.4825C250.346 71.9462 249.881 72.1007 249.57 72.1007ZM244.919 63.1359C244.763 63.1359 244.763 63.1359 244.763 63.2904C244.763 63.445 244.763 63.7541 244.919 64.0633L245.694 65.2998C246.779 67.1546 248.95 70.7096 249.26 71.0188C249.415 71.1733 249.57 71.3279 249.725 71.3279C249.881 71.3279 250.036 71.1733 250.036 71.0188C250.346 70.5551 252.051 67.6183 253.137 65.7635C253.602 64.8361 254.067 64.2178 254.222 63.9087C254.377 63.7541 254.377 63.5996 254.222 63.445C254.222 63.2904 253.912 63.2904 253.757 63.2904C253.292 63.2904 251.741 63.2904 249.881 63.2904C247.71 63.1359 245.694 63.1359 244.919 63.1359Z" fill="#231F20"/>
<path d="M230.188 50.4614C229.878 50.4614 229.722 50.4614 229.257 50.3069C228.792 50.1523 225.381 48.2975 222.279 46.4427L221.504 45.979C220.884 45.6698 220.729 45.2061 220.729 44.897C220.729 44.4333 221.039 43.9696 221.659 43.6605C222.124 43.3513 225.071 41.8057 226.931 40.7237L228.637 39.7963C229.102 39.4872 229.878 39.178 230.343 39.4872C230.963 39.7963 230.808 40.5691 230.808 40.7237C230.808 41.6511 230.808 46.5973 230.963 48.4521V49.0703C230.963 49.534 230.808 49.9977 230.498 50.1523C230.653 50.4614 230.343 50.4614 230.188 50.4614ZM230.033 40.4146C229.878 40.4146 229.722 40.4146 229.257 40.7237L227.552 41.6511C225.536 42.7331 222.745 44.2787 222.279 44.5879C221.969 44.7424 221.814 44.897 221.814 45.0516C221.814 45.2061 221.969 45.2062 222.124 45.3607L222.9 45.8244C224.605 46.7518 229.257 49.3795 229.722 49.6886C230.188 49.8432 230.343 49.8432 230.343 49.8432C230.343 49.8432 230.343 49.6886 230.343 49.534V48.9158C230.343 47.0609 230.188 42.1148 230.188 41.1874H230.653H230.188C230.188 40.5691 230.188 40.4146 230.033 40.4146Z" fill="#231F20"/>
<path d="M268.333 50.4615C268.178 50.4615 267.868 50.4615 267.713 50.3069C267.402 50.1523 267.092 49.8432 267.092 49.0704C267.092 48.6067 267.092 47.5247 267.092 46.2882C267.092 44.2788 266.937 41.8057 267.092 41.0329C267.092 40.4146 267.247 39.9509 267.713 39.6418C268.178 39.3327 268.798 39.4872 269.728 39.9509C270.504 40.4146 275 43.0423 276.241 43.8151L276.551 43.9697C277.016 44.2788 277.326 44.5879 277.326 45.0516C277.326 45.3608 277.171 45.8245 276.396 46.2882C275.466 46.9064 270.039 49.9978 269.418 50.3069C268.953 50.4615 268.643 50.4615 268.333 50.4615ZM267.868 41.0329C267.868 41.9603 267.868 44.2788 267.868 46.2882C267.868 47.5247 267.868 48.6067 267.868 49.0704C267.868 49.2249 267.868 49.5341 268.023 49.5341C268.178 49.6886 268.333 49.5341 268.643 49.3795C269.263 49.0704 274.69 45.979 275.621 45.3608C275.931 45.2062 276.086 44.8971 276.086 44.8971C276.086 44.7425 275.931 44.7425 275.776 44.5879L275.466 44.4334C274.225 43.6605 269.728 41.1875 268.953 40.7238C268.333 40.4146 267.868 40.2601 267.868 40.4146C267.868 40.4146 267.868 40.7238 267.868 41.0329Z" fill="#231F20"/>
<path d="M253.137 28.0493C252.672 28.0493 246.934 28.0493 245.074 28.0493H244.298C243.678 28.0493 243.213 27.8947 243.058 27.431C242.903 27.2764 242.748 26.8127 243.058 26.0399C243.213 25.5762 244.143 24.1851 245.074 22.6394C246.004 21.2483 246.779 19.8572 247.089 19.2389C247.555 18.6207 247.865 18.157 248.33 18.157C248.795 18.157 249.105 18.3115 249.415 18.9298C249.57 19.2389 250.501 20.63 251.431 22.1757C252.517 23.876 253.602 25.7308 253.912 26.0399C254.222 26.5036 254.222 26.9673 254.067 27.431C254.067 27.7401 253.602 28.0493 253.137 28.0493ZM244.298 27.1219H245.074C248.64 27.1219 252.827 27.1219 253.137 27.1219C253.292 27.1219 253.447 27.1219 253.447 26.9673C253.602 26.8127 253.447 26.6582 253.292 26.5036C252.982 26.0399 251.896 24.3397 250.811 22.4848C249.881 20.9392 248.95 19.5481 248.795 19.2389C248.64 18.9298 248.485 18.9298 248.485 18.9298C248.485 18.9298 248.175 19.0844 247.865 19.5481C247.555 20.1663 246.624 21.5574 245.849 22.9486C244.919 24.4942 243.988 25.8853 243.833 26.349C243.678 26.5036 243.678 26.6582 243.678 26.8127C243.988 27.1219 244.143 27.1219 244.298 27.1219Z" fill="#231F20"/>
<path d="M297.484 72.4097H291.592V70.0912H297.174C298.105 70.0912 298.725 68.8547 298.725 68.0819C298.725 67.7727 298.57 67.1545 298.415 66.6908C298.105 66.2271 297.795 65.9179 297.329 65.9179H292.367V67.4636L288.181 64.6814L292.367 61.7446V63.4449H297.174C298.26 63.4449 299.345 64.0631 300.276 64.9905C301.051 65.9179 301.361 66.9999 301.361 67.9273C301.361 69.1638 301.051 70.2458 300.276 71.0186C299.5 71.946 298.57 72.4097 297.484 72.4097ZM292.522 71.4823H297.484C298.26 71.4823 299.035 71.1732 299.655 70.4004C300.276 69.7821 300.586 68.8547 300.586 67.7727C300.586 66.9999 300.276 66.0725 299.655 65.2997C299.035 64.5268 298.26 64.0631 297.329 64.0631H291.747V63.1357L290.042 64.3723L291.747 65.4542V64.6814H297.484C298.26 64.6814 299.035 65.1451 299.345 65.9179C299.81 66.6908 299.81 67.4636 299.81 67.7727C299.81 69.0093 298.88 70.5549 297.484 70.5549H292.678L292.522 71.4823Z" fill="#231F20"/>
<path d="M216.697 75.0374C217.783 75.0374 218.713 76.1193 218.713 77.0467C218.713 77.8196 218.093 78.9015 216.852 78.747C215.612 78.5924 214.681 77.9741 214.681 76.8922C214.681 75.9648 215.457 75.0374 216.697 75.0374Z" fill="white"/>
<path d="M216.852 79.2107C215.457 79.2107 214.216 78.2833 214.371 77.0468C214.371 75.8102 215.457 74.7283 216.697 74.7283C218.093 74.7283 219.023 75.9648 219.023 77.2013C219.023 78.1287 218.248 79.2107 216.852 79.2107ZM216.697 75.5011C215.922 75.5011 215.147 76.1194 215.147 77.0468C215.147 77.8196 215.922 78.4379 216.852 78.4379C217.783 78.4379 218.248 77.665 218.248 77.0468C218.093 76.4285 217.473 75.5011 216.697 75.5011Z" fill="#231F20"/>
<path d="M249.415 56.4895C246.004 56.4895 242.748 55.0984 240.577 52.9345C238.561 50.9251 237.476 48.1429 237.631 45.0516C237.786 37.6324 244.453 34.2319 249.105 34.2319C252.051 34.2319 254.842 35.4685 257.013 37.6324C259.184 39.7963 260.425 42.5785 260.27 45.5153C260.27 48.4521 259.184 51.2343 257.168 53.2436C255.308 55.253 252.517 56.4895 249.415 56.4895ZM249.105 35.4685C244.919 35.4685 239.026 38.4052 239.026 45.0516C239.026 47.6792 239.957 50.1523 241.662 51.8525C243.678 53.8619 246.624 55.0984 249.57 55.0984C252.206 55.0984 254.687 54.171 256.393 52.3162C258.099 50.4614 259.184 48.1429 259.184 45.5153C259.184 42.8877 258.099 40.4146 256.238 38.5598C254.222 36.5504 251.586 35.623 249.105 35.4685Z" fill="#231F20"/>
<path d="M198.555 80.6021H93.8884C89.7017 80.6021 86.1353 77.2016 86.1353 72.8738V19.0845C86.1353 14.9112 89.5466 11.3562 93.8884 11.3562H198.555C202.742 11.3562 206.308 14.7567 206.308 19.0845V72.8738C206.308 77.2016 202.897 80.6021 198.555 80.6021Z" fill="white"/>
<path d="M198.555 81.3748H93.8884C89.2365 81.3748 85.36 77.6652 85.36 72.8736V19.0844C85.36 14.4474 89.0815 10.5833 93.8884 10.5833H198.555C203.207 10.5833 207.083 14.4474 207.083 19.0844V72.8736C207.083 77.6652 203.207 81.3748 198.555 81.3748ZM93.8884 12.2835C90.0118 12.2835 86.9106 15.3748 86.9106 19.239V73.0282C86.9106 76.8924 90.0118 79.9837 93.8884 79.9837H198.555C202.432 79.9837 205.533 76.8924 205.533 73.0282V19.0844C205.533 15.2203 202.432 12.1289 198.555 12.1289H93.8884V12.2835Z" fill="#231F20"/>
<path d="M198.245 76.8921H94.5086C92.0276 76.8921 90.0118 74.8828 90.0118 72.4097V19.3933C90.0118 16.9203 92.0276 14.9109 94.5086 14.9109H198.09C200.571 14.9109 202.587 16.9203 202.587 19.3933V72.4097C202.742 74.8828 200.726 76.8921 198.245 76.8921Z" fill="#AFAFAF"/>
<rect x="120.253" y="33.1602" width="4.2" height="4.20757" transform="rotate(90 120.253 33.1602)" fill="black"/>
<rect x="111.838" y="24.76" width="4.2" height="4.20757" transform="rotate(90 111.838 24.76)" fill="black"/>
<rect x="124.461" y="37.3601" width="4.2" height="4.20759" transform="rotate(90 124.461 37.3601)" fill="black"/>
<rect x="120.253" y="28.96" width="4.20759" height="4.2" fill="black"/>
<rect x="125.512" y="62.5601" width="42.0758" height="4.2" fill="black"/>
<rect x="121.305" y="66.76" width="4.20758" height="4.2" fill="black"/>
<rect x="167.588" y="66.76" width="4.20758" height="4.19999" fill="black"/>
<rect x="111.838" y="37.3601" width="4.2076" height="4.2" fill="black"/>
<rect x="124.461" y="24.76" width="4.20759" height="4.2" fill="black"/>
<rect x="116.045" y="33.1602" width="4.20757" height="4.2" fill="black"/>
<rect x="128.668" y="41.5601" width="4.2" height="4.20759" transform="rotate(90 128.668 41.5601)" fill="black"/>
<rect x="111.838" y="41.5601" width="4.2" height="4.20757" transform="rotate(90 111.838 41.5601)" fill="black"/>
<rect x="116.045" y="28.96" width="4.2" height="4.20759" transform="rotate(90 116.045 28.96)" fill="black"/>
<rect x="177.055" y="33.1602" width="4.2" height="4.2076" transform="rotate(90 177.055 33.1602)" fill="black"/>
<rect x="168.64" y="24.76" width="4.2" height="4.2076" transform="rotate(90 168.64 24.76)" fill="black"/>
<rect x="181.263" y="37.3601" width="4.2" height="4.20758" transform="rotate(90 181.263 37.3601)" fill="black"/>
<rect x="177.055" y="28.96" width="4.20758" height="4.2" fill="black"/>
<rect x="168.64" y="37.3601" width="4.20756" height="4.2" fill="black"/>
<rect x="181.263" y="24.76" width="4.20758" height="4.2" fill="black"/>
<rect x="172.848" y="33.1602" width="4.2076" height="4.2" fill="black"/>
<rect x="185.471" y="41.5601" width="4.2" height="4.20758" transform="rotate(90 185.471 41.5601)" fill="black"/>
<rect x="168.64" y="41.5601" width="4.2" height="4.2076" transform="rotate(90 168.64 41.5601)" fill="black"/>
<rect x="172.848" y="28.96" width="4.2" height="4.20756" transform="rotate(90 172.848 28.96)" fill="black"/>
<path d="M198.245 77.3559H94.5086C91.7175 77.3559 89.5467 75.192 89.5467 72.4098V19.3934C89.5467 16.6112 91.7175 14.4473 94.5086 14.4473H198.09C200.881 14.4473 203.052 16.6112 203.052 19.3934V72.4098C203.052 75.192 200.881 77.3559 198.245 77.3559ZM94.5086 15.3747C92.3378 15.3747 90.477 17.2295 90.477 19.3934V72.4098C90.477 74.5737 92.3378 76.4285 94.5086 76.4285H198.09C200.261 76.4285 202.121 74.5737 202.121 72.4098V19.3934C202.121 17.2295 200.261 15.3747 198.09 15.3747H94.5086Z" fill="#231F20"/>
<path d="M154.518 112.288C151.106 112.288 147.54 112.288 144.128 112.288V111.052H145.369C145.369 110.433 145.369 109.042 145.369 108.424H146.609C146.609 107.806 146.609 106.415 146.609 105.796H147.85C147.85 104.714 147.85 103.014 147.85 101.932C147.23 101.932 145.834 101.932 145.214 101.932C145.214 102.55 145.214 103.941 145.214 104.56H143.973C143.973 105.178 143.973 106.569 143.973 107.187H142.733C142.733 107.806 142.733 109.197 142.733 109.815H141.492C141.492 110.433 141.492 111.824 141.492 112.443H140.252C140.252 113.061 140.252 114.452 140.252 115.07C145.369 115.07 150.641 115.07 155.758 115.07V113.834H156.999V112.288C156.533 112.288 155.293 112.288 154.518 112.288Z" fill="#AFAFAF"/>
<path d="M166.302 107.187V105.951H167.543C167.543 104.869 167.543 103.169 167.543 102.087C166.922 102.087 165.527 102.087 164.907 102.087C164.907 102.705 164.907 104.096 164.907 104.714H163.666C163.666 105.333 163.666 106.724 163.666 107.342H162.426C162.426 107.96 162.426 109.351 162.426 109.97H161.185C161.185 110.588 161.185 111.979 161.185 112.597H159.945C159.945 113.215 159.945 114.607 159.945 115.225C160.565 115.225 161.961 115.225 162.581 115.225V113.988H163.821C163.821 113.37 163.821 111.979 163.821 111.361H165.062C165.062 110.742 165.062 109.351 165.062 108.733H166.302V107.187Z" fill="#AFAFAF"/>
<path d="M207.859 105.796H209.099V104.56H210.34C210.34 103.941 210.34 102.55 210.34 101.932C204.292 101.932 198.245 101.932 192.198 101.932C192.198 102.55 192.198 103.941 192.198 104.56H190.957C190.957 105.178 190.957 106.569 190.957 107.187H189.717C189.717 107.806 189.717 109.197 189.717 109.815H188.321C188.321 110.433 188.321 111.824 188.321 112.443H187.081C187.081 113.061 187.081 114.452 187.081 115.07C187.701 115.07 189.096 115.07 189.717 115.07V113.834H190.957C190.957 113.215 190.957 111.824 190.957 111.206H192.198V109.97C196.539 109.97 200.881 109.97 205.223 109.97V108.733H206.463V107.497H207.704V105.796H207.859ZM205.223 105.796H203.982V107.033C200.571 107.033 197.004 107.033 193.593 107.033V105.796H194.834V104.56C198.245 104.56 201.811 104.56 205.223 104.56V105.796Z" fill="#AFAFAF"/>
<path d="M187.081 105.796H188.321V104.56H189.562C189.562 103.941 189.562 102.55 189.562 101.932C183.514 101.932 177.467 101.932 171.419 101.932C171.419 102.55 171.419 103.941 171.419 104.56H170.179C170.179 105.178 170.179 106.569 170.179 107.187H168.938C168.938 107.806 168.938 109.197 168.938 109.815H167.698C167.698 110.433 167.698 111.824 167.698 112.443H166.457C166.457 113.061 166.457 114.452 166.457 115.07C167.078 115.07 168.473 115.07 169.093 115.07V113.834H170.334C170.334 113.215 170.334 111.824 170.334 111.206H171.574V109.97C175.916 109.97 180.258 109.97 184.6 109.97V108.733H185.84V107.497H187.081V105.796ZM184.444 105.796H183.204V107.033C179.793 107.033 176.226 107.033 172.815 107.033V105.796H174.055V104.56C177.467 104.56 181.033 104.56 184.444 104.56V105.796Z" fill="#AFAFAF"/>
<path d="M229.878 104.56V103.323H231.118V102.087C225.071 102.087 219.023 102.087 212.976 102.087C212.976 102.705 212.976 104.096 212.976 104.714H211.735C211.735 105.333 211.735 106.724 211.735 107.342H210.495C210.495 107.96 210.495 109.351 210.495 109.97H209.254C209.254 110.588 209.254 111.979 209.254 112.597H208.014C208.014 113.215 208.014 114.607 208.014 115.225C213.596 115.225 219.333 115.225 224.916 115.225V113.988H226.156V112.288C221.504 112.288 216.542 112.288 211.89 112.288V111.052H213.131V109.815C217.007 109.815 220.884 109.815 224.761 109.815V108.578H226.001V107.342C222.124 107.342 218.248 107.342 214.371 107.342V106.105H215.612V104.56C220.419 104.56 225.226 104.56 229.878 104.56Z" fill="#AFAFAF"/>
<path d="M141.647 104.56V103.323H142.888V102.087C136.375 102.087 129.863 102.087 123.35 102.087C123.35 102.705 123.35 104.096 123.35 104.714H122.11C122.11 105.333 122.11 106.724 122.11 107.342H120.869C120.869 107.96 120.869 109.351 120.869 109.97H119.629C119.629 110.588 119.629 111.979 119.629 112.597H118.388C118.388 113.215 118.388 114.607 118.388 115.225H116.993C116.993 115.843 116.993 117.234 116.993 117.852C117.613 117.852 119.008 117.852 119.629 117.852V116.616H120.869C120.869 115.998 120.869 114.607 120.869 113.988H122.11C122.11 113.37 122.11 111.979 122.11 111.361H123.35V110.124C127.227 110.124 131.103 110.124 134.98 110.124V108.888H136.22V107.651C132.344 107.651 128.467 107.651 124.591 107.651V106.415H125.831V104.56C131.258 104.56 136.53 104.56 141.647 104.56Z" fill="#AFAFAF"/>
<path d="M252.051 101.932C246.004 101.932 239.957 101.932 233.909 101.932C233.909 102.55 233.909 103.941 233.909 104.56H232.669C232.669 105.178 232.669 106.569 232.669 107.187H231.428C231.428 107.806 231.428 109.197 231.428 109.815H230.188C230.188 110.433 230.188 111.824 230.188 112.443H228.637C228.637 113.061 228.637 114.452 228.637 115.07C229.257 115.07 230.653 115.07 231.273 115.07V113.834H232.514C232.514 113.215 232.514 111.824 232.514 111.206H233.754V109.97C236.7 109.97 239.801 109.97 242.903 109.97V111.206H244.143V112.288H245.384V113.525H246.624V114.761H247.865V115.998H249.105V117.234C249.725 117.234 251.121 117.234 251.741 117.234C251.741 116.616 251.741 115.225 251.741 114.607H250.501V113.37H249.26V112.288H248.02V111.052H246.779C246.779 110.433 246.779 109.042 246.779 108.424H248.02V107.187H249.26V105.951H250.501V104.56H251.741V103.323H252.982V102.087H252.051V101.932ZM246.779 105.796H245.539V107.033C242.127 107.033 238.561 107.033 235.15 107.033V105.796H236.39V104.56C239.801 104.56 243.368 104.56 246.779 104.56V105.796Z" fill="#AFAFAF"/>
</g>
<defs>
<clipPath id="clip0_1592_8785">
<rect width="314" height="132" fill="white" transform="translate(10 1)"/>
</clipPath>
</defs>
</svg>
