<svg width="32" height="32" viewBox="0 0 32 32" fill="none" xmlns="http://www.w3.org/2000/svg">
<path fill-rule="evenodd" clip-rule="evenodd" d="M15.2442 5.46492C15.7062 5.68695 16 6.15412 16 6.66666V25.3333C16 25.8459 15.7062 26.313 15.2442 26.5351C14.7823 26.7571 14.234 26.6947 13.8337 26.3745L7.53229 21.3333H2.66666C1.93028 21.3333 1.33333 20.7364 1.33333 20V12C1.33333 11.2636 1.93028 10.6667 2.66666 10.6667H7.53229L13.8337 5.6255C14.234 5.30532 14.7823 5.24289 15.2442 5.46492ZM13.3333 9.44083L8.83292 13.0412C8.5965 13.2303 8.30276 13.3333 7.99999 13.3333H3.99999V18.6667H7.99999C8.30276 18.6667 8.5965 18.7697 8.83292 18.9588L13.3333 22.5592V9.44083Z" fill="white"/>
<path d="M20 16H30.6667" stroke="white" stroke-width="2" stroke-linecap="round" stroke-linejoin="round"/>
</svg>
