<svg width="160" height="96" viewBox="0 0 160 96" fill="none" xmlns="http://www.w3.org/2000/svg">
<rect x="1.6001" y="91.2" width="1.6" height="3.2" fill="black"/>
<rect x="3.2002" y="86.4" width="1.6" height="4.8" fill="black"/>
<rect x="4.80029" y="80" width="1.6" height="6.4" fill="black"/>
<rect x="6.3999" y="75.2" width="1.6" height="4.8" fill="black"/>
<rect x="8" y="68.8" width="1.6" height="6.39999" fill="black"/>
<rect x="11.2002" y="68.8" width="1.6" height="9.6" fill="black"/>
<rect x="9.6001" y="41.6" width="1.6" height="27.2" fill="black"/>
<rect x="11.2002" y="35.2" width="1.6" height="6.4" fill="black"/>
<rect x="12.8003" y="30.4" width="1.6" height="4.8" fill="black"/>
<rect x="14.3999" y="27.2" width="1.6" height="3.2" fill="black"/>
<rect x="16" y="24" width="1.6" height="3.2" fill="black"/>
<rect x="17.6001" y="22.4" width="1.6" height="1.6" fill="black"/>
<rect x="27.2002" y="12.8" width="3.2" height="1.6" fill="black"/>
<rect x="33.6001" y="9.60001" width="4.8" height="1.6" fill="black"/>
<rect x="38.3999" y="8" width="19.2" height="1.6" fill="black"/>
<rect x="57.6001" y="9.60001" width="6.4" height="1.6" fill="black"/>
<rect x="64" y="11.2" width="3.2" height="1.6" fill="black"/>
<rect x="67.2002" y="12.8" width="3.2" height="1.6" fill="black"/>
<rect x="70.3999" y="14.4" width="1.6" height="1.6" fill="black"/>
<rect x="80" y="24" width="1.6" height="3.2" fill="black"/>
<rect x="83.2002" y="30.4" width="1.60001" height="4.8" fill="black"/>
<rect x="84.8003" y="35.2" width="1.6" height="3.2" fill="black"/>
<rect x="83.2002" y="38.4" width="1.60001" height="1.6" fill="black"/>
<rect x="75.2002" y="43.2" width="3.2" height="1.6" fill="black"/>
<rect x="70.3999" y="46.4" width="3.2" height="1.6" fill="black"/>
<rect x="78.3999" y="41.6" width="1.6" height="1.6" fill="black"/>
<rect x="73.6001" y="44.8" width="1.6" height="1.6" fill="black"/>
<rect x="80" y="40" width="3.2" height="1.6" fill="black"/>
<rect x="86.3999" y="35.2" width="1.6" height="1.6" fill="black"/>
<rect x="88" y="33.6" width="3.2" height="1.6" fill="black"/>
<rect x="94.3999" y="30.4" width="6.4" height="1.6" fill="black"/>
<rect x="100.8" y="32" width="3.2" height="1.6" fill="black"/>
<rect x="104" y="33.6" width="1.6" height="1.6" fill="black"/>
<rect x="105.6" y="35.2" width="1.6" height="8" fill="black"/>
<rect x="104" y="40" width="1.6" height="6.4" fill="black"/>
<rect x="102.4" y="40" width="1.6" height="8" fill="black"/>
<rect x="100.8" y="40" width="1.6" height="9.6" fill="black"/>
<rect x="99.2002" y="41.6" width="1.60001" height="9.6" fill="black"/>
<rect x="126.4" y="16" width="1.6" height="3.2" fill="#34C7A4"/>
<rect x="128" y="14.4" width="1.60001" height="6.4" fill="#34C7A4"/>
<rect x="129.6" y="14.4" width="1.59999" height="8" fill="#34C7A4"/>
<rect x="136" y="20.8" width="1.60001" height="8" fill="#34C7A4"/>
<rect x="145.6" y="16" width="1.59999" height="12.8" fill="#34C7A4"/>
<rect x="147.2" y="12.8" width="1.60001" height="12.8" fill="#34C7A4"/>
<rect x="148.8" y="9.60001" width="1.59999" height="12.8" fill="#34C7A4"/>
<rect x="152" y="3.20001" width="1.60001" height="12.8" fill="#34C7A4"/>
<rect x="153.6" y="1.60001" width="1.59999" height="11.2" fill="#34C7A4"/>
<rect x="155.2" y="1.60001" width="1.60001" height="8" fill="#34C7A4"/>
<rect x="156.8" y="3.20001" width="1.59999" height="3.2" fill="#34C7A4"/>
<rect x="150.4" y="6.40001" width="1.60001" height="12.8" fill="#34C7A4"/>
<rect x="144" y="19.2" width="1.60001" height="12.8" fill="#34C7A4"/>
<rect x="142.4" y="22.4" width="1.60001" height="11.2" fill="#34C7A4"/>
<rect x="140.8" y="25.6" width="1.59999" height="8" fill="#34C7A4"/>
<rect x="139.2" y="24" width="1.60001" height="8" fill="#34C7A4"/>
<rect x="137.6" y="22.4" width="1.59999" height="8" fill="#34C7A4"/>
<rect x="134.4" y="19.2" width="1.60001" height="8" fill="#34C7A4"/>
<rect x="132.8" y="17.6" width="1.59999" height="8" fill="#34C7A4"/>
<rect x="131.2" y="16" width="1.60001" height="8" fill="#34C7A4"/>
<rect x="97.6001" y="41.6" width="1.6" height="11.2" fill="black"/>
<rect x="96" y="43.2" width="1.6" height="11.2" fill="black"/>
<rect x="91.2002" y="48" width="1.60001" height="11.2" fill="black"/>
<rect x="89.6001" y="49.6" width="1.6" height="14.4" fill="black"/>
<rect x="91.2002" y="60.8" width="1.60001" height="3.2" fill="black"/>
<rect x="92.8003" y="60.8" width="6.39999" height="1.6" fill="black"/>
<rect x="99.2002" y="59.2" width="8" height="1.6" fill="black"/>
<rect x="107.2" y="60.8" width="1.60001" height="6.4" fill="black"/>
<rect x="105.6" y="67.2" width="1.6" height="1.60001" fill="black"/>
<rect x="102.4" y="70.4" width="1.6" height="1.6" fill="black"/>
<rect x="99.2002" y="72" width="3.2" height="1.6" fill="black"/>
<rect x="94.3999" y="73.6" width="4.8" height="1.6" fill="black"/>
<rect x="89.6001" y="75.2" width="4.8" height="1.60001" fill="black"/>
<rect x="84.8003" y="76.8" width="9.6" height="1.6" fill="black"/>
<rect x="80" y="78.4" width="14.4" height="1.6" fill="black"/>
<rect x="73.6001" y="80" width="20.8" height="1.6" fill="black"/>
<rect x="76.8003" y="81.6" width="14.4" height="1.6" fill="black"/>
<rect x="80" y="83.2" width="8" height="1.60001" fill="black"/>
<rect x="92.8003" y="81.6" width="1.6" height="3.2" fill="black"/>
<rect x="94.3999" y="84.8" width="1.6" height="6.39999" fill="black"/>
<rect x="96" y="91.2" width="1.6" height="3.2" fill="black"/>
<rect x="96" y="86.4" width="6.4" height="1.6" fill="black"/>
<rect x="102.4" y="84.8" width="3.2" height="1.6" fill="black"/>
<rect x="112" y="80" width="1.6" height="1.6" fill="black"/>
<rect x="120" y="70.4" width="1.6" height="3.2" fill="black"/>
<rect x="128" y="49.6" width="1.60001" height="6.4" fill="black"/>
<rect x="134.4" y="49.6" width="1.60001" height="3.2" fill="black"/>
<rect x="137.6" y="59.2" width="3.2" height="1.6" fill="black"/>
<rect x="144" y="62.4" width="1.60001" height="1.6" fill="black"/>
<rect x="128" y="65.6" width="1.60001" height="6.4" fill="black"/>
<rect x="147.2" y="67.2" width="1.60001" height="9.60001" fill="black"/>
<rect x="145.6" y="64" width="1.59999" height="3.2" fill="black"/>
<rect x="132.8" y="78.4" width="3.2" height="1.6" fill="black"/>
<rect x="145.6" y="76.8" width="1.59999" height="1.6" fill="black"/>
<rect x="142.4" y="78.4" width="3.20001" height="1.6" fill="black"/>
<rect x="136" y="80" width="6.39999" height="1.6" fill="black"/>
<rect x="139.2" y="81.6" width="1.60001" height="3.2" fill="black"/>
<rect x="134.4" y="91.2" width="1.60001" height="3.2" fill="black"/>
<rect x="136" y="88" width="1.60001" height="3.2" fill="black"/>
<rect x="137.6" y="84.8" width="1.59999" height="3.2" fill="black"/>
<rect x="131.2" y="75.2" width="1.60001" height="3.2" fill="black"/>
<rect x="129.6" y="72" width="1.59999" height="3.2" fill="black"/>
<rect x="129.6" y="64" width="1.59999" height="1.6" fill="black"/>
<rect x="131.2" y="62.4" width="1.60001" height="1.6" fill="black"/>
<rect x="140.8" y="60.8" width="3.2" height="1.6" fill="black"/>
<rect x="134.4" y="49.6" width="1.60001" height="3.2" fill="black"/>
<rect x="132.8" y="60.8" width="3.2" height="1.6" fill="black"/>
<rect x="136" y="52.8" width="1.60001" height="8" fill="black"/>
<rect x="129.6" y="48" width="4.79999" height="1.6" fill="black"/>
<rect x="126.4" y="56" width="1.6" height="4.8" fill="black"/>
<rect x="124.8" y="60.8" width="1.6" height="3.2" fill="black"/>
<rect x="123.2" y="64" width="1.60001" height="3.2" fill="black"/>
<rect x="121.6" y="67.2" width="1.6" height="3.2" fill="black"/>
<rect x="118.4" y="73.6" width="1.6" height="1.6" fill="black"/>
<rect x="116.8" y="75.2" width="1.6" height="1.60001" fill="black"/>
<rect x="115.2" y="76.8" width="1.60001" height="1.6" fill="black"/>
<rect x="113.6" y="78.4" width="1.6" height="1.6" fill="black"/>
<rect x="108.8" y="81.6" width="3.2" height="1.6" fill="black"/>
<rect x="105.6" y="83.2" width="3.2" height="1.60001" fill="black"/>
<rect x="104" y="68.8" width="1.6" height="1.6" fill="black"/>
<rect x="88" y="51.2" width="1.6" height="12.8" fill="black"/>
<rect x="86.3999" y="52.8" width="1.6" height="11.2" fill="black"/>
<rect x="84.8003" y="54.4" width="1.6" height="8" fill="black"/>
<rect x="83.2002" y="56" width="1.60001" height="6.4" fill="black"/>
<rect x="81.6001" y="57.6" width="1.6" height="3.2" fill="black"/>
<rect x="80" y="59.2" width="1.6" height="1.6" fill="black"/>
<rect x="76.8003" y="60.8" width="3.2" height="1.6" fill="black"/>
<rect x="72" y="62.4" width="4.8" height="1.6" fill="black"/>
<rect x="67.2002" y="64" width="4.8" height="1.6" fill="black"/>
<rect x="56" y="65.6" width="22.4" height="1.6" fill="black"/>
<rect x="51.2002" y="64" width="4.8" height="1.6" fill="black"/>
<rect x="48" y="62.4" width="3.2" height="1.6" fill="black"/>
<rect x="46.3999" y="60.8" width="1.6" height="1.6" fill="black"/>
<rect x="52.8003" y="51.2" width="1.6" height="1.6" fill="black"/>
<rect x="49.6001" y="49.6" width="3.2" height="1.6" fill="black"/>
<rect x="52.8003" y="46.4" width="1.6" height="3.2" fill="black"/>
<rect x="52.8003" y="35.2" width="1.6" height="3.2" fill="black"/>
<rect x="51.2002" y="33.6" width="1.6" height="1.6" fill="black"/>
<rect x="49.6001" y="32" width="1.6" height="1.6" fill="black"/>
<rect x="33.6001" y="32" width="1.6" height="1.6" fill="black"/>
<rect x="32" y="33.6" width="1.6" height="1.6" fill="black"/>
<rect x="30.3999" y="35.2" width="1.6" height="3.2" fill="black"/>
<rect x="28.8003" y="38.4" width="1.6" height="8" fill="black"/>
<rect x="30.3999" y="46.4" width="1.6" height="3.2" fill="black"/>
<rect x="32" y="49.6" width="1.6" height="1.6" fill="black"/>
<rect x="36.8003" y="49.6" width="3.2" height="1.6" fill="black"/>
<rect x="33.6001" y="52.8" width="1.6" height="3.2" fill="black"/>
<rect x="32" y="56" width="1.6" height="3.2" fill="black"/>
<rect x="33.6001" y="51.2" width="3.2" height="1.6" fill="black"/>
<rect x="36.8003" y="48" width="12.8" height="1.6" fill="black"/>
<rect x="35.2002" y="46.4" width="14.4" height="1.6" fill="black"/>
<rect x="33.6001" y="44.8" width="17.6" height="1.6" fill="black"/>
<rect x="33.6001" y="40" width="17.6" height="1.6" fill="black"/>
<rect x="41.6001" y="38.4" width="9.6" height="1.6" fill="black"/>
<rect x="41.6001" y="36.8" width="8" height="1.6" fill="black"/>
<rect x="36.8003" y="35.2" width="11.2" height="1.6" fill="black"/>
<rect x="38.3999" y="33.6" width="8" height="1.6" fill="black"/>
<rect x="35.2002" y="36.8" width="3.2" height="1.6" fill="black"/>
<rect x="33.6001" y="38.4" width="4.8" height="1.6" fill="black"/>
<rect x="33.6001" y="41.6" width="17.6" height="1.6" fill="black"/>
<rect x="33.6001" y="43.2" width="17.6" height="1.6" fill="black"/>
<rect x="46.3999" y="30.4" width="3.2" height="1.6" fill="black"/>
<rect x="35.2002" y="30.4" width="3.2" height="1.6" fill="black"/>
<rect x="38.3999" y="28.8" width="8" height="1.6" fill="black"/>
<rect x="54.3999" y="38.4" width="1.6" height="8" fill="black"/>
<rect x="78.3999" y="64" width="8" height="1.6" fill="black"/>
<rect x="92.8003" y="46.4" width="1.6" height="11.2" fill="black"/>
<rect x="94.3999" y="44.8" width="1.6" height="11.2" fill="black"/>
<rect x="91.2002" y="32" width="3.2" height="1.6" fill="black"/>
<rect x="81.6001" y="27.2" width="1.6" height="3.2" fill="black"/>
<rect x="78.3999" y="22.4" width="1.6" height="1.6" fill="black"/>
<rect x="76.8003" y="20.8" width="1.6" height="1.6" fill="black"/>
<rect x="75.2002" y="19.2" width="1.60001" height="1.6" fill="black"/>
<rect x="73.6001" y="17.6" width="1.6" height="1.6" fill="black"/>
<rect x="72" y="16" width="1.6" height="1.6" fill="black"/>
<rect x="30.3999" y="11.2" width="3.2" height="1.6" fill="black"/>
<rect x="25.6001" y="14.4" width="1.6" height="1.6" fill="black"/>
<rect x="24" y="16" width="1.6" height="1.6" fill="black"/>
<rect x="22.3999" y="17.6" width="1.6" height="1.6" fill="black"/>
<rect x="20.8003" y="19.2" width="1.6" height="1.6" fill="black"/>
<rect x="19.2002" y="20.8" width="1.6" height="1.6" fill="black"/>
<rect x="12.8003" y="78.4" width="1.6" height="6.4" fill="black"/>
<rect x="14.3999" y="84.8" width="1.6" height="6.39999" fill="black"/>
<rect x="16" y="91.2" width="1.6" height="3.2" fill="black"/>
</svg>
