<svg width="32" height="32" viewBox="0 0 32 32" fill="none" xmlns="http://www.w3.org/2000/svg">
<path d="M20 16H30.6667" stroke="white" stroke-width="2" stroke-linecap="round" stroke-linejoin="round"/>
<path d="M7.44141 18.6055C7.41178 19.071 7.31022 19.4899 7.13672 19.8623C6.96745 20.2347 6.73893 20.5521 6.45117 20.8145C6.16341 21.0768 5.82064 21.2799 5.42285 21.4238C5.02507 21.5635 4.58496 21.6333 4.10254 21.6333C3.72168 21.6333 3.36833 21.5846 3.04248 21.4873C2.72087 21.3857 2.43099 21.2419 2.17285 21.0557C1.93587 20.8822 1.72428 20.6727 1.53809 20.4272C1.35612 20.1818 1.20166 19.911 1.07471 19.6147C0.951986 19.3185 0.856771 18.9927 0.789062 18.6372C0.725586 18.2817 0.693848 17.9051 0.693848 17.5073V16.2632C0.693848 15.8908 0.72347 15.5374 0.782715 15.2031C0.84196 14.8646 0.930827 14.5514 1.04932 14.2637C1.18473 13.9124 1.36247 13.5993 1.58252 13.3242C1.80257 13.0492 2.05225 12.8164 2.33154 12.626C2.58122 12.4652 2.85417 12.3424 3.15039 12.2578C3.45085 12.1689 3.77246 12.1245 4.11523 12.1245C4.62305 12.1245 5.07373 12.1965 5.46729 12.3403C5.86507 12.4842 6.20361 12.6895 6.48291 12.9561C6.76221 13.2227 6.98226 13.5485 7.14307 13.9336C7.30387 14.3187 7.40544 14.7524 7.44775 15.2349H5.67041C5.65348 14.9598 5.61117 14.7186 5.54346 14.5112C5.47998 14.3039 5.38688 14.1304 5.26416 13.9907C5.13721 13.8553 4.97852 13.7537 4.78809 13.686C4.60189 13.6141 4.3776 13.5781 4.11523 13.5781C3.97559 13.5781 3.8444 13.5929 3.72168 13.6226C3.60319 13.6522 3.49316 13.6966 3.3916 13.7559C3.2181 13.8574 3.06999 14.0034 2.94727 14.1938C2.82878 14.38 2.73356 14.598 2.66162 14.8477C2.60661 15.0423 2.56641 15.2581 2.54102 15.4951C2.51562 15.7279 2.50293 15.9797 2.50293 16.2505V17.5073C2.50293 17.8755 2.52197 18.2056 2.56006 18.4976C2.60238 18.7853 2.66585 19.0371 2.75049 19.2529C2.80973 19.401 2.87956 19.5322 2.95996 19.6465C3.0446 19.7607 3.13981 19.856 3.24561 19.9321C3.35986 20.0168 3.48682 20.0802 3.62646 20.1226C3.77035 20.1606 3.92904 20.1797 4.10254 20.1797C4.33529 20.1797 4.54476 20.1501 4.73096 20.0908C4.91715 20.0316 5.07585 19.9385 5.20703 19.8115C5.33822 19.6846 5.44189 19.5216 5.51807 19.3228C5.59424 19.1239 5.64079 18.8848 5.65771 18.6055H7.44141ZM14.9316 21.5H13.167V17.4946H10.5518V21.5H8.78076V12.2578H10.5518V16.0474H13.167V12.2578H14.9316V21.5Z" fill="white"/>
</svg>
