<svg width="347" height="135" viewBox="0 0 347 135" fill="none" xmlns="http://www.w3.org/2000/svg">
<g clip-path="url(#clip0_1594_10155)">
<path d="M73.4203 2.92736H269.884C275.931 3.08193 282.133 4.47303 287.095 10.192C292.057 15.911 313.301 42.1873 315.472 44.9695C317.643 47.7517 319.968 51.3068 320.589 57.1803C321.209 63.0538 322.915 102.468 322.915 107.878C322.915 113.597 321.209 115.916 319.968 118.543C318.728 120.862 316.867 124.726 315.627 127.044C314.386 129.363 310.2 132.918 303.532 133.073H59.9299C52.7971 133.073 46.9047 130.445 43.0282 125.19C39.1516 120.089 17.9082 90.8758 16.9778 89.3302C15.4272 86.8571 14.1867 82.9929 12.0158 78.6651C10.6203 75.8829 10 71.555 13.5664 66.6089C17.2879 61.6627 53.5724 14.6744 56.8287 10.9648C60.085 7.10067 65.6672 2.7728 73.4203 2.92736Z" fill="#4F4A54"/>
<path d="M59.7748 134C52.4869 134 46.4395 131.218 42.4079 125.808C38.8415 121.016 17.1328 91.4941 16.2025 89.7939C15.2721 88.2482 14.4968 86.3934 13.5664 84.2295C12.9462 82.6838 12.1709 80.829 11.2405 78.9742C10.3101 77.1194 8.60445 72.1733 12.9462 66.1452C16.8227 60.8899 53.2622 13.9016 56.2084 10.3466C58.8445 7.25527 64.7368 2 73.2652 2H73.4203H269.883C274.845 2.15457 282.133 3.08197 287.871 9.57377C290.817 13.1288 300.431 24.8759 315.627 43.5785L316.247 44.3513C318.573 47.2881 320.899 50.8431 321.519 57.0258C322.294 63.2084 323.845 102.623 323.845 107.878C323.845 113.133 322.449 115.761 321.209 118.08C321.054 118.389 320.899 118.698 320.744 119.007C319.503 121.326 317.642 125.19 316.402 127.508C315.161 129.981 310.665 133.845 303.532 134H59.9299H59.7748ZM73.2652 3.70023C65.357 3.70023 59.9299 8.4918 57.4489 11.4286C54.5027 14.9836 18.0632 61.8173 14.3417 67.0726C10.4652 72.3279 11.8607 76.5012 12.7911 78.2014C13.7215 80.0562 14.4968 81.911 15.2721 83.6112C16.2025 85.7752 16.9778 87.4754 17.7531 88.8665C18.5284 90.2576 39.9269 119.471 43.8035 124.726C47.5249 129.672 53.1072 132.3 59.9299 132.3H303.842C310.2 132.145 314.076 128.899 315.161 126.735C316.402 124.262 318.263 120.553 319.503 118.234C319.658 117.925 319.813 117.616 319.968 117.307C321.209 115.143 322.294 112.824 322.449 107.878C322.449 101.85 320.744 62.8993 320.123 57.1803C319.503 51.4614 317.332 48.0609 315.161 45.4333L314.541 44.6604C295.469 21.0117 288.956 13.1288 286.785 10.6557C282.754 6.01873 277.482 3.8548 270.194 3.70023H73.7304C73.4202 3.70023 73.2652 3.70023 73.2652 3.70023Z" fill="#231F20"/>
<path d="M52.3319 123.335C45.199 123.335 41.4775 120.553 32.7941 108.651C24.4207 97.3678 12.7911 81.1383 12.636 80.9837L13.4114 80.52C13.5664 80.6746 25.041 96.9041 33.4143 108.187C41.9427 119.78 45.5091 122.408 52.3319 122.408H308.804C313.921 122.098 319.193 119.625 320.589 116.843L321.364 117.307C319.813 120.398 314.231 123.18 308.804 123.335H52.3319Z" fill="#231F20"/>
<path d="M265.542 6.48242C271.744 6.48242 275.776 7.25526 279.807 12.0468C283.839 16.8384 307.719 46.3606 309.734 48.8337C311.75 51.3068 313.456 55.0164 313.456 59.0351C313.456 63.0538 314.386 81.911 314.076 86.8571C313.766 91.9578 309.579 95.6674 304.152 95.822H75.1259C67.838 95.6674 64.7368 93.8126 61.3254 90.2576C57.9141 86.548 49.0756 77.1194 46.4395 73.7189C43.4933 70.0093 44.8889 67.2271 46.5946 64.5995C48.6104 62.1264 77.2968 19.0023 80.0879 14.5199C82.724 10.192 87.6859 6.48242 93.7333 6.48242H265.542Z" fill="#4F4A54"/>
<path d="M75.281 96.4403C67.838 96.2857 64.7368 94.431 61.1704 90.7214C57.604 87.0117 48.9205 77.4286 46.2845 74.0281C43.1832 70.164 44.5788 67.0726 46.4395 64.445C48.4553 61.6628 77.1417 18.5387 79.6227 14.3654C82.879 9.26468 87.9961 6.17334 93.5783 6.17334H265.387C271.899 6.17334 275.931 7.10074 279.962 11.8923C283.994 16.6839 308.184 46.5153 309.889 48.6792C312.215 51.7705 313.611 55.6347 313.611 59.1897C313.611 60.5808 313.766 63.6722 313.921 67.2272C314.231 74.6464 314.541 83.7658 314.386 87.0117C314.076 92.267 309.734 96.2857 304.152 96.4403H75.281ZM93.7333 6.94617C88.4612 6.94617 83.4993 9.88294 80.5531 14.8291C77.917 19.0024 49.0756 62.1265 47.2148 64.9087C45.6642 67.2272 44.1136 69.8548 47.0598 73.4099C49.6958 76.8103 58.3793 86.2389 61.9457 89.9485C65.357 93.5035 68.3032 95.3584 75.4361 95.3584H304.462C309.579 95.2038 313.611 91.4942 313.921 86.7026C314.076 83.4567 313.766 73.8736 313.456 66.9181C313.301 63.363 313.146 60.2717 313.146 58.8806C313.146 53.9345 310.665 50.2249 309.579 48.9883C307.719 46.8244 283.684 16.993 279.497 12.356C275.621 7.87357 271.744 7.10074 265.542 6.94617H93.7333Z" fill="#231F20"/>
<path d="M306.633 63.2083C310.51 68.1545 307.874 80.2107 299.345 81.6018H248.485C230.963 81.4472 213.131 67.0725 213.286 46.5151C213.441 25.9578 231.273 12.8196 248.95 12.8196C265.077 12.9741 275.001 24.103 275.931 25.4941C278.877 29.3582 303.222 58.8805 306.633 63.2083Z" fill="#4F4A54"/>
<path d="M248.485 82.0656C239.646 82.0656 230.653 78.356 223.985 72.0187C216.697 65.2178 212.821 56.0984 212.821 46.3607C212.976 25.185 231.583 12.2014 248.795 12.2014H248.95C266.162 12.356 276.241 24.8759 276.241 25.0305C277.637 26.8853 283.994 34.459 290.507 42.6511C297.64 51.4614 305.083 60.5808 306.943 62.8993C309.114 65.5269 309.424 70.4731 307.719 74.6464C306.168 78.6651 303.067 81.2928 299.345 81.911L248.485 82.0656ZM248.795 13.1288C232.048 13.1288 213.906 25.8033 213.751 46.3607C213.751 55.7892 217.628 64.7541 224.605 71.2459C231.273 77.4286 239.957 80.9836 248.485 80.9836H299.345C302.602 80.3653 305.393 78.0469 306.943 74.1827C308.494 70.3185 308.184 65.8361 306.323 63.363C304.462 61.0445 297.174 51.9251 289.886 43.1148C283.219 35.0773 277.016 27.349 275.621 25.4942C275.466 25.3396 265.697 13.1288 248.795 13.1288Z" fill="#231F20"/>
<path d="M239.181 126.117H276.241C277.637 126.117 279.032 127.817 276.396 127.972H238.716C237.631 127.972 236.7 126.581 239.181 126.117Z" fill="#4F4A54"/>
<path d="M238.716 128.436C237.941 128.436 237.32 127.817 237.32 127.199C237.32 126.735 237.476 125.962 239.181 125.653H276.241C277.326 125.653 278.257 126.426 278.257 127.199C278.257 127.663 277.947 128.281 276.396 128.436H238.716ZM239.181 126.581C238.251 126.735 238.096 127.044 238.096 127.199C238.096 127.354 238.406 127.663 238.716 127.663H276.396C277.171 127.663 277.481 127.354 277.481 127.354C277.481 127.199 277.016 126.735 276.241 126.735L239.181 126.581Z" fill="#231F20"/>
<path d="M312.991 126.272C313.456 126.426 313.456 128.899 309.269 129.827C302.912 131.372 299.965 130.29 300.896 128.745C301.826 127.199 302.912 128.126 307.408 127.354C311.905 126.581 311.905 125.653 312.991 126.272Z" fill="#4F4A54"/>
<path d="M303.997 131.063C302.291 131.063 301.051 130.754 300.586 130.136C300.276 129.672 300.276 129.208 300.586 128.745C301.206 127.663 302.136 127.508 303.532 127.508C304.462 127.508 305.703 127.354 307.408 127.199C309.579 126.89 310.665 126.426 311.285 126.117C312.06 125.808 312.525 125.653 313.146 126.117C313.456 126.272 313.611 126.581 313.611 127.045C313.611 127.508 313.301 129.672 309.424 130.445C307.408 130.754 305.393 131.063 303.997 131.063ZM312.37 126.581C312.215 126.581 312.06 126.581 311.595 126.735C310.82 127.045 309.734 127.508 307.563 127.817C305.858 128.126 304.617 128.126 303.687 128.281C302.136 128.281 301.826 128.436 301.361 129.054C301.206 129.363 301.361 129.518 301.361 129.518C301.826 130.136 304.307 130.6 309.424 129.363C311.75 128.899 312.525 127.972 312.836 127.354C312.991 127.045 312.991 126.735 312.991 126.581C312.681 126.581 312.525 126.581 312.37 126.581Z" fill="#231F20"/>
<path d="M248.795 15.2928C267.713 15.602 281.823 31.2132 281.823 46.8244C281.668 63.2085 268.643 78.6652 249.725 78.6652C230.808 78.5106 215.612 64.445 215.767 46.0516C215.922 28.431 231.273 14.9837 248.795 15.2928Z" fill="#FF8200"/>
<path d="M250.036 79.1289H249.88C230.343 78.9744 215.147 64.4451 215.302 45.8971C215.302 37.705 218.713 29.9767 224.605 24.1032C230.963 17.9205 239.801 14.52 248.95 14.52C268.953 14.8292 282.754 31.6769 282.599 46.6699C282.443 62.4357 270.039 79.1289 250.036 79.1289ZM248.175 15.9111C239.646 15.9111 231.428 19.157 225.381 25.0306C219.643 30.595 216.387 38.0142 216.387 45.8971C216.232 63.6722 230.963 77.7378 249.725 77.8924H249.88C269.108 77.8924 281.048 61.8174 281.048 46.8245C281.048 32.6043 267.868 16.3748 248.64 16.0657C248.64 15.9111 248.485 15.9111 248.175 15.9111Z" fill="#231F20"/>
<path d="M294.383 58.4167C301.051 58.4167 305.083 63.8266 305.083 68.7727C305.083 73.5643 301.671 78.665 294.848 78.665C288.336 78.5104 284.149 73.2552 284.149 68.309C284.304 63.3629 288.491 58.5713 294.383 58.4167Z" fill="#FF8200"/>
<path d="M295.003 79.4379H294.848C291.747 79.4379 288.801 78.2014 286.63 76.0374C284.614 73.8735 283.529 71.0913 283.529 68.4637C283.684 63.5175 287.871 58.1077 294.538 57.9531C297.795 57.9531 300.741 59.1897 302.912 61.5082C304.772 63.5175 305.858 66.2997 305.858 69.0819C305.858 71.8641 304.772 74.6463 302.757 76.6557C300.741 78.3559 298.105 79.4379 295.003 79.4379ZM294.538 59.1897C288.646 59.1897 284.924 63.9812 284.769 68.3091C284.769 70.7822 285.7 73.1007 287.56 74.9555C289.421 76.9648 292.057 78.0468 294.848 78.0468C297.64 78.0468 300.12 77.274 301.826 75.4192C303.532 73.7189 304.462 71.2459 304.462 68.7728C304.462 66.2997 303.532 63.9812 301.826 62.1264C300.586 60.8899 298.26 59.1897 294.538 59.1897Z" fill="#231F20"/>
<path d="M249.57 73.1007C249.105 73.1007 248.795 72.9462 248.485 72.4825C248.175 72.1733 246.469 69.3911 244.919 66.7635L244.143 65.3724C243.833 64.7541 243.678 64.1359 243.988 63.8267C244.143 63.6722 244.453 63.363 245.074 63.363C245.694 63.363 247.865 63.363 249.88 63.363C251.586 63.363 253.292 63.363 253.757 63.363C254.532 63.363 254.842 63.8267 254.998 63.9813C255.153 64.2904 255.153 64.9087 254.842 65.2178C254.687 65.3724 254.377 66.1452 253.757 67.0726C252.361 69.5457 250.966 72.0188 250.656 72.4825C250.346 72.9462 249.88 73.1007 249.57 73.1007ZM244.919 64.1359C244.763 64.1359 244.763 64.1359 244.763 64.2904C244.763 64.445 244.763 64.7541 244.919 65.0633L245.694 66.2998C246.779 68.1546 248.95 71.7096 249.26 72.0188C249.415 72.1733 249.57 72.3279 249.725 72.3279C249.881 72.3279 250.036 72.1733 250.036 72.0188C250.346 71.5551 252.051 68.6183 253.137 66.7635C253.602 65.8361 254.067 65.2178 254.222 64.9087C254.377 64.7541 254.377 64.5996 254.222 64.445C254.222 64.2904 253.912 64.2904 253.757 64.2904C253.292 64.2904 251.741 64.2904 249.88 64.2904C247.71 64.1359 245.694 64.1359 244.919 64.1359Z" fill="#231F20"/>
<path d="M230.188 51.4614C229.878 51.4614 229.722 51.4614 229.257 51.3069C228.792 51.1523 225.381 49.2975 222.279 47.4427L221.504 46.979C220.884 46.6698 220.729 46.2061 220.729 45.897C220.729 45.4333 221.039 44.9696 221.659 44.6605C222.124 44.3513 225.071 42.8057 226.931 41.7237L228.637 40.7963C229.102 40.4872 229.878 40.178 230.343 40.4872C230.963 40.7963 230.808 41.5691 230.808 41.7237C230.808 42.6511 230.808 47.5973 230.963 49.4521V50.0703C230.963 50.534 230.808 50.9977 230.498 51.1523C230.653 51.4614 230.343 51.4614 230.188 51.4614ZM230.033 41.4146C229.878 41.4146 229.722 41.4146 229.257 41.7237L227.552 42.6511C225.536 43.7331 222.745 45.2787 222.279 45.5879C221.969 45.7424 221.814 45.897 221.814 46.0516C221.814 46.2061 221.969 46.2062 222.124 46.3607L222.9 46.8244C224.605 47.7518 229.257 50.3795 229.722 50.6886C230.188 50.8432 230.343 50.8432 230.343 50.8432C230.343 50.8432 230.343 50.6886 230.343 50.534V49.9158C230.343 48.0609 230.188 43.1148 230.188 42.1874H230.653H230.188C230.188 41.5691 230.188 41.4146 230.033 41.4146Z" fill="#231F20"/>
<path d="M268.333 51.4615C268.178 51.4615 267.868 51.4615 267.713 51.3069C267.402 51.1523 267.092 50.8432 267.092 50.0704C267.092 49.6067 267.092 48.5247 267.092 47.2882C267.092 45.2788 266.937 42.8057 267.092 42.0329C267.092 41.4146 267.247 40.9509 267.713 40.6418C268.178 40.3327 268.798 40.4872 269.728 40.9509C270.504 41.4146 275 44.0423 276.241 44.8151L276.551 44.9697C277.016 45.2788 277.326 45.5879 277.326 46.0516C277.326 46.3608 277.171 46.8245 276.396 47.2882C275.466 47.9064 270.039 50.9978 269.418 51.3069C268.953 51.4615 268.643 51.4615 268.333 51.4615ZM267.868 42.0329C267.868 42.9603 267.868 45.2788 267.868 47.2882C267.868 48.5247 267.868 49.6067 267.868 50.0704C267.868 50.2249 267.868 50.5341 268.023 50.5341C268.178 50.6886 268.333 50.5341 268.643 50.3795C269.263 50.0704 274.69 46.979 275.621 46.3608C275.931 46.2062 276.086 45.8971 276.086 45.8971C276.086 45.7425 275.931 45.7425 275.776 45.5879L275.466 45.4334C274.225 44.6605 269.728 42.1875 268.953 41.7238C268.333 41.4146 267.868 41.2601 267.868 41.4146C267.868 41.4146 267.868 41.7238 267.868 42.0329Z" fill="#231F20"/>
<path d="M253.137 29.0493C252.672 29.0493 246.934 29.0493 245.074 29.0493H244.298C243.678 29.0493 243.213 28.8947 243.058 28.431C242.903 28.2764 242.748 27.8127 243.058 27.0399C243.213 26.5762 244.143 25.1851 245.074 23.6394C246.004 22.2483 246.779 20.8572 247.089 20.2389C247.555 19.6207 247.865 19.157 248.33 19.157C248.795 19.157 249.105 19.3115 249.415 19.9298C249.57 20.2389 250.501 21.63 251.431 23.1757C252.517 24.876 253.602 26.7308 253.912 27.0399C254.222 27.5036 254.222 27.9673 254.067 28.431C254.067 28.7401 253.602 29.0493 253.137 29.0493ZM244.298 28.1219H245.074C248.64 28.1219 252.827 28.1219 253.137 28.1219C253.292 28.1219 253.447 28.1219 253.447 27.9673C253.602 27.8127 253.447 27.6582 253.292 27.5036C252.982 27.0399 251.896 25.3397 250.811 23.4848C249.88 21.9392 248.95 20.5481 248.795 20.2389C248.64 19.9298 248.485 19.9298 248.485 19.9298C248.485 19.9298 248.175 20.0844 247.865 20.5481C247.555 21.1663 246.624 22.5574 245.849 23.9486C244.919 25.4942 243.988 26.8853 243.833 27.349C243.678 27.5036 243.678 27.6582 243.678 27.8127C243.988 28.1219 244.143 28.1219 244.298 28.1219Z" fill="#231F20"/>
<path d="M297.484 73.4097H291.592V71.0912H297.174C298.105 71.0912 298.725 69.8547 298.725 69.0819C298.725 68.7727 298.57 68.1545 298.415 67.6908C298.105 67.2271 297.795 66.9179 297.329 66.9179H292.367V68.4636L288.181 65.6814L292.367 62.7446V64.4449H297.174C298.26 64.4449 299.345 65.0631 300.276 65.9905C301.051 66.9179 301.361 67.9999 301.361 68.9273C301.361 70.1638 301.051 71.2458 300.276 72.0186C299.5 72.946 298.57 73.4097 297.484 73.4097ZM292.523 72.4823H297.484C298.26 72.4823 299.035 72.1732 299.655 71.4004C300.276 70.7821 300.586 69.8547 300.586 68.7727C300.586 67.9999 300.276 67.0725 299.655 66.2997C299.035 65.5268 298.26 65.0631 297.329 65.0631H291.747V64.1357L290.042 65.3723L291.747 66.4542V65.6814H297.484C298.26 65.6814 299.035 66.1451 299.345 66.9179C299.81 67.6908 299.81 68.4636 299.81 68.7727C299.81 70.0093 298.88 71.5549 297.484 71.5549H292.678L292.523 72.4823Z" fill="#231F20"/>
<path d="M216.697 76.0374C217.783 76.0374 218.713 77.1193 218.713 78.0467C218.713 78.8196 218.093 79.9015 216.852 79.747C215.612 79.5924 214.682 78.9741 214.682 77.8922C214.682 76.9648 215.457 76.0374 216.697 76.0374Z" fill="#4F4A54"/>
<path d="M216.852 80.2107C215.457 80.2107 214.216 79.2833 214.371 78.0468C214.371 76.8102 215.457 75.7283 216.697 75.7283C218.093 75.7283 219.023 76.9648 219.023 78.2013C219.023 79.1287 218.248 80.2107 216.852 80.2107ZM216.697 76.5011C215.922 76.5011 215.147 77.1194 215.147 78.0468C215.147 78.8196 215.922 79.4379 216.852 79.4379C217.783 79.4379 218.248 78.665 218.248 78.0468C218.093 77.4285 217.473 76.5011 216.697 76.5011Z" fill="#231F20"/>
<path d="M249.415 57.4895C246.004 57.4895 242.748 56.0984 240.577 53.9345C238.561 51.9251 237.476 49.1429 237.631 46.0516C237.786 38.6324 244.453 35.2319 249.105 35.2319C252.051 35.2319 254.842 36.4685 257.013 38.6324C259.184 40.7963 260.425 43.5785 260.27 46.5153C260.27 49.4521 259.184 52.2343 257.168 54.2436C255.308 56.253 252.516 57.4895 249.415 57.4895ZM249.105 36.4685C244.918 36.4685 239.026 39.4052 239.026 46.0516C239.026 48.6792 239.956 51.1523 241.662 52.8525C243.678 54.8619 246.624 56.0984 249.57 56.0984C252.206 56.0984 254.687 55.171 256.393 53.3162C258.099 51.4614 259.184 49.1429 259.184 46.5153C259.184 43.8877 258.099 41.4146 256.238 39.5598C254.222 37.5504 251.586 36.623 249.105 36.4685Z" fill="#231F20"/>
<path d="M198.555 81.6021H93.8884C89.7017 81.6021 86.1353 78.2016 86.1353 73.8738V20.0845C86.1353 15.9112 89.5466 12.3562 93.8884 12.3562H198.555C202.742 12.3562 206.308 15.7567 206.308 20.0845V73.8738C206.308 78.2016 202.897 81.6021 198.555 81.6021Z" fill="#4F4A54"/>
<path d="M198.555 82.3748H93.8884C89.2365 82.3748 85.36 78.6652 85.36 73.8736V20.0844C85.36 15.4474 89.0815 11.5833 93.8884 11.5833H198.555C203.207 11.5833 207.083 15.4474 207.083 20.0844V73.8736C207.083 78.6652 203.207 82.3748 198.555 82.3748ZM93.8884 13.2835C90.0118 13.2835 86.9106 16.3748 86.9106 20.239V74.0282C86.9106 77.8924 90.0118 80.9837 93.8884 80.9837H198.555C202.432 80.9837 205.533 77.8924 205.533 74.0282V20.0844C205.533 16.2203 202.432 13.1289 198.555 13.1289H93.8884V13.2835Z" fill="#231F20"/>
<path d="M198.245 77.8922H94.5086C92.0276 77.8922 90.0118 75.8828 90.0118 73.4097V20.3933C90.0118 17.9203 92.0276 15.9109 94.5086 15.9109H198.09C200.571 15.9109 202.587 17.9203 202.587 20.3933V73.4097C202.742 75.8828 200.726 77.8922 198.245 77.8922Z" fill="#FF8200"/>
<g clip-path="url(#clip1_1594_10155)">
<rect x="104.027" y="50.345" width="0.84814" height="3.465" fill="black"/>
<rect x="116.749" y="45.1475" width="1.69628" height="0.866251" fill="black"/>
<rect x="120.142" y="47.7461" width="5.93697" height="0.866251" fill="black"/>
<rect x="121.838" y="48.6123" width="4.24069" height="0.866251" fill="black"/>
<rect x="123.534" y="49.4788" width="3.39256" height="0.866249" fill="black"/>
<rect x="127.775" y="47.7461" width="1.69628" height="0.866251" fill="black"/>
<rect x="130.32" y="47.7461" width="0.848137" height="1.7325" fill="black"/>
<rect x="131.168" y="49.4788" width="0.848141" height="4.33125" fill="black"/>
<rect x="119.294" y="49.4788" width="0.848137" height="4.33125" fill="black"/>
<rect x="120.142" y="53.8098" width="0.848139" height="1.7325" fill="black"/>
<rect x="130.32" y="53.8098" width="0.848137" height="1.7325" fill="black"/>
<rect x="122.686" y="54.6763" width="4.2407" height="0.866249" fill="black"/>
<rect x="120.99" y="55.5425" width="1.69628" height="0.866253" fill="black"/>
<rect x="129.471" y="55.5425" width="0.848141" height="0.866253" fill="black"/>
<rect x="119.294" y="57.2749" width="0.848137" height="0.866249" fill="black"/>
<rect x="120.142" y="56.4087" width="0.848139" height="0.866249" fill="black"/>
<rect x="129.471" y="57.2749" width="0.848141" height="0.866249" fill="black"/>
<rect x="128.623" y="56.4087" width="0.848141" height="0.866249" fill="black"/>
<rect x="126.927" y="55.5425" width="1.69628" height="0.866253" fill="black"/>
<rect x="120.142" y="48.6123" width="0.848139" height="0.866251" fill="black"/>
<rect x="127.775" y="48.6123" width="0.848137" height="0.866251" fill="black"/>
<rect x="120.99" y="46.8799" width="9.32953" height="0.866249" fill="black"/>
<rect x="121.838" y="46.0137" width="7.63325" height="0.866249" fill="black"/>
<rect x="123.534" y="45.1475" width="4.2407" height="0.866251" fill="black"/>
<rect x="119.294" y="43.4148" width="0.848137" height="0.866249" fill="black"/>
<rect x="118.446" y="44.2812" width="0.848139" height="0.866251" fill="black"/>
<rect x="104.875" y="47.7461" width="0.84814" height="2.59875" fill="black"/>
<rect x="105.723" y="46.0137" width="0.848138" height="1.7325" fill="black"/>
<rect x="108.268" y="41.6824" width="0.84814" height="0.866251" fill="black"/>
<rect x="114.205" y="36.4849" width="1.69628" height="0.866249" fill="black"/>
<rect x="117.597" y="34.7524" width="10.1777" height="0.866251" fill="black"/>
<rect x="155.764" y="20.8923" width="44.1032" height="0.86625" fill="black"/>
<rect x="156.612" y="52.9436" width="42.407" height="0.866249" fill="black"/>
<rect x="158.308" y="56.4087" width="13.5702" height="0.866249" fill="black"/>
<rect x="162.549" y="57.2749" width="5.08884" height="0.866249" fill="black"/>
<rect x="169.334" y="58.1411" width="2.54442" height="0.866253" fill="black"/>
<rect x="177.815" y="55.5425" width="0.848145" height="2.59875" fill="black"/>
<rect x="196.474" y="55.5425" width="0.848137" height="2.59875" fill="black"/>
<rect x="177.815" y="54.6763" width="19.5072" height="0.866249" fill="black"/>
<rect x="179.512" y="56.4087" width="16.1146" height="0.866249" fill="black"/>
<rect x="156.612" y="59.8738" width="43.2551" height="0.866249" fill="black"/>
<rect x="160.853" y="61.6062" width="16.1146" height="0.866249" fill="black"/>
<rect x="177.815" y="61.6062" width="5.08884" height="0.866249" fill="black"/>
<rect x="183.752" y="61.6062" width="2.54442" height="0.866249" fill="black"/>
<rect x="187.145" y="61.6062" width="0.848145" height="0.866249" fill="black"/>
<rect x="190.537" y="61.6062" width="2.54441" height="0.866249" fill="black"/>
<rect x="193.93" y="61.6062" width="1.69627" height="0.866249" fill="black"/>
<rect x="196.474" y="61.6062" width="1.69628" height="0.866249" fill="black"/>
<rect x="188.841" y="61.6062" width="0.848129" height="0.866249" fill="black"/>
<rect x="186.297" y="65.071" width="0.848137" height="0.866253" fill="black"/>
<rect x="197.323" y="62.4724" width="0.848145" height="0.866253" fill="black"/>
<rect x="197.323" y="67.6699" width="0.848145" height="0.866249" fill="black"/>
<rect x="197.323" y="64.2048" width="0.848145" height="2.59875" fill="black"/>
<rect x="197.323" y="69.4023" width="0.848145" height="4.33125" fill="black"/>
<rect x="181.208" y="72.8674" width="13.5702" height="1.7325" fill="black"/>
<rect x="181.208" y="64.2048" width="2.54442" height="2.59875" fill="black"/>
<rect x="171.03" y="65.9375" width="1.69627" height="8.6625" fill="black"/>
<rect x="161.701" y="68.5361" width="0.848137" height="6.06375" fill="black"/>
<rect x="157.46" y="68.5361" width="0.848137" height="4.33125" fill="black"/>
<rect x="157.46" y="73.7336" width="0.848137" height="0.866249" fill="black"/>
<rect x="157.46" y="66.8037" width="0.848137" height="0.866249" fill="black"/>
<rect x="158.308" y="61.6062" width="0.848137" height="0.866249" fill="black"/>
<rect x="157.46" y="64.2048" width="0.848137" height="1.7325" fill="black"/>
<rect x="157.46" y="61.6062" width="0.848137" height="1.7325" fill="black"/>
<rect x="163.397" y="68.5361" width="0.848137" height="6.06375" fill="black"/>
<rect x="160.853" y="64.2048" width="1.69628" height="4.33125" fill="black"/>
<rect x="93.8495" y="21.7585" width="1.69628" height="6.06375" fill="black"/>
<rect x="97.2421" y="21.7585" width="1.69628" height="6.06375" fill="black"/>
<rect x="94.6977" y="27.8225" width="3.39256" height="0.86625" fill="black"/>
<rect x="99.7865" y="24.3574" width="1.69628" height="6.06375" fill="black"/>
<rect x="99.7865" y="23.4912" width="0.848139" height="0.86625" fill="black"/>
<rect x="101.483" y="23.4912" width="1.69628" height="0.86625" fill="black"/>
<rect x="102.331" y="24.3574" width="1.69628" height="3.465" fill="black"/>
<rect x="104.875" y="24.3574" width="1.69628" height="3.465" fill="black"/>
<rect x="105.723" y="23.4912" width="1.69628" height="0.86625" fill="black"/>
<rect x="105.723" y="27.8225" width="1.69628" height="0.86625" fill="black"/>
<rect x="107.42" y="21.7585" width="1.69628" height="6.93" fill="black"/>
<rect x="110.812" y="23.4912" width="2.54442" height="0.86625" fill="black"/>
<rect x="116.749" y="21.7585" width="1.69628" height="6.06375" fill="black"/>
<rect x="120.142" y="23.4912" width="1.69628" height="5.1975" fill="black"/>
<rect x="122.686" y="24.3574" width="1.69628" height="4.33125" fill="black"/>
<rect x="125.231" y="24.3574" width="1.69628" height="4.33125" fill="black"/>
<rect x="127.775" y="24.3574" width="1.69628" height="3.465" fill="black"/>
<rect x="128.623" y="27.8225" width="1.69628" height="0.86625" fill="black"/>
<rect x="128.623" y="23.4912" width="1.69628" height="0.86625" fill="black"/>
<rect x="131.168" y="23.4912" width="0.848141" height="0.86625" fill="black"/>
<rect x="133.712" y="27.8225" width="0.848141" height="0.86625" fill="black"/>
<rect x="138.801" y="27.8225" width="0.848137" height="0.86625" fill="black"/>
<rect x="136.257" y="27.8225" width="0.848141" height="0.86625" fill="black"/>
<rect x="128.623" y="29.5549" width="2.54442" height="0.86625" fill="black"/>
<rect x="130.32" y="24.3574" width="1.69628" height="5.1975" fill="black"/>
<rect x="115.901" y="23.4912" width="3.39256" height="0.86625" fill="black"/>
<rect x="117.597" y="27.8225" width="1.69628" height="0.86625" fill="black"/>
<rect x="120.142" y="21.7585" width="1.69628" height="0.86625" fill="black"/>
<rect x="122.686" y="23.4912" width="0.848139" height="0.86625" fill="black"/>
<rect x="124.383" y="23.4912" width="1.69628" height="0.86625" fill="black"/>
<rect x="113.357" y="27.8225" width="1.69628" height="0.86625" fill="black"/>
<rect x="110.812" y="27.8225" width="1.69628" height="0.86625" fill="black"/>
<rect x="109.964" y="26.0898" width="1.69628" height="1.7325" fill="black"/>
<rect x="110.812" y="25.2236" width="1.69628" height="0.86625" fill="black"/>
<rect x="109.964" y="24.3574" width="0.848139" height="0.86625" fill="black"/>
<rect x="112.509" y="24.3574" width="1.69628" height="3.465" fill="black"/>
<rect x="101.483" y="27.8225" width="1.69628" height="0.86625" fill="black"/>
<rect x="163.397" y="64.2048" width="1.69628" height="4.33125" fill="black"/>
<rect x="174.423" y="65.9375" width="1.69628" height="8.6625" fill="black"/>
<rect x="169.334" y="64.2048" width="8.48139" height="0.866249" fill="black"/>
<rect x="181.208" y="68.5361" width="0.848145" height="2.59875" fill="black"/>
<rect x="176.967" y="65.071" width="0.848137" height="1.7325" fill="black"/>
<rect x="169.334" y="65.071" width="0.848137" height="1.7325" fill="black"/>
<rect x="162.549" y="64.2048" width="0.848137" height="1.7325" fill="black"/>
<rect x="165.941" y="64.2048" width="1.69628" height="0.866249" fill="black"/>
<rect x="165.941" y="65.9375" width="1.69628" height="0.866249" fill="black"/>
<rect x="170.182" y="66.8037" width="0.848145" height="0.866249" fill="black"/>
<rect x="176.119" y="66.8037" width="0.848137" height="0.866249" fill="black"/>
<rect x="170.182" y="66.8037" width="0.848145" height="0.866249" fill="black"/>
<rect x="176.119" y="66.8037" width="0.848137" height="0.866249" fill="black"/>
<rect x="169.334" y="70.2686" width="0.848137" height="0.866249" fill="black"/>
<rect x="175.271" y="70.2686" width="0.848145" height="0.866249" fill="black"/>
<rect x="172.727" y="66.8037" width="1.69628" height="0.866249" fill="black"/>
<rect x="172.727" y="72.8674" width="1.69628" height="0.866249" fill="black"/>
<rect x="170.182" y="70.2686" width="0.848145" height="0.866249" fill="black"/>
<rect x="172.727" y="70.2686" width="1.69628" height="0.866249" fill="black"/>
<rect x="176.119" y="70.2686" width="1.69627" height="0.866249" fill="black"/>
<rect x="176.967" y="71.135" width="0.848137" height="1.7325" fill="black"/>
<rect x="169.334" y="71.135" width="0.848137" height="1.7325" fill="black"/>
<rect x="176.119" y="72.8674" width="0.848137" height="0.866249" fill="black"/>
<rect x="170.182" y="72.8674" width="0.848145" height="0.866249" fill="black"/>
<rect width="0.848145" height="0.866249" transform="matrix(-1 0 0 1 182.904 68.5361)" fill="black"/>
<rect width="1.69627" height="0.866249" transform="matrix(-1 0 0 1 183.752 70.2686)" fill="black"/>
<rect width="0.848129" height="0.866253" transform="matrix(-1 0 0 1 183.752 69.4023)" fill="black"/>
<rect x="192.234" y="68.5361" width="0.848137" height="2.59875" fill="black"/>
<rect width="0.848145" height="0.866249" transform="matrix(-1 0 0 1 193.93 68.5361)" fill="black"/>
<rect width="1.69629" height="0.866249" transform="matrix(-1 0 0 1 194.778 70.2686)" fill="black"/>
<rect width="0.848145" height="0.866253" transform="matrix(-1 0 0 1 194.778 69.4023)" fill="black"/>
<rect x="188.841" y="68.5361" width="0.848129" height="2.59875" fill="black"/>
<rect width="0.848145" height="0.866249" transform="matrix(-1 0 0 1 190.537 68.5361)" fill="black"/>
<rect width="1.69628" height="0.866249" transform="matrix(-1 0 0 1 191.386 70.2686)" fill="black"/>
<rect width="0.848137" height="0.866253" transform="matrix(-1 0 0 1 191.386 69.4023)" fill="black"/>
<rect x="184.6" y="68.5361" width="0.848129" height="2.59875" fill="black"/>
<rect width="0.848145" height="0.866249" transform="matrix(-1 0 0 1 186.297 68.5361)" fill="black"/>
<rect width="1.69628" height="0.866249" transform="matrix(-1 0 0 1 187.145 70.2686)" fill="black"/>
<rect width="0.848137" height="0.866253" transform="matrix(-1 0 0 1 187.145 69.4023)" fill="black"/>
<rect x="183.752" y="64.2048" width="3.39256" height="0.866249" fill="black"/>
<rect x="183.752" y="65.9375" width="3.39256" height="0.866249" fill="black"/>
<rect x="193.93" y="65.071" width="0.848145" height="0.866253" fill="black"/>
<rect x="188.841" y="64.2048" width="2.54441" height="2.59875" fill="black"/>
<rect x="191.386" y="64.2048" width="3.39256" height="0.866249" fill="black"/>
<rect x="191.386" y="65.9375" width="3.39256" height="0.866249" fill="black"/>
<rect x="177.815" y="58.1411" width="19.5072" height="0.866253" fill="black"/>
<rect x="162.549" y="55.5425" width="5.08884" height="0.866253" fill="black"/>
<rect x="159.156" y="50.345" width="2.54443" height="0.866249" fill="black"/>
<rect x="193.93" y="50.345" width="2.54442" height="0.866249" fill="black"/>
<rect x="191.386" y="50.345" width="0.848137" height="0.866249" fill="black"/>
<rect x="193.082" y="26.0898" width="0.848145" height="0.86625" fill="black"/>
<rect x="193.93" y="32.1536" width="0.848145" height="0.86625" fill="black"/>
<rect x="193.93" y="26.0898" width="0.848145" height="1.7325" fill="black"/>
<rect x="189.689" y="27.8225" width="0.848145" height="3.465" fill="black"/>
<rect x="190.537" y="28.6887" width="0.848137" height="2.59875" fill="black"/>
<rect x="191.386" y="29.5549" width="0.848137" height="1.7325" fill="black"/>
<rect x="192.234" y="30.4211" width="0.848137" height="0.86625" fill="black"/>
<rect x="187.145" y="26.0898" width="0.848145" height="0.86625" fill="black"/>
<rect x="159.156" y="46.8799" width="37.3181" height="2.59875" fill="black"/>
<rect x="159.156" y="24.3574" width="37.3181" height="1.7325" fill="black"/>
<rect x="171.878" y="33.8862" width="24.596" height="12.9938" fill="black"/>
<rect x="171.878" y="26.0898" width="14.4184" height="7.79625" fill="black"/>
<rect x="186.297" y="26.9561" width="3.39256" height="6.93" fill="black"/>
<rect x="165.941" y="29.5549" width="5.93697" height="6.93" fill="black"/>
<rect x="169.334" y="27.8225" width="2.54442" height="1.7325" fill="black"/>
<rect x="159.156" y="26.0898" width="12.7221" height="0.86625" fill="black"/>
<rect x="159.156" y="26.9561" width="1.69628" height="19.9238" fill="black"/>
<rect x="169.334" y="36.4849" width="2.54442" height="6.06375" fill="black"/>
<rect x="165.941" y="43.4148" width="5.93697" height="3.465" fill="black"/>
<rect x="165.093" y="38.2175" width="4.24069" height="4.33125" fill="black"/>
<rect x="160.853" y="36.4849" width="8.48139" height="0.866249" fill="black"/>
<rect x="165.093" y="37.3511" width="0.848137" height="0.866251" fill="black"/>
<rect x="161.701" y="34.7524" width="0.848137" height="8.6625" fill="black"/>
<rect x="162.549" y="43.4148" width="0.848137" height="3.465" fill="black"/>
<rect x="163.397" y="39.95" width="0.848137" height="2.59875" fill="black"/>
<rect x="162.549" y="32.1536" width="0.848137" height="3.465" fill="black"/>
<rect x="163.397" y="34.7524" width="2.54442" height="1.7325" fill="black"/>
<rect x="167.638" y="37.3511" width="0.848137" height="0.866251" fill="black"/>
<rect x="168.486" y="42.5486" width="0.848137" height="0.866249" fill="black"/>
<rect x="164.245" y="39.95" width="0.848145" height="6.93" fill="black"/>
<rect x="165.093" y="45.1475" width="0.848137" height="1.7325" fill="black"/>
<rect x="165.093" y="43.4148" width="0.848137" height="0.866249" fill="black"/>
<rect x="160.853" y="33.02" width="5.08884" height="0.86625" fill="black"/>
<rect x="160.853" y="31.2874" width="5.08884" height="0.86625" fill="black"/>
<rect x="163.397" y="29.5549" width="2.54442" height="1.7325" fill="black"/>
<rect x="162.549" y="38.2175" width="2.54442" height="0.866251" fill="black"/>
<rect x="160.853" y="45.1475" width="1.69628" height="0.866251" fill="black"/>
<rect x="163.397" y="45.1475" width="0.848137" height="0.866251" fill="black"/>
<rect x="162.549" y="41.6824" width="0.848137" height="0.866251" fill="black"/>
<rect x="163.397" y="43.4148" width="0.848137" height="0.866249" fill="black"/>
<rect x="160.853" y="41.6824" width="0.848145" height="0.866251" fill="black"/>
<rect x="162.549" y="39.95" width="0.848137" height="0.866249" fill="black"/>
<rect x="160.853" y="27.8225" width="8.48139" height="0.86625" fill="black"/>
<rect x="161.701" y="28.6887" width="0.848137" height="2.59875" fill="black"/>
<rect x="165.941" y="26.9561" width="0.848137" height="0.86625" fill="black"/>
<rect x="160.853" y="29.5549" width="0.848145" height="0.86625" fill="black"/>
<rect x="162.549" y="29.5549" width="0.848137" height="0.86625" fill="black"/>
<rect x="164.245" y="28.6887" width="0.848145" height="0.86625" fill="black"/>
<rect x="166.789" y="28.6887" width="0.848145" height="0.86625" fill="black"/>
<rect x="169.334" y="26.9561" width="0.848137" height="0.86625" fill="black"/>
<rect x="167.638" y="26.9561" width="0.848137" height="0.86625" fill="black"/>
<rect x="161.701" y="26.9561" width="0.848137" height="0.86625" fill="black"/>
<rect x="160.853" y="38.2175" width="0.848145" height="0.866251" fill="black"/>
<rect x="160.853" y="39.95" width="0.848145" height="0.866249" fill="black"/>
<rect x="160.853" y="43.4148" width="1.69628" height="0.866249" fill="black"/>
<rect x="160.853" y="34.7524" width="0.848145" height="0.866251" fill="black"/>
<rect x="166.789" y="42.5486" width="0.848145" height="0.866249" fill="black"/>
<rect x="189.689" y="31.2874" width="4.2407" height="2.59875" fill="black"/>
<rect x="194.778" y="26.0898" width="1.69627" height="7.79625" fill="black"/>
<rect x="155.764" y="21.7585" width="0.848141" height="52.8413" fill="black"/>
<rect x="199.019" y="21.7585" width="0.848145" height="52.8413" fill="black"/>
<rect x="199.019" y="21.7585" width="0.848145" height="52.8413" fill="black"/>
<rect x="115.901" y="35.6187" width="1.69628" height="0.866249" fill="black"/>
<rect x="133.712" y="38.2175" width="1.69628" height="0.866251" fill="black"/>
<rect x="138.801" y="43.4148" width="0.848137" height="0.866249" fill="black"/>
<rect x="142.193" y="40.8162" width="0.848137" height="0.866251" fill="black"/>
<rect x="142.193" y="39.95" width="1.69628" height="0.866249" fill="black"/>
<rect x="135.408" y="37.3511" width="3.39256" height="0.866251" fill="black"/>
<rect x="138.801" y="35.6187" width="1.69628" height="0.866249" fill="black"/>
<rect x="141.345" y="33.8862" width="6.78511" height="0.86625" fill="black"/>
<rect x="141.345" y="34.7524" width="5.93697" height="0.866251" fill="black"/>
<rect x="142.193" y="36.4849" width="3.39256" height="0.866249" fill="black"/>
<rect x="143.042" y="37.3511" width="2.54442" height="0.866251" fill="black"/>
<rect x="143.89" y="38.2175" width="0.848137" height="0.866251" fill="black"/>
<rect x="143.89" y="33.02" width="4.24069" height="0.86625" fill="black"/>
<rect x="145.586" y="31.2874" width="1.69627" height="0.86625" fill="black"/>
<rect x="147.282" y="30.4211" width="0.848141" height="0.86625" fill="black"/>
<rect x="149.827" y="29.5549" width="0.848137" height="1.7325" fill="black"/>
<rect x="148.979" y="26.0898" width="0.848145" height="2.59875" fill="black"/>
<rect x="148.13" y="21.7585" width="0.848137" height="4.33125" fill="black"/>
<rect x="150.675" y="20.8923" width="0.848141" height="1.7325" fill="black"/>
<rect x="152.371" y="19.1599" width="0.848141" height="0.86625" fill="black"/>
<rect x="149.827" y="19.1599" width="0.848137" height="0.86625" fill="black"/>
<rect x="151.523" y="20.0261" width="0.848137" height="0.86625" fill="black"/>
<rect x="148.979" y="20.0261" width="0.848145" height="1.7325" fill="black"/>
<rect x="149.827" y="22.625" width="0.848137" height="2.59875" fill="black"/>
<rect x="150.675" y="25.2236" width="0.848141" height="4.33125" fill="black"/>
<rect x="148.13" y="28.6887" width="0.848137" height="1.7325" fill="black"/>
<rect x="148.979" y="31.2874" width="0.848145" height="0.86625" fill="black"/>
<rect x="148.13" y="32.1536" width="0.848137" height="0.86625" fill="black"/>
<rect x="144.738" y="32.1536" width="2.54441" height="0.86625" fill="black"/>
<rect x="141.345" y="35.6187" width="5.08884" height="0.866249" fill="black"/>
<rect x="139.649" y="34.7524" width="1.69628" height="0.866251" fill="black"/>
<rect x="137.953" y="36.4849" width="1.69627" height="0.866249" fill="black"/>
<rect x="143.042" y="39.0837" width="1.69628" height="0.866249" fill="black"/>
<rect x="138.801" y="38.2175" width="0.848137" height="0.866251" fill="black"/>
<rect x="139.649" y="39.0837" width="0.848141" height="0.866249" fill="black"/>
<rect x="140.497" y="39.95" width="0.848137" height="0.866249" fill="black"/>
<rect x="141.345" y="40.8162" width="0.848141" height="3.465" fill="black"/>
<rect x="139.649" y="45.1475" width="0.848141" height="0.866251" fill="black"/>
<rect x="138.801" y="44.2812" width="2.54441" height="0.866251" fill="black"/>
<rect x="141.345" y="48.6123" width="0.848141" height="2.59875" fill="black"/>
<rect x="143.042" y="54.6763" width="0.848145" height="12.9938" fill="black"/>
<rect x="142.193" y="67.6699" width="0.848137" height="6.93" fill="black"/>
<rect x="102.331" y="72.0012" width="0.848139" height="2.59875" fill="black"/>
<rect x="103.179" y="67.6699" width="0.848139" height="4.33125" fill="black"/>
<rect x="105.723" y="69.4023" width="2.54442" height="3.465" fill="black"/>
<rect x="108.268" y="70.2686" width="3.39256" height="3.465" fill="black"/>
<rect x="106.572" y="72.8674" width="1.69628" height="0.866249" fill="black"/>
<rect x="111.66" y="71.135" width="1.69628" height="1.7325" fill="black"/>
<rect x="113.357" y="71.135" width="1.69628" height="0.866249" fill="black"/>
<rect x="102.331" y="67.6699" width="0.848139" height="0.866249" fill="black"/>
<rect x="100.635" y="66.8037" width="1.69628" height="0.866249" fill="black"/>
<rect x="98.0902" y="65.071" width="1.69628" height="0.866253" fill="black"/>
<rect x="97.2421" y="64.2048" width="0.848139" height="0.866249" fill="black"/>
<rect x="94.6977" y="61.6062" width="0.848139" height="0.866249" fill="black"/>
<rect x="93.8495" y="57.2749" width="0.848139" height="4.33125" fill="black"/>
<rect x="93.0014" y="55.5425" width="0.848139" height="4.33125" fill="black"/>
<rect x="93.8495" y="53.8098" width="0.848139" height="1.7325" fill="black"/>
<rect x="94.6977" y="52.9436" width="0.848139" height="0.866249" fill="black"/>
<rect x="95.5458" y="52.0774" width="1.69628" height="0.866249" fill="black"/>
<rect x="97.2421" y="51.2112" width="4.2407" height="0.866253" fill="black"/>
<rect x="101.483" y="52.0774" width="2.54442" height="0.866249" fill="black"/>
<rect x="104.875" y="52.9436" width="0.84814" height="0.866249" fill="black"/>
<rect x="107.42" y="54.6763" width="1.69628" height="0.866249" fill="black"/>
<rect x="112.509" y="57.2749" width="2.54442" height="0.866249" fill="black"/>
<rect x="110.812" y="58.1411" width="1.69628" height="0.866253" fill="black"/>
<rect x="115.053" y="58.1411" width="0.848141" height="0.866253" fill="black"/>
<rect x="115.901" y="59.0073" width="0.848139" height="3.465" fill="black"/>
<rect x="115.053" y="62.4724" width="0.848141" height="0.866253" fill="black"/>
<rect x="114.205" y="63.3386" width="0.848139" height="0.866249" fill="black"/>
<rect x="121.838" y="64.2048" width="0.848139" height="0.866249" fill="black"/>
<rect x="109.964" y="59.0073" width="0.848139" height="0.866249" fill="black"/>
<rect x="109.116" y="59.8738" width="0.848139" height="0.866249" fill="black"/>
<rect x="108.268" y="60.74" width="0.84814" height="0.866249" fill="black"/>
<rect x="112.509" y="64.2048" width="5.93698" height="0.866249" fill="black"/>
<rect x="109.964" y="63.3386" width="2.54442" height="0.866249" fill="black"/>
<rect x="108.268" y="62.4724" width="1.69628" height="0.866253" fill="black"/>
<rect x="106.572" y="61.6062" width="2.54442" height="0.866249" fill="black"/>
<rect x="104.875" y="60.74" width="1.69628" height="0.866249" fill="black"/>
<rect x="94.6977" y="56.4087" width="3.39256" height="0.866249" fill="black"/>
<rect x="118.446" y="63.3386" width="3.39256" height="0.866249" fill="black"/>
<rect x="98.0902" y="57.2749" width="1.69628" height="0.866249" fill="black"/>
<rect x="99.7865" y="58.1411" width="1.69628" height="0.866253" fill="black"/>
<rect x="101.483" y="59.0073" width="1.69628" height="0.866249" fill="black"/>
<rect x="103.179" y="59.8738" width="1.69628" height="0.866249" fill="black"/>
<rect x="112.509" y="61.6062" width="0.848139" height="0.866249" fill="black"/>
<rect x="111.66" y="62.4724" width="0.848139" height="0.866253" fill="black"/>
<rect x="109.116" y="55.5425" width="1.69628" height="0.866253" fill="black"/>
<rect x="105.723" y="53.8098" width="1.69628" height="0.866249" fill="black"/>
<rect x="95.5458" y="62.4724" width="0.848139" height="0.866253" fill="black"/>
<rect x="96.394" y="63.3386" width="0.848139" height="0.866249" fill="black"/>
<rect x="99.7865" y="65.9375" width="0.848139" height="0.866249" fill="black"/>
<rect x="104.027" y="68.5361" width="1.69628" height="4.33125" fill="black"/>
<rect x="142.193" y="51.2112" width="0.848137" height="3.465" fill="black"/>
<rect x="140.497" y="46.8799" width="0.848137" height="1.7325" fill="black"/>
<rect x="137.953" y="42.5486" width="1.69627" height="0.866249" fill="black"/>
<rect x="137.105" y="41.6824" width="1.69628" height="0.866251" fill="black"/>
<rect x="136.257" y="40.8162" width="1.69629" height="0.866251" fill="black"/>
<rect x="135.408" y="39.95" width="1.69628" height="0.866249" fill="black"/>
<rect x="134.56" y="39.0837" width="1.69627" height="0.866249" fill="black"/>
<rect x="132.016" y="37.3511" width="1.69628" height="0.866251" fill="black"/>
<rect x="130.32" y="36.4849" width="1.69628" height="0.866249" fill="black"/>
<rect x="127.775" y="35.6187" width="2.54442" height="0.866249" fill="black"/>
<rect x="112.509" y="37.3511" width="1.69628" height="0.866251" fill="black"/>
<rect x="111.66" y="38.2175" width="0.848139" height="0.866251" fill="black"/>
<rect x="110.812" y="39.0837" width="0.848141" height="0.866249" fill="black"/>
<rect x="109.964" y="39.95" width="0.848139" height="0.866249" fill="black"/>
<rect x="109.116" y="40.8162" width="0.848139" height="0.866251" fill="black"/>
<rect x="107.42" y="42.5486" width="0.848139" height="1.7325" fill="black"/>
<rect x="106.572" y="44.2812" width="0.84814" height="1.7325" fill="black"/>
</g>
<path d="M198.245 78.3559H94.5086C91.7175 78.3559 89.5467 76.192 89.5467 73.4098V20.3934C89.5467 17.6112 91.7175 15.4473 94.5086 15.4473H198.09C200.881 15.4473 203.052 17.6112 203.052 20.3934V73.4098C203.052 76.192 200.881 78.3559 198.245 78.3559ZM94.5086 16.3747C92.3378 16.3747 90.477 18.2295 90.477 20.3934V73.4098C90.477 75.5737 92.3378 77.4285 94.5086 77.4285H198.09C200.261 77.4285 202.121 75.5737 202.121 73.4098V20.3934C202.121 18.2295 200.261 16.3747 198.09 16.3747H94.5086Z" fill="#231F20"/>
<path d="M154.518 113.288C151.106 113.288 147.54 113.288 144.128 113.288V112.052H145.369C145.369 111.433 145.369 110.042 145.369 109.424H146.609C146.609 108.806 146.609 107.415 146.609 106.796H147.85C147.85 105.714 147.85 104.014 147.85 102.932C147.23 102.932 145.834 102.932 145.214 102.932C145.214 103.55 145.214 104.941 145.214 105.56H143.973C143.973 106.178 143.973 107.569 143.973 108.187H142.733C142.733 108.806 142.733 110.197 142.733 110.815H141.492C141.492 111.433 141.492 112.824 141.492 113.443H140.252C140.252 114.061 140.252 115.452 140.252 116.07C145.369 116.07 150.641 116.07 155.758 116.07V114.834H156.999V113.288C156.533 113.288 155.293 113.288 154.518 113.288Z" fill="#FF8200"/>
<path d="M166.302 108.187V106.951H167.543C167.543 105.869 167.543 104.169 167.543 103.087C166.922 103.087 165.527 103.087 164.907 103.087C164.907 103.705 164.907 105.096 164.907 105.714H163.666C163.666 106.333 163.666 107.724 163.666 108.342H162.426C162.426 108.96 162.426 110.351 162.426 110.97H161.185C161.185 111.588 161.185 112.979 161.185 113.597H159.945C159.945 114.215 159.945 115.607 159.945 116.225C160.565 116.225 161.961 116.225 162.581 116.225V114.988H163.821C163.821 114.37 163.821 112.979 163.821 112.361H165.062C165.062 111.742 165.062 110.351 165.062 109.733H166.302V108.187Z" fill="#FF8200"/>
<path d="M207.859 106.796H209.099V105.56H210.34C210.34 104.941 210.34 103.55 210.34 102.932C204.292 102.932 198.245 102.932 192.198 102.932C192.198 103.55 192.198 104.941 192.198 105.56H190.957C190.957 106.178 190.957 107.569 190.957 108.187H189.717C189.717 108.806 189.717 110.197 189.717 110.815H188.321C188.321 111.433 188.321 112.824 188.321 113.443H187.081C187.081 114.061 187.081 115.452 187.081 116.07C187.701 116.07 189.096 116.07 189.717 116.07V114.834H190.957C190.957 114.215 190.957 112.824 190.957 112.206H192.198V110.97C196.539 110.97 200.881 110.97 205.223 110.97V109.733H206.463V108.497H207.704V106.796H207.859ZM205.223 106.796H203.982V108.033C200.571 108.033 197.004 108.033 193.593 108.033V106.796H194.834V105.56C198.245 105.56 201.811 105.56 205.223 105.56V106.796Z" fill="#FF8200"/>
<path d="M187.08 106.796H188.321V105.56H189.561C189.561 104.941 189.561 103.55 189.561 102.932C183.514 102.932 177.467 102.932 171.419 102.932C171.419 103.55 171.419 104.941 171.419 105.56H170.179C170.179 106.178 170.179 107.569 170.179 108.187H168.938C168.938 108.806 168.938 110.197 168.938 110.815H167.698C167.698 111.433 167.698 112.824 167.698 113.443H166.457C166.457 114.061 166.457 115.452 166.457 116.07C167.078 116.07 168.473 116.07 169.093 116.07V114.834H170.334C170.334 114.215 170.334 112.824 170.334 112.206H171.574V110.97C175.916 110.97 180.258 110.97 184.599 110.97V109.733H185.84V108.497H187.08V106.796ZM184.444 106.796H183.204V108.033C179.793 108.033 176.226 108.033 172.815 108.033V106.796H174.055V105.56C177.467 105.56 181.033 105.56 184.444 105.56V106.796Z" fill="#FF8200"/>
<path d="M229.878 105.56V104.323H231.118V103.087C225.071 103.087 219.023 103.087 212.976 103.087C212.976 103.705 212.976 105.096 212.976 105.714H211.735C211.735 106.333 211.735 107.724 211.735 108.342H210.495C210.495 108.96 210.495 110.351 210.495 110.97H209.254C209.254 111.588 209.254 112.979 209.254 113.597H208.014C208.014 114.215 208.014 115.607 208.014 116.225C213.596 116.225 219.333 116.225 224.916 116.225V114.988H226.156V113.288C221.504 113.288 216.542 113.288 211.89 113.288V112.052H213.131V110.815C217.007 110.815 220.884 110.815 224.761 110.815V109.578H226.001V108.342C222.124 108.342 218.248 108.342 214.371 108.342V107.105H215.612V105.56C220.419 105.56 225.226 105.56 229.878 105.56Z" fill="#FF8200"/>
<path d="M141.647 105.56V104.323H142.888V103.087C136.375 103.087 129.863 103.087 123.35 103.087C123.35 103.705 123.35 105.096 123.35 105.714H122.11C122.11 106.333 122.11 107.724 122.11 108.342H120.869C120.869 108.96 120.869 110.351 120.869 110.97H119.629C119.629 111.588 119.629 112.979 119.629 113.597H118.388C118.388 114.215 118.388 115.607 118.388 116.225H116.993C116.993 116.843 116.993 118.234 116.993 118.852C117.613 118.852 119.008 118.852 119.629 118.852V117.616H120.869C120.869 116.998 120.869 115.607 120.869 114.988H122.11C122.11 114.37 122.11 112.979 122.11 112.361H123.35V111.124C127.227 111.124 131.103 111.124 134.98 111.124V109.888H136.22V108.651C132.344 108.651 128.467 108.651 124.591 108.651V107.415H125.831V105.56C131.258 105.56 136.53 105.56 141.647 105.56Z" fill="#FF8200"/>
<path d="M252.051 102.932C246.004 102.932 239.957 102.932 233.909 102.932C233.909 103.55 233.909 104.941 233.909 105.56H232.669C232.669 106.178 232.669 107.569 232.669 108.187H231.428C231.428 108.806 231.428 110.197 231.428 110.815H230.188C230.188 111.433 230.188 112.824 230.188 113.443H228.637C228.637 114.061 228.637 115.452 228.637 116.07C229.257 116.07 230.653 116.07 231.273 116.07V114.834H232.514C232.514 114.215 232.514 112.824 232.514 112.206H233.754V110.97C236.7 110.97 239.801 110.97 242.903 110.97V112.206H244.143V113.288H245.384V114.525H246.624V115.761H247.865V116.998H249.105V118.234C249.725 118.234 251.121 118.234 251.741 118.234C251.741 117.616 251.741 116.225 251.741 115.607H250.501V114.37H249.26V113.288H248.02V112.052H246.779C246.779 111.433 246.779 110.042 246.779 109.424H248.02V108.187H249.26V106.951H250.501V105.56H251.741V104.323H252.982V103.087H252.051V102.932ZM246.779 106.796H245.539V108.033C242.127 108.033 238.561 108.033 235.15 108.033V106.796H236.39V105.56C239.801 105.56 243.368 105.56 246.779 105.56V106.796Z" fill="#FF8200"/>
</g>
<defs>
<clipPath id="clip0_1594_10155">
<rect width="314" height="132" fill="white" transform="translate(10 2)"/>
</clipPath>
<clipPath id="clip1_1594_10155">
<rect width="106.866" height="55.44" fill="white" transform="translate(93.0014 19.1599)"/>
</clipPath>
</defs>
</svg>
