<svg width="101" height="60" viewBox="0 0 101 60" fill="none" xmlns="http://www.w3.org/2000/svg">
<path fill-rule="evenodd" clip-rule="evenodd" d="M30.2185 44.5812L29.8501 44.5641C23.3754 44.2627 18.2368 38.9509 18.2368 32.4665C18.2368 27.1931 21.6338 22.6935 26.3924 21.0351L27.8558 20.5251L27.7273 18.9807C27.7104 18.7766 27.7017 18.5698 27.7017 18.3605C27.7017 14.2808 31.032 10.9531 35.1653 10.9531C36.3368 10.9531 37.4396 11.2196 38.4208 11.6925L40.0459 12.4758L40.992 10.9398C43.9677 6.10917 49.3248 2.88745 55.4425 2.88745C64.6371 2.88745 72.1029 10.1639 72.3628 19.2126L72.4023 20.5875L73.7002 21.0426C76.2548 21.9382 78.4153 23.6531 79.8662 25.8666C80.8756 26.1918 81.8461 26.6036 82.7689 27.0931C81.2369 23.3979 78.1722 20.4911 74.362 19.1552C74.0708 9.01708 65.7117 0.887451 55.4425 0.887451C48.6058 0.887451 42.6157 4.49064 39.2892 9.89087C38.0427 9.29006 36.6436 8.95313 35.1653 8.95313C29.9387 8.95313 25.7017 13.165 25.7017 18.3605C25.7017 18.6252 25.7127 18.8874 25.7342 19.1465C20.2031 21.0742 16.2368 26.3099 16.2368 32.4665C16.2368 40.0348 22.2307 46.2115 29.7571 46.5619V46.5812H31.7571H56.654C56.5216 45.9267 56.4249 45.2594 56.3658 44.5812H30.2185Z" fill="#616161"/>
<path d="M74.3238 58C82.6205 58 89.3463 51.2843 89.3463 43C89.3463 34.7157 82.6205 28 74.3238 28C66.0271 28 59.3013 34.7157 59.3013 43C59.3013 51.2843 66.0271 58 74.3238 58Z" stroke="#F63F3F" stroke-width="2" stroke-miterlimit="10" stroke-linecap="round" stroke-linejoin="round"/>
<path d="M74.3237 37V44H80.3327" stroke="#F63F3F" stroke-width="2" stroke-linecap="round" stroke-linejoin="round"/>
<path d="M47.2827 31L55.2947 23" stroke="#616161" stroke-width="2" stroke-linecap="round" stroke-linejoin="round"/>
<path d="M44.7299 25.9998L42.8398 27.8871C40.752 29.9717 40.752 33.3516 42.8398 35.4363C44.9276 37.5209 48.3125 37.5209 50.4003 35.4363L52.2905 33.549" stroke="#616161" stroke-width="2" stroke-linecap="round" stroke-linejoin="round"/>
<path d="M50.2871 20.4508L52.1772 18.5635C54.265 16.4788 57.65 16.4788 59.7378 18.5635C61.8256 20.6481 61.8256 24.028 59.7378 26.1127L57.8477 28" stroke="#616161" stroke-width="2" stroke-linecap="round" stroke-linejoin="round"/>
</svg>
