<svg width="18" height="18" viewBox="0 0 18 18" fill="none" xmlns="http://www.w3.org/2000/svg">
<g clip-path="url(#clip0_3061_104798)">
<path d="M7.48446 3C8.15803 1.83333 9.84197 1.83333 10.5155 3L16.5777 13.5C17.2513 14.6667 16.4093 16.125 15.0622 16.125H2.93782C1.59067 16.125 0.748703 14.6667 1.42228 13.5L7.48446 3Z" stroke="white" stroke-width="1.5"/>
<path d="M9 6C9.55228 6 10 6.44772 10 7V10C10 10.5523 9.55228 11 9 11C8.44771 11 8 10.5523 8 10V7C8 6.44772 8.44771 6 9 6Z" fill="white"/>
<path d="M9 12C8.44771 12 8 12.4477 8 13C8 13.5523 8.44771 14 9 14C9.55228 14 10 13.5523 10 13C10 12.4477 9.55228 12 9 12Z" fill="white"/>
</g>
<defs>
<clipPath id="clip0_3061_104798">
<rect width="18" height="18" fill="white"/>
</clipPath>
</defs>
</svg>
