<svg width="43" height="24" viewBox="0 0 43 24" fill="none" xmlns="http://www.w3.org/2000/svg">
<path fill-rule="evenodd" clip-rule="evenodd" d="M9.33325 20C9.33325 21.1046 10.2287 22 11.3333 22H32.3333C33.4378 22 34.3333 21.1046 34.3333 20V7.63636C34.3333 7.41389 34.2969 7.1999 34.2299 7H9.33325V20ZM21.0833 4H9.33325C9.33325 2.89543 10.2287 2 11.3332 2H18.8832C19.6652 2 20.3755 2.45579 20.7013 3.16669L21.0833 4Z" fill="black"/>
<path d="M34.2299 7L34.941 6.76152L34.7694 6.25H34.2299V7ZM9.33325 7V6.25H8.58325V7H9.33325ZM9.33325 4H8.58325V4.75H9.33325V4ZM21.0833 4V4.75H22.252L21.765 3.68751L21.0833 4ZM20.7013 3.16669L20.0195 3.47918L20.0195 3.47918L20.7013 3.16669ZM11.3333 21.25C10.6429 21.25 10.0833 20.6904 10.0833 20H8.58325C8.58325 21.5188 9.81447 22.75 11.3333 22.75V21.25ZM32.3333 21.25H11.3333V22.75H32.3333V21.25ZM33.5833 20C33.5833 20.6904 33.0236 21.25 32.3333 21.25V22.75C33.852 22.75 35.0833 21.5188 35.0833 20H33.5833ZM33.5833 7.63636V20H35.0833V7.63636H33.5833ZM33.5188 7.23848C33.5604 7.3625 33.5833 7.496 33.5833 7.63636H35.0833C35.0833 7.33178 35.0335 7.0373 34.941 6.76152L33.5188 7.23848ZM34.2299 6.25H9.33325V7.75H34.2299V6.25ZM10.0833 20V7H8.58325V20H10.0833ZM9.33325 4.75H21.0833V3.25H9.33325V4.75ZM10.0833 4C10.0833 3.30964 10.6429 2.75 11.3332 2.75V1.25C9.81447 1.25 8.58325 2.48122 8.58325 4H10.0833ZM11.3332 2.75H18.8832V1.25H11.3332V2.75ZM18.8832 2.75C19.3719 2.75 19.8159 3.03487 20.0195 3.47918L21.3831 2.8542C20.9351 1.87671 19.9585 1.25 18.8832 1.25V2.75ZM20.0195 3.47918L20.4015 4.31249L21.765 3.68751L21.3831 2.8542L20.0195 3.47918Z" fill="black"/>
</svg>