<svg width="27" height="22" viewBox="0 0 27 22" fill="none" xmlns="http://www.w3.org/2000/svg">
<path fill-rule="evenodd" clip-rule="evenodd" d="M1 19C1 20.1046 1.89543 21 3 21H24C25.1046 21 26 20.1046 26 19V6.63636C26 6.41389 25.9637 6.1999 25.8966 6H1V19ZM12.75 3H1C1 1.89543 1.89543 1 3 1H10.5499C11.332 1 12.0422 1.45579 12.3681 2.16669L12.75 3Z" fill="#303030"/>
<path d="M25.8966 6L26.6077 5.76152L26.4362 5.25H25.8966V6ZM1 6V5.25H0.25V6H1ZM1 3H0.25V3.75H1V3ZM12.75 3V3.75H13.9188L13.4318 2.68751L12.75 3ZM12.3681 2.16669L11.6863 2.47918L11.6863 2.47918L12.3681 2.16669ZM3 20.25C2.30964 20.25 1.75 19.6904 1.75 19H0.25C0.25 20.5188 1.48122 21.75 3 21.75V20.25ZM24 20.25H3V21.75H24V20.25ZM25.25 19C25.25 19.6904 24.6904 20.25 24 20.25V21.75C25.5188 21.75 26.75 20.5188 26.75 19H25.25ZM25.25 6.63636V19H26.75V6.63636H25.25ZM25.1856 6.23848C25.2272 6.3625 25.25 6.496 25.25 6.63636H26.75C26.75 6.33178 26.7002 6.0373 26.6077 5.76152L25.1856 6.23848ZM25.8966 5.25H1V6.75H25.8966V5.25ZM1.75 19V6H0.25V19H1.75ZM1 3.75H12.75V2.25H1V3.75ZM1.75 3C1.75 2.30964 2.30964 1.75 3 1.75V0.25C1.48121 0.25 0.25 1.48122 0.25 3H1.75ZM3 1.75H10.5499V0.25H3V1.75ZM10.5499 1.75C11.0387 1.75 11.4826 2.03487 11.6863 2.47918L13.0499 1.8542C12.6018 0.876706 11.6252 0.25 10.5499 0.25V1.75ZM11.6863 2.47918L12.0682 3.31249L13.4318 2.68751L13.0499 1.8542L11.6863 2.47918Z" fill="#303030"/>
</svg>
