<svg width="42" height="24" viewBox="0 0 42 24" fill="none" xmlns="http://www.w3.org/2000/svg">
<path fill-rule="evenodd" clip-rule="evenodd" d="M9 20C9 21.1046 9.89543 22 11 22H32C33.1046 22 34 21.1046 34 20V7.63636C34 7.41389 33.9637 7.1999 33.8966 7H9V20ZM20.75 4H9C9 2.89543 9.89543 2 11 2H18.5499C19.332 2 20.0422 2.45579 20.3681 3.16669L20.75 4Z" fill="#303030"/>
<path d="M33.8966 7L34.6077 6.76152L34.4362 6.25H33.8966V7ZM9 7V6.25H8.25V7H9ZM9 4H8.25V4.75H9V4ZM20.75 4V4.75H21.9188L21.4318 3.68751L20.75 4ZM20.3681 3.16669L19.6863 3.47918L19.6863 3.47918L20.3681 3.16669ZM11 21.25C10.3096 21.25 9.75 20.6904 9.75 20H8.25C8.25 21.5188 9.48122 22.75 11 22.75V21.25ZM32 21.25H11V22.75H32V21.25ZM33.25 20C33.25 20.6904 32.6904 21.25 32 21.25V22.75C33.5188 22.75 34.75 21.5188 34.75 20H33.25ZM33.25 7.63636V20H34.75V7.63636H33.25ZM33.1856 7.23848C33.2272 7.3625 33.25 7.496 33.25 7.63636H34.75C34.75 7.33178 34.7002 7.0373 34.6077 6.76152L33.1856 7.23848ZM33.8966 6.25H9V7.75H33.8966V6.25ZM9.75 20V7H8.25V20H9.75ZM9 4.75H20.75V3.25H9V4.75ZM9.75 4C9.75 3.30964 10.3096 2.75 11 2.75V1.25C9.48121 1.25 8.25 2.48122 8.25 4H9.75ZM11 2.75H18.5499V1.25H11V2.75ZM18.5499 2.75C19.0387 2.75 19.4826 3.03487 19.6863 3.47918L21.0499 2.8542C20.6018 1.87671 19.6252 1.25 18.5499 1.25V2.75ZM19.6863 3.47918L20.0682 4.31249L21.4318 3.68751L21.0499 2.8542L19.6863 3.47918Z" fill="#303030"/>
</svg>
