<svg width="170" height="66" viewBox="0 0 170 66" fill="none" xmlns="http://www.w3.org/2000/svg">
<path fill-rule="evenodd" clip-rule="evenodd" d="M75.2324 12H38.668C36.8085 12 35.0541 12.8621 33.9181 14.3342L20.2496 32.0449C18.4811 34.3365 18.6007 37.5639 20.5341 39.7182L31.5629 52.0075C32.7009 53.2756 34.3245 54 36.0283 54H101.197C104.511 54 107.197 51.3137 107.197 48V31.3026C107.197 30.1268 106.852 28.977 106.204 27.9959L101.134 20.3196C100.669 21.0766 100.133 21.7859 99.5372 22.4386L104.118 29.3737C104.496 29.946 104.697 30.6167 104.697 31.3026V48C104.697 49.933 103.13 51.5 101.197 51.5H36.0283C35.0344 51.5 34.0874 51.0774 33.4235 50.3377L22.3947 38.0484C21.2669 36.7918 21.1971 34.9091 22.2287 33.5724L35.8972 15.8616C36.5599 15.0029 37.5833 14.5 38.668 14.5H75.2766C75.2241 14.0072 75.1972 13.5067 75.1972 13C75.1972 12.6638 75.2091 12.3303 75.2324 12Z" fill="#616161"/>
<path fill-rule="evenodd" clip-rule="evenodd" d="M80.7462 36H80.6973V30H80.7462C81.8236 30 82.6973 30.8943 82.6973 31.9973V34.0027C82.6973 35.1057 81.8236 36 80.7462 36Z" fill="#616161"/>
<rect x="50.9473" y="26.75" width="27.7857" height="12.4318" rx="2.25" stroke="#616161" stroke-width="1.5"/>
<rect x="52.6973" y="29" width="4" height="8" rx="1" fill="#F63F3F"/>
<circle cx="89.1973" cy="13" r="12" fill="#F63F3F"/>
<path d="M92.0429 10.326L89.0511 10.3205L88.6129 5.9943C88.5066 5.01933 87.5827 5.08308 87.4142 5.82231L85.617 13.5777C85.5342 14.1325 85.7355 14.5246 86.2023 14.5862L89.201 14.5961L89.6415 18.9716C89.7527 19.8474 90.622 19.8496 90.8371 19.0981L92.6361 11.3413C92.7198 10.805 92.4742 10.3694 92.0429 10.326Z" fill="white"/>
<mask id="path-7-inside-1_1763_151892" fill="white">
<rect x="114" y="37" width="7" height="7" rx="1"/>
</mask>
<rect x="114" y="37" width="7" height="7" rx="1" stroke="#616161" stroke-width="3" mask="url(#path-7-inside-1_1763_151892)"/>
<rect x="119.5" y="35.5" width="18" height="10" rx="1.5" fill="#616161" stroke="#616161"/>
<rect x="138.5" y="39.5" width="30" height="2" fill="#616161" stroke="#616161"/>
</svg>
