<svg width="238" height="100" viewBox="0 0 238 100" fill="none" xmlns="http://www.w3.org/2000/svg">
<g clip-path="url(#clip0_1076_7565)">
<path d="M48.0701 0.702633H196.982C201.565 0.819729 206.267 1.87359 210.028 6.20615C213.789 10.5387 229.89 30.445 231.536 32.5527C233.181 34.6605 234.944 37.3537 235.414 41.8033C235.884 46.253 237.177 76.1125 237.177 80.2108C237.177 84.5434 235.884 86.2998 234.944 88.2905C234.004 90.0469 232.594 92.9743 231.653 94.7307C230.713 96.4872 227.54 99.1804 222.486 99.2975H37.8449C32.4385 99.2975 27.9723 97.3068 25.0341 93.3256C22.0958 89.4614 5.99407 67.3303 5.28888 66.1593C4.11358 64.2858 3.17333 61.3584 1.5279 58.0797C0.470119 55.972 -4.33224e-06 52.6933 2.70321 48.9462C5.52395 45.1991 33.0262 9.60193 35.4943 6.79163C37.9625 3.86423 42.1936 0.585537 48.0701 0.702633Z" fill="white"/>
<path d="M37.7274 100C32.2034 100 27.6197 97.8923 24.5639 93.7939C21.8607 90.1639 5.40641 67.7986 4.70122 66.5105C3.99604 65.3396 3.40838 63.9344 2.7032 62.2951C2.23307 61.1241 1.64542 59.719 0.940234 58.3138C0.235048 56.9087 -1.05779 53.1616 2.23307 48.5948C5.17134 44.6136 32.7911 9.01639 35.0242 6.32319C37.0222 3.98126 41.4884 0 47.9526 0H48.0701H196.982C200.743 0.117096 206.267 0.819672 210.615 5.73771C212.848 8.43091 220.135 17.3302 231.653 31.4988L232.123 32.0843C233.886 34.3091 235.649 37.0023 236.12 41.6862C236.707 46.37 237.882 76.2295 237.882 80.2108C237.882 84.192 236.825 86.1827 235.884 87.9391C235.767 88.1733 235.649 88.4075 235.532 88.6417C234.592 90.3981 233.181 93.3255 232.241 95.082C231.301 96.9555 227.892 99.8829 222.486 100H37.8449C37.8449 100 37.7274 100 37.7274 100ZM47.9526 1.28806C41.9585 1.28806 37.8449 4.91803 35.9644 7.14286C33.7313 9.83607 6.11159 45.3162 3.29085 49.2974C0.352579 53.2787 1.41036 56.4403 2.11554 57.7283C2.82073 59.1335 3.40838 60.5386 3.99604 61.8267C4.70122 63.466 5.28888 64.7541 5.87653 65.808C6.46418 66.8618 22.6834 88.993 25.6217 92.9742C28.4425 96.7213 32.6736 98.7119 37.8449 98.7119H222.721C227.54 98.5949 230.478 96.1358 231.301 94.4965C232.241 92.6229 233.651 89.8126 234.592 88.0562C234.709 87.822 234.827 87.5878 234.944 87.3536C235.884 85.7143 236.707 83.9578 236.825 80.2108C236.825 75.644 235.532 46.1358 235.062 41.8033C234.592 37.4707 232.946 34.8946 231.301 32.904L230.831 32.3185C216.374 14.4028 211.438 8.43091 209.793 6.55738C206.737 3.0445 202.741 1.40515 197.217 1.28806H48.3052C48.0701 1.28806 47.9526 1.28806 47.9526 1.28806Z" fill="#231F20"/>
<path d="M32.0859 91.9203C26.6795 91.9203 23.8588 89.8126 17.277 80.7962C10.9304 72.2482 2.11555 59.9531 1.99802 59.836L2.58567 59.4847C2.7032 59.6018 11.4005 71.8969 17.7472 80.4449C24.2114 89.2271 26.9146 91.2178 32.0859 91.2178H226.482C230.36 90.9836 234.357 89.11 235.414 87.0023L236.002 87.3536C234.827 89.6955 230.596 91.8032 226.482 91.9203H32.0859Z" fill="#231F20"/>
<path d="M193.691 3.39587C198.392 3.39587 201.448 3.98135 204.504 7.61133C207.559 11.2413 225.659 33.6066 227.187 35.4802C228.715 37.3537 230.008 40.164 230.008 43.2085C230.008 46.253 230.713 60.5387 230.478 64.2858C230.243 68.15 227.07 70.9603 222.956 71.0774H49.3629C43.839 70.9603 41.4884 69.5551 38.9027 66.8619C36.317 64.0516 29.6177 56.9088 27.6197 54.3326C25.3866 51.5223 26.4444 49.4146 27.7373 47.424C29.2652 45.5504 51.0084 12.8807 53.1239 9.48487C55.1219 6.20618 58.8829 3.39587 63.4666 3.39587H193.691Z" fill="white"/>
<path d="M49.4805 71.5457C43.839 71.4286 41.4884 70.0235 38.7852 67.2132C36.0819 64.4028 29.5002 57.1429 27.5022 54.5668C25.1516 51.6394 26.2094 49.2975 27.6197 47.3068C29.1476 45.1991 50.8908 12.5293 52.7713 9.36771C55.2395 5.50354 59.118 3.16162 63.3491 3.16162H193.573C198.51 3.16162 201.565 3.8642 204.621 7.49417C207.677 11.1242 226.012 33.7237 227.305 35.363C229.068 37.705 230.125 40.6324 230.125 43.3256C230.125 44.3794 230.243 46.7213 230.36 49.4146C230.596 55.0352 230.831 61.9438 230.713 64.4028C230.478 68.3841 227.187 71.4286 222.956 71.5457H49.4805ZM63.4666 3.7471C59.4706 3.7471 55.7096 5.97193 53.4765 9.719C51.4785 12.8806 29.6178 45.5504 28.2074 47.6581C27.0321 49.4146 25.8568 51.4052 28.0899 54.0984C30.0879 56.6745 36.6696 63.8174 39.3728 66.6277C41.9585 69.3209 44.1916 70.726 49.598 70.726H223.191C227.07 70.6089 230.125 67.7986 230.36 64.1687C230.478 61.7096 230.243 54.4497 230.008 49.1804C229.89 46.4872 229.773 44.1452 229.773 43.0914C229.773 39.3443 227.892 36.534 227.07 35.5972C225.659 33.9579 207.442 11.3583 204.269 7.84546C201.33 4.44968 198.392 3.8642 193.691 3.7471H63.4666Z" fill="#231F20"/>
<path d="M224.837 46.3701C227.775 50.1172 225.777 59.2506 219.313 60.3045H180.762C167.481 60.1874 153.965 49.2975 154.083 33.7237C154.2 18.1499 167.717 8.19678 181.115 8.19678C193.338 8.31387 200.86 16.7448 201.565 17.7987C203.799 20.7261 222.251 43.0914 224.837 46.3701Z" fill="white"/>
<path d="M180.762 60.6558C174.063 60.6558 167.246 57.8455 162.193 53.0446C156.669 47.8923 153.73 40.9837 153.73 33.6066C153.848 17.5645 167.952 7.72839 180.998 7.72839H181.115C194.161 7.84549 201.8 17.3303 201.8 17.4474C202.858 18.8525 207.677 24.5902 212.613 30.7963C218.02 37.4708 223.661 44.3795 225.072 46.1359C226.717 48.1265 226.952 51.8736 225.659 55.0352C224.484 58.0797 222.133 60.0703 219.313 60.5387L180.762 60.6558ZM180.998 8.43097C168.304 8.43097 154.553 18.0328 154.436 33.6066C154.436 40.7495 157.374 47.541 162.663 52.4591C167.717 57.1429 174.298 59.8361 180.762 59.8361H219.313C221.781 59.3677 223.896 57.6113 225.072 54.6839C226.247 51.7565 226.012 48.3607 224.601 46.4872C223.191 44.7307 217.667 37.8221 212.143 31.1476C207.089 25.0586 202.388 19.2038 201.33 17.7987C201.213 17.6816 193.808 8.43097 181.115 8.31387C180.998 8.43097 180.998 8.43097 180.998 8.43097Z" fill="#231F20"/>
<path d="M173.711 94.0281H201.8C202.858 94.0281 203.916 95.3161 201.918 95.4332H173.358C172.535 95.4332 171.83 94.3794 173.711 94.0281Z" fill="white"/>
<path d="M173.358 95.7845C172.77 95.7845 172.3 95.3161 172.3 94.8477C172.3 94.4964 172.418 93.9109 173.711 93.6768H201.8C202.623 93.6768 203.328 94.2622 203.328 94.8477C203.328 95.199 203.093 95.6674 201.918 95.7845H173.358ZM173.711 94.3793C173.005 94.4964 172.888 94.7306 172.888 94.8477C172.888 94.9648 173.123 95.199 173.358 95.199H201.918C202.506 95.199 202.741 94.9648 202.741 94.9648C202.741 94.8477 202.388 94.4964 201.8 94.4964L173.711 94.3793Z" fill="#231F20"/>
<path d="M229.655 94.1452C230.008 94.2623 230.008 96.1358 226.835 96.8384C222.016 98.0094 219.783 97.1897 220.488 96.0188C221.193 94.8478 222.016 95.5504 225.424 94.9649C228.833 94.3794 228.833 93.6768 229.655 94.1452Z" fill="white"/>
<path d="M222.839 97.7752C221.546 97.7752 220.605 97.541 220.253 97.0726C220.018 96.7213 220.018 96.37 220.253 96.0187C220.723 95.1991 221.428 95.082 222.486 95.082C223.191 95.082 224.131 94.9649 225.424 94.8478C227.07 94.6136 227.892 94.2623 228.362 94.0281C228.95 93.7939 229.303 93.6768 229.773 94.0281C230.008 94.1452 230.125 94.3794 230.125 94.7307C230.125 95.082 229.89 96.7213 226.952 97.3068C225.424 97.541 223.896 97.7752 222.839 97.7752ZM229.185 94.3794C229.068 94.3794 228.95 94.3794 228.598 94.4965C228.01 94.7307 227.187 95.082 225.542 95.3162C224.249 95.5504 223.309 95.5503 222.603 95.6674C221.428 95.6674 221.193 95.7845 220.841 96.2529C220.723 96.4871 220.841 96.6042 220.841 96.6042C221.193 97.0726 223.074 97.4239 226.952 96.4871C228.715 96.1358 229.303 95.4333 229.538 94.9649C229.655 94.7307 229.655 94.4965 229.655 94.3794C229.42 94.3794 229.303 94.3794 229.185 94.3794Z" fill="#231F20"/>
<path d="M180.998 10.0702C195.336 10.3044 206.032 22.1311 206.032 33.9578C205.914 46.37 196.041 58.0796 181.703 58.0796C167.364 57.9625 155.846 47.3068 155.963 33.3723C156.081 20.0234 167.717 9.83605 180.998 10.0702Z" fill="#FF8200"/>
<path d="M181.938 58.4309H181.82C167.011 58.3138 155.493 47.3068 155.611 33.2552C155.611 27.0491 158.197 21.1943 162.663 16.7447C167.481 12.0609 174.181 9.48474 181.115 9.48474C196.277 9.71893 206.737 22.4824 206.619 33.8407C206.502 45.7845 197.099 58.4309 181.938 58.4309ZM180.527 10.5386C174.063 10.5386 167.834 12.9976 163.25 17.4473C158.902 21.6627 156.434 27.2833 156.434 33.2552C156.316 46.7213 167.481 57.377 181.703 57.4941H181.82C196.394 57.4941 205.444 45.3161 205.444 33.9578C205.444 23.185 195.454 10.8899 180.88 10.6557C180.88 10.5386 180.762 10.5386 180.527 10.5386Z" fill="#231F20"/>
<path d="M215.552 42.7401C220.605 42.7401 223.661 46.8385 223.661 50.5855C223.661 54.2155 221.076 58.0797 215.904 58.0797C210.968 57.9626 207.795 53.9813 207.795 50.2343C207.912 46.4872 211.085 42.8572 215.552 42.7401Z" fill="#FF8200"/>
<path d="M216.022 58.6651H215.904C213.554 58.6651 211.32 57.7284 209.675 56.089C208.147 54.4497 207.324 52.342 207.324 50.3513C207.442 46.6043 210.615 42.5059 215.669 42.3888C218.137 42.3888 220.37 43.3256 222.016 45.082C223.426 46.6043 224.249 48.712 224.249 50.8197C224.249 52.9274 223.426 55.0352 221.898 56.5574C220.37 57.8455 218.372 58.6651 216.022 58.6651ZM215.669 43.3256C211.203 43.3256 208.382 46.9555 208.265 50.2342C208.265 52.1078 208.97 53.8642 210.38 55.2694C211.791 56.7916 213.789 57.6113 215.904 57.6113C218.02 57.6113 219.9 57.0258 221.193 55.6206C222.486 54.3326 223.191 52.4591 223.191 50.5855C223.191 48.712 222.486 46.9555 221.193 45.5504C220.253 44.6136 218.49 43.3256 215.669 43.3256Z" fill="#231F20"/>
<path d="M181.585 53.8641C181.233 53.8641 180.998 53.747 180.762 53.3957C180.527 53.1615 179.235 51.0538 178.059 49.0632L177.472 48.0093C177.237 47.5409 177.119 47.0725 177.354 46.8383C177.472 46.7213 177.707 46.4871 178.177 46.4871C178.647 46.4871 180.292 46.4871 181.82 46.4871C183.113 46.4871 184.406 46.4871 184.759 46.4871C185.346 46.4871 185.581 46.8383 185.699 46.9554C185.816 47.1896 185.816 47.658 185.581 47.8922C185.464 48.0093 185.229 48.5948 184.759 49.2974C183.701 51.1709 182.643 53.0444 182.408 53.3957C182.173 53.747 181.82 53.8641 181.585 53.8641ZM178.059 47.0725C177.942 47.0725 177.942 47.0725 177.942 47.1896C177.942 47.3067 177.942 47.5409 178.059 47.7751L178.647 48.7119C179.47 50.117 181.115 52.8102 181.35 53.0444C181.468 53.1615 181.585 53.2786 181.703 53.2786C181.82 53.2786 181.938 53.1615 181.938 53.0444C182.173 52.6931 183.466 50.4683 184.288 49.0632C184.641 48.3606 184.994 47.8922 185.111 47.658C185.229 47.5409 185.229 47.4238 185.111 47.3067C185.111 47.1896 184.876 47.1896 184.759 47.1896C184.406 47.1896 183.231 47.1896 181.82 47.1896C180.175 47.0725 178.647 47.0725 178.059 47.0725Z" fill="#231F20"/>
<path d="M166.894 37.4708C166.659 37.4708 166.541 37.4708 166.189 37.3537C165.836 37.2366 163.25 35.8314 160.9 34.4263L160.312 34.075C159.842 33.8408 159.724 33.4895 159.724 33.2553C159.724 32.904 159.959 32.5527 160.43 32.3185C160.782 32.0843 163.015 30.9134 164.426 30.0937L165.718 29.3911C166.071 29.1569 166.659 28.9227 167.011 29.1569C167.481 29.3911 167.364 29.9766 167.364 30.0937C167.364 30.7963 167.364 34.5434 167.481 35.9485V36.4169C167.481 36.7682 167.364 37.1195 167.129 37.2366C167.246 37.4708 167.011 37.4708 166.894 37.4708ZM166.776 29.8595C166.659 29.8595 166.541 29.8595 166.189 30.0937L164.896 30.7963C163.368 31.616 161.252 32.7869 160.9 33.0211C160.665 33.1382 160.547 33.2553 160.547 33.3724C160.547 33.4895 160.665 33.4895 160.782 33.6066L161.37 33.9579C162.663 34.6605 166.189 36.6511 166.541 36.8853C166.894 37.0024 167.011 37.0024 167.011 37.0024C167.011 37.0024 167.011 36.8853 167.011 36.7682V36.2998C167.011 34.8947 166.894 31.1476 166.894 30.445H167.246H166.894C166.894 29.9766 166.894 29.8595 166.776 29.8595Z" fill="#231F20"/>
<path d="M195.806 37.4708C195.689 37.4708 195.454 37.4708 195.336 37.3537C195.101 37.2366 194.866 37.0024 194.866 36.4169C194.866 36.0656 194.866 35.246 194.866 34.3092C194.866 32.7869 194.749 30.9134 194.866 30.3279C194.866 29.8595 194.984 29.5083 195.336 29.2741C195.689 29.0399 196.159 29.157 196.864 29.5083C197.452 29.8595 200.86 31.8502 201.8 32.4357L202.036 32.5528C202.388 32.7869 202.623 33.0211 202.623 33.3724C202.623 33.6066 202.506 33.9579 201.918 34.3092C201.213 34.7776 197.099 37.1195 196.629 37.3537C196.277 37.4708 196.041 37.4708 195.806 37.4708ZM195.454 30.3279C195.454 31.0305 195.454 32.7869 195.454 34.3092C195.454 35.246 195.454 36.0656 195.454 36.4169C195.454 36.534 195.454 36.7682 195.571 36.7682C195.689 36.8853 195.806 36.7682 196.041 36.6511C196.512 36.4169 200.625 34.075 201.33 33.6066C201.565 33.4895 201.683 33.2553 201.683 33.2553C201.683 33.1382 201.565 33.1382 201.448 33.0211L201.213 32.904C200.273 32.3186 196.864 30.445 196.277 30.0937C195.806 29.8595 195.454 29.7424 195.454 29.8595C195.454 29.8595 195.454 30.0937 195.454 30.3279Z" fill="#231F20"/>
<path d="M184.288 20.4918C183.936 20.4918 179.587 20.4918 178.177 20.4918H177.589C177.119 20.4918 176.766 20.3747 176.649 20.0234C176.531 19.9063 176.414 19.5551 176.649 18.9696C176.766 18.6183 177.472 17.5644 178.177 16.3935C178.882 15.3396 179.47 14.2857 179.705 13.8174C180.057 13.349 180.292 12.9977 180.645 12.9977C180.998 12.9977 181.233 13.1148 181.468 13.5832C181.585 13.8174 182.29 14.8712 182.996 16.0422C183.818 17.3302 184.641 18.7354 184.876 18.9696C185.111 19.3209 185.111 19.6722 184.994 20.0234C184.994 20.2576 184.641 20.4918 184.288 20.4918ZM177.589 19.7892H178.177C180.88 19.7892 184.053 19.7892 184.288 19.7892C184.406 19.7892 184.523 19.7892 184.523 19.6722C184.641 19.5551 184.523 19.438 184.406 19.3209C184.171 18.9696 183.348 17.6815 182.525 16.2764C181.82 15.1054 181.115 14.0515 180.998 13.8174C180.88 13.5832 180.762 13.5832 180.762 13.5832C180.762 13.5832 180.527 13.7003 180.292 14.0515C180.057 14.5199 179.352 15.5738 178.764 16.6277C178.059 17.7986 177.354 18.8525 177.237 19.2038C177.119 19.3209 177.119 19.438 177.119 19.5551C177.354 19.7892 177.472 19.7892 177.589 19.7892Z" fill="#231F20"/>
<path d="M217.902 54.0983H213.436V52.3419H217.667C218.372 52.3419 218.842 51.4051 218.842 50.8196C218.842 50.5854 218.725 50.117 218.607 49.7658C218.372 49.4145 218.137 49.1803 217.785 49.1803H214.024V50.3512L210.85 48.2435L214.024 46.0187V47.3067H217.667C218.49 47.3067 219.313 47.7751 220.018 48.4777C220.605 49.1803 220.84 49.9999 220.84 50.7025C220.84 51.6393 220.605 52.459 220.018 53.0444C219.43 53.747 218.725 54.0983 217.902 54.0983ZM214.141 53.3957H217.902C218.49 53.3957 219.078 53.1615 219.548 52.5761C220.018 52.1077 220.253 51.4051 220.253 50.5854C220.253 49.9999 220.018 49.2974 219.548 48.7119C219.078 48.1264 218.49 47.7751 217.785 47.7751H213.554V47.0725L212.261 48.0093L213.554 48.829V48.2435H217.902C218.49 48.2435 219.078 48.5948 219.313 49.1803C219.665 49.7658 219.665 50.3512 219.665 50.5854C219.665 51.5222 218.96 52.6932 217.902 52.6932H214.259L214.141 53.3957Z" fill="#231F20"/>
<path d="M156.669 56.0891C157.491 56.0891 158.197 56.9088 158.197 57.6114C158.197 58.1968 157.726 59.0165 156.786 58.8994C155.846 58.7823 155.141 58.3139 155.141 57.4943C155.141 56.7917 155.728 56.0891 156.669 56.0891Z" fill="white"/>
<path d="M156.786 59.2506C155.728 59.2506 154.788 58.5481 154.906 57.6113C154.906 56.6745 155.728 55.8549 156.669 55.8549C157.726 55.8549 158.432 56.7916 158.432 57.7284C158.432 58.431 157.844 59.2506 156.786 59.2506ZM156.669 56.4403C156.081 56.4403 155.493 56.9087 155.493 57.6113C155.493 58.1968 156.081 58.6652 156.786 58.6652C157.491 58.6652 157.844 58.0797 157.844 57.6113C157.726 57.1429 157.256 56.4403 156.669 56.4403Z" fill="#231F20"/>
<path d="M181.468 42.0375C178.882 42.0375 176.414 40.9836 174.768 39.3443C173.24 37.822 172.418 35.7143 172.535 33.3724C172.653 27.7518 177.707 25.1757 181.233 25.1757C183.466 25.1757 185.581 26.1124 187.227 27.7518C188.872 29.3911 189.812 31.4988 189.695 33.7237C189.695 35.9485 188.872 38.0562 187.344 39.5785C185.934 41.1007 183.818 42.0375 181.468 42.0375ZM181.233 26.1124C178.059 26.1124 173.593 28.3373 173.593 33.3724C173.593 35.363 174.298 37.2366 175.591 38.5246C177.119 40.0469 179.352 40.9836 181.585 40.9836C183.583 40.9836 185.464 40.281 186.757 38.8759C188.049 37.4707 188.872 35.7143 188.872 33.7237C188.872 31.733 188.049 29.8595 186.639 28.4543C185.111 26.9321 183.113 26.2295 181.233 26.1124Z" fill="#231F20"/>
<path d="M142.918 60.3045H63.5842C60.4109 60.3045 57.7076 57.7284 57.7076 54.4497V13.7003C57.7076 10.5387 60.2933 7.84546 63.5842 7.84546H142.918C146.091 7.84546 148.794 10.4216 148.794 13.7003V54.4497C148.794 57.7284 146.208 60.3045 142.918 60.3045Z" fill="white"/>
<path d="M142.918 60.89H63.5842C60.0583 60.89 57.12 58.0797 57.12 54.4497V13.7003C57.12 10.1874 59.9407 7.26001 63.5842 7.26001H142.918C146.443 7.26001 149.382 10.1874 149.382 13.7003V54.4497C149.382 58.0797 146.443 60.89 142.918 60.89ZM63.5842 8.54807C60.6459 8.54807 58.2953 10.89 58.2953 13.8174V54.5668C58.2953 57.4942 60.6459 59.8361 63.5842 59.8361H142.918C145.856 59.8361 148.206 57.4942 148.206 54.5668V13.7003C148.206 10.7729 145.856 8.43097 142.918 8.43097H63.5842V8.54807Z" fill="#231F20"/>
<path d="M142.682 57.4942H64.0543C62.1738 57.4942 60.6459 55.972 60.6459 54.0984V13.9345C60.6459 12.0609 62.1738 10.5387 64.0543 10.5387H142.565C144.445 10.5387 145.973 12.0609 145.973 13.9345V54.0984C146.091 55.972 144.563 57.4942 142.682 57.4942Z" fill="#FF8200"/>
<g clip-path="url(#clip1_1076_7565)">
<rect x="71.654" y="36.5625" width="0.634921" height="2.5625" fill="black"/>
<rect x="81.1778" y="32.7188" width="1.26984" height="0.640625" fill="black"/>
<rect x="83.7175" y="34.6406" width="4.44444" height="0.640625" fill="black"/>
<rect x="84.9873" y="35.2812" width="3.1746" height="0.640625" fill="black"/>
<rect x="86.2571" y="35.9219" width="2.53968" height="0.640625" fill="black"/>
<rect x="89.4317" y="34.6406" width="1.26984" height="0.640625" fill="black"/>
<rect x="91.3365" y="34.6406" width="0.634922" height="1.28125" fill="black"/>
<rect x="91.9714" y="35.9219" width="0.63492" height="3.20312" fill="black"/>
<rect x="83.0825" y="35.9219" width="0.634922" height="3.20312" fill="black"/>
<rect x="83.7175" y="39.125" width="0.63492" height="1.28125" fill="black"/>
<rect x="91.3365" y="39.125" width="0.634922" height="1.28125" fill="black"/>
<rect x="85.6222" y="39.7656" width="3.1746" height="0.640625" fill="black"/>
<rect x="84.3524" y="40.4062" width="1.26984" height="0.640625" fill="black"/>
<rect x="90.7016" y="40.4062" width="0.63492" height="0.640625" fill="black"/>
<rect x="83.0825" y="41.6875" width="0.634922" height="0.640625" fill="black"/>
<rect x="83.7175" y="41.0469" width="0.63492" height="0.640625" fill="black"/>
<rect x="90.7016" y="41.6875" width="0.63492" height="0.640625" fill="black"/>
<rect x="90.0667" y="41.0469" width="0.63492" height="0.640625" fill="black"/>
<rect x="88.7968" y="40.4062" width="1.26984" height="0.640625" fill="black"/>
<rect x="83.7175" y="35.2812" width="0.63492" height="0.640625" fill="black"/>
<rect x="89.4317" y="35.2812" width="0.634922" height="0.640625" fill="black"/>
<rect x="84.3524" y="34" width="6.98413" height="0.640625" fill="black"/>
<rect x="84.9873" y="33.3594" width="5.71428" height="0.640625" fill="black"/>
<rect x="86.2571" y="32.7188" width="3.1746" height="0.640625" fill="black"/>
<rect x="83.0825" y="31.4375" width="0.634922" height="0.640625" fill="black"/>
<rect x="82.4476" y="32.0781" width="0.63492" height="0.640625" fill="black"/>
<rect x="72.2889" y="34.6406" width="0.63492" height="1.92188" fill="black"/>
<rect x="72.9238" y="33.3594" width="0.634921" height="1.28125" fill="black"/>
<rect x="74.8286" y="30.1562" width="0.634921" height="0.640625" fill="black"/>
<rect x="79.273" y="26.3125" width="1.26984" height="0.640625" fill="black"/>
<rect x="81.8127" y="25.0312" width="7.61905" height="0.640625" fill="black"/>
<rect x="110.384" y="14.7812" width="33.0159" height="0.640625" fill="black"/>
<rect x="111.019" y="38.4844" width="31.746" height="0.640625" fill="black"/>
<rect x="112.289" y="41.0469" width="10.1587" height="0.640625" fill="black"/>
<rect x="115.463" y="41.6875" width="3.80952" height="0.640625" fill="black"/>
<rect x="120.543" y="42.3281" width="1.90476" height="0.640625" fill="black"/>
<rect x="126.892" y="40.4062" width="0.634918" height="1.92188" fill="black"/>
<rect x="140.86" y="40.4062" width="0.634918" height="1.92188" fill="black"/>
<rect x="126.892" y="39.7656" width="14.6032" height="0.640625" fill="black"/>
<rect x="128.162" y="41.0469" width="12.0635" height="0.640625" fill="black"/>
<rect x="111.019" y="43.6094" width="32.381" height="0.640625" fill="black"/>
<rect x="114.194" y="44.8906" width="12.0635" height="0.640625" fill="black"/>
<rect x="126.892" y="44.8906" width="3.80952" height="0.640625" fill="black"/>
<rect x="131.337" y="44.8906" width="1.90476" height="0.640625" fill="black"/>
<rect x="133.876" y="44.8906" width="0.634926" height="0.640625" fill="black"/>
<rect x="136.416" y="44.8906" width="1.90477" height="0.640625" fill="black"/>
<rect x="138.956" y="44.8906" width="1.26984" height="0.640625" fill="black"/>
<rect x="140.86" y="44.8906" width="1.26984" height="0.640625" fill="black"/>
<rect x="135.146" y="44.8906" width="0.634918" height="0.640625" fill="black"/>
<rect x="133.241" y="47.4531" width="0.634918" height="0.640625" fill="black"/>
<rect x="141.495" y="45.5312" width="0.634918" height="0.640625" fill="black"/>
<rect x="141.495" y="49.375" width="0.634918" height="0.640625" fill="black"/>
<rect x="141.495" y="46.8125" width="0.634918" height="1.92188" fill="black"/>
<rect x="141.495" y="50.6562" width="0.634918" height="3.20312" fill="black"/>
<rect x="129.432" y="53.2188" width="10.1587" height="1.28125" fill="black"/>
<rect x="129.432" y="46.8125" width="1.90476" height="1.92188" fill="black"/>
<rect x="121.813" y="48.0938" width="1.26984" height="6.40625" fill="black"/>
<rect x="114.829" y="50.0156" width="0.634922" height="4.48438" fill="black"/>
<rect x="111.654" y="50.0156" width="0.634918" height="3.20312" fill="black"/>
<rect x="111.654" y="53.8594" width="0.634918" height="0.640625" fill="black"/>
<rect x="111.654" y="48.7344" width="0.634918" height="0.640625" fill="black"/>
<rect x="112.289" y="44.8906" width="0.634922" height="0.640625" fill="black"/>
<rect x="111.654" y="46.8125" width="0.634918" height="1.28125" fill="black"/>
<rect x="111.654" y="44.8906" width="0.634918" height="1.28125" fill="black"/>
<rect x="116.098" y="50.0156" width="0.634926" height="4.48438" fill="black"/>
<rect x="114.194" y="46.8125" width="1.26984" height="3.20312" fill="black"/>
<rect x="64.0349" y="15.4219" width="1.26984" height="4.48438" fill="black"/>
<rect x="66.5746" y="15.4219" width="1.26984" height="4.48438" fill="black"/>
<rect x="64.6698" y="19.9062" width="2.53968" height="0.640625" fill="black"/>
<rect x="68.4794" y="17.3438" width="1.26984" height="4.48438" fill="black"/>
<rect x="68.4794" y="16.7031" width="0.634921" height="0.640625" fill="black"/>
<rect x="69.7492" y="16.7031" width="1.26984" height="0.640625" fill="black"/>
<rect x="70.3841" y="17.3438" width="1.26984" height="2.5625" fill="black"/>
<rect x="72.2889" y="17.3438" width="1.26984" height="2.5625" fill="black"/>
<rect x="72.9238" y="16.7031" width="1.26984" height="0.640625" fill="black"/>
<rect x="72.9238" y="19.9062" width="1.26984" height="0.640625" fill="black"/>
<rect x="74.1936" y="15.4219" width="1.26984" height="5.125" fill="black"/>
<rect x="76.7333" y="16.7031" width="1.90476" height="0.640625" fill="black"/>
<rect x="81.1778" y="15.4219" width="1.26984" height="4.48438" fill="black"/>
<rect x="83.7175" y="16.7031" width="1.26984" height="3.84375" fill="black"/>
<rect x="85.6222" y="17.3438" width="1.26984" height="3.20312" fill="black"/>
<rect x="87.527" y="17.3438" width="1.26984" height="3.20312" fill="black"/>
<rect x="89.4317" y="17.3438" width="1.26984" height="2.5625" fill="black"/>
<rect x="90.0667" y="19.9062" width="1.26984" height="0.640625" fill="black"/>
<rect x="90.0667" y="16.7031" width="1.26984" height="0.640625" fill="black"/>
<rect x="91.9714" y="16.7031" width="0.63492" height="0.640625" fill="black"/>
<rect x="93.8762" y="19.9062" width="0.63492" height="0.640625" fill="black"/>
<rect x="97.6857" y="19.9062" width="0.634922" height="0.640625" fill="black"/>
<rect x="95.7809" y="19.9062" width="0.634922" height="0.640625" fill="black"/>
<rect x="90.0667" y="21.1875" width="1.90476" height="0.640625" fill="black"/>
<rect x="91.3365" y="17.3438" width="1.26984" height="3.84375" fill="black"/>
<rect x="80.5428" y="16.7031" width="2.53968" height="0.640625" fill="black"/>
<rect x="81.8127" y="19.9062" width="1.26984" height="0.640625" fill="black"/>
<rect x="83.7175" y="15.4219" width="1.26984" height="0.640625" fill="black"/>
<rect x="85.6222" y="16.7031" width="0.63492" height="0.640625" fill="black"/>
<rect x="86.8921" y="16.7031" width="1.26984" height="0.640625" fill="black"/>
<rect x="78.6381" y="19.9062" width="1.26984" height="0.640625" fill="black"/>
<rect x="76.7333" y="19.9062" width="1.26984" height="0.640625" fill="black"/>
<rect x="76.0984" y="18.625" width="1.26984" height="1.28125" fill="black"/>
<rect x="76.7333" y="17.9844" width="1.26984" height="0.640625" fill="black"/>
<rect x="76.0984" y="17.3438" width="0.634921" height="0.640625" fill="black"/>
<rect x="78.0032" y="17.3438" width="1.26984" height="2.5625" fill="black"/>
<rect x="69.7492" y="19.9062" width="1.26984" height="0.640625" fill="black"/>
<rect x="116.098" y="46.8125" width="1.26984" height="3.20312" fill="black"/>
<rect x="124.352" y="48.0938" width="1.26984" height="6.40625" fill="black"/>
<rect x="120.543" y="46.8125" width="6.34921" height="0.640625" fill="black"/>
<rect x="129.432" y="50.0156" width="0.634918" height="1.92188" fill="black"/>
<rect x="126.257" y="47.4531" width="0.634926" height="1.28125" fill="black"/>
<rect x="120.543" y="47.4531" width="0.634918" height="1.28125" fill="black"/>
<rect x="115.463" y="46.8125" width="0.634918" height="1.28125" fill="black"/>
<rect x="118.003" y="46.8125" width="1.26984" height="0.640625" fill="black"/>
<rect x="118.003" y="48.0938" width="1.26984" height="0.640625" fill="black"/>
<rect x="121.178" y="48.7344" width="0.634922" height="0.640625" fill="black"/>
<rect x="125.622" y="48.7344" width="0.634918" height="0.640625" fill="black"/>
<rect x="121.178" y="48.7344" width="0.634922" height="0.640625" fill="black"/>
<rect x="125.622" y="48.7344" width="0.634918" height="0.640625" fill="black"/>
<rect x="120.543" y="51.2969" width="0.634918" height="0.640625" fill="black"/>
<rect x="124.987" y="51.2969" width="0.634922" height="0.640625" fill="black"/>
<rect x="123.083" y="48.7344" width="1.26984" height="0.640625" fill="black"/>
<rect x="123.083" y="53.2188" width="1.26984" height="0.640625" fill="black"/>
<rect x="121.178" y="51.2969" width="0.634922" height="0.640625" fill="black"/>
<rect x="123.083" y="51.2969" width="1.26984" height="0.640625" fill="black"/>
<rect x="125.622" y="51.2969" width="1.26984" height="0.640625" fill="black"/>
<rect x="126.257" y="51.9375" width="0.634926" height="1.28125" fill="black"/>
<rect x="120.543" y="51.9375" width="0.634918" height="1.28125" fill="black"/>
<rect x="125.622" y="53.2188" width="0.634918" height="0.640625" fill="black"/>
<rect x="121.178" y="53.2188" width="0.634922" height="0.640625" fill="black"/>
<rect width="0.634926" height="0.640625" transform="matrix(-1 0 0 1 130.702 50.0156)" fill="black"/>
<rect width="1.26984" height="0.640625" transform="matrix(-1 0 0 1 131.337 51.2969)" fill="black"/>
<rect width="0.634918" height="0.640625" transform="matrix(-1 0 0 1 131.337 50.6562)" fill="black"/>
<rect x="137.686" y="50.0156" width="0.634926" height="1.92188" fill="black"/>
<rect width="0.634918" height="0.640625" transform="matrix(-1 0 0 1 138.956 50.0156)" fill="black"/>
<rect width="1.26984" height="0.640625" transform="matrix(-1 0 0 1 139.59 51.2969)" fill="black"/>
<rect width="0.634918" height="0.640625" transform="matrix(-1 0 0 1 139.59 50.6562)" fill="black"/>
<rect x="135.146" y="50.0156" width="0.634918" height="1.92188" fill="black"/>
<rect width="0.634918" height="0.640625" transform="matrix(-1 0 0 1 136.416 50.0156)" fill="black"/>
<rect width="1.26984" height="0.640625" transform="matrix(-1 0 0 1 137.051 51.2969)" fill="black"/>
<rect width="0.634926" height="0.640625" transform="matrix(-1 0 0 1 137.051 50.6562)" fill="black"/>
<rect x="131.971" y="50.0156" width="0.634918" height="1.92188" fill="black"/>
<rect width="0.634926" height="0.640625" transform="matrix(-1 0 0 1 133.241 50.0156)" fill="black"/>
<rect width="1.26984" height="0.640625" transform="matrix(-1 0 0 1 133.876 51.2969)" fill="black"/>
<rect width="0.634918" height="0.640625" transform="matrix(-1 0 0 1 133.876 50.6562)" fill="black"/>
<rect x="131.337" y="46.8125" width="2.53968" height="0.640625" fill="black"/>
<rect x="131.337" y="48.0938" width="2.53968" height="0.640625" fill="black"/>
<rect x="138.956" y="47.4531" width="0.634918" height="0.640625" fill="black"/>
<rect x="135.146" y="46.8125" width="1.90476" height="1.92188" fill="black"/>
<rect x="137.051" y="46.8125" width="2.53968" height="0.640625" fill="black"/>
<rect x="137.051" y="48.0938" width="2.53968" height="0.640625" fill="black"/>
<rect x="126.892" y="42.3281" width="14.6032" height="0.640625" fill="black"/>
<rect x="115.463" y="40.4062" width="3.80952" height="0.640625" fill="black"/>
<rect x="112.924" y="36.5625" width="1.90476" height="0.640625" fill="black"/>
<rect x="138.956" y="36.5625" width="1.90476" height="0.640625" fill="black"/>
<rect x="137.051" y="36.5625" width="0.634918" height="0.640625" fill="black"/>
<rect x="138.321" y="18.625" width="0.634918" height="0.640625" fill="black"/>
<rect x="138.956" y="23.1094" width="0.634918" height="0.640625" fill="black"/>
<rect x="138.956" y="18.625" width="0.634918" height="1.28125" fill="black"/>
<rect x="135.781" y="19.9062" width="0.634918" height="2.5625" fill="black"/>
<rect x="136.416" y="20.5469" width="0.634926" height="1.92188" fill="black"/>
<rect x="137.051" y="21.1875" width="0.634918" height="1.28125" fill="black"/>
<rect x="137.686" y="21.8281" width="0.634926" height="0.640625" fill="black"/>
<rect x="133.876" y="18.625" width="0.634926" height="0.640625" fill="black"/>
<rect x="112.924" y="34" width="27.9365" height="1.92188" fill="black"/>
<rect x="112.924" y="17.3438" width="27.9365" height="1.28125" fill="black"/>
<rect x="122.448" y="24.3906" width="18.4127" height="9.60938" fill="black"/>
<rect x="122.448" y="18.625" width="10.7937" height="5.76562" fill="black"/>
<rect x="133.241" y="19.2656" width="2.53968" height="5.125" fill="black"/>
<rect x="118.003" y="21.1875" width="4.44444" height="5.125" fill="black"/>
<rect x="120.543" y="19.9062" width="1.90476" height="1.28125" fill="black"/>
<rect x="112.924" y="18.625" width="9.52381" height="0.640625" fill="black"/>
<rect x="112.924" y="19.2656" width="1.26984" height="14.7344" fill="black"/>
<rect x="120.543" y="26.3125" width="1.90476" height="4.48438" fill="black"/>
<rect x="118.003" y="31.4375" width="4.44444" height="2.5625" fill="black"/>
<rect x="117.368" y="27.5938" width="3.17461" height="3.20312" fill="black"/>
<rect x="114.194" y="26.3125" width="6.34921" height="0.640625" fill="black"/>
<rect x="117.368" y="26.9531" width="0.634922" height="0.640625" fill="black"/>
<rect x="114.829" y="25.0312" width="0.634922" height="6.40625" fill="black"/>
<rect x="115.463" y="31.4375" width="0.634918" height="2.5625" fill="black"/>
<rect x="116.098" y="28.875" width="0.634926" height="1.92188" fill="black"/>
<rect x="115.463" y="23.1094" width="0.634918" height="2.5625" fill="black"/>
<rect x="116.098" y="25.0312" width="1.90477" height="1.28125" fill="black"/>
<rect x="119.273" y="26.9531" width="0.634918" height="0.640625" fill="black"/>
<rect x="119.908" y="30.7969" width="0.634926" height="0.640625" fill="black"/>
<rect x="116.733" y="28.875" width="0.634918" height="5.125" fill="black"/>
<rect x="117.368" y="32.7188" width="0.634922" height="1.28125" fill="black"/>
<rect x="117.368" y="31.4375" width="0.634922" height="0.640625" fill="black"/>
<rect x="114.194" y="23.75" width="3.80952" height="0.640625" fill="black"/>
<rect x="114.194" y="22.4688" width="3.80952" height="0.640625" fill="black"/>
<rect x="116.098" y="21.1875" width="1.90477" height="1.28125" fill="black"/>
<rect x="115.463" y="27.5938" width="1.90476" height="0.640625" fill="black"/>
<rect x="114.194" y="32.7188" width="1.26984" height="0.640625" fill="black"/>
<rect x="116.098" y="32.7188" width="0.634926" height="0.640625" fill="black"/>
<rect x="115.463" y="30.1562" width="0.634918" height="0.640625" fill="black"/>
<rect x="116.098" y="31.4375" width="0.634926" height="0.640625" fill="black"/>
<rect x="114.194" y="30.1562" width="0.634918" height="0.640625" fill="black"/>
<rect x="115.463" y="28.875" width="0.634918" height="0.640625" fill="black"/>
<rect x="114.194" y="19.9062" width="6.34921" height="0.640625" fill="black"/>
<rect x="114.829" y="20.5469" width="0.634922" height="1.92188" fill="black"/>
<rect x="118.003" y="19.2656" width="0.634918" height="0.640625" fill="black"/>
<rect x="114.194" y="21.1875" width="0.634918" height="0.640625" fill="black"/>
<rect x="115.463" y="21.1875" width="0.634918" height="0.640625" fill="black"/>
<rect x="116.733" y="20.5469" width="0.634918" height="0.640625" fill="black"/>
<rect x="118.638" y="20.5469" width="0.634922" height="0.640625" fill="black"/>
<rect x="120.543" y="19.2656" width="0.634918" height="0.640625" fill="black"/>
<rect x="119.273" y="19.2656" width="0.634918" height="0.640625" fill="black"/>
<rect x="114.829" y="19.2656" width="0.634922" height="0.640625" fill="black"/>
<rect x="114.194" y="27.5938" width="0.634918" height="0.640625" fill="black"/>
<rect x="114.194" y="28.875" width="0.634918" height="0.640625" fill="black"/>
<rect x="114.194" y="31.4375" width="1.26984" height="0.640625" fill="black"/>
<rect x="114.194" y="25.0312" width="0.634918" height="0.640625" fill="black"/>
<rect x="118.638" y="30.7969" width="0.634922" height="0.640625" fill="black"/>
<rect x="135.781" y="22.4688" width="3.17461" height="1.92188" fill="black"/>
<rect x="139.59" y="18.625" width="1.26984" height="5.76562" fill="black"/>
<rect x="110.384" y="15.4219" width="0.634918" height="39.0781" fill="black"/>
<rect x="142.765" y="15.4219" width="0.634926" height="39.0781" fill="black"/>
<rect x="142.765" y="15.4219" width="0.634926" height="39.0781" fill="black"/>
<rect x="80.5428" y="25.6719" width="1.26984" height="0.640625" fill="black"/>
<rect x="93.8762" y="27.5938" width="1.26984" height="0.640625" fill="black"/>
<rect x="97.6857" y="31.4375" width="0.634922" height="0.640625" fill="black"/>
<rect x="100.225" y="29.5156" width="0.634922" height="0.640625" fill="black"/>
<rect x="100.225" y="28.875" width="1.26984" height="0.640625" fill="black"/>
<rect x="95.146" y="26.9531" width="2.53968" height="0.640625" fill="black"/>
<rect x="97.6857" y="25.6719" width="1.26984" height="0.640625" fill="black"/>
<rect x="99.5905" y="24.3906" width="5.07936" height="0.640625" fill="black"/>
<rect x="99.5905" y="25.0312" width="4.44445" height="0.640625" fill="black"/>
<rect x="100.225" y="26.3125" width="2.53968" height="0.640625" fill="black"/>
<rect x="100.86" y="26.9531" width="1.90476" height="0.640625" fill="black"/>
<rect x="101.495" y="27.5938" width="0.634922" height="0.640625" fill="black"/>
<rect x="101.495" y="23.75" width="3.1746" height="0.640625" fill="black"/>
<rect x="102.765" y="22.4688" width="1.26984" height="0.640625" fill="black"/>
<rect x="104.035" y="21.8281" width="0.634918" height="0.640625" fill="black"/>
<rect x="105.94" y="21.1875" width="0.634926" height="1.28125" fill="black"/>
<rect x="105.305" y="18.625" width="0.634918" height="1.92188" fill="black"/>
<rect x="104.67" y="15.4219" width="0.634922" height="3.20312" fill="black"/>
<rect x="106.575" y="14.7812" width="0.634918" height="1.28125" fill="black"/>
<rect x="107.844" y="13.5" width="0.634918" height="0.640625" fill="black"/>
<rect x="105.94" y="13.5" width="0.634926" height="0.640625" fill="black"/>
<rect x="107.21" y="14.1406" width="0.634922" height="0.640625" fill="black"/>
<rect x="105.305" y="14.1406" width="0.634918" height="1.28125" fill="black"/>
<rect x="105.94" y="16.0625" width="0.634926" height="1.92188" fill="black"/>
<rect x="106.575" y="17.9844" width="0.634918" height="3.20312" fill="black"/>
<rect x="104.67" y="20.5469" width="0.634922" height="1.28125" fill="black"/>
<rect x="105.305" y="22.4688" width="0.634918" height="0.640625" fill="black"/>
<rect x="104.67" y="23.1094" width="0.634922" height="0.640625" fill="black"/>
<rect x="102.13" y="23.1094" width="1.90476" height="0.640625" fill="black"/>
<rect x="99.5905" y="25.6719" width="3.80952" height="0.640625" fill="black"/>
<rect x="98.3206" y="25.0312" width="1.26984" height="0.640625" fill="black"/>
<rect x="97.0508" y="26.3125" width="1.26984" height="0.640625" fill="black"/>
<rect x="100.86" y="28.2344" width="1.26984" height="0.640625" fill="black"/>
<rect x="97.6857" y="27.5938" width="0.634922" height="0.640625" fill="black"/>
<rect x="98.3206" y="28.2344" width="0.634922" height="0.640625" fill="black"/>
<rect x="98.9556" y="28.875" width="0.634918" height="0.640625" fill="black"/>
<rect x="99.5905" y="29.5156" width="0.634922" height="2.5625" fill="black"/>
<rect x="98.3206" y="32.7188" width="0.634922" height="0.640625" fill="black"/>
<rect x="97.6857" y="32.0781" width="1.90476" height="0.640625" fill="black"/>
<rect x="99.5905" y="35.2812" width="0.634922" height="1.92188" fill="black"/>
<rect x="100.86" y="39.7656" width="0.634918" height="9.60938" fill="black"/>
<rect x="100.225" y="49.375" width="0.634922" height="5.125" fill="black"/>
<rect x="70.3841" y="52.5781" width="0.634921" height="1.92188" fill="black"/>
<rect x="71.019" y="49.375" width="0.634921" height="3.20312" fill="black"/>
<rect x="72.9238" y="50.6562" width="1.90476" height="2.5625" fill="black"/>
<rect x="74.8286" y="51.2969" width="2.53968" height="2.5625" fill="black"/>
<rect x="73.5587" y="53.2188" width="1.26984" height="0.640625" fill="black"/>
<rect x="77.3683" y="51.9375" width="1.26984" height="1.28125" fill="black"/>
<rect x="78.6381" y="51.9375" width="1.26984" height="0.640625" fill="black"/>
<rect x="70.3841" y="49.375" width="0.634921" height="0.640625" fill="black"/>
<rect x="69.1143" y="48.7344" width="1.26984" height="0.640625" fill="black"/>
<rect x="67.2095" y="47.4531" width="1.26984" height="0.640625" fill="black"/>
<rect x="66.5746" y="46.8125" width="0.634921" height="0.640625" fill="black"/>
<rect x="64.6698" y="44.8906" width="0.634921" height="0.640625" fill="black"/>
<rect x="64.0349" y="41.6875" width="0.634921" height="3.20312" fill="black"/>
<rect x="63.4" y="40.4062" width="0.634921" height="3.20312" fill="black"/>
<rect x="64.0349" y="39.125" width="0.634921" height="1.28125" fill="black"/>
<rect x="64.6698" y="38.4844" width="0.634921" height="0.640625" fill="black"/>
<rect x="65.3047" y="37.8438" width="1.26984" height="0.640625" fill="black"/>
<rect x="66.5746" y="37.2031" width="3.1746" height="0.640625" fill="black"/>
<rect x="69.7492" y="37.8438" width="1.90476" height="0.640625" fill="black"/>
<rect x="72.2889" y="38.4844" width="0.63492" height="0.640625" fill="black"/>
<rect x="74.1936" y="39.7656" width="1.26984" height="0.640625" fill="black"/>
<rect x="78.0032" y="41.6875" width="1.90476" height="0.640625" fill="black"/>
<rect x="76.7333" y="42.3281" width="1.26984" height="0.640625" fill="black"/>
<rect x="79.9079" y="42.3281" width="0.63492" height="0.640625" fill="black"/>
<rect x="80.5428" y="42.9688" width="0.634922" height="2.5625" fill="black"/>
<rect x="79.9079" y="45.5312" width="0.63492" height="0.640625" fill="black"/>
<rect x="79.273" y="46.1719" width="0.63492" height="0.640625" fill="black"/>
<rect x="84.9873" y="46.8125" width="0.63492" height="0.640625" fill="black"/>
<rect x="76.0984" y="42.9688" width="0.634921" height="0.640625" fill="black"/>
<rect x="75.4635" y="43.6094" width="0.63492" height="0.640625" fill="black"/>
<rect x="74.8286" y="44.25" width="0.634921" height="0.640625" fill="black"/>
<rect x="78.0032" y="46.8125" width="4.44444" height="0.640625" fill="black"/>
<rect x="76.0984" y="46.1719" width="1.90476" height="0.640625" fill="black"/>
<rect x="74.8286" y="45.5312" width="1.26984" height="0.640625" fill="black"/>
<rect x="73.5587" y="44.8906" width="1.90476" height="0.640625" fill="black"/>
<rect x="72.2889" y="44.25" width="1.26984" height="0.640625" fill="black"/>
<rect x="64.6698" y="41.0469" width="2.53968" height="0.640625" fill="black"/>
<rect x="82.4476" y="46.1719" width="2.53968" height="0.640625" fill="black"/>
<rect x="67.2095" y="41.6875" width="1.26984" height="0.640625" fill="black"/>
<rect x="68.4794" y="42.3281" width="1.26984" height="0.640625" fill="black"/>
<rect x="69.7492" y="42.9688" width="1.26984" height="0.640625" fill="black"/>
<rect x="71.019" y="43.6094" width="1.26984" height="0.640625" fill="black"/>
<rect x="78.0032" y="44.8906" width="0.63492" height="0.640625" fill="black"/>
<rect x="77.3683" y="45.5312" width="0.634921" height="0.640625" fill="black"/>
<rect x="75.4635" y="40.4062" width="1.26984" height="0.640625" fill="black"/>
<rect x="72.9238" y="39.125" width="1.26984" height="0.640625" fill="black"/>
<rect x="65.3047" y="45.5312" width="0.634921" height="0.640625" fill="black"/>
<rect x="65.9397" y="46.1719" width="0.634921" height="0.640625" fill="black"/>
<rect x="68.4794" y="48.0938" width="0.634921" height="0.640625" fill="black"/>
<rect x="71.654" y="50.0156" width="1.26984" height="3.20312" fill="black"/>
<rect x="100.225" y="37.2031" width="0.634922" height="2.5625" fill="black"/>
<rect x="98.9556" y="34" width="0.634918" height="1.28125" fill="black"/>
<rect x="97.0508" y="30.7969" width="1.26984" height="0.640625" fill="black"/>
<rect x="96.4159" y="30.1562" width="1.26984" height="0.640625" fill="black"/>
<rect x="95.7809" y="29.5156" width="1.26984" height="0.640625" fill="black"/>
<rect x="95.146" y="28.875" width="1.26984" height="0.640625" fill="black"/>
<rect x="94.5111" y="28.2344" width="1.26984" height="0.640625" fill="black"/>
<rect x="92.6063" y="26.9531" width="1.26984" height="0.640625" fill="black"/>
<rect x="91.3365" y="26.3125" width="1.26984" height="0.640625" fill="black"/>
<rect x="89.4317" y="25.6719" width="1.90476" height="0.640625" fill="black"/>
<rect x="78.0032" y="26.9531" width="1.26984" height="0.640625" fill="black"/>
<rect x="77.3683" y="27.5938" width="0.634921" height="0.640625" fill="black"/>
<rect x="76.7333" y="28.2344" width="0.63492" height="0.640625" fill="black"/>
<rect x="76.0984" y="28.875" width="0.634921" height="0.640625" fill="black"/>
<rect x="75.4635" y="29.5156" width="0.63492" height="0.640625" fill="black"/>
<rect x="74.1936" y="30.7969" width="0.63492" height="1.28125" fill="black"/>
<rect x="73.5587" y="32.0781" width="0.634921" height="1.28125" fill="black"/>
</g>
<path d="M142.682 57.8455H64.0543C61.9387 57.8455 60.2933 56.2061 60.2933 54.0984V13.9344C60.2933 11.8267 61.9387 10.1874 64.0543 10.1874H142.565C144.68 10.1874 146.326 11.8267 146.326 13.9344V54.0984C146.326 56.2061 144.68 57.8455 142.682 57.8455ZM64.0543 10.89C62.4089 10.89 60.9985 12.2951 60.9985 13.9344V54.0984C60.9985 55.7377 62.4089 57.1429 64.0543 57.1429H142.565C144.21 57.1429 145.621 55.7377 145.621 54.0984V13.9344C145.621 12.2951 144.21 10.89 142.565 10.89H64.0543Z" fill="#231F20"/>
<path d="M84.6222 81.9673L84.1521 85.1288H81.919L83.2118 76.9321H98.7259L98.4909 78.8057H85.0923L84.8573 80.0937H98.1383L97.9032 81.9673H84.6222Z" fill="#FF8200"/>
<path d="M101.782 76.9321L100.841 83.2553H114.122L113.887 85.1288H98.2558L99.5486 76.9321H101.782Z" fill="#FF8200"/>
<path d="M118.236 76.9321L116.943 85.1288H114.71L116.003 76.9321H118.236Z" fill="#FF8200"/>
<path d="M120.587 81.9673L120.117 85.1288H117.883L119.176 76.9321H132.457C133.045 76.9321 133.633 77.1663 133.985 77.5176C134.338 77.8689 134.573 78.3373 134.455 78.8057L134.22 80.0937C134.103 80.5621 133.868 81.0305 133.398 81.3818C132.927 81.7331 132.34 81.9673 131.752 81.9673H120.587V81.9673ZM121.057 78.8057L120.822 80.0937H131.87L132.105 78.8057H121.057Z" fill="#FF8200"/>
<path d="M136.923 81.9673L136.453 85.1288H134.22L135.513 76.9321H148.794C149.382 76.9321 149.969 77.1663 150.322 77.5176C150.675 77.8689 150.91 78.3373 150.792 78.8057L150.557 80.0937C150.439 80.5621 150.204 81.0305 149.734 81.3818C149.264 81.7331 148.677 81.9673 148.089 81.9673H136.923V81.9673ZM137.394 78.8057L137.158 80.0937H148.206L148.441 78.8057H137.394Z" fill="#FF8200"/>
<path d="M166.424 83.2553L166.189 85.1288H150.675L151.967 76.9321H167.481L167.246 78.8057H153.965L153.73 80.0937H166.894L166.659 81.9673H153.378L153.143 83.2553H166.424V83.2553Z" fill="#FF8200"/>
<path d="M169.715 81.9673L169.244 85.1288H167.011L168.304 76.9321H181.585C182.173 76.9321 182.76 77.1663 183.113 77.5176C183.466 77.8689 183.701 78.3373 183.583 78.8057L183.348 80.0937C183.348 80.3279 183.113 80.5621 182.878 80.7963C182.643 80.9134 182.408 81.0305 182.173 81.0305C182.408 81.0305 182.643 81.1476 182.878 81.2647C183.113 81.4989 183.113 81.616 183.113 81.9673L182.643 85.1288H180.41L180.88 81.9673H169.715V81.9673ZM180.998 80.0937L181.233 78.8057H170.185L169.95 80.0937H180.998Z" fill="#FF8200"/>
</g>
<defs>
<clipPath id="clip0_1076_7565">
<rect width="238" height="100" fill="white"/>
</clipPath>
<clipPath id="clip1_1076_7565">
<rect width="80" height="41" fill="white" transform="translate(63.4 13.5)"/>
</clipPath>
</defs>
</svg>
