<svg width="347" height="135" viewBox="0 0 347 135" fill="none" xmlns="http://www.w3.org/2000/svg">
<path d="M72.3543 0.947718H274.864C281.097 1.1058 287.491 2.52851 292.605 8.37746C297.72 14.2264 319.617 41.0999 321.855 43.9454C324.093 46.7908 326.49 50.4266 327.13 56.4337C327.769 62.4407 329.527 102.751 329.527 108.284C329.527 114.133 327.769 116.504 326.49 119.191C325.212 121.562 323.294 125.514 322.015 127.886C320.736 130.257 316.421 133.893 309.548 134.051H58.4487C51.0964 134.051 45.0227 131.363 41.0268 125.989C37.031 120.772 15.1337 90.895 14.1747 89.3142C12.5764 86.785 11.2977 82.833 9.06003 78.4067C7.62152 75.5613 6.98218 71.1351 10.6584 66.0765C14.4944 61.018 51.8955 12.9618 55.252 9.16786C58.6086 5.21587 64.3626 0.789638 72.3543 0.947718Z" fill="white"/>
<path d="M58.2894 135C50.7772 135 44.5436 132.155 40.388 126.622C36.7118 121.721 14.335 91.5281 13.376 89.7892C12.417 88.2084 11.6178 86.3115 10.6588 84.0984C10.0195 82.5176 9.22034 80.6206 8.26134 78.7236C7.30233 76.8267 5.54416 71.7682 10.0195 65.603C14.0154 60.2283 51.5763 12.1721 54.6132 8.5363C57.3304 5.37471 63.404 0 72.1949 0H72.3548H274.864C279.979 0.15808 287.491 1.10656 293.405 7.7459C296.442 11.3817 306.352 23.3958 322.015 42.5234L322.655 43.3138C325.052 46.3173 327.45 49.9532 328.089 56.2763C328.888 62.5995 330.487 102.91 330.487 108.285C330.487 113.659 329.048 116.347 327.769 118.718C327.61 119.034 327.45 119.35 327.29 119.666C326.011 122.037 324.093 125.989 322.815 128.361C321.536 130.89 316.901 134.842 309.548 135H58.4492H58.2894ZM72.1949 1.73888C64.0434 1.73888 58.4492 6.63934 55.8918 9.64286C52.855 13.2787 15.294 61.1768 11.458 66.5515C7.46217 71.9262 8.90067 76.1944 9.85967 77.9333C10.8187 79.8302 11.6178 81.7272 12.417 83.466C13.376 85.6792 14.1752 87.418 14.9744 88.8408C15.7735 90.2635 37.8306 120.141 41.8265 125.515C45.6625 130.574 51.4165 133.261 58.4492 133.261H309.868C316.421 133.103 320.417 129.783 321.536 127.57C322.815 125.041 324.733 121.247 326.011 118.876C326.171 118.56 326.331 118.244 326.491 117.927C327.769 115.714 328.888 113.343 329.048 108.285C329.048 102.119 327.29 62.2834 326.651 56.4344C326.011 50.5855 323.774 47.1077 321.536 44.4204L320.897 43.63C301.237 19.4438 294.524 11.3817 292.286 8.85246C288.131 4.11007 282.696 1.89696 275.184 1.73888H72.6744C72.3547 1.73888 72.1949 1.73888 72.1949 1.73888Z" fill="#231F20"/>
<path d="M50.6171 124.091C43.2647 124.091 39.4287 121.246 30.478 109.073C21.847 97.5337 9.85942 80.9353 9.69958 80.7772L10.4988 80.303C10.6586 80.4611 22.4863 97.0594 31.1173 108.599C39.9082 120.455 43.5844 123.143 50.6171 123.143H314.982C320.257 122.826 325.691 120.297 327.13 117.452L327.929 117.926C326.331 121.088 320.577 123.933 314.982 124.091H50.6171Z" fill="#231F20"/>
<path d="M270.389 4.5835C276.782 4.5835 280.938 5.37389 285.094 10.2744C289.249 15.1748 313.864 45.368 315.942 47.8973C318.02 50.4266 319.778 54.2205 319.778 58.3306C319.778 62.4406 320.737 81.7264 320.417 86.7849C320.097 92.0015 315.782 95.7954 310.188 95.9535H74.113C66.6008 95.7954 63.4041 93.8985 59.8878 90.2627C56.3714 86.4688 47.2609 76.8259 44.5437 73.3481C41.5069 69.5542 42.9454 66.7088 44.7035 64.0214C46.7814 61.4922 76.3507 17.3879 79.2277 12.8036C81.9448 8.37741 87.0595 4.5835 93.293 4.5835H270.389Z" fill="white"/>
<path d="M74.2723 96.5849C66.6003 96.4268 63.4036 94.5298 59.7274 90.7359C56.0512 86.942 47.1005 77.1411 44.3833 73.6633C41.1867 69.7113 42.6252 66.5497 44.5432 63.8624C46.621 61.017 76.1903 16.9127 78.7477 12.6446C82.1042 7.42795 87.3787 4.26636 93.1327 4.26636H270.229C276.942 4.26636 281.097 5.21484 285.253 10.1153C289.409 15.0158 314.343 45.5251 316.101 47.7383C318.499 50.8999 319.937 54.8518 319.937 58.4877C319.937 59.9104 320.097 63.072 320.257 66.7078C320.576 74.2956 320.896 83.6223 320.736 86.942C320.417 92.3167 315.941 96.4268 310.187 96.5849H74.2723ZM93.2925 5.05676C87.8582 5.05676 82.7435 8.06027 79.7066 13.1188C76.9895 17.387 47.2604 61.4912 45.3424 64.3366C43.744 66.7078 42.1457 69.3952 45.1825 73.031C47.8997 76.5088 56.8504 86.1516 60.5266 89.9455C64.0429 93.5814 67.0798 95.4783 74.4321 95.4783H310.507C315.781 95.3202 319.937 91.5263 320.257 86.6259C320.417 83.3062 320.097 73.5052 319.777 66.3917C319.617 62.7558 319.458 59.5942 319.458 58.1715C319.458 53.113 316.9 49.3191 315.781 48.0544C313.863 45.8413 289.089 15.3319 284.774 10.5895C280.778 6.00523 276.782 5.21484 270.389 5.05676H93.2925Z" fill="#231F20"/>
<path d="M312.746 62.5962C316.741 67.6548 314.024 79.985 305.233 81.4077H252.808C234.747 81.2496 216.366 66.5482 216.525 45.5236C216.685 24.499 235.066 11.0623 253.287 11.0623C269.91 11.2203 280.139 22.6021 281.098 24.0248C284.135 27.9768 309.229 58.17 312.746 62.5962Z" fill="white"/>
<path d="M252.808 81.8839C243.697 81.8839 234.427 78.09 227.554 71.6087C220.042 64.6532 216.046 55.3265 216.046 45.3675C216.206 23.7106 235.386 10.4319 253.127 10.4319H253.287C271.029 10.59 281.418 23.3944 281.418 23.5525C282.856 25.4494 289.41 33.1953 296.123 41.5736C303.475 50.5841 311.147 59.9108 313.065 62.282C315.303 64.9694 315.622 70.0279 313.864 74.2961C312.266 78.4061 309.069 81.0935 305.233 81.7258L252.808 81.8839ZM253.127 11.3804C235.865 11.3804 217.165 24.3429 217.005 45.3675C217.005 55.0103 221.001 64.179 228.193 70.8183C235.066 77.1415 244.017 80.7773 252.808 80.7773H305.233C308.59 80.145 311.467 77.7738 313.065 73.8218C314.663 69.8698 314.344 65.2855 312.426 62.7562C310.508 60.385 302.996 51.0583 295.483 42.0478C288.611 33.8277 282.217 25.9237 280.779 24.0267C280.619 23.8687 270.549 11.3804 253.287 11.2223C253.127 11.3804 253.127 11.3804 253.127 11.3804Z" fill="#231F20"/>
<path d="M243.218 126.939H281.418C282.856 126.939 284.295 128.678 281.578 128.836H242.738C241.619 128.836 240.66 127.413 243.218 126.939Z" fill="white"/>
<path d="M242.738 129.309C241.939 129.309 241.299 128.676 241.299 128.044C241.299 127.57 241.459 126.78 243.217 126.463H281.418C282.536 126.463 283.495 127.254 283.495 128.044C283.495 128.518 283.176 129.151 281.577 129.309H242.738ZM243.217 127.412C242.258 127.57 242.098 127.886 242.098 128.044C242.098 128.202 242.418 128.518 242.738 128.518H281.577C282.377 128.518 282.696 128.202 282.696 128.202C282.696 128.044 282.217 127.57 281.418 127.57L243.217 127.412Z" fill="#231F20"/>
<path d="M319.298 127.094C319.777 127.252 319.777 129.782 315.462 130.73C308.909 132.311 305.872 131.204 306.831 129.624C307.79 128.043 308.909 128.991 313.544 128.201C318.179 127.41 318.179 126.462 319.298 127.094Z" fill="white"/>
<path d="M310.028 131.996C308.27 131.996 306.991 131.68 306.511 131.047C306.192 130.573 306.192 130.099 306.511 129.625C307.151 128.518 308.11 128.36 309.548 128.36C310.507 128.36 311.786 128.202 313.544 128.044C315.782 127.728 316.901 127.253 317.54 126.937C318.339 126.621 318.819 126.463 319.458 126.937C319.778 127.095 319.938 127.411 319.938 127.886C319.938 128.36 319.618 130.573 315.622 131.363C313.544 131.68 311.466 131.996 310.028 131.996ZM318.659 127.411C318.499 127.411 318.339 127.411 317.86 127.57C317.061 127.886 315.942 128.36 313.704 128.676C311.946 128.992 310.667 128.992 309.708 129.15C308.11 129.15 307.79 129.308 307.311 129.941C307.151 130.257 307.311 130.415 307.311 130.415C307.79 131.047 310.348 131.522 315.622 130.257C318.02 129.783 318.819 128.834 319.138 128.202C319.298 127.886 319.298 127.57 319.298 127.411C318.979 127.411 318.819 127.411 318.659 127.411Z" fill="#231F20"/>
<path d="M253.127 13.5935C272.626 13.9096 287.171 29.8757 287.171 45.8417C287.011 62.5982 273.585 78.4061 254.086 78.4061C234.586 78.248 218.922 63.8628 219.082 45.0513C219.242 27.0302 235.065 13.2773 253.127 13.5935Z" fill="#FF8200"/>
<path d="M254.405 78.8803H254.246C234.106 78.7222 218.443 63.8627 218.603 44.8931C218.603 36.5149 222.119 28.6109 228.193 22.6039C234.746 16.2807 243.856 12.803 253.287 12.803C273.905 13.1191 288.13 30.3498 287.971 45.6835C287.811 61.8077 275.024 78.8803 254.405 78.8803ZM252.487 14.2257C243.696 14.2257 235.225 17.5454 228.992 23.5524C223.078 29.2433 219.721 36.8311 219.721 44.8931C219.562 63.0723 234.746 77.4575 254.086 77.6156H254.246C274.065 77.6156 286.372 61.1753 286.372 45.8416C286.372 31.2983 272.786 14.6999 252.967 14.3838C252.967 14.2257 252.807 14.2257 252.487 14.2257Z" fill="#231F20"/>
<path d="M300.118 57.7026C306.991 57.7026 311.147 63.2354 311.147 68.294C311.147 73.1945 307.631 78.4111 300.598 78.4111C293.885 78.253 289.569 72.8783 289.569 67.8197C289.729 62.7612 294.045 57.8607 300.118 57.7026Z" fill="#FF8200"/>
<path d="M300.758 79.1999H300.598C297.401 79.1999 294.365 77.9352 292.127 75.7221C290.049 73.509 288.93 70.6636 288.93 67.9762C289.09 62.9177 293.406 57.3849 300.278 57.2268C303.635 57.2268 306.672 58.4914 308.909 60.8626C310.827 62.9177 311.946 65.7631 311.946 68.6085C311.946 71.454 310.827 74.2994 308.75 76.3544C306.672 78.0933 303.955 79.1999 300.758 79.1999ZM300.278 58.4914C294.205 58.4914 290.369 63.3919 290.209 67.8181C290.209 70.3474 291.168 72.7186 293.086 74.6156C295.004 76.6706 297.721 77.7772 300.598 77.7772C303.475 77.7772 306.032 76.9868 307.791 75.0898C309.549 73.3509 310.508 70.8217 310.508 68.2924C310.508 65.7631 309.549 63.3919 307.791 61.495C306.512 60.2303 304.114 58.4914 300.278 58.4914Z" fill="#231F20"/>
<path d="M253.926 72.7168C253.446 72.7168 253.127 72.5587 252.807 72.0845C252.487 71.7684 250.729 68.9229 249.131 66.2356L248.332 64.8128C248.012 64.1805 247.852 63.5482 248.172 63.2321C248.332 63.074 248.651 62.7578 249.291 62.7578C249.93 62.7578 252.168 62.7578 254.246 62.7578C256.004 62.7578 257.762 62.7578 258.241 62.7578C259.041 62.7578 259.36 63.232 259.52 63.3901C259.68 63.7063 259.68 64.3386 259.36 64.6548C259.2 64.8128 258.881 65.6032 258.241 66.5517C256.803 69.081 255.364 71.6103 255.045 72.0845C254.725 72.5587 254.246 72.7168 253.926 72.7168ZM249.131 63.5482C248.971 63.5482 248.971 63.5482 248.971 63.7063C248.971 63.8644 248.971 64.1805 249.131 64.4967L249.93 65.7613C251.049 67.6583 253.287 71.2941 253.606 71.6103C253.766 71.7684 253.926 71.9264 254.086 71.9264C254.246 71.9264 254.405 71.7684 254.405 71.6103C254.725 71.136 256.483 68.1325 257.602 66.2356C258.082 65.2871 258.561 64.6548 258.721 64.3386C258.881 64.1805 258.881 64.0225 258.721 63.8644C258.721 63.7063 258.401 63.7063 258.241 63.7063C257.762 63.7063 256.164 63.7063 254.246 63.7063C252.008 63.5482 249.93 63.5482 249.131 63.5482Z" fill="#231F20"/>
<path d="M233.946 50.5844C233.627 50.5844 233.467 50.5844 232.987 50.4263C232.508 50.2682 228.992 48.3712 225.795 46.4743L224.996 46C224.356 45.6839 224.197 45.2096 224.197 44.8935C224.197 44.4192 224.516 43.945 225.156 43.6288C225.635 43.3127 228.672 41.7319 230.59 40.6253L232.348 39.6769C232.828 39.3607 233.627 39.0445 234.106 39.3607C234.746 39.6769 234.586 40.4673 234.586 40.6253C234.586 41.5738 234.586 46.6324 234.746 48.5293V49.1616C234.746 49.6359 234.586 50.1101 234.266 50.2682C234.426 50.5844 234.106 50.5844 233.946 50.5844ZM233.787 40.3092C233.627 40.3092 233.467 40.3092 232.987 40.6253L231.229 41.5738C229.151 42.6804 226.274 44.2612 225.795 44.5773C225.475 44.7354 225.315 44.8935 225.315 45.0516C225.315 45.2096 225.475 45.2096 225.635 45.3677L226.434 45.842C228.192 46.7904 232.987 49.4778 233.467 49.794C233.946 49.952 234.106 49.952 234.106 49.952C234.106 49.952 234.106 49.794 234.106 49.6359V49.0036C234.106 47.1066 233.946 42.048 233.946 41.0996H234.426H233.946C233.946 40.4673 233.946 40.3092 233.787 40.3092Z" fill="#231F20"/>
<path d="M273.266 50.5865C273.106 50.5865 272.786 50.5865 272.627 50.4284C272.307 50.2704 271.987 49.9542 271.987 49.1638C271.987 48.6896 271.987 47.583 271.987 46.3184C271.987 44.2633 271.827 41.734 271.987 40.9436C271.987 40.3113 272.147 39.8371 272.627 39.5209C273.106 39.2048 273.745 39.3629 274.704 39.8371C275.504 40.3113 280.139 42.9987 281.418 43.7891L281.737 43.9472C282.217 44.2633 282.536 44.5795 282.536 45.0537C282.536 45.3699 282.377 45.8441 281.577 46.3184C280.618 46.9507 275.024 50.1123 274.385 50.4284C273.905 50.5865 273.586 50.5865 273.266 50.5865ZM272.786 40.9436C272.786 41.8921 272.786 44.2633 272.786 46.3184C272.786 47.583 272.786 48.6896 272.786 49.1638C272.786 49.3219 272.786 49.638 272.946 49.638C273.106 49.7961 273.266 49.638 273.586 49.48C274.225 49.1638 279.819 46.0022 280.778 45.3699C281.098 45.2118 281.258 44.8956 281.258 44.8956C281.258 44.7376 281.098 44.7376 280.938 44.5795L280.618 44.4214C279.34 43.631 274.704 41.1017 273.905 40.6275C273.266 40.3113 272.786 40.1532 272.786 40.3113C272.786 40.3113 272.786 40.6275 272.786 40.9436Z" fill="#231F20"/>
<path d="M257.602 27.6623C257.123 27.6623 251.209 27.6623 249.291 27.6623H248.492C247.852 27.6623 247.373 27.5042 247.213 27.0299C247.053 26.8719 246.893 26.3976 247.213 25.6072C247.373 25.133 248.332 23.7103 249.291 22.1295C250.25 20.7068 251.049 19.284 251.369 18.6517C251.848 18.0194 252.168 17.5452 252.647 17.5452C253.127 17.5452 253.446 17.7032 253.766 18.3356C253.926 18.6517 254.885 20.0744 255.844 21.6552C256.963 23.3941 258.082 25.2911 258.401 25.6072C258.721 26.0815 258.721 26.5557 258.561 27.0299C258.561 27.3461 258.082 27.6623 257.602 27.6623ZM248.492 26.7138H249.291C252.967 26.7138 257.282 26.7138 257.602 26.7138C257.762 26.7138 257.922 26.7138 257.922 26.5557C258.082 26.3976 257.922 26.2395 257.762 26.0815C257.442 25.6072 256.323 23.8684 255.205 21.9714C254.246 20.3906 253.287 18.9679 253.127 18.6517C252.967 18.3356 252.807 18.3356 252.807 18.3356C252.807 18.3356 252.487 18.4936 252.168 18.9679C251.848 19.6002 250.889 21.0229 250.09 22.4456C249.131 24.0264 248.172 25.4491 248.012 25.9234C247.852 26.0815 247.852 26.2395 247.852 26.3976C248.172 26.7138 248.332 26.7138 248.492 26.7138Z" fill="#231F20"/>
<path d="M303.315 73.031H297.241V70.6598H302.995C303.954 70.6598 304.593 69.3952 304.593 68.6048C304.593 68.2886 304.434 67.6563 304.274 67.1821C303.954 66.7078 303.634 66.3917 303.155 66.3917H298.04V67.9725L293.725 65.1271L298.04 62.1235V63.8624H302.995C304.114 63.8624 305.233 64.4947 306.192 65.4432C306.991 66.3917 307.311 67.4982 307.311 68.4467C307.311 69.7114 306.991 70.8179 306.192 71.6083C305.393 72.5568 304.434 73.031 303.315 73.031ZM298.2 72.0826H303.315C304.114 72.0826 304.913 71.7664 305.552 70.976C306.192 70.3437 306.511 69.3952 306.511 68.2886C306.511 67.4982 306.192 66.5498 305.552 65.7594C304.913 64.969 304.114 64.4947 303.155 64.4947H297.401V63.5463L295.643 64.8109L297.401 65.9175V65.1271H303.315C304.114 65.1271 304.913 65.6013 305.233 66.3917C305.712 67.1821 305.712 67.9725 305.712 68.2886C305.712 69.5533 304.753 71.1341 303.315 71.1341H298.36L298.2 72.0826Z" fill="#231F20"/>
<path d="M220.041 75.7195C221.16 75.7195 222.119 76.826 222.119 77.7745C222.119 78.5649 221.479 79.6715 220.201 79.5134C218.922 79.3553 217.963 78.723 217.963 77.6164C217.963 76.668 218.762 75.7195 220.041 75.7195Z" fill="white"/>
<path d="M220.201 79.9867C218.762 79.9867 217.484 79.0382 217.644 77.7735C217.644 76.5089 218.763 75.4023 220.041 75.4023C221.48 75.4023 222.439 76.667 222.439 77.9316C222.439 78.8801 221.639 79.9867 220.201 79.9867ZM220.041 76.1927C219.242 76.1927 218.443 76.8251 218.443 77.7735C218.443 78.5639 219.242 79.1963 220.201 79.1963C221.16 79.1963 221.64 78.4059 221.64 77.7735C221.48 77.1412 220.84 76.1927 220.041 76.1927Z" fill="#231F20"/>
<path d="M253.766 56.7513C250.25 56.7513 246.893 55.3285 244.655 53.1154C242.578 51.0604 241.459 48.215 241.619 45.0534C241.778 37.4655 248.651 33.9878 253.446 33.9878C256.483 33.9878 259.36 35.2524 261.598 37.4655C263.835 39.6787 265.114 42.5241 264.954 45.5276C264.954 48.5311 263.835 51.3766 261.758 53.4316C259.84 55.4866 256.963 56.7513 253.766 56.7513ZM253.446 35.2524C249.131 35.2524 243.057 38.2559 243.057 45.0534C243.057 47.7407 244.016 50.27 245.774 52.0089C247.852 54.0639 250.889 55.3285 253.926 55.3285C256.643 55.3285 259.2 54.3801 260.958 52.4831C262.717 50.5862 263.835 48.215 263.835 45.5276C263.835 42.8403 262.717 40.311 260.799 38.414C258.721 36.359 256.004 35.4105 253.446 35.2524Z" fill="#231F20"/>
<path d="M201.341 81.4102H93.4528C89.1372 81.4102 85.4611 77.9325 85.4611 73.5063V18.4946C85.4611 14.2264 88.9774 10.5906 93.4528 10.5906H201.341C205.656 10.5906 209.332 14.0683 209.332 18.4946V73.5063C209.332 77.9325 205.816 81.4102 201.341 81.4102Z" fill="white"/>
<path d="M201.34 82.202H93.4524C88.6573 82.202 84.6615 78.4081 84.6615 73.5076V18.4959C84.6615 13.7535 88.4975 9.80151 93.4524 9.80151H201.34C206.135 9.80151 210.131 13.7535 210.131 18.4959V73.5076C210.131 78.4081 206.135 82.202 201.34 82.202ZM93.4524 11.5404C89.4565 11.5404 86.2598 14.702 86.2598 18.654V73.6657C86.2598 77.6177 89.4565 80.7793 93.4524 80.7793H201.34C205.336 80.7793 208.533 77.6177 208.533 73.6657V18.4959C208.533 14.5439 205.336 11.3823 201.34 11.3823H93.4524V11.5404Z" fill="#231F20"/>
<path d="M201.021 77.6204H94.0923C91.535 77.6204 89.4572 75.5654 89.4572 73.0361V18.8148C89.4572 16.2855 91.535 14.2305 94.0923 14.2305H200.861C203.419 14.2305 205.497 16.2855 205.497 18.8148V73.0361C205.656 75.5654 203.579 77.6204 201.021 77.6204Z" fill="#FF8200"/>
<rect x="101.833" y="47.375" width="0.833335" height="3.375" fill="black"/>
<rect x="114.333" y="42.3125" width="1.66666" height="0.84375" fill="black"/>
<rect x="117.667" y="44.8438" width="5.83334" height="0.84375" fill="black"/>
<rect x="119.333" y="45.6875" width="4.16667" height="0.84375" fill="black"/>
<rect x="121" y="46.5312" width="3.33333" height="0.84375" fill="black"/>
<rect x="125.167" y="44.8438" width="1.66666" height="0.84375" fill="black"/>
<rect x="127.667" y="44.8438" width="0.833332" height="1.6875" fill="black"/>
<rect x="128.5" y="46.5312" width="0.833332" height="4.21875" fill="black"/>
<rect x="116.833" y="46.5312" width="0.833334" height="4.21875" fill="black"/>
<rect x="117.667" y="50.75" width="0.833334" height="1.6875" fill="black"/>
<rect x="127.667" y="50.75" width="0.833332" height="1.6875" fill="black"/>
<rect x="120.167" y="51.5938" width="4.16667" height="0.84375" fill="black"/>
<rect x="118.5" y="52.4375" width="1.66667" height="0.84375" fill="black"/>
<rect x="126.833" y="52.4375" width="0.83334" height="0.84375" fill="black"/>
<rect x="116.833" y="54.125" width="0.833334" height="0.84375" fill="black"/>
<rect x="117.667" y="53.2812" width="0.833334" height="0.84375" fill="black"/>
<rect x="126.833" y="54.125" width="0.83334" height="0.84375" fill="black"/>
<rect x="126" y="53.2812" width="0.833328" height="0.84375" fill="black"/>
<rect x="124.333" y="52.4375" width="1.66666" height="0.84375" fill="black"/>
<rect x="117.667" y="45.6875" width="0.833334" height="0.84375" fill="black"/>
<rect x="125.167" y="45.6875" width="0.833332" height="0.84375" fill="black"/>
<rect x="118.5" y="44" width="9.16667" height="0.84375" fill="black"/>
<rect x="119.333" y="43.1562" width="7.49999" height="0.84375" fill="black"/>
<rect x="121" y="42.3125" width="4.16667" height="0.84375" fill="black"/>
<rect x="116.833" y="40.625" width="0.833334" height="0.84375" fill="black"/>
<rect x="116" y="41.4688" width="0.833334" height="0.84375" fill="black"/>
<rect x="102.667" y="44.8438" width="0.833332" height="2.53125" fill="black"/>
<rect x="103.5" y="43.1562" width="0.833334" height="1.6875" fill="black"/>
<rect x="106" y="38.9375" width="0.833333" height="0.84375" fill="black"/>
<rect x="111.833" y="33.875" width="1.66667" height="0.84375" fill="black"/>
<rect x="115.167" y="32.1875" width="10" height="0.84375" fill="black"/>
<rect x="152.667" y="18.6875" width="43.3333" height="0.84375" fill="black"/>
<rect x="153.5" y="49.9062" width="41.6667" height="0.84375" fill="black"/>
<rect x="155.167" y="53.2812" width="13.3333" height="0.84375" fill="black"/>
<rect x="159.333" y="54.125" width="5" height="0.84375" fill="black"/>
<rect x="166" y="54.9688" width="2.5" height="0.84375" fill="black"/>
<rect x="174.333" y="52.4375" width="0.833336" height="2.53125" fill="black"/>
<rect x="192.667" y="52.4375" width="0.833328" height="2.53125" fill="black"/>
<rect x="174.333" y="51.5938" width="19.1667" height="0.84375" fill="black"/>
<rect x="176" y="53.2812" width="15.8333" height="0.84375" fill="black"/>
<rect x="153.5" y="56.6562" width="42.5" height="0.84375" fill="black"/>
<rect x="157.667" y="58.3438" width="15.8333" height="0.84375" fill="black"/>
<rect x="174.333" y="58.3438" width="5" height="0.84375" fill="black"/>
<rect x="180.167" y="58.3438" width="2.5" height="0.84375" fill="black"/>
<rect x="183.5" y="58.3438" width="0.833351" height="0.84375" fill="black"/>
<rect x="186.833" y="58.3438" width="2.5" height="0.84375" fill="black"/>
<rect x="190.167" y="58.3438" width="1.66667" height="0.84375" fill="black"/>
<rect x="192.667" y="58.3438" width="1.66667" height="0.84375" fill="black"/>
<rect x="185.167" y="58.3438" width="0.833336" height="0.84375" fill="black"/>
<rect x="182.667" y="61.7188" width="0.833328" height="0.84375" fill="black"/>
<rect x="193.5" y="59.1875" width="0.833344" height="0.84375" fill="black"/>
<rect x="193.5" y="64.25" width="0.833344" height="0.84375" fill="black"/>
<rect x="193.5" y="60.875" width="0.833344" height="2.53125" fill="black"/>
<rect x="193.5" y="65.9375" width="0.833344" height="4.21875" fill="black"/>
<rect x="177.667" y="69.3125" width="13.3333" height="1.6875" fill="black"/>
<rect x="177.667" y="60.875" width="2.5" height="2.53125" fill="black"/>
<rect x="167.667" y="62.5625" width="1.66667" height="8.4375" fill="black"/>
<rect x="158.5" y="65.0938" width="0.833344" height="5.90625" fill="black"/>
<rect x="154.333" y="65.0938" width="0.833321" height="4.21875" fill="black"/>
<rect x="154.333" y="70.1562" width="0.833321" height="0.84375" fill="black"/>
<rect x="154.333" y="63.4062" width="0.833321" height="0.84375" fill="black"/>
<rect x="155.167" y="58.3438" width="0.833351" height="0.84375" fill="black"/>
<rect x="154.333" y="60.875" width="0.833321" height="1.6875" fill="black"/>
<rect x="154.333" y="58.3438" width="0.833321" height="1.6875" fill="black"/>
<rect x="160.167" y="65.0938" width="0.833328" height="5.90625" fill="black"/>
<rect x="157.667" y="60.875" width="1.66666" height="4.21875" fill="black"/>
<rect x="91.8334" y="19.5312" width="1.66667" height="5.90625" fill="black"/>
<rect x="95.1666" y="19.5312" width="1.66667" height="5.90625" fill="black"/>
<rect x="92.6666" y="25.4375" width="3.33333" height="0.84375" fill="black"/>
<rect x="97.6666" y="22.0625" width="1.66667" height="5.90625" fill="black"/>
<rect x="97.6666" y="21.2188" width="0.833333" height="0.84375" fill="black"/>
<rect x="99.3334" y="21.2188" width="1.66667" height="0.84375" fill="black"/>
<rect x="100.167" y="22.0625" width="1.66667" height="3.375" fill="black"/>
<rect x="102.667" y="22.0625" width="1.66667" height="3.375" fill="black"/>
<rect x="103.5" y="21.2188" width="1.66667" height="0.84375" fill="black"/>
<rect x="103.5" y="25.4375" width="1.66667" height="0.84375" fill="black"/>
<rect x="105.167" y="19.5312" width="1.66667" height="6.75" fill="black"/>
<rect x="108.5" y="21.2188" width="2.5" height="0.84375" fill="black"/>
<rect x="114.333" y="19.5312" width="1.66666" height="5.90625" fill="black"/>
<rect x="117.667" y="21.2188" width="1.66667" height="5.0625" fill="black"/>
<rect x="120.167" y="22.0625" width="1.66667" height="4.21875" fill="black"/>
<rect x="122.667" y="22.0625" width="1.66667" height="4.21875" fill="black"/>
<rect x="125.167" y="22.0625" width="1.66666" height="3.375" fill="black"/>
<rect x="126" y="25.4375" width="1.66667" height="0.84375" fill="black"/>
<rect x="126" y="21.2188" width="1.66667" height="0.84375" fill="black"/>
<rect x="128.5" y="21.2188" width="0.833332" height="0.84375" fill="black"/>
<rect x="131" y="25.4375" width="0.83334" height="0.84375" fill="black"/>
<rect x="136" y="25.4375" width="0.833328" height="0.84375" fill="black"/>
<rect x="133.5" y="25.4375" width="0.833328" height="0.84375" fill="black"/>
<rect x="126" y="27.125" width="2.5" height="0.84375" fill="black"/>
<rect x="127.667" y="22.0625" width="1.66666" height="5.0625" fill="black"/>
<rect x="113.5" y="21.2188" width="3.33333" height="0.84375" fill="black"/>
<rect x="115.167" y="25.4375" width="1.66667" height="0.84375" fill="black"/>
<rect x="117.667" y="19.5312" width="1.66667" height="0.84375" fill="black"/>
<rect x="120.167" y="21.2188" width="0.833334" height="0.84375" fill="black"/>
<rect x="121.833" y="21.2188" width="1.66667" height="0.84375" fill="black"/>
<rect x="111" y="25.4375" width="1.66667" height="0.84375" fill="black"/>
<rect x="108.5" y="25.4375" width="1.66667" height="0.84375" fill="black"/>
<rect x="107.667" y="23.75" width="1.66667" height="1.6875" fill="black"/>
<rect x="108.5" y="22.9062" width="1.66667" height="0.84375" fill="black"/>
<rect x="107.667" y="22.0625" width="0.833332" height="0.84375" fill="black"/>
<rect x="110.167" y="22.0625" width="1.66667" height="3.375" fill="black"/>
<rect x="99.3334" y="25.4375" width="1.66667" height="0.84375" fill="black"/>
<rect x="160.167" y="60.875" width="1.66666" height="4.21875" fill="black"/>
<rect x="171" y="62.5625" width="1.66668" height="8.4375" fill="black"/>
<rect x="166" y="60.875" width="8.33333" height="0.84375" fill="black"/>
<rect x="177.667" y="65.0938" width="0.833336" height="2.53125" fill="black"/>
<rect x="173.5" y="61.7188" width="0.833328" height="1.6875" fill="black"/>
<rect x="166" y="61.7188" width="0.833321" height="1.6875" fill="black"/>
<rect x="159.333" y="60.875" width="0.833336" height="1.6875" fill="black"/>
<rect x="162.667" y="60.875" width="1.66668" height="0.84375" fill="black"/>
<rect x="162.667" y="62.5625" width="1.66668" height="0.84375" fill="black"/>
<rect x="166.833" y="63.4062" width="0.833344" height="0.84375" fill="black"/>
<rect x="172.667" y="63.4062" width="0.833321" height="0.84375" fill="black"/>
<rect x="166.833" y="63.4062" width="0.833344" height="0.84375" fill="black"/>
<rect x="172.667" y="63.4062" width="0.833321" height="0.84375" fill="black"/>
<rect x="166" y="66.7812" width="0.833321" height="0.84375" fill="black"/>
<rect x="171.833" y="66.7812" width="0.833344" height="0.84375" fill="black"/>
<rect x="169.333" y="63.4062" width="1.66666" height="0.84375" fill="black"/>
<rect x="169.333" y="69.3125" width="1.66666" height="0.84375" fill="black"/>
<rect x="166.833" y="66.7812" width="0.833344" height="0.84375" fill="black"/>
<rect x="169.333" y="66.7812" width="1.66666" height="0.84375" fill="black"/>
<rect x="172.667" y="66.7812" width="1.66665" height="0.84375" fill="black"/>
<rect x="173.5" y="67.625" width="0.833328" height="1.6875" fill="black"/>
<rect x="166" y="67.625" width="0.833321" height="1.6875" fill="black"/>
<rect x="172.667" y="69.3125" width="0.833321" height="0.84375" fill="black"/>
<rect x="166.833" y="69.3125" width="0.833344" height="0.84375" fill="black"/>
<rect width="0.833328" height="0.84375" transform="matrix(-1 0 0 1 179.333 65.0938)" fill="black"/>
<rect width="1.66666" height="0.84375" transform="matrix(-1 0 0 1 180.167 66.7812)" fill="black"/>
<rect width="0.833336" height="0.84375" transform="matrix(-1 0 0 1 180.167 65.9375)" fill="black"/>
<rect x="188.5" y="65.0938" width="0.833336" height="2.53125" fill="black"/>
<rect width="0.833328" height="0.84375" transform="matrix(-1 0 0 1 190.167 65.0938)" fill="black"/>
<rect width="1.66667" height="0.84375" transform="matrix(-1 0 0 1 191 66.7812)" fill="black"/>
<rect width="0.833344" height="0.84375" transform="matrix(-1 0 0 1 191 65.9375)" fill="black"/>
<rect x="185.167" y="65.0938" width="0.833336" height="2.53125" fill="black"/>
<rect width="0.833328" height="0.84375" transform="matrix(-1 0 0 1 186.833 65.0938)" fill="black"/>
<rect width="1.66666" height="0.84375" transform="matrix(-1 0 0 1 187.667 66.7812)" fill="black"/>
<rect width="0.833336" height="0.84375" transform="matrix(-1 0 0 1 187.667 65.9375)" fill="black"/>
<rect x="181" y="65.0938" width="0.833321" height="2.53125" fill="black"/>
<rect width="0.833336" height="0.84375" transform="matrix(-1 0 0 1 182.667 65.0938)" fill="black"/>
<rect width="1.66666" height="0.84375" transform="matrix(-1 0 0 1 183.5 66.7812)" fill="black"/>
<rect width="0.833328" height="0.84375" transform="matrix(-1 0 0 1 183.5 65.9375)" fill="black"/>
<rect x="180.167" y="60.875" width="3.33333" height="0.84375" fill="black"/>
<rect x="180.167" y="62.5625" width="3.33333" height="0.84375" fill="black"/>
<rect x="190.167" y="61.7188" width="0.833344" height="0.84375" fill="black"/>
<rect x="185.167" y="60.875" width="2.5" height="2.53125" fill="black"/>
<rect x="187.667" y="60.875" width="3.33334" height="0.84375" fill="black"/>
<rect x="187.667" y="62.5625" width="3.33334" height="0.84375" fill="black"/>
<rect x="174.333" y="54.9688" width="19.1667" height="0.84375" fill="black"/>
<rect x="159.333" y="52.4375" width="5" height="0.84375" fill="black"/>
<rect x="156" y="47.375" width="2.49998" height="0.84375" fill="black"/>
<rect x="190.167" y="47.375" width="2.50001" height="0.84375" fill="black"/>
<rect x="187.667" y="47.375" width="0.833328" height="0.84375" fill="black"/>
<rect x="189.333" y="23.75" width="0.833328" height="0.84375" fill="black"/>
<rect x="190.167" y="29.6562" width="0.833344" height="0.84375" fill="black"/>
<rect x="190.167" y="23.75" width="0.833344" height="1.6875" fill="black"/>
<rect x="186" y="25.4375" width="0.833328" height="3.375" fill="black"/>
<rect x="186.833" y="26.2812" width="0.833336" height="2.53125" fill="black"/>
<rect x="187.667" y="27.125" width="0.833328" height="1.6875" fill="black"/>
<rect x="188.5" y="27.9688" width="0.833336" height="0.84375" fill="black"/>
<rect x="183.5" y="23.75" width="0.833351" height="0.84375" fill="black"/>
<rect x="156" y="44" width="36.6667" height="2.53125" fill="black"/>
<rect x="156" y="22.0625" width="36.6667" height="1.6875" fill="black"/>
<rect x="168.5" y="31.3438" width="24.1667" height="12.6562" fill="black"/>
<rect x="168.5" y="23.75" width="14.1667" height="7.59375" fill="black"/>
<rect x="182.667" y="24.5938" width="3.33334" height="6.75" fill="black"/>
<rect x="162.667" y="27.125" width="5.83334" height="6.75" fill="black"/>
<rect x="166" y="25.4375" width="2.5" height="1.6875" fill="black"/>
<rect x="156" y="23.75" width="12.5" height="0.84375" fill="black"/>
<rect x="156" y="24.5938" width="1.66666" height="19.4062" fill="black"/>
<rect x="166" y="33.875" width="2.5" height="5.90625" fill="black"/>
<rect x="162.667" y="40.625" width="5.83334" height="3.375" fill="black"/>
<rect x="161.833" y="35.5625" width="4.16666" height="4.21875" fill="black"/>
<rect x="157.667" y="33.875" width="8.33333" height="0.84375" fill="black"/>
<rect x="161.833" y="34.7188" width="0.833321" height="0.84375" fill="black"/>
<rect x="158.5" y="32.1875" width="0.833344" height="8.4375" fill="black"/>
<rect x="159.333" y="40.625" width="0.833336" height="3.375" fill="black"/>
<rect x="160.167" y="37.25" width="0.833328" height="2.53125" fill="black"/>
<rect x="159.333" y="29.6562" width="0.833336" height="3.375" fill="black"/>
<rect x="160.167" y="32.1875" width="2.49998" height="1.6875" fill="black"/>
<rect x="164.333" y="34.7188" width="0.833336" height="0.84375" fill="black"/>
<rect x="165.167" y="39.7812" width="0.833328" height="0.84375" fill="black"/>
<rect x="161" y="37.25" width="0.833336" height="6.75" fill="black"/>
<rect x="161.833" y="42.3125" width="0.833321" height="1.6875" fill="black"/>
<rect x="161.833" y="40.625" width="0.833321" height="0.84375" fill="black"/>
<rect x="157.667" y="30.5" width="4.99998" height="0.84375" fill="black"/>
<rect x="157.667" y="28.8125" width="4.99998" height="0.84375" fill="black"/>
<rect x="160.167" y="27.125" width="2.49998" height="1.6875" fill="black"/>
<rect x="159.333" y="35.5625" width="2.5" height="0.84375" fill="black"/>
<rect x="157.667" y="42.3125" width="1.66666" height="0.84375" fill="black"/>
<rect x="160.167" y="42.3125" width="0.833328" height="0.84375" fill="black"/>
<rect x="159.333" y="38.9375" width="0.833336" height="0.84375" fill="black"/>
<rect x="160.167" y="40.625" width="0.833328" height="0.84375" fill="black"/>
<rect x="157.667" y="38.9375" width="0.833321" height="0.84375" fill="black"/>
<rect x="159.333" y="37.25" width="0.833336" height="0.84375" fill="black"/>
<rect x="157.667" y="25.4375" width="8.33333" height="0.84375" fill="black"/>
<rect x="158.5" y="26.2812" width="0.833344" height="2.53125" fill="black"/>
<rect x="162.667" y="24.5938" width="0.833336" height="0.84375" fill="black"/>
<rect x="157.667" y="27.125" width="0.833321" height="0.84375" fill="black"/>
<rect x="159.333" y="27.125" width="0.833336" height="0.84375" fill="black"/>
<rect x="161" y="26.2812" width="0.833336" height="0.84375" fill="black"/>
<rect x="163.5" y="26.2812" width="0.833344" height="0.84375" fill="black"/>
<rect x="166" y="24.5938" width="0.833321" height="0.84375" fill="black"/>
<rect x="164.333" y="24.5938" width="0.833336" height="0.84375" fill="black"/>
<rect x="158.5" y="24.5938" width="0.833344" height="0.84375" fill="black"/>
<rect x="157.667" y="35.5625" width="0.833321" height="0.84375" fill="black"/>
<rect x="157.667" y="37.25" width="0.833321" height="0.84375" fill="black"/>
<rect x="157.667" y="40.625" width="1.66666" height="0.84375" fill="black"/>
<rect x="157.667" y="32.1875" width="0.833321" height="0.84375" fill="black"/>
<rect x="163.5" y="39.7812" width="0.833344" height="0.84375" fill="black"/>
<rect x="186" y="28.8125" width="4.16666" height="2.53125" fill="black"/>
<rect x="191" y="23.75" width="1.66666" height="7.59375" fill="black"/>
<rect x="152.667" y="19.5312" width="0.833332" height="51.4688" fill="black"/>
<rect x="195.167" y="19.5312" width="0.833336" height="51.4688" fill="black"/>
<rect x="195.167" y="19.5312" width="0.833336" height="51.4688" fill="black"/>
<rect x="113.5" y="33.0312" width="1.66666" height="0.84375" fill="black"/>
<rect x="131" y="35.5625" width="1.66666" height="0.84375" fill="black"/>
<rect x="136" y="40.625" width="0.833328" height="0.84375" fill="black"/>
<rect x="139.333" y="38.0938" width="0.833332" height="0.84375" fill="black"/>
<rect x="139.333" y="37.25" width="1.66667" height="0.84375" fill="black"/>
<rect x="132.667" y="34.7188" width="3.33334" height="0.84375" fill="black"/>
<rect x="136" y="33.0312" width="1.66667" height="0.84375" fill="black"/>
<rect x="138.5" y="31.3438" width="6.66667" height="0.84375" fill="black"/>
<rect x="138.5" y="32.1875" width="5.83334" height="0.84375" fill="black"/>
<rect x="139.333" y="33.875" width="3.33334" height="0.84375" fill="black"/>
<rect x="140.167" y="34.7188" width="2.5" height="0.84375" fill="black"/>
<rect x="141" y="35.5625" width="0.833332" height="0.84375" fill="black"/>
<rect x="141" y="30.5" width="4.16667" height="0.84375" fill="black"/>
<rect x="142.667" y="28.8125" width="1.66667" height="0.84375" fill="black"/>
<rect x="144.333" y="27.9688" width="0.833332" height="0.84375" fill="black"/>
<rect x="146.833" y="27.125" width="0.833336" height="1.6875" fill="black"/>
<rect x="146" y="23.75" width="0.833328" height="2.53125" fill="black"/>
<rect x="145.167" y="19.5312" width="0.833336" height="4.21875" fill="black"/>
<rect x="147.667" y="18.6875" width="0.833332" height="1.6875" fill="black"/>
<rect x="149.333" y="17" width="0.833332" height="0.84375" fill="black"/>
<rect x="146.833" y="17" width="0.833336" height="0.84375" fill="black"/>
<rect x="148.5" y="17.8438" width="0.833336" height="0.84375" fill="black"/>
<rect x="146" y="17.8438" width="0.833328" height="1.6875" fill="black"/>
<rect x="146.833" y="20.375" width="0.833336" height="2.53125" fill="black"/>
<rect x="147.667" y="22.9062" width="0.833332" height="4.21875" fill="black"/>
<rect x="145.167" y="26.2812" width="0.833336" height="1.6875" fill="black"/>
<rect x="146" y="28.8125" width="0.833328" height="0.84375" fill="black"/>
<rect x="145.167" y="29.6562" width="0.833336" height="0.84375" fill="black"/>
<rect x="141.833" y="29.6562" width="2.5" height="0.84375" fill="black"/>
<rect x="138.5" y="33.0312" width="5" height="0.84375" fill="black"/>
<rect x="136.833" y="32.1875" width="1.66667" height="0.84375" fill="black"/>
<rect x="135.167" y="33.875" width="1.66667" height="0.84375" fill="black"/>
<rect x="140.167" y="36.4062" width="1.66667" height="0.84375" fill="black"/>
<rect x="136" y="35.5625" width="0.833328" height="0.84375" fill="black"/>
<rect x="136.833" y="36.4062" width="0.83334" height="0.84375" fill="black"/>
<rect x="137.667" y="37.25" width="0.833328" height="0.84375" fill="black"/>
<rect x="138.5" y="38.0938" width="0.833332" height="3.375" fill="black"/>
<rect x="136.833" y="42.3125" width="0.83334" height="0.84375" fill="black"/>
<rect x="136" y="41.4688" width="2.5" height="0.84375" fill="black"/>
<rect x="138.5" y="45.6875" width="0.833332" height="2.53125" fill="black"/>
<rect x="140.167" y="51.5938" width="0.833336" height="12.6562" fill="black"/>
<rect x="139.333" y="64.25" width="0.833332" height="6.75" fill="black"/>
<rect x="100.167" y="68.4688" width="0.833333" height="2.53125" fill="black"/>
<rect x="101" y="64.25" width="0.833333" height="4.21875" fill="black"/>
<rect x="103.5" y="65.9375" width="2.5" height="3.375" fill="black"/>
<rect x="106" y="66.7812" width="3.33333" height="3.375" fill="black"/>
<rect x="104.333" y="69.3125" width="1.66667" height="0.84375" fill="black"/>
<rect x="109.333" y="67.625" width="1.66667" height="1.6875" fill="black"/>
<rect x="111" y="67.625" width="1.66667" height="0.84375" fill="black"/>
<rect x="100.167" y="64.25" width="0.833333" height="0.84375" fill="black"/>
<rect x="98.5" y="63.4062" width="1.66667" height="0.84375" fill="black"/>
<rect x="96" y="61.7188" width="1.66667" height="0.84375" fill="black"/>
<rect x="95.1666" y="60.875" width="0.833333" height="0.84375" fill="black"/>
<rect x="92.6666" y="58.3438" width="0.833333" height="0.84375" fill="black"/>
<rect x="91.8334" y="54.125" width="0.833333" height="4.21875" fill="black"/>
<rect x="91" y="52.4375" width="0.833333" height="4.21875" fill="black"/>
<rect x="91.8334" y="50.75" width="0.833333" height="1.6875" fill="black"/>
<rect x="92.6666" y="49.9062" width="0.833333" height="0.84375" fill="black"/>
<rect x="93.5" y="49.0625" width="1.66667" height="0.84375" fill="black"/>
<rect x="95.1666" y="48.2188" width="4.16667" height="0.84375" fill="black"/>
<rect x="99.3334" y="49.0625" width="2.5" height="0.84375" fill="black"/>
<rect x="102.667" y="49.9062" width="0.833332" height="0.84375" fill="black"/>
<rect x="105.167" y="51.5938" width="1.66667" height="0.84375" fill="black"/>
<rect x="110.167" y="54.125" width="2.5" height="0.84375" fill="black"/>
<rect x="108.5" y="54.9688" width="1.66667" height="0.84375" fill="black"/>
<rect x="112.667" y="54.9688" width="0.833336" height="0.84375" fill="black"/>
<rect x="113.5" y="55.8125" width="0.833334" height="3.375" fill="black"/>
<rect x="112.667" y="59.1875" width="0.833336" height="0.84375" fill="black"/>
<rect x="111.833" y="60.0312" width="0.833334" height="0.84375" fill="black"/>
<rect x="119.333" y="60.875" width="0.833334" height="0.84375" fill="black"/>
<rect x="107.667" y="55.8125" width="0.833332" height="0.84375" fill="black"/>
<rect x="106.833" y="56.6562" width="0.833334" height="0.84375" fill="black"/>
<rect x="106" y="57.5" width="0.833333" height="0.84375" fill="black"/>
<rect x="110.167" y="60.875" width="5.83333" height="0.84375" fill="black"/>
<rect x="107.667" y="60.0312" width="2.5" height="0.84375" fill="black"/>
<rect x="106" y="59.1875" width="1.66667" height="0.84375" fill="black"/>
<rect x="104.333" y="58.3438" width="2.5" height="0.84375" fill="black"/>
<rect x="102.667" y="57.5" width="1.66667" height="0.84375" fill="black"/>
<rect x="92.6666" y="53.2812" width="3.33333" height="0.84375" fill="black"/>
<rect x="116" y="60.0312" width="3.33333" height="0.84375" fill="black"/>
<rect x="96" y="54.125" width="1.66667" height="0.84375" fill="black"/>
<rect x="97.6666" y="54.9688" width="1.66667" height="0.84375" fill="black"/>
<rect x="99.3334" y="55.8125" width="1.66667" height="0.84375" fill="black"/>
<rect x="101" y="56.6562" width="1.66667" height="0.84375" fill="black"/>
<rect x="110.167" y="58.3438" width="0.833334" height="0.84375" fill="black"/>
<rect x="109.333" y="59.1875" width="0.833332" height="0.84375" fill="black"/>
<rect x="106.833" y="52.4375" width="1.66667" height="0.84375" fill="black"/>
<rect x="103.5" y="50.75" width="1.66667" height="0.84375" fill="black"/>
<rect x="93.5" y="59.1875" width="0.833333" height="0.84375" fill="black"/>
<rect x="94.3334" y="60.0312" width="0.833333" height="0.84375" fill="black"/>
<rect x="97.6666" y="62.5625" width="0.833333" height="0.84375" fill="black"/>
<rect x="101.833" y="65.0938" width="1.66667" height="4.21875" fill="black"/>
<rect x="139.333" y="48.2188" width="0.833332" height="3.375" fill="black"/>
<rect x="137.667" y="44" width="0.833328" height="1.6875" fill="black"/>
<rect x="135.167" y="39.7812" width="1.66667" height="0.84375" fill="black"/>
<rect x="134.333" y="38.9375" width="1.66667" height="0.84375" fill="black"/>
<rect x="133.5" y="38.0938" width="1.66666" height="0.84375" fill="black"/>
<rect x="132.667" y="37.25" width="1.66667" height="0.84375" fill="black"/>
<rect x="131.833" y="36.4062" width="1.66666" height="0.84375" fill="black"/>
<rect x="129.333" y="34.7188" width="1.66667" height="0.84375" fill="black"/>
<rect x="127.667" y="33.875" width="1.66666" height="0.84375" fill="black"/>
<rect x="125.167" y="33.0312" width="2.5" height="0.84375" fill="black"/>
<rect x="110.167" y="34.7188" width="1.66667" height="0.84375" fill="black"/>
<rect x="109.333" y="35.5625" width="0.833332" height="0.84375" fill="black"/>
<rect x="108.5" y="36.4062" width="0.833334" height="0.84375" fill="black"/>
<rect x="107.667" y="37.25" width="0.833332" height="0.84375" fill="black"/>
<rect x="106.833" y="38.0938" width="0.833334" height="0.84375" fill="black"/>
<rect x="105.167" y="39.7812" width="0.833334" height="1.6875" fill="black"/>
<rect x="104.333" y="41.4688" width="0.833333" height="1.6875" fill="black"/>
<path d="M201.021 78.093H94.0922C91.2152 78.093 88.9775 75.8799 88.9775 73.0345V18.8132C88.9775 15.9678 91.2152 13.7546 94.0922 13.7546H200.861C203.738 13.7546 205.976 15.9678 205.976 18.8132V73.0345C205.976 75.8799 203.738 78.093 201.021 78.093ZM94.0922 14.7031C91.8546 14.7031 89.9365 16.6001 89.9365 18.8132V73.0345C89.9365 75.2476 91.8546 77.1446 94.0922 77.1446H200.861C203.099 77.1446 205.017 75.2476 205.017 73.0345V18.8132C205.017 16.6001 203.099 14.7031 200.861 14.7031H94.0922Z" fill="#231F20"/>
<path d="M122.063 110.656L121.424 114.924H118.387L120.145 103.859H141.243L140.923 106.388H122.702L122.383 108.127H140.444L140.124 110.656H122.063Z" fill="#FF8200"/>
<path d="M145.398 103.859L144.12 112.395H162.181L161.861 114.924H140.603L142.361 103.859H145.398Z" fill="#FF8200"/>
<path d="M167.775 103.859L166.017 114.924H162.98L164.739 103.859H167.775Z" fill="#FF8200"/>
<path d="M170.972 110.656L170.332 114.924H167.296L169.054 103.859H187.115C187.914 103.859 188.713 104.175 189.193 104.649C189.672 105.124 189.992 105.756 189.832 106.388L189.513 108.127C189.353 108.759 189.033 109.392 188.394 109.866C187.754 110.34 186.955 110.656 186.156 110.656H170.972ZM171.611 106.388L171.292 108.127H186.316L186.636 106.388H171.611Z" fill="#FF8200"/>
<path d="M193.189 110.656L192.55 114.924H189.513L191.271 103.859H209.333C210.132 103.859 210.931 104.175 211.41 104.649C211.89 105.124 212.21 105.756 212.05 106.388L211.73 108.127C211.57 108.759 211.251 109.392 210.611 109.866C209.972 110.34 209.173 110.656 208.374 110.656H193.189ZM193.829 106.388L193.509 108.127H208.533L208.853 106.388H193.829Z" fill="#FF8200"/>
<path d="M233.307 112.395L232.987 114.924H211.889L213.648 103.859H234.746L234.426 106.388H216.365L216.045 108.127H233.946L233.627 110.656H215.566L215.246 112.395H233.307Z" fill="#FF8200"/>
<path d="M237.783 110.656L237.144 114.924H234.107L235.865 103.859H253.926C254.726 103.859 255.525 104.175 256.004 104.649C256.484 105.124 256.803 105.756 256.644 106.388L256.324 108.127C256.324 108.443 256.004 108.759 255.685 109.076C255.365 109.234 255.045 109.392 254.726 109.392C255.045 109.392 255.365 109.55 255.685 109.708C256.004 110.024 256.004 110.182 256.004 110.656L255.365 114.924H252.328L252.967 110.656H237.783ZM253.127 108.127L253.447 106.388H238.422L238.103 108.127H253.127Z" fill="#FF8200"/>
</svg>
