<svg width="18" height="18" viewBox="0 0 18 18" fill="none" xmlns="http://www.w3.org/2000/svg">
<path fill-rule="evenodd" clip-rule="evenodd" d="M12.896 12.1647L12.8809 12.1882L12.8398 12.2428L12.7926 12.2943L9.25089 15.7936C8.82407 16.2153 8.10744 15.948 8.04593 15.3783L8.04169 15.2987L8.04167 10.455L5.65085 12.3459C5.34537 12.5874 4.89963 12.5385 4.65524 12.2366C4.42966 11.958 4.45451 11.5613 4.69993 11.312L4.76587 11.2529L7.61596 9L4.76587 6.74706C4.46039 6.5056 4.41086 6.06519 4.65524 5.76336C4.88083 5.48476 5.27799 5.42163 5.57802 5.60348L5.65085 5.65406L8.04167 7.54429L8.04169 2.70126C8.04169 2.10486 8.73977 1.79324 9.19098 2.15312L9.25089 2.20639L12.7926 5.70569C12.8261 5.73885 12.8556 5.77443 12.8809 5.81183L12.9006 5.84257L12.9323 5.90115L12.9675 5.99031C13.0416 6.22992 12.9857 6.49442 12.8069 6.68096L12.7342 6.74706L9.88333 9L12.7342 11.2529C12.9226 11.4018 13.0122 11.6243 12.9987 11.8427C12.9942 11.911 12.9807 11.9756 12.9578 12.038L12.9323 12.0988L12.896 12.1647ZM9.45801 10.4555V13.6077L11.2303 11.8566L9.45801 10.4555ZM9.45801 7.54365V4.39148L11.2303 6.14253L9.45801 7.54365Z" fill="#589DFF"/>
</svg>
