<svg width="92" height="68" viewBox="0 0 92 68" fill="none" xmlns="http://www.w3.org/2000/svg">
<g clip-path="url(#clip0_2070_173979)">
<path fill-rule="evenodd" clip-rule="evenodd" d="M28.525 12C28.5086 11.9192 28.5 11.8356 28.5 11.75V4.25C28.5 3.55964 29.0596 3 29.75 3C30.4404 3 31 3.55964 31 4.25V11.75C31 11.8356 30.9914 11.9192 30.975 12H39.025C39.0086 11.9192 39 11.8356 39 11.75V4.25C39 3.55964 39.5596 3 40.25 3C40.9404 3 41.5 3.55964 41.5 4.25V11.75C41.5 11.8356 41.4914 11.9192 41.475 12H50.025C50.0086 11.9192 50 11.8356 50 11.75V4.25C50 3.55964 50.5596 3 51.25 3C51.9404 3 52.5 3.55964 52.5 4.25V11.75C52.5 11.8356 52.4914 11.9192 52.475 12H60.525C60.5086 11.9192 60.5 11.8356 60.5 11.75V4.25C60.5 3.55964 61.0596 3 61.75 3C62.4404 3 63 3.55964 63 4.25V11.75C63 11.8356 62.9914 11.9192 62.975 12H64C66.2091 12 68 13.7909 68 16V17.025C68.0808 17.0086 68.1644 17 68.25 17H75.75C76.4404 17 77 17.5596 77 18.25C77 18.9404 76.4404 19.5 75.75 19.5H68.25C68.1644 19.5 68.0808 19.4914 68 19.475V27.525C68.0808 27.5086 68.1644 27.5 68.25 27.5H75.75C76.4404 27.5 77 28.0596 77 28.75C77 29.4404 76.4404 30 75.75 30H68.25C68.1644 30 68.0808 29.9914 68 29.975V35.9716L65.5 39.7046V16C65.5 15.1716 64.8284 14.5 64 14.5H28C27.1716 14.5 26.5 15.1716 26.5 16V52C26.5 52.8284 27.1716 53.5 28 53.5H56.2614L54.5871 56H52.475C52.4914 56.0808 52.5 56.1644 52.5 56.25V59.1166L50 62.8496V56.25C50 56.1644 50.0086 56.0808 50.025 56H41.475C41.4914 56.0808 41.5 56.1644 41.5 56.25V63.75C41.5 64.4404 40.9404 65 40.25 65C39.5596 65 39 64.4404 39 63.75V56.25C39 56.1644 39.0086 56.0808 39.025 56H30.975C30.9914 56.0808 31 56.1644 31 56.25V63.75C31 64.4404 30.4404 65 29.75 65C29.0596 65 28.5 64.4404 28.5 63.75V56.25C28.5 56.1644 28.5086 56.0808 28.525 56H28C25.7909 56 24 54.2091 24 52V51.475C23.9192 51.4914 23.8356 51.5 23.75 51.5H16.25C15.5596 51.5 15 50.9404 15 50.25C15 49.5596 15.5596 49 16.25 49H23.75C23.8356 49 23.9192 49.0086 24 49.025V40.975C23.9192 40.9914 23.8356 41 23.75 41H16.25C15.5596 41 15 40.4404 15 39.75C15 39.0596 15.5596 38.5 16.25 38.5H23.75C23.8356 38.5 23.9192 38.5086 24 38.525V29.975C23.9192 29.9914 23.8356 30 23.75 30H16.25C15.5596 30 15 29.4404 15 28.75C15 28.0596 15.5596 27.5 16.25 27.5H23.75C23.8356 27.5 23.9192 27.5086 24 27.525V19.475C23.9192 19.4914 23.8356 19.5 23.75 19.5H16.25C15.5596 19.5 15 18.9404 15 18.25C15 17.5596 15.5596 17 16.25 17H23.75C23.8356 17 23.9192 17.0086 24 17.025V16C24 13.7909 25.7909 12 28 12H28.525Z" fill="#616161"/>
<path d="M45.9971 40.2954L45.9971 24" stroke="#616161" stroke-width="2.5" stroke-linecap="round" stroke-linejoin="round"/>
<path d="M38 34.8523L46 43L54 34.8523" stroke="#616161" stroke-width="2.5" stroke-linecap="round" stroke-linejoin="round"/>
<path d="M69.3566 38.7001C70.5455 36.9328 73.146 36.9328 74.335 38.7001L90.2189 62.3101C91.5596 64.3029 90.1317 66.9846 87.7299 66.9846H55.9637C53.5619 66.9846 52.1338 64.3029 53.4743 62.3101L69.3566 38.7001Z" fill="#F63F3F"/>
<ellipse rx="1.52116" ry="1.52308" transform="matrix(0.999903 0.0139395 -0.0139045 0.999903 71.7996 59.8718)" fill="white"/>
<rect width="3.04233" height="10.1538" rx="1.52116" transform="matrix(0.999903 0.0139395 -0.0139045 0.999903 70.4795 45.1323)" fill="white"/>
</g>
<defs>
<clipPath id="clip0_2070_173979">
<rect width="92" height="68" fill="white"/>
</clipPath>
</defs>
</svg>
