<svg width="42" height="24" viewBox="0 0 42 24" fill="none" xmlns="http://www.w3.org/2000/svg">
<path d="M6.97885 4.21049C7.58029 3.29869 8.59953 2.75 9.69181 2.75H34.4303C35.5326 2.75 36.5597 3.30868 37.1586 4.23401L40.7283 9.74894C41.0688 10.275 41.25 10.8883 41.25 11.5149V18C41.25 19.7949 39.7949 21.25 38 21.25H9.34742C8.41312 21.25 7.52401 20.8479 6.90698 20.1463L2.5807 15.2272C1.61287 14.1268 1.50125 12.5147 2.30818 11.2914L6.97885 4.21049Z" stroke="#AAAAAA" stroke-width="1.5"/>
<path d="M22.5534 16.8286C22.7544 16.6277 22.8672 16.3552 22.8672 16.071C22.8672 15.7869 22.7544 15.5144 22.5534 15.3134C22.3525 15.1125 22.08 14.9996 21.7958 14.9996C21.5117 14.9996 21.2391 15.1125 21.0382 15.3134C20.8373 15.5144 20.7244 15.7869 20.7244 16.071C20.7244 16.3552 20.8373 16.6277 21.0382 16.8286C21.2391 17.0295 21.5117 17.1424 21.7958 17.1424C22.08 17.1424 22.3525 17.0295 22.5534 16.8286Z" fill="#AAAAAA"/>
<path d="M21.7958 8.57138C21.0098 8.57138 20.4244 8.96565 20.1972 9.39763C20.1467 9.50014 20.0761 9.59151 19.9897 9.66634C19.9033 9.74118 19.8027 9.79797 19.694 9.83338C19.5854 9.86879 19.4707 9.8821 19.3568 9.87252C19.2428 9.86294 19.132 9.83068 19.0307 9.77762C18.9295 9.72456 18.8398 9.65179 18.7671 9.56357C18.6944 9.47536 18.6401 9.3735 18.6073 9.26397C18.5746 9.15445 18.5641 9.03949 18.5764 8.92584C18.5888 8.8122 18.6237 8.70217 18.6792 8.60224C19.2458 7.52143 20.4732 6.85718 21.7958 6.85718C23.5358 6.85718 25.2244 8.06055 25.2244 9.85703C25.2244 11.3544 24.0518 12.4403 22.653 12.76V12.8569C22.653 13.0842 22.5627 13.3022 22.4019 13.4629C22.2412 13.6237 22.0231 13.714 21.7958 13.714C21.5685 13.714 21.3505 13.6237 21.1897 13.4629C21.029 13.3022 20.9387 13.0842 20.9387 12.8569V11.9998C20.9387 11.7725 21.029 11.5545 21.1897 11.3937C21.3505 11.233 21.5685 11.1427 21.7958 11.1427C22.8955 11.1427 23.5101 10.427 23.5101 9.85703C23.5101 9.28706 22.8955 8.57138 21.7958 8.57138Z" fill="#AAAAAA"/>
</svg>
