<svg width="18" height="14" viewBox="0 0 18 14" fill="none" xmlns="http://www.w3.org/2000/svg">
<path d="M14.1504 11.3008H5.12695C2.72754 11.3008 0.868164 9.48926 0.868164 7.14453C0.868164 4.7793 2.75488 2.98828 5.28418 2.98828C6.21387 1.15625 7.90234 0.0898438 10.0146 0.0898438C12.749 0.0898438 15.0186 2.14746 15.3193 4.90234C16.748 5.33984 17.6846 6.55664 17.6846 8.04004C17.6846 9.94727 16.249 11.3008 14.1504 11.3008Z" fill="#34C7A4"/>
<path d="M8.34473 9.60156C8.54639 9.60156 8.70361 9.52295 8.81299 9.35889L12.0122 4.40967C12.0942 4.28662 12.125 4.17725 12.125 4.07129C12.125 3.80127 11.9268 3.60645 11.6499 3.60645C11.4585 3.60645 11.3423 3.6748 11.2261 3.85938L8.33105 8.44629L6.84766 6.56641C6.73486 6.42627 6.61865 6.36475 6.45117 6.36475C6.1709 6.36475 5.96924 6.56299 5.96924 6.83643C5.96924 6.95605 6.01025 7.06885 6.10938 7.18848L7.87988 9.36914C8.00977 9.52979 8.15332 9.60156 8.34473 9.60156Z" fill="white"/>
</svg>
