<?xml version="1.0" ?><svg id="Layer_1" style="enable-background:new 0 0 100 100;" version="1.1" viewBox="0 0 100 100" xml:space="preserve" xmlns="http://www.w3.org/2000/svg" xmlns:xlink="http://www.w3.org/1999/xlink"><style type="text/css">
	.st0{fill:url(#Background_13_);}
	.st1{fill:url(#path-2_7_);}
	.st2{filter:url(#Adobe_OpacityMaskFilter);}
	.st3{fill:#FFFFFF;}
	.st4{mask:url(#mask-3_1_);fill:#FFFFFF;}
	.st5{fill:url(#SVGID_1_);}
	.st6{fill:#1E1E1F;}
	.st7{fill:url(#Oval_6_);}
	.st8{stroke:#000000;stroke-width:0.3;}
	.st9{fill:#2B2A2A;}
	.st10{fill:#FF9500;}
	.st11{fill:url(#Background_14_);}
	.st12{fill:url(#path-2_8_);}
	.st13{filter:url(#Adobe_OpacityMaskFilter_1_);}
	.st14{mask:url(#mask-3_2_);}
	.st15{fill:#FFFFFF;fill-opacity:0.7;}
	.st16{fill:url(#Background_15_);}
	.st17{fill:url(#Background_16_);}
	.st18{fill:url(#Background_17_);}
	.st19{filter:url(#Adobe_OpacityMaskFilter_2_);}
	.st20{mask:url(#mask-2_6_);fill-opacity:0.29;}
	.st21{filter:url(#Adobe_OpacityMaskFilter_3_);}
	.st22{mask:url(#mask-2_5_);}
	.st23{fill:url(#path-4_2_);}
	.st24{filter:url(#Adobe_OpacityMaskFilter_4_);}
	.st25{mask:url(#mask-2_4_);}
	.st26{fill:#AAAAAA;}
	.st27{fill:url(#Background_18_);}
	.st28{fill:#141416;}
	.st29{filter:url(#Adobe_OpacityMaskFilter_5_);}
	.st30{mask:url(#mask-2_3_);fill:url(#Chart_1_);stroke:#FFFFFF;stroke-width:0.75;}
	.st31{filter:url(#Adobe_OpacityMaskFilter_6_);}
	.st32{mask:url(#mask-2_2_);}
	.st33{fill:#01A6F1;}
	.st34{filter:url(#Adobe_OpacityMaskFilter_7_);}
	.st35{mask:url(#mask-2_1_);fill:#777778;}
	.st36{fill:url(#Background_19_);}
	.st37{fill:#2E2E30;}
	.st38{fill:#7F7F7F;}
	.st39{fill:#777777;}
	.st40{fill:none;}
	.st41{fill:url(#SVGID_2_);}
	.st42{fill:url(#Oval_7_);}
	.st43{filter:url(#Adobe_OpacityMaskFilter_8_);}
	.st44{mask:url(#mask-3_3_);fill:#FF1414;}
	.st45{filter:url(#Adobe_OpacityMaskFilter_9_);}
	.st46{mask:url(#mask-2_8_);}
	.st47{fill:#1BADF8;}
	.st48{fill:#63DA38;}
	.st49{filter:url(#Adobe_OpacityMaskFilter_10_);}
	.st50{mask:url(#mask-2_7_);}
	.st51{fill:#B7B7B7;}
	.st52{filter:url(#Adobe_OpacityMaskFilter_11_);}
	.st53{mask:url(#mask-2_24_);fill:url(#Red_1_);}
	.st54{filter:url(#Adobe_OpacityMaskFilter_12_);}
	.st55{mask:url(#mask-2_23_);fill:url(#Orange_1_);}
	.st56{filter:url(#Adobe_OpacityMaskFilter_13_);}
	.st57{mask:url(#mask-2_22_);fill:url(#Yellow_1_);}
	.st58{filter:url(#Adobe_OpacityMaskFilter_14_);}
	.st59{mask:url(#mask-2_21_);fill:url(#Green_1_);}
	.st60{filter:url(#Adobe_OpacityMaskFilter_15_);}
	.st61{mask:url(#mask-2_20_);fill:url(#Turquoise_1_);}
	.st62{filter:url(#Adobe_OpacityMaskFilter_16_);}
	.st63{mask:url(#mask-2_19_);fill:url(#Blue_1_);}
	.st64{filter:url(#Adobe_OpacityMaskFilter_17_);}
	.st65{mask:url(#mask-2_18_);fill:url(#Purple_1_);}
	.st66{filter:url(#Adobe_OpacityMaskFilter_18_);}
	.st67{mask:url(#mask-2_17_);fill:url(#Pink_1_);}
	.st68{fill:url(#Background_20_);}
	.st69{fill:#353535;}
	.st70{fill:url(#SVGID_3_);}
</style><g id="Symbols_8_"><g id="Graphics-_x2F_-App-Icons-_x2F_-Settings-"><g id="Settings-Icon"><linearGradient gradientTransform="matrix(60 0 0 -60 11151 37581)" gradientUnits="userSpaceOnUse" id="Background_13_" x1="-185.0169" x2="-185.0169" y1="626.2662" y2="624.7667"><stop offset="0" style="stop-color:#D3D7DD"/><stop offset="1" style="stop-color:#888C90"/></linearGradient><path class="st0" d="M63.6,5c9,0,13.5,0,18.4,1.5c5.3,1.9,9.5,6.1,11.4,11.4C95,22.8,95,27.4,95,36.4v27.2     c0,9,0,13.5-1.5,18.4c-1.9,5.3-6.1,9.5-11.4,11.4C77.1,95,72.6,95,63.6,95H36.4c-9,0-13.5,0-18.4-1.5C12.6,91.5,8.5,87.4,6.5,82     C5,77.2,5,72.7,5,63.6V36.4c0-9,0-13.5,1.5-18.4C8.5,12.7,12.6,8.5,18,6.6C22.8,5,27.3,5,36.4,5H63.6z" id="Background_9_"/><circle class="st37" cx="50" cy="50" id="Oval_3_" r="39"/><g id="Shape_3_" transform="translate(30.000000, 30.000000) rotate(8.000000) translate(-30.000000, -30.000000) "><g><path d="M52.3,26.1c0.1,0,0.2,0,0.3,0c0.2,0,0.5,0,0.7,0l0.7-2.8c0.2-0.9,0.4-0.8,0.5,0l0.3,2.8l0,0       c0.3,0,0.7,0.1,1,0.1l0,0l1-2.7c0.3-0.8,0.5-0.8,0.5,0.1l-0.1,2.8c0.3,0.1,0.7,0.2,1,0.2l1.3-2.5c0.4-0.8,0.6-0.7,0.5,0.2       l-0.4,2.8l0,0c0.3,0.1,0.7,0.2,1,0.4l0,0l1.5-2.4c0.5-0.7,0.7-0.6,0.5,0.2l-0.7,2.8c0.3,0.2,0.6,0.3,0.9,0.5l1.8-2.2       c0.6-0.7,0.8-0.6,0.5,0.3l-1,2.6l0,0c0.3,0.2,0.6,0.4,0.8,0.6l0,0l2.1-1.9c0.6-0.6,0.8-0.5,0.4,0.3L66,31       c0.3,0.2,0.5,0.4,0.8,0.7l2.3-1.6c0.7-0.5,0.9-0.4,0.4,0.4l-1.6,2.3l0,0c0.2,0.2,0.5,0.5,0.7,0.8l0,0l2.5-1.4       c0.8-0.4,0.9-0.2,0.3,0.4l-1.9,2.1c0.2,0.3,0.4,0.6,0.6,0.9l2.6-1.1c0.8-0.3,0.9-0.1,0.3,0.4l-2.1,1.9l0,0       c0.2,0.3,0.3,0.6,0.5,0.9l2.7-0.8c0.8-0.2,1,0,0.2,0.5l-2.3,1.6c0.1,0.3,0.3,0.6,0.4,1l2.7-0.4c0.9-0.1,0.9,0.1,0.2,0.5       l-2.4,1.3l0,0c0.1,0.3,0.2,0.7,0.3,1l0,0l2.8-0.1c0.9,0,0.9,0.2,0.1,0.5l-2.6,1c0.1,0.3,0.1,0.7,0.1,1l2.7,0.3       c0.9,0.1,0.9,0.3,0,0.5l-2.7,0.7l0,0c0,0.3,0,0.7,0,1c0,0,0,0,0,0.1l0,0l2.7,0.5c0.9,0.2,0.9,0.4,0,0.5l-2.7,0.4       c0,0.4-0.1,0.7-0.1,1.1l2.6,0.9c0.8,0.3,0.8,0.5-0.1,0.5l-2.7,0c-0.1,0.3-0.1,0.7-0.2,1l0,0l2.5,1.2c0.8,0.4,0.7,0.6-0.1,0.5       l-2.7-0.3c-0.1,0.3-0.2,0.7-0.3,1l2.3,1.5c0.7,0.5,0.7,0.7-0.2,0.5l-2.6-0.6l0,0c-0.2,0.3-0.3,0.7-0.5,1l0,0l2.1,1.7       c0.7,0.5,0.6,0.8-0.3,0.5L70.6,58c-0.2,0.3-0.4,0.6-0.6,0.9l1.9,1.9c0.6,0.6,0.5,0.8-0.3,0.4l-2.4-1.2l0,0       c-0.2,0.3-0.4,0.6-0.7,0.8l1.7,2.1c0.5,0.7,0.4,0.9-0.4,0.4l-2.3-1.5c-0.3,0.3-0.5,0.5-0.8,0.7l1.4,2.3       c0.5,0.8,0.3,0.9-0.4,0.3l-2.1-1.7l0,0c-0.3,0.2-0.6,0.4-0.9,0.6l1.1,2.5c0.4,0.8,0.2,0.9-0.4,0.3l-1.8-2       c-0.3,0.2-0.6,0.4-1,0.6l0.8,2.6c0.3,0.8,0.1,0.9-0.5,0.2l-1.6-2.2l0,0c-0.3,0.1-0.7,0.3-1,0.4l0,0l0.5,2.6       c0.2,0.9-0.1,0.9-0.5,0.2L59,67.1c-0.3,0.1-0.7,0.2-1,0.3l0.2,2.7c0.1,0.9-0.2,0.9-0.5,0.1l-1.1-2.5l0,0       c-0.3,0.1-0.7,0.1-1.1,0.2l0,0l-0.2,2.7c0,0.9-0.3,0.9-0.5,0.1L54.2,68c-0.4,0-0.7,0-1.1,0.1l-0.5,2.7c-0.2,0.9-0.4,0.9-0.5,0       l-0.4-2.7l0,0c-0.4,0-0.7,0-1.1-0.1l0,0l-0.8,2.6c-0.2,0.8-0.5,0.8-0.5-0.1l-0.1-2.7c-0.4-0.1-0.7-0.1-1-0.2L47,70.1       c-0.3,0.8-0.6,0.8-0.5-0.1l0.2-2.7c-0.3-0.1-0.7-0.2-1-0.3l0,0l-1.4,2.4c-0.4,0.8-0.7,0.7-0.5-0.2l0.5-2.7       c-0.3-0.1-0.6-0.3-1-0.4l-1.7,2.2c-0.5,0.7-0.7,0.6-0.5-0.2l0.9-2.6l0,0c-0.3-0.2-0.6-0.4-0.9-0.5l0,0l-1.9,2       c-0.6,0.6-0.8,0.5-0.4-0.3l1.2-2.5c-0.3-0.2-0.6-0.4-0.8-0.7L37.1,65c-0.7,0.6-0.9,0.4-0.4-0.3l1.4-2.4l0,0       c-0.3-0.2-0.5-0.5-0.7-0.7l0,0l-2.3,1.5c-0.7,0.5-0.9,0.3-0.4-0.4l1.7-2.2c-0.2-0.3-0.4-0.5-0.6-0.8l-2.5,1.2       c-0.8,0.4-0.9,0.2-0.3-0.4l2-2l0,0c-0.2-0.3-0.4-0.6-0.5-0.9l-2.6,0.9c-0.8,0.3-0.9,0.1-0.2-0.5l2.2-1.7       c-0.2-0.3-0.3-0.6-0.4-0.9L30.6,56c-0.9,0.2-1,0-0.2-0.5l2.4-1.4l0,0c-0.1-0.3-0.2-0.7-0.3-1l0,0l-2.8,0.3       c-0.9,0.1-0.9-0.1-0.1-0.5l2.5-1.2c-0.1-0.3-0.1-0.7-0.2-1l-2.8-0.1c-0.9,0-0.9-0.3-0.1-0.5l2.7-0.9l0,0c0-0.3-0.1-0.7-0.1-1       l0,0l-2.8-0.4c-0.9-0.1-0.9-0.4,0-0.5l2.8-0.5c0-0.3,0-0.7,0-1l-2.7-0.7c-0.8-0.2-0.8-0.5,0.1-0.5l2.8-0.2l0,0       c0-0.3,0.1-0.7,0.2-1l0,0l-2.6-1c-0.8-0.3-0.8-0.5,0.1-0.5l2.8,0.1c0.1-0.3,0.2-0.7,0.3-1l-2.5-1.3c-0.8-0.4-0.7-0.6,0.2-0.5       l2.8,0.5l0,0c0.1-0.3,0.3-0.6,0.4-0.9l0,0l-2.3-1.6c-0.7-0.5-0.6-0.7,0.2-0.5l2.7,0.8c0.2-0.3,0.3-0.6,0.5-0.9l-2.1-1.9       c-0.7-0.6-0.5-0.8,0.3-0.4l2.6,1.1l0,0c0.2-0.3,0.4-0.5,0.6-0.8l0,0l-1.9-2.2c-0.6-0.7-0.4-0.8,0.3-0.4l2.5,1.4       c0.2-0.3,0.5-0.5,0.7-0.8L36,30c-0.5-0.7-0.3-0.9,0.4-0.4l2.3,1.7l0,0c0.2-0.2,0.5-0.4,0.8-0.6l-1.3-2.5       c-0.4-0.8-0.2-0.9,0.4-0.3l2.1,2c0.3-0.2,0.6-0.4,0.8-0.6l-1-2.7c-0.3-0.8-0.1-0.9,0.5-0.3l1.8,2.2l0,0       c0.3-0.2,0.6-0.3,0.9-0.4l0,0L43,25.3c-0.2-0.9,0-1,0.5-0.2l1.5,2.4c0.3-0.1,0.6-0.2,0.9-0.3l-0.3-2.8       c-0.1-0.9,0.1-0.9,0.5-0.1l1.2,2.6l0,0c0.3-0.1,0.7-0.2,1-0.2l0,0l0-2.9c0-0.9,0.2-0.9,0.5-0.1l1,2.7c0.3,0,0.7-0.1,1-0.1       l0.3-2.8c0.1-0.9,0.3-0.9,0.5,0L52.3,26.1L52.3,26.1z M52.6,64.3c9.5,0,17.2-7.7,17.2-17.2s-7.7-17.2-17.2-17.2       S35.3,37.5,35.3,47S43.1,64.3,52.6,64.3z" id="path-3_14_"/></g><g><path class="st38" d="M52.3,26.1c0.1,0,0.2,0,0.3,0c0.2,0,0.5,0,0.7,0l0.7-2.8c0.2-0.9,0.4-0.8,0.5,0l0.3,2.8       l0,0c0.3,0,0.7,0.1,1,0.1l0,0l1-2.7c0.3-0.8,0.5-0.8,0.5,0.1l-0.1,2.8c0.3,0.1,0.7,0.2,1,0.2l1.3-2.5c0.4-0.8,0.6-0.7,0.5,0.2       l-0.4,2.8l0,0c0.3,0.1,0.7,0.2,1,0.4l0,0l1.5-2.4c0.5-0.7,0.7-0.6,0.5,0.2l-0.7,2.8c0.3,0.2,0.6,0.3,0.9,0.5l1.8-2.2       c0.6-0.7,0.8-0.6,0.5,0.3l-1,2.6l0,0c0.3,0.2,0.6,0.4,0.8,0.6l0,0l2.1-1.9c0.6-0.6,0.8-0.5,0.4,0.3L66,31       c0.3,0.2,0.5,0.4,0.8,0.7l2.3-1.6c0.7-0.5,0.9-0.4,0.4,0.4l-1.6,2.3l0,0c0.2,0.2,0.5,0.5,0.7,0.8l0,0l2.5-1.4       c0.8-0.4,0.9-0.2,0.3,0.4l-1.9,2.1c0.2,0.3,0.4,0.6,0.6,0.9l2.6-1.1c0.8-0.3,0.9-0.1,0.3,0.4l-2.1,1.9l0,0       c0.2,0.3,0.3,0.6,0.5,0.9l2.7-0.8c0.8-0.2,1,0,0.2,0.5l-2.3,1.6c0.1,0.3,0.3,0.6,0.4,1l2.7-0.4c0.9-0.1,0.9,0.1,0.2,0.5       l-2.4,1.3l0,0c0.1,0.3,0.2,0.7,0.3,1l0,0l2.8-0.1c0.9,0,0.9,0.2,0.1,0.5l-2.6,1c0.1,0.3,0.1,0.7,0.1,1l2.7,0.3       c0.9,0.1,0.9,0.3,0,0.5l-2.7,0.7l0,0c0,0.3,0,0.7,0,1c0,0,0,0,0,0.1l0,0l2.7,0.5c0.9,0.2,0.9,0.4,0,0.5l-2.7,0.4       c0,0.4-0.1,0.7-0.1,1.1l2.6,0.9c0.8,0.3,0.8,0.5-0.1,0.5l-2.7,0c-0.1,0.3-0.1,0.7-0.2,1l0,0l2.5,1.2c0.8,0.4,0.7,0.6-0.1,0.5       l-2.7-0.3c-0.1,0.3-0.2,0.7-0.3,1l2.3,1.5c0.7,0.5,0.7,0.7-0.2,0.5l-2.6-0.6l0,0c-0.2,0.3-0.3,0.7-0.5,1l0,0l2.1,1.7       c0.7,0.5,0.6,0.8-0.3,0.5L70.6,58c-0.2,0.3-0.4,0.6-0.6,0.9l1.9,1.9c0.6,0.6,0.5,0.8-0.3,0.4l-2.4-1.2l0,0       c-0.2,0.3-0.4,0.6-0.7,0.8l1.7,2.1c0.5,0.7,0.4,0.9-0.4,0.4l-2.3-1.5c-0.3,0.3-0.5,0.5-0.8,0.7l1.4,2.3       c0.5,0.8,0.3,0.9-0.4,0.3l-2.1-1.7l0,0c-0.3,0.2-0.6,0.4-0.9,0.6l1.1,2.5c0.4,0.8,0.2,0.9-0.4,0.3l-1.8-2       c-0.3,0.2-0.6,0.4-1,0.6l0.8,2.6c0.3,0.8,0.1,0.9-0.5,0.2l-1.6-2.2l0,0c-0.3,0.1-0.7,0.3-1,0.4l0,0l0.5,2.6       c0.2,0.9-0.1,0.9-0.5,0.2L59,67.1c-0.3,0.1-0.7,0.2-1,0.3l0.2,2.7c0.1,0.9-0.2,0.9-0.5,0.1l-1.1-2.5l0,0       c-0.3,0.1-0.7,0.1-1.1,0.2l0,0l-0.2,2.7c0,0.9-0.3,0.9-0.5,0.1L54.2,68c-0.4,0-0.7,0-1.1,0.1l-0.5,2.7c-0.2,0.9-0.4,0.9-0.5,0       l-0.4-2.7l0,0c-0.4,0-0.7,0-1.1-0.1l0,0l-0.8,2.6c-0.2,0.8-0.5,0.8-0.5-0.1l-0.1-2.7c-0.4-0.1-0.7-0.1-1-0.2L47,70.1       c-0.3,0.8-0.6,0.8-0.5-0.1l0.2-2.7c-0.3-0.1-0.7-0.2-1-0.3l0,0l-1.4,2.4c-0.4,0.8-0.7,0.7-0.5-0.2l0.5-2.7       c-0.3-0.1-0.6-0.3-1-0.4l-1.7,2.2c-0.5,0.7-0.7,0.6-0.5-0.2l0.9-2.6l0,0c-0.3-0.2-0.6-0.4-0.9-0.5l0,0l-1.9,2       c-0.6,0.6-0.8,0.5-0.4-0.3l1.2-2.5c-0.3-0.2-0.6-0.4-0.8-0.7L37.1,65c-0.7,0.6-0.9,0.4-0.4-0.3l1.4-2.4l0,0       c-0.3-0.2-0.5-0.5-0.7-0.7l0,0l-2.3,1.5c-0.7,0.5-0.9,0.3-0.4-0.4l1.7-2.2c-0.2-0.3-0.4-0.5-0.6-0.8l-2.5,1.2       c-0.8,0.4-0.9,0.2-0.3-0.4l2-2l0,0c-0.2-0.3-0.4-0.6-0.5-0.9l-2.6,0.9c-0.8,0.3-0.9,0.1-0.2-0.5l2.2-1.7       c-0.2-0.3-0.3-0.6-0.4-0.9L30.6,56c-0.9,0.2-1,0-0.2-0.5l2.4-1.4l0,0c-0.1-0.3-0.2-0.7-0.3-1l0,0l-2.8,0.3       c-0.9,0.1-0.9-0.1-0.1-0.5l2.5-1.2c-0.1-0.3-0.1-0.7-0.2-1l-2.8-0.1c-0.9,0-0.9-0.3-0.1-0.5l2.7-0.9l0,0c0-0.3-0.1-0.7-0.1-1       l0,0l-2.8-0.4c-0.9-0.1-0.9-0.4,0-0.5l2.8-0.5c0-0.3,0-0.7,0-1l-2.7-0.7c-0.8-0.2-0.8-0.5,0.1-0.5l2.8-0.2l0,0       c0-0.3,0.1-0.7,0.2-1l0,0l-2.6-1c-0.8-0.3-0.8-0.5,0.1-0.5l2.8,0.1c0.1-0.3,0.2-0.7,0.3-1l-2.5-1.3c-0.8-0.4-0.7-0.6,0.2-0.5       l2.8,0.5l0,0c0.1-0.3,0.3-0.6,0.4-0.9l0,0l-2.3-1.6c-0.7-0.5-0.6-0.7,0.2-0.5l2.7,0.8c0.2-0.3,0.3-0.6,0.5-0.9l-2.1-1.9       c-0.7-0.6-0.5-0.8,0.3-0.4l2.6,1.1l0,0c0.2-0.3,0.4-0.5,0.6-0.8l0,0l-1.9-2.2c-0.6-0.7-0.4-0.8,0.3-0.4l2.5,1.4       c0.2-0.3,0.5-0.5,0.7-0.8L36,30c-0.5-0.7-0.3-0.9,0.4-0.4l2.3,1.7l0,0c0.2-0.2,0.5-0.4,0.8-0.6l-1.3-2.5       c-0.4-0.8-0.2-0.9,0.4-0.3l2.1,2c0.3-0.2,0.6-0.4,0.8-0.6l-1-2.7c-0.3-0.8-0.1-0.9,0.5-0.3l1.8,2.2l0,0       c0.3-0.2,0.6-0.3,0.9-0.4l0,0L43,25.3c-0.2-0.9,0-1,0.5-0.2l1.5,2.4c0.3-0.1,0.6-0.2,0.9-0.3l-0.3-2.8       c-0.1-0.9,0.1-0.9,0.5-0.1l1.2,2.6l0,0c0.3-0.1,0.7-0.2,1-0.2l0,0l0-2.9c0-0.9,0.2-0.9,0.5-0.1l1,2.7c0.3,0,0.7-0.1,1-0.1       l0.3-2.8c0.1-0.9,0.3-0.9,0.5,0L52.3,26.1L52.3,26.1z M52.6,64.3c9.5,0,17.2-7.7,17.2-17.2s-7.7-17.2-17.2-17.2       S35.3,37.5,35.3,47S43.1,64.3,52.6,64.3z" id="path-3_4_"/></g><g><path class="st39" d="M52.3,26.1c0.1,0,0.2,0,0.3,0c0.2,0,0.5,0,0.7,0l0.7-2.8c0.2-0.9,0.4-0.8,0.5,0l0.3,2.8       l0,0c0.3,0,0.7,0.1,1,0.1l0,0l1-2.7c0.3-0.8,0.5-0.8,0.5,0.1l-0.1,2.8c0.3,0.1,0.7,0.2,1,0.2l1.3-2.5c0.4-0.8,0.6-0.7,0.5,0.2       l-0.4,2.8l0,0c0.3,0.1,0.7,0.2,1,0.4l0,0l1.5-2.4c0.5-0.7,0.7-0.6,0.5,0.2l-0.7,2.8c0.3,0.2,0.6,0.3,0.9,0.5l1.8-2.2       c0.6-0.7,0.8-0.6,0.5,0.3l-1,2.6l0,0c0.3,0.2,0.6,0.4,0.8,0.6l0,0l2.1-1.9c0.6-0.6,0.8-0.5,0.4,0.3L66,31       c0.3,0.2,0.5,0.4,0.8,0.7l2.3-1.6c0.7-0.5,0.9-0.4,0.4,0.4l-1.6,2.3l0,0c0.2,0.2,0.5,0.5,0.7,0.8l0,0l2.5-1.4       c0.8-0.4,0.9-0.2,0.3,0.4l-1.9,2.1c0.2,0.3,0.4,0.6,0.6,0.9l2.6-1.1c0.8-0.3,0.9-0.1,0.3,0.4l-2.1,1.9l0,0       c0.2,0.3,0.3,0.6,0.5,0.9l2.7-0.8c0.8-0.2,1,0,0.2,0.5l-2.3,1.6c0.1,0.3,0.3,0.6,0.4,1l2.7-0.4c0.9-0.1,0.9,0.1,0.2,0.5       l-2.4,1.3l0,0c0.1,0.3,0.2,0.7,0.3,1l0,0l2.8-0.1c0.9,0,0.9,0.2,0.1,0.5l-2.6,1c0.1,0.3,0.1,0.7,0.1,1l2.7,0.3       c0.9,0.1,0.9,0.3,0,0.5l-2.7,0.7l0,0c0,0.3,0,0.7,0,1c0,0,0,0,0,0.1l0,0l2.7,0.5c0.9,0.2,0.9,0.4,0,0.5l-2.7,0.4       c0,0.4-0.1,0.7-0.1,1.1l2.6,0.9c0.8,0.3,0.8,0.5-0.1,0.5l-2.7,0c-0.1,0.3-0.1,0.7-0.2,1l0,0l2.5,1.2c0.8,0.4,0.7,0.6-0.1,0.5       l-2.7-0.3c-0.1,0.3-0.2,0.7-0.3,1l2.3,1.5c0.7,0.5,0.7,0.7-0.2,0.5l-2.6-0.6l0,0c-0.2,0.3-0.3,0.7-0.5,1l0,0l2.1,1.7       c0.7,0.5,0.6,0.8-0.3,0.5L70.6,58c-0.2,0.3-0.4,0.6-0.6,0.9l1.9,1.9c0.6,0.6,0.5,0.8-0.3,0.4l-2.4-1.2l0,0       c-0.2,0.3-0.4,0.6-0.7,0.8l1.7,2.1c0.5,0.7,0.4,0.9-0.4,0.4l-2.3-1.5c-0.3,0.3-0.5,0.5-0.8,0.7l1.4,2.3       c0.5,0.8,0.3,0.9-0.4,0.3l-2.1-1.7l0,0c-0.3,0.2-0.6,0.4-0.9,0.6l1.1,2.5c0.4,0.8,0.2,0.9-0.4,0.3l-1.8-2       c-0.3,0.2-0.6,0.4-1,0.6l0.8,2.6c0.3,0.8,0.1,0.9-0.5,0.2l-1.6-2.2l0,0c-0.3,0.1-0.7,0.3-1,0.4l0,0l0.5,2.6       c0.2,0.9-0.1,0.9-0.5,0.2L59,67.1c-0.3,0.1-0.7,0.2-1,0.3l0.2,2.7c0.1,0.9-0.2,0.9-0.5,0.1l-1.1-2.5l0,0       c-0.3,0.1-0.7,0.1-1.1,0.2l0,0l-0.2,2.7c0,0.9-0.3,0.9-0.5,0.1L54.2,68c-0.4,0-0.7,0-1.1,0.1l-0.5,2.7c-0.2,0.9-0.4,0.9-0.5,0       l-0.4-2.7l0,0c-0.4,0-0.7,0-1.1-0.1l0,0l-0.8,2.6c-0.2,0.8-0.5,0.8-0.5-0.1l-0.1-2.7c-0.4-0.1-0.7-0.1-1-0.2L47,70.1       c-0.3,0.8-0.6,0.8-0.5-0.1l0.2-2.7c-0.3-0.1-0.7-0.2-1-0.3l0,0l-1.4,2.4c-0.4,0.8-0.7,0.7-0.5-0.2l0.5-2.7       c-0.3-0.1-0.6-0.3-1-0.4l-1.7,2.2c-0.5,0.7-0.7,0.6-0.5-0.2l0.9-2.6l0,0c-0.3-0.2-0.6-0.4-0.9-0.5l0,0l-1.9,2       c-0.6,0.6-0.8,0.5-0.4-0.3l1.2-2.5c-0.3-0.2-0.6-0.4-0.8-0.7L37.1,65c-0.7,0.6-0.9,0.4-0.4-0.3l1.4-2.4l0,0       c-0.3-0.2-0.5-0.5-0.7-0.7l0,0l-2.3,1.5c-0.7,0.5-0.9,0.3-0.4-0.4l1.7-2.2c-0.2-0.3-0.4-0.5-0.6-0.8l-2.5,1.2       c-0.8,0.4-0.9,0.2-0.3-0.4l2-2l0,0c-0.2-0.3-0.4-0.6-0.5-0.9l-2.6,0.9c-0.8,0.3-0.9,0.1-0.2-0.5l2.2-1.7       c-0.2-0.3-0.3-0.6-0.4-0.9L30.6,56c-0.9,0.2-1,0-0.2-0.5l2.4-1.4l0,0c-0.1-0.3-0.2-0.7-0.3-1l0,0l-2.8,0.3       c-0.9,0.1-0.9-0.1-0.1-0.5l2.5-1.2c-0.1-0.3-0.1-0.7-0.2-1l-2.8-0.1c-0.9,0-0.9-0.3-0.1-0.5l2.7-0.9l0,0c0-0.3-0.1-0.7-0.1-1       l0,0l-2.8-0.4c-0.9-0.1-0.9-0.4,0-0.5l2.8-0.5c0-0.3,0-0.7,0-1l-2.7-0.7c-0.8-0.2-0.8-0.5,0.1-0.5l2.8-0.2l0,0       c0-0.3,0.1-0.7,0.2-1l0,0l-2.6-1c-0.8-0.3-0.8-0.5,0.1-0.5l2.8,0.1c0.1-0.3,0.2-0.7,0.3-1l-2.5-1.3c-0.8-0.4-0.7-0.6,0.2-0.5       l2.8,0.5l0,0c0.1-0.3,0.3-0.6,0.4-0.9l0,0l-2.3-1.6c-0.7-0.5-0.6-0.7,0.2-0.5l2.7,0.8c0.2-0.3,0.3-0.6,0.5-0.9l-2.1-1.9       c-0.7-0.6-0.5-0.8,0.3-0.4l2.6,1.1l0,0c0.2-0.3,0.4-0.5,0.6-0.8l0,0l-1.9-2.2c-0.6-0.7-0.4-0.8,0.3-0.4l2.5,1.4       c0.2-0.3,0.5-0.5,0.7-0.8L36,30c-0.5-0.7-0.3-0.9,0.4-0.4l2.3,1.7l0,0c0.2-0.2,0.5-0.4,0.8-0.6l-1.3-2.5       c-0.4-0.8-0.2-0.9,0.4-0.3l2.1,2c0.3-0.2,0.6-0.4,0.8-0.6l-1-2.7c-0.3-0.8-0.1-0.9,0.5-0.3l1.8,2.2l0,0       c0.3-0.2,0.6-0.3,0.9-0.4l0,0L43,25.3c-0.2-0.9,0-1,0.5-0.2l1.5,2.4c0.3-0.1,0.6-0.2,0.9-0.3l-0.3-2.8       c-0.1-0.9,0.1-0.9,0.5-0.1l1.2,2.6l0,0c0.3-0.1,0.7-0.2,1-0.2l0,0l0-2.9c0-0.9,0.2-0.9,0.5-0.1l1,2.7c0.3,0,0.7-0.1,1-0.1       l0.3-2.8c0.1-0.9,0.3-0.9,0.5,0L52.3,26.1L52.3,26.1z M52.6,64.3c9.5,0,17.2-7.7,17.2-17.2s-7.7-17.2-17.2-17.2       S35.3,37.5,35.3,47S43.1,64.3,52.6,64.3z" id="path-3_15_"/></g></g><g id="Shape_1_"><g><path class="st40" d="M73.4,51.7H54.3c-1.6,0-3.7,1.1-4.5,2.6l-9.8,17c-1.1,1.8-0.2,4,1.9,5c3.1,1.7,11.2,1.6,17.4-0.2       c4.8-1.7,8.9-4.7,12.1-8.5c4.2-5.3,5.5-10.7,5.5-12.3C76.9,53.5,75.5,51.7,73.4,51.7z"/><circle class="st40" cx="50" cy="50" r="1.5"/><linearGradient gradientTransform="matrix(48.1623 0 0 -48.1543 8919.5928 30230.7695)" gradientUnits="userSpaceOnUse" id="SVGID_1_" x1="-184.1609" x2="-184.1609" y1="627.5" y2="626.0005"><stop offset="0" style="stop-color:#D9DADB"/><stop offset="1" style="stop-color:#7D8082"/></linearGradient><path class="st5" d="M85.1,51.8c1.3-0.2,1.3-0.5,0-0.8l-3.7-0.7c0-0.1,0-0.2,0-0.3c0-0.5,0-1,0-1.5l3.6-0.9       c1.3-0.3,1.2-0.7-0.1-0.8l-3.7-0.3c-0.1-0.6-0.1-1.1-0.2-1.7l3.5-1.3c1.2-0.5,1.2-0.8-0.1-0.8l-3.7,0.1       c-0.1-0.6-0.3-1.1-0.4-1.7l3.3-1.7c1.2-0.6,1-0.9-0.2-0.7l-3.7,0.6c-0.2-0.5-0.4-1.1-0.6-1.6l3.1-2.1c1.1-0.8,0.9-1.1-0.3-0.7       l-3.6,1c-0.3-0.5-0.5-1-0.8-1.5l2.8-2.5c1-0.9,0.8-1.2-0.4-0.7l-3.4,1.4c-0.3-0.5-0.7-1-1-1.4l2.5-2.8c0.9-1,0.7-1.2-0.5-0.6       L74,29.6c-0.4-0.4-0.7-0.9-1.1-1.3l2.2-3.1c0.8-1.1,0.5-1.3-0.6-0.6l-3,2.2c-0.4-0.4-0.8-0.8-1.3-1.1l1.8-3.3       c0.6-1.2,0.3-1.4-0.6-0.5l-2.7,2.5c-0.5-0.3-0.9-0.7-1.4-1l1.4-3.5c0.5-1.2,0.2-1.4-0.7-0.4l-2.4,2.8c-0.5-0.3-1-0.5-1.5-0.8       l0.9-3.6c0.3-1.3,0-1.4-0.7-0.3l-2,3.1c-0.5-0.2-1.1-0.4-1.6-0.6l0.5-3.7c0.2-1.3-0.1-1.4-0.7-0.2l-1.7,3.3       c-0.5-0.2-1.1-0.3-1.7-0.4l0.1-3.7c0-1.3-0.3-1.4-0.8-0.1l-1.3,3.5c-0.6-0.1-1.1-0.2-1.7-0.2L52.8,15c-0.1-1.3-0.5-1.3-0.8-0.1       l-0.9,3.6c-0.4,0-0.8,0-1.2,0c-0.2,0-0.4,0-0.5,0l-0.8-3.7c-0.3-1.3-0.6-1.3-0.8,0l-0.4,3.7c-0.6,0-1.1,0.1-1.7,0.2l-1.3-3.5       c-0.4-1.2-0.8-1.2-0.8,0.1l0.1,3.7c-0.6,0.1-1.1,0.2-1.7,0.4l-1.6-3.4c-0.6-1.2-0.9-1.1-0.8,0.2l0.4,3.7       c-0.5,0.2-1.1,0.4-1.6,0.6l-2-3.1c-0.7-1.1-1-1-0.7,0.3l0.9,3.6c-0.5,0.2-1,0.5-1.5,0.8l-2.4-2.9c-0.8-1-1.1-0.8-0.7,0.4       l1.3,3.5c-0.5,0.3-1,0.6-1.4,0.9l-2.7-2.6c-1-0.9-1.2-0.7-0.6,0.5l1.7,3.3c-0.4,0.4-0.9,0.7-1.3,1.1l-3-2.2       c-1.1-0.8-1.3-0.5-0.6,0.5l2.1,3.1c-0.4,0.4-0.8,0.8-1.2,1.3l-3.2-1.9c-1.1-0.7-1.4-0.4-0.5,0.6l2.4,2.8v0       c-0.3,0.4-0.7,0.9-1,1.4l-3.4-1.5c-1.2-0.5-1.4-0.2-0.4,0.7l2.8,2.5c-0.3,0.5-0.6,1-0.8,1.5l-3.6-1c-1.3-0.4-1.4,0-0.3,0.7       l3,2.1c-0.2,0.5-0.5,1-0.7,1.6l-3.7-0.6c-1.3-0.2-1.4,0.1-0.3,0.7l3.3,1.8c-0.2,0.5-0.3,1.1-0.5,1.6l-3.7-0.1       c-1.3,0-1.4,0.3-0.2,0.8l3.5,1.3c-0.1,0.6-0.2,1.1-0.3,1.7L15,46.2c-1.3,0.1-1.3,0.4-0.1,0.8l3.6,1c0,0.6-0.1,1.1-0.1,1.7       l-3.7,0.7c-1.3,0.2-1.3,0.6,0,0.8l3.7,0.5c0,0.6,0.1,1.1,0.1,1.7l-3.6,1.1c-1.3,0.4-1.2,0.7,0.1,0.8l3.7,0.1       c0.1,0.6,0.2,1.1,0.3,1.7l-3.4,1.6c-1.2,0.6-1.1,0.9,0.2,0.8l3.7-0.4c0.2,0.6,0.3,1.1,0.5,1.7l-3.2,1.9c-1.1,0.7-1,1,0.3,0.7       l3.7-0.8c0.2,0.5,0.5,1,0.7,1.6l-2.9,2.3c-1,0.8-0.9,1.1,0.4,0.7l3.5-1.2c0.3,0.5,0.6,1,0.9,1.5L21,69.9       c-0.9,0.9-0.7,1.2,0.4,0.6l3.4-1.6c0.3,0.5,0.7,0.9,1.1,1.3l-2.3,2.9c-0.8,1-0.6,1.3,0.5,0.6l3.1-2c0.4,0.4,0.8,0.8,1.2,1.2       l-1.9,3.2c-0.7,1.1-0.4,1.3,0.6,0.5l2.9-2.4c0.4,0.4,0.9,0.7,1.4,1.1l-1.6,3.4c-0.6,1.2-0.3,1.4,0.6,0.4l2.6-2.7       c0.5,0.3,1,0.6,1.5,0.9l-1.2,3.5c-0.4,1.2-0.1,1.4,0.7,0.4l2.3-3c0.5,0.2,1,0.5,1.6,0.7l-0.7,3.7c-0.3,1.3,0.1,1.4,0.7,0.3       l1.9-3.2c0.5,0.2,1.1,0.4,1.6,0.5L41,84c-0.1,1.3,0.2,1.4,0.8,0.2l1.5-3.4c0.6,0.1,1.1,0.2,1.7,0.3l0.2,3.7       c0.1,1.3,0.4,1.3,0.8,0.1l1-3.6c0.6,0.1,1.2,0.1,1.7,0.1l0.6,3.7c0.2,1.3,0.5,1.3,0.8,0l0.7-3.7c0.6,0,1.1,0,1.7-0.1l1,3.6       c0.4,1.3,0.7,1.2,0.8-0.1l0.2-3.7c0.6-0.1,1.1-0.2,1.7-0.3l1.4,3.4c0.5,1.2,0.8,1.1,0.8-0.2L58,80.5c0.6-0.1,1.1-0.3,1.6-0.5       l1.9,3.2c0.7,1.1,1,1,0.7-0.3l-0.7-3.7c0.5-0.2,1.1-0.4,1.6-0.7l2.2,3c0.8,1.1,1.1,0.9,0.7-0.4L65,77.7c0.5-0.3,1-0.6,1.5-0.9       l2.5,2.7c0.9,1,1.2,0.8,0.7-0.4l-1.5-3.4c0.5-0.3,0.9-0.7,1.4-1l2.9,2.4c1,0.8,1.3,0.6,0.6-0.5l-1.9-3.2       c0.4-0.4,0.8-0.8,1.2-1.2l3.1,2c1.1,0.7,1.3,0.5,0.5-0.6l-2.3-2.9c0.4-0.4,0.7-0.9,1.1-1.3l3.4,1.7c1.2,0.6,1.4,0.3,0.5-0.6       L76,67.8c0.3-0.5,0.6-0.9,0.9-1.4l3.5,1.2c1.2,0.4,1.4,0.1,0.4-0.7l-2.9-2.3c0.3-0.5,0.5-1,0.8-1.6l3.6,0.8       c1.3,0.3,1.4,0,0.3-0.7l-3.2-2c0.2-0.5,0.4-1.1,0.6-1.6l3.7,0.4c1.3,0.1,1.4-0.2,0.2-0.8l-3.4-1.6c0.1-0.6,0.3-1.1,0.4-1.7       l3.7-0.1c1.3,0,1.4-0.4,0.1-0.8L81.2,54c0.1-0.6,0.1-1.1,0.2-1.7L85.1,51.8z M36.9,69.4c-1,1.8-3.6,2-5.2,1.1       c-1.1-0.6-3.7-3.1-6.1-7c-2.2-4-3.4-8.5-3.4-13.4c0-8.2,3.5-15.5,9.2-20.6c1.8-1,4.3-0.8,5.3,0.9l9.9,17       c0.8,1.4,0.8,4.1-0.1,5.5L36.9,69.4z M71.4,67.6c-3.2,3.8-7.3,6.8-12.1,8.5C53.1,77.9,45,78,41.9,76.3c-2.1-1-2.9-3.2-1.9-5       l9.8-17c0.8-1.4,2.9-2.6,4.5-2.6h19.1c2.1,0,3.5,1.8,3.5,3.6C76.9,56.9,75.6,62.4,71.4,67.6z M48.5,50c0-0.8,0.7-1.5,1.5-1.5       c0.8,0,1.5,0.7,1.5,1.5c0,0.8-0.7,1.5-1.5,1.5C49.2,51.5,48.5,50.8,48.5,50z M73.8,48.2l-20,0c-1.7-0.1-3.7-1.5-4.5-3       l-9.5-16.5c-1-1.8,0.1-3.8,1.7-4.7c1.1-0.6,4.6-1.7,9.2-1.7c13.1,0.3,23.9,9.8,26.4,22.2C77.4,46.6,75.6,48.2,73.8,48.2z"/></g></g></g></g></g></svg>