<svg width="64" height="28" viewBox="0 0 64 28" fill="none" xmlns="http://www.w3.org/2000/svg">
<g clip-path="url(#clip0_348_25124)">
<path fill-rule="evenodd" clip-rule="evenodd" d="M14.8424 3.6001H45.3458C46.1721 3.6001 46.945 4.00836 47.4108 4.69083L49.2465 7.38062L50.1312 6.01606L48.6497 3.84528C47.9045 2.75331 46.6679 2.1001 45.3458 2.1001H14.8424C13.6311 2.1001 12.485 2.64899 11.7258 3.59277L4.89808 12.0796C3.58415 13.7128 3.75389 16.0834 5.28711 17.5127L11.7744 23.5605C12.5148 24.2508 13.4896 24.6347 14.5019 24.6347H38.0592L39.0318 23.1347H14.5019C13.8692 23.1347 13.26 22.8948 12.7972 22.4633L6.30996 16.4156C5.35169 15.5222 5.24561 14.0406 6.06681 13.0199L12.8945 4.53302C13.369 3.94315 14.0853 3.6001 14.8424 3.6001Z" fill="#616161"/>
<path fill-rule="evenodd" clip-rule="evenodd" d="M27.7396 13.2413L25.1679 15.4098L25.1031 15.4717C24.8622 15.7327 24.8379 16.148 25.0593 16.4397C25.2991 16.7557 25.7367 16.8069 26.0365 16.5541L28.3832 14.5744L28.3832 19.6456L28.3874 19.7289C28.4477 20.3254 29.1511 20.6053 29.5701 20.1638L32.2813 17.3064L33.489 18.3873C33.8039 18.6692 34.2711 18.6284 34.5324 18.2962C34.7938 17.9639 34.7503 17.4661 34.4354 17.1842L24.8822 8.63377C24.5673 8.35188 24.1001 8.39266 23.8387 8.72488C23.5774 9.05709 23.6209 9.55492 23.9358 9.83681L27.7396 13.2413ZM29.7751 15.0632V17.8697L31.2151 16.352L29.7751 15.0632ZM28.3832 6.45643L28.3832 9.74745L29.7751 10.9932V8.22223L31.5146 10.0555L30.0795 11.2657L31.1607 12.2335L32.989 10.6923L33.0605 10.6231C33.2359 10.4278 33.2908 10.1508 33.2181 9.89997L33.1835 9.80662L33.1524 9.74529L33.1331 9.71311C33.1082 9.67395 33.0793 9.6367 33.0463 9.60198L29.5701 5.93831L29.5113 5.88254C29.0684 5.50576 28.3832 5.83202 28.3832 6.45643Z" fill="#616161"/>
<path d="M50.234 9.48335C51.0269 8.30859 52.7564 8.30859 53.5494 9.48336L62.8412 23.2493C63.7378 24.5776 62.7861 26.3682 61.1835 26.3682H42.5999C40.9973 26.3682 40.0456 24.5776 40.9422 23.2493L50.234 9.48335Z" fill="#F63F3F"/>
<circle cx="52" cy="22" r="1" fill="white"/>
<rect x="51" y="13" width="2" height="6" rx="1" fill="white"/>
</g>
<defs>
<clipPath id="clip0_348_25124">
<rect width="64" height="28" fill="white"/>
</clipPath>
</defs>
</svg>
