<svg width="28" height="28" viewBox="0 0 28 28" fill="none" xmlns="http://www.w3.org/2000/svg">
<g opacity="0.8">
<path fill-rule="evenodd" clip-rule="evenodd" d="M5.8798 0.000289917H16.3149C17.1171 0.000289917 17.8829 0.334899 18.428 0.923513L24.5498 7.53505C25.0426 8.06737 25.3165 8.76611 25.3165 9.49157V24.9559C25.3165 26.5463 24.0271 27.8356 22.4367 27.8356H5.87981C4.28937 27.8356 3.00006 26.5463 3.00006 24.9559L3.00006 2.88003C3.00006 1.2896 4.28937 0.000289917 5.8798 0.000289917ZM6.00006 3.00029L6.00006 24.8356H22.3165V10.2444L18.2976 10.2444C16.8976 10.2444 15.7628 9.10949 15.7628 7.70955L15.7627 3.00029L6.00006 3.00029ZM18.7628 5.7007V7.24436L20.1921 7.24436L18.7628 5.7007ZM15.1584 12.9992C15.1584 12.4469 14.7107 11.9992 14.1584 11.9992C13.6061 11.9992 13.1584 12.4469 13.1584 12.9992L13.1584 19.1614L10.6192 17.257C10.1774 16.9256 9.55056 17.0152 9.21918 17.457C8.88781 17.8988 8.97736 18.5256 9.41919 18.857L13.5584 21.9614C13.914 22.2281 14.4029 22.2281 14.7584 21.9614L18.8976 18.857C19.3395 18.5256 19.429 17.8988 19.0976 17.457C18.7663 17.0152 18.1395 16.9256 17.6976 17.257L15.1584 19.1615L15.1584 12.9992Z" fill="white"/>
</g>
</svg>
