<svg width="32" height="32" viewBox="0 0 32 32" fill="none" xmlns="http://www.w3.org/2000/svg">
<path d="M21.8628 16.0593C21.9604 16.5185 22.416 16.8182 22.852 16.6444C23.6833 16.3129 24.4156 15.7621 24.9668 15.0438C25.6915 14.0993 26.0555 12.9272 25.9931 11.7383C25.9308 10.5494 25.4464 9.4218 24.6269 8.55823C24.0037 7.90151 23.2178 7.43029 22.3564 7.18749C21.9046 7.06014 21.4829 7.40586 21.4338 7.87273V7.87273C21.3847 8.3396 21.7306 8.74783 22.1696 8.91422C22.6304 9.08887 23.0496 9.3658 23.3937 9.72843C23.9346 10.2984 24.2544 11.0426 24.2955 11.8273C24.3366 12.612 24.0964 13.3855 23.6181 14.0089C23.3137 14.4055 22.9257 14.7248 22.4858 14.9466C22.0666 15.158 21.7652 15.6001 21.8628 16.0593V16.0593Z" fill="white"/>
<path d="M8.00909 4.94929C7.94145 4.46801 7.49459 4.12789 7.02364 4.24795C5.47636 4.6424 4.07529 5.49309 3.00835 6.69904C1.74618 8.12567 1.03446 9.95585 1.00122 11.8604C0.967975 13.7649 1.61539 15.6188 2.827 17.0886C3.8512 18.3311 5.22173 19.2301 6.7543 19.6784C7.22077 19.8148 7.67923 19.4905 7.76362 19.0118V19.0118C7.84802 18.5332 7.52541 18.0827 7.06339 17.9319C5.94278 17.566 4.9425 16.888 4.18506 15.9691C3.24 14.8227 2.73502 13.3766 2.76095 11.8911C2.78688 10.4056 3.34202 8.97802 4.32652 7.86525C5.11556 6.9734 6.1389 6.33065 7.27159 6.00414C7.73859 5.86952 8.07673 5.43057 8.00909 4.94929V4.94929Z" fill="white"/>
<path d="M10.1372 7.94069C10.0396 7.4815 9.58402 7.18175 9.14797 7.35564C8.31665 7.68715 7.58437 8.23793 7.03323 8.95619C6.30849 9.90069 5.94455 11.0728 6.00685 12.2617C6.06916 13.4506 6.55363 14.5782 7.37313 15.4418C7.99633 16.0985 8.78217 16.5697 9.64358 16.8125C10.0954 16.9399 10.5171 16.5941 10.5662 16.1273V16.1273C10.6153 15.6604 10.2694 15.2522 9.83039 15.0858C9.36964 14.9111 8.95038 14.6342 8.60626 14.2716C8.0654 13.7016 7.74564 12.9574 7.70452 12.1727C7.6634 11.388 7.90361 10.6145 8.38193 9.99109C8.68626 9.59448 9.07428 9.27523 9.51424 9.05338C9.93341 8.84202 10.2348 8.39987 10.1372 7.94069V7.94069Z" fill="white"/>
<path d="M23.9909 19.0507C24.0586 19.532 24.5054 19.8721 24.9764 19.752C26.5236 19.3576 27.9247 18.5069 28.9916 17.301C30.2538 15.8743 30.9655 14.0442 30.9988 12.1396C31.032 10.2351 30.3846 8.38118 29.173 6.91137C28.1488 5.66893 26.7783 4.76986 25.2457 4.32165C24.7792 4.18523 24.3208 4.50954 24.2364 4.98817V4.98817C24.152 5.4668 24.4746 5.91728 24.9366 6.06811C26.0572 6.43396 27.0575 7.11203 27.8149 8.03087C28.76 9.17732 29.265 10.6234 29.239 12.1089C29.2131 13.5944 28.658 15.022 27.6735 16.1347C26.8844 17.0266 25.8611 17.6693 24.7284 17.9959C24.2614 18.1305 23.9233 18.5694 23.9909 19.0507V19.0507Z" fill="white"/>
<rect x="14.5" y="18" width="3" height="9" rx="1" fill="white"/>
</svg>
