<svg width="64" height="64" viewBox="0 0 64 64" fill="none" xmlns="http://www.w3.org/2000/svg">
<rect x="55" y="20" width="1" height="24" fill="black"/>
<rect x="38" y="18" width="1" height="31" fill="black"/>
<rect x="41" y="18" width="1" height="31" fill="black"/>
<rect x="45" y="21" width="1" height="12" fill="black"/>
<rect x="52" y="21" width="1" height="12" fill="black"/>
<rect x="46" y="20" width="6" height="1" fill="black"/>
<rect x="46" y="33" width="6" height="1" fill="black"/>
<rect x="40" y="40" width="1" height="4" fill="black"/>
<rect x="39" y="16" width="1" height="2" fill="black"/>
<rect x="40" y="15" width="1" height="1" fill="black"/>
<rect x="41" y="14" width="1" height="1" fill="black"/>
<rect x="42" y="13" width="1" height="1" fill="black"/>
<rect x="43" y="12" width="6" height="1" fill="black"/>
<rect x="46" y="13" width="1" height="1" fill="black"/>
<rect x="45" y="14" width="1" height="1" fill="black"/>
<rect x="44" y="15" width="1" height="1" fill="black"/>
<rect x="43" y="16" width="1" height="1" fill="black"/>
<rect x="42" y="17" width="1" height="1" fill="black"/>
<rect x="49" y="13" width="1" height="1" fill="black"/>
<rect x="50" y="14" width="1" height="1" fill="black"/>
<rect x="51" y="15" width="1" height="1" fill="black"/>
<rect x="52" y="16" width="1" height="1" fill="black"/>
<rect x="53" y="17" width="1" height="1" fill="black"/>
<rect x="54" y="18" width="1" height="2" fill="black"/>
<rect x="35" y="29" width="3" height="6" fill="black"/>
<rect x="34" y="27" width="1" height="10" fill="black"/>
<rect x="33" y="28" width="1" height="8" fill="black"/>
<rect x="32" y="29" width="1" height="6" fill="black"/>
<rect x="31" y="30" width="1" height="4" fill="black"/>
<rect x="30" y="31" width="1" height="2" fill="black"/>
<rect x="46" y="38" width="1" height="4" fill="black"/>
<rect x="52" y="38" width="1" height="4" fill="black"/>
<rect x="49" y="39" width="1" height="2" fill="black"/>
<rect x="47" y="42" width="1" height="1" fill="black"/>
<rect x="51" y="42" width="1" height="1" fill="black"/>
<rect x="48" y="43" width="3" height="1" fill="black"/>
<rect x="48" y="36" width="3" height="1" fill="black"/>
<rect x="47" y="37" width="1" height="1" fill="black"/>
<rect x="51" y="37" width="1" height="1" fill="black"/>
<rect x="45" y="36" width="1" height="1" fill="black"/>
<rect x="46" y="45" width="1" height="1" fill="black"/>
<rect x="45" y="46" width="1" height="1" fill="black"/>
<rect x="47" y="46" width="1" height="1" fill="black"/>
<rect x="46" y="47" width="1" height="1" fill="black"/>
<rect x="42" y="49" width="1" height="1" fill="black"/>
<rect x="39" y="49" width="1" height="1" fill="black"/>
<rect x="40" y="50" width="10" height="1" fill="black"/>
<rect x="54" y="44" width="1" height="2" fill="black"/>
<rect x="53" y="46" width="1" height="1" fill="black"/>
<rect x="52" y="47" width="1" height="1" fill="black"/>
<rect x="51" y="48" width="1" height="1" fill="black"/>
<rect x="50" y="49" width="1" height="1" fill="black"/>
<rect x="10" y="15" width="14" height="1" fill="black"/>
<rect x="9" y="16" width="3" height="1" fill="black"/>
<rect x="9" y="17" width="2" height="31" fill="black"/>
<rect x="25" y="23" width="2" height="20" fill="black"/>
<rect x="13" y="23" width="2" height="19" fill="black"/>
<rect x="15" y="37" width="2" height="7" fill="black"/>
<rect x="17" y="38" width="6" height="6" fill="black"/>
<rect x="23" y="37" width="2" height="7" fill="black"/>
<rect x="24" y="36" width="1" height="1" fill="black"/>
<rect x="15" y="36" width="1" height="1" fill="black"/>
<rect x="13" y="43" width="1" height="2" fill="black"/>
<rect x="22" y="45" width="1" height="1" fill="black"/>
<rect x="12" y="45" width="1" height="1" fill="black"/>
<rect x="15" y="45" width="1" height="1" fill="black"/>
<rect x="23" y="47" width="1" height="1" fill="black"/>
<rect x="24" y="46" width="1" height="1" fill="black"/>
<rect x="25" y="45" width="1" height="1" fill="black"/>
<rect x="26" y="43" width="1" height="2" fill="black"/>
<rect x="13" y="18" width="1" height="2" fill="black"/>
<rect x="12" y="17" width="1" height="1" fill="black"/>
<rect x="15" y="17" width="1" height="1" fill="black"/>
<rect x="22" y="17" width="1" height="1" fill="black"/>
<rect x="24" y="16" width="1" height="1" fill="black"/>
<rect x="25" y="17" width="1" height="1" fill="black"/>
<rect x="26" y="18" width="1" height="2" fill="black"/>
<rect x="24" y="23" width="1" height="5" fill="black"/>
<rect x="15" y="23" width="1" height="5" fill="black"/>
<rect x="16" y="23" width="1" height="4" fill="black"/>
<rect x="23" y="23" width="1" height="4" fill="black"/>
<rect x="17" y="23" width="6" height="3" fill="black"/>
<rect x="17" y="27" width="6" height="1" fill="black"/>
<rect x="17" y="36" width="6" height="1" fill="black"/>
<rect x="15" y="29" width="2" height="6" fill="black"/>
<rect x="17" y="30" width="2" height="4" fill="black"/>
<rect x="23" y="29" width="2" height="6" fill="black"/>
<rect x="21" y="30" width="2" height="4" fill="black"/>
<rect x="22" y="35" width="2" height="1" fill="black"/>
<rect x="16" y="35" width="2" height="1" fill="black"/>
<rect x="18" y="34" width="4" height="1" fill="black"/>
<rect x="18" y="29" width="4" height="1" fill="black"/>
<rect x="19" y="30" width="2" height="1" fill="black"/>
<rect x="19" y="33" width="2" height="1" fill="black"/>
<rect x="16" y="28" width="2" height="1" fill="black"/>
<rect x="22" y="28" width="2" height="1" fill="black"/>
<rect x="10" y="48" width="2" height="1" fill="black"/>
<rect x="11" y="46" width="1" height="2" fill="black"/>
<rect x="12" y="47" width="11" height="2" fill="black"/>
<rect x="14" y="42" width="1" height="1" fill="black"/>
<rect x="15" y="19" width="10" height="1" fill="black"/>
<rect x="23" y="21" width="4" height="1" fill="black"/>
<rect x="13" y="21" width="4" height="1" fill="black"/>
<rect x="14" y="20" width="13" height="1" fill="black"/>
<rect x="13" y="22" width="14" height="1" fill="black"/>
<rect x="0.5" y="0.5" width="63" height="63" rx="7.5" stroke="#DFDFDF"/>
</svg>
