<svg width="32" height="32" viewBox="0 0 32 32" fill="none" xmlns="http://www.w3.org/2000/svg">
<g clip-path="url(#clip0_2003_6736)">
<path fill-rule="evenodd" clip-rule="evenodd" d="M5.88889 18C5.88889 12.4158 10.4158 7.88889 16 7.88889C21.2651 7.88889 25.5903 11.9132 26.0674 17.0538C26.3734 17.0183 26.6845 17 27 17C27.6829 17 28.3458 17.0856 28.9785 17.2465C28.5883 10.4175 22.9268 5 16 5C8.8203 5 3 10.8203 3 18C3 25.1797 8.8203 31 16 31C17.7022 31 19.328 30.6728 20.8179 30.078C20.2014 29.3283 19.7186 28.4645 19.406 27.5231C18.3418 27.9038 17.1951 28.1111 16 28.1111C10.4158 28.1111 5.88889 23.5842 5.88889 18Z" fill="white"/>
<path fill-rule="evenodd" clip-rule="evenodd" d="M16.25 12C16.9404 12 17.5 12.5596 17.5 13.25V17.7322L19.6339 19.8661C20.122 20.3543 20.122 21.1457 19.6339 21.6339C19.1457 22.122 18.3543 22.122 17.8661 21.6339L15.3661 19.1339C15.1317 18.8995 15 18.5815 15 18.25V13.25C15 12.5596 15.5596 12 16.25 12Z" fill="white"/>
<path fill-rule="evenodd" clip-rule="evenodd" d="M6.64853 3.35147C7.11716 3.8201 7.11716 4.5799 6.64853 5.04853L3.04853 8.64853C2.5799 9.11716 1.8201 9.11716 1.35147 8.64853C0.882843 8.1799 0.882843 7.4201 1.35147 6.95147L4.95147 3.35147C5.4201 2.88284 6.1799 2.88284 6.64853 3.35147Z" fill="white"/>
<path fill-rule="evenodd" clip-rule="evenodd" d="M25.3515 3.35147C25.8201 2.88284 26.5799 2.88284 27.0485 3.35147L30.6485 6.95147C31.1172 7.4201 31.1172 8.1799 30.6485 8.64853C30.1799 9.11716 29.4201 9.11716 28.9515 8.64853L25.3515 5.04853C24.8828 4.5799 24.8828 3.8201 25.3515 3.35147Z" fill="white"/>
<path fill-rule="evenodd" clip-rule="evenodd" d="M12.4971 2.24261C12.4971 1.57987 13.0343 1.04261 13.6971 1.04261L18.7882 1.04261C19.451 1.04261 19.9882 1.57987 19.9882 2.24261C19.9882 2.90536 19.451 3.44262 18.7882 3.44261L13.6971 3.44261C13.0343 3.44261 12.4971 2.90536 12.4971 2.24261Z" fill="white"/>
<path d="M23 25H31" stroke="white" stroke-width="2" stroke-linecap="round" stroke-linejoin="round"/>
</g>
<defs>
<clipPath id="clip0_2003_6736">
<rect width="32" height="32" fill="white"/>
</clipPath>
</defs>
</svg>
