<svg width="30" height="24" viewBox="0 0 30 24" fill="none" xmlns="http://www.w3.org/2000/svg">
<mask id="path-1-inside-1_1619_116464" fill="white">
<path fill-rule="evenodd" clip-rule="evenodd" d="M16.4646 22.1512C16.5927 22.6291 17.0855 22.9161 17.5517 22.7503C19.4867 22.0619 21.2011 20.8522 22.5009 19.2471C23.9891 17.4092 24.8574 15.1474 24.9811 12.7858C25.1049 10.4242 24.4779 8.084 23.1899 6.10066C22.065 4.36851 20.4864 2.9862 18.6339 2.0993C18.1877 1.88565 17.6675 2.11961 17.4902 2.58152C17.3129 3.04343 17.5461 3.55782 17.989 3.77825C19.4895 4.52494 20.7685 5.66182 21.6872 7.07651C22.7691 8.74252 23.2958 10.7083 23.1919 12.692C23.0879 14.6758 22.3586 16.5757 21.1085 18.1195C20.0469 19.4304 18.6561 20.4274 17.0858 21.0131C16.6222 21.186 16.3366 21.6732 16.4646 22.1512ZM9.69551 15.0769C9.81249 15.5135 10.2664 15.7793 10.673 15.582C11.2384 15.3075 11.7401 14.9112 12.1398 14.4176C12.7122 13.7107 13.0461 12.8408 13.0937 11.9325C13.1413 11.0242 12.9002 10.1241 12.4048 9.36126C12.0589 8.8286 11.6014 8.38196 11.0677 8.04994C10.684 7.8112 10.2048 8.02812 10.0428 8.45005C9.88085 8.87199 10.1036 9.33719 10.4571 9.6189C10.6802 9.79678 10.8748 10.0104 11.0321 10.2527C11.3393 10.7256 11.4888 11.2837 11.4593 11.8468C11.4298 12.41 11.2227 12.9493 10.8678 13.3876C10.686 13.6121 10.4702 13.8042 10.2297 13.9578C9.84874 14.201 9.57854 14.6403 9.69551 15.0769ZM13.9601 18.9743C13.5213 19.1454 13.0513 18.871 12.9294 18.4161C12.8075 17.9611 13.0809 17.499 13.5141 17.3144C14.4183 16.9291 15.2191 16.3273 15.843 15.5568C16.6467 14.5644 17.1155 13.343 17.1824 12.0678C17.2492 10.7925 16.9106 9.52878 16.2151 8.45778C15.6751 7.62633 14.9416 6.94415 14.0827 6.46646C13.671 6.23754 13.4475 5.74935 13.6162 5.30965C13.785 4.86995 14.2811 4.64621 14.6997 4.86225C15.8922 5.47785 16.9093 6.39511 17.6455 7.52884C18.5372 8.90193 18.9713 10.5221 18.8856 12.157C18.7999 13.792 18.1989 15.3579 17.1685 16.6302C16.3178 17.6808 15.2105 18.4867 13.9601 18.9743Z"/>
</mask>
<path fill-rule="evenodd" clip-rule="evenodd" d="M16.4646 22.1512C16.5927 22.6291 17.0855 22.9161 17.5517 22.7503C19.4867 22.0619 21.2011 20.8522 22.5009 19.2471C23.9891 17.4092 24.8574 15.1474 24.9811 12.7858C25.1049 10.4242 24.4779 8.084 23.1899 6.10066C22.065 4.36851 20.4864 2.9862 18.6339 2.0993C18.1877 1.88565 17.6675 2.11961 17.4902 2.58152C17.3129 3.04343 17.5461 3.55782 17.989 3.77825C19.4895 4.52494 20.7685 5.66182 21.6872 7.07651C22.7691 8.74252 23.2958 10.7083 23.1919 12.692C23.0879 14.6758 22.3586 16.5757 21.1085 18.1195C20.0469 19.4304 18.6561 20.4274 17.0858 21.0131C16.6222 21.186 16.3366 21.6732 16.4646 22.1512ZM9.69551 15.0769C9.81249 15.5135 10.2664 15.7793 10.673 15.582C11.2384 15.3075 11.7401 14.9112 12.1398 14.4176C12.7122 13.7107 13.0461 12.8408 13.0937 11.9325C13.1413 11.0242 12.9002 10.1241 12.4048 9.36126C12.0589 8.8286 11.6014 8.38196 11.0677 8.04994C10.684 7.8112 10.2048 8.02812 10.0428 8.45005C9.88085 8.87199 10.1036 9.33719 10.4571 9.6189C10.6802 9.79678 10.8748 10.0104 11.0321 10.2527C11.3393 10.7256 11.4888 11.2837 11.4593 11.8468C11.4298 12.41 11.2227 12.9493 10.8678 13.3876C10.686 13.6121 10.4702 13.8042 10.2297 13.9578C9.84874 14.201 9.57854 14.6403 9.69551 15.0769ZM13.9601 18.9743C13.5213 19.1454 13.0513 18.871 12.9294 18.4161C12.8075 17.9611 13.0809 17.499 13.5141 17.3144C14.4183 16.9291 15.2191 16.3273 15.843 15.5568C16.6467 14.5644 17.1155 13.343 17.1824 12.0678C17.2492 10.7925 16.9106 9.52878 16.2151 8.45778C15.6751 7.62633 14.9416 6.94415 14.0827 6.46646C13.671 6.23754 13.4475 5.74935 13.6162 5.30965C13.785 4.86995 14.2811 4.64621 14.6997 4.86225C15.8922 5.47785 16.9093 6.39511 17.6455 7.52884C18.5372 8.90193 18.9713 10.5221 18.8856 12.157C18.7999 13.792 18.1989 15.3579 17.1685 16.6302C16.3178 17.6808 15.2105 18.4867 13.9601 18.9743Z" fill="white"/>
<path d="M17.5517 22.7503L18.222 24.6346L18.222 24.6346L17.5517 22.7503ZM16.4646 22.1512L14.5328 22.6688L14.5328 22.6688L16.4646 22.1512ZM22.5009 19.2471L20.9466 17.9884L22.5009 19.2471ZM24.9811 12.7858L22.9839 12.6811V12.6811L24.9811 12.7858ZM23.1899 6.10066L24.8672 5.01138L23.1899 6.10066ZM18.6339 2.0993L19.4976 0.295382L19.4976 0.295381L18.6339 2.0993ZM17.4902 2.58152L15.6231 1.86478L17.4902 2.58152ZM17.989 3.77825L17.098 5.5688L17.098 5.5688L17.989 3.77825ZM21.6872 7.07651L23.3645 5.98723L21.6872 7.07651ZM23.1919 12.692L25.1891 12.7967L23.1919 12.692ZM21.1085 18.1195L22.6627 19.3781V19.3781L21.1085 18.1195ZM17.0858 21.0131L16.3868 19.1392L16.3868 19.1392L17.0858 21.0131ZM10.673 15.582L11.5462 17.3813L10.673 15.582ZM9.69551 15.0769L11.6274 14.5593L11.6274 14.5593L9.69551 15.0769ZM12.1398 14.4176L13.6941 15.6762L13.6941 15.6762L12.1398 14.4176ZM13.0937 11.9325L15.091 12.0371L13.0937 11.9325ZM12.4048 9.36126L14.0821 8.27198L12.4048 9.36126ZM11.0677 8.04994L12.1242 6.35176H12.1242L11.0677 8.04994ZM10.0428 8.45005L8.17565 7.73332L8.17565 7.73332L10.0428 8.45005ZM10.4571 9.6189L11.7037 8.05496L11.7037 8.05496L10.4571 9.6189ZM11.0321 10.2527L12.7095 9.16338L12.7095 9.16338L11.0321 10.2527ZM11.4593 11.8468L9.46203 11.7421L9.46203 11.7421L11.4593 11.8468ZM10.8678 13.3876L12.4221 14.6462L12.4221 14.6462L10.8678 13.3876ZM10.2297 13.9578L11.306 15.6434L11.306 15.6434L10.2297 13.9578ZM12.9294 18.4161L10.9975 18.9337L12.9294 18.4161ZM13.9601 18.9743L13.2335 17.1109L13.2335 17.1109L13.9601 18.9743ZM13.5141 17.3144L14.2982 19.1543H14.2982L13.5141 17.3144ZM15.843 15.5568L14.2887 14.2982V14.2982L15.843 15.5568ZM17.1824 12.0678L15.1851 11.9631L17.1824 12.0678ZM16.2151 8.45778L14.5377 9.54706L14.5377 9.54706L16.2151 8.45778ZM14.0827 6.46646L13.1106 8.21434H13.1106L14.0827 6.46646ZM13.6162 5.30965L15.4834 6.02639L15.4834 6.02639L13.6162 5.30965ZM14.6997 4.86225L15.617 3.08505L15.617 3.08505L14.6997 4.86225ZM17.6455 7.52884L15.9682 8.61812V8.61812L17.6455 7.52884ZM17.1685 16.6302L15.6142 15.3716L17.1685 16.6302ZM16.8813 20.866C17.6161 20.6046 18.2508 21.0897 18.3965 21.6335L14.5328 22.6688C14.9346 24.1684 16.5549 25.2277 18.222 24.6346L16.8813 20.866ZM20.9466 17.9884C19.879 19.3068 18.4708 20.3005 16.8813 20.866L18.222 24.6346C20.5027 23.8232 22.5233 22.3975 24.0552 20.5057L20.9466 17.9884ZM22.9839 12.6811C22.8822 14.621 22.1691 16.4788 20.9466 17.9884L24.0552 20.5057C25.8092 18.3396 26.8325 15.6739 26.9784 12.8905L22.9839 12.6811ZM21.5125 7.18994C22.5705 8.81906 23.0856 10.7413 22.9839 12.6811L26.9784 12.8905C27.1243 10.1071 26.3852 7.34894 24.8672 5.01138L21.5125 7.18994ZM17.7703 3.90322C19.2919 4.63172 20.5886 5.76716 21.5125 7.18994L24.8672 5.01138C23.5414 2.96986 21.6809 1.34069 19.4976 0.295382L17.7703 3.90322ZM19.3574 3.29826C19.1556 3.82385 18.4737 4.23998 17.7703 3.90322L19.4976 0.295381C17.9016 -0.468685 16.1794 0.415368 15.6231 1.86478L19.3574 3.29826ZM18.8801 1.98771C19.2518 2.17271 19.5913 2.68891 19.3574 3.29826L15.6231 1.86478C15.0345 3.39795 15.8403 4.94293 17.098 5.5688L18.8801 1.98771ZM23.3645 5.98723C22.2505 4.27174 20.6996 2.89315 18.8801 1.98771L17.098 5.5688C18.2794 6.15672 19.2865 7.0519 20.0099 8.16579L23.3645 5.98723ZM25.1891 12.7967C25.3152 10.3912 24.6765 8.00746 23.3645 5.98723L20.0099 8.16579C20.8617 9.47757 21.2765 11.0254 21.1946 12.5874L25.1891 12.7967ZM22.6627 19.3781C24.1787 17.5061 25.0631 15.2022 25.1891 12.7967L21.1946 12.5874C21.1127 14.1493 20.5385 15.6453 19.5542 16.8609L22.6627 19.3781ZM17.7848 22.887C19.689 22.1767 21.3755 20.9678 22.6627 19.3781L19.5542 16.8609C18.7183 17.893 17.6232 18.678 16.3868 19.1392L17.7848 22.887ZM18.3965 21.6335C18.5654 22.264 18.1738 22.7419 17.7848 22.887L16.3868 19.1392C15.0706 19.6302 14.1077 21.0825 14.5328 22.6688L18.3965 21.6335ZM9.79979 13.7826C10.2227 13.5774 10.686 13.6242 11.024 13.8063C11.3393 13.9761 11.546 14.2555 11.6274 14.5593L7.76366 15.5945C8.13296 16.9728 9.76989 18.2433 11.5462 17.3813L9.79979 13.7826ZM10.5855 13.1589C10.3714 13.4233 10.1027 13.6356 9.79979 13.7826L11.5462 17.3813C12.3742 16.9795 13.1088 16.399 13.6941 15.6762L10.5855 13.1589ZM11.0965 11.8278C11.071 12.3143 10.8921 12.7803 10.5855 13.1589L13.6941 15.6762C14.5323 14.6411 15.0213 13.3672 15.091 12.0371L11.0965 11.8278ZM10.7274 10.4505C10.9928 10.8591 11.122 11.3413 11.0965 11.8278L15.091 12.0371C15.1607 10.707 14.8075 9.38903 14.0821 8.27198L10.7274 10.4505ZM10.0112 9.74812C10.2971 9.92599 10.5422 10.1652 10.7274 10.4505L14.0821 8.27198C13.5756 7.49196 12.9057 6.83792 12.1242 6.35176L10.0112 9.74812ZM11.91 9.16679C11.7973 9.46037 11.5626 9.71665 11.2312 9.85259C10.876 9.99829 10.4104 9.99647 10.0112 9.74812L12.1242 6.35176C10.4478 5.30879 8.68699 6.40123 8.17565 7.73332L11.91 9.16679ZM11.7037 8.05496C11.7727 8.10994 11.8582 8.20202 11.9201 8.36061C11.9875 8.53367 12.0381 8.83304 11.91 9.16679L8.17565 7.73332C7.58481 9.27252 8.46854 10.5915 9.21042 11.1828L11.7037 8.05496ZM12.7095 9.16338C12.4343 8.73962 12.0939 8.36604 11.7037 8.05496L9.21042 11.1828C9.26647 11.2275 9.31529 11.2811 9.35479 11.3419L12.7095 9.16338ZM13.4565 11.9515C13.5082 10.9665 13.2466 9.99055 12.7095 9.16338L9.35479 11.3419C9.4319 11.4607 9.46944 11.6008 9.46203 11.7421L13.4565 11.9515ZM12.4221 14.6462C13.0428 13.8797 13.4049 12.9364 13.4565 11.9515L9.46203 11.7421C9.45462 11.8835 9.40264 12.0189 9.31355 12.1289L12.4221 14.6462ZM11.306 15.6434C11.7266 15.3749 12.1041 15.0389 12.4221 14.6462L9.31355 12.1289C9.26791 12.1853 9.21375 12.2335 9.15333 12.2721L11.306 15.6434ZM11.6274 14.5593C11.7199 14.9046 11.6383 15.197 11.5531 15.3621C11.4751 15.5133 11.3803 15.596 11.306 15.6434L9.15334 12.2721C8.3537 12.7827 7.33695 14.002 7.76366 15.5945L11.6274 14.5593ZM10.9975 18.9337C11.3879 20.3907 12.999 21.4957 14.6867 20.8376L13.2335 17.1109C14.0435 16.7951 14.7146 17.3513 14.8612 17.8984L10.9975 18.9337ZM12.7301 15.4744C11.5435 15.9801 10.5745 17.3551 10.9975 18.9337L14.8612 17.8984C15.0404 18.5672 14.6182 19.0179 14.2982 19.1543L12.7301 15.4744ZM14.2887 14.2982C13.8712 14.8138 13.3352 15.2166 12.7301 15.4744L14.2982 19.1543C15.5014 18.6416 16.5671 17.8408 17.3973 16.8155L14.2887 14.2982ZM15.1851 11.9631C15.1404 12.8166 14.8266 13.634 14.2887 14.2982L17.3973 16.8155C18.4668 15.4948 19.0907 13.8695 19.1796 12.1724L15.1851 11.9631ZM14.5377 9.54706C15.0032 10.2638 15.2298 11.1096 15.1851 11.9631L19.1796 12.1724C19.2686 10.4754 18.818 8.79372 17.8924 7.3685L14.5377 9.54706ZM13.1106 8.21434C13.6855 8.53405 14.1764 8.99062 14.5377 9.54706L17.8924 7.3685C17.1739 6.26204 16.1977 5.35426 15.0547 4.71858L13.1106 8.21434ZM11.7491 4.59291C11.1634 6.11871 11.9833 7.58741 13.1106 8.21434L15.0547 4.71858C15.3588 4.88767 15.7315 5.38 15.4834 6.02639L11.7491 4.59291ZM15.617 3.08505C14.0074 2.25418 12.2897 3.18468 11.7491 4.59291L15.4834 6.02639C15.2804 6.55521 14.5548 7.03824 13.7823 6.63944L15.617 3.08505ZM19.3229 6.43957C18.3966 5.01333 17.1173 3.85947 15.617 3.08505L13.7823 6.63944C14.6672 7.09624 15.4219 7.77688 15.9682 8.61812L19.3229 6.43957ZM20.8829 12.2617C20.9907 10.2049 20.4446 8.16687 19.3229 6.43957L15.9682 8.61812C16.6298 9.63698 16.9519 10.8392 16.8884 12.0523L20.8829 12.2617ZM18.7228 17.8889C20.0189 16.2883 20.7751 14.3184 20.8829 12.2617L16.8884 12.0523C16.8248 13.2655 16.3788 14.4275 15.6142 15.3716L18.7228 17.8889ZM14.6867 20.8376C16.2596 20.2243 17.6526 19.2105 18.7228 17.8889L15.6142 15.3716C14.983 16.1511 14.1613 16.7491 13.2335 17.1109L14.6867 20.8376Z" fill="white" mask="url(#path-1-inside-1_1619_116464)"/>
</svg>
