<?xml version="1.0" encoding="UTF-8" standalone="no"?>
<!DOCTYPE svg PUBLIC "-//W3C//DTD SVG 1.1//EN" "http://www.w3.org/Graphics/SVG/1.1/DTD/svg11.dtd">
<svg width="100%" height="100%" viewBox="0 0 315 132" version="1.1" xmlns="http://www.w3.org/2000/svg" xmlns:xlink="http://www.w3.org/1999/xlink" xml:space="preserve" xmlns:serif="http://www.serif.com/" style="fill-rule:evenodd;clip-rule:evenodd;stroke-linejoin:round;stroke-miterlimit:2;">
    <g>
        <path d="M147.467,111.288L134.556,111.288L134.556,110.051L135.8,110.051L135.8,107.424L137.044,107.424L137.044,104.796L138.289,104.796L138.289,100.932L135.644,100.932L135.644,103.56L134.4,103.56L134.4,106.187L133.156,106.187L133.156,108.815L131.911,108.815L131.911,111.443L130.667,111.443L130.667,114.07L146.222,114.07L146.222,112.834L147.467,112.834L147.467,111.288Z" style="fill:rgb(255,130,0);fill-rule:nonzero;"/>
        <path d="M156.8,107.733L156.8,104.951L158.044,104.951L158.044,101.087L155.4,101.087L155.4,103.714L154.156,103.714L154.156,106.342L152.911,106.342L152.911,108.97L151.667,108.97L151.667,111.597L150.422,111.597L150.422,114.225L153.067,114.225L153.067,112.988L154.311,112.988L154.311,110.361L155.556,110.361L155.556,107.733L156.8,107.733Z" style="fill:rgb(255,130,0);fill-rule:nonzero;"/>
        <path d="M198.333,104.796L199.733,104.796L199.733,103.56L200.978,103.56L200.978,100.932L182.778,100.932L182.778,103.56L181.533,103.56L181.533,106.187L180.289,106.187L180.289,108.815L178.889,108.815L178.889,111.443L177.644,111.443L177.644,114.07L180.289,114.07L180.289,112.834L181.533,112.834L181.533,110.206L182.778,110.206L182.778,108.97L195.844,108.97L195.844,107.733L197.089,107.733L197.089,106.496L198.333,106.496L198.333,104.796ZM195.844,104.796L194.6,104.796L194.6,106.033L184.178,106.033L184.178,104.796L185.422,104.796L185.422,103.56L195.844,103.56L195.844,104.796Z" style="fill:rgb(255,130,0);fill-rule:nonzero;"/>
        <path d="M177.644,104.796L178.889,104.796L178.889,103.56L180.133,103.56L180.133,100.932L161.933,100.932L161.933,103.56L160.689,103.56L160.689,106.187L159.444,106.187L159.444,108.815L158.2,108.815L158.2,111.443L156.956,111.443L156.956,114.07L159.6,114.07L159.6,112.834L160.844,112.834L160.844,110.206L162.089,110.206L162.089,108.97L175.156,108.97L175.156,107.733L176.4,107.733L176.4,106.496L177.644,106.496L177.644,104.796ZM175,104.796L173.756,104.796L173.756,106.033L163.333,106.033L163.333,104.796L164.578,104.796L164.578,103.56L175,103.56L175,104.796Z" style="fill:rgb(255,130,0);fill-rule:nonzero;"/>
        <path d="M220.578,103.56L220.578,102.323L221.822,102.323L221.822,101.087L203.622,101.087L203.622,103.714L202.378,103.714L202.378,106.342L201.133,106.342L201.133,108.97L199.889,108.97L199.889,111.597L198.644,111.597L198.644,114.225L215.6,114.225L215.6,112.988L216.844,112.988L216.844,111.288L202.533,111.288L202.533,110.051L203.778,110.051L203.778,108.815L215.444,108.815L215.444,107.578L216.689,107.578L216.689,106.342L205.022,106.342L205.022,105.105L206.267,105.105L206.267,103.56L220.578,103.56Z" style="fill:rgb(255,130,0);fill-rule:nonzero;"/>
        <path d="M132.067,103.56L132.067,102.323L133.311,102.323L133.311,101.087L113.711,101.087L113.711,103.714L112.467,103.714L112.467,106.342L111.222,106.342L111.222,108.97L109.978,108.97L109.978,111.597L108.733,111.597L108.733,114.225L107.333,114.225L107.333,116.852L109.978,116.852L109.978,115.616L111.222,115.616L111.222,112.988L112.467,112.988L112.467,110.361L113.711,110.361L113.711,109.124L125.378,109.124L125.378,107.888L126.622,107.888L126.622,106.651L114.956,106.651L114.956,105.414L116.2,105.414L116.2,103.56L132.067,103.56Z" style="fill:rgb(255,130,0);fill-rule:nonzero;"/>
        <path d="M242.822,100.932L224.622,100.932L224.622,103.56L223.378,103.56L223.378,106.187L222.133,106.187L222.133,108.815L220.889,108.815L220.889,111.443L219.333,111.443L219.333,114.07L221.978,114.07L221.978,112.834L223.222,112.834L223.222,110.206L224.467,110.206L224.467,108.97L233.644,108.97L233.644,110.206L234.889,110.206L234.889,111.288L236.133,111.288L236.133,112.525L237.378,112.525L237.378,113.761L238.622,113.761L238.622,114.998L239.867,114.998L239.867,116.234L242.511,116.234L242.511,113.607L241.267,113.607L241.267,112.37L240.022,112.37L240.022,111.288L238.778,111.288L238.778,110.051L237.533,110.051L237.533,107.424L238.778,107.424L238.778,106.187L240.022,106.187L240.022,104.951L241.267,104.951L241.267,103.56L242.511,103.56L242.511,102.323L243.756,102.323L243.756,101.087L242.822,101.087L242.822,100.932ZM237.533,104.796L236.289,104.796L236.289,106.033L225.867,106.033L225.867,104.796L227.111,104.796L227.111,103.56L237.533,103.56L237.533,104.796Z" style="fill:rgb(255,130,0);fill-rule:nonzero;"/>
    </g>
</svg>
