<svg width="18" height="18" viewBox="0 0 18 18" fill="none" xmlns="http://www.w3.org/2000/svg">
<path fill-rule="evenodd" clip-rule="evenodd" d="M7.14316 9.18709L3.26789 5.93535C2.95059 5.6691 2.9092 5.19603 3.17545 4.87873C3.4417 4.56142 3.91477 4.52003 4.23207 4.78628L13.9779 12.964C14.2952 13.2302 14.3366 13.7033 14.0703 14.0206C13.8041 14.3379 13.331 14.3793 13.0137 14.113L11.771 13.0703L9.01478 15.7936C8.58796 16.2153 7.87133 15.948 7.80982 15.3783L7.80558 15.2987L7.80556 10.455L5.41474 12.3459C5.10926 12.5874 4.66351 12.5385 4.41913 12.2366C4.19355 11.958 4.2184 11.5613 4.46382 11.312L4.52976 11.2529L7.14316 9.18709ZM9.22198 10.9314V13.6077L10.6867 12.1605L9.22198 10.9314ZM7.80558 2.70126L7.80556 5.84667L9.22198 7.03518V4.39152L10.9942 6.14257L9.53401 7.297L10.6341 8.2201L12.4981 6.74706L12.5708 6.68096C12.7496 6.49442 12.8055 6.22992 12.7314 5.99031L12.6961 5.90115L12.6645 5.84257L12.6448 5.81183C12.6195 5.77443 12.59 5.73885 12.5564 5.70569L9.01478 2.20639L8.95487 2.15312C8.50365 1.79324 7.80558 2.10486 7.80558 2.70126Z" fill="#589DFF"/>
</svg>
