<svg width="24" height="24" viewBox="0 0 24 24" fill="none" xmlns="http://www.w3.org/2000/svg">
<path fill-rule="evenodd" clip-rule="evenodd" d="M14.6879 20.9879C14.3317 21.2851 13.8044 21.1982 13.5329 20.822C13.2613 20.4459 13.3486 19.9234 13.7014 19.6221C14.7557 18.7219 15.62 17.6165 16.24 16.3701C16.9849 14.8725 17.3547 13.2163 17.3174 11.544C17.2801 9.87176 16.8369 8.23363 16.026 6.7707C15.3511 5.5532 14.4384 4.48741 13.3451 3.63506C12.9792 3.34983 12.8686 2.83169 13.1232 2.44384C13.3777 2.05599 13.9005 1.94562 14.2696 2.22666C15.589 3.23129 16.6884 4.50049 17.4954 5.9562C18.4383 7.65729 18.9536 9.56209 18.997 11.5066C19.0403 13.451 18.6104 15.3769 17.7442 17.1183C17.0029 18.6086 15.9612 19.9255 14.6879 20.9879ZM10.7943 18.4141C11.0562 18.7768 11.5653 18.8612 11.903 18.5677C12.7958 17.792 13.529 16.846 14.0581 15.7822C14.7078 14.4762 15.0302 13.0318 14.9977 11.5734C14.9652 10.1151 14.5787 8.68647 13.8715 7.41065C13.2955 6.37156 12.5208 5.45917 11.5943 4.72396C11.2439 4.44589 10.7391 4.55287 10.4936 4.92687C10.2482 5.30087 10.3558 5.79979 10.7007 6.08473C11.4104 6.67111 12.006 7.38671 12.4546 8.19606C13.0345 9.24223 13.3515 10.4137 13.3781 11.6095C13.4048 12.8054 13.1404 13.9898 12.6077 15.0608C12.1955 15.8893 11.6324 16.6307 10.9495 17.2482C10.6177 17.5482 10.5324 18.0514 10.7943 18.4141ZM9.06938 16.1831C8.77717 16.4528 8.32358 16.3772 8.09081 16.0548C7.85803 15.7324 7.93567 15.2859 8.21745 15.0053C8.5682 14.6561 8.86091 14.2509 9.08277 13.8048C9.41193 13.1431 9.57531 12.4113 9.55884 11.6724C9.54237 10.9335 9.34654 10.2097 8.98822 9.56324C8.74669 9.12753 8.43622 8.73579 8.07026 8.40252C7.77625 8.13478 7.67879 7.69218 7.89697 7.35974C8.11515 7.02729 8.56491 6.93156 8.86885 7.18797C9.42509 7.65722 9.8929 8.22511 10.2477 8.86511C10.7191 9.71565 10.9768 10.668 10.9985 11.6403C11.0202 12.6125 10.8052 13.5755 10.3721 14.4462C10.0462 15.1013 9.60415 15.6895 9.06938 16.1831ZM6.74465 13.7644C6.50281 14.0371 6.0832 13.9667 5.86983 13.6712C5.65645 13.3757 5.73867 12.9661 5.92999 12.6558C5.95669 12.6125 5.98146 12.568 6.00421 12.5222C6.12548 12.2784 6.18568 12.0088 6.17961 11.7366C6.17354 11.4643 6.10139 11.1977 5.96938 10.9595C5.94461 10.9148 5.91787 10.8714 5.88928 10.8294C5.68432 10.5279 5.58392 10.1224 5.78392 9.81769C5.98392 9.51295 6.39997 9.42389 6.65372 9.68558C6.83701 9.87459 6.99529 10.0876 7.12387 10.3196C7.35961 10.7448 7.48844 11.221 7.49928 11.7072C7.51012 12.1933 7.40263 12.6747 7.18608 13.1101C7.06796 13.3476 6.91934 13.5674 6.74465 13.7644Z" fill="white"/>
</svg>
