<svg width="238" height="100" viewBox="0 0 238 100" fill="none" xmlns="http://www.w3.org/2000/svg">
<g clip-path="url(#clip0_2739_25127)">
<rect x="71.007" y="36.04" width="0.642858" height="2.5" fill="black"/>
<rect x="80.6499" y="32.29" width="1.28572" height="0.625" fill="black"/>
<rect x="83.2213" y="34.165" width="4.5" height="0.625" fill="black"/>
<rect x="84.507" y="34.79" width="3.21428" height="0.625" fill="black"/>
<rect x="85.7928" y="35.415" width="2.57143" height="0.625" fill="black"/>
<rect x="89.007" y="34.165" width="1.28571" height="0.625" fill="black"/>
<rect x="90.9356" y="34.165" width="0.642857" height="1.25" fill="black"/>
<rect x="91.5785" y="35.415" width="0.642857" height="3.125" fill="black"/>
<rect x="82.5785" y="35.415" width="0.642857" height="3.125" fill="black"/>
<rect x="83.2213" y="38.54" width="0.642857" height="1.25" fill="black"/>
<rect x="90.9356" y="38.54" width="0.642857" height="1.25" fill="black"/>
<rect x="85.1499" y="39.165" width="3.21428" height="0.625" fill="black"/>
<rect x="83.8642" y="39.79" width="1.28572" height="0.625" fill="black"/>
<rect x="90.2928" y="39.79" width="0.642859" height="0.625" fill="black"/>
<rect x="82.5785" y="41.04" width="0.642857" height="0.625" fill="black"/>
<rect x="83.2213" y="40.415" width="0.642857" height="0.625" fill="black"/>
<rect x="90.2928" y="41.04" width="0.642859" height="0.625" fill="black"/>
<rect x="89.6499" y="40.415" width="0.642857" height="0.625" fill="black"/>
<rect x="88.3642" y="39.79" width="1.28572" height="0.625" fill="black"/>
<rect x="83.2213" y="34.79" width="0.642857" height="0.625" fill="black"/>
<rect x="89.007" y="34.79" width="0.642857" height="0.625" fill="black"/>
<rect x="83.8642" y="33.54" width="7.07143" height="0.625" fill="black"/>
<rect x="84.507" y="32.915" width="5.78571" height="0.625" fill="black"/>
<rect x="85.7928" y="32.29" width="3.21429" height="0.625" fill="black"/>
<rect x="82.5785" y="31.04" width="0.642857" height="0.625" fill="black"/>
<rect x="81.9356" y="31.665" width="0.642857" height="0.625" fill="black"/>
<rect x="71.6499" y="34.165" width="0.642858" height="1.875" fill="black"/>
<rect x="72.2928" y="32.915" width="0.642857" height="1.25" fill="black"/>
<rect x="74.2213" y="29.79" width="0.642858" height="0.625" fill="black"/>
<rect x="78.7213" y="26.04" width="1.28572" height="0.625" fill="black"/>
<rect x="81.2928" y="24.79" width="7.71429" height="0.625" fill="black"/>
<rect x="110.221" y="14.79" width="33.4286" height="0.625" fill="black"/>
<rect x="110.864" y="37.915" width="32.1429" height="0.625" fill="black"/>
<rect x="112.15" y="40.415" width="10.2857" height="0.625" fill="black"/>
<rect x="115.364" y="41.04" width="3.85714" height="0.625" fill="black"/>
<rect x="120.507" y="41.665" width="1.92857" height="0.625" fill="black"/>
<rect x="126.936" y="39.79" width="0.64286" height="1.875" fill="black"/>
<rect x="141.078" y="39.79" width="0.642853" height="1.875" fill="black"/>
<rect x="126.936" y="39.165" width="14.7857" height="0.625" fill="black"/>
<rect x="128.221" y="40.415" width="12.2143" height="0.625" fill="black"/>
<rect x="110.864" y="42.915" width="32.7857" height="0.625" fill="black"/>
<rect x="114.078" y="44.165" width="12.2143" height="0.625" fill="black"/>
<rect x="126.936" y="44.165" width="3.85715" height="0.625" fill="black"/>
<rect x="131.436" y="44.165" width="1.92857" height="0.625" fill="black"/>
<rect x="134.007" y="44.165" width="0.64286" height="0.625" fill="black"/>
<rect x="136.578" y="44.165" width="1.92857" height="0.625" fill="black"/>
<rect x="139.15" y="44.165" width="1.28571" height="0.625" fill="black"/>
<rect x="141.078" y="44.165" width="1.28571" height="0.625" fill="black"/>
<rect x="135.293" y="44.165" width="0.642853" height="0.625" fill="black"/>
<rect x="133.364" y="46.665" width="0.642853" height="0.625" fill="black"/>
<rect x="141.721" y="44.79" width="0.64286" height="0.625" fill="black"/>
<rect x="141.721" y="48.54" width="0.64286" height="0.625" fill="black"/>
<rect x="141.721" y="46.04" width="0.64286" height="1.875" fill="black"/>
<rect x="141.721" y="49.79" width="0.64286" height="3.125" fill="black"/>
<rect x="129.507" y="52.29" width="10.2857" height="1.25" fill="black"/>
<rect x="129.507" y="46.04" width="1.92857" height="1.875" fill="black"/>
<rect x="121.793" y="47.29" width="1.28571" height="6.25" fill="black"/>
<rect x="114.721" y="49.165" width="0.642857" height="4.375" fill="black"/>
<rect x="111.507" y="49.165" width="0.642857" height="3.125" fill="black"/>
<rect x="111.507" y="52.915" width="0.642857" height="0.625" fill="black"/>
<rect x="111.507" y="47.915" width="0.642857" height="0.625" fill="black"/>
<rect x="112.15" y="44.165" width="0.642857" height="0.625" fill="black"/>
<rect x="111.507" y="46.04" width="0.642857" height="1.25" fill="black"/>
<rect x="111.507" y="44.165" width="0.642857" height="1.25" fill="black"/>
<rect x="116.007" y="49.165" width="0.642857" height="4.375" fill="black"/>
<rect x="114.078" y="46.04" width="1.28572" height="3.125" fill="black"/>
<rect x="63.2928" y="15.415" width="1.28571" height="4.375" fill="black"/>
<rect x="65.8642" y="15.415" width="1.28571" height="4.375" fill="black"/>
<rect x="63.9356" y="19.79" width="2.57143" height="0.625" fill="black"/>
<rect x="67.7928" y="17.29" width="1.28571" height="4.375" fill="black"/>
<rect x="67.7928" y="16.665" width="0.642857" height="0.625" fill="black"/>
<rect x="69.0785" y="16.665" width="1.28571" height="0.625" fill="black"/>
<rect x="69.7213" y="17.29" width="1.28571" height="2.5" fill="black"/>
<rect x="71.6499" y="17.29" width="1.28571" height="2.5" fill="black"/>
<rect x="72.2928" y="16.665" width="1.28571" height="0.625" fill="black"/>
<rect x="72.2928" y="19.79" width="1.28571" height="0.625" fill="black"/>
<rect x="73.5785" y="15.415" width="1.28571" height="5" fill="black"/>
<rect x="76.1499" y="16.665" width="1.92857" height="0.625" fill="black"/>
<rect x="80.6499" y="15.415" width="1.28572" height="4.375" fill="black"/>
<rect x="83.2213" y="16.665" width="1.28572" height="3.75" fill="black"/>
<rect x="85.1499" y="17.29" width="1.28572" height="3.125" fill="black"/>
<rect x="87.0785" y="17.29" width="1.28571" height="3.125" fill="black"/>
<rect x="89.007" y="17.29" width="1.28571" height="2.5" fill="black"/>
<rect x="89.6499" y="19.79" width="1.28572" height="0.625" fill="black"/>
<rect x="89.6499" y="16.665" width="1.28572" height="0.625" fill="black"/>
<rect x="91.5785" y="16.665" width="0.642857" height="0.625" fill="black"/>
<rect x="93.507" y="19.79" width="0.642857" height="0.625" fill="black"/>
<rect x="97.3642" y="19.79" width="0.642857" height="0.625" fill="black"/>
<rect x="95.4356" y="19.79" width="0.642857" height="0.625" fill="black"/>
<rect x="89.6499" y="21.04" width="1.92857" height="0.625" fill="black"/>
<rect x="90.9356" y="17.29" width="1.28571" height="3.75" fill="black"/>
<rect x="80.007" y="16.665" width="2.57143" height="0.625" fill="black"/>
<rect x="81.2928" y="19.79" width="1.28572" height="0.625" fill="black"/>
<rect x="83.2213" y="15.415" width="1.28572" height="0.625" fill="black"/>
<rect x="85.1499" y="16.665" width="0.642857" height="0.625" fill="black"/>
<rect x="86.4356" y="16.665" width="1.28571" height="0.625" fill="black"/>
<rect x="78.0785" y="19.79" width="1.28571" height="0.625" fill="black"/>
<rect x="76.1499" y="19.79" width="1.28571" height="0.625" fill="black"/>
<rect x="75.507" y="18.54" width="1.28572" height="1.25" fill="black"/>
<rect x="76.1499" y="17.915" width="1.28571" height="0.625" fill="black"/>
<rect x="75.507" y="17.29" width="0.642858" height="0.625" fill="black"/>
<rect x="77.4356" y="17.29" width="1.28571" height="2.5" fill="black"/>
<rect x="69.0785" y="19.79" width="1.28571" height="0.625" fill="black"/>
<rect x="116.007" y="46.04" width="1.28571" height="3.125" fill="black"/>
<rect x="124.364" y="47.29" width="1.28571" height="6.25" fill="black"/>
<rect x="120.507" y="46.04" width="6.42857" height="0.625" fill="black"/>
<rect x="129.507" y="49.165" width="0.64286" height="1.875" fill="black"/>
<rect x="126.293" y="46.665" width="0.642857" height="1.25" fill="black"/>
<rect x="120.507" y="46.665" width="0.642857" height="1.25" fill="black"/>
<rect x="115.364" y="46.04" width="0.642857" height="1.25" fill="black"/>
<rect x="117.936" y="46.04" width="1.28572" height="0.625" fill="black"/>
<rect x="117.936" y="47.29" width="1.28572" height="0.625" fill="black"/>
<rect x="121.15" y="47.915" width="0.642857" height="0.625" fill="black"/>
<rect x="125.65" y="47.915" width="0.642857" height="0.625" fill="black"/>
<rect x="121.15" y="47.915" width="0.642857" height="0.625" fill="black"/>
<rect x="125.65" y="47.915" width="0.642857" height="0.625" fill="black"/>
<rect x="120.507" y="50.415" width="0.642857" height="0.625" fill="black"/>
<rect x="125.007" y="50.415" width="0.642857" height="0.625" fill="black"/>
<rect x="123.078" y="47.915" width="1.28572" height="0.625" fill="black"/>
<rect x="123.078" y="52.29" width="1.28572" height="0.625" fill="black"/>
<rect x="121.15" y="50.415" width="0.642857" height="0.625" fill="black"/>
<rect x="123.078" y="50.415" width="1.28572" height="0.625" fill="black"/>
<rect x="125.65" y="50.415" width="1.28571" height="0.625" fill="black"/>
<rect x="126.293" y="51.04" width="0.642857" height="1.25" fill="black"/>
<rect x="120.507" y="51.04" width="0.642857" height="1.25" fill="black"/>
<rect x="125.65" y="52.29" width="0.642857" height="0.625" fill="black"/>
<rect x="121.15" y="52.29" width="0.642857" height="0.625" fill="black"/>
<rect width="0.64286" height="0.625" transform="matrix(-1 0 0 1 130.793 49.165)" fill="black"/>
<rect width="1.28571" height="0.625" transform="matrix(-1 0 0 1 131.436 50.415)" fill="black"/>
<rect width="0.642853" height="0.625" transform="matrix(-1 0 0 1 131.436 49.79)" fill="black"/>
<rect x="137.864" y="49.165" width="0.642853" height="1.875" fill="black"/>
<rect width="0.64286" height="0.625" transform="matrix(-1 0 0 1 139.15 49.165)" fill="black"/>
<rect width="1.28572" height="0.625" transform="matrix(-1 0 0 1 139.793 50.415)" fill="black"/>
<rect width="0.64286" height="0.625" transform="matrix(-1 0 0 1 139.793 49.79)" fill="black"/>
<rect x="135.293" y="49.165" width="0.642853" height="1.875" fill="black"/>
<rect width="0.64286" height="0.625" transform="matrix(-1 0 0 1 136.578 49.165)" fill="black"/>
<rect width="1.28571" height="0.625" transform="matrix(-1 0 0 1 137.221 50.415)" fill="black"/>
<rect width="0.642853" height="0.625" transform="matrix(-1 0 0 1 137.221 49.79)" fill="black"/>
<rect x="132.078" y="49.165" width="0.642853" height="1.875" fill="black"/>
<rect width="0.64286" height="0.625" transform="matrix(-1 0 0 1 133.364 49.165)" fill="black"/>
<rect width="1.28571" height="0.625" transform="matrix(-1 0 0 1 134.007 50.415)" fill="black"/>
<rect width="0.642853" height="0.625" transform="matrix(-1 0 0 1 134.007 49.79)" fill="black"/>
<rect x="131.436" y="46.04" width="2.57143" height="0.625" fill="black"/>
<rect x="131.436" y="47.29" width="2.57143" height="0.625" fill="black"/>
<rect x="139.15" y="46.665" width="0.64286" height="0.625" fill="black"/>
<rect x="135.293" y="46.04" width="1.92857" height="1.875" fill="black"/>
<rect x="137.221" y="46.04" width="2.57143" height="0.625" fill="black"/>
<rect x="137.221" y="47.29" width="2.57143" height="0.625" fill="black"/>
<rect x="126.936" y="41.665" width="14.7857" height="0.625" fill="black"/>
<rect x="115.364" y="39.79" width="3.85714" height="0.625" fill="black"/>
<rect x="112.793" y="36.04" width="1.92857" height="0.625" fill="black"/>
<rect x="139.15" y="36.04" width="1.92857" height="0.625" fill="black"/>
<rect x="137.221" y="36.04" width="0.64286" height="0.625" fill="black"/>
<rect x="138.507" y="18.54" width="0.64286" height="0.625" fill="black"/>
<rect x="139.15" y="22.915" width="0.64286" height="0.625" fill="black"/>
<rect x="139.15" y="18.54" width="0.64286" height="1.25" fill="black"/>
<rect x="135.936" y="19.79" width="0.64286" height="2.5" fill="black"/>
<rect x="136.578" y="20.415" width="0.642853" height="1.875" fill="black"/>
<rect x="137.221" y="21.04" width="0.64286" height="1.25" fill="black"/>
<rect x="137.864" y="21.665" width="0.642853" height="0.625" fill="black"/>
<rect x="134.007" y="18.54" width="0.64286" height="0.625" fill="black"/>
<rect x="112.793" y="33.54" width="28.2857" height="1.875" fill="black"/>
<rect x="112.793" y="17.29" width="28.2857" height="1.25" fill="black"/>
<rect x="122.436" y="24.165" width="18.6429" height="9.375" fill="black"/>
<rect x="122.436" y="18.54" width="10.9286" height="5.625" fill="black"/>
<rect x="133.364" y="19.165" width="2.57143" height="5" fill="black"/>
<rect x="117.936" y="21.04" width="4.5" height="5" fill="black"/>
<rect x="120.507" y="19.79" width="1.92857" height="1.25" fill="black"/>
<rect x="112.793" y="18.54" width="9.64286" height="0.625" fill="black"/>
<rect x="112.793" y="19.165" width="1.28571" height="14.375" fill="black"/>
<rect x="120.507" y="26.04" width="1.92857" height="4.375" fill="black"/>
<rect x="117.936" y="31.04" width="4.5" height="2.5" fill="black"/>
<rect x="117.293" y="27.29" width="3.21429" height="3.125" fill="black"/>
<rect x="114.078" y="26.04" width="6.42857" height="0.625" fill="black"/>
<rect x="117.293" y="26.665" width="0.642857" height="0.625" fill="black"/>
<rect x="114.721" y="24.79" width="0.642857" height="6.25" fill="black"/>
<rect x="115.364" y="31.04" width="0.642857" height="2.5" fill="black"/>
<rect x="116.007" y="28.54" width="0.642857" height="1.875" fill="black"/>
<rect x="115.364" y="22.915" width="0.642857" height="2.5" fill="black"/>
<rect x="116.007" y="24.79" width="1.92857" height="1.25" fill="black"/>
<rect x="119.221" y="26.665" width="0.642857" height="0.625" fill="black"/>
<rect x="119.864" y="30.415" width="0.642857" height="0.625" fill="black"/>
<rect x="116.65" y="28.54" width="0.642857" height="5" fill="black"/>
<rect x="117.293" y="32.29" width="0.642857" height="1.25" fill="black"/>
<rect x="117.293" y="31.04" width="0.642857" height="0.625" fill="black"/>
<rect x="114.078" y="23.54" width="3.85714" height="0.625" fill="black"/>
<rect x="114.078" y="22.29" width="3.85714" height="0.625" fill="black"/>
<rect x="116.007" y="21.04" width="1.92857" height="1.25" fill="black"/>
<rect x="115.364" y="27.29" width="1.92857" height="0.625" fill="black"/>
<rect x="114.078" y="32.29" width="1.28572" height="0.625" fill="black"/>
<rect x="116.007" y="32.29" width="0.642857" height="0.625" fill="black"/>
<rect x="115.364" y="29.79" width="0.642857" height="0.625" fill="black"/>
<rect x="116.007" y="31.04" width="0.642857" height="0.625" fill="black"/>
<rect x="114.078" y="29.79" width="0.64286" height="0.625" fill="black"/>
<rect x="115.364" y="28.54" width="0.642857" height="0.625" fill="black"/>
<rect x="114.078" y="19.79" width="6.42857" height="0.625" fill="black"/>
<rect x="114.721" y="20.415" width="0.642857" height="1.875" fill="black"/>
<rect x="117.936" y="19.165" width="0.642857" height="0.625" fill="black"/>
<rect x="114.078" y="21.04" width="0.64286" height="0.625" fill="black"/>
<rect x="115.364" y="21.04" width="0.642857" height="0.625" fill="black"/>
<rect x="116.65" y="20.415" width="0.642857" height="0.625" fill="black"/>
<rect x="118.578" y="20.415" width="0.64286" height="0.625" fill="black"/>
<rect x="120.507" y="19.165" width="0.642857" height="0.625" fill="black"/>
<rect x="119.221" y="19.165" width="0.642857" height="0.625" fill="black"/>
<rect x="114.721" y="19.165" width="0.642857" height="0.625" fill="black"/>
<rect x="114.078" y="27.29" width="0.64286" height="0.625" fill="black"/>
<rect x="114.078" y="28.54" width="0.64286" height="0.625" fill="black"/>
<rect x="114.078" y="31.04" width="1.28572" height="0.625" fill="black"/>
<rect x="114.078" y="24.79" width="0.64286" height="0.625" fill="black"/>
<rect x="118.578" y="30.415" width="0.64286" height="0.625" fill="black"/>
<rect x="135.936" y="22.29" width="3.21429" height="1.875" fill="black"/>
<rect x="139.793" y="18.54" width="1.28571" height="5.625" fill="black"/>
<rect x="110.221" y="15.415" width="0.642857" height="38.125" fill="black"/>
<rect x="143.007" y="15.415" width="0.64286" height="38.125" fill="black"/>
<rect x="143.007" y="15.415" width="0.64286" height="38.125" fill="black"/>
<rect x="80.007" y="25.415" width="1.28571" height="0.625" fill="black"/>
<rect x="93.507" y="27.29" width="1.28571" height="0.625" fill="black"/>
<rect x="97.3642" y="31.04" width="0.642857" height="0.625" fill="black"/>
<rect x="99.9356" y="29.165" width="0.642857" height="0.625" fill="black"/>
<rect x="99.9356" y="28.54" width="1.28572" height="0.625" fill="black"/>
<rect x="94.7928" y="26.665" width="2.57143" height="0.625" fill="black"/>
<rect x="97.3642" y="25.415" width="1.28571" height="0.625" fill="black"/>
<rect x="99.2928" y="24.165" width="5.14286" height="0.625" fill="black"/>
<rect x="99.2928" y="24.79" width="4.5" height="0.625" fill="black"/>
<rect x="99.9356" y="26.04" width="2.57143" height="0.625" fill="black"/>
<rect x="100.578" y="26.665" width="1.92857" height="0.625" fill="black"/>
<rect x="101.221" y="27.29" width="0.642857" height="0.625" fill="black"/>
<rect x="101.221" y="23.54" width="3.21428" height="0.625" fill="black"/>
<rect x="102.507" y="22.29" width="1.28571" height="0.625" fill="black"/>
<rect x="103.793" y="21.665" width="0.642857" height="0.625" fill="black"/>
<rect x="105.721" y="21.04" width="0.642857" height="1.25" fill="black"/>
<rect x="105.078" y="18.54" width="0.64286" height="1.875" fill="black"/>
<rect x="104.436" y="15.415" width="0.642857" height="3.125" fill="black"/>
<rect x="106.364" y="14.79" width="0.642857" height="1.25" fill="black"/>
<rect x="107.65" y="13.54" width="0.642857" height="0.625" fill="black"/>
<rect x="105.721" y="13.54" width="0.642857" height="0.625" fill="black"/>
<rect x="107.007" y="14.165" width="0.642857" height="0.625" fill="black"/>
<rect x="105.078" y="14.165" width="0.64286" height="1.25" fill="black"/>
<rect x="105.721" y="16.04" width="0.642857" height="1.875" fill="black"/>
<rect x="106.364" y="17.915" width="0.642857" height="3.125" fill="black"/>
<rect x="104.436" y="20.415" width="0.642857" height="1.25" fill="black"/>
<rect x="105.078" y="22.29" width="0.64286" height="0.625" fill="black"/>
<rect x="104.436" y="22.915" width="0.642857" height="0.625" fill="black"/>
<rect x="101.864" y="22.915" width="1.92857" height="0.625" fill="black"/>
<rect x="99.2928" y="25.415" width="3.85714" height="0.625" fill="black"/>
<rect x="98.007" y="24.79" width="1.28571" height="0.625" fill="black"/>
<rect x="96.7213" y="26.04" width="1.28571" height="0.625" fill="black"/>
<rect x="100.578" y="27.915" width="1.28572" height="0.625" fill="black"/>
<rect x="97.3642" y="27.29" width="0.642857" height="0.625" fill="black"/>
<rect x="98.007" y="27.915" width="0.642857" height="0.625" fill="black"/>
<rect x="98.6499" y="28.54" width="0.642857" height="0.625" fill="black"/>
<rect x="99.2928" y="29.165" width="0.642857" height="2.5" fill="black"/>
<rect x="98.007" y="32.29" width="0.642857" height="0.625" fill="black"/>
<rect x="97.3642" y="31.665" width="1.92857" height="0.625" fill="black"/>
<rect x="99.2928" y="34.79" width="0.642857" height="1.875" fill="black"/>
<rect x="100.578" y="39.165" width="0.64286" height="9.375" fill="black"/>
<rect x="99.9356" y="48.54" width="0.642857" height="5" fill="black"/>
<rect x="69.7213" y="51.665" width="0.642857" height="1.875" fill="black"/>
<rect x="70.3642" y="48.54" width="0.642857" height="3.125" fill="black"/>
<rect x="72.2928" y="49.79" width="1.92857" height="2.5" fill="black"/>
<rect x="74.2213" y="50.415" width="2.57143" height="2.5" fill="black"/>
<rect x="72.9356" y="52.29" width="1.28571" height="0.625" fill="black"/>
<rect x="76.7928" y="51.04" width="1.28571" height="1.25" fill="black"/>
<rect x="78.0785" y="51.04" width="1.28571" height="0.625" fill="black"/>
<rect x="69.7213" y="48.54" width="0.642857" height="0.625" fill="black"/>
<rect x="68.4356" y="47.915" width="1.28571" height="0.625" fill="black"/>
<rect x="66.507" y="46.665" width="1.28571" height="0.625" fill="black"/>
<rect x="65.8642" y="46.04" width="0.642857" height="0.625" fill="black"/>
<rect x="63.9356" y="44.165" width="0.642857" height="0.625" fill="black"/>
<rect x="63.2928" y="41.04" width="0.642857" height="3.125" fill="black"/>
<rect x="62.6499" y="39.79" width="0.642857" height="3.125" fill="black"/>
<rect x="63.2928" y="38.54" width="0.642857" height="1.25" fill="black"/>
<rect x="63.9356" y="37.915" width="0.642857" height="0.625" fill="black"/>
<rect x="64.5785" y="37.29" width="1.28571" height="0.625" fill="black"/>
<rect x="65.8642" y="36.665" width="3.21429" height="0.625" fill="black"/>
<rect x="69.0785" y="37.29" width="1.92857" height="0.625" fill="black"/>
<rect x="71.6499" y="37.915" width="0.642858" height="0.625" fill="black"/>
<rect x="73.5785" y="39.165" width="1.28571" height="0.625" fill="black"/>
<rect x="77.4356" y="41.04" width="1.92857" height="0.625" fill="black"/>
<rect x="76.1499" y="41.665" width="1.28571" height="0.625" fill="black"/>
<rect x="79.3642" y="41.665" width="0.642859" height="0.625" fill="black"/>
<rect x="80.007" y="42.29" width="0.642857" height="2.5" fill="black"/>
<rect x="79.3642" y="44.79" width="0.642859" height="0.625" fill="black"/>
<rect x="78.7213" y="45.415" width="0.642857" height="0.625" fill="black"/>
<rect x="84.507" y="46.04" width="0.642857" height="0.625" fill="black"/>
<rect x="75.507" y="42.29" width="0.642858" height="0.625" fill="black"/>
<rect x="74.8642" y="42.915" width="0.642857" height="0.625" fill="black"/>
<rect x="74.2213" y="43.54" width="0.642858" height="0.625" fill="black"/>
<rect x="77.4356" y="46.04" width="4.5" height="0.625" fill="black"/>
<rect x="75.507" y="45.415" width="1.92857" height="0.625" fill="black"/>
<rect x="74.2213" y="44.79" width="1.28571" height="0.625" fill="black"/>
<rect x="72.9356" y="44.165" width="1.92857" height="0.625" fill="black"/>
<rect x="71.6499" y="43.54" width="1.28571" height="0.625" fill="black"/>
<rect x="63.9356" y="40.415" width="2.57143" height="0.625" fill="black"/>
<rect x="81.9356" y="45.415" width="2.57143" height="0.625" fill="black"/>
<rect x="66.507" y="41.04" width="1.28571" height="0.625" fill="black"/>
<rect x="67.7928" y="41.665" width="1.28571" height="0.625" fill="black"/>
<rect x="69.0785" y="42.29" width="1.28571" height="0.625" fill="black"/>
<rect x="70.3642" y="42.915" width="1.28571" height="0.625" fill="black"/>
<rect x="77.4356" y="44.165" width="0.642858" height="0.625" fill="black"/>
<rect x="76.7928" y="44.79" width="0.642857" height="0.625" fill="black"/>
<rect x="74.8642" y="39.79" width="1.28571" height="0.625" fill="black"/>
<rect x="72.2928" y="38.54" width="1.28571" height="0.625" fill="black"/>
<rect x="64.5785" y="44.79" width="0.642857" height="0.625" fill="black"/>
<rect x="65.2213" y="45.415" width="0.642857" height="0.625" fill="black"/>
<rect x="67.7928" y="47.29" width="0.642857" height="0.625" fill="black"/>
<rect x="71.007" y="49.165" width="1.28572" height="3.125" fill="black"/>
<rect x="99.9356" y="36.665" width="0.642857" height="2.5" fill="black"/>
<rect x="98.6499" y="33.54" width="0.642857" height="1.25" fill="black"/>
<rect x="96.7213" y="30.415" width="1.28571" height="0.625" fill="black"/>
<rect x="96.0785" y="29.79" width="1.28572" height="0.625" fill="black"/>
<rect x="95.4356" y="29.165" width="1.28572" height="0.625" fill="black"/>
<rect x="94.7928" y="28.54" width="1.28571" height="0.625" fill="black"/>
<rect x="94.1499" y="27.915" width="1.28571" height="0.625" fill="black"/>
<rect x="92.2213" y="26.665" width="1.28572" height="0.625" fill="black"/>
<rect x="90.9356" y="26.04" width="1.28571" height="0.625" fill="black"/>
<rect x="89.007" y="25.415" width="1.92857" height="0.625" fill="black"/>
<rect x="77.4356" y="26.665" width="1.28571" height="0.625" fill="black"/>
<rect x="76.7928" y="27.29" width="0.642857" height="0.625" fill="black"/>
<rect x="76.1499" y="27.915" width="0.642858" height="0.625" fill="black"/>
<rect x="75.507" y="28.54" width="0.642858" height="0.625" fill="black"/>
<rect x="74.8642" y="29.165" width="0.642857" height="0.625" fill="black"/>
<rect x="73.5785" y="30.415" width="0.642857" height="1.25" fill="black"/>
<rect x="72.9356" y="31.665" width="0.642858" height="1.25" fill="black"/>
</g>
<defs>
<clipPath id="clip0_2739_25127">
<rect width="81" height="40" fill="white" transform="translate(62.6499 13.54)"/>
</clipPath>
</defs>
</svg>
