<?xml version="1.0" encoding="UTF-8"?>
<svg width="116px" height="10px" viewBox="0 0 116 10" version="1.1" xmlns="http://www.w3.org/2000/svg" xmlns:xlink="http://www.w3.org/1999/xlink">
    <title>Flipper</title>
    <g id="Page-1" stroke="none" stroke-width="1" fill="none" fill-rule="evenodd">
        <path d="M75.0786,3.276 L74.9106,3.633 L74.5466,3.738 L62.8286,3.738 L63.0246,2.338 L74.7426,2.338 L75.0716,2.443 L75.1346,2.8 L75.0786,3.276 Z M77.6126,0.539 C77.3136,0.18 76.7866,0 76.0306,0 L60.6736,0 L59.3016,9.799 L61.9886,9.799 L62.5076,6.076 L75.1766,6.076 C75.9326,6.076 76.5116,5.896 76.9126,5.537 C77.3136,5.177 77.5656,4.634 77.6686,3.906 L77.9066,2.17 C78.0096,1.442 77.9116,0.898 77.6126,0.539 L77.6126,0.539 Z" id="Fill-1" fill="#E88004"></path>
        <path d="M56.4033,3.276 L56.2353,3.633 L55.8713,3.738 L44.1533,3.738 L44.3503,2.338 L56.0673,2.338 L56.3963,2.443 L56.4593,2.8 L56.4033,3.276 Z M58.9373,0.539 C58.6383,0.18 58.1113,0 57.3553,0 L41.9983,0 L40.6263,9.799 L43.3143,9.799 L43.8323,6.076 L56.5013,6.076 C57.2573,6.076 57.8363,5.896 58.2373,5.537 C58.6383,5.177 58.8903,4.634 58.9933,3.906 L59.2313,2.17 C59.3343,1.442 59.2363,0.898 58.9373,0.539 L58.9373,0.539 Z" id="Fill-3" fill="#E88004"></path>
        <path d="M112.3735,3.276 L112.2125,3.633 L111.8415,3.738 L100.0675,3.738 L100.2635,2.338 L112.0375,2.338 L112.3735,2.443 L112.4295,2.8 L112.3735,3.276 Z M114.9415,0.504 C114.6575,0.168 114.1455,0 113.4085,0 L97.9115,0 L96.5395,9.799 L99.2275,9.799 L99.7455,6.062 L111.4065,6.062 C111.7705,6.062 111.9345,6.253 111.8965,6.636 L111.4485,9.799 L114.1375,9.799 L114.5155,7.098 L114.5435,6.286 L114.3475,5.621 L113.8565,5.152 L113.0175,4.914 C113.6805,4.867 114.1695,4.685 114.4865,4.368 C114.8045,4.05 115.0095,3.579 115.1025,2.954 L115.2155,2.1 C115.3175,1.372 115.2275,0.84 114.9415,0.504 L114.9415,0.504 Z" id="Fill-5" fill="#E88004"></path>
        <polygon id="Fill-7" fill="#E88004" points="96.6235 0.0002 79.3485 0.0002 77.9765 9.7992 95.2515 9.7992 95.5735 7.4612 80.9865 7.4612 81.1825 6.0622 94.3695 6.0622 94.6915 3.7382 81.5045 3.7382 81.7005 2.3382 96.2875 2.3382"></polygon>
        <polygon id="Fill-9" fill="#E88004" points="36.3701 9.7995 39.0581 9.7995 40.4301 0.0005 37.7421 0.0005"></polygon>
        <polygon id="Fill-11" fill="#E88004" points="35.6421 7.4616 21.2511 7.4616 22.3011 0.0006 19.6131 0.0006 18.2411 9.7996 35.3201 9.7996"></polygon>
        <polygon id="Fill-13" fill="#E88004" points="18.563 0.0002 1.372 0.0002 0 9.7992 2.688 9.7992 3.206 6.0762 16.309 6.0762 16.631 3.7382 3.527 3.7382 3.724 2.3382 18.227 2.3382"></polygon>
    </g>
</svg>