<svg width="143" height="30" viewBox="0 0 143 30" fill="none" xmlns="http://www.w3.org/2000/svg">
<mask id="path-1-inside-1_1_3438" fill="white">
<path fill-rule="evenodd" clip-rule="evenodd" d="M113.559 0V9H122.571V0H113.559ZM119.567 3H116.563V6H119.567V3ZM0 9V3H29.4412V18H26.437V21H23.4328V24H20.4286V27H14.4202V30H0V24H11.416V21H17.4244V18H20.4286V15H23.4328V9H0ZM41.458 3H35.4496V15H41.458V3ZM47.4664 3H53.4748V21H50.4706V24H47.4664V27H44.4622V30H35.4496V24H41.458V21H44.4622V18H47.4664V3ZM59.4832 15H62.4874V21H59.4832V15ZM68.4958 15H65.4916V21H68.4958V15ZM71.5 15H74.5042V24H71.5V15ZM68.4958 27V24H71.5V27H68.4958ZM68.4958 27V30H62.4874V27H68.4958ZM80.5126 21H83.5168V15H86.521V9H89.5252V3H95.5336V12H92.5294V18H89.5252V24H86.521V30H80.5126V21ZM107.55 3H101.542V12H104.546V18H107.55V24H110.555V30H116.563V21H113.559V15H110.555V9H107.55V3ZM143 12H125.576V18H143V12Z"/>
</mask>
<path fill-rule="evenodd" clip-rule="evenodd" d="M113.559 0V9H122.571V0H113.559ZM119.567 3H116.563V6H119.567V3ZM0 9V3H29.4412V18H26.437V21H23.4328V24H20.4286V27H14.4202V30H0V24H11.416V21H17.4244V18H20.4286V15H23.4328V9H0ZM41.458 3H35.4496V15H41.458V3ZM47.4664 3H53.4748V21H50.4706V24H47.4664V27H44.4622V30H35.4496V24H41.458V21H44.4622V18H47.4664V3ZM59.4832 15H62.4874V21H59.4832V15ZM68.4958 15H65.4916V21H68.4958V15ZM71.5 15H74.5042V24H71.5V15ZM68.4958 27V24H71.5V27H68.4958ZM68.4958 27V30H62.4874V27H68.4958ZM80.5126 21H83.5168V15H86.521V9H89.5252V3H95.5336V12H92.5294V18H89.5252V24H86.521V30H80.5126V21ZM107.55 3H101.542V12H104.546V18H107.55V24H110.555V30H116.563V21H113.559V15H110.555V9H107.55V3ZM143 12H125.576V18H143V12Z" fill="white"/>
<path d="M113.559 9H112.559V10H113.559V9ZM113.559 0V-1H112.559V0H113.559ZM122.571 9V10H123.571V9H122.571ZM122.571 0H123.571V-1H122.571V0ZM119.567 3H120.567V2H119.567V3ZM116.563 3V2H115.563V3H116.563ZM116.563 6H115.563V7H116.563V6ZM119.567 6V7H120.567V6H119.567ZM0 3V2H-1V3H0ZM0 9H-1V10H0V9ZM29.4412 3H30.4412V2H29.4412V3ZM29.4412 18V19H30.4412V18H29.4412ZM26.437 18V17H25.437V18H26.437ZM26.437 21V22H27.437V21H26.437ZM23.4328 21V20H22.4328V21H23.4328ZM23.4328 24V25H24.4328V24H23.4328ZM20.4286 24V23H19.4286V24H20.4286ZM20.4286 27V28H21.4286V27H20.4286ZM14.4202 27V26H13.4202V27H14.4202ZM14.4202 30V31H15.4202V30H14.4202ZM0 30H-1V31H0V30ZM0 24V23H-1V24H0ZM11.416 24V25H12.416V24H11.416ZM11.416 21V20H10.416V21H11.416ZM17.4244 21V22H18.4244V21H17.4244ZM17.4244 18V17H16.4244V18H17.4244ZM20.4286 18V19H21.4286V18H20.4286ZM20.4286 15V14H19.4286V15H20.4286ZM23.4328 15V16H24.4328V15H23.4328ZM23.4328 9H24.4328V8H23.4328V9ZM35.4496 3V2H34.4496V3H35.4496ZM41.458 3H42.458V2H41.458V3ZM35.4496 15H34.4496V16H35.4496V15ZM41.458 15V16H42.458V15H41.458ZM53.4748 3H54.4748V2H53.4748V3ZM47.4664 3V2H46.4664V3H47.4664ZM53.4748 21V22H54.4748V21H53.4748ZM50.4706 21V20H49.4706V21H50.4706ZM50.4706 24V25H51.4706V24H50.4706ZM47.4664 24V23H46.4664V24H47.4664ZM47.4664 27V28H48.4664V27H47.4664ZM44.4622 27V26H43.4622V27H44.4622ZM44.4622 30V31H45.4622V30H44.4622ZM35.4496 30H34.4496V31H35.4496V30ZM35.4496 24V23H34.4496V24H35.4496ZM41.458 24V25H42.458V24H41.458ZM41.458 21V20H40.458V21H41.458ZM44.4622 21V22H45.4622V21H44.4622ZM44.4622 18V17H43.4622V18H44.4622ZM47.4664 18V19H48.4664V18H47.4664ZM62.4874 15H63.4874V14H62.4874V15ZM59.4832 15V14H58.4832V15H59.4832ZM62.4874 21V22H63.4874V21H62.4874ZM59.4832 21H58.4832V22H59.4832V21ZM65.4916 15V14H64.4916V15H65.4916ZM68.4958 15H69.4958V14H68.4958V15ZM65.4916 21H64.4916V22H65.4916V21ZM68.4958 21V22H69.4958V21H68.4958ZM74.5042 15H75.5042V14H74.5042V15ZM71.5 15V14H70.5V15H71.5ZM74.5042 24V25H75.5042V24H74.5042ZM68.4958 24V23H67.4958V24H68.4958ZM71.5 27V28H72.5V27H71.5ZM68.4958 30V31H69.4958V30H68.4958ZM62.4874 30H61.4874V31H62.4874V30ZM62.4874 27V26H61.4874V27H62.4874ZM83.5168 21V22H84.5168V21H83.5168ZM80.5126 21V20H79.5126V21H80.5126ZM83.5168 15V14H82.5168V15H83.5168ZM86.521 15V16H87.521V15H86.521ZM86.521 9V8H85.521V9H86.521ZM89.5252 9V10H90.5252V9H89.5252ZM89.5252 3V2H88.5252V3H89.5252ZM95.5336 3H96.5336V2H95.5336V3ZM95.5336 12V13H96.5336V12H95.5336ZM92.5294 12V11H91.5294V12H92.5294ZM92.5294 18V19H93.5294V18H92.5294ZM89.5252 18V17H88.5252V18H89.5252ZM89.5252 24V25H90.5252V24H89.5252ZM86.521 24V23H85.521V24H86.521ZM86.521 30V31H87.521V30H86.521ZM80.5126 30H79.5126V31H80.5126V30ZM101.542 3V2H100.542V3H101.542ZM107.55 3H108.55V2H107.55V3ZM101.542 12H100.542V13H101.542V12ZM104.546 12H105.546V11H104.546V12ZM104.546 18H103.546V19H104.546V18ZM107.55 18H108.55V17H107.55V18ZM107.55 24H106.55V25H107.55V24ZM110.555 24H111.555V23H110.555V24ZM110.555 30H109.555V31H110.555V30ZM116.563 30V31H117.563V30H116.563ZM116.563 21H117.563V20H116.563V21ZM113.559 21H112.559V22H113.559V21ZM113.559 15H114.559V14H113.559V15ZM110.555 15H109.555V16H110.555V15ZM110.555 9H111.555V8H110.555V9ZM107.55 9H106.55V10H107.55V9ZM125.576 12V11H124.576V12H125.576ZM143 12H144V11H143V12ZM125.576 18H124.576V19H125.576V18ZM143 18V19H144V18H143ZM114.559 9V0H112.559V9H114.559ZM122.571 8H113.559V10H122.571V8ZM121.571 0V9H123.571V0H121.571ZM113.559 1H122.571V-1H113.559V1ZM119.567 2H116.563V4H119.567V2ZM115.563 3V6H117.563V3H115.563ZM116.563 7H119.567V5H116.563V7ZM120.567 6V3H118.567V6H120.567ZM-1 3V9H1V3H-1ZM29.4412 2H0V4H29.4412V2ZM30.4412 18V3H28.4412V18H30.4412ZM26.437 19H29.4412V17H26.437V19ZM27.437 21V18H25.437V21H27.437ZM23.4328 22H26.437V20H23.4328V22ZM24.4328 24V21H22.4328V24H24.4328ZM20.4286 25H23.4328V23H20.4286V25ZM21.4286 27V24H19.4286V27H21.4286ZM14.4202 28H20.4286V26H14.4202V28ZM15.4202 30V27H13.4202V30H15.4202ZM0 31H14.4202V29H0V31ZM-1 24V30H1V24H-1ZM11.416 23H0V25H11.416V23ZM10.416 21V24H12.416V21H10.416ZM17.4244 20H11.416V22H17.4244V20ZM16.4244 18V21H18.4244V18H16.4244ZM20.4286 17H17.4244V19H20.4286V17ZM19.4286 15V18H21.4286V15H19.4286ZM23.4328 14H20.4286V16H23.4328V14ZM22.4328 9V15H24.4328V9H22.4328ZM0 10H23.4328V8H0V10ZM35.4496 4H41.458V2H35.4496V4ZM36.4496 15V3H34.4496V15H36.4496ZM41.458 14H35.4496V16H41.458V14ZM40.458 3V15H42.458V3H40.458ZM53.4748 2H47.4664V4H53.4748V2ZM54.4748 21V3H52.4748V21H54.4748ZM50.4706 22H53.4748V20H50.4706V22ZM51.4706 24V21H49.4706V24H51.4706ZM47.4664 25H50.4706V23H47.4664V25ZM48.4664 27V24H46.4664V27H48.4664ZM44.4622 28H47.4664V26H44.4622V28ZM45.4622 30V27H43.4622V30H45.4622ZM35.4496 31H44.4622V29H35.4496V31ZM34.4496 24V30H36.4496V24H34.4496ZM41.458 23H35.4496V25H41.458V23ZM40.458 21V24H42.458V21H40.458ZM44.4622 20H41.458V22H44.4622V20ZM43.4622 18V21H45.4622V18H43.4622ZM47.4664 17H44.4622V19H47.4664V17ZM46.4664 3V18H48.4664V3H46.4664ZM62.4874 14H59.4832V16H62.4874V14ZM63.4874 21V15H61.4874V21H63.4874ZM59.4832 22H62.4874V20H59.4832V22ZM58.4832 15V21H60.4832V15H58.4832ZM65.4916 16H68.4958V14H65.4916V16ZM66.4916 21V15H64.4916V21H66.4916ZM68.4958 20H65.4916V22H68.4958V20ZM67.4958 15V21H69.4958V15H67.4958ZM74.5042 14H71.5V16H74.5042V14ZM75.5042 24V15H73.5042V24H75.5042ZM71.5 25H74.5042V23H71.5V25ZM70.5 15V24H72.5V15H70.5ZM67.4958 24V27H69.4958V24H67.4958ZM71.5 23H68.4958V25H71.5V23ZM72.5 27V24H70.5V27H72.5ZM68.4958 28H71.5V26H68.4958V28ZM69.4958 30V27H67.4958V30H69.4958ZM62.4874 31H68.4958V29H62.4874V31ZM61.4874 27V30H63.4874V27H61.4874ZM68.4958 26H62.4874V28H68.4958V26ZM83.5168 20H80.5126V22H83.5168V20ZM82.5168 15V21H84.5168V15H82.5168ZM86.521 14H83.5168V16H86.521V14ZM85.521 9V15H87.521V9H85.521ZM89.5252 8H86.521V10H89.5252V8ZM88.5252 3V9H90.5252V3H88.5252ZM95.5336 2H89.5252V4H95.5336V2ZM96.5336 12V3H94.5336V12H96.5336ZM92.5294 13H95.5336V11H92.5294V13ZM93.5294 18V12H91.5294V18H93.5294ZM89.5252 19H92.5294V17H89.5252V19ZM90.5252 24V18H88.5252V24H90.5252ZM86.521 25H89.5252V23H86.521V25ZM87.521 30V24H85.521V30H87.521ZM80.5126 31H86.521V29H80.5126V31ZM79.5126 21V30H81.5126V21H79.5126ZM101.542 4H107.55V2H101.542V4ZM102.542 12V3H100.542V12H102.542ZM104.546 11H101.542V13H104.546V11ZM105.546 18V12H103.546V18H105.546ZM107.55 17H104.546V19H107.55V17ZM108.55 24V18H106.55V24H108.55ZM110.555 23H107.55V25H110.555V23ZM111.555 30V24H109.555V30H111.555ZM116.563 29H110.555V31H116.563V29ZM115.563 21V30H117.563V21H115.563ZM113.559 22H116.563V20H113.559V22ZM112.559 15V21H114.559V15H112.559ZM110.555 16H113.559V14H110.555V16ZM109.555 9V15H111.555V9H109.555ZM107.55 10H110.555V8H107.55V10ZM106.55 3V9H108.55V3H106.55ZM125.576 13H143V11H125.576V13ZM126.576 18V12H124.576V18H126.576ZM143 17H125.576V19H143V17ZM142 12V18H144V12H142Z" fill="white" mask="url(#path-1-inside-1_1_3438)"/>
</svg>
