<svg width="32" height="32" viewBox="0 0 32 32" fill="none" xmlns="http://www.w3.org/2000/svg">
<path fill-rule="evenodd" clip-rule="evenodd" d="M15.1814 1.61418C15.6629 1.23969 16.3371 1.23969 16.8186 1.61418L28.8186 10.9475C29.1434 11.2001 29.3334 11.5885 29.3334 12V26.6666C29.3334 27.7275 28.9119 28.7449 28.1618 29.4951C27.4116 30.2452 26.3942 30.6666 25.3334 30.6666H6.66669C5.60582 30.6666 4.5884 30.2452 3.83826 29.4951C3.08811 28.7449 2.66669 27.7275 2.66669 26.6666V12C2.66669 11.5885 2.85665 11.2001 3.18143 10.9475L15.1814 1.61418ZM5.33335 12.6521V26.6666C5.33335 27.0203 5.47383 27.3594 5.72388 27.6095C5.97393 27.8595 6.31307 28 6.66669 28H25.3334C25.687 28 26.0261 27.8595 26.2762 27.6095C26.5262 27.3594 26.6667 27.0203 26.6667 26.6666V12.6521L16 4.35579L5.33335 12.6521Z" fill="white"/>
<path fill-rule="evenodd" clip-rule="evenodd" d="M10.6667 15.8889C10.6667 15.2139 11.2636 14.6667 12 14.6667H20C20.7364 14.6667 21.3334 15.2139 21.3334 15.8889V28.1111C21.3334 28.7861 20.7364 29.3334 20 29.3334C19.2636 29.3334 18.6667 28.7861 18.6667 28.1111V17.1111H13.3334V28.1111C13.3334 28.7861 12.7364 29.3334 12 29.3334C11.2636 29.3334 10.6667 28.7861 10.6667 28.1111V15.8889Z" fill="white"/>
</svg>
