<svg width="347" height="151" viewBox="0 0 347 151" fill="none" xmlns="http://www.w3.org/2000/svg">
<rect y="5" width="347" height="133" rx="12" fill="#F2F2F2"/>
<g filter="url(#filter0_d_525_39432)">
<rect x="38" y="13" width="270" height="117" rx="12" fill="white" shape-rendering="crispEdges"/>
<line x1="172.5" y1="128" x2="172.5" y2="51" stroke="#E9E9E9"/>
<rect x="49" y="90" width="113" height="29" rx="8" fill="#E9E9E9"/>
<path fill-rule="evenodd" clip-rule="evenodd" d="M104 86C110.627 86 116 80.6274 116 74C116 67.3726 110.627 62 104 62C97.3726 62 92 67.3726 92 74C92 80.6274 97.3726 86 104 86ZM103.124 69.523C103.124 69.026 103.526 68.623 104.024 68.623C104.521 68.623 104.924 69.026 104.924 69.523V73.123H108.524C109.021 73.123 109.424 73.526 109.424 74.023C109.424 74.5201 109.021 74.923 108.524 74.923H104.924V78.523C104.924 79.0201 104.521 79.423 104.024 79.423C103.526 79.423 103.124 79.0201 103.124 78.523V74.923H99.5235C99.0265 74.923 98.6235 74.5201 98.6235 74.023C98.6235 73.526 99.0265 73.123 99.5235 73.123H103.124V69.523Z" fill="#E9E9E9"/>
<line x1="38" y1="50.5" x2="308" y2="50.5" stroke="#E9E9E9"/>
<g clip-path="url(#clip0_525_39432)">
<path fill-rule="evenodd" clip-rule="evenodd" d="M291.989 38.1919C292.224 38.436 292.605 38.436 292.839 38.1919L296.449 34.4419C296.684 34.1979 296.684 33.8021 296.449 33.5581L292.839 29.8081C292.605 29.564 292.224 29.564 291.989 29.8081C291.754 30.0521 291.754 30.4479 291.989 30.6919L295.173 34L291.989 37.3081C291.754 37.5521 291.754 37.9479 291.989 38.1919Z" fill="#C1C1C1"/>
</g>
<path d="M71.191 37H72.2848V34.0508H75.3121V33.1279H72.2848V30.8965H75.5904V29.9541H71.191V37ZM76.7113 37H81.1059V36.0576H77.8051V29.9541H76.7113V37ZM82.1926 37H83.2863V29.9541H82.1926V37ZM84.7539 37H85.8477V34.5928H87.498C88.8799 34.5928 89.8369 33.6504 89.8369 32.2734V32.2637C89.8369 30.8818 88.8799 29.9541 87.498 29.9541H84.7539V37ZM87.2246 30.877C88.1719 30.877 88.7236 31.3896 88.7236 32.2686V32.2783C88.7236 33.1621 88.1719 33.6748 87.2246 33.6748H85.8477V30.877H87.2246ZM90.948 37H92.0418V34.5928H93.6922C95.074 34.5928 96.0311 33.6504 96.0311 32.2734V32.2637C96.0311 30.8818 95.074 29.9541 93.6922 29.9541H90.948V37ZM93.4187 30.877C94.366 30.877 94.9178 31.3896 94.9178 32.2686V32.2783C94.9178 33.1621 94.366 33.6748 93.4187 33.6748H92.0418V30.877H93.4187ZM97.1422 37H101.615V36.0576H98.2359V33.8652H101.434V32.957H98.2359V30.8965H101.615V29.9541H97.1422V37ZM102.897 37H103.991V34.29H105.534L106.969 37H108.234L106.652 34.1191C107.511 33.8311 108.019 33.0596 108.019 32.1123V32.1025C108.019 30.7939 107.121 29.9541 105.675 29.9541H102.897V37ZM103.991 33.4014V30.8721H105.534C106.378 30.8721 106.896 31.3506 106.896 32.1318V32.1416C106.896 32.9424 106.408 33.4014 105.568 33.4014H103.991Z" fill="black"/>
<g clip-path="url(#clip1_525_39432)">
<rect x="49" y="24" width="17" height="17" rx="4" fill="#FE9111"/>
<path d="M61.3662 40.8521C61.3662 40.6278 61.3662 40.3203 61.3662 40.096H61.1402C61.1402 39.8717 61.1402 39.5643 61.1402 39.34H60.9143C60.9143 38.9368 60.9143 38.4832 60.9143 38.0799H61.1402C61.1402 37.9539 61.1402 37.7019 61.1402 37.5759C61.4226 37.5759 61.7616 37.5759 62.044 37.5759V37.3239C62.2451 37.3239 62.5208 37.3239 62.7219 37.3239V37.0719C62.923 37.0719 63.1986 37.0719 63.3997 37.0719V36.8199C63.6008 36.8199 63.8765 36.8199 64.0776 36.8199V36.5679C64.1905 36.5679 64.4165 36.5679 64.5295 36.5679V36.3159H64.7554V36.0638H64.9814V35.8118H65.2073V35.5598H65.4333C65.4333 35.1566 65.4333 34.703 65.4333 34.2998H65.2073V34.0478C63.9307 34.0478 62.6428 34.0478 61.3662 34.0478V33.7957H61.5921V33.5437H61.8181V33.2917H62.044V33.0397H62.27V32.7877H62.4959V32.5357H62.7219V32.2837H62.9478V32.0317H63.1738V31.7797H63.3997V31.5276H63.6257V31.2756H63.8516V31.0236H64.0776V30.7716H64.3035V30.5196H64.5295V30.2676H64.7554V30.0156H64.9814C64.9814 29.7006 64.9814 29.3225 64.9814 29.0075H64.7554V28.7555C64.5543 28.7555 64.2786 28.7555 64.0776 28.7555V28.5035C63.4065 28.5035 62.7151 28.5035 62.044 28.5035V28.7555C61.931 28.7555 61.7051 28.7555 61.5921 28.7555V29.0075C61.4791 29.0075 61.2532 29.0075 61.1402 29.0075V29.2595C61.0272 29.2595 60.8013 29.2595 60.6883 29.2595V29.0075H60.4624C60.4624 28.8815 60.4624 28.6295 60.4624 28.5035H60.2364C60.2364 28.3775 60.2364 28.1255 60.2364 27.9995H60.0105V27.7475H59.7845V27.4955H59.5586V27.2435H59.3326V26.9914C59.2196 26.9914 58.9937 26.9914 58.8807 26.9914V26.7394C58.7677 26.7394 58.5418 26.7394 58.4288 26.7394V26.4874C58.2277 26.4874 57.9521 26.4874 57.751 26.4874V26.2354C57.3895 26.2354 56.9827 26.2354 56.6212 26.2354V25.9834C55.496 25.9834 54.3572 25.9834 53.232 25.9834V26.2354C52.9495 26.2354 52.6106 26.2354 52.3282 26.2354V26.4874C52.1271 26.4874 51.8514 26.4874 51.6503 26.4874V26.7394H51.4244V26.9914C51.3114 26.9914 51.0855 26.9914 50.9725 26.9914V27.2435C50.8595 27.2435 50.6336 27.2435 50.5206 27.2435V27.4955H50.2946V27.7475H50.0687V27.9995H49.8427V28.2515H49.6168V28.5035H49.3908C49.3908 28.6295 49.3908 28.8815 49.3908 29.0075H49.1649C49.1649 29.1335 49.1649 29.3856 49.1649 29.5116H48.9389C48.9389 29.6376 48.9389 29.8896 48.9389 30.0156H48.713C48.713 30.1416 48.713 30.3936 48.713 30.5196H48.487C48.487 30.6456 48.487 30.8976 48.487 31.0236H48.2611C48.2611 31.1496 48.2611 31.4016 48.2611 31.5276H48.0352C48.0352 31.7519 48.0352 32.0594 48.0352 32.2837H47.8092C47.8092 32.5987 47.8092 32.9767 47.8092 33.2917H47.5833C47.5833 34.0402 47.5833 34.8114 47.5833 35.5598H47.8092C47.8092 34.897 47.8092 34.2065 47.8092 33.5437H48.0352C48.0352 33.2287 48.0352 32.8507 48.0352 32.5357H48.2611C48.2611 32.3114 48.2611 32.0039 48.2611 31.7797H48.487C48.487 31.6537 48.487 31.4016 48.487 31.2756H48.713C48.713 31.1496 48.713 30.8976 48.713 30.7716H48.9389C48.9389 30.6456 48.9389 30.3936 48.9389 30.2676H49.1649C49.1649 30.1416 49.1649 29.8896 49.1649 29.7636H49.3908C49.3908 29.6376 49.3908 29.3856 49.3908 29.2595H49.6168C49.6168 29.1335 49.6168 28.8815 49.6168 28.7555H49.8427V28.5035H50.0687V28.2515H50.2946V27.9995H50.5206V27.7475H50.7465V27.4955C50.8595 27.4955 51.0855 27.4955 51.1984 27.4955V27.2435C51.3114 27.2435 51.5374 27.2435 51.6503 27.2435V26.9914C52.5474 26.9914 53.4647 26.9914 54.3617 26.9914V26.7394C53.7675 26.7394 53.1484 26.7394 52.5541 26.7394V26.4874C52.8366 26.4874 53.1755 26.4874 53.4579 26.4874V26.2354C54.4318 26.2354 55.4214 26.2354 56.3953 26.2354V26.4874H56.6212V26.7394H56.8472V26.4874H57.0731V26.7394C57.4346 26.7394 57.8414 26.7394 58.2029 26.7394C58.2029 26.8654 58.2029 27.1174 58.2029 27.2435C58.4853 27.2435 58.8242 27.2435 59.1067 27.2435V27.4955H59.3326V27.7475H59.5586V27.9995H59.7845V28.2515H60.0105C60.0105 28.4758 60.0105 28.7832 60.0105 29.0075H59.7845V29.2595C59.9856 29.2595 60.2613 29.2595 60.4624 29.2595C60.4624 29.3856 60.4624 29.6376 60.4624 29.7636C60.5753 29.7636 60.8013 29.7636 60.9143 29.7636V29.5116C61.0272 29.5116 61.2532 29.5116 61.3662 29.5116V29.2595C61.4791 29.2595 61.7051 29.2595 61.8181 29.2595V29.0075C61.931 29.0075 62.157 29.0075 62.27 29.0075V28.7555C62.7874 28.7555 63.3342 28.7555 63.8516 28.7555V29.0075C64.0527 29.0075 64.3284 29.0075 64.5295 29.0075V29.2595H64.7554V29.5116C64.473 29.5116 64.134 29.5116 63.8516 29.5116V29.7636C63.6505 29.7636 63.3749 29.7636 63.1738 29.7636V30.0156C63.0608 30.0156 62.8348 30.0156 62.7219 30.0156V30.2676C62.6089 30.2676 62.3829 30.2676 62.27 30.2676V30.5196H62.044V30.7716H61.8181V31.0236H61.5921V31.2756H61.3662V31.5276H61.1402V31.7797H60.9143V32.0317H60.6883V32.2837H60.4624V32.5357H60.2364V32.7877H60.0105V33.0397H59.7845V33.2917H59.5586V33.5437H59.3326V33.7957H59.1067V34.0478H58.8807V34.2998H58.6548V34.5518H58.4288V34.8038C58.3158 34.8038 58.0899 34.8038 57.9769 34.8038V35.0558C57.8639 35.0558 57.638 35.0558 57.525 35.0558V35.3078C57.3239 35.3078 57.0483 35.3078 56.8472 35.3078V35.5598C56.4857 35.5598 56.0789 35.5598 55.7174 35.5598V35.8118C57.6719 35.8118 59.6376 35.8118 61.5921 35.8118V35.5598C60.6951 35.5598 59.7777 35.5598 58.8807 35.5598C58.8807 35.4338 58.8807 35.1818 58.8807 35.0558H59.1067V34.8038H59.3326V34.5518H59.5586V34.2998C60.076 34.2998 60.6228 34.2998 61.1402 34.2998V34.5518C61.4226 34.5518 61.7616 34.5518 62.044 34.5518V34.2998C62.941 34.2998 63.8584 34.2998 64.7554 34.2998V34.5518C64.8684 34.5518 65.0943 34.5518 65.2073 34.5518C65.2073 34.7761 65.2073 35.0835 65.2073 35.3078H64.9814V35.5598H64.7554V35.8118H64.5295V36.0638H64.3035V36.3159C64.1905 36.3159 63.9646 36.3159 63.8516 36.3159V36.5679C63.6505 36.5679 63.3749 36.5679 63.1738 36.5679V36.8199C62.9727 36.8199 62.697 36.8199 62.4959 36.8199V37.0719C62.2948 37.0719 62.0192 37.0719 61.8181 37.0719V37.3239C61.5356 37.3239 61.1967 37.3239 60.9143 37.3239V37.5759C60.6318 37.5759 60.2929 37.5759 60.0105 37.5759V37.8279C59.8094 37.8279 59.5337 37.8279 59.3326 37.8279V38.0799C59.2196 38.0799 58.9937 38.0799 58.8807 38.0799V38.3319C58.7677 38.3319 58.5418 38.3319 58.4288 38.3319C58.4288 38.458 58.4288 38.71 58.4288 38.836H58.6548V38.584H58.8807V38.836H59.1067V39.088H59.3326V38.836H59.5586V39.088H59.7845V39.34H60.0105V39.088H60.2364V39.34H60.4624V39.592H60.6883V39.844H60.9143V40.096H60.6883V40.348C60.8013 40.348 61.0272 40.348 61.1402 40.348C61.1402 40.5723 61.1402 40.8798 61.1402 41.1041C61.2532 41.1041 61.4791 41.1041 61.5921 41.1041V40.8521H61.3662Z" fill="black"/>
<path d="M61.1402 40.6001V40.3481C61.0272 40.3481 60.8013 40.3481 60.6883 40.3481V40.6001H60.4624V40.3481H60.2364V40.6001H60.0105V40.3481H59.7845V40.096H59.5586V40.3481H59.3326V40.096H59.1067V40.3481H58.8807V40.096H58.6548V39.844H58.4288V39.592H58.2029V39.34H57.9769V39.592H57.751V39.34H57.525V39.088H57.751V38.836H57.525V38.584H57.751V38.836H57.9769V38.584H58.2029V38.836H58.4288C58.4288 38.71 58.4288 38.458 58.4288 38.332C58.5418 38.332 58.7677 38.332 58.8807 38.332V38.08C58.9937 38.08 59.2196 38.08 59.3326 38.08V37.8279C59.5337 37.8279 59.8094 37.8279 60.0105 37.8279V37.5759C60.2929 37.5759 60.6318 37.5759 60.9143 37.5759V37.3239C61.1967 37.3239 61.5356 37.3239 61.8181 37.3239V37.0719C62.0192 37.0719 62.2948 37.0719 62.4959 37.0719V36.8199C62.697 36.8199 62.9727 36.8199 63.1738 36.8199V36.5679C63.3749 36.5679 63.6505 36.5679 63.8516 36.5679V36.3159C63.9646 36.3159 64.1905 36.3159 64.3035 36.3159V36.0639H64.5295V35.8118H64.7554V35.5598H64.9814V35.3078H65.2073C65.2073 35.0835 65.2073 34.7761 65.2073 34.5518C65.0943 34.5518 64.8684 34.5518 64.7554 34.5518V34.8038C64.6424 34.8038 64.4165 34.8038 64.3035 34.8038V35.0558C64.1024 35.0558 63.8268 35.0558 63.6257 35.0558V35.3078C63.3432 35.3078 63.0043 35.3078 62.7219 35.3078V35.5598C62.3603 35.5598 61.9536 35.5598 61.5921 35.5598V35.8118C59.6377 35.8118 57.6719 35.8118 55.7174 35.8118V35.5598C55.6045 35.5598 55.3785 35.5598 55.2655 35.5598V35.3078H55.0396V35.0558H55.2655V35.3078C55.3785 35.3078 55.6045 35.3078 55.7174 35.3078V35.5598C56.0789 35.5598 56.4857 35.5598 56.8472 35.5598V35.3078C57.0483 35.3078 57.3239 35.3078 57.525 35.3078V35.0558C57.638 35.0558 57.8639 35.0558 57.9769 35.0558V34.8038C58.0899 34.8038 58.3158 34.8038 58.4288 34.8038V34.5518H58.6548V34.2998H58.8807V34.0478H59.1067V33.7958H59.3326V33.5437H59.5586V33.2917H59.7845V33.0397H60.0105V32.7877H60.2364V32.5357H60.4624V32.2837H60.6883V32.0317H60.9143V31.7797H61.1402V31.5277H61.3662V31.2756H61.5921V31.0236H61.8181V30.7716H62.044V30.5196H62.27V30.2676C62.3829 30.2676 62.6089 30.2676 62.7219 30.2676V30.0156C62.8348 30.0156 63.0608 30.0156 63.1738 30.0156V29.7636C63.3749 29.7636 63.6505 29.7636 63.8516 29.7636V29.5116C64.134 29.5116 64.473 29.5116 64.7554 29.5116V29.2596H64.5295V29.0075C64.3284 29.0075 64.0527 29.0075 63.8516 29.0075V28.7555C63.3342 28.7555 62.7874 28.7555 62.27 28.7555V29.0075C62.157 29.0075 61.931 29.0075 61.8181 29.0075V29.2596C61.7051 29.2596 61.4791 29.2596 61.3662 29.2596V29.5116C61.2532 29.5116 61.0272 29.5116 60.9143 29.5116V29.7636C60.8013 29.7636 60.5753 29.7636 60.4624 29.7636V30.0156H60.2364V30.2676C60.1234 30.2676 59.8975 30.2676 59.7845 30.2676V30.5196H59.5586V30.7716C59.4456 30.7716 59.2196 30.7716 59.1067 30.7716V31.0236H58.8807V31.2756C58.7677 31.2756 58.5418 31.2756 58.4288 31.2756V31.5277H58.2029V31.7797C58.0899 31.7797 57.8639 31.7797 57.751 31.7797V32.0317C57.638 32.0317 57.412 32.0317 57.2991 32.0317V32.2837C57.1861 32.2837 56.9602 32.2837 56.8472 32.2837V32.5357C56.7342 32.5357 56.5083 32.5357 56.3953 32.5357V32.7877C56.1942 32.7877 55.9185 32.7877 55.7174 32.7877C55.7174 32.2106 55.7174 31.6007 55.7174 31.0236H55.4915C55.4915 30.8976 55.4915 30.6456 55.4915 30.5196H55.2655V30.2676H55.0396V30.0156H54.8136V29.7636C54.7007 29.7636 54.4747 29.7636 54.3617 29.7636V29.5116C53.6907 29.5116 52.9993 29.5116 52.3282 29.5116V29.7636C52.2152 29.7636 51.9893 29.7636 51.8763 29.7636V30.0156H51.6503V30.2676H51.4244V30.5196H51.1984C51.1984 30.6456 51.1984 30.8976 51.1984 31.0236H50.9725C50.9725 31.7721 50.9725 32.5433 50.9725 33.2917H51.1984C51.1984 33.4177 51.1984 33.6698 51.1984 33.7958H51.4244V34.0478H51.6503V34.2998H51.8763C51.8763 34.1738 51.8763 33.9218 51.8763 33.7958H51.6503V33.5437H51.4244C51.4244 33.4177 51.4244 33.1657 51.4244 33.0397H51.1984C51.1984 32.4626 51.1984 31.8528 51.1984 31.2756H51.4244C51.4244 31.1496 51.4244 30.8976 51.4244 30.7716H51.6503V30.5196H51.8763V30.2676H52.1022V30.0156C52.2152 30.0156 52.4412 30.0156 52.5541 30.0156V29.7636C53.0716 29.7636 53.6184 29.7636 54.1358 29.7636V30.0156C54.2488 30.0156 54.4747 30.0156 54.5877 30.0156V30.2676H54.8136V30.5196H55.0396V30.7716H55.2655C55.2655 30.8976 55.2655 31.1496 55.2655 31.2756H55.4915C55.4915 31.9384 55.4915 32.6289 55.4915 33.2917C55.3785 33.2917 55.1526 33.2917 55.0396 33.2917V33.0397C54.599 33.0397 54.1245 33.0397 53.6839 33.0397V33.2917C53.4828 33.2917 53.2071 33.2917 53.006 33.2917V33.5437C52.8931 33.5437 52.6671 33.5437 52.5541 33.5437V33.7958H52.3282C52.3282 33.9218 52.3282 34.1738 52.3282 34.2998H52.1022C52.1022 34.5241 52.1022 34.8315 52.1022 35.0558H51.8763V34.8038H51.6503V35.0558H51.4244V35.3078H51.1984V35.5598H50.9725V35.3078H50.7465V35.5598H50.5206V35.3078H50.2946V35.5598H50.0687V35.3078H49.8427V35.0558H49.6168V34.8038H49.3908V34.5518H49.6168V34.2998H49.3908V34.0478H49.6168V33.7958H49.3908V33.5437H49.6168V33.2917H49.8427V33.0397H50.0687V32.7877H50.2946V33.0397H50.5206V32.7877H50.7465C50.7465 32.2106 50.7465 31.6007 50.7465 31.0236H50.9725C50.9725 30.8976 50.9725 30.6456 50.9725 30.5196H51.1984V30.2676H51.4244V30.0156H51.6503V29.7636H51.8763V29.5116C51.9893 29.5116 52.2152 29.5116 52.3282 29.5116V29.2596C52.9993 29.2596 53.6907 29.2596 54.3617 29.2596V29.0075H54.5877V28.7555H54.8136V28.5035H54.5877V28.2515H54.8136V27.9995H55.0396V27.7475H55.2655V27.4955H55.0396V27.2435C54.8385 27.2435 54.5628 27.2435 54.3617 27.2435V26.9915C53.4647 26.9915 52.5474 26.9915 51.6503 26.9915V27.2435C51.5374 27.2435 51.3114 27.2435 51.1984 27.2435V27.4955C51.0855 27.4955 50.8595 27.4955 50.7465 27.4955V27.7475H50.5206V27.9995H50.2946V28.2515H50.0687V28.5035H49.8427V28.7555H49.6168C49.6168 28.8815 49.6168 29.1336 49.6168 29.2596H49.3908C49.3908 29.3856 49.3908 29.6376 49.3908 29.7636H49.1649C49.1649 29.8896 49.1649 30.1416 49.1649 30.2676H48.9389C48.9389 30.3936 48.9389 30.6456 48.9389 30.7716H48.713C48.713 30.8976 48.713 31.1496 48.713 31.2756H48.487C48.487 31.4017 48.487 31.6537 48.487 31.7797H48.2611C48.2611 32.004 48.2611 32.3114 48.2611 32.5357H48.0352C48.0352 32.8507 48.0352 33.2287 48.0352 33.5437H47.8092C47.8092 34.2065 47.8092 34.897 47.8092 35.5598H47.5833C47.5833 37.4046 47.5833 39.2594 47.5833 41.1041C52.1 41.1041 56.6235 41.1041 61.1402 41.1041C61.1402 40.9781 61.1402 40.7261 61.1402 40.6001Z" fill="white"/>
<path d="M60.6884 40.3481H60.4624V40.6002H60.6884V40.3481Z" fill="black"/>
<path d="M60.2364 40.3481H60.0105V40.6002H60.2364V40.3481Z" fill="black"/>
<path d="M60.6884 40.0959H60.4624V40.348H60.6884V40.0959Z" fill="white"/>
<path d="M60.4623 40.0959H60.2363V40.348H60.4623V40.0959Z" fill="black"/>
<path d="M60.2364 40.0959H60.0105V40.348H60.2364V40.0959Z" fill="white"/>
<path d="M60.0104 40.0959H59.7844V40.348H60.0104V40.0959Z" fill="black"/>
<path d="M59.5585 40.0959H59.3325V40.348H59.5585V40.0959Z" fill="black"/>
<path d="M59.1066 40.0959H58.8806V40.348H59.1066V40.0959Z" fill="black"/>
<path d="M60.9142 39.844H60.6882V40.096H60.9142V39.844Z" fill="white"/>
<path d="M60.6884 39.844H60.4624V40.096H60.6884V39.844Z" fill="black"/>
<path d="M60.4623 39.844H60.2363V40.096H60.4623V39.844Z" fill="white"/>
<path d="M60.2364 39.844H60.0105V40.096H60.2364V39.844Z" fill="black"/>
<path d="M60.0104 39.844H59.7844V40.096H60.0104V39.844Z" fill="white"/>
<path d="M59.7845 39.844H59.5586V40.096H59.7845V39.844Z" fill="black"/>
<path d="M59.5585 39.844H59.3325V40.096H59.5585V39.844Z" fill="white"/>
<path d="M59.3326 39.844H59.1067V40.096H59.3326V39.844Z" fill="black"/>
<path d="M59.1066 39.844H58.8806V40.096H59.1066V39.844Z" fill="white"/>
<path d="M58.8807 39.844H58.6548V40.096H58.8807V39.844Z" fill="black"/>
<path d="M60.6884 39.592H60.4624V39.8441H60.6884V39.592Z" fill="white"/>
<path d="M60.4623 39.592H60.2363V39.8441H60.4623V39.592Z" fill="black"/>
<path d="M60.2364 39.592H60.0105V39.8441H60.2364V39.592Z" fill="white"/>
<path d="M60.0104 39.592H59.7844V39.8441H60.0104V39.592Z" fill="black"/>
<path d="M59.7845 39.592H59.5586V39.8441H59.7845V39.592Z" fill="white"/>
<path d="M59.5585 39.592H59.3325V39.8441H59.5585V39.592Z" fill="black"/>
<path d="M59.3326 39.592H59.1067V39.8441H59.3326V39.592Z" fill="white"/>
<path d="M59.1066 39.592H58.8806V39.8441H59.1066V39.592Z" fill="black"/>
<path d="M58.8807 39.592H58.6548V39.8441H58.8807V39.592Z" fill="white"/>
<path d="M58.6547 39.592H58.4287V39.8441H58.6547V39.592Z" fill="black"/>
<path d="M60.4623 39.3401H60.2363V39.5921H60.4623V39.3401Z" fill="white"/>
<path d="M60.2364 39.3401H60.0105V39.5921H60.2364V39.3401Z" fill="black"/>
<path d="M60.0104 39.3401H59.7844V39.5921H60.0104V39.3401Z" fill="white"/>
<path d="M59.7845 39.3401H59.5586V39.5921H59.7845V39.3401Z" fill="black"/>
<path d="M59.5585 39.3401H59.3325V39.5921H59.5585V39.3401Z" fill="white"/>
<path d="M59.3326 39.3401H59.1067V39.5921H59.3326V39.3401Z" fill="black"/>
<path d="M59.1066 39.3401H58.8806V39.5921H59.1066V39.3401Z" fill="white"/>
<path d="M58.8807 39.3401H58.6548V39.5921H58.8807V39.3401Z" fill="black"/>
<path d="M58.6547 39.3401H58.4287V39.5921H58.6547V39.3401Z" fill="white"/>
<path d="M58.4288 39.3401H58.2029V39.5921H58.4288V39.3401Z" fill="black"/>
<path d="M57.9769 39.3401H57.751V39.5921H57.9769V39.3401Z" fill="black"/>
<path d="M60.2364 39.0879H60.0105V39.3399H60.2364V39.0879Z" fill="white"/>
<path d="M59.7845 39.0879H59.5586V39.3399H59.7845V39.0879Z" fill="white"/>
<path d="M59.5585 39.0879H59.3325V39.3399H59.5585V39.0879Z" fill="black"/>
<path d="M59.3326 39.0879H59.1067V39.3399H59.3326V39.0879Z" fill="white"/>
<path d="M59.1066 39.0879H58.8806V39.3399H59.1066V39.0879Z" fill="black"/>
<path d="M58.8807 39.0879H58.6548V39.3399H58.8807V39.0879Z" fill="white"/>
<path d="M58.6547 39.0879H58.4287V39.3399H58.6547V39.0879Z" fill="black"/>
<path d="M58.4288 39.0879H58.2029V39.3399H58.4288V39.0879Z" fill="white"/>
<path d="M58.2028 39.0879H57.9768V39.3399H58.2028V39.0879Z" fill="black"/>
<path d="M57.9769 39.0879H57.751V39.3399H57.9769V39.0879Z" fill="white"/>
<path d="M57.7511 39.0879H57.5251V39.3399H57.7511V39.0879Z" fill="black"/>
<path d="M59.5585 38.8359H59.3325V39.0879H59.5585V38.8359Z" fill="white"/>
<path d="M59.1066 38.8359H58.8806V39.0879H59.1066V38.8359Z" fill="white"/>
<path d="M58.8807 38.8359H58.6548V39.0879H58.8807V38.8359Z" fill="black"/>
<path d="M58.6547 38.8359H58.4287V39.0879H58.6547V38.8359Z" fill="white"/>
<path d="M58.4288 38.8359H58.2029V39.0879H58.4288V38.8359Z" fill="black"/>
<path d="M58.2028 38.8359H57.9768V39.0879H58.2028V38.8359Z" fill="white"/>
<path d="M57.9769 38.8359H57.751V39.0879H57.9769V38.8359Z" fill="black"/>
<path d="M58.8807 38.584H58.6548V38.836H58.8807V38.584Z" fill="white"/>
<path d="M58.2028 38.584H57.9768V38.836H58.2028V38.584Z" fill="black"/>
<path d="M57.7511 38.584H57.5251V38.836H57.7511V38.584Z" fill="black"/>
<path d="M62.0439 35.5599C62.245 35.5599 62.5207 35.5599 62.7218 35.5599V35.3079C62.3603 35.3079 61.9536 35.3079 61.592 35.3079V35.5599C61.705 35.5599 61.931 35.5599 62.0439 35.5599Z" fill="black"/>
<path d="M55.4916 35.3079H55.2656V35.5599C55.3786 35.5599 55.6045 35.5599 55.7175 35.5599V35.3079H55.4916Z" fill="black"/>
<path d="M51.1984 35.3079H50.9724V35.5599H51.1984V35.3079Z" fill="black"/>
<path d="M50.7465 35.3079H50.5205V35.5599H50.7465V35.3079Z" fill="black"/>
<path d="M50.2946 35.3079H50.0686V35.5599H50.2946V35.3079Z" fill="black"/>
<path d="M63.1737 35.0557H62.9477V34.8037C62.8348 34.8037 62.6088 34.8037 62.4958 34.8037V35.0557H62.7218V35.3077C63.0042 35.3077 63.3432 35.3077 63.6256 35.3077V35.0557C63.5126 35.0557 63.2867 35.0557 63.1737 35.0557Z" fill="black"/>
<path d="M61.818 35.3078C62.1004 35.3078 62.4393 35.3078 62.7218 35.3078V35.0558H62.4958V34.8038C62.3828 34.8038 62.1569 34.8038 62.0439 34.8038V34.5518C61.7615 34.5518 61.4225 34.5518 61.1401 34.5518V34.2998C60.6227 34.2998 60.0759 34.2998 59.5585 34.2998V34.5518H59.3325V34.8038H59.1066V35.0558H58.8806C58.8806 35.1818 58.8806 35.4339 58.8806 35.5599C59.7776 35.5599 60.695 35.5599 61.592 35.5599V35.3078H61.818Z" fill="white"/>
<path d="M55.2655 35.0559H55.0396V35.3079H55.2655V35.0559Z" fill="black"/>
<path d="M51.4244 35.0559H51.1985V35.3079H51.4244V35.0559Z" fill="black"/>
<path d="M51.1984 35.0559H50.9724V35.3079H51.1984V35.0559Z" fill="white"/>
<path d="M50.9725 35.0559H50.7466V35.3079H50.9725V35.0559Z" fill="black"/>
<path d="M50.7465 35.0559H50.5205V35.3079H50.7465V35.0559Z" fill="white"/>
<path d="M50.5206 35.0559H50.2947V35.3079H50.5206V35.0559Z" fill="black"/>
<path d="M50.2946 35.0559H50.0686V35.3079H50.2946V35.0559Z" fill="white"/>
<path d="M50.0687 35.0559H49.8428V35.3079H50.0687V35.0559Z" fill="black"/>
<path d="M63.8517 34.8037H63.6257V35.0557C63.8268 35.0557 64.1025 35.0557 64.3036 35.0557V34.8037C64.1906 34.8037 63.9647 34.8037 63.8517 34.8037Z" fill="black"/>
<path d="M51.6503 34.8037H51.4243V35.0557H51.6503V34.8037Z" fill="black"/>
<path d="M51.4244 34.8037H51.1985V35.0557H51.4244V34.8037Z" fill="white"/>
<path d="M51.1984 34.8037H50.9724V35.0557H51.1984V34.8037Z" fill="black"/>
<path d="M50.9725 34.8037H50.7466V35.0557H50.9725V34.8037Z" fill="white"/>
<path d="M50.7465 34.8037H50.5205V35.0557H50.7465V34.8037Z" fill="black"/>
<path d="M50.5206 34.8037H50.2947V35.0557H50.5206V34.8037Z" fill="white"/>
<path d="M50.2946 34.8037H50.0686V35.0557H50.2946V34.8037Z" fill="black"/>
<path d="M50.0687 34.8037H49.8428V35.0557H50.0687V34.8037Z" fill="white"/>
<path d="M49.8426 34.8037H49.6167V35.0557H49.8426V34.8037Z" fill="black"/>
<path d="M64.3035 34.5518V34.8038C64.4164 34.8038 64.6424 34.8038 64.7554 34.8038V34.5518C64.6424 34.5518 64.4164 34.5518 64.3035 34.5518Z" fill="black"/>
<path d="M62.2699 34.8038H62.4958V34.5518C62.3829 34.5518 62.1569 34.5518 62.0439 34.5518V34.8038H62.2699Z" fill="black"/>
<path d="M51.6503 34.5518H51.4243V34.8038H51.6503V34.5518Z" fill="white"/>
<path d="M51.4244 34.5518H51.1985V34.8038H51.4244V34.5518Z" fill="black"/>
<path d="M51.1984 34.5518H50.9724V34.8038H51.1984V34.5518Z" fill="white"/>
<path d="M50.9725 34.5518H50.7466V34.8038H50.9725V34.5518Z" fill="black"/>
<path d="M50.7465 34.5518H50.5205V34.8038H50.7465V34.5518Z" fill="white"/>
<path d="M50.5206 34.5518H50.2947V34.8038H50.5206V34.5518Z" fill="black"/>
<path d="M50.2946 34.5518H50.0686V34.8038H50.2946V34.5518Z" fill="white"/>
<path d="M50.0687 34.5518H49.8428V34.8038H50.0687V34.5518Z" fill="black"/>
<path d="M49.8426 34.5518H49.6167V34.8038H49.8426V34.5518Z" fill="white"/>
<path d="M49.6168 34.5518H49.3909V34.8038H49.6168V34.5518Z" fill="black"/>
<path d="M62.4958 34.5518V34.8038C62.6088 34.8038 62.8348 34.8038 62.9477 34.8038V35.0558C63.1488 35.0558 63.4245 35.0558 63.6256 35.0558V34.8038C63.8267 34.8038 64.1023 34.8038 64.3034 34.8038V34.5518C64.4164 34.5518 64.6424 34.5518 64.7553 34.5518V34.2998C63.8583 34.2998 62.941 34.2998 62.0439 34.2998V34.5518C62.1569 34.5518 62.3829 34.5518 62.4958 34.5518Z" fill="white"/>
<path d="M51.4244 34.2998H51.1985V34.5518H51.4244V34.2998Z" fill="white"/>
<path d="M51.1984 34.2998H50.9724V34.5518H51.1984V34.2998Z" fill="black"/>
<path d="M50.9725 34.2998H50.7466V34.5518H50.9725V34.2998Z" fill="white"/>
<path d="M50.7465 34.2998H50.5205V34.5518H50.7465V34.2998Z" fill="black"/>
<path d="M50.5206 34.2998H50.2947V34.5518H50.5206V34.2998Z" fill="white"/>
<path d="M50.2946 34.2998H50.0686V34.5518H50.2946V34.2998Z" fill="black"/>
<path d="M50.0687 34.2998H49.8428V34.5518H50.0687V34.2998Z" fill="white"/>
<path d="M49.8426 34.2998H49.6167V34.5518H49.8426V34.2998Z" fill="black"/>
<path d="M51.1984 34.0479H50.9724V34.2999H51.1984V34.0479Z" fill="white"/>
<path d="M50.9725 34.0479H50.7466V34.2999H50.9725V34.0479Z" fill="black"/>
<path d="M50.7465 34.0479H50.5205V34.2999H50.7465V34.0479Z" fill="white"/>
<path d="M50.5206 34.0479H50.2947V34.2999H50.5206V34.0479Z" fill="black"/>
<path d="M50.2946 34.0479H50.0686V34.2999H50.2946V34.0479Z" fill="white"/>
<path d="M50.0687 34.0479H49.8428V34.2999H50.0687V34.0479Z" fill="black"/>
<path d="M49.8426 34.0479H49.6167V34.2999H49.8426V34.0479Z" fill="white"/>
<path d="M49.6168 34.0479H49.3909V34.2999H49.6168V34.0479Z" fill="black"/>
<path d="M50.9725 33.7957H50.7466V34.0477H50.9725V33.7957Z" fill="white"/>
<path d="M50.7465 33.7957H50.5205V34.0477H50.7465V33.7957Z" fill="black"/>
<path d="M50.5206 33.7957H50.2947V34.0477H50.5206V33.7957Z" fill="white"/>
<path d="M50.2946 33.7957H50.0686V34.0477H50.2946V33.7957Z" fill="black"/>
<path d="M50.0687 33.7957H49.8428V34.0477H50.0687V33.7957Z" fill="white"/>
<path d="M49.8426 33.7957H49.6167V34.0477H49.8426V33.7957Z" fill="black"/>
<path d="M52.3281 33.7958C52.3281 33.6698 52.3281 33.4178 52.3281 33.2918H52.1022C52.1022 33.1658 52.1022 32.9138 52.1022 32.7877H51.8762C51.8762 32.3845 51.8762 31.9309 51.8762 31.5277H52.1022C52.1022 31.4017 52.1022 31.1497 52.1022 31.0237H52.3281V30.7717C52.4411 30.7717 52.667 30.7717 52.78 30.7717V30.5196C53.1415 30.5196 53.5482 30.5196 53.9098 30.5196V30.7717C54.0227 30.7717 54.2487 30.7717 54.3617 30.7717V31.0237H54.5876C54.5876 31.1497 54.5876 31.4017 54.5876 31.5277H54.8136C54.8136 31.9309 54.8136 32.3845 54.8136 32.7877H55.0395V33.0398H55.2655C55.2655 32.4627 55.2655 31.8528 55.2655 31.2757H55.0395C55.0395 31.1497 55.0395 30.8977 55.0395 30.7717H54.8136V30.5196H54.5876V30.2676C54.4746 30.2676 54.2487 30.2676 54.1357 30.2676V30.0156C53.6183 30.0156 53.0715 30.0156 52.5541 30.0156V30.2676C52.4411 30.2676 52.2151 30.2676 52.1022 30.2676V30.5196H51.8762V30.7717H51.6503C51.6503 30.8977 51.6503 31.1497 51.6503 31.2757H51.4243C51.4243 31.8528 51.4243 32.4627 51.4243 33.0398H51.6503C51.6503 33.1658 51.6503 33.4178 51.6503 33.5438H51.8762V33.7958C51.9892 33.7958 52.2151 33.7958 52.3281 33.7958Z" fill="white"/>
<path d="M51.8763 33.5437H51.6504V33.7957H51.8763V33.5437Z" fill="black"/>
<path d="M50.7466 33.5438V33.7958H50.9725V34.0478H51.1985V34.2998H51.4244V34.5518H51.6504V34.8038H51.8763V35.0558H52.1023C52.1023 34.8315 52.1023 34.5241 52.1023 34.2998H52.3282C52.3282 34.1738 52.3282 33.9218 52.3282 33.7958C52.2153 33.7958 51.9893 33.7958 51.8763 33.7958C51.8763 33.9218 51.8763 34.1738 51.8763 34.2998H51.6504V34.0478H51.4244V33.7958H51.1985C51.1985 33.6698 51.1985 33.4178 51.1985 33.2917H50.9725V33.5438H50.7466Z" fill="black"/>
<path d="M50.7465 33.5437H50.5205V33.7957H50.7465V33.5437Z" fill="white"/>
<path d="M50.5206 33.5437H50.2947V33.7957H50.5206V33.5437Z" fill="black"/>
<path d="M50.2946 33.5437H50.0686V33.7957H50.2946V33.5437Z" fill="white"/>
<path d="M50.0687 33.5437H49.8428V33.7957H50.0687V33.5437Z" fill="black"/>
<path d="M49.8426 33.5437H49.6167V33.7957H49.8426V33.5437Z" fill="white"/>
<path d="M49.6168 33.5437H49.3909V33.7957H49.6168V33.5437Z" fill="black"/>
<path d="M50.9725 33.2917H50.7466V33.5438H50.9725V33.2917Z" fill="white"/>
<path d="M50.7465 33.2917H50.5205V33.5438H50.7465V33.2917Z" fill="black"/>
<path d="M50.5206 33.2917H50.2947V33.5438H50.5206V33.2917Z" fill="white"/>
<path d="M50.2946 33.2917H50.0686V33.5438H50.2946V33.2917Z" fill="black"/>
<path d="M50.0687 33.2917H49.8428V33.5438H50.0687V33.2917Z" fill="white"/>
<path d="M49.8426 33.2917H49.6167V33.5438H49.8426V33.2917Z" fill="black"/>
<path d="M51.6503 33.0398H51.4243C51.4243 33.1658 51.4243 33.4178 51.4243 33.5438H51.6503C51.6503 33.4178 51.6503 33.1658 51.6503 33.0398Z" fill="black"/>
<path d="M50.7465 33.0398H50.5205V33.2918H50.7465V33.0398Z" fill="white"/>
<path d="M50.5206 33.0398H50.2947V33.2918H50.5206V33.0398Z" fill="black"/>
<path d="M50.2946 33.0398H50.0686V33.2918H50.2946V33.0398Z" fill="white"/>
<path d="M50.0687 33.0398H49.8428V33.2918H50.0687V33.0398Z" fill="black"/>
<path d="M54.8136 32.7876C54.8136 32.3844 54.8136 31.9308 54.8136 31.5276H54.5876C54.5876 31.4016 54.5876 31.1496 54.5876 31.0236H54.3617V30.7715C54.2487 30.7715 54.0227 30.7715 53.9098 30.7715V30.5195C53.5482 30.5195 53.1415 30.5195 52.78 30.5195V30.7715C52.667 30.7715 52.4411 30.7715 52.3281 30.7715V31.0236H52.1022C52.1022 31.1496 52.1022 31.4016 52.1022 31.5276H51.8762C51.8762 31.9308 51.8762 32.3844 51.8762 32.7876H52.1022C52.1022 32.9136 52.1022 33.1656 52.1022 33.2917H52.3281C52.3281 33.4177 52.3281 33.6697 52.3281 33.7957H52.5541V33.5437C52.667 33.5437 52.893 33.5437 53.006 33.5437V33.2917C53.2071 33.2917 53.4827 33.2917 53.6838 33.2917V33.0396C54.1244 33.0396 54.5989 33.0396 55.0395 33.0396V32.7876H54.8136ZM52.78 31.7796V31.5276C52.893 31.5276 53.1189 31.5276 53.2319 31.5276C53.2319 31.6536 53.2319 31.9056 53.2319 32.0316C53.1189 32.0316 52.893 32.0316 52.78 32.0316V31.7796Z" fill="black"/>
<path d="M50.2946 32.7876H50.0686V33.0396H50.2946V32.7876Z" fill="black"/>
<path d="M55.9435 32.5357C55.9435 32.0443 55.9435 31.5151 55.9435 31.0237H55.7175C55.7175 31.6008 55.7175 32.2107 55.7175 32.7878C55.9186 32.7878 56.1943 32.7878 56.3954 32.7878V32.5357C56.2824 32.5357 56.0565 32.5357 55.9435 32.5357Z" fill="black"/>
<path d="M51.4244 32.5357C51.4244 32.1325 51.4244 31.6789 51.4244 31.2756H51.1985C51.1985 31.8527 51.1985 32.4626 51.1985 33.0397H51.4244C51.4244 32.9137 51.4244 32.6617 51.4244 32.5357Z" fill="black"/>
<path d="M56.3953 32.2837V32.5357C56.5082 32.5357 56.7342 32.5357 56.8472 32.5357V32.2837C56.7342 32.2837 56.5082 32.2837 56.3953 32.2837Z" fill="black"/>
<path d="M56.8472 32.0317V32.2837C56.9601 32.2837 57.1861 32.2837 57.2991 32.2837V32.0317C57.1861 32.0317 56.9601 32.0317 56.8472 32.0317Z" fill="black"/>
<path d="M57.2991 31.7795V32.0316C57.412 32.0316 57.638 32.0316 57.751 32.0316V31.7795C57.638 31.7795 57.412 31.7795 57.2991 31.7795Z" fill="black"/>
<path d="M53.2319 32.0316C53.2319 31.9056 53.2319 31.6536 53.2319 31.5276C53.119 31.5276 52.893 31.5276 52.78 31.5276C52.78 31.6536 52.78 31.9056 52.78 32.0316C52.893 32.0316 53.119 32.0316 53.2319 32.0316Z" fill="white"/>
<path d="M57.751 31.5276V31.7796C57.864 31.7796 58.0899 31.7796 58.2029 31.7796V31.5276C58.0899 31.5276 57.864 31.5276 57.751 31.5276Z" fill="black"/>
<path d="M55.2655 31.7797C55.2655 32.1829 55.2655 32.6365 55.2655 33.0397H55.0396V33.2917C55.1525 33.2917 55.3785 33.2917 55.4914 33.2917C55.4914 32.6289 55.4914 31.9384 55.4914 31.2756H55.2655C55.2655 31.4016 55.2655 31.6537 55.2655 31.7797Z" fill="black"/>
<path d="M58.4288 31.2756H58.2029V31.5276H58.4288V31.2756Z" fill="black"/>
<path d="M58.4287 31.0237V31.2757C58.5417 31.2757 58.7676 31.2757 58.8806 31.2757V31.0237C58.7676 31.0237 58.5417 31.0237 58.4287 31.0237Z" fill="black"/>
<path d="M55.0396 31.2758H55.2655C55.2655 31.1497 55.2655 30.8977 55.2655 30.7717H55.0396C55.0396 30.8977 55.0396 31.1497 55.0396 31.2758Z" fill="black"/>
<path d="M51.6503 31.0237V30.7717H51.4243C51.4243 30.8977 51.4243 31.1497 51.4243 31.2758H51.6503V31.0237Z" fill="black"/>
<path d="M50.7465 31.2757C50.7465 31.7671 50.7465 32.2963 50.7465 32.7878H50.5205V33.0398H50.7465V33.2918H50.9724C50.9724 32.5433 50.9724 31.7722 50.9724 31.0237H50.7465V31.2757Z" fill="black"/>
<path d="M59.1066 30.7717H58.8806V31.0237H59.1066V30.7717Z" fill="black"/>
<path d="M59.1067 30.5195V30.7715C59.2197 30.7715 59.4456 30.7715 59.5586 30.7715V30.5195C59.4456 30.5195 59.2197 30.5195 59.1067 30.5195Z" fill="black"/>
<path d="M57.5251 30.5195C57.4122 30.5195 57.1862 30.5195 57.0732 30.5195V30.7715C57.3557 30.7715 57.6946 30.7715 57.977 30.7715V30.5195C57.8641 30.5195 57.6381 30.5195 57.5251 30.5195Z" fill="black"/>
<path d="M55.7174 30.5195H55.4915C55.4915 30.6455 55.4915 30.8975 55.4915 31.0236H55.7174C55.7174 30.8975 55.7174 30.6455 55.7174 30.5195Z" fill="black"/>
<path d="M55.0397 30.5195H54.8137V30.7715H55.0397V30.5195Z" fill="black"/>
<path d="M51.8763 30.5195H51.6504V30.7715H51.8763V30.5195Z" fill="black"/>
<path d="M50.9724 30.7715V31.0236H51.1984C51.1984 30.8975 51.1984 30.6455 51.1984 30.5195H50.9724V30.7715Z" fill="black"/>
<path d="M59.7845 30.2676H59.5586V30.5196H59.7845V30.2676Z" fill="black"/>
<path d="M57.9768 30.2676V30.5196C58.0898 30.5196 58.3157 30.5196 58.4287 30.5196V30.2676C58.3157 30.2676 58.0898 30.2676 57.9768 30.2676Z" fill="black"/>
<path d="M57.0731 30.2676H56.8472V30.5196H57.0731V30.2676Z" fill="black"/>
<path d="M55.4916 30.2676H55.2656V30.5196H55.4916V30.2676Z" fill="black"/>
<path d="M54.8136 30.2676H54.5876V30.5196H54.8136V30.2676Z" fill="black"/>
<path d="M52.1022 30.2676H51.8762V30.5196H52.1022V30.2676Z" fill="black"/>
<path d="M51.4244 30.2676H51.1985V30.5196H51.4244V30.2676Z" fill="black"/>
<path d="M59.7844 30.0156V30.2676C59.8974 30.2676 60.1233 30.2676 60.2363 30.2676V30.0156C60.1233 30.0156 59.8974 30.0156 59.7844 30.0156Z" fill="black"/>
<path d="M58.4287 30.0156V30.2676C58.5417 30.2676 58.7676 30.2676 58.8806 30.2676V30.0156C58.7676 30.0156 58.5417 30.0156 58.4287 30.0156Z" fill="black"/>
<path d="M56.8473 30.0156H56.6213V30.2676H56.8473V30.0156Z" fill="black"/>
<path d="M55.2655 30.0156H55.0396V30.2676H55.2655V30.0156Z" fill="black"/>
<path d="M54.3617 30.2676H54.5876V30.0156C54.4747 30.0156 54.2487 30.0156 54.1357 30.0156V30.2676H54.3617Z" fill="black"/>
<path d="M52.5542 30.2676V30.0156C52.4412 30.0156 52.2153 30.0156 52.1023 30.0156V30.2676C52.2153 30.2676 52.4412 30.2676 52.5542 30.2676Z" fill="black"/>
<path d="M51.6503 30.0156H51.4243V30.2676H51.6503V30.0156Z" fill="black"/>
<path d="M60.4623 29.7637H60.2363V30.0157H60.4623V29.7637Z" fill="black"/>
<path d="M59.1066 29.7637H58.8806V30.0157H59.1066V29.7637Z" fill="black"/>
<path d="M53.0061 30.0157C53.3676 30.0157 53.7743 30.0157 54.1358 30.0157V29.7637C53.6184 29.7637 53.0716 29.7637 52.5542 29.7637V30.0157C52.6672 30.0157 52.8931 30.0157 53.0061 30.0157Z" fill="black"/>
<path d="M51.8763 29.7637H51.6504V30.0157H51.8763V29.7637Z" fill="black"/>
<path d="M59.1067 29.5115V29.7635C59.2197 29.7635 59.4456 29.7635 59.5586 29.7635V29.5115C59.4456 29.5115 59.2197 29.5115 59.1067 29.5115Z" fill="black"/>
<path d="M58.2028 29.5115H57.9768V29.7635H58.2028V29.5115Z" fill="black"/>
<path d="M56.6212 29.5115V29.2595H56.3953C56.3953 29.4838 56.3953 29.7913 56.3953 30.0156H56.6212C56.6212 29.8895 56.6212 29.6375 56.6212 29.5115Z" fill="black"/>
<path d="M55.2655 29.7636C55.2655 29.6376 55.2655 29.3856 55.2655 29.2596H55.0395V29.5116H54.8136V29.2596H54.5876V29.0076H54.3617V29.2596C53.6906 29.2596 52.9992 29.2596 52.3281 29.2596V29.5116C52.9992 29.5116 53.6906 29.5116 54.3617 29.5116V29.7636C54.4746 29.7636 54.7006 29.7636 54.8136 29.7636V30.0156H55.0395V29.7636H55.2655Z" fill="black"/>
<path d="M51.8762 29.5115V29.7635C51.9892 29.7635 52.2151 29.7635 52.3281 29.7635V29.5115C52.2151 29.5115 51.9892 29.5115 51.8762 29.5115Z" fill="black"/>
<path d="M59.7845 29.2595H59.5586V29.5115H59.7845V29.2595Z" fill="black"/>
<path d="M57.9769 29.2595H57.751V29.5115H57.9769V29.2595Z" fill="black"/>
<path d="M55.0397 29.2595H54.8137V29.5115H55.0397V29.2595Z" fill="white"/>
<path d="M58.8807 29.0076H58.6548V29.2596H58.8807V29.0076Z" fill="black"/>
<path d="M57.7511 29.0076H57.5251V29.2596H57.7511V29.0076Z" fill="black"/>
<path d="M56.8473 29.0076V28.7556H56.6213C56.6213 28.8816 56.6213 29.1336 56.6213 29.2596H56.8473V29.0076Z" fill="black"/>
<path d="M55.2655 29.0076H55.0396V29.2596H55.2655V29.0076Z" fill="white"/>
<path d="M55.0397 29.0076H54.8137V29.2596H55.0397V29.0076Z" fill="black"/>
<path d="M54.8136 29.0076H54.5876V29.2596H54.8136V29.0076Z" fill="white"/>
<path d="M58.6547 28.7556H58.4287V29.0076H58.6547V28.7556Z" fill="black"/>
<path d="M55.0397 28.7556H54.8137V29.0076H55.0397V28.7556Z" fill="white"/>
<path d="M54.8136 28.7556H54.5876V29.0076H54.8136V28.7556Z" fill="black"/>
<path d="M59.5585 28.5034H59.3325V28.7554H59.5585V28.5034Z" fill="black"/>
<path d="M58.4288 28.5034H58.2029V28.7554H58.4288V28.5034Z" fill="black"/>
<path d="M57.0731 28.5034H56.8472V28.7554H57.0731V28.5034Z" fill="black"/>
<path d="M55.2655 28.5034H55.0396V28.7554H55.2655V28.5034Z" fill="white"/>
<path d="M55.0397 28.5034H54.8137V28.7554H55.0397V28.5034Z" fill="black"/>
<path d="M59.3326 28.2515H59.1067V28.5035H59.3326V28.2515Z" fill="black"/>
<path d="M58.2028 28.2515H57.9768V28.5035H58.2028V28.2515Z" fill="black"/>
<path d="M57.2992 28.2515H57.0732V28.5035H57.2992V28.2515Z" fill="black"/>
<path d="M55.4914 28.5035H55.2655V28.7555H55.0396V29.0075H55.2655V29.2595H55.4914C55.4914 29.1335 55.4914 28.8815 55.4914 28.7555H55.7174C55.7174 28.6295 55.7174 28.3775 55.7174 28.2515H55.4914V28.5035Z" fill="black"/>
<path d="M55.4916 28.2515H55.2656V28.5035H55.4916V28.2515Z" fill="white"/>
<path d="M55.2655 28.2515H55.0396V28.5035H55.2655V28.2515Z" fill="black"/>
<path d="M55.0397 28.2515H54.8137V28.5035H55.0397V28.2515Z" fill="white"/>
<path d="M54.8136 28.2515H54.5876V28.5035H54.8136V28.2515Z" fill="black"/>
<path d="M59.1066 27.9995H58.8806V28.2515H59.1066V27.9995Z" fill="black"/>
<path d="M57.525 27.9995H57.2991V28.2515H57.525V27.9995Z" fill="black"/>
<path d="M55.9435 27.9995H55.7175V28.2515H55.9435V27.9995Z" fill="black"/>
<path d="M55.7174 27.9995H55.4915V28.2515H55.7174V27.9995Z" fill="white"/>
<path d="M55.4916 27.9995H55.2656V28.2515H55.4916V27.9995Z" fill="black"/>
<path d="M55.2655 27.9995H55.0396V28.2515H55.2655V27.9995Z" fill="white"/>
<path d="M55.0397 27.9995H54.8137V28.2515H55.0397V27.9995Z" fill="black"/>
<path d="M58.8807 27.7476H58.6548V27.9996H58.8807V27.7476Z" fill="black"/>
<path d="M57.7511 27.7476H57.5251V27.9996H57.7511V27.7476Z" fill="black"/>
<path d="M55.9435 27.7476H55.7175V27.9996H55.9435V27.7476Z" fill="white"/>
<path d="M55.7174 27.7476H55.4915V27.9996H55.7174V27.7476Z" fill="black"/>
<path d="M55.4916 27.7476H55.2656V27.9996H55.4916V27.7476Z" fill="white"/>
<path d="M55.2655 27.7476H55.0396V27.9996H55.2655V27.7476Z" fill="black"/>
<path d="M57.977 27.4954V27.7474H57.7511V27.9994H57.5251V28.2515H57.2992V28.5035H57.0732V28.7555H56.8473C56.8473 28.8815 56.8473 29.1335 56.8473 29.2595H56.6213C56.6213 29.4838 56.6213 29.7912 56.6213 30.0155H56.8473V30.2675H57.0732V30.5196C57.3557 30.5196 57.6946 30.5196 57.977 30.5196V30.2675C58.09 30.2675 58.316 30.2675 58.4289 30.2675V30.0155C58.5419 30.0155 58.7679 30.0155 58.8808 30.0155V29.7635H59.1068V29.5115C59.2198 29.5115 59.4457 29.5115 59.5587 29.5115V29.2595H59.7846V29.0075H60.0106C60.0106 28.7832 60.0106 28.4757 60.0106 28.2515H59.7846V27.9994H59.5587V27.7474H59.3327V27.4954H59.1068V27.2434C58.8243 27.2434 58.4854 27.2434 58.203 27.2434V27.4954H57.977ZM59.1068 27.9994V28.2515H59.3327V28.5035H59.5587V28.7555H59.3327V28.5035H59.1068V28.2515H58.8808V27.9994H58.6549V27.7474H58.8808V27.9994H59.1068ZM58.8808 29.2595H58.6549V29.0075H58.4289V28.7555H58.203V28.5035H57.977V28.2515H58.203V28.5035H58.4289V28.7555H58.6549V29.0075H58.8808V29.2595ZM58.203 29.7635H57.977V29.5115H57.7511V29.2595H57.5251V29.0075H57.7511V29.2595H57.977V29.5115H58.203V29.7635Z" fill="white"/>
<path d="M57.9769 27.4954H57.751V27.7474H57.9769V27.4954Z" fill="black"/>
<path d="M55.9435 27.7474V27.9994H56.1694V27.7474H56.3954V27.4954H56.1694V27.2434H55.9435V27.4954H55.7175V27.7474H55.9435Z" fill="black"/>
<path d="M55.7174 27.4954H55.4915V27.7474H55.7174V27.4954Z" fill="white"/>
<path d="M55.4914 27.4954H55.7174V27.2434C55.5163 27.2434 55.2406 27.2434 55.0396 27.2434V27.4954H55.2655V27.7474H55.4914V27.4954Z" fill="black"/>
<path d="M58.2028 27.2434H57.9768V27.4954H58.2028V27.2434Z" fill="black"/>
<path d="M56.6212 27.2434H56.3953V27.4954H56.6212V27.2434Z" fill="black"/>
<path d="M56.3954 27.2434H56.1694V27.4954H56.3954V27.2434Z" fill="white"/>
<path d="M56.8471 26.9915V27.2435H56.6212V27.4955H56.3952V27.7475H56.1693V27.9996H55.9433V28.2516H55.7174C55.7174 28.3776 55.7174 28.6296 55.7174 28.7556H55.4914C55.4914 28.8816 55.4914 29.1336 55.4914 29.2596H55.2655C55.2655 29.3856 55.2655 29.6376 55.2655 29.7636H55.0396V30.0156H55.2655V30.2677H55.4914V30.5197H55.7174C55.7174 30.6457 55.7174 30.8977 55.7174 31.0237H55.9433C55.9433 31.5151 55.9433 32.0443 55.9433 32.5358C56.0563 32.5358 56.2823 32.5358 56.3952 32.5358V32.2837C56.5082 32.2837 56.7342 32.2837 56.8471 32.2837V32.0317C56.9601 32.0317 57.1861 32.0317 57.299 32.0317V31.7797C57.412 31.7797 57.638 31.7797 57.7509 31.7797V31.5277C57.8639 31.5277 58.0899 31.5277 58.2028 31.5277V31.2757H58.4288V31.0237C58.5418 31.0237 58.7677 31.0237 58.8807 31.0237V30.7717H59.1066V30.5197C59.2196 30.5197 59.4456 30.5197 59.5585 30.5197V30.2677H59.7845V30.0156C59.8975 30.0156 60.1234 30.0156 60.2364 30.0156V29.7636H60.4623C60.4623 29.6376 60.4623 29.3856 60.4623 29.2596C60.2612 29.2596 59.9856 29.2596 59.7845 29.2596V29.5116H59.5585V29.7636C59.4456 29.7636 59.2196 29.7636 59.1066 29.7636V30.0156H58.8807V30.2677C58.7677 30.2677 58.5418 30.2677 58.4288 30.2677V30.5197C58.3158 30.5197 58.0899 30.5197 57.9769 30.5197V30.7717C57.6945 30.7717 57.3555 30.7717 57.0731 30.7717V30.5197H56.8471V30.2677H56.6212V30.0156H56.3952C56.3952 29.7914 56.3952 29.4839 56.3952 29.2596H56.6212C56.6212 29.1336 56.6212 28.8816 56.6212 28.7556H56.8471V28.5036H57.0731V28.2516H57.299V27.9996H57.525V27.7475H57.7509V27.4955H57.9769V27.2435H58.2028C58.2028 27.1175 58.2028 26.8655 58.2028 26.7395C57.8413 26.7395 57.4346 26.7395 57.0731 26.7395V26.9915H56.8471Z" fill="white"/>
<path d="M56.8473 26.9915H56.6213V27.2435H56.8473V26.9915Z" fill="black"/>
<path d="M56.6212 26.9915H56.3953V27.2435H56.6212V26.9915Z" fill="white"/>
<path d="M56.3954 26.9915H56.1694V27.2435H56.3954V26.9915Z" fill="black"/>
<path d="M54.5878 27.2435C54.7007 27.2435 54.9267 27.2435 55.0397 27.2435V26.9915C54.8386 26.9915 54.5629 26.9915 54.3618 26.9915V27.2435H54.5878Z" fill="black"/>
<path d="M57.0731 26.7395H56.8472V26.9915H57.0731V26.7395Z" fill="black"/>
<path d="M56.8473 26.7395H56.6213V26.9915H56.8473V26.7395Z" fill="white"/>
<path d="M56.6212 26.7395H56.3953V26.9915H56.6212V26.7395Z" fill="black"/>
<path d="M54.8137 26.9914H55.0396V27.2434C55.2407 27.2434 55.5164 27.2434 55.7175 27.2434V27.4954H55.9434V27.2434H56.1694V26.9914H56.3953V26.7394H56.6213V26.4874H56.3953V26.2354C55.4215 26.2354 54.4318 26.2354 53.458 26.2354V26.4874C53.1756 26.4874 52.8366 26.4874 52.5542 26.4874V26.7394C53.1484 26.7394 53.7675 26.7394 54.3618 26.7394V26.9914C54.4748 26.9914 54.7007 26.9914 54.8137 26.9914Z" fill="white"/>
<path d="M57.0731 26.4873H56.8472V26.7393H57.0731V26.4873Z" fill="white"/>
</g>
<path d="M164 74L126.37 74.1338" stroke="#F63F3F" stroke-width="3" stroke-linecap="round" stroke-linejoin="round"/>
<path d="M131.37 79.1348L126.37 74.1348L131.37 69.1348" stroke="#F63F3F" stroke-width="3" stroke-linecap="round" stroke-linejoin="round"/>
</g>
<defs>
<filter id="filter0_d_525_39432" x="21" y="0" width="304" height="151" filterUnits="userSpaceOnUse" color-interpolation-filters="sRGB">
<feFlood flood-opacity="0" result="BackgroundImageFix"/>
<feColorMatrix in="SourceAlpha" type="matrix" values="0 0 0 0 0 0 0 0 0 0 0 0 0 0 0 0 0 0 127 0" result="hardAlpha"/>
<feMorphology radius="1" operator="dilate" in="SourceAlpha" result="effect1_dropShadow_525_39432"/>
<feOffset dy="4"/>
<feGaussianBlur stdDeviation="8"/>
<feComposite in2="hardAlpha" operator="out"/>
<feColorMatrix type="matrix" values="0 0 0 0 0.796078 0 0 0 0 0.796078 0 0 0 0 0.796078 0 0 0 0.25 0"/>
<feBlend mode="normal" in2="BackgroundImageFix" result="effect1_dropShadow_525_39432"/>
<feBlend mode="normal" in="SourceGraphic" in2="effect1_dropShadow_525_39432" result="shape"/>
</filter>
<clipPath id="clip0_525_39432">
<rect width="12" height="12" fill="white" transform="translate(288 28)"/>
</clipPath>
<clipPath id="clip1_525_39432">
<rect x="49" y="24" width="17" height="17" rx="4" fill="white"/>
</clipPath>
</defs>
</svg>
