<svg width="347" height="133" viewBox="0 0 347 133" fill="none" xmlns="http://www.w3.org/2000/svg">
<rect width="347" height="133" rx="12" fill="#171717"/>
<rect x="38" y="8" width="270" height="117" rx="12" fill="#303030"/>
<line x1="172.5" y1="123" x2="172.5" y2="46" stroke="#434343"/>
<rect x="49" y="85" width="113" height="29" rx="8" fill="#616161"/>
<path fill-rule="evenodd" clip-rule="evenodd" d="M104 81C110.627 81 116 75.6274 116 69C116 62.3726 110.627 57 104 57C97.3726 57 92 62.3726 92 69C92 75.6274 97.3726 81 104 81ZM103.124 64.523C103.124 64.026 103.526 63.623 104.024 63.623C104.521 63.623 104.924 64.026 104.924 64.523V68.123H108.524C109.021 68.123 109.424 68.526 109.424 69.023C109.424 69.5201 109.021 69.923 108.524 69.923H104.924V73.523C104.924 74.0201 104.521 74.423 104.024 74.423C103.526 74.423 103.124 74.0201 103.124 73.523V69.923H99.5235C99.0265 69.923 98.6235 69.5201 98.6235 69.023C98.6235 68.526 99.0265 68.123 99.5235 68.123H103.124V64.523Z" fill="#616161"/>
<line x1="38" y1="45.5" x2="308" y2="45.5" stroke="#434343"/>
<g clip-path="url(#clip0_525_39534)">
<path fill-rule="evenodd" clip-rule="evenodd" d="M291.989 33.1919C292.224 33.436 292.605 33.436 292.839 33.1919L296.449 29.4419C296.684 29.1979 296.684 28.8021 296.449 28.5581L292.839 24.8081C292.605 24.564 292.224 24.564 291.989 24.8081C291.754 25.0521 291.754 25.4479 291.989 25.6919L295.173 29L291.989 32.3081C291.754 32.5521 291.754 32.9479 291.989 33.1919Z" fill="#C1C1C1"/>
</g>
<path d="M71.191 32H72.2848V29.0508H75.3121V28.1279H72.2848V25.8965H75.5904V24.9541H71.191V32ZM76.7113 32H81.1059V31.0576H77.8051V24.9541H76.7113V32ZM82.1926 32H83.2863V24.9541H82.1926V32ZM84.7539 32H85.8477V29.5928H87.498C88.8799 29.5928 89.8369 28.6504 89.8369 27.2734V27.2637C89.8369 25.8818 88.8799 24.9541 87.498 24.9541H84.7539V32ZM87.2246 25.877C88.1719 25.877 88.7236 26.3896 88.7236 27.2686V27.2783C88.7236 28.1621 88.1719 28.6748 87.2246 28.6748H85.8477V25.877H87.2246ZM90.948 32H92.0418V29.5928H93.6922C95.074 29.5928 96.0311 28.6504 96.0311 27.2734V27.2637C96.0311 25.8818 95.074 24.9541 93.6922 24.9541H90.948V32ZM93.4187 25.877C94.366 25.877 94.9178 26.3896 94.9178 27.2686V27.2783C94.9178 28.1621 94.366 28.6748 93.4187 28.6748H92.0418V25.877H93.4187ZM97.1422 32H101.615V31.0576H98.2359V28.8652H101.434V27.957H98.2359V25.8965H101.615V24.9541H97.1422V32ZM102.897 32H103.991V29.29H105.534L106.969 32H108.234L106.652 29.1191C107.511 28.8311 108.019 28.0596 108.019 27.1123V27.1025C108.019 25.7939 107.121 24.9541 105.675 24.9541H102.897V32ZM103.991 28.4014V25.8721H105.534C106.378 25.8721 106.896 26.3506 106.896 27.1318V27.1416C106.896 27.9424 106.408 28.4014 105.568 28.4014H103.991Z" fill="white"/>
<g clip-path="url(#clip1_525_39534)">
<rect x="49" y="19" width="17" height="17" rx="4" fill="#FE9111"/>
<path d="M61.3662 35.8521C61.3662 35.6278 61.3662 35.3203 61.3662 35.096H61.1402C61.1402 34.8717 61.1402 34.5643 61.1402 34.34H60.9143C60.9143 33.9368 60.9143 33.4832 60.9143 33.0799H61.1402C61.1402 32.9539 61.1402 32.7019 61.1402 32.5759C61.4226 32.5759 61.7616 32.5759 62.044 32.5759V32.3239C62.2451 32.3239 62.5208 32.3239 62.7219 32.3239V32.0719C62.923 32.0719 63.1986 32.0719 63.3997 32.0719V31.8199C63.6008 31.8199 63.8765 31.8199 64.0776 31.8199V31.5679C64.1905 31.5679 64.4165 31.5679 64.5295 31.5679V31.3159H64.7554V31.0638H64.9814V30.8118H65.2073V30.5598H65.4333C65.4333 30.1566 65.4333 29.703 65.4333 29.2998H65.2073V29.0478C63.9307 29.0478 62.6428 29.0478 61.3662 29.0478V28.7957H61.5921V28.5437H61.8181V28.2917H62.044V28.0397H62.27V27.7877H62.4959V27.5357H62.7219V27.2837H62.9478V27.0317H63.1738V26.7797H63.3997V26.5276H63.6257V26.2756H63.8516V26.0236H64.0776V25.7716H64.3035V25.5196H64.5295V25.2676H64.7554V25.0156H64.9814C64.9814 24.7006 64.9814 24.3225 64.9814 24.0075H64.7554V23.7555C64.5543 23.7555 64.2786 23.7555 64.0776 23.7555V23.5035C63.4065 23.5035 62.7151 23.5035 62.044 23.5035V23.7555C61.931 23.7555 61.7051 23.7555 61.5921 23.7555V24.0075C61.4791 24.0075 61.2532 24.0075 61.1402 24.0075V24.2595C61.0272 24.2595 60.8013 24.2595 60.6883 24.2595V24.0075H60.4624C60.4624 23.8815 60.4624 23.6295 60.4624 23.5035H60.2364C60.2364 23.3775 60.2364 23.1255 60.2364 22.9995H60.0105V22.7475H59.7845V22.4955H59.5586V22.2435H59.3326V21.9914C59.2196 21.9914 58.9937 21.9914 58.8807 21.9914V21.7394C58.7677 21.7394 58.5418 21.7394 58.4288 21.7394V21.4874C58.2277 21.4874 57.9521 21.4874 57.751 21.4874V21.2354C57.3895 21.2354 56.9827 21.2354 56.6212 21.2354V20.9834C55.496 20.9834 54.3572 20.9834 53.232 20.9834V21.2354C52.9495 21.2354 52.6106 21.2354 52.3282 21.2354V21.4874C52.1271 21.4874 51.8514 21.4874 51.6503 21.4874V21.7394H51.4244V21.9914C51.3114 21.9914 51.0855 21.9914 50.9725 21.9914V22.2435C50.8595 22.2435 50.6336 22.2435 50.5206 22.2435V22.4955H50.2946V22.7475H50.0687V22.9995H49.8427V23.2515H49.6168V23.5035H49.3908C49.3908 23.6295 49.3908 23.8815 49.3908 24.0075H49.1649C49.1649 24.1335 49.1649 24.3856 49.1649 24.5116H48.9389C48.9389 24.6376 48.9389 24.8896 48.9389 25.0156H48.713C48.713 25.1416 48.713 25.3936 48.713 25.5196H48.487C48.487 25.6456 48.487 25.8976 48.487 26.0236H48.2611C48.2611 26.1496 48.2611 26.4016 48.2611 26.5276H48.0352C48.0352 26.7519 48.0352 27.0594 48.0352 27.2837H47.8092C47.8092 27.5987 47.8092 27.9767 47.8092 28.2917H47.5833C47.5833 29.0402 47.5833 29.8114 47.5833 30.5598H47.8092C47.8092 29.897 47.8092 29.2065 47.8092 28.5437H48.0352C48.0352 28.2287 48.0352 27.8507 48.0352 27.5357H48.2611C48.2611 27.3114 48.2611 27.0039 48.2611 26.7797H48.487C48.487 26.6537 48.487 26.4016 48.487 26.2756H48.713C48.713 26.1496 48.713 25.8976 48.713 25.7716H48.9389C48.9389 25.6456 48.9389 25.3936 48.9389 25.2676H49.1649C49.1649 25.1416 49.1649 24.8896 49.1649 24.7636H49.3908C49.3908 24.6376 49.3908 24.3856 49.3908 24.2595H49.6168C49.6168 24.1335 49.6168 23.8815 49.6168 23.7555H49.8427V23.5035H50.0687V23.2515H50.2946V22.9995H50.5206V22.7475H50.7465V22.4955C50.8595 22.4955 51.0855 22.4955 51.1984 22.4955V22.2435C51.3114 22.2435 51.5374 22.2435 51.6503 22.2435V21.9914C52.5474 21.9914 53.4647 21.9914 54.3617 21.9914V21.7394C53.7675 21.7394 53.1484 21.7394 52.5541 21.7394V21.4874C52.8366 21.4874 53.1755 21.4874 53.4579 21.4874V21.2354C54.4318 21.2354 55.4214 21.2354 56.3953 21.2354V21.4874H56.6212V21.7394H56.8472V21.4874H57.0731V21.7394C57.4346 21.7394 57.8414 21.7394 58.2029 21.7394C58.2029 21.8654 58.2029 22.1174 58.2029 22.2435C58.4853 22.2435 58.8242 22.2435 59.1067 22.2435V22.4955H59.3326V22.7475H59.5586V22.9995H59.7845V23.2515H60.0105C60.0105 23.4758 60.0105 23.7832 60.0105 24.0075H59.7845V24.2595C59.9856 24.2595 60.2613 24.2595 60.4624 24.2595C60.4624 24.3856 60.4624 24.6376 60.4624 24.7636C60.5753 24.7636 60.8013 24.7636 60.9143 24.7636V24.5116C61.0272 24.5116 61.2532 24.5116 61.3662 24.5116V24.2595C61.4791 24.2595 61.7051 24.2595 61.8181 24.2595V24.0075C61.931 24.0075 62.157 24.0075 62.27 24.0075V23.7555C62.7874 23.7555 63.3342 23.7555 63.8516 23.7555V24.0075C64.0527 24.0075 64.3284 24.0075 64.5295 24.0075V24.2595H64.7554V24.5116C64.473 24.5116 64.134 24.5116 63.8516 24.5116V24.7636C63.6505 24.7636 63.3749 24.7636 63.1738 24.7636V25.0156C63.0608 25.0156 62.8348 25.0156 62.7219 25.0156V25.2676C62.6089 25.2676 62.3829 25.2676 62.27 25.2676V25.5196H62.044V25.7716H61.8181V26.0236H61.5921V26.2756H61.3662V26.5276H61.1402V26.7797H60.9143V27.0317H60.6883V27.2837H60.4624V27.5357H60.2364V27.7877H60.0105V28.0397H59.7845V28.2917H59.5586V28.5437H59.3326V28.7957H59.1067V29.0478H58.8807V29.2998H58.6548V29.5518H58.4288V29.8038C58.3158 29.8038 58.0899 29.8038 57.9769 29.8038V30.0558C57.8639 30.0558 57.638 30.0558 57.525 30.0558V30.3078C57.3239 30.3078 57.0483 30.3078 56.8472 30.3078V30.5598C56.4857 30.5598 56.0789 30.5598 55.7174 30.5598V30.8118C57.6719 30.8118 59.6376 30.8118 61.5921 30.8118V30.5598C60.6951 30.5598 59.7777 30.5598 58.8807 30.5598C58.8807 30.4338 58.8807 30.1818 58.8807 30.0558H59.1067V29.8038H59.3326V29.5518H59.5586V29.2998C60.076 29.2998 60.6228 29.2998 61.1402 29.2998V29.5518C61.4226 29.5518 61.7616 29.5518 62.044 29.5518V29.2998C62.941 29.2998 63.8584 29.2998 64.7554 29.2998V29.5518C64.8684 29.5518 65.0943 29.5518 65.2073 29.5518C65.2073 29.7761 65.2073 30.0835 65.2073 30.3078H64.9814V30.5598H64.7554V30.8118H64.5295V31.0638H64.3035V31.3159C64.1905 31.3159 63.9646 31.3159 63.8516 31.3159V31.5679C63.6505 31.5679 63.3749 31.5679 63.1738 31.5679V31.8199C62.9727 31.8199 62.697 31.8199 62.4959 31.8199V32.0719C62.2948 32.0719 62.0192 32.0719 61.8181 32.0719V32.3239C61.5356 32.3239 61.1967 32.3239 60.9143 32.3239V32.5759C60.6318 32.5759 60.2929 32.5759 60.0105 32.5759V32.8279C59.8094 32.8279 59.5337 32.8279 59.3326 32.8279V33.0799C59.2196 33.0799 58.9937 33.0799 58.8807 33.0799V33.3319C58.7677 33.3319 58.5418 33.3319 58.4288 33.3319C58.4288 33.458 58.4288 33.71 58.4288 33.836H58.6548V33.584H58.8807V33.836H59.1067V34.088H59.3326V33.836H59.5586V34.088H59.7845V34.34H60.0105V34.088H60.2364V34.34H60.4624V34.592H60.6883V34.844H60.9143V35.096H60.6883V35.348C60.8013 35.348 61.0272 35.348 61.1402 35.348C61.1402 35.5723 61.1402 35.8798 61.1402 36.1041C61.2532 36.1041 61.4791 36.1041 61.5921 36.1041V35.8521H61.3662Z" fill="black"/>
<path d="M61.1402 35.6001V35.3481C61.0272 35.3481 60.8013 35.3481 60.6883 35.3481V35.6001H60.4624V35.3481H60.2364V35.6001H60.0105V35.3481H59.7845V35.096H59.5586V35.3481H59.3326V35.096H59.1067V35.3481H58.8807V35.096H58.6548V34.844H58.4288V34.592H58.2029V34.34H57.9769V34.592H57.751V34.34H57.525V34.088H57.751V33.836H57.525V33.584H57.751V33.836H57.9769V33.584H58.2029V33.836H58.4288C58.4288 33.71 58.4288 33.458 58.4288 33.332C58.5418 33.332 58.7677 33.332 58.8807 33.332V33.08C58.9937 33.08 59.2196 33.08 59.3326 33.08V32.8279C59.5337 32.8279 59.8094 32.8279 60.0105 32.8279V32.5759C60.2929 32.5759 60.6318 32.5759 60.9143 32.5759V32.3239C61.1967 32.3239 61.5356 32.3239 61.8181 32.3239V32.0719C62.0192 32.0719 62.2948 32.0719 62.4959 32.0719V31.8199C62.697 31.8199 62.9727 31.8199 63.1738 31.8199V31.5679C63.3749 31.5679 63.6505 31.5679 63.8516 31.5679V31.3159C63.9646 31.3159 64.1905 31.3159 64.3035 31.3159V31.0639H64.5295V30.8118H64.7554V30.5598H64.9814V30.3078H65.2073C65.2073 30.0835 65.2073 29.7761 65.2073 29.5518C65.0943 29.5518 64.8684 29.5518 64.7554 29.5518V29.8038C64.6424 29.8038 64.4165 29.8038 64.3035 29.8038V30.0558C64.1024 30.0558 63.8268 30.0558 63.6257 30.0558V30.3078C63.3432 30.3078 63.0043 30.3078 62.7219 30.3078V30.5598C62.3603 30.5598 61.9536 30.5598 61.5921 30.5598V30.8118C59.6377 30.8118 57.6719 30.8118 55.7174 30.8118V30.5598C55.6045 30.5598 55.3785 30.5598 55.2655 30.5598V30.3078H55.0396V30.0558H55.2655V30.3078C55.3785 30.3078 55.6045 30.3078 55.7174 30.3078V30.5598C56.0789 30.5598 56.4857 30.5598 56.8472 30.5598V30.3078C57.0483 30.3078 57.3239 30.3078 57.525 30.3078V30.0558C57.638 30.0558 57.8639 30.0558 57.9769 30.0558V29.8038C58.0899 29.8038 58.3158 29.8038 58.4288 29.8038V29.5518H58.6548V29.2998H58.8807V29.0478H59.1067V28.7958H59.3326V28.5437H59.5586V28.2917H59.7845V28.0397H60.0105V27.7877H60.2364V27.5357H60.4624V27.2837H60.6883V27.0317H60.9143V26.7797H61.1402V26.5277H61.3662V26.2756H61.5921V26.0236H61.8181V25.7716H62.044V25.5196H62.27V25.2676C62.3829 25.2676 62.6089 25.2676 62.7219 25.2676V25.0156C62.8348 25.0156 63.0608 25.0156 63.1738 25.0156V24.7636C63.3749 24.7636 63.6505 24.7636 63.8516 24.7636V24.5116C64.134 24.5116 64.473 24.5116 64.7554 24.5116V24.2596H64.5295V24.0075C64.3284 24.0075 64.0527 24.0075 63.8516 24.0075V23.7555C63.3342 23.7555 62.7874 23.7555 62.27 23.7555V24.0075C62.157 24.0075 61.931 24.0075 61.8181 24.0075V24.2596C61.7051 24.2596 61.4791 24.2596 61.3662 24.2596V24.5116C61.2532 24.5116 61.0272 24.5116 60.9143 24.5116V24.7636C60.8013 24.7636 60.5753 24.7636 60.4624 24.7636V25.0156H60.2364V25.2676C60.1234 25.2676 59.8975 25.2676 59.7845 25.2676V25.5196H59.5586V25.7716C59.4456 25.7716 59.2196 25.7716 59.1067 25.7716V26.0236H58.8807V26.2756C58.7677 26.2756 58.5418 26.2756 58.4288 26.2756V26.5277H58.2029V26.7797C58.0899 26.7797 57.8639 26.7797 57.751 26.7797V27.0317C57.638 27.0317 57.412 27.0317 57.2991 27.0317V27.2837C57.1861 27.2837 56.9602 27.2837 56.8472 27.2837V27.5357C56.7342 27.5357 56.5083 27.5357 56.3953 27.5357V27.7877C56.1942 27.7877 55.9185 27.7877 55.7174 27.7877C55.7174 27.2106 55.7174 26.6007 55.7174 26.0236H55.4915C55.4915 25.8976 55.4915 25.6456 55.4915 25.5196H55.2655V25.2676H55.0396V25.0156H54.8136V24.7636C54.7007 24.7636 54.4747 24.7636 54.3617 24.7636V24.5116C53.6907 24.5116 52.9993 24.5116 52.3282 24.5116V24.7636C52.2152 24.7636 51.9893 24.7636 51.8763 24.7636V25.0156H51.6503V25.2676H51.4244V25.5196H51.1984C51.1984 25.6456 51.1984 25.8976 51.1984 26.0236H50.9725C50.9725 26.7721 50.9725 27.5433 50.9725 28.2917H51.1984C51.1984 28.4177 51.1984 28.6698 51.1984 28.7958H51.4244V29.0478H51.6503V29.2998H51.8763C51.8763 29.1738 51.8763 28.9218 51.8763 28.7958H51.6503V28.5437H51.4244C51.4244 28.4177 51.4244 28.1657 51.4244 28.0397H51.1984C51.1984 27.4626 51.1984 26.8528 51.1984 26.2756H51.4244C51.4244 26.1496 51.4244 25.8976 51.4244 25.7716H51.6503V25.5196H51.8763V25.2676H52.1022V25.0156C52.2152 25.0156 52.4412 25.0156 52.5541 25.0156V24.7636C53.0716 24.7636 53.6184 24.7636 54.1358 24.7636V25.0156C54.2488 25.0156 54.4747 25.0156 54.5877 25.0156V25.2676H54.8136V25.5196H55.0396V25.7716H55.2655C55.2655 25.8976 55.2655 26.1496 55.2655 26.2756H55.4915C55.4915 26.9384 55.4915 27.6289 55.4915 28.2917C55.3785 28.2917 55.1526 28.2917 55.0396 28.2917V28.0397C54.599 28.0397 54.1245 28.0397 53.6839 28.0397V28.2917C53.4828 28.2917 53.2071 28.2917 53.006 28.2917V28.5437C52.8931 28.5437 52.6671 28.5437 52.5541 28.5437V28.7958H52.3282C52.3282 28.9218 52.3282 29.1738 52.3282 29.2998H52.1022C52.1022 29.5241 52.1022 29.8315 52.1022 30.0558H51.8763V29.8038H51.6503V30.0558H51.4244V30.3078H51.1984V30.5598H50.9725V30.3078H50.7465V30.5598H50.5206V30.3078H50.2946V30.5598H50.0687V30.3078H49.8427V30.0558H49.6168V29.8038H49.3908V29.5518H49.6168V29.2998H49.3908V29.0478H49.6168V28.7958H49.3908V28.5437H49.6168V28.2917H49.8427V28.0397H50.0687V27.7877H50.2946V28.0397H50.5206V27.7877H50.7465C50.7465 27.2106 50.7465 26.6007 50.7465 26.0236H50.9725C50.9725 25.8976 50.9725 25.6456 50.9725 25.5196H51.1984V25.2676H51.4244V25.0156H51.6503V24.7636H51.8763V24.5116C51.9893 24.5116 52.2152 24.5116 52.3282 24.5116V24.2596C52.9993 24.2596 53.6907 24.2596 54.3617 24.2596V24.0075H54.5877V23.7555H54.8136V23.5035H54.5877V23.2515H54.8136V22.9995H55.0396V22.7475H55.2655V22.4955H55.0396V22.2435C54.8385 22.2435 54.5628 22.2435 54.3617 22.2435V21.9915C53.4647 21.9915 52.5474 21.9915 51.6503 21.9915V22.2435C51.5374 22.2435 51.3114 22.2435 51.1984 22.2435V22.4955C51.0855 22.4955 50.8595 22.4955 50.7465 22.4955V22.7475H50.5206V22.9995H50.2946V23.2515H50.0687V23.5035H49.8427V23.7555H49.6168C49.6168 23.8815 49.6168 24.1336 49.6168 24.2596H49.3908C49.3908 24.3856 49.3908 24.6376 49.3908 24.7636H49.1649C49.1649 24.8896 49.1649 25.1416 49.1649 25.2676H48.9389C48.9389 25.3936 48.9389 25.6456 48.9389 25.7716H48.713C48.713 25.8976 48.713 26.1496 48.713 26.2756H48.487C48.487 26.4017 48.487 26.6537 48.487 26.7797H48.2611C48.2611 27.004 48.2611 27.3114 48.2611 27.5357H48.0352C48.0352 27.8507 48.0352 28.2287 48.0352 28.5437H47.8092C47.8092 29.2065 47.8092 29.897 47.8092 30.5598H47.5833C47.5833 32.4046 47.5833 34.2594 47.5833 36.1041C52.1 36.1041 56.6235 36.1041 61.1402 36.1041C61.1402 35.9781 61.1402 35.7261 61.1402 35.6001Z" fill="white"/>
<path d="M60.6884 35.3481H60.4624V35.6002H60.6884V35.3481Z" fill="black"/>
<path d="M60.2364 35.3481H60.0105V35.6002H60.2364V35.3481Z" fill="black"/>
<path d="M60.6884 35.0959H60.4624V35.348H60.6884V35.0959Z" fill="white"/>
<path d="M60.4623 35.0959H60.2363V35.348H60.4623V35.0959Z" fill="black"/>
<path d="M60.2364 35.0959H60.0105V35.348H60.2364V35.0959Z" fill="white"/>
<path d="M60.0104 35.0959H59.7844V35.348H60.0104V35.0959Z" fill="black"/>
<path d="M59.5585 35.0959H59.3325V35.348H59.5585V35.0959Z" fill="black"/>
<path d="M59.1066 35.0959H58.8806V35.348H59.1066V35.0959Z" fill="black"/>
<path d="M60.9142 34.844H60.6882V35.096H60.9142V34.844Z" fill="white"/>
<path d="M60.6884 34.844H60.4624V35.096H60.6884V34.844Z" fill="black"/>
<path d="M60.4623 34.844H60.2363V35.096H60.4623V34.844Z" fill="white"/>
<path d="M60.2364 34.844H60.0105V35.096H60.2364V34.844Z" fill="black"/>
<path d="M60.0104 34.844H59.7844V35.096H60.0104V34.844Z" fill="white"/>
<path d="M59.7845 34.844H59.5586V35.096H59.7845V34.844Z" fill="black"/>
<path d="M59.5585 34.844H59.3325V35.096H59.5585V34.844Z" fill="white"/>
<path d="M59.3326 34.844H59.1067V35.096H59.3326V34.844Z" fill="black"/>
<path d="M59.1066 34.844H58.8806V35.096H59.1066V34.844Z" fill="white"/>
<path d="M58.8807 34.844H58.6548V35.096H58.8807V34.844Z" fill="black"/>
<path d="M60.6884 34.592H60.4624V34.8441H60.6884V34.592Z" fill="white"/>
<path d="M60.4623 34.592H60.2363V34.8441H60.4623V34.592Z" fill="black"/>
<path d="M60.2364 34.592H60.0105V34.8441H60.2364V34.592Z" fill="white"/>
<path d="M60.0104 34.592H59.7844V34.8441H60.0104V34.592Z" fill="black"/>
<path d="M59.7845 34.592H59.5586V34.8441H59.7845V34.592Z" fill="white"/>
<path d="M59.5585 34.592H59.3325V34.8441H59.5585V34.592Z" fill="black"/>
<path d="M59.3326 34.592H59.1067V34.8441H59.3326V34.592Z" fill="white"/>
<path d="M59.1066 34.592H58.8806V34.8441H59.1066V34.592Z" fill="black"/>
<path d="M58.8807 34.592H58.6548V34.8441H58.8807V34.592Z" fill="white"/>
<path d="M58.6547 34.592H58.4287V34.8441H58.6547V34.592Z" fill="black"/>
<path d="M60.4623 34.3401H60.2363V34.5921H60.4623V34.3401Z" fill="white"/>
<path d="M60.2364 34.3401H60.0105V34.5921H60.2364V34.3401Z" fill="black"/>
<path d="M60.0104 34.3401H59.7844V34.5921H60.0104V34.3401Z" fill="white"/>
<path d="M59.7845 34.3401H59.5586V34.5921H59.7845V34.3401Z" fill="black"/>
<path d="M59.5585 34.3401H59.3325V34.5921H59.5585V34.3401Z" fill="white"/>
<path d="M59.3326 34.3401H59.1067V34.5921H59.3326V34.3401Z" fill="black"/>
<path d="M59.1066 34.3401H58.8806V34.5921H59.1066V34.3401Z" fill="white"/>
<path d="M58.8807 34.3401H58.6548V34.5921H58.8807V34.3401Z" fill="black"/>
<path d="M58.6547 34.3401H58.4287V34.5921H58.6547V34.3401Z" fill="white"/>
<path d="M58.4288 34.3401H58.2029V34.5921H58.4288V34.3401Z" fill="black"/>
<path d="M57.9769 34.3401H57.751V34.5921H57.9769V34.3401Z" fill="black"/>
<path d="M60.2364 34.0879H60.0105V34.3399H60.2364V34.0879Z" fill="white"/>
<path d="M59.7845 34.0879H59.5586V34.3399H59.7845V34.0879Z" fill="white"/>
<path d="M59.5585 34.0879H59.3325V34.3399H59.5585V34.0879Z" fill="black"/>
<path d="M59.3326 34.0879H59.1067V34.3399H59.3326V34.0879Z" fill="white"/>
<path d="M59.1066 34.0879H58.8806V34.3399H59.1066V34.0879Z" fill="black"/>
<path d="M58.8807 34.0879H58.6548V34.3399H58.8807V34.0879Z" fill="white"/>
<path d="M58.6547 34.0879H58.4287V34.3399H58.6547V34.0879Z" fill="black"/>
<path d="M58.4288 34.0879H58.2029V34.3399H58.4288V34.0879Z" fill="white"/>
<path d="M58.2028 34.0879H57.9768V34.3399H58.2028V34.0879Z" fill="black"/>
<path d="M57.9769 34.0879H57.751V34.3399H57.9769V34.0879Z" fill="white"/>
<path d="M57.7511 34.0879H57.5251V34.3399H57.7511V34.0879Z" fill="black"/>
<path d="M59.5585 33.8359H59.3325V34.0879H59.5585V33.8359Z" fill="white"/>
<path d="M59.1066 33.8359H58.8806V34.0879H59.1066V33.8359Z" fill="white"/>
<path d="M58.8807 33.8359H58.6548V34.0879H58.8807V33.8359Z" fill="black"/>
<path d="M58.6547 33.8359H58.4287V34.0879H58.6547V33.8359Z" fill="white"/>
<path d="M58.4288 33.8359H58.2029V34.0879H58.4288V33.8359Z" fill="black"/>
<path d="M58.2028 33.8359H57.9768V34.0879H58.2028V33.8359Z" fill="white"/>
<path d="M57.9769 33.8359H57.751V34.0879H57.9769V33.8359Z" fill="black"/>
<path d="M58.8807 33.584H58.6548V33.836H58.8807V33.584Z" fill="white"/>
<path d="M58.2028 33.584H57.9768V33.836H58.2028V33.584Z" fill="black"/>
<path d="M57.7511 33.584H57.5251V33.836H57.7511V33.584Z" fill="black"/>
<path d="M62.0439 30.5599C62.245 30.5599 62.5207 30.5599 62.7218 30.5599V30.3079C62.3603 30.3079 61.9536 30.3079 61.592 30.3079V30.5599C61.705 30.5599 61.931 30.5599 62.0439 30.5599Z" fill="black"/>
<path d="M55.4916 30.3079H55.2656V30.5599C55.3786 30.5599 55.6045 30.5599 55.7175 30.5599V30.3079H55.4916Z" fill="black"/>
<path d="M51.1984 30.3079H50.9724V30.5599H51.1984V30.3079Z" fill="black"/>
<path d="M50.7465 30.3079H50.5205V30.5599H50.7465V30.3079Z" fill="black"/>
<path d="M50.2946 30.3079H50.0686V30.5599H50.2946V30.3079Z" fill="black"/>
<path d="M63.1737 30.0557H62.9477V29.8037C62.8348 29.8037 62.6088 29.8037 62.4958 29.8037V30.0557H62.7218V30.3077C63.0042 30.3077 63.3432 30.3077 63.6256 30.3077V30.0557C63.5126 30.0557 63.2867 30.0557 63.1737 30.0557Z" fill="black"/>
<path d="M61.818 30.3078C62.1004 30.3078 62.4393 30.3078 62.7218 30.3078V30.0558H62.4958V29.8038C62.3828 29.8038 62.1569 29.8038 62.0439 29.8038V29.5518C61.7615 29.5518 61.4225 29.5518 61.1401 29.5518V29.2998C60.6227 29.2998 60.0759 29.2998 59.5585 29.2998V29.5518H59.3325V29.8038H59.1066V30.0558H58.8806C58.8806 30.1818 58.8806 30.4339 58.8806 30.5599C59.7776 30.5599 60.695 30.5599 61.592 30.5599V30.3078H61.818Z" fill="white"/>
<path d="M55.2655 30.0559H55.0396V30.3079H55.2655V30.0559Z" fill="black"/>
<path d="M51.4244 30.0559H51.1985V30.3079H51.4244V30.0559Z" fill="black"/>
<path d="M51.1984 30.0559H50.9724V30.3079H51.1984V30.0559Z" fill="white"/>
<path d="M50.9725 30.0559H50.7466V30.3079H50.9725V30.0559Z" fill="black"/>
<path d="M50.7465 30.0559H50.5205V30.3079H50.7465V30.0559Z" fill="white"/>
<path d="M50.5206 30.0559H50.2947V30.3079H50.5206V30.0559Z" fill="black"/>
<path d="M50.2946 30.0559H50.0686V30.3079H50.2946V30.0559Z" fill="white"/>
<path d="M50.0687 30.0559H49.8428V30.3079H50.0687V30.0559Z" fill="black"/>
<path d="M63.8517 29.8037H63.6257V30.0557C63.8268 30.0557 64.1025 30.0557 64.3036 30.0557V29.8037C64.1906 29.8037 63.9647 29.8037 63.8517 29.8037Z" fill="black"/>
<path d="M51.6503 29.8037H51.4243V30.0557H51.6503V29.8037Z" fill="black"/>
<path d="M51.4244 29.8037H51.1985V30.0557H51.4244V29.8037Z" fill="white"/>
<path d="M51.1984 29.8037H50.9724V30.0557H51.1984V29.8037Z" fill="black"/>
<path d="M50.9725 29.8037H50.7466V30.0557H50.9725V29.8037Z" fill="white"/>
<path d="M50.7465 29.8037H50.5205V30.0557H50.7465V29.8037Z" fill="black"/>
<path d="M50.5206 29.8037H50.2947V30.0557H50.5206V29.8037Z" fill="white"/>
<path d="M50.2946 29.8037H50.0686V30.0557H50.2946V29.8037Z" fill="black"/>
<path d="M50.0687 29.8037H49.8428V30.0557H50.0687V29.8037Z" fill="white"/>
<path d="M49.8426 29.8037H49.6167V30.0557H49.8426V29.8037Z" fill="black"/>
<path d="M64.3035 29.5518V29.8038C64.4164 29.8038 64.6424 29.8038 64.7554 29.8038V29.5518C64.6424 29.5518 64.4164 29.5518 64.3035 29.5518Z" fill="black"/>
<path d="M62.2699 29.8038H62.4958V29.5518C62.3829 29.5518 62.1569 29.5518 62.0439 29.5518V29.8038H62.2699Z" fill="black"/>
<path d="M51.6503 29.5518H51.4243V29.8038H51.6503V29.5518Z" fill="white"/>
<path d="M51.4244 29.5518H51.1985V29.8038H51.4244V29.5518Z" fill="black"/>
<path d="M51.1984 29.5518H50.9724V29.8038H51.1984V29.5518Z" fill="white"/>
<path d="M50.9725 29.5518H50.7466V29.8038H50.9725V29.5518Z" fill="black"/>
<path d="M50.7465 29.5518H50.5205V29.8038H50.7465V29.5518Z" fill="white"/>
<path d="M50.5206 29.5518H50.2947V29.8038H50.5206V29.5518Z" fill="black"/>
<path d="M50.2946 29.5518H50.0686V29.8038H50.2946V29.5518Z" fill="white"/>
<path d="M50.0687 29.5518H49.8428V29.8038H50.0687V29.5518Z" fill="black"/>
<path d="M49.8426 29.5518H49.6167V29.8038H49.8426V29.5518Z" fill="white"/>
<path d="M49.6168 29.5518H49.3909V29.8038H49.6168V29.5518Z" fill="black"/>
<path d="M62.4958 29.5518V29.8038C62.6088 29.8038 62.8348 29.8038 62.9477 29.8038V30.0558C63.1488 30.0558 63.4245 30.0558 63.6256 30.0558V29.8038C63.8267 29.8038 64.1023 29.8038 64.3034 29.8038V29.5518C64.4164 29.5518 64.6424 29.5518 64.7553 29.5518V29.2998C63.8583 29.2998 62.941 29.2998 62.0439 29.2998V29.5518C62.1569 29.5518 62.3829 29.5518 62.4958 29.5518Z" fill="white"/>
<path d="M51.4244 29.2998H51.1985V29.5518H51.4244V29.2998Z" fill="white"/>
<path d="M51.1984 29.2998H50.9724V29.5518H51.1984V29.2998Z" fill="black"/>
<path d="M50.9725 29.2998H50.7466V29.5518H50.9725V29.2998Z" fill="white"/>
<path d="M50.7465 29.2998H50.5205V29.5518H50.7465V29.2998Z" fill="black"/>
<path d="M50.5206 29.2998H50.2947V29.5518H50.5206V29.2998Z" fill="white"/>
<path d="M50.2946 29.2998H50.0686V29.5518H50.2946V29.2998Z" fill="black"/>
<path d="M50.0687 29.2998H49.8428V29.5518H50.0687V29.2998Z" fill="white"/>
<path d="M49.8426 29.2998H49.6167V29.5518H49.8426V29.2998Z" fill="black"/>
<path d="M51.1984 29.0479H50.9724V29.2999H51.1984V29.0479Z" fill="white"/>
<path d="M50.9725 29.0479H50.7466V29.2999H50.9725V29.0479Z" fill="black"/>
<path d="M50.7465 29.0479H50.5205V29.2999H50.7465V29.0479Z" fill="white"/>
<path d="M50.5206 29.0479H50.2947V29.2999H50.5206V29.0479Z" fill="black"/>
<path d="M50.2946 29.0479H50.0686V29.2999H50.2946V29.0479Z" fill="white"/>
<path d="M50.0687 29.0479H49.8428V29.2999H50.0687V29.0479Z" fill="black"/>
<path d="M49.8426 29.0479H49.6167V29.2999H49.8426V29.0479Z" fill="white"/>
<path d="M49.6168 29.0479H49.3909V29.2999H49.6168V29.0479Z" fill="black"/>
<path d="M50.9725 28.7957H50.7466V29.0477H50.9725V28.7957Z" fill="white"/>
<path d="M50.7465 28.7957H50.5205V29.0477H50.7465V28.7957Z" fill="black"/>
<path d="M50.5206 28.7957H50.2947V29.0477H50.5206V28.7957Z" fill="white"/>
<path d="M50.2946 28.7957H50.0686V29.0477H50.2946V28.7957Z" fill="black"/>
<path d="M50.0687 28.7957H49.8428V29.0477H50.0687V28.7957Z" fill="white"/>
<path d="M49.8426 28.7957H49.6167V29.0477H49.8426V28.7957Z" fill="black"/>
<path d="M52.3281 28.7958C52.3281 28.6698 52.3281 28.4178 52.3281 28.2918H52.1022C52.1022 28.1658 52.1022 27.9138 52.1022 27.7877H51.8762C51.8762 27.3845 51.8762 26.9309 51.8762 26.5277H52.1022C52.1022 26.4017 52.1022 26.1497 52.1022 26.0237H52.3281V25.7717C52.4411 25.7717 52.667 25.7717 52.78 25.7717V25.5196C53.1415 25.5196 53.5482 25.5196 53.9098 25.5196V25.7717C54.0227 25.7717 54.2487 25.7717 54.3617 25.7717V26.0237H54.5876C54.5876 26.1497 54.5876 26.4017 54.5876 26.5277H54.8136C54.8136 26.9309 54.8136 27.3845 54.8136 27.7877H55.0395V28.0398H55.2655C55.2655 27.4627 55.2655 26.8528 55.2655 26.2757H55.0395C55.0395 26.1497 55.0395 25.8977 55.0395 25.7717H54.8136V25.5196H54.5876V25.2676C54.4746 25.2676 54.2487 25.2676 54.1357 25.2676V25.0156C53.6183 25.0156 53.0715 25.0156 52.5541 25.0156V25.2676C52.4411 25.2676 52.2151 25.2676 52.1022 25.2676V25.5196H51.8762V25.7717H51.6503C51.6503 25.8977 51.6503 26.1497 51.6503 26.2757H51.4243C51.4243 26.8528 51.4243 27.4627 51.4243 28.0398H51.6503C51.6503 28.1658 51.6503 28.4178 51.6503 28.5438H51.8762V28.7958C51.9892 28.7958 52.2151 28.7958 52.3281 28.7958Z" fill="white"/>
<path d="M51.8763 28.5437H51.6504V28.7957H51.8763V28.5437Z" fill="black"/>
<path d="M50.7466 28.5438V28.7958H50.9725V29.0478H51.1985V29.2998H51.4244V29.5518H51.6504V29.8038H51.8763V30.0558H52.1023C52.1023 29.8315 52.1023 29.5241 52.1023 29.2998H52.3282C52.3282 29.1738 52.3282 28.9218 52.3282 28.7958C52.2153 28.7958 51.9893 28.7958 51.8763 28.7958C51.8763 28.9218 51.8763 29.1738 51.8763 29.2998H51.6504V29.0478H51.4244V28.7958H51.1985C51.1985 28.6698 51.1985 28.4178 51.1985 28.2917H50.9725V28.5438H50.7466Z" fill="black"/>
<path d="M50.7465 28.5437H50.5205V28.7957H50.7465V28.5437Z" fill="white"/>
<path d="M50.5206 28.5437H50.2947V28.7957H50.5206V28.5437Z" fill="black"/>
<path d="M50.2946 28.5437H50.0686V28.7957H50.2946V28.5437Z" fill="white"/>
<path d="M50.0687 28.5437H49.8428V28.7957H50.0687V28.5437Z" fill="black"/>
<path d="M49.8426 28.5437H49.6167V28.7957H49.8426V28.5437Z" fill="white"/>
<path d="M49.6168 28.5437H49.3909V28.7957H49.6168V28.5437Z" fill="black"/>
<path d="M50.9725 28.2917H50.7466V28.5438H50.9725V28.2917Z" fill="white"/>
<path d="M50.7465 28.2917H50.5205V28.5438H50.7465V28.2917Z" fill="black"/>
<path d="M50.5206 28.2917H50.2947V28.5438H50.5206V28.2917Z" fill="white"/>
<path d="M50.2946 28.2917H50.0686V28.5438H50.2946V28.2917Z" fill="black"/>
<path d="M50.0687 28.2917H49.8428V28.5438H50.0687V28.2917Z" fill="white"/>
<path d="M49.8426 28.2917H49.6167V28.5438H49.8426V28.2917Z" fill="black"/>
<path d="M51.6503 28.0398H51.4243C51.4243 28.1658 51.4243 28.4178 51.4243 28.5438H51.6503C51.6503 28.4178 51.6503 28.1658 51.6503 28.0398Z" fill="black"/>
<path d="M50.7465 28.0398H50.5205V28.2918H50.7465V28.0398Z" fill="white"/>
<path d="M50.5206 28.0398H50.2947V28.2918H50.5206V28.0398Z" fill="black"/>
<path d="M50.2946 28.0398H50.0686V28.2918H50.2946V28.0398Z" fill="white"/>
<path d="M50.0687 28.0398H49.8428V28.2918H50.0687V28.0398Z" fill="black"/>
<path d="M54.8136 27.7876C54.8136 27.3844 54.8136 26.9308 54.8136 26.5276H54.5876C54.5876 26.4016 54.5876 26.1496 54.5876 26.0236H54.3617V25.7715C54.2487 25.7715 54.0227 25.7715 53.9098 25.7715V25.5195C53.5482 25.5195 53.1415 25.5195 52.78 25.5195V25.7715C52.667 25.7715 52.4411 25.7715 52.3281 25.7715V26.0236H52.1022C52.1022 26.1496 52.1022 26.4016 52.1022 26.5276H51.8762C51.8762 26.9308 51.8762 27.3844 51.8762 27.7876H52.1022C52.1022 27.9136 52.1022 28.1656 52.1022 28.2917H52.3281C52.3281 28.4177 52.3281 28.6697 52.3281 28.7957H52.5541V28.5437C52.667 28.5437 52.893 28.5437 53.006 28.5437V28.2917C53.2071 28.2917 53.4827 28.2917 53.6838 28.2917V28.0396C54.1244 28.0396 54.5989 28.0396 55.0395 28.0396V27.7876H54.8136ZM52.78 26.7796V26.5276C52.893 26.5276 53.1189 26.5276 53.2319 26.5276C53.2319 26.6536 53.2319 26.9056 53.2319 27.0316C53.1189 27.0316 52.893 27.0316 52.78 27.0316V26.7796Z" fill="black"/>
<path d="M50.2946 27.7876H50.0686V28.0396H50.2946V27.7876Z" fill="black"/>
<path d="M55.9435 27.5357C55.9435 27.0443 55.9435 26.5151 55.9435 26.0237H55.7175C55.7175 26.6008 55.7175 27.2107 55.7175 27.7878C55.9186 27.7878 56.1943 27.7878 56.3954 27.7878V27.5357C56.2824 27.5357 56.0565 27.5357 55.9435 27.5357Z" fill="black"/>
<path d="M51.4244 27.5357C51.4244 27.1325 51.4244 26.6789 51.4244 26.2756H51.1985C51.1985 26.8527 51.1985 27.4626 51.1985 28.0397H51.4244C51.4244 27.9137 51.4244 27.6617 51.4244 27.5357Z" fill="black"/>
<path d="M56.3953 27.2837V27.5357C56.5082 27.5357 56.7342 27.5357 56.8472 27.5357V27.2837C56.7342 27.2837 56.5082 27.2837 56.3953 27.2837Z" fill="black"/>
<path d="M56.8472 27.0317V27.2837C56.9601 27.2837 57.1861 27.2837 57.2991 27.2837V27.0317C57.1861 27.0317 56.9601 27.0317 56.8472 27.0317Z" fill="black"/>
<path d="M57.2991 26.7795V27.0316C57.412 27.0316 57.638 27.0316 57.751 27.0316V26.7795C57.638 26.7795 57.412 26.7795 57.2991 26.7795Z" fill="black"/>
<path d="M53.2319 27.0316C53.2319 26.9056 53.2319 26.6536 53.2319 26.5276C53.119 26.5276 52.893 26.5276 52.78 26.5276C52.78 26.6536 52.78 26.9056 52.78 27.0316C52.893 27.0316 53.119 27.0316 53.2319 27.0316Z" fill="white"/>
<path d="M57.751 26.5276V26.7796C57.864 26.7796 58.0899 26.7796 58.2029 26.7796V26.5276C58.0899 26.5276 57.864 26.5276 57.751 26.5276Z" fill="black"/>
<path d="M55.2655 26.7797C55.2655 27.1829 55.2655 27.6365 55.2655 28.0397H55.0396V28.2917C55.1525 28.2917 55.3785 28.2917 55.4914 28.2917C55.4914 27.6289 55.4914 26.9384 55.4914 26.2756H55.2655C55.2655 26.4016 55.2655 26.6537 55.2655 26.7797Z" fill="black"/>
<path d="M58.4288 26.2756H58.2029V26.5276H58.4288V26.2756Z" fill="black"/>
<path d="M58.4287 26.0237V26.2757C58.5417 26.2757 58.7676 26.2757 58.8806 26.2757V26.0237C58.7676 26.0237 58.5417 26.0237 58.4287 26.0237Z" fill="black"/>
<path d="M55.0396 26.2758H55.2655C55.2655 26.1497 55.2655 25.8977 55.2655 25.7717H55.0396C55.0396 25.8977 55.0396 26.1497 55.0396 26.2758Z" fill="black"/>
<path d="M51.6503 26.0237V25.7717H51.4243C51.4243 25.8977 51.4243 26.1497 51.4243 26.2758H51.6503V26.0237Z" fill="black"/>
<path d="M50.7465 26.2757C50.7465 26.7671 50.7465 27.2963 50.7465 27.7878H50.5205V28.0398H50.7465V28.2918H50.9724C50.9724 27.5433 50.9724 26.7722 50.9724 26.0237H50.7465V26.2757Z" fill="black"/>
<path d="M59.1066 25.7717H58.8806V26.0237H59.1066V25.7717Z" fill="black"/>
<path d="M59.1067 25.5195V25.7715C59.2197 25.7715 59.4456 25.7715 59.5586 25.7715V25.5195C59.4456 25.5195 59.2197 25.5195 59.1067 25.5195Z" fill="black"/>
<path d="M57.5251 25.5195C57.4122 25.5195 57.1862 25.5195 57.0732 25.5195V25.7715C57.3557 25.7715 57.6946 25.7715 57.977 25.7715V25.5195C57.8641 25.5195 57.6381 25.5195 57.5251 25.5195Z" fill="black"/>
<path d="M55.7174 25.5195H55.4915C55.4915 25.6455 55.4915 25.8975 55.4915 26.0236H55.7174C55.7174 25.8975 55.7174 25.6455 55.7174 25.5195Z" fill="black"/>
<path d="M55.0397 25.5195H54.8137V25.7715H55.0397V25.5195Z" fill="black"/>
<path d="M51.8763 25.5195H51.6504V25.7715H51.8763V25.5195Z" fill="black"/>
<path d="M50.9724 25.7715V26.0236H51.1984C51.1984 25.8975 51.1984 25.6455 51.1984 25.5195H50.9724V25.7715Z" fill="black"/>
<path d="M59.7845 25.2676H59.5586V25.5196H59.7845V25.2676Z" fill="black"/>
<path d="M57.9768 25.2676V25.5196C58.0898 25.5196 58.3157 25.5196 58.4287 25.5196V25.2676C58.3157 25.2676 58.0898 25.2676 57.9768 25.2676Z" fill="black"/>
<path d="M57.0731 25.2676H56.8472V25.5196H57.0731V25.2676Z" fill="black"/>
<path d="M55.4916 25.2676H55.2656V25.5196H55.4916V25.2676Z" fill="black"/>
<path d="M54.8136 25.2676H54.5876V25.5196H54.8136V25.2676Z" fill="black"/>
<path d="M52.1022 25.2676H51.8762V25.5196H52.1022V25.2676Z" fill="black"/>
<path d="M51.4244 25.2676H51.1985V25.5196H51.4244V25.2676Z" fill="black"/>
<path d="M59.7844 25.0156V25.2676C59.8974 25.2676 60.1233 25.2676 60.2363 25.2676V25.0156C60.1233 25.0156 59.8974 25.0156 59.7844 25.0156Z" fill="black"/>
<path d="M58.4287 25.0156V25.2676C58.5417 25.2676 58.7676 25.2676 58.8806 25.2676V25.0156C58.7676 25.0156 58.5417 25.0156 58.4287 25.0156Z" fill="black"/>
<path d="M56.8473 25.0156H56.6213V25.2676H56.8473V25.0156Z" fill="black"/>
<path d="M55.2655 25.0156H55.0396V25.2676H55.2655V25.0156Z" fill="black"/>
<path d="M54.3617 25.2676H54.5876V25.0156C54.4747 25.0156 54.2487 25.0156 54.1357 25.0156V25.2676H54.3617Z" fill="black"/>
<path d="M52.5542 25.2676V25.0156C52.4412 25.0156 52.2153 25.0156 52.1023 25.0156V25.2676C52.2153 25.2676 52.4412 25.2676 52.5542 25.2676Z" fill="black"/>
<path d="M51.6503 25.0156H51.4243V25.2676H51.6503V25.0156Z" fill="black"/>
<path d="M60.4623 24.7637H60.2363V25.0157H60.4623V24.7637Z" fill="black"/>
<path d="M59.1066 24.7637H58.8806V25.0157H59.1066V24.7637Z" fill="black"/>
<path d="M53.0061 25.0157C53.3676 25.0157 53.7743 25.0157 54.1358 25.0157V24.7637C53.6184 24.7637 53.0716 24.7637 52.5542 24.7637V25.0157C52.6672 25.0157 52.8931 25.0157 53.0061 25.0157Z" fill="black"/>
<path d="M51.8763 24.7637H51.6504V25.0157H51.8763V24.7637Z" fill="black"/>
<path d="M59.1067 24.5115V24.7635C59.2197 24.7635 59.4456 24.7635 59.5586 24.7635V24.5115C59.4456 24.5115 59.2197 24.5115 59.1067 24.5115Z" fill="black"/>
<path d="M58.2028 24.5115H57.9768V24.7635H58.2028V24.5115Z" fill="black"/>
<path d="M56.6212 24.5115V24.2595H56.3953C56.3953 24.4838 56.3953 24.7913 56.3953 25.0156H56.6212C56.6212 24.8895 56.6212 24.6375 56.6212 24.5115Z" fill="black"/>
<path d="M55.2655 24.7636C55.2655 24.6376 55.2655 24.3856 55.2655 24.2596H55.0395V24.5116H54.8136V24.2596H54.5876V24.0076H54.3617V24.2596C53.6906 24.2596 52.9992 24.2596 52.3281 24.2596V24.5116C52.9992 24.5116 53.6906 24.5116 54.3617 24.5116V24.7636C54.4746 24.7636 54.7006 24.7636 54.8136 24.7636V25.0156H55.0395V24.7636H55.2655Z" fill="black"/>
<path d="M51.8762 24.5115V24.7635C51.9892 24.7635 52.2151 24.7635 52.3281 24.7635V24.5115C52.2151 24.5115 51.9892 24.5115 51.8762 24.5115Z" fill="black"/>
<path d="M59.7845 24.2595H59.5586V24.5115H59.7845V24.2595Z" fill="black"/>
<path d="M57.9769 24.2595H57.751V24.5115H57.9769V24.2595Z" fill="black"/>
<path d="M55.0397 24.2595H54.8137V24.5115H55.0397V24.2595Z" fill="white"/>
<path d="M58.8807 24.0076H58.6548V24.2596H58.8807V24.0076Z" fill="black"/>
<path d="M57.7511 24.0076H57.5251V24.2596H57.7511V24.0076Z" fill="black"/>
<path d="M56.8473 24.0076V23.7556H56.6213C56.6213 23.8816 56.6213 24.1336 56.6213 24.2596H56.8473V24.0076Z" fill="black"/>
<path d="M55.2655 24.0076H55.0396V24.2596H55.2655V24.0076Z" fill="white"/>
<path d="M55.0397 24.0076H54.8137V24.2596H55.0397V24.0076Z" fill="black"/>
<path d="M54.8136 24.0076H54.5876V24.2596H54.8136V24.0076Z" fill="white"/>
<path d="M58.6547 23.7556H58.4287V24.0076H58.6547V23.7556Z" fill="black"/>
<path d="M55.0397 23.7556H54.8137V24.0076H55.0397V23.7556Z" fill="white"/>
<path d="M54.8136 23.7556H54.5876V24.0076H54.8136V23.7556Z" fill="black"/>
<path d="M59.5585 23.5034H59.3325V23.7554H59.5585V23.5034Z" fill="black"/>
<path d="M58.4288 23.5034H58.2029V23.7554H58.4288V23.5034Z" fill="black"/>
<path d="M57.0731 23.5034H56.8472V23.7554H57.0731V23.5034Z" fill="black"/>
<path d="M55.2655 23.5034H55.0396V23.7554H55.2655V23.5034Z" fill="white"/>
<path d="M55.0397 23.5034H54.8137V23.7554H55.0397V23.5034Z" fill="black"/>
<path d="M59.3326 23.2515H59.1067V23.5035H59.3326V23.2515Z" fill="black"/>
<path d="M58.2028 23.2515H57.9768V23.5035H58.2028V23.2515Z" fill="black"/>
<path d="M57.2992 23.2515H57.0732V23.5035H57.2992V23.2515Z" fill="black"/>
<path d="M55.4914 23.5035H55.2655V23.7555H55.0396V24.0075H55.2655V24.2595H55.4914C55.4914 24.1335 55.4914 23.8815 55.4914 23.7555H55.7174C55.7174 23.6295 55.7174 23.3775 55.7174 23.2515H55.4914V23.5035Z" fill="black"/>
<path d="M55.4916 23.2515H55.2656V23.5035H55.4916V23.2515Z" fill="white"/>
<path d="M55.2655 23.2515H55.0396V23.5035H55.2655V23.2515Z" fill="black"/>
<path d="M55.0397 23.2515H54.8137V23.5035H55.0397V23.2515Z" fill="white"/>
<path d="M54.8136 23.2515H54.5876V23.5035H54.8136V23.2515Z" fill="black"/>
<path d="M59.1066 22.9995H58.8806V23.2515H59.1066V22.9995Z" fill="black"/>
<path d="M57.525 22.9995H57.2991V23.2515H57.525V22.9995Z" fill="black"/>
<path d="M55.9435 22.9995H55.7175V23.2515H55.9435V22.9995Z" fill="black"/>
<path d="M55.7174 22.9995H55.4915V23.2515H55.7174V22.9995Z" fill="white"/>
<path d="M55.4916 22.9995H55.2656V23.2515H55.4916V22.9995Z" fill="black"/>
<path d="M55.2655 22.9995H55.0396V23.2515H55.2655V22.9995Z" fill="white"/>
<path d="M55.0397 22.9995H54.8137V23.2515H55.0397V22.9995Z" fill="black"/>
<path d="M58.8807 22.7476H58.6548V22.9996H58.8807V22.7476Z" fill="black"/>
<path d="M57.7511 22.7476H57.5251V22.9996H57.7511V22.7476Z" fill="black"/>
<path d="M55.9435 22.7476H55.7175V22.9996H55.9435V22.7476Z" fill="white"/>
<path d="M55.7174 22.7476H55.4915V22.9996H55.7174V22.7476Z" fill="black"/>
<path d="M55.4916 22.7476H55.2656V22.9996H55.4916V22.7476Z" fill="white"/>
<path d="M55.2655 22.7476H55.0396V22.9996H55.2655V22.7476Z" fill="black"/>
<path d="M57.977 22.4954V22.7474H57.7511V22.9994H57.5251V23.2515H57.2992V23.5035H57.0732V23.7555H56.8473C56.8473 23.8815 56.8473 24.1335 56.8473 24.2595H56.6213C56.6213 24.4838 56.6213 24.7912 56.6213 25.0155H56.8473V25.2675H57.0732V25.5196C57.3557 25.5196 57.6946 25.5196 57.977 25.5196V25.2675C58.09 25.2675 58.316 25.2675 58.4289 25.2675V25.0155C58.5419 25.0155 58.7679 25.0155 58.8808 25.0155V24.7635H59.1068V24.5115C59.2198 24.5115 59.4457 24.5115 59.5587 24.5115V24.2595H59.7846V24.0075H60.0106C60.0106 23.7832 60.0106 23.4757 60.0106 23.2515H59.7846V22.9994H59.5587V22.7474H59.3327V22.4954H59.1068V22.2434C58.8243 22.2434 58.4854 22.2434 58.203 22.2434V22.4954H57.977ZM59.1068 22.9994V23.2515H59.3327V23.5035H59.5587V23.7555H59.3327V23.5035H59.1068V23.2515H58.8808V22.9994H58.6549V22.7474H58.8808V22.9994H59.1068ZM58.8808 24.2595H58.6549V24.0075H58.4289V23.7555H58.203V23.5035H57.977V23.2515H58.203V23.5035H58.4289V23.7555H58.6549V24.0075H58.8808V24.2595ZM58.203 24.7635H57.977V24.5115H57.7511V24.2595H57.5251V24.0075H57.7511V24.2595H57.977V24.5115H58.203V24.7635Z" fill="white"/>
<path d="M57.9769 22.4954H57.751V22.7474H57.9769V22.4954Z" fill="black"/>
<path d="M55.9435 22.7474V22.9994H56.1694V22.7474H56.3954V22.4954H56.1694V22.2434H55.9435V22.4954H55.7175V22.7474H55.9435Z" fill="black"/>
<path d="M55.7174 22.4954H55.4915V22.7474H55.7174V22.4954Z" fill="white"/>
<path d="M55.4914 22.4954H55.7174V22.2434C55.5163 22.2434 55.2406 22.2434 55.0396 22.2434V22.4954H55.2655V22.7474H55.4914V22.4954Z" fill="black"/>
<path d="M58.2028 22.2434H57.9768V22.4954H58.2028V22.2434Z" fill="black"/>
<path d="M56.6212 22.2434H56.3953V22.4954H56.6212V22.2434Z" fill="black"/>
<path d="M56.3954 22.2434H56.1694V22.4954H56.3954V22.2434Z" fill="white"/>
<path d="M56.8471 21.9915V22.2435H56.6212V22.4955H56.3952V22.7475H56.1693V22.9996H55.9433V23.2516H55.7174C55.7174 23.3776 55.7174 23.6296 55.7174 23.7556H55.4914C55.4914 23.8816 55.4914 24.1336 55.4914 24.2596H55.2655C55.2655 24.3856 55.2655 24.6376 55.2655 24.7636H55.0396V25.0156H55.2655V25.2677H55.4914V25.5197H55.7174C55.7174 25.6457 55.7174 25.8977 55.7174 26.0237H55.9433C55.9433 26.5151 55.9433 27.0443 55.9433 27.5358C56.0563 27.5358 56.2823 27.5358 56.3952 27.5358V27.2837C56.5082 27.2837 56.7342 27.2837 56.8471 27.2837V27.0317C56.9601 27.0317 57.1861 27.0317 57.299 27.0317V26.7797C57.412 26.7797 57.638 26.7797 57.7509 26.7797V26.5277C57.8639 26.5277 58.0899 26.5277 58.2028 26.5277V26.2757H58.4288V26.0237C58.5418 26.0237 58.7677 26.0237 58.8807 26.0237V25.7717H59.1066V25.5197C59.2196 25.5197 59.4456 25.5197 59.5585 25.5197V25.2677H59.7845V25.0156C59.8975 25.0156 60.1234 25.0156 60.2364 25.0156V24.7636H60.4623C60.4623 24.6376 60.4623 24.3856 60.4623 24.2596C60.2612 24.2596 59.9856 24.2596 59.7845 24.2596V24.5116H59.5585V24.7636C59.4456 24.7636 59.2196 24.7636 59.1066 24.7636V25.0156H58.8807V25.2677C58.7677 25.2677 58.5418 25.2677 58.4288 25.2677V25.5197C58.3158 25.5197 58.0899 25.5197 57.9769 25.5197V25.7717C57.6945 25.7717 57.3555 25.7717 57.0731 25.7717V25.5197H56.8471V25.2677H56.6212V25.0156H56.3952C56.3952 24.7914 56.3952 24.4839 56.3952 24.2596H56.6212C56.6212 24.1336 56.6212 23.8816 56.6212 23.7556H56.8471V23.5036H57.0731V23.2516H57.299V22.9996H57.525V22.7475H57.7509V22.4955H57.9769V22.2435H58.2028C58.2028 22.1175 58.2028 21.8655 58.2028 21.7395C57.8413 21.7395 57.4346 21.7395 57.0731 21.7395V21.9915H56.8471Z" fill="white"/>
<path d="M56.8473 21.9915H56.6213V22.2435H56.8473V21.9915Z" fill="black"/>
<path d="M56.6212 21.9915H56.3953V22.2435H56.6212V21.9915Z" fill="white"/>
<path d="M56.3954 21.9915H56.1694V22.2435H56.3954V21.9915Z" fill="black"/>
<path d="M54.5878 22.2435C54.7007 22.2435 54.9267 22.2435 55.0397 22.2435V21.9915C54.8386 21.9915 54.5629 21.9915 54.3618 21.9915V22.2435H54.5878Z" fill="black"/>
<path d="M57.0731 21.7395H56.8472V21.9915H57.0731V21.7395Z" fill="black"/>
<path d="M56.8473 21.7395H56.6213V21.9915H56.8473V21.7395Z" fill="white"/>
<path d="M56.6212 21.7395H56.3953V21.9915H56.6212V21.7395Z" fill="black"/>
<path d="M54.8137 21.9914H55.0396V22.2434C55.2407 22.2434 55.5164 22.2434 55.7175 22.2434V22.4954H55.9434V22.2434H56.1694V21.9914H56.3953V21.7394H56.6213V21.4874H56.3953V21.2354C55.4215 21.2354 54.4318 21.2354 53.458 21.2354V21.4874C53.1756 21.4874 52.8366 21.4874 52.5542 21.4874V21.7394C53.1484 21.7394 53.7675 21.7394 54.3618 21.7394V21.9914C54.4748 21.9914 54.7007 21.9914 54.8137 21.9914Z" fill="white"/>
<path d="M57.0731 21.4873H56.8472V21.7393H57.0731V21.4873Z" fill="white"/>
</g>
<path d="M164 69L126.37 69.1338" stroke="#F63F3F" stroke-width="3" stroke-linecap="round" stroke-linejoin="round"/>
<path d="M131.37 74.1348L126.37 69.1348L131.37 64.1348" stroke="#F63F3F" stroke-width="3" stroke-linecap="round" stroke-linejoin="round"/>
<defs>
<clipPath id="clip0_525_39534">
<rect width="12" height="12" fill="white" transform="translate(288 23)"/>
</clipPath>
<clipPath id="clip1_525_39534">
<rect x="49" y="19" width="17" height="17" rx="4" fill="white"/>
</clipPath>
</defs>
</svg>
