<svg width="18" height="18" viewBox="0 0 18 18" fill="none" xmlns="http://www.w3.org/2000/svg">
<g clip-path="url(#clip0_927_8133)">
<path d="M9.00007 0C4.03012 0 0 4.12608 0 9.21607C0 13.288 2.5788 16.7426 6.1548 17.9612C6.6046 18.0465 6.76973 17.7613 6.76973 17.5178C6.76973 17.2981 6.76138 16.5721 6.75751 15.802C4.25368 16.3595 3.72534 14.7146 3.72534 14.7146C3.31593 13.6494 2.72604 13.3661 2.72604 13.3661C1.90947 12.7941 2.7876 12.8059 2.7876 12.8059C3.69136 12.8709 4.16724 13.7556 4.16724 13.7556C4.96995 15.1645 6.27269 14.7572 6.78627 14.5217C6.86705 13.9261 7.10029 13.5195 7.35768 13.2894C5.35864 13.0563 3.25721 12.2661 3.25721 8.73473C3.25721 7.72854 3.60879 6.90641 4.18453 6.261C4.09108 6.02888 3.78302 5.09152 4.27171 3.82207C4.27171 3.82207 5.02748 3.57438 6.74737 4.76676C7.46529 4.56256 8.23521 4.46015 9.00007 4.45664C9.76493 4.46015 10.5355 4.56256 11.2547 4.76676C12.9725 3.57438 13.7272 3.82207 13.7272 3.82207C14.2171 5.09152 13.9089 6.02888 13.8155 6.261C14.3925 6.90641 14.7417 7.72854 14.7417 8.73473C14.7417 12.2745 12.6363 13.0539 10.6322 13.282C10.955 13.568 11.2426 14.1289 11.2426 14.9887C11.2426 16.2218 11.2322 17.2143 11.2322 17.5178C11.2322 17.7631 11.3942 18.0505 11.8504 17.96C15.4245 16.74 18 13.2866 18 9.21607C18 4.12608 13.9705 0 9.00007 0ZM3.37082 13.1285C3.351 13.1743 3.28065 13.188 3.21657 13.1566C3.15129 13.1265 3.11463 13.0641 3.13579 13.0182C3.15516 12.971 3.22566 12.9579 3.29079 12.9895C3.35622 13.0195 3.39347 13.0826 3.37082 13.1285ZM3.81352 13.533C3.7706 13.5737 3.68669 13.5548 3.62976 13.4904C3.57089 13.4262 3.55986 13.3402 3.60338 13.2989C3.64765 13.2581 3.72902 13.2772 3.78804 13.3415C3.84691 13.4065 3.85838 13.4918 3.81352 13.533ZM4.11724 14.0505C4.06209 14.0898 3.97192 14.053 3.91618 13.971C3.86104 13.8891 3.86104 13.7908 3.91738 13.7514C3.97327 13.712 4.06209 13.7474 4.11858 13.8288C4.17357 13.9121 4.17357 14.0104 4.11724 14.0505ZM4.63088 14.6499C4.58155 14.7056 4.47647 14.6907 4.39957 14.6147C4.32088 14.5403 4.29897 14.4349 4.34845 14.3792C4.39838 14.3233 4.50405 14.339 4.58155 14.4144C4.65964 14.4886 4.68349 14.5948 4.63088 14.6499ZM5.29471 14.8523C5.27295 14.9245 5.17175 14.9573 5.06981 14.9266C4.96802 14.895 4.9014 14.8105 4.92197 14.7375C4.94313 14.6649 5.04477 14.6307 5.14746 14.6635C5.2491 14.6949 5.31587 14.7789 5.29471 14.8523ZM6.05018 14.9381C6.05271 15.0141 5.96627 15.0771 5.85926 15.0785C5.75165 15.0809 5.66462 15.0194 5.66342 14.9447C5.66342 14.8679 5.74793 14.8055 5.85553 14.8036C5.96254 14.8015 6.05018 14.8626 6.05018 14.9381ZM6.79234 14.909C6.80516 14.9831 6.73079 15.0593 6.62452 15.0796C6.52005 15.0991 6.42332 15.0533 6.41006 14.9798C6.39709 14.9038 6.4728 14.8276 6.57713 14.8079C6.68354 14.789 6.77878 14.8336 6.79234 14.909Z" fill="white"/>
</g>
<defs>
<clipPath id="clip0_927_8133">
<rect width="18" height="18" fill="white"/>
</clipPath>
</defs>
</svg>
