<svg width="32" height="32" viewBox="0 0 32 32" fill="none" xmlns="http://www.w3.org/2000/svg">
<path d="M14.708 21.683C14.8446 22.3259 15.4824 22.7455 16.0928 22.5021C17.2567 22.038 18.2819 21.2669 19.0535 20.2613C20.0681 18.939 20.5776 17.2981 20.4904 15.6336C20.4032 13.9692 19.7249 12.3905 18.5776 11.1815C17.7051 10.2621 16.605 9.6024 15.399 9.26249C14.7664 9.08419 14.176 9.56821 14.1073 10.2218V10.2218C14.0386 10.8754 14.5229 11.447 15.1375 11.6799C15.7825 11.9244 16.3695 12.3121 16.8512 12.8198C17.6084 13.6177 18.0561 14.6597 18.1137 15.7582C18.1712 16.8567 17.835 17.9398 17.1653 18.8125C16.7392 19.3677 16.196 19.8147 15.5801 20.1253C14.9932 20.4212 14.5713 21.0402 14.708 21.683V21.683Z" fill="white"/>
<path d="M17.3625 25.6947C17.4555 26.3565 18.0699 26.8241 18.7175 26.6591C20.845 26.1167 22.7715 24.947 24.2385 23.2888C25.974 21.3272 26.9526 18.8107 26.9983 16.192C27.044 13.5732 26.1538 11.0241 24.4879 9.00314C23.0796 7.29478 21.1951 6.05856 19.0878 5.44227C18.4464 5.25469 17.8161 5.70062 17.7 6.35873V6.35873C17.584 7.01684 18.0276 7.63625 18.6628 7.84365C20.2037 8.34669 21.5791 9.27904 22.6205 10.5424C23.92 12.1188 24.6143 14.1071 24.5787 16.1497C24.543 18.1924 23.7797 20.1552 22.426 21.6853C21.3411 22.9116 19.934 23.7954 18.3766 24.2443C17.7344 24.4294 17.2695 25.033 17.3625 25.6947V25.6947Z" fill="white"/>
</svg>
