<svg width="347" height="88" viewBox="0 0 347 88" fill="none" xmlns="http://www.w3.org/2000/svg">
<rect width="347" height="88" rx="12" fill="#171717"/>
<path d="M336 22L298.37 22.1338" stroke="#F63F3F" stroke-width="3" stroke-linecap="round" stroke-linejoin="round"/>
<path d="M303.37 27.1348L298.37 22.1348L303.37 17.1348" stroke="#F63F3F" stroke-width="3" stroke-linecap="round" stroke-linejoin="round"/>
<rect x="57" y="36" width="234" height="41" rx="8" fill="#303030"/>
<circle cx="78" cy="57" r="9" fill="#65C466"/>
<path fill-rule="evenodd" clip-rule="evenodd" d="M78 51.375C77.3787 51.375 76.875 51.8787 76.875 52.5V55.875H73.5C72.8787 55.875 72.375 56.3787 72.375 57C72.375 57.6213 72.8787 58.125 73.5 58.125H76.875V61.5C76.875 62.1213 77.3787 62.625 78 62.625C78.6213 62.625 79.125 62.1213 79.125 61.5V58.125H82.5C83.1213 58.125 83.625 57.6213 83.625 57C83.625 56.3787 83.1213 55.875 82.5 55.875H79.125V52.5C79.125 51.8787 78.6213 51.375 78 51.375Z" fill="white"/>
<g clip-path="url(#clip0_525_41154)">
<rect x="95" y="46" width="22" height="22" rx="4" fill="#FF8200"/>
<path d="M111.003 67.8085C111.003 67.5182 111.003 67.1203 111.003 66.8301H110.711C110.711 66.5398 110.711 66.1419 110.711 65.8517H110.419C110.419 65.3298 110.419 64.7428 110.419 64.221H110.711C110.711 64.0579 110.711 63.7318 110.711 63.5687C111.077 63.5687 111.515 63.5687 111.881 63.5687V63.2426C112.141 63.2426 112.498 63.2426 112.758 63.2426V62.9165C113.018 62.9165 113.375 62.9165 113.635 62.9165V62.5903C113.895 62.5903 114.252 62.5903 114.512 62.5903V62.2642C114.659 62.2642 114.951 62.2642 115.097 62.2642V61.9381H115.39V61.6119H115.682V61.2858H115.974V60.9597H116.267C116.267 60.4379 116.267 59.8508 116.267 59.329H115.974V59.0029C114.322 59.0029 112.656 59.0029 111.003 59.0029V58.6767H111.296V58.3506H111.588V58.0245H111.881V57.6984H112.173V57.3722H112.465V57.0461H112.758V56.72H113.05V56.3938H113.343V56.0677H113.635V55.7416H113.928V55.4154H114.22V55.0893H114.512V54.7632H114.805V54.437H115.097V54.1109H115.39V53.7848H115.682C115.682 53.3771 115.682 52.8879 115.682 52.4802H115.39V52.1541C115.129 52.1541 114.773 52.1541 114.512 52.1541V51.828C113.644 51.828 112.749 51.828 111.881 51.828V52.1541C111.734 52.1541 111.442 52.1541 111.296 52.1541V52.4802C111.15 52.4802 110.857 52.4802 110.711 52.4802V52.8064C110.565 52.8064 110.272 52.8064 110.126 52.8064V52.4802H109.834C109.834 52.3172 109.834 51.991 109.834 51.828H109.541C109.541 51.6649 109.541 51.3388 109.541 51.1757H109.249V50.8496H108.957V50.5234H108.664V50.1973H108.372V49.8712C108.226 49.8712 107.933 49.8712 107.787 49.8712V49.545C107.641 49.545 107.348 49.545 107.202 49.545V49.2189C106.942 49.2189 106.585 49.2189 106.325 49.2189V48.8928C105.857 48.8928 105.331 48.8928 104.863 48.8928V48.5667C103.407 48.5667 101.933 48.5667 100.477 48.5667V48.8928C100.111 48.8928 99.6728 48.8928 99.3073 48.8928V49.2189C99.047 49.2189 98.6903 49.2189 98.43 49.2189V49.545H98.1376V49.8712C97.9914 49.8712 97.699 49.8712 97.5528 49.8712V50.1973C97.4066 50.1973 97.1142 50.1973 96.968 50.1973V50.5234H96.6756V50.8496H96.3832V51.1757H96.0908V51.5018H95.7984V51.828H95.506C95.506 51.991 95.506 52.3172 95.506 52.4802H95.2136C95.2136 52.6433 95.2136 52.9694 95.2136 53.1325H94.9212C94.9212 53.2956 94.9212 53.6217 94.9212 53.7848H94.6288C94.6288 53.9478 94.6288 54.274 94.6288 54.437H94.3364C94.3364 54.6001 94.3364 54.9262 94.3364 55.0893H94.044C94.044 55.2524 94.044 55.5785 94.044 55.7416H93.7516C93.7516 56.0318 93.7516 56.4297 93.7516 56.72H93.4592C93.4592 57.1276 93.4592 57.6168 93.4592 58.0245H93.1667C93.1667 58.9931 93.1667 59.9911 93.1667 60.9597H93.4592C93.4592 60.1019 93.4592 59.2083 93.4592 58.3506H93.7516C93.7516 57.943 93.7516 57.4538 93.7516 57.0461H94.044C94.044 56.7558 94.044 56.3579 94.044 56.0677H94.3364C94.3364 55.9046 94.3364 55.5785 94.3364 55.4154H94.6288C94.6288 55.2524 94.6288 54.9262 94.6288 54.7632H94.9212C94.9212 54.6001 94.9212 54.274 94.9212 54.1109H95.2136C95.2136 53.9478 95.2136 53.6217 95.2136 53.4586H95.506C95.506 53.2956 95.506 52.9694 95.506 52.8064H95.7984C95.7984 52.6433 95.7984 52.3172 95.7984 52.1541H96.0908V51.828H96.3832V51.5018H96.6756V51.1757H96.968V50.8496H97.2604V50.5234C97.4066 50.5234 97.699 50.5234 97.8452 50.5234V50.1973C97.9914 50.1973 98.2838 50.1973 98.43 50.1973V49.8712C99.5909 49.8712 100.778 49.8712 101.939 49.8712V49.545C101.17 49.545 100.369 49.545 99.5997 49.545V49.2189C99.9652 49.2189 100.404 49.2189 100.769 49.2189V48.8928C102.03 48.8928 103.31 48.8928 104.571 48.8928V49.2189H104.863V49.545H105.155V49.2189H105.448V49.545C105.916 49.545 106.442 49.545 106.91 49.545C106.91 49.7081 106.91 50.0342 106.91 50.1973C107.275 50.1973 107.714 50.1973 108.079 50.1973V50.5234H108.372V50.8496H108.664V51.1757H108.957V51.5018H109.249C109.249 51.7921 109.249 52.19 109.249 52.4802H108.957V52.8064C109.217 52.8064 109.574 52.8064 109.834 52.8064C109.834 52.9694 109.834 53.2956 109.834 53.4586C109.98 53.4586 110.272 53.4586 110.419 53.4586V53.1325C110.565 53.1325 110.857 53.1325 111.003 53.1325V52.8064C111.15 52.8064 111.442 52.8064 111.588 52.8064V52.4802C111.734 52.4802 112.027 52.4802 112.173 52.4802V52.1541C112.843 52.1541 113.55 52.1541 114.22 52.1541V52.4802C114.48 52.4802 114.837 52.4802 115.097 52.4802V52.8064H115.39V53.1325C115.024 53.1325 114.585 53.1325 114.22 53.1325V53.4586C113.96 53.4586 113.603 53.4586 113.343 53.4586V53.7848C113.196 53.7848 112.904 53.7848 112.758 53.7848V54.1109C112.612 54.1109 112.319 54.1109 112.173 54.1109V54.437H111.881V54.7632H111.588V55.0893H111.296V55.4154H111.003V55.7416H110.711V56.0677H110.419V56.3938H110.126V56.72H109.834V57.0461H109.541V57.3722H109.249V57.6984H108.957V58.0245H108.664V58.3506H108.372V58.6767H108.079V59.0029H107.787V59.329H107.495V59.6551H107.202V59.9813C107.056 59.9813 106.764 59.9813 106.617 59.9813V60.3074C106.471 60.3074 106.179 60.3074 106.033 60.3074V60.6335C105.772 60.6335 105.416 60.6335 105.155 60.6335V60.9597C104.688 60.9597 104.161 60.9597 103.693 60.9597V61.2858C106.223 61.2858 108.767 61.2858 111.296 61.2858V60.9597C110.135 60.9597 108.948 60.9597 107.787 60.9597C107.787 60.7966 107.787 60.4705 107.787 60.3074H108.079V59.9813H108.372V59.6551H108.664V59.329C109.334 59.329 110.041 59.329 110.711 59.329V59.6551C111.077 59.6551 111.515 59.6551 111.881 59.6551V59.329C113.042 59.329 114.229 59.329 115.39 59.329V59.6551C115.536 59.6551 115.828 59.6551 115.974 59.6551C115.974 59.9454 115.974 60.3433 115.974 60.6335H115.682V60.9597H115.39V61.2858H115.097V61.6119H114.805V61.9381C114.659 61.9381 114.366 61.9381 114.22 61.9381V62.2642C113.96 62.2642 113.603 62.2642 113.343 62.2642V62.5903C113.082 62.5903 112.726 62.5903 112.465 62.5903V62.9165C112.205 62.9165 111.849 62.9165 111.588 62.9165V63.2426C111.223 63.2426 110.784 63.2426 110.419 63.2426V63.5687C110.053 63.5687 109.615 63.5687 109.249 63.5687V63.8949C108.989 63.8949 108.632 63.8949 108.372 63.8949V64.221C108.226 64.221 107.933 64.221 107.787 64.221V64.5471C107.641 64.5471 107.348 64.5471 107.202 64.5471C107.202 64.7102 107.202 65.0363 107.202 65.1994H107.495V64.8733H107.787V65.1994H108.079V65.5255H108.372V65.1994H108.664V65.5255H108.957V65.8517H109.249V65.5255H109.541V65.8517H109.834V66.1778H110.126V66.5039H110.419V66.8301H110.126V67.1562C110.272 67.1562 110.565 67.1562 110.711 67.1562C110.711 67.4464 110.711 67.8443 110.711 68.1346C110.857 68.1346 111.15 68.1346 111.296 68.1346V67.8085H111.003Z" fill="black"/>
<path d="M110.711 67.4822V67.1561C110.565 67.1561 110.272 67.1561 110.126 67.1561V67.4822H109.834V67.1561H109.541V67.4822H109.249V67.1561H108.957V66.83H108.664V67.1561H108.372V66.83H108.079V67.1561H107.787V66.83H107.495V66.5038H107.202V66.1777H106.91V65.8516H106.617V66.1777H106.325V65.8516H106.033V65.5254H106.325V65.1993H106.033V64.8732H106.325V65.1993H106.617V64.8732H106.91V65.1993H107.202C107.202 65.0362 107.202 64.7101 107.202 64.547C107.348 64.547 107.641 64.547 107.787 64.547V64.2209C107.933 64.2209 108.226 64.2209 108.372 64.2209V63.8948C108.632 63.8948 108.989 63.8948 109.249 63.8948V63.5686C109.615 63.5686 110.053 63.5686 110.419 63.5686V63.2425C110.784 63.2425 111.223 63.2425 111.588 63.2425V62.9164C111.849 62.9164 112.205 62.9164 112.465 62.9164V62.5903C112.726 62.5903 113.082 62.5903 113.343 62.5903V62.2641C113.603 62.2641 113.96 62.2641 114.22 62.2641V61.938C114.366 61.938 114.659 61.938 114.805 61.938V61.6119H115.097V61.2857H115.39V60.9596H115.682V60.6335H115.974C115.974 60.3432 115.974 59.9453 115.974 59.6551C115.828 59.6551 115.536 59.6551 115.39 59.6551V59.9812C115.243 59.9812 114.951 59.9812 114.805 59.9812V60.3073C114.544 60.3073 114.188 60.3073 113.928 60.3073V60.6335C113.562 60.6335 113.123 60.6335 112.758 60.6335V60.9596C112.29 60.9596 111.764 60.9596 111.296 60.9596V61.2857C108.767 61.2857 106.223 61.2857 103.693 61.2857V60.9596C103.547 60.9596 103.255 60.9596 103.109 60.9596V60.6335H102.816V60.3073H103.109V60.6335C103.255 60.6335 103.547 60.6335 103.693 60.6335V60.9596C104.161 60.9596 104.688 60.9596 105.155 60.9596V60.6335C105.416 60.6335 105.772 60.6335 106.033 60.6335V60.3073C106.179 60.3073 106.471 60.3073 106.617 60.3073V59.9812C106.764 59.9812 107.056 59.9812 107.202 59.9812V59.6551H107.495V59.3289H107.787V59.0028H108.079V58.6767H108.372V58.3505H108.664V58.0244H108.957V57.6983H109.249V57.3721H109.541V57.046H109.834V56.7199H110.126V56.3937H110.419V56.0676H110.711V55.7415H111.003V55.4153H111.296V55.0892H111.588V54.7631H111.881V54.4369H112.173V54.1108C112.319 54.1108 112.612 54.1108 112.758 54.1108V53.7847C112.904 53.7847 113.196 53.7847 113.343 53.7847V53.4585C113.603 53.4585 113.96 53.4585 114.22 53.4585V53.1324C114.585 53.1324 115.024 53.1324 115.39 53.1324V52.8063H115.097V52.4802C114.837 52.4802 114.48 52.4802 114.22 52.4802V52.154C113.55 52.154 112.843 52.154 112.173 52.154V52.4802C112.027 52.4802 111.734 52.4802 111.588 52.4802V52.8063C111.442 52.8063 111.15 52.8063 111.003 52.8063V53.1324C110.857 53.1324 110.565 53.1324 110.419 53.1324V53.4585C110.272 53.4585 109.98 53.4585 109.834 53.4585V53.7847H109.541V54.1108C109.395 54.1108 109.103 54.1108 108.957 54.1108V54.4369H108.664V54.7631C108.518 54.7631 108.226 54.7631 108.079 54.7631V55.0892H107.787V55.4153C107.641 55.4153 107.348 55.4153 107.202 55.4153V55.7415H106.91V56.0676C106.764 56.0676 106.471 56.0676 106.325 56.0676V56.3937C106.179 56.3937 105.886 56.3937 105.74 56.3937V56.7199C105.594 56.7199 105.302 56.7199 105.155 56.7199V57.046C105.009 57.046 104.717 57.046 104.571 57.046V57.3721C104.31 57.3721 103.954 57.3721 103.693 57.3721C103.693 56.6253 103.693 55.8361 103.693 55.0892H103.401C103.401 54.9261 103.401 54.6 103.401 54.4369H103.109V54.1108H102.816V53.7847H102.524V53.4585C102.378 53.4585 102.085 53.4585 101.939 53.4585V53.1324C101.07 53.1324 100.176 53.1324 99.3073 53.1324V53.4585C99.1611 53.4585 98.8686 53.4585 98.7224 53.4585V53.7847H98.43V54.1108H98.1376V54.4369H97.8452C97.8452 54.6 97.8452 54.9261 97.8452 55.0892H97.5528C97.5528 56.0578 97.5528 57.0558 97.5528 58.0244H97.8452C97.8452 58.1875 97.8452 58.5136 97.8452 58.6767H98.1376V59.0028H98.43V59.3289H98.7224C98.7224 59.1659 98.7224 58.8397 98.7224 58.6767H98.43V58.3505H98.1376C98.1376 58.1875 98.1376 57.8613 98.1376 57.6983H97.8452C97.8452 56.9514 97.8452 56.1622 97.8452 55.4153H98.1376C98.1376 55.2523 98.1376 54.9261 98.1376 54.7631H98.43V54.4369H98.7224V54.1108H99.0148V53.7847C99.1611 53.7847 99.4535 53.7847 99.5997 53.7847V53.4585C100.269 53.4585 100.977 53.4585 101.646 53.4585V53.7847C101.793 53.7847 102.085 53.7847 102.231 53.7847V54.1108H102.524V54.4369H102.816V54.7631H103.109C103.109 54.9261 103.109 55.2523 103.109 55.4153H103.401C103.401 56.2731 103.401 57.1667 103.401 58.0244C103.255 58.0244 102.962 58.0244 102.816 58.0244V57.6983C102.246 57.6983 101.632 57.6983 101.062 57.6983V58.0244C100.801 58.0244 100.445 58.0244 100.184 58.0244V58.3505C100.038 58.3505 99.7459 58.3505 99.5997 58.3505V58.6767H99.3073C99.3073 58.8397 99.3073 59.1659 99.3073 59.3289H99.0148C99.0148 59.6192 99.0148 60.0171 99.0148 60.3073H98.7224V59.9812H98.43V60.3073H98.1376V60.6335H97.8452V60.9596H97.5528V60.6335H97.2604V60.9596H96.968V60.6335H96.6756V60.9596H96.3832V60.6335H96.0908V60.3073H95.7984V59.9812H95.506V59.6551H95.7984V59.3289H95.506V59.0028H95.7984V58.6767H95.506V58.3505H95.7984V58.0244H96.0908V57.6983H96.3832V57.3721H96.6756V57.6983H96.968V57.3721H97.2604C97.2604 56.6253 97.2604 55.8361 97.2604 55.0892H97.5528C97.5528 54.9261 97.5528 54.6 97.5528 54.4369H97.8452V54.1108H98.1376V53.7847H98.43V53.4585H98.7224V53.1324C98.8686 53.1324 99.1611 53.1324 99.3073 53.1324V52.8063C100.176 52.8063 101.07 52.8063 101.939 52.8063V52.4802H102.231V52.154H102.524V51.8279H102.231V51.5018H102.524V51.1756H102.816V50.8495H103.109V50.5234H102.816V50.1972C102.556 50.1972 102.199 50.1972 101.939 50.1972V49.8711C100.778 49.8711 99.5909 49.8711 98.43 49.8711V50.1972C98.2838 50.1972 97.9914 50.1972 97.8452 50.1972V50.5234C97.699 50.5234 97.4066 50.5234 97.2604 50.5234V50.8495H96.968V51.1756H96.6756V51.5018H96.3832V51.8279H96.0908V52.154H95.7984C95.7984 52.3171 95.7984 52.6432 95.7984 52.8063H95.506C95.506 52.9694 95.506 53.2955 95.506 53.4585H95.2136C95.2136 53.6216 95.2136 53.9477 95.2136 54.1108H94.9212C94.9212 54.2739 94.9212 54.6 94.9212 54.7631H94.6288C94.6288 54.9261 94.6288 55.2523 94.6288 55.4153H94.3364C94.3364 55.5784 94.3364 55.9045 94.3364 56.0676H94.044C94.044 56.3579 94.044 56.7557 94.044 57.046H93.7516C93.7516 57.4537 93.7516 57.9429 93.7516 58.3505H93.4592C93.4592 59.2083 93.4592 60.1019 93.4592 60.9596H93.1667C93.1667 63.3469 93.1667 65.7472 93.1667 68.1345C99.0119 68.1345 104.866 68.1345 110.711 68.1345C110.711 67.9714 110.711 67.6453 110.711 67.4822Z" fill="white"/>
<path d="M110.126 67.1562H109.834V67.4824H110.126V67.1562Z" fill="black"/>
<path d="M109.541 67.1562H109.249V67.4824H109.541V67.1562Z" fill="black"/>
<path d="M110.126 66.8301H109.834V67.1562H110.126V66.8301Z" fill="white"/>
<path d="M109.834 66.8301H109.542V67.1562H109.834V66.8301Z" fill="black"/>
<path d="M109.541 66.8301H109.249V67.1562H109.541V66.8301Z" fill="white"/>
<path d="M109.249 66.8301H108.957V67.1562H109.249V66.8301Z" fill="black"/>
<path d="M108.664 66.8301H108.372V67.1562H108.664V66.8301Z" fill="black"/>
<path d="M108.08 66.8301H107.787V67.1562H108.08V66.8301Z" fill="black"/>
<path d="M110.419 66.5039H110.126V66.83H110.419V66.5039Z" fill="white"/>
<path d="M110.126 66.5039H109.834V66.83H110.126V66.5039Z" fill="black"/>
<path d="M109.834 66.5039H109.542V66.83H109.834V66.5039Z" fill="white"/>
<path d="M109.541 66.5039H109.249V66.83H109.541V66.5039Z" fill="black"/>
<path d="M109.249 66.5039H108.957V66.83H109.249V66.5039Z" fill="white"/>
<path d="M108.957 66.5039H108.664V66.83H108.957V66.5039Z" fill="black"/>
<path d="M108.664 66.5039H108.372V66.83H108.664V66.5039Z" fill="white"/>
<path d="M108.372 66.5039H108.079V66.83H108.372V66.5039Z" fill="black"/>
<path d="M108.08 66.5039H107.787V66.83H108.08V66.5039Z" fill="white"/>
<path d="M107.787 66.5039H107.495V66.83H107.787V66.5039Z" fill="black"/>
<path d="M110.126 66.1777H109.834V66.5039H110.126V66.1777Z" fill="white"/>
<path d="M109.834 66.1777H109.542V66.5039H109.834V66.1777Z" fill="black"/>
<path d="M109.541 66.1777H109.249V66.5039H109.541V66.1777Z" fill="white"/>
<path d="M109.249 66.1777H108.957V66.5039H109.249V66.1777Z" fill="black"/>
<path d="M108.957 66.1777H108.664V66.5039H108.957V66.1777Z" fill="white"/>
<path d="M108.664 66.1777H108.372V66.5039H108.664V66.1777Z" fill="black"/>
<path d="M108.372 66.1777H108.079V66.5039H108.372V66.1777Z" fill="white"/>
<path d="M108.08 66.1777H107.787V66.5039H108.08V66.1777Z" fill="black"/>
<path d="M107.787 66.1777H107.495V66.5039H107.787V66.1777Z" fill="white"/>
<path d="M107.495 66.1777H107.202V66.5039H107.495V66.1777Z" fill="black"/>
<path d="M109.834 65.8516H109.542V66.1777H109.834V65.8516Z" fill="white"/>
<path d="M109.541 65.8516H109.249V66.1777H109.541V65.8516Z" fill="black"/>
<path d="M109.249 65.8516H108.957V66.1777H109.249V65.8516Z" fill="white"/>
<path d="M108.957 65.8516H108.664V66.1777H108.957V65.8516Z" fill="black"/>
<path d="M108.664 65.8516H108.372V66.1777H108.664V65.8516Z" fill="white"/>
<path d="M108.372 65.8516H108.079V66.1777H108.372V65.8516Z" fill="black"/>
<path d="M108.08 65.8516H107.787V66.1777H108.08V65.8516Z" fill="white"/>
<path d="M107.787 65.8516H107.495V66.1777H107.787V65.8516Z" fill="black"/>
<path d="M107.495 65.8516H107.202V66.1777H107.495V65.8516Z" fill="white"/>
<path d="M107.202 65.8516H106.91V66.1777H107.202V65.8516Z" fill="black"/>
<path d="M106.617 65.8516H106.325V66.1777H106.617V65.8516Z" fill="black"/>
<path d="M109.541 65.5256H109.249V65.8518H109.541V65.5256Z" fill="white"/>
<path d="M108.957 65.5256H108.664V65.8518H108.957V65.5256Z" fill="white"/>
<path d="M108.664 65.5256H108.372V65.8518H108.664V65.5256Z" fill="black"/>
<path d="M108.372 65.5256H108.079V65.8518H108.372V65.5256Z" fill="white"/>
<path d="M108.08 65.5256H107.787V65.8518H108.08V65.5256Z" fill="black"/>
<path d="M107.787 65.5256H107.495V65.8518H107.787V65.5256Z" fill="white"/>
<path d="M107.495 65.5256H107.202V65.8518H107.495V65.5256Z" fill="black"/>
<path d="M107.202 65.5256H106.91V65.8518H107.202V65.5256Z" fill="white"/>
<path d="M106.91 65.5256H106.617V65.8518H106.91V65.5256Z" fill="black"/>
<path d="M106.617 65.5256H106.325V65.8518H106.617V65.5256Z" fill="white"/>
<path d="M106.325 65.5256H106.032V65.8518H106.325V65.5256Z" fill="black"/>
<path d="M108.664 65.1995H108.372V65.5256H108.664V65.1995Z" fill="white"/>
<path d="M108.08 65.1995H107.787V65.5256H108.08V65.1995Z" fill="white"/>
<path d="M107.787 65.1995H107.495V65.5256H107.787V65.1995Z" fill="black"/>
<path d="M107.495 65.1995H107.202V65.5256H107.495V65.1995Z" fill="white"/>
<path d="M107.202 65.1995H106.91V65.5256H107.202V65.1995Z" fill="black"/>
<path d="M106.91 65.1995H106.617V65.5256H106.91V65.1995Z" fill="white"/>
<path d="M106.617 65.1995H106.325V65.5256H106.617V65.1995Z" fill="black"/>
<path d="M107.787 64.8733H107.495V65.1994H107.787V64.8733Z" fill="white"/>
<path d="M106.91 64.8733H106.617V65.1994H106.91V64.8733Z" fill="black"/>
<path d="M106.325 64.8733H106.032V65.1994H106.325V64.8733Z" fill="black"/>
<path d="M111.881 60.9597C112.141 60.9597 112.498 60.9597 112.758 60.9597V60.6335C112.29 60.6335 111.764 60.6335 111.296 60.6335V60.9597C111.442 60.9597 111.735 60.9597 111.881 60.9597Z" fill="black"/>
<path d="M103.401 60.6335H103.108V60.9597C103.255 60.9597 103.547 60.9597 103.693 60.9597V60.6335H103.401Z" fill="black"/>
<path d="M97.8451 60.6335H97.5527V60.9597H97.8451V60.6335Z" fill="black"/>
<path d="M97.2604 60.6335H96.968V60.9597H97.2604V60.6335Z" fill="black"/>
<path d="M96.6757 60.6335H96.3833V60.9597H96.6757V60.6335Z" fill="black"/>
<path d="M113.343 60.3073H113.05V59.9812C112.904 59.9812 112.612 59.9812 112.466 59.9812V60.3073H112.758V60.6335C113.123 60.6335 113.562 60.6335 113.928 60.6335V60.3073C113.781 60.3073 113.489 60.3073 113.343 60.3073Z" fill="black"/>
<path d="M111.588 60.6336C111.954 60.6336 112.392 60.6336 112.758 60.6336V60.3075H112.466V59.9814C112.319 59.9814 112.027 59.9814 111.881 59.9814V59.6552C111.515 59.6552 111.077 59.6552 110.711 59.6552V59.3291C110.042 59.3291 109.334 59.3291 108.664 59.3291V59.6552H108.372V59.9814H108.08V60.3075H107.787C107.787 60.4706 107.787 60.7967 107.787 60.9598C108.948 60.9598 110.135 60.9598 111.296 60.9598V60.6336H111.588Z" fill="white"/>
<path d="M103.109 60.3074H102.816V60.6335H103.109V60.3074Z" fill="black"/>
<path d="M98.1376 60.3074H97.8452V60.6335H98.1376V60.3074Z" fill="black"/>
<path d="M97.8451 60.3074H97.5527V60.6335H97.8451V60.3074Z" fill="white"/>
<path d="M97.5529 60.3074H97.2605V60.6335H97.5529V60.3074Z" fill="black"/>
<path d="M97.2604 60.3074H96.968V60.6335H97.2604V60.3074Z" fill="white"/>
<path d="M96.9679 60.3074H96.6755V60.6335H96.9679V60.3074Z" fill="black"/>
<path d="M96.6757 60.3074H96.3833V60.6335H96.6757V60.3074Z" fill="white"/>
<path d="M96.3832 60.3074H96.0908V60.6335H96.3832V60.3074Z" fill="black"/>
<path d="M114.22 59.9812H113.927V60.3073C114.188 60.3073 114.544 60.3073 114.805 60.3073V59.9812C114.659 59.9812 114.366 59.9812 114.22 59.9812Z" fill="black"/>
<path d="M98.4301 59.9812H98.1377V60.3073H98.4301V59.9812Z" fill="black"/>
<path d="M98.1376 59.9812H97.8452V60.3073H98.1376V59.9812Z" fill="white"/>
<path d="M97.8451 59.9812H97.5527V60.3073H97.8451V59.9812Z" fill="black"/>
<path d="M97.5529 59.9812H97.2605V60.3073H97.5529V59.9812Z" fill="white"/>
<path d="M97.2604 59.9812H96.968V60.3073H97.2604V59.9812Z" fill="black"/>
<path d="M96.9679 59.9812H96.6755V60.3073H96.9679V59.9812Z" fill="white"/>
<path d="M96.6757 59.9812H96.3833V60.3073H96.6757V59.9812Z" fill="black"/>
<path d="M96.3832 59.9812H96.0908V60.3073H96.3832V59.9812Z" fill="white"/>
<path d="M96.0907 59.9812H95.7983V60.3073H96.0907V59.9812Z" fill="black"/>
<path d="M114.805 59.655V59.9812C114.951 59.9812 115.243 59.9812 115.389 59.9812V59.655C115.243 59.655 114.951 59.655 114.805 59.655Z" fill="black"/>
<path d="M112.173 59.9812H112.465V59.655C112.319 59.655 112.027 59.655 111.881 59.655V59.9812H112.173Z" fill="black"/>
<path d="M98.4301 59.655H98.1377V59.9812H98.4301V59.655Z" fill="white"/>
<path d="M98.1376 59.655H97.8452V59.9812H98.1376V59.655Z" fill="black"/>
<path d="M97.8451 59.655H97.5527V59.9812H97.8451V59.655Z" fill="white"/>
<path d="M97.5529 59.655H97.2605V59.9812H97.5529V59.655Z" fill="black"/>
<path d="M97.2604 59.655H96.968V59.9812H97.2604V59.655Z" fill="white"/>
<path d="M96.9679 59.655H96.6755V59.9812H96.9679V59.655Z" fill="black"/>
<path d="M96.6757 59.655H96.3833V59.9812H96.6757V59.655Z" fill="white"/>
<path d="M96.3832 59.655H96.0908V59.9812H96.3832V59.655Z" fill="black"/>
<path d="M96.0907 59.655H95.7983V59.9812H96.0907V59.655Z" fill="white"/>
<path d="M95.7985 59.655H95.5061V59.9812H95.7985V59.655Z" fill="black"/>
<path d="M112.465 59.6552V59.9814C112.612 59.9814 112.904 59.9814 113.05 59.9814V60.3075C113.31 60.3075 113.667 60.3075 113.927 60.3075V59.9814C114.188 59.9814 114.544 59.9814 114.805 59.9814V59.6552C114.951 59.6552 115.243 59.6552 115.389 59.6552V59.3291C114.229 59.3291 113.041 59.3291 111.881 59.3291V59.6552C112.027 59.6552 112.319 59.6552 112.465 59.6552Z" fill="white"/>
<path d="M98.1376 59.3291H97.8452V59.6552H98.1376V59.3291Z" fill="white"/>
<path d="M97.8451 59.3291H97.5527V59.6552H97.8451V59.3291Z" fill="black"/>
<path d="M97.5529 59.3291H97.2605V59.6552H97.5529V59.3291Z" fill="white"/>
<path d="M97.2604 59.3291H96.968V59.6552H97.2604V59.3291Z" fill="black"/>
<path d="M96.9679 59.3291H96.6755V59.6552H96.9679V59.3291Z" fill="white"/>
<path d="M96.6757 59.3291H96.3833V59.6552H96.6757V59.3291Z" fill="black"/>
<path d="M96.3832 59.3291H96.0908V59.6552H96.3832V59.3291Z" fill="white"/>
<path d="M96.0907 59.3291H95.7983V59.6552H96.0907V59.3291Z" fill="black"/>
<path d="M97.8451 59.0029H97.5527V59.3291H97.8451V59.0029Z" fill="white"/>
<path d="M97.5529 59.0029H97.2605V59.3291H97.5529V59.0029Z" fill="black"/>
<path d="M97.2604 59.0029H96.968V59.3291H97.2604V59.0029Z" fill="white"/>
<path d="M96.9679 59.0029H96.6755V59.3291H96.9679V59.0029Z" fill="black"/>
<path d="M96.6757 59.0029H96.3833V59.3291H96.6757V59.0029Z" fill="white"/>
<path d="M96.3832 59.0029H96.0908V59.3291H96.3832V59.0029Z" fill="black"/>
<path d="M96.0907 59.0029H95.7983V59.3291H96.0907V59.0029Z" fill="white"/>
<path d="M95.7985 59.0029H95.5061V59.3291H95.7985V59.0029Z" fill="black"/>
<path d="M97.5529 58.6768H97.2605V59.0029H97.5529V58.6768Z" fill="white"/>
<path d="M97.2604 58.6768H96.968V59.0029H97.2604V58.6768Z" fill="black"/>
<path d="M96.9679 58.6768H96.6755V59.0029H96.9679V58.6768Z" fill="white"/>
<path d="M96.6757 58.6768H96.3833V59.0029H96.6757V58.6768Z" fill="black"/>
<path d="M96.3832 58.6768H96.0908V59.0029H96.3832V58.6768Z" fill="white"/>
<path d="M96.0907 58.6768H95.7983V59.0029H96.0907V58.6768Z" fill="black"/>
<path d="M99.3073 58.6767C99.3073 58.5136 99.3073 58.1875 99.3073 58.0244H99.0149C99.0149 57.8613 99.0149 57.5352 99.0149 57.3721H98.7225C98.7225 56.8503 98.7225 56.2633 98.7225 55.7415H99.0149C99.0149 55.5784 99.0149 55.2523 99.0149 55.0892H99.3073V54.7631C99.4535 54.7631 99.7459 54.7631 99.8921 54.7631V54.4369C100.36 54.4369 100.886 54.4369 101.354 54.4369V54.7631C101.5 54.7631 101.793 54.7631 101.939 54.7631V55.0892H102.231C102.231 55.2523 102.231 55.5784 102.231 55.7415H102.524C102.524 56.2633 102.524 56.8503 102.524 57.3721H102.816V57.6983H103.109C103.109 56.9514 103.109 56.1622 103.109 55.4153H102.816C102.816 55.2523 102.816 54.9261 102.816 54.7631H102.524V54.4369H102.231V54.1108C102.085 54.1108 101.793 54.1108 101.647 54.1108V53.7847C100.977 53.7847 100.269 53.7847 99.5997 53.7847V54.1108C99.4535 54.1108 99.1611 54.1108 99.0149 54.1108V54.4369H98.7225V54.7631H98.4301C98.4301 54.9261 98.4301 55.2523 98.4301 55.4153H98.1377C98.1377 56.1622 98.1377 56.9514 98.1377 57.6983H98.4301C98.4301 57.8613 98.4301 58.1875 98.4301 58.3505H98.7225V58.6767C98.8687 58.6767 99.1611 58.6767 99.3073 58.6767Z" fill="white"/>
<path d="M98.7223 58.3506H98.4299V58.6767H98.7223V58.3506Z" fill="black"/>
<path d="M97.2605 58.3505V58.6767H97.5529V59.0028H97.8453V59.3289H98.1377V59.6551H98.4301V59.9812H98.7225V60.3073H99.0149C99.0149 60.0171 99.0149 59.6192 99.0149 59.3289H99.3073C99.3073 59.1659 99.3073 58.8397 99.3073 58.6767C99.1611 58.6767 98.8687 58.6767 98.7225 58.6767C98.7225 58.8397 98.7225 59.1659 98.7225 59.3289H98.4301V59.0028H98.1377V58.6767H97.8453C97.8453 58.5136 97.8453 58.1875 97.8453 58.0244H97.5529V58.3505H97.2605Z" fill="black"/>
<path d="M97.2604 58.3506H96.968V58.6767H97.2604V58.3506Z" fill="white"/>
<path d="M96.9679 58.3506H96.6755V58.6767H96.9679V58.3506Z" fill="black"/>
<path d="M96.6757 58.3506H96.3833V58.6767H96.6757V58.3506Z" fill="white"/>
<path d="M96.3832 58.3506H96.0908V58.6767H96.3832V58.3506Z" fill="black"/>
<path d="M96.0907 58.3506H95.7983V58.6767H96.0907V58.3506Z" fill="white"/>
<path d="M95.7985 58.3506H95.5061V58.6767H95.7985V58.3506Z" fill="black"/>
<path d="M97.5529 58.0244H97.2605V58.3505H97.5529V58.0244Z" fill="white"/>
<path d="M97.2604 58.0244H96.968V58.3505H97.2604V58.0244Z" fill="black"/>
<path d="M96.9679 58.0244H96.6755V58.3505H96.9679V58.0244Z" fill="white"/>
<path d="M96.6757 58.0244H96.3833V58.3505H96.6757V58.0244Z" fill="black"/>
<path d="M96.3832 58.0244H96.0908V58.3505H96.3832V58.0244Z" fill="white"/>
<path d="M96.0907 58.0244H95.7983V58.3505H96.0907V58.0244Z" fill="black"/>
<path d="M98.4301 57.6982H98.1377C98.1377 57.8613 98.1377 58.1874 98.1377 58.3505H98.4301C98.4301 58.1874 98.4301 57.8613 98.4301 57.6982Z" fill="black"/>
<path d="M97.2604 57.6982H96.968V58.0244H97.2604V57.6982Z" fill="white"/>
<path d="M96.9679 57.6982H96.6755V58.0244H96.9679V57.6982Z" fill="black"/>
<path d="M96.6757 57.6982H96.3833V58.0244H96.6757V57.6982Z" fill="white"/>
<path d="M96.3832 57.6982H96.0908V58.0244H96.3832V57.6982Z" fill="black"/>
<path d="M102.524 57.3722C102.524 56.8504 102.524 56.2634 102.524 55.7415H102.231C102.231 55.5785 102.231 55.2523 102.231 55.0893H101.939V54.7631C101.793 54.7631 101.5 54.7631 101.354 54.7631V54.437C100.886 54.437 100.36 54.437 99.892 54.437V54.7631C99.7458 54.7631 99.4534 54.7631 99.3072 54.7631V55.0893H99.0148C99.0148 55.2523 99.0148 55.5785 99.0148 55.7415H98.7224C98.7224 56.2634 98.7224 56.8504 98.7224 57.3722H99.0148C99.0148 57.5353 99.0148 57.8614 99.0148 58.0245H99.3072C99.3072 58.1875 99.3072 58.5137 99.3072 58.6767H99.5996V58.3506C99.7458 58.3506 100.038 58.3506 100.184 58.3506V58.0245C100.445 58.0245 100.801 58.0245 101.062 58.0245V57.6983C101.632 57.6983 102.246 57.6983 102.816 57.6983V57.3722H102.524ZM99.892 56.0677V55.7415C100.038 55.7415 100.331 55.7415 100.477 55.7415C100.477 55.9046 100.477 56.2307 100.477 56.3938C100.331 56.3938 100.038 56.3938 99.892 56.3938V56.0677Z" fill="black"/>
<path d="M96.6757 57.3723H96.3833V57.6984H96.6757V57.3723Z" fill="black"/>
<path d="M103.986 57.0461C103.986 56.4102 103.986 55.7253 103.986 55.0894H103.693C103.693 55.8362 103.693 56.6254 103.693 57.3723C103.954 57.3723 104.31 57.3723 104.571 57.3723V57.0461C104.424 57.0461 104.132 57.0461 103.986 57.0461Z" fill="black"/>
<path d="M98.1376 57.0462C98.1376 56.5244 98.1376 55.9373 98.1376 55.4155H97.8452C97.8452 56.1624 97.8452 56.9516 97.8452 57.6985H98.1376C98.1376 57.5354 98.1376 57.2093 98.1376 57.0462Z" fill="black"/>
<path d="M104.571 56.72V57.0461C104.717 57.0461 105.009 57.0461 105.155 57.0461V56.72C105.009 56.72 104.717 56.72 104.571 56.72Z" fill="black"/>
<path d="M105.155 56.3938V56.7199C105.301 56.7199 105.594 56.7199 105.74 56.7199V56.3938C105.594 56.3938 105.301 56.3938 105.155 56.3938Z" fill="black"/>
<path d="M105.74 56.0676V56.3938C105.886 56.3938 106.179 56.3938 106.325 56.3938V56.0676C106.179 56.0676 105.886 56.0676 105.74 56.0676Z" fill="black"/>
<path d="M100.477 56.3937C100.477 56.2307 100.477 55.9045 100.477 55.7415C100.331 55.7415 100.038 55.7415 99.8921 55.7415C99.8921 55.9045 99.8921 56.2307 99.8921 56.3937C100.038 56.3937 100.331 56.3937 100.477 56.3937Z" fill="white"/>
<path d="M106.325 55.7415V56.0676C106.471 56.0676 106.764 56.0676 106.91 56.0676V55.7415C106.764 55.7415 106.471 55.7415 106.325 55.7415Z" fill="black"/>
<path d="M103.109 56.0678C103.109 56.5896 103.109 57.1766 103.109 57.6985H102.816V58.0246C102.962 58.0246 103.255 58.0246 103.401 58.0246C103.401 57.1669 103.401 56.2733 103.401 55.4155H103.109C103.109 55.5786 103.109 55.9047 103.109 56.0678Z" fill="black"/>
<path d="M107.202 55.4155H106.91V55.7417H107.202V55.4155Z" fill="black"/>
<path d="M107.202 55.0894V55.4155C107.348 55.4155 107.641 55.4155 107.787 55.4155V55.0894C107.641 55.0894 107.348 55.0894 107.202 55.0894Z" fill="black"/>
<path d="M102.816 55.4154H103.109C103.109 55.2524 103.109 54.9262 103.109 54.7632H102.816C102.816 54.9262 102.816 55.2524 102.816 55.4154Z" fill="black"/>
<path d="M98.4301 55.0893V54.7632H98.1377C98.1377 54.9262 98.1377 55.2524 98.1377 55.4154H98.4301V55.0893Z" fill="black"/>
<path d="M97.2604 55.4155C97.2604 56.0514 97.2604 56.7363 97.2604 57.3723H96.968V57.6984H97.2604V58.0245H97.5528C97.5528 57.0559 97.5528 56.058 97.5528 55.0894H97.2604V55.4155Z" fill="black"/>
<path d="M108.08 54.7632H107.787V55.0893H108.08V54.7632Z" fill="black"/>
<path d="M108.079 54.437V54.7631C108.226 54.7631 108.518 54.7631 108.664 54.7631V54.437C108.518 54.437 108.226 54.437 108.079 54.437Z" fill="black"/>
<path d="M106.033 54.437C105.886 54.437 105.594 54.437 105.448 54.437V54.7631C105.813 54.7631 106.252 54.7631 106.617 54.7631V54.437C106.471 54.437 106.179 54.437 106.033 54.437Z" fill="black"/>
<path d="M103.693 54.437H103.401C103.401 54.6001 103.401 54.9262 103.401 55.0893H103.693C103.693 54.9262 103.693 54.6001 103.693 54.437Z" fill="black"/>
<path d="M102.816 54.437H102.524V54.7631H102.816V54.437Z" fill="black"/>
<path d="M98.7223 54.437H98.4299V54.7631H98.7223V54.437Z" fill="black"/>
<path d="M97.5527 54.7631V55.0893H97.8451C97.8451 54.9262 97.8451 54.6001 97.8451 54.437H97.5527V54.7631Z" fill="black"/>
<path d="M108.957 54.1108H108.664V54.437H108.957V54.1108Z" fill="black"/>
<path d="M106.617 54.1108V54.437C106.764 54.437 107.056 54.437 107.202 54.437V54.1108C107.056 54.1108 106.764 54.1108 106.617 54.1108Z" fill="black"/>
<path d="M105.448 54.1108H105.155V54.437H105.448V54.1108Z" fill="black"/>
<path d="M103.401 54.1108H103.108V54.437H103.401V54.1108Z" fill="black"/>
<path d="M102.524 54.1108H102.231V54.437H102.524V54.1108Z" fill="black"/>
<path d="M99.0148 54.1108H98.7224V54.437H99.0148V54.1108Z" fill="black"/>
<path d="M98.1376 54.1108H97.8452V54.437H98.1376V54.1108Z" fill="black"/>
<path d="M108.957 53.7847V54.1108C109.103 54.1108 109.395 54.1108 109.541 54.1108V53.7847C109.395 53.7847 109.103 53.7847 108.957 53.7847Z" fill="black"/>
<path d="M107.202 53.7847V54.1108C107.348 54.1108 107.641 54.1108 107.787 54.1108V53.7847C107.641 53.7847 107.348 53.7847 107.202 53.7847Z" fill="black"/>
<path d="M105.155 53.7847H104.863V54.1108H105.155V53.7847Z" fill="black"/>
<path d="M103.109 53.7847H102.816V54.1108H103.109V53.7847Z" fill="black"/>
<path d="M101.939 54.1108H102.231V53.7847C102.085 53.7847 101.793 53.7847 101.646 53.7847V54.1108H101.939Z" fill="black"/>
<path d="M99.5997 54.1108V53.7847C99.4535 53.7847 99.1611 53.7847 99.0149 53.7847V54.1108C99.1611 54.1108 99.4535 54.1108 99.5997 54.1108Z" fill="black"/>
<path d="M98.4301 53.7847H98.1377V54.1108H98.4301V53.7847Z" fill="black"/>
<path d="M109.834 53.4587H109.542V53.7849H109.834V53.4587Z" fill="black"/>
<path d="M108.08 53.4587H107.787V53.7849H108.08V53.4587Z" fill="black"/>
<path d="M100.184 53.7849C100.652 53.7849 101.179 53.7849 101.646 53.7849V53.4587C100.977 53.4587 100.269 53.4587 99.5996 53.4587V53.7849C99.7458 53.7849 100.038 53.7849 100.184 53.7849Z" fill="black"/>
<path d="M98.7223 53.4587H98.4299V53.7849H98.7223V53.4587Z" fill="black"/>
<path d="M108.079 53.1326V53.4587C108.226 53.4587 108.518 53.4587 108.664 53.4587V53.1326C108.518 53.1326 108.226 53.1326 108.079 53.1326Z" fill="black"/>
<path d="M106.91 53.1326H106.617V53.4587H106.91V53.1326Z" fill="black"/>
<path d="M104.863 53.1325V52.8064H104.571C104.571 53.0967 104.571 53.4945 104.571 53.7848H104.863C104.863 53.6217 104.863 53.2956 104.863 53.1325Z" fill="black"/>
<path d="M103.108 53.4586C103.108 53.2956 103.108 52.9694 103.108 52.8064H102.816V53.1325H102.524V52.8064H102.231V52.4802H101.939V52.8064C101.07 52.8064 100.176 52.8064 99.3071 52.8064V53.1325C100.176 53.1325 101.07 53.1325 101.939 53.1325V53.4586C102.085 53.4586 102.377 53.4586 102.524 53.4586V53.7848H102.816V53.4586H103.108Z" fill="black"/>
<path d="M98.7224 53.1326V53.4587C98.8686 53.4587 99.161 53.4587 99.3072 53.4587V53.1326C99.161 53.1326 98.8686 53.1326 98.7224 53.1326Z" fill="black"/>
<path d="M108.957 52.8064H108.664V53.1325H108.957V52.8064Z" fill="black"/>
<path d="M106.617 52.8064H106.325V53.1325H106.617V52.8064Z" fill="black"/>
<path d="M102.816 52.8064H102.524V53.1325H102.816V52.8064Z" fill="white"/>
<path d="M107.787 52.4802H107.495V52.8064H107.787V52.4802Z" fill="black"/>
<path d="M106.325 52.4802H106.032V52.8064H106.325V52.4802Z" fill="black"/>
<path d="M105.155 52.4802V52.1541H104.863C104.863 52.3171 104.863 52.6433 104.863 52.8063H105.155V52.4802Z" fill="black"/>
<path d="M103.109 52.4802H102.816V52.8064H103.109V52.4802Z" fill="white"/>
<path d="M102.816 52.4802H102.524V52.8064H102.816V52.4802Z" fill="black"/>
<path d="M102.524 52.4802H102.231V52.8064H102.524V52.4802Z" fill="white"/>
<path d="M107.495 52.1541H107.202V52.4802H107.495V52.1541Z" fill="black"/>
<path d="M102.816 52.1541H102.524V52.4802H102.816V52.1541Z" fill="white"/>
<path d="M102.524 52.1541H102.231V52.4802H102.524V52.1541Z" fill="black"/>
<path d="M108.664 51.8279H108.372V52.154H108.664V51.8279Z" fill="black"/>
<path d="M107.202 51.8279H106.91V52.154H107.202V51.8279Z" fill="black"/>
<path d="M105.448 51.8279H105.155V52.154H105.448V51.8279Z" fill="black"/>
<path d="M103.109 51.8279H102.816V52.154H103.109V51.8279Z" fill="white"/>
<path d="M102.816 51.8279H102.524V52.154H102.816V51.8279Z" fill="black"/>
<path d="M108.372 51.502H108.079V51.8281H108.372V51.502Z" fill="black"/>
<path d="M106.91 51.502H106.617V51.8281H106.91V51.502Z" fill="black"/>
<path d="M105.74 51.502H105.448V51.8281H105.74V51.502Z" fill="black"/>
<path d="M103.401 51.8281H103.109V52.1542H102.816V52.4803H103.109V52.8065H103.401C103.401 52.6434 103.401 52.3173 103.401 52.1542H103.693C103.693 51.9912 103.693 51.665 103.693 51.502H103.401V51.8281Z" fill="black"/>
<path d="M103.401 51.502H103.108V51.8281H103.401V51.502Z" fill="white"/>
<path d="M103.109 51.502H102.816V51.8281H103.109V51.502Z" fill="black"/>
<path d="M102.816 51.502H102.524V51.8281H102.816V51.502Z" fill="white"/>
<path d="M102.524 51.502H102.231V51.8281H102.524V51.502Z" fill="black"/>
<path d="M108.08 51.1758H107.787V51.5019H108.08V51.1758Z" fill="black"/>
<path d="M106.033 51.1758H105.74V51.5019H106.033V51.1758Z" fill="black"/>
<path d="M103.986 51.1758H103.693V51.5019H103.986V51.1758Z" fill="black"/>
<path d="M103.693 51.1758H103.401V51.5019H103.693V51.1758Z" fill="white"/>
<path d="M103.401 51.1758H103.108V51.5019H103.401V51.1758Z" fill="black"/>
<path d="M103.109 51.1758H102.816V51.5019H103.109V51.1758Z" fill="white"/>
<path d="M102.816 51.1758H102.524V51.5019H102.816V51.1758Z" fill="black"/>
<path d="M107.787 50.8496H107.495V51.1757H107.787V50.8496Z" fill="black"/>
<path d="M106.325 50.8496H106.032V51.1757H106.325V50.8496Z" fill="black"/>
<path d="M103.986 50.8496H103.693V51.1757H103.986V50.8496Z" fill="white"/>
<path d="M103.693 50.8496H103.401V51.1757H103.693V50.8496Z" fill="black"/>
<path d="M103.401 50.8496H103.108V51.1757H103.401V50.8496Z" fill="white"/>
<path d="M103.109 50.8496H102.816V51.1757H103.109V50.8496Z" fill="black"/>
<path d="M106.617 50.5234V50.8495H106.325V51.1757H106.033V51.5018H105.74V51.8279H105.448V52.1541H105.155C105.155 52.3171 105.155 52.6433 105.155 52.8063H104.863C104.863 53.0966 104.863 53.4945 104.863 53.7847H105.155V54.1109H105.448V54.437C105.813 54.437 106.252 54.437 106.617 54.437V54.1109C106.764 54.1109 107.056 54.1109 107.202 54.1109V53.7847C107.348 53.7847 107.641 53.7847 107.787 53.7847V53.4586H108.079V53.1325C108.226 53.1325 108.518 53.1325 108.664 53.1325V52.8063H108.957V52.4802H109.249C109.249 52.1899 109.249 51.7921 109.249 51.5018H108.957V51.1757H108.664V50.8495H108.372V50.5234H108.079V50.1973C107.714 50.1973 107.275 50.1973 106.91 50.1973V50.5234H106.617ZM108.079 51.1757V51.5018H108.372V51.8279H108.664V52.1541H108.372V51.8279H108.079V51.5018H107.787V51.1757H107.495V50.8495H107.787V51.1757H108.079ZM107.787 52.8063H107.495V52.4802H107.202V52.1541H106.91V51.8279H106.617V51.5018H106.91V51.8279H107.202V52.1541H107.495V52.4802H107.787V52.8063ZM106.91 53.4586H106.617V53.1325H106.325V52.8063H106.033V52.4802H106.325V52.8063H106.617V53.1325H106.91V53.4586Z" fill="white"/>
<path d="M106.617 50.5234H106.325V50.8496H106.617V50.5234Z" fill="black"/>
<path d="M103.986 50.8495V51.1757H104.278V50.8495H104.571V50.5234H104.278V50.1973H103.986V50.5234H103.693V50.8495H103.986Z" fill="black"/>
<path d="M103.693 50.5234H103.401V50.8496H103.693V50.5234Z" fill="white"/>
<path d="M103.401 50.5234H103.693V50.1973C103.433 50.1973 103.076 50.1973 102.816 50.1973V50.5234H103.109V50.8495H103.401V50.5234Z" fill="black"/>
<path d="M106.91 50.1973H106.617V50.5234H106.91V50.1973Z" fill="black"/>
<path d="M104.863 50.1973H104.571V50.5234H104.863V50.1973Z" fill="black"/>
<path d="M104.57 50.1973H104.278V50.5234H104.57V50.1973Z" fill="white"/>
<path d="M105.155 49.8713V50.1974H104.863V50.5236H104.571V50.8497H104.278V51.1758H103.986V51.502H103.693C103.693 51.665 103.693 51.9912 103.693 52.1542H103.401C103.401 52.3173 103.401 52.6434 103.401 52.8065H103.109C103.109 52.9696 103.109 53.2957 103.109 53.4588H102.816V53.7849H103.109V54.111H103.401V54.4371H103.693C103.693 54.6002 103.693 54.9263 103.693 55.0894H103.986C103.986 55.7254 103.986 56.4102 103.986 57.0462C104.132 57.0462 104.424 57.0462 104.571 57.0462V56.7201C104.717 56.7201 105.009 56.7201 105.155 56.7201V56.3939C105.302 56.3939 105.594 56.3939 105.74 56.3939V56.0678C105.886 56.0678 106.179 56.0678 106.325 56.0678V55.7417C106.471 55.7417 106.764 55.7417 106.91 55.7417V55.4155H107.202V55.0894C107.348 55.0894 107.641 55.0894 107.787 55.0894V54.7633H108.079V54.4371C108.226 54.4371 108.518 54.4371 108.664 54.4371V54.111H108.957V53.7849C109.103 53.7849 109.395 53.7849 109.541 53.7849V53.4588H109.834C109.834 53.2957 109.834 52.9696 109.834 52.8065C109.574 52.8065 109.217 52.8065 108.957 52.8065V53.1326H108.664V53.4588C108.518 53.4588 108.226 53.4588 108.079 53.4588V53.7849H107.787V54.111C107.641 54.111 107.348 54.111 107.202 54.111V54.4371C107.056 54.4371 106.764 54.4371 106.617 54.4371V54.7633C106.252 54.7633 105.813 54.7633 105.448 54.7633V54.4371H105.155V54.111H104.863V53.7849H104.571C104.571 53.4946 104.571 53.0967 104.571 52.8065H104.863C104.863 52.6434 104.863 52.3173 104.863 52.1542H105.155V51.8281H105.448V51.502H105.74V51.1758H106.033V50.8497H106.325V50.5236H106.617V50.1974H106.91C106.91 50.0344 106.91 49.7082 106.91 49.5452C106.442 49.5452 105.916 49.5452 105.448 49.5452V49.8713H105.155Z" fill="white"/>
<path d="M105.155 49.8711H104.863V50.1972H105.155V49.8711Z" fill="black"/>
<path d="M104.863 49.8711H104.571V50.1972H104.863V49.8711Z" fill="white"/>
<path d="M104.57 49.8711H104.278V50.1972H104.57V49.8711Z" fill="black"/>
<path d="M102.231 50.1972C102.378 50.1972 102.67 50.1972 102.816 50.1972V49.8711C102.556 49.8711 102.199 49.8711 101.939 49.8711V50.1972H102.231Z" fill="black"/>
<path d="M105.448 49.5452H105.155V49.8713H105.448V49.5452Z" fill="black"/>
<path d="M105.155 49.5452H104.863V49.8713H105.155V49.5452Z" fill="white"/>
<path d="M104.863 49.5452H104.571V49.8713H104.863V49.5452Z" fill="black"/>
<path d="M102.524 49.8712H102.816V50.1974C103.076 50.1974 103.433 50.1974 103.693 50.1974V50.5235H103.986V50.1974H104.278V49.8712H104.57V49.5451H104.863V49.219H104.57V48.8928C103.31 48.8928 102.029 48.8928 100.769 48.8928V49.219C100.404 49.219 99.9651 49.219 99.5996 49.219V49.5451C100.369 49.5451 101.17 49.5451 101.939 49.5451V49.8712C102.085 49.8712 102.377 49.8712 102.524 49.8712Z" fill="white"/>
<path d="M105.448 49.219H105.155V49.5451H105.448V49.219Z" fill="white"/>
</g>
<path d="M122.238 62H123.769V57.8711H128.007V56.5791H123.769V53.4551H128.397V52.1357H122.238V62ZM129.984 62H131.467V51.6641H129.984V62ZM134.148 53.25C134.654 53.25 135.077 52.833 135.077 52.3271C135.077 51.8145 134.654 51.3975 134.148 51.3975C133.635 51.3975 133.218 51.8145 133.218 52.3271C133.218 52.833 133.635 53.25 134.148 53.25ZM133.403 62H134.879V54.5762H133.403V62ZM136.739 64.4746H138.223V60.8242H138.332C138.729 61.624 139.597 62.123 140.615 62.123C142.502 62.123 143.691 60.6465 143.691 58.2949V58.2812C143.691 55.9434 142.488 54.4463 140.615 54.4463C139.576 54.4463 138.763 54.9316 138.332 55.7451H138.223V54.5762H136.739V64.4746ZM140.198 60.8584C138.961 60.8584 138.195 59.8809 138.195 58.2949V58.2812C138.195 56.6953 138.961 55.7178 140.198 55.7178C141.436 55.7178 142.181 56.6816 142.181 58.2812V58.2949C142.181 59.8877 141.436 60.8584 140.198 60.8584ZM145.176 64.4746H146.659V60.8242H146.768C147.165 61.624 148.033 62.123 149.052 62.123C150.938 62.123 152.128 60.6465 152.128 58.2949V58.2812C152.128 55.9434 150.925 54.4463 149.052 54.4463C148.012 54.4463 147.199 54.9316 146.768 55.7451H146.659V54.5762H145.176V64.4746ZM148.635 60.8584C147.397 60.8584 146.632 59.8809 146.632 58.2949V58.2812C146.632 56.6953 147.397 55.7178 148.635 55.7178C149.872 55.7178 150.617 56.6816 150.617 58.2812V58.2949C150.617 59.8877 149.872 60.8584 148.635 60.8584ZM156.729 62.1436C158.629 62.1436 159.655 61.0498 159.901 60.0723L159.915 60.0107L158.486 60.0176L158.459 60.0723C158.281 60.4551 157.713 60.9268 156.763 60.9268C155.54 60.9268 154.76 60.0996 154.733 58.6777H159.997V58.1582C159.997 55.9297 158.725 54.4326 156.654 54.4326C154.583 54.4326 153.243 55.9844 153.243 58.3018V58.3086C153.243 60.6602 154.555 62.1436 156.729 62.1436ZM156.661 55.6494C157.666 55.6494 158.411 56.292 158.527 57.6182H154.754C154.883 56.3398 155.649 55.6494 156.661 55.6494ZM161.46 62H162.944V57.5635C162.944 56.4902 163.716 55.793 164.851 55.793C165.131 55.793 165.384 55.8271 165.651 55.8818V54.5146C165.5 54.4805 165.241 54.4463 165.001 54.4463C164.01 54.4463 163.32 54.9111 163.053 55.6973H162.944V54.5762H161.46V62Z" fill="white"/>
<path d="M256.729 26H260.612C263.565 26 265.24 24.1953 265.24 21.0098V20.9961C265.24 17.9062 263.545 16.1357 260.612 16.1357H256.729V26ZM258.794 24.2979V17.8379H260.284C262.075 17.8379 263.134 19 263.134 21.0303V21.0439C263.134 23.1494 262.109 24.2979 260.284 24.2979H258.794ZM270.046 26.1572C272.364 26.1572 273.758 24.6943 273.758 22.2402V22.2266C273.758 19.793 272.343 18.3096 270.046 18.3096C267.749 18.3096 266.334 19.7998 266.334 22.2266V22.2402C266.334 24.6875 267.729 26.1572 270.046 26.1572ZM270.046 24.5918C268.98 24.5918 268.378 23.7236 268.378 22.2402V22.2266C268.378 20.7568 268.987 19.875 270.046 19.875C271.099 19.875 271.714 20.7568 271.714 22.2266V22.2402C271.714 23.7236 271.106 24.5918 270.046 24.5918ZM275.085 26H277.081V21.6455C277.081 20.627 277.642 19.9639 278.565 19.9639C279.508 19.9639 279.946 20.5244 279.946 21.584V26H281.942V21.1328C281.942 19.335 281.039 18.3096 279.364 18.3096C278.291 18.3096 277.546 18.8223 277.204 19.6357H277.081V18.4736H275.085V26ZM286.885 26.1572C289.086 26.1572 290.057 24.8857 290.289 23.9424L290.303 23.874H288.443L288.423 23.915C288.286 24.2021 287.801 24.667 286.926 24.667C285.866 24.667 285.203 23.9492 285.183 22.7119H290.364V22.0898C290.364 19.8135 288.997 18.3096 286.803 18.3096C284.608 18.3096 283.207 19.8477 283.207 22.2402V22.2471C283.207 24.6602 284.595 26.1572 286.885 26.1572ZM286.837 19.8066C287.705 19.8066 288.327 20.3672 288.45 21.4609H285.203C285.326 20.3945 285.969 19.8066 286.837 19.8066Z" fill="#3478F6"/>
<path d="M22 57L59.6299 56.8662" stroke="#F63F3F" stroke-width="3" stroke-linecap="round" stroke-linejoin="round"/>
<path d="M54.6304 51.8652L59.6304 56.8652L54.6304 61.8652" stroke="#F63F3F" stroke-width="3" stroke-linecap="round" stroke-linejoin="round"/>
<path d="M315.768 15H322.488V13.1016H319.049V12.9844L320.25 12C321.809 10.7227 322.383 9.83789 322.383 8.88281V8.85352C322.383 7.30664 321.082 6.31055 319.072 6.31055C316.992 6.31055 315.621 7.45898 315.621 9.19922V9.24609H317.883V9.19336C317.883 8.58398 318.34 8.15039 318.984 8.15039C319.605 8.15039 319.986 8.48438 319.986 9.03516V9.06445C319.986 9.50977 319.652 9.92578 318.357 11.0684L315.768 13.3477V15Z" fill="#F63F3F"/>
<path d="M37.8359 50H40.3203V41.5449H37.8359L35.7148 42.9629V45.043L37.7188 43.7188H37.8359V50Z" fill="#F63F3F"/>
<defs>
<clipPath id="clip0_525_41154">
<rect x="95" y="46" width="22" height="22" rx="4" fill="white"/>
</clipPath>
</defs>
</svg>
