<svg width="191" height="49" viewBox="0 0 191 49" fill="none" xmlns="http://www.w3.org/2000/svg">
<g filter="url(#filter0_d)">
<rect x="9.5" y="7" width="172" height="30.0024" rx="15.0012"/>
<rect x="8.5" y="6" width="174" height="32.0024" rx="16.0012" stroke="#3ADEB7" stroke-width="2"/>
</g>
<path d="M27.0195 27.0312C27.3652 27.0312 27.6348 26.8965 27.8223 26.6152L33.3066 18.1309C33.4473 17.9199 33.5 17.7324 33.5 17.5508C33.5 17.0879 33.1602 16.7539 32.6855 16.7539C32.3574 16.7539 32.1582 16.8711 31.959 17.1875L26.9961 25.0508L24.4531 21.8281C24.2598 21.5879 24.0605 21.4824 23.7734 21.4824C23.293 21.4824 22.9473 21.8223 22.9473 22.291C22.9473 22.4961 23.0176 22.6895 23.1875 22.8945L26.2227 26.6328C26.4453 26.9082 26.6914 27.0312 27.0195 27.0312Z" fill="#34C7A4"/>
<path d="M163 18.997L158.507 15H157.721V20.313L154.109 17.1L153 18.087L157.398 22L153 25.913L154.109 26.9L157.721 23.687V29H158.507L163 25.003L159.617 22L163 18.997ZM159.294 17.681L160.773 18.997L159.294 20.313V17.681ZM160.773 25.003L159.294 26.319V23.687L160.773 25.003Z" fill="#007AFF"/>
<defs>
<filter id="filter0_d" x="0.5" y="0" width="190" height="48.0024" filterUnits="userSpaceOnUse" color-interpolation-filters="sRGB">
<feFlood flood-opacity="0" result="BackgroundImageFix"/>
<feColorMatrix in="SourceAlpha" type="matrix" values="0 0 0 0 0 0 0 0 0 0 0 0 0 0 0 0 0 0 127 0" result="hardAlpha"/>
<feOffset dy="2"/>
<feGaussianBlur stdDeviation="3.5"/>
<feComposite in2="hardAlpha" operator="out"/>
<feColorMatrix type="matrix" values="0 0 0 0 0 0 0 0 0 0 0 0 0 0 0 0 0 0 0.15 0"/>
<feBlend mode="normal" in2="BackgroundImageFix" result="effect1_dropShadow"/>
<feBlend mode="normal" in="SourceGraphic" in2="effect1_dropShadow" result="shape"/>
</filter>
</defs>
</svg>
