<svg width="82" height="82" viewBox="0 0 82 82" fill="none" xmlns="http://www.w3.org/2000/svg">
<g id="fw_conflict_icon">
<path id="Vector" d="M78.1038 32.7257C78.7473 32.7257 79.2667 32.2062 79.2667 31.5627C79.2667 30.9192 78.7473 30.3998 78.1038 30.3998H70.1144V23.4415H78.1038C78.7473 23.4415 79.2667 22.922 79.2667 22.2785C79.2667 21.6351 78.7473 21.1156 78.1038 21.1156H70.1144V17.7469C70.1144 14.4326 67.4163 11.7345 64.102 11.7345H60.7333V3.89628C60.7333 3.25279 60.2138 2.73334 59.5703 2.73334C58.9268 2.73334 58.4074 3.25279 58.4074 3.89628V11.7345H51.4491V3.89628C51.4491 3.25279 50.9297 2.73334 50.2862 2.73334C49.6427 2.73334 49.1232 3.25279 49.1232 3.89628V11.7345H42.1611V3.89628C42.1611 3.25279 41.6416 2.73334 40.9981 2.73334C40.3546 2.73334 39.8352 3.25279 39.8352 3.89628V11.7345H32.8769V3.89628C32.8769 3.25279 32.3575 2.73334 31.714 2.73334C31.0705 2.73334 30.551 3.25279 30.551 3.89628V11.7345H23.5927V3.89628C23.5927 3.25279 23.0733 2.73334 22.4298 2.73334C21.7863 2.73334 21.2668 3.25279 21.2668 3.89628V11.7345H17.8982C14.5838 11.7345 11.8858 14.4326 11.8858 17.7469V21.1156H3.89634C3.25285 21.1156 2.7334 21.6351 2.7334 22.2785C2.7334 22.922 3.25285 23.4415 3.89634 23.4415H11.8858V30.3998H3.89634C3.25285 30.3998 2.7334 30.9192 2.7334 31.5627C2.7334 32.2062 3.25285 32.7257 3.89634 32.7257H11.8858V39.6839H3.89634C3.25285 39.6839 2.7334 40.2034 2.7334 40.8469C2.7334 41.4904 3.25285 42.0098 3.89634 42.0098H11.8858V48.9681H3.89634C3.25285 48.9681 2.7334 49.4876 2.7334 50.1311C2.7334 50.7746 3.25285 51.294 3.89634 51.294H11.8858V58.2523H3.89634C3.25285 58.2523 2.7334 58.7717 2.7334 59.4152C2.7334 60.0587 3.25285 60.5782 3.89634 60.5782H11.8858V63.9468C11.8858 67.2612 14.5838 69.9593 17.8982 69.9593H21.2668V78.1037C21.2668 78.7472 21.7863 79.2667 22.4298 79.2667C23.0733 79.2667 23.5927 78.7472 23.5927 78.1037V69.9593H30.551V78.1037C30.551 78.7472 31.0705 79.2667 31.714 79.2667C32.3575 79.2667 32.8769 78.7472 32.8769 78.1037V69.9593H39.8352V78.1037C39.8352 78.7472 40.3546 79.2667 40.9981 79.2667C41.6416 79.2667 42.1611 78.7472 42.1611 78.1037V69.9593H49.1194V78.1037C49.1194 78.7472 49.6388 79.2667 50.2823 79.2667C50.9258 79.2667 51.4452 78.7472 51.4452 78.1037V69.9593H58.4035V78.1037C58.4035 78.7472 58.923 79.2667 59.5665 79.2667C60.21 79.2667 60.7294 78.7472 60.7294 78.1037V69.9593H64.0981C67.4125 69.9593 70.1105 67.2612 70.1105 63.9468V60.5782H78.0999C78.7434 60.5782 79.2629 60.0587 79.2629 59.4152C79.2629 58.7717 78.7434 58.2523 78.0999 58.2523H70.1105V51.294H78.0999C78.7434 51.294 79.2629 50.7746 79.2629 50.1311C79.2629 49.4876 78.7434 48.9681 78.0999 48.9681H70.1105V42.0098H78.0999C78.7434 42.0098 79.2629 41.4904 79.2629 40.8469C79.2629 40.2034 78.7434 39.6839 78.0999 39.6839H70.1105V32.7257H78.1038ZM67.7885 63.9507C67.7885 65.982 66.1332 67.6372 64.102 67.6372H17.8943C15.863 67.6372 14.2078 65.982 14.2078 63.9507V17.7469C14.2078 15.7157 15.863 14.0604 17.8943 14.0604H64.102C66.1332 14.0604 67.7885 15.7157 67.7885 17.7469V63.9507Z" fill="#FF8200"/>
<path id="Union" fill-rule="evenodd" clip-rule="evenodd" d="M40.9995 60.1333C51.5666 60.1333 60.1329 51.567 60.1329 41C60.1329 30.4329 51.5666 21.8666 40.9995 21.8666C30.4325 21.8666 21.8662 30.4329 21.8662 41C21.8662 51.567 30.4325 60.1333 40.9995 60.1333ZM40.9995 57.646C31.8062 57.646 24.3535 50.1933 24.3535 41C24.3535 31.8066 31.8062 24.354 40.9995 24.354C50.1929 24.354 57.6455 31.8066 57.6455 41C57.6455 50.1933 50.1929 57.646 40.9995 57.646ZM33.9502 38.9858C35.0626 38.9858 35.9643 38.0841 35.9643 36.9718C35.9643 35.8595 35.0626 34.9577 33.9502 34.9577C32.8379 34.9577 31.9362 35.8595 31.9362 36.9718C31.9362 38.0841 32.8379 38.9858 33.9502 38.9858ZM47.6598 48.0534C48.4185 47.7098 48.7212 46.7782 48.1753 46.1492C47.5047 45.3765 46.6789 44.7152 45.7348 44.201C44.3097 43.4247 42.6708 43.0139 40.9994 43.0139C39.3279 43.0139 37.689 43.4247 36.2639 44.201C35.3198 44.7152 34.494 45.3765 33.8234 46.1492C33.2775 46.7782 33.5803 47.7098 34.3389 48.0534C35.0019 48.3537 35.7734 48.0852 36.2721 47.5552C36.6988 47.1018 37.2071 46.7107 37.7792 46.3991C38.7483 45.8712 39.8628 45.5918 40.9994 45.5918C42.1359 45.5918 43.2504 45.8712 44.2195 46.3991C44.7916 46.7107 45.3 47.1018 45.7266 47.5552C46.2254 48.0852 46.9968 48.3537 47.6598 48.0534ZM48.0486 38.9858C49.1609 38.9858 50.0626 38.0841 50.0626 36.9718C50.0626 35.8595 49.1609 34.9577 48.0486 34.9577C46.9363 34.9577 46.0345 35.8595 46.0345 36.9718C46.0345 38.0841 46.9363 38.9858 48.0486 38.9858Z" fill="#FF8200"/>
</g>
</svg>
