<svg width="12" height="12" viewBox="0 0 12 12" fill="none" xmlns="http://www.w3.org/2000/svg">
<path d="M6 10.1667V11H6.85714C6.85714 10.2583 6.85714 9.24167 6.85714 8.5H6C6 8.915 6 9.75167 6 10.1667Z" fill="#616161"/>
<path d="M9.42871 8.5V9.33333C9.85557 9.33333 10.7161 9.33333 11.143 9.33333V8.5C10.7161 8.5 9.85557 8.5 9.42871 8.5Z" fill="#616161"/>
<path d="M0.857178 8.5V9.33333C1.28403 9.33333 2.14461 9.33333 2.57146 9.33333V8.5C2.14461 8.5 1.28403 8.5 0.857178 8.5Z" fill="#616161"/>
<path d="M9.42843 7.66666H8.57129V8.49999H9.42843V7.66666Z" fill="#616161"/>
<path d="M3.42843 7.66666H2.57129V8.49999H3.42843V7.66666Z" fill="#616161"/>
<path d="M8.5715 6.83334H7.71436V7.66668H8.5715V6.83334Z" fill="#616161"/>
<path d="M4.28585 6.83334H3.42871V7.66668H4.28585V6.83334Z" fill="#616161"/>
<path d="M0.857143 6.83333C0.857143 5.78833 0.857143 4.545 0.857143 3.5H0C0 5.12333 0 6.87667 0 8.5H0.857143C0.857143 8.085 0.857143 7.24833 0.857143 6.83333Z" fill="#616161"/>
<path d="M6.85707 6C6.09422 6 5.0485 6 4.28564 6V6.83333H5.14279C5.14279 7.24833 5.14279 8.085 5.14279 8.5H5.99993C5.99993 8.085 5.99993 7.24833 5.99993 6.83333C6.42679 6.83333 7.28736 6.83333 7.71422 6.83333V6H6.85707Z" fill="#616161"/>
<path d="M9.42843 5.16666H8.57129V5.99999H9.42843V5.16666Z" fill="#616161"/>
<path d="M10.2859 4.33334H9.42871V5.16668H10.2859V4.33334Z" fill="#616161"/>
<path d="M8.5715 4.33334H7.71436V5.16668H8.5715V4.33334Z" fill="#616161"/>
<path d="M11.1428 3.5C11.1428 5.12333 11.1428 6.87667 11.1428 8.5H12C12 6.87667 12 5.12333 12 3.5H11.1428Z" fill="#616161"/>
<path d="M9.42843 3.5H8.57129V4.33333H9.42843V3.5Z" fill="#616161"/>
<path d="M3.42864 3.5H2.5715V4.33333H1.71436V5.16667H2.5715V6H3.42864V5.16667H4.28578V4.33333H3.42864V3.5Z" fill="#616161"/>
<path d="M11.1428 2.66666H10.2856V3.49999H11.1428V2.66666Z" fill="#616161"/>
<path d="M1.71432 2.66666H0.857178V3.49999H1.71432V2.66666Z" fill="#616161"/>
<path d="M3.42864 2.66667C5.68121 2.66667 8.03321 2.66667 10.2858 2.66667V1.83333H9.42864V1C9.00178 1 8.14121 1 7.71435 1V1.83333C6.6395 1.83333 5.36064 1.83333 4.28578 1.83333V1C3.85893 1 2.99836 1 2.5715 1V1.83333H1.71436V2.66667C2.14121 2.66667 3.00178 2.66667 3.42864 2.66667Z" fill="#616161"/>
</svg>
