<svg width="268" height="216" viewBox="0 0 268 216" fill="none" xmlns="http://www.w3.org/2000/svg">
<mask id="mask0_2051_30438" style="mask-type:luminance" maskUnits="userSpaceOnUse" x="0" y="0" width="268" height="216">
<path d="M256 0H12C5.37258 0 0 5.37258 0 12V204C0 210.627 5.37258 216 12 216H256C262.627 216 268 210.627 268 204V12C268 5.37258 262.627 0 256 0Z" fill="white"/>
</mask>
<g mask="url(#mask0_2051_30438)">
<path d="M274 -5.6001H-6V221.4H274V-5.6001Z" fill="#5B5B5B"/>
<path d="M115.1 148.3L132.1 143.7L127 136.3L120.2 155.1L129.3 151.4L118.6 137.6" stroke="#24A7FF" stroke-width="2.5"/>
<path d="M148.6 133.8C148.6 133.8 155.5 141.5 152.1 153.3C148.6 165.7 139.1 169.1 139.1 169.1" stroke="#24A7FF" stroke-width="3" stroke-linecap="round"/>
<path d="M143.3 137.8C146.4 141.6 147.3 146.7 145.8 151.3C143.3 159.7 136.7 161.9 136.7 161.9" stroke="#24A7FF" stroke-width="3" stroke-linecap="round"/>
<path d="M137.3 141.9C139.1 144.1 139.7 147.1 138.8 149.9C138.1 152.7 136 154.9 133.4 156" stroke="#24A7FF" stroke-width="3" stroke-linecap="round"/>
<path d="M153.7 114.5L176.7 110.8M199.8 114.5L176.8 110.8" stroke="#111111" stroke-width="2" stroke-linecap="round" stroke-linejoin="round"/>
<path d="M176.3 110.8V96.1001" stroke="#111111" stroke-width="2" stroke-linecap="round" stroke-linejoin="round"/>
<path fill-rule="evenodd" clip-rule="evenodd" d="M135.9 55.5H217.5C219.2 55.5 220.5 56.8 220.5 58.5V103.2C220.5 104.9 219.2 106.2 217.5 106.2H135.9C134.2 106.2 132.9 104.9 132.9 103.2V58.5C132.9 56.8 134.2 55.5 135.9 55.5Z" fill="#9E9E9E" stroke="#3C3B3C" stroke-width="2"/>
<path fill-rule="evenodd" clip-rule="evenodd" d="M139.3 60.1001H214.1C215.2 60.1001 216.1 61.0001 216.1 62.1001V99.6001C216.1 100.7 215.2 101.6 214.1 101.6H139.3C138.2 101.6 137.3 100.7 137.3 99.6001V62.1001C137.3 61.0001 138.2 60.1001 139.3 60.1001Z" fill="#212121" stroke="#111111" stroke-width="1.5"/>
<path d="M233 84.7001L234 80.6001" stroke="#111111" stroke-width="2" stroke-linecap="round" stroke-linejoin="round"/>
<path fill-rule="evenodd" clip-rule="evenodd" d="M229.3 66.3999V79.4999C229.3 81.1999 230.6 82.4999 232.3 82.4999H279.7C281.4 82.4999 282.7 81.1999 282.7 79.4999V66.3999C282.7 64.6999 281.4 63.3999 279.7 63.3999H232.3C230.6 63.3999 229.3 64.6999 229.3 66.3999Z" fill="#9E9E9E" stroke="#3C3B3C" stroke-width="2" stroke-linecap="round" stroke-linejoin="round"/>
<path d="M273 66.5H266.9C266.3 66.5 265.9 66.9 265.9 67.5V70.5C265.9 71.1 266.3 71.5 266.9 71.5H273C273.6 71.5 274 71.1 274 70.5V67.5C274 66.9 273.6 66.5 273 66.5Z" stroke="#3C3B3C" stroke-width="1.5" stroke-linecap="round" stroke-linejoin="round"/>
<path d="M250.2 83.6001C255.999 83.6001 260.7 78.8991 260.7 73.1001C260.7 67.3011 255.999 62.6001 250.2 62.6001C244.401 62.6001 239.7 67.3011 239.7 73.1001C239.7 78.8991 244.401 83.6001 250.2 83.6001Z" fill="#EAEAEA" stroke="#3C3B3C" stroke-width="2" stroke-linecap="round" stroke-linejoin="round"/>
<path d="M256.823 74.1243C257.414 70.4716 254.933 67.0309 251.28 66.4393C247.627 65.8477 244.186 68.3292 243.595 71.9819C243.003 75.6346 245.485 79.0753 249.137 79.6669C252.79 80.2585 256.231 77.777 256.823 74.1243Z" fill="#212121" stroke="#111111" stroke-width="1.5" stroke-linecap="round" stroke-linejoin="round"/>
<path fill-rule="evenodd" clip-rule="evenodd" d="M274.4 10.5V43.4C274.4 45.6 272.6 47.4 270.4 47.4H159.5C157.3 47.4 155.5 45.6 155.5 43.4V10.5C155.5 8.3 157.3 6.5 159.5 6.5H270.4C272.6 6.5 274.4 8.3 274.4 10.5Z" fill="#9E9E9E" stroke="#3C3B3C" stroke-width="2" stroke-linecap="round" stroke-linejoin="round"/>
<path d="M274.4 10.5V25.1C274.4 27.3 272.6 29.1 270.4 29.1H159.5C157.3 29.1 155.5 27.3 155.5 25.1V10.5C155.5 8.3 157.3 6.5 159.5 6.5H270.4C272.6 6.5 274.4 8.3 274.4 10.5Z" stroke="#3C3B3C" stroke-width="2" stroke-linecap="round" stroke-linejoin="round"/>
<path fill-rule="evenodd" clip-rule="evenodd" d="M265.2 42.7998V45.1998C265.2 46.2998 264.3 47.1998 263.2 47.1998H166.8C165.7 47.1998 164.8 46.2998 164.8 45.1998V42.7998C164.8 41.6998 165.7 40.7998 166.8 40.7998H263.2C264.3 40.7998 265.2 41.6998 265.2 42.7998Z" fill="#212121" stroke="#111111" stroke-width="2" stroke-linecap="round" stroke-linejoin="round"/>
<path fill-rule="evenodd" clip-rule="evenodd" d="M239.2 91H260.9C263.1 91 264.9 92.8 264.9 95V124C264.9 126.2 263.1 128 260.9 128H239.2C237 128 235.2 126.2 235.2 124V95C235.2 92.8 237 91 239.2 91Z" fill="#9E9E9E" stroke="#3C3B3C" stroke-width="2" stroke-linecap="round" stroke-linejoin="round"/>
<path d="M238.9 91.2998H256.7C258.9 91.2998 260.7 93.0998 260.7 95.2998V124.3C260.7 126.5 258.9 128.3 256.7 128.3H238.9C236.7 128.3 234.9 126.5 234.9 124.3V95.2998C234.9 93.0998 236.7 91.2998 238.9 91.2998Z" stroke="#3C3B3C" stroke-width="1.5" stroke-linecap="round" stroke-linejoin="round"/>
<path d="M247.8 124.2C252.273 124.2 255.9 120.574 255.9 116.1C255.9 111.626 252.273 108 247.8 108C243.326 108 239.7 111.626 239.7 116.1C239.7 120.574 243.326 124.2 247.8 124.2Z" fill="#212121" stroke="#3C3B3C" stroke-width="1.5" stroke-linecap="round" stroke-linejoin="round"/>
<path d="M247.8 102.7C249.291 102.7 250.5 101.491 250.5 99.9998C250.5 98.5086 249.291 97.2998 247.8 97.2998C246.309 97.2998 245.1 98.5086 245.1 99.9998C245.1 101.491 246.309 102.7 247.8 102.7Z" fill="#7C7C7C" stroke="#3C3B3C" stroke-width="1.5" stroke-linecap="round" stroke-linejoin="round"/>
<path d="M248.1 118.8C249.481 118.8 250.6 117.681 250.6 116.3C250.6 114.919 249.481 113.8 248.1 113.8C246.719 113.8 245.6 114.919 245.6 116.3C245.6 117.681 246.719 118.8 248.1 118.8Z" fill="#7C7C7C" stroke="#111111" stroke-width="1.5" stroke-linecap="round" stroke-linejoin="round"/>
<path fill-rule="evenodd" clip-rule="evenodd" d="M211.1 118H255.9C257 118 257.9 118.9 257.9 120V132C257.9 133.1 257 134 255.9 134H211.1C210 134 209.1 133.1 209.1 132V120C209.1 118.9 210 118 211.1 118Z" fill="#9E9E9E" stroke="#3C3B3C" stroke-width="2" stroke-linecap="round" stroke-linejoin="round"/>
<path d="M210.7 117.8H251.2C252.3 117.8 253.2 118.7 253.2 119.8V132.1C253.2 133.2 252.3 134.1 251.2 134.1H210.7C209.6 134.1 208.7 133.2 208.7 132.1V119.8C208.7 118.7 209.6 117.8 210.7 117.8Z" stroke="#3C3B3C" stroke-width="1.5" stroke-linecap="round" stroke-linejoin="round"/>
<path fill-rule="evenodd" clip-rule="evenodd" d="M222.3 121.5H234.7C235.3 121.5 235.7 121.9 235.7 122.5V128.5C235.7 129.1 235.3 129.5 234.7 129.5H222.3C221.7 129.5 221.3 129.1 221.3 128.5V122.5C221.3 121.9 221.7 121.5 222.3 121.5Z" fill="#605F60" stroke="#111111" stroke-width="1.5" stroke-linecap="round" stroke-linejoin="round"/>
<path d="M245.5 130C247.985 130 250 127.985 250 125.5C250 123.015 247.985 121 245.5 121C243.015 121 241 123.015 241 125.5C241 127.985 243.015 130 245.5 130Z" fill="#605F60" stroke="#3C3B3C" stroke-width="1.5" stroke-linecap="round" stroke-linejoin="round"/>
<path fill-rule="evenodd" clip-rule="evenodd" d="M215.1 16.2C215.1 16.2 214.1 22.7 213.3 23.5C212.6 24.1 206.6 25.3 206.6 25.3C206.6 25.3 212.4 26.7 213.3 27.1C214.5 27.7 215.1 33.8 215.1 33.8C215.1 33.8 216.1 27.9 216.9 27.1C217.6 26.4 223.6 25.3 223.6 25.3C223.6 25.3 217.7 24.1 216.9 23.5C216.2 23 215.1 16.2 215.1 16.2Z" fill="#FF817B" stroke="#FF0000" stroke-linecap="round" stroke-linejoin="round"/>
<path fill-rule="evenodd" clip-rule="evenodd" d="M176.4 94.8999C176.4 94.8999 175.4 101.1 174.7 101.8C174.1 102.4 168.4 103.5 168.4 103.5C168.4 103.5 173.9 104.8 174.7 105.2C175.8 105.7 176.4 111.5 176.4 111.5C176.4 111.5 177.4 105.9 178.1 105.2C178.7 104.6 184.4 103.5 184.4 103.5C184.4 103.5 178.9 102.3 178.1 101.8C177.4 101.3 176.4 94.8999 176.4 94.8999Z" fill="#FF817B" stroke="#EA0000" stroke-linecap="round" stroke-linejoin="round"/>
<path fill-rule="evenodd" clip-rule="evenodd" d="M233.5 59.2998C233.5 59.2998 232.5 65.4998 231.8 66.1998C231.2 66.7998 225.5 67.8998 225.5 67.8998C225.5 67.8998 231 69.1998 231.8 69.5998C232.9 70.0998 233.5 75.8998 233.5 75.8998C233.5 75.8998 234.5 70.2998 235.2 69.5998C235.8 68.9998 241.6 67.8998 241.5 67.8998C241.4 67.8998 235.9 66.6998 235.2 66.1998C234.5 65.6998 233.5 59.2998 233.5 59.2998Z" fill="#FF817B" stroke="#EA0000" stroke-linecap="round" stroke-linejoin="round"/>
<path fill-rule="evenodd" clip-rule="evenodd" d="M214 117.1C214 117.1 213 123.2 212.3 123.9C211.7 124.5 206.1 125.6 206.1 125.6C206.1 125.6 211.5 126.9 212.3 127.3C213.4 127.8 214 133.5 214 133.5C214 133.5 215 128 215.7 127.3C216.3 126.7 221.9 125.6 221.9 125.6C221.9 125.6 216.4 124.4 215.7 123.9C215 123.4 214 117.1 214 117.1Z" fill="#FF817B" stroke="#EA0000" stroke-linecap="round" stroke-linejoin="round"/>
<mask id="mask1_2051_30438" style="mask-type:luminance" maskUnits="userSpaceOnUse" x="168" y="115" width="82" height="43">
<path d="M183.3 155.6L168.6 121.2C168.6 121.2 184.4 112.6 209 116.5C236.4 120.8 249.1 137.7 249.1 137.7L190.1 157.7L183.3 155.7V155.6Z" fill="white"/>
</mask>
<g mask="url(#mask1_2051_30438)">
<path fill-rule="evenodd" clip-rule="evenodd" d="M183.6 155.3L168.9 120.9C168.9 120.9 184.7 112.3 209.3 116.2C236.7 120.5 249.4 137.4 249.4 137.4L190.4 157.4L183.6 155.4V155.3Z" fill="url(#paint0_linear_2051_30438)"/>
<g opacity="0.7">
<path d="M172.2 135.2C172.2 135.2 177.7 134.1 179 138C180.2 141.8 187.6 141.9 191 140C194.4 138.1 196.9 137.3 201 138C205.1 138.7 208 142.9 208 142.9C208 142.9 209.9 148.3 218 147C226.1 145.7 226.9 147 228.8 150" stroke="#EA0000"/>
<path d="M235.7 142.6C233.5 139 232.2 137.6 223 139.4C213.8 141.2 211.8 134.6 211.8 134.6C211.8 134.6 209.3 130.2 204.7 129.5C200.4 128.8 196 129.7 192.3 132C188.3 134.4 180.8 134.9 179.3 130.3C177.8 125.7 172.2 125.2 172.2 125.2C169.2 125.2 166.3 126.5 164.3 128.8" stroke="#EA0000"/>
<path d="M168.6 119.8C170.5 117.5 173.5 116.3 176.5 116.4C176.5 116.4 182.2 117 183.6 121.7C185 126.4 192.6 126.1 196.6 123.8C200.3 121.6 204.7 120.8 209 121.6C213.7 122.4 216.1 126.9 216.1 126.9C216.1 126.9 218 133.5 227.3 132C236.6 130.5 240.1 132.2 242.3 135.8C244.5 139.4 244.5 143.7 244.8 145.9" stroke="#EA0000"/>
</g>
</g>
<path fill-rule="evenodd" clip-rule="evenodd" d="M135.3 183.9C134.2 184.5 133.5 185.7 133.5 187C133.5 189.1 134.3 201 134.3 201C134.3 201 134.3 202.3 137.5 203.8C140.7 205.3 156 211.8 156 211.8C156 211.8 158.5 213.3 163 212.4C167.5 211.5 179.9 209.5 179.9 209.5C181.8 209 183.6 207.9 184.7 206.2C187 203.3 207.5 164.9 207.5 164.9C208.2 163.7 208.4 162.2 208.3 160.9C208.2 158.3 207.8 151.9 207.8 151.9C207.8 151.9 207.8 150.1 204.6 148.1C201.4 146.1 197.5 143.5 195.1 142C192.7 140.5 192.9 141 191.8 140.8H189.9L176.3 142.6C175.1 143 174.1 143.8 173.4 144.8C171.9 146.6 135.4 183.9 135.4 183.9H135.3Z" fill="#DEE7ED"/>
<path fill-rule="evenodd" clip-rule="evenodd" d="M192.1 140.8L178.2 142.5C176.4 142.7 174.7 143.5 173.3 144.8C171.1 146.8 136.3 182.8 136.3 182.8C136.3 182.8 134 185 138.5 186.7C143 188.4 155.9 193.8 155.9 193.8C158.2 194.5 160.6 194.7 162.9 194.4C163.1 194.4 175.8 192.7 175.8 192.7C178.1 192.5 180.3 191.3 181.6 189.4C182.7 188.1 205.7 153.1 205.7 153.1C205.7 153.1 207.8 150.5 205.5 149.1C203.2 147.7 194.1 141.7 194.1 141.7C193.5 141.2 192.8 140.9 192.1 140.8Z" fill="white"/>
<path d="M173.3 144.8L134.8 184.5C133.7 186 133.5 186.4 133.6 188.3C133.6 189.8 134.3 201 134.3 201C134.5 202.2 134.8 202.9 136.5 203.9C138.5 205.2 156 211.9 156 211.9C157.9 212.7 159.9 212.8 162 212.6C165.9 212 181.9 209.5 181.9 209.5C184 209.1 184.8 207.8 185.7 206.3C187.4 203.7 207.5 165.1 207.5 165.1C208.3 163.4 208.4 161.8 208.2 160.1C208 157.3 207.8 152.1 207.8 152.1C207.8 152.1 207.8 149.5 205.6 148.2C203.4 146.9 194.6 141.9 194.6 141.9C194.6 141.9 192.3 140.4 189.1 141.1C185.9 141.8 177.2 142.7 177.2 142.7C175.7 143 174.3 143.7 173.3 144.9V144.8Z" stroke="#1C1C1C" stroke-width="2" stroke-linecap="round" stroke-linejoin="round"/>
<path fill-rule="evenodd" clip-rule="evenodd" d="M169.5 167.1C176.7 166.7 182.6 169.5 182.9 173.4C183.2 177.3 177.5 180.7 170.3 181.1C163.1 181.5 157.2 178.7 156.9 174.8C156.6 170.9 162.3 167.5 169.5 167.1Z" fill="#FF8200" stroke="#1E1E1E" stroke-width="1.5" stroke-linecap="round" stroke-linejoin="round"/>
<path d="M169.7 171.7C172.1 171.6 174 172.3 174.1 173.4C174.2 174.5 172.3 175.4 169.9 175.5C167.5 175.6 165.6 174.9 165.5 173.8C165.4 172.7 167.3 171.8 169.7 171.7Z" stroke="#1E1E1E" stroke-width="1.5" stroke-linecap="round" stroke-linejoin="round"/>
<path fill-rule="evenodd" clip-rule="evenodd" d="M153.8 181.1C156.3 181 158.4 181.9 158.5 183.3C158.6 184.7 156.6 185.8 154.1 186C151.6 186.2 149.5 185.2 149.4 183.8C149.3 182.4 151.3 181.2 153.8 181.1Z" fill="#FF8200" stroke="#1E1E1E" stroke-width="1.5" stroke-linecap="round" stroke-linejoin="round"/>
<path d="M164.5 163.5C164.8 163.7 164.9 164 164.7 164.3C164.5 164.6 164.2 164.7 163.9 164.5C163.7 164.5 163.6 164.2 163.6 164C163.7 163.6 164.1 163.4 164.5 163.5Z" stroke="#1E1E1E" stroke-linecap="round" stroke-linejoin="round"/>
<path fill-rule="evenodd" clip-rule="evenodd" d="M197.6 150.5L189.3 163C189.3 163 187.6 165.7 184.4 165.3C181.2 164.9 167.7 161.9 167.7 161.9C167.7 161.9 166.1 161.5 167.1 160.2C168.1 158.9 178.4 147.6 178.4 147.6C178.4 147.6 179.3 146.4 181.3 146.4C183.3 146.4 196.4 148.6 196.4 148.6C196.4 148.6 198.6 149.1 197.5 150.5H197.6Z" fill="#FF8200" stroke="#1E1E1E" stroke-width="1.5" stroke-linecap="round" stroke-linejoin="round"/>
<path fill-rule="evenodd" clip-rule="evenodd" d="M144.7 197L152.3 199.6C152.8 199.8 153.1 200.3 152.9 200.9C152.7 201.5 152.2 201.7 151.6 201.5L144 198.9C143.5 198.7 143.2 198.2 143.4 197.6C143.6 197 144.1 196.8 144.7 197Z" fill="#999999" stroke="#1E1E1E" stroke-linecap="round" stroke-linejoin="round"/>
<path fill-rule="evenodd" clip-rule="evenodd" d="M102.7 209C102.7 209 108.9 207.4 110 198C111.1 188.6 105 185 105 185L105.4 180.3C105.4 180.3 113.3 183.6 117 173C119.4 164.2 109.1 150.7 109.1 150.7L110 143C110 143 115 141.2 116 132C117 122.8 112 121 112 121L111.2 120.5L102.6 209H102.7Z" fill="white"/>
<path d="M111.6 120.9C111.6 120.9 116.2 124.1 115.5 132.3C114.8 140.5 109.4 143.8 109.4 143.8" stroke="#010101" stroke-width="1.5" stroke-linecap="round" stroke-linejoin="round"/>
<path d="M106.4 185.7C106.4 185.7 111 188.9 110.3 197.1C109.6 205.3 104.2 208.6 104.2 208.6" stroke="#010101" stroke-width="1.5" stroke-linecap="round" stroke-linejoin="round"/>
<path d="M108.8 149.8C108.8 149.8 113.4 157.8 115.6 162.5C117.8 167.2 118.1 172.9 114.2 177.4C111.9 180.1 109.3 181.3 105.9 180.6" stroke="#010101" stroke-width="1.5" stroke-linecap="round" stroke-linejoin="round"/>
<path d="M117.1 171.3C117.6 169.7 116.9 168 115.5 167.1C114.1 166.1 113.1 164.6 112.9 162.8L111.3 154.2" stroke="#010101" stroke-width="1.5" stroke-linecap="round" stroke-linejoin="round"/>
<path fill-rule="evenodd" clip-rule="evenodd" d="M6.80002 40.5998L-9.89998 214.8C-9.89998 214.8 -10.8 223.7 -5.99998 227.8C-1.19998 231.9 1.00002 233.9 10.3 234.8C19.6 235.7 81.9 241.7 81.9 241.7C81.9 241.7 90.8 242.6 94.9 237.8C99.1 233 100.9 231.6 101.5 225.5C102.1 219.4 118.2 51.2998 118.2 51.2998C118.2 51.2998 119.1 43.3998 115 39.1998C110.9 34.9998 107 32.0998 102 31.5998C97 31.0998 24.4 24.2998 24.4 24.2998C24.4 24.2998 15.5 24.6998 12 29.4998C8.50002 34.2998 7.20002 35.6998 6.70002 40.5998H6.80002Z" fill="#FF8200"/>
<path fill-rule="evenodd" clip-rule="evenodd" d="M26.4 24.3999L102.1 31.6999C112 32.5999 119.2 41.3999 118.3 51.2999L101.6 225.5C100.7 235.4 91.9 242.6 82 241.7L6.3 234.5C-3.6 233.6 -10.8 224.8 -9.9 214.9L6.8 40.5999C7.7 30.6999 16.5 23.4999 26.4 24.3999ZM26.4 24.3999L102.1 31.6999C112 32.5999 119.2 41.3999 118.3 51.2999L101.6 225.5C100.7 235.4 91.9 242.6 82 241.7L6.3 234.5C-3.6 233.6 -10.8 224.8 -9.9 214.9L6.8 40.5999C7.7 30.6999 16.5 23.4999 26.4 24.3999Z" fill="#FF8200" stroke="#A05200" stroke-width="2" stroke-linecap="round" stroke-linejoin="round"/>
<path fill-rule="evenodd" clip-rule="evenodd" d="M10.8 41.0999L-5.89997 215.3C-5.89997 215.3 -6.79998 221.5 -3.29998 224.8C0.200025 228.2 3.50002 230 5.10003 230.3C6.70003 230.6 81.4 237.7 81.4 237.7C81.4 237.7 88.2 238.3 91.4 234.8C94.6 231.3 96.2 229.1 96.6 226.2C97 223.3 113.5 50.8999 113.5 50.8999C113.5 50.8999 114.2 46.4999 110.7 41.0999C107.2 35.6999 99.3 35.4999 99.3 35.4999L24.1 28.3999C24.1 28.3999 18.5 28.7999 15.8 31.6999C13.1 34.5999 11.5 35.1999 10.9 40.9999L10.8 41.0999Z" fill="#191919"/>
<path d="M26 28.5L100.7 35.7C108.4 36.4 114 43.3 113.3 51L96.6 225.2C95.9 232.9 89 238.5 81.3 237.8L6.59999 230.6C-1.10001 229.9 -6.70001 223 -6.00001 215.3L10.8 41.1C11.5 33.4 18.4 27.8 26.1 28.5H26Z" stroke="#A05200" stroke-width="1.5" stroke-linecap="round" stroke-linejoin="round"/>
<path fill-rule="evenodd" clip-rule="evenodd" d="M53.3 37.1L73.2 39C74.3 39.1 75.1 40.1 75 41.2C74.9 42.3 73.9 43.1 72.8 43L52.9 41.1C51.8 41 51 40 51.1 38.9C51.2 37.8 52.2 37 53.3 37.1Z" fill="black" stroke="black" stroke-width="1.5" stroke-linecap="round" stroke-linejoin="round"/>
<path fill-rule="evenodd" clip-rule="evenodd" d="M54.5998 63.5001L65.2998 64.6001C66.3998 64.7001 67.1998 65.7001 67.0998 66.8001L65.9998 77.6001C65.8998 78.7001 64.8998 79.5001 63.7998 79.4001L53.0998 78.3001C51.9998 78.2001 51.1998 77.2001 51.2998 76.1001L52.3998 65.3001C52.4998 64.2001 53.4998 63.4001 54.5998 63.5001Z" fill="#5A5A5A"/>
<path d="M55.1048 70.2219L55.4274 71.682L56.0632 70.3154L56.5103 70.3591L56.2339 73.1894L55.884 73.1552L55.9943 72.0258L56.1388 70.8468L55.4671 72.3197L55.2611 72.2996L54.9258 70.7695L54.8435 71.9134L54.7332 73.0428L54.3833 73.0087L54.6597 70.1784L55.1048 70.2219ZM58.5096 72.0909L57.3277 71.9755L57.2298 72.9785L58.608 73.1131L58.5782 73.4183L56.8404 73.2486L57.1168 70.4183L58.8371 70.5863L58.8071 70.8934L57.4464 70.7606L57.3575 71.6703L58.5394 71.7857L58.5096 72.0909ZM60.9886 73.6537L60.6232 73.618L59.7314 71.3958L59.519 73.5102L59.1555 73.4747L59.4319 70.6444L59.7974 70.6801L60.6895 72.8984L60.9015 70.7879L61.265 70.8234L60.9886 73.6537ZM63.6599 71.0573L63.4766 72.9743C63.4637 73.1065 63.4283 73.228 63.3703 73.3387C63.3124 73.4495 63.2385 73.5437 63.1485 73.6213C63.0584 73.7001 62.9545 73.7593 62.8368 73.7988C62.7192 73.8371 62.5931 73.8496 62.4583 73.8364C62.3209 73.823 62.1983 73.7862 62.0903 73.7259C61.9824 73.6657 61.8925 73.5882 61.8206 73.4935C61.7486 73.4002 61.6956 73.2936 61.6615 73.1738C61.6275 73.0528 61.6163 72.9261 61.6279 72.7938L61.819 70.8775L62.1611 70.9109L61.9817 72.8283C61.9748 72.9127 61.9799 72.9949 61.9969 73.0751C62.0152 73.1554 62.0454 73.2277 62.0876 73.292C62.1284 73.3561 62.182 73.4098 62.2485 73.4529C62.3162 73.4962 62.3961 73.5223 62.4881 73.5313C62.5801 73.5402 62.6628 73.5307 62.7362 73.5025C62.8097 73.473 62.8734 73.4302 62.9273 73.374C62.9798 73.3189 63.0221 73.2537 63.0544 73.1784C63.0866 73.103 63.1081 73.0234 63.1189 72.9394L63.3119 71.0233L63.6599 71.0573Z" fill="white"/>
<path fill-rule="evenodd" clip-rule="evenodd" d="M19.7998 60.0001L30.2998 61.0001C31.3998 61.1001 32.1998 62.1001 32.0998 63.2001L30.9998 73.7001C30.8998 74.8001 29.8998 75.6001 28.7998 75.5001L18.2998 74.5001C17.1998 74.4001 16.3998 73.4001 16.4998 72.3001L17.4998 61.8001C17.5998 60.7001 18.5998 59.9001 19.6998 60.0001H19.7998Z" fill="#E35048"/>
<path fill-rule="evenodd" clip-rule="evenodd" d="M17.5998 81.9L28.1998 83C29.2998 83.1 30.0998 84.1 29.9998 85.2L28.8998 95.8C28.7998 96.9001 27.7998 97.7001 26.6998 97.6001L16.0998 96.5C14.9998 96.4 14.1998 95.4001 14.2998 94.3L15.3998 83.7C15.4998 82.6 16.4998 81.8 17.5998 81.9Z" fill="#5A5A5A"/>
<path fill-rule="evenodd" clip-rule="evenodd" d="M40.4998 84.2003L51.3998 85.3003C52.4998 85.4003 53.2998 86.4003 53.1998 87.5003L52.0998 98.4003C51.9998 99.5003 50.9998 100.3 49.8998 100.2L38.9998 99.1003C37.8998 99.0003 37.0998 98.0003 37.1998 96.9003L38.2998 86.0003C38.3998 84.9003 39.3998 84.1003 40.4998 84.2003Z" fill="#5A5A5A"/>
<path fill-rule="evenodd" clip-rule="evenodd" d="M64.3999 86.5001L75.2999 87.6001C76.3999 87.7001 77.1999 88.7001 77.0999 89.8001L75.9999 100.8C75.8999 101.9 74.8999 102.7 73.7999 102.6L62.8999 101.5C61.7999 101.4 60.9999 100.4 61.0999 99.3001L62.1999 88.3001C62.2999 87.2001 63.2999 86.4001 64.3999 86.5001Z" fill="#5A5A5A"/>
<path fill-rule="evenodd" clip-rule="evenodd" d="M86.8999 88.7999L98.1999 89.8999C99.2999 89.9999 100.1 90.9999 99.9999 92.0999L98.8999 103.4C98.7999 104.5 97.7999 105.3 96.6999 105.2L85.3999 104.1C84.2999 104 83.4999 103 83.5999 101.9L84.6999 90.5999C84.7999 89.4999 85.7999 88.6999 86.8999 88.7999Z" fill="#5A5A5A"/>
<path d="M87.6692 97.3217C87.6791 97.1716 87.7371 97.0482 87.8433 96.9514C87.9496 96.8527 88.0915 96.8092 88.2688 96.8209C88.4442 96.8324 88.5782 96.8931 88.6708 97.0029C88.7654 97.1129 88.8077 97.2439 88.7977 97.3959C88.7877 97.5479 88.7277 97.6712 88.6177 97.7658C88.5098 97.8585 88.3701 97.8992 88.1986 97.8879C88.0252 97.8765 87.8911 97.8168 87.7964 97.7088C87.7018 97.6008 87.6594 97.4717 87.6692 97.3217ZM91.265 97.5582C91.2748 97.4081 91.3329 97.2847 91.4391 97.188C91.5454 97.0893 91.6872 97.0458 91.8646 97.0574C92.04 97.069 92.174 97.1297 92.2666 97.2395C92.3611 97.3494 92.4034 97.4804 92.3934 97.6324C92.3834 97.7845 92.3234 97.9077 92.2135 98.0023C92.1056 98.095 91.9659 98.1357 91.7944 98.1245C91.6209 98.1131 91.4869 98.0533 91.3922 97.9453C91.2975 97.8373 91.2551 97.7083 91.265 97.5582ZM94.8607 97.7948C94.8706 97.6447 94.9286 97.5213 95.0348 97.4245C95.1411 97.3258 95.283 97.2823 95.4603 97.294C95.6357 97.3055 95.7697 97.3662 95.8623 97.476C95.9569 97.586 95.9991 97.717 95.9891 97.869C95.9791 98.021 95.9192 98.1443 95.8092 98.2388C95.7013 98.3316 95.5616 98.3723 95.3901 98.361C95.2167 98.3496 95.0826 98.2899 94.9879 98.1819C94.8932 98.0739 94.8508 97.9448 94.8607 97.7948Z" fill="white"/>
<path fill-rule="evenodd" clip-rule="evenodd" d="M5.59982 202.3L16.1998 203.4C17.2998 203.5 18.0998 204.5 17.9998 205.6L16.8998 216.2C16.7998 217.3 15.7998 218.1 14.6998 218L4.09982 216.9C2.99982 216.8 2.19982 215.8 2.29982 214.7L3.39982 204.1C3.49982 203 4.49982 202.2 5.59982 202.3Z" fill="#5A5A5A"/>
<path d="M7.60018 211.127L7.24057 211.092L7.47215 208.721L6.70401 208.93L6.73609 208.602L7.84741 208.294L7.87656 208.297L7.60018 211.127ZM10.5607 211.417L8.70625 211.236L8.7315 210.977L9.75933 210.037C9.85126 209.953 9.92856 209.878 9.99124 209.813C10.0539 209.747 10.1051 209.685 10.1447 209.627C10.1842 209.571 10.2137 209.517 10.2332 209.465C10.2527 209.412 10.2653 209.357 10.2709 209.3C10.2777 209.23 10.2724 209.164 10.2551 209.101C10.2391 209.036 10.212 208.979 10.1736 208.93C10.134 208.88 10.0843 208.839 10.0247 208.807C9.96641 208.774 9.89841 208.754 9.82066 208.746C9.72605 208.737 9.64243 208.742 9.5698 208.763C9.49846 208.783 9.4377 208.816 9.38754 208.861C9.33595 208.907 9.29501 208.964 9.26472 209.033C9.23573 209.102 9.21694 209.181 9.20833 209.269L8.84677 209.234C8.85841 209.115 8.89009 209.005 8.94181 208.904C8.99366 208.801 9.06297 208.715 9.14974 208.643C9.23521 208.572 9.3366 208.518 9.4539 208.483C9.5725 208.447 9.70437 208.436 9.84951 208.451C9.98299 208.464 10.1009 208.495 10.2032 208.546C10.307 208.595 10.3924 208.659 10.4594 208.736C10.5265 208.813 10.5747 208.901 10.6043 209.001C10.6351 209.101 10.645 209.207 10.634 209.32C10.6257 209.404 10.6033 209.486 10.5667 209.567C10.5302 209.645 10.4841 209.723 10.4283 209.798C10.3712 209.874 10.3064 209.948 10.2339 210.021C10.1628 210.092 10.0878 210.164 10.0089 210.234L9.1684 210.984L10.5894 211.123L10.5607 211.417ZM11.7908 209.933L12.0474 209.958C12.1381 209.967 12.219 209.963 12.2901 209.945C12.3624 209.927 12.4247 209.899 12.4768 209.861C12.5276 209.823 12.5683 209.775 12.5987 209.718C12.6292 209.661 12.6479 209.597 12.6548 209.525C12.6631 209.441 12.6592 209.367 12.6432 209.302C12.6274 209.237 12.6001 209.181 12.5614 209.135C12.5239 209.091 12.4749 209.056 12.4146 209.031C12.3558 209.004 12.2868 208.987 12.2077 208.979C12.1313 208.972 12.0602 208.977 11.9944 208.994C11.93 209.01 11.8737 209.037 11.8255 209.075C11.776 209.114 11.736 209.161 11.7055 209.219C11.6751 209.276 11.6563 209.341 11.649 209.415L11.2875 209.38C11.298 209.272 11.3286 209.173 11.3793 209.083C11.4314 208.991 11.4992 208.913 11.5826 208.849C11.6659 208.787 11.7627 208.741 11.8728 208.711C11.9845 208.68 12.1057 208.671 12.2366 208.684C12.3636 208.696 12.4779 208.725 12.5794 208.77C12.6811 208.814 12.7662 208.873 12.8348 208.948C12.9034 209.023 12.9536 209.112 12.9853 209.216C13.017 209.32 13.0265 209.437 13.0137 209.568C13.0084 209.623 12.9944 209.678 12.9719 209.735C12.9494 209.791 12.9179 209.845 12.8776 209.896C12.8372 209.949 12.7867 209.997 12.7262 210.04C12.6671 210.083 12.5977 210.117 12.5181 210.142C12.6072 210.181 12.6799 210.227 12.7361 210.281C12.7936 210.335 12.8382 210.394 12.87 210.457C12.9005 210.52 12.9196 210.585 12.9274 210.653C12.9365 210.72 12.9379 210.787 12.9316 210.851C12.9186 210.984 12.8845 211.099 12.8292 211.197C12.7738 211.295 12.7025 211.375 12.6154 211.437C12.5281 211.5 12.4275 211.545 12.3137 211.572C12.2013 211.598 12.0816 211.604 11.9546 211.592C11.8302 211.58 11.7146 211.551 11.6078 211.505C11.5024 211.459 11.4128 211.399 11.339 211.324C11.2653 211.249 11.2092 211.16 11.1707 211.058C11.1335 210.956 11.121 210.843 11.1332 210.719L11.4928 210.754C11.4856 210.828 11.4913 210.897 11.51 210.96C11.53 211.023 11.5612 211.079 11.6037 211.126C11.6461 211.173 11.6993 211.212 11.7631 211.242C11.8282 211.272 11.9016 211.29 11.9832 211.298C12.0649 211.306 12.1397 211.303 12.2079 211.289C12.2761 211.273 12.3357 211.246 12.3867 211.206C12.4376 211.167 12.4786 211.116 12.5095 211.053C12.5419 210.99 12.5624 210.913 12.5712 210.824C12.5798 210.736 12.5723 210.659 12.5487 210.592C12.5265 210.525 12.4916 210.467 12.4439 210.419C12.395 210.371 12.3339 210.333 12.2608 210.305C12.1889 210.277 12.1083 210.259 12.0189 210.25L11.7623 210.225L11.7908 209.933Z" fill="white"/>
<path fill-rule="evenodd" clip-rule="evenodd" d="M74.9998 209.2L86.2999 210.3C87.3999 210.4 88.1998 211.4 88.0998 212.5L86.9998 223.8C86.8998 224.9 85.8999 225.7 84.7999 225.6L73.4998 224.5C72.3998 224.4 71.5998 223.4 71.6998 222.3L72.7999 211C72.8999 209.9 73.8998 209.1 74.9998 209.2Z" fill="#5A5A5A"/>
<path fill-rule="evenodd" clip-rule="evenodd" d="M10.3998 154.5L20.9998 155.6C22.0998 155.7 22.8998 156.7 22.7998 157.8L18.9998 195.7C18.8998 196.8 17.8998 197.6 16.7998 197.5L6.1998 196.4C5.0998 196.3 4.2998 195.3 4.3998 194.2L8.1998 156.3C8.2998 155.2 9.2998 154.4 10.3998 154.5Z" fill="#5A5A5A"/>
<path d="M13.3485 177.341C13.3189 177.47 13.2734 177.588 13.2121 177.693C13.1509 177.797 13.0764 177.884 12.9884 177.954C12.8991 178.025 12.7965 178.077 12.6808 178.11C12.5664 178.142 12.4412 178.151 12.3052 178.138C12.1885 178.127 12.0838 178.1 11.9911 178.058C11.8998 178.015 11.8201 177.961 11.7519 177.896C11.6824 177.83 11.6243 177.755 11.5776 177.671C11.5322 177.586 11.4966 177.496 11.4707 177.399C11.4435 177.302 11.4258 177.202 11.4177 177.098C11.4109 176.994 11.4119 176.889 11.4209 176.784L11.4594 176.389C11.4709 176.285 11.4901 176.182 11.517 176.081C11.5451 175.98 11.5819 175.885 11.6273 175.795C11.6714 175.706 11.7239 175.624 11.7847 175.55C11.847 175.475 11.9186 175.412 11.9994 175.361C12.079 175.31 12.1676 175.273 12.2654 175.249C12.3633 175.225 12.4712 175.219 12.5891 175.23C12.7304 175.244 12.8546 175.278 12.9617 175.333C13.069 175.387 13.159 175.457 13.2316 175.544C13.3041 175.632 13.3589 175.734 13.3959 175.85C13.4343 175.967 13.4547 176.093 13.4571 176.229L13.0974 176.194C13.0941 176.108 13.0818 176.026 13.0605 175.949C13.0392 175.873 13.0073 175.804 12.9648 175.744C12.9223 175.683 12.8676 175.634 12.8007 175.596C12.7351 175.557 12.6551 175.533 12.5605 175.524C12.4749 175.515 12.3977 175.522 12.3289 175.544C12.2614 175.565 12.202 175.597 12.1507 175.641C12.098 175.684 12.0524 175.736 12.0138 175.796C11.9765 175.856 11.9447 175.921 11.9183 175.991C11.8919 176.06 11.8705 176.132 11.8541 176.206C11.8391 176.279 11.8282 176.351 11.8213 176.421L11.7824 176.819C11.7756 176.889 11.7724 176.962 11.7728 177.038C11.7747 177.113 11.7818 177.187 11.7943 177.26C11.8067 177.335 11.8253 177.405 11.8502 177.472C11.8751 177.538 11.9092 177.598 11.9525 177.65C11.9956 177.704 12.0482 177.749 12.1102 177.783C12.1723 177.817 12.2468 177.838 12.3336 177.847C12.4282 177.856 12.5113 177.849 12.5829 177.826C12.6558 177.803 12.7189 177.766 12.7722 177.717C12.8253 177.668 12.8697 177.609 12.9053 177.539C12.941 177.468 12.9689 177.39 12.9889 177.306L13.3485 177.341ZM15.598 178.42L15.2578 178.387L15.3856 177.079L14.2251 176.966L14.0973 178.274L13.7591 178.241L14.0355 175.411L14.3737 175.444L14.2549 176.66L15.4154 176.774L15.5342 175.557L15.8744 175.59L15.598 178.42Z" fill="white"/>
<path fill-rule="evenodd" clip-rule="evenodd" d="M79.6998 161.4L90.9998 162.5C92.0998 162.6 92.8998 163.6 92.7998 164.7L88.7998 204.5C88.6998 205.6 87.6998 206.4 86.5998 206.3L75.2998 205.2C74.1998 205.1 73.3998 204.1 73.4998 203L77.4998 163.2C77.5998 162.1 78.5998 161.3 79.6998 161.4Z" fill="#5A5A5A"/>
<path d="M80.8411 186.081L80.2233 183.164L80.6082 183.201L81.0239 185.375L81.0512 185.517L81.1078 185.379L81.9397 183.331L82.3227 183.369L81.154 186.112L80.8411 186.081ZM84.5012 185.175C84.49 185.276 84.4709 185.377 84.444 185.479C84.4184 185.58 84.3841 185.677 84.3411 185.77C84.298 185.862 84.2459 185.947 84.1846 186.025C84.1247 186.103 84.0554 186.17 83.9768 186.225C83.8981 186.28 83.8097 186.321 83.7116 186.348C83.6148 186.374 83.5082 186.381 83.3915 186.37C83.2749 186.358 83.171 186.33 83.0798 186.286C82.99 186.241 82.9119 186.184 82.8454 186.114C82.7789 186.045 82.7232 185.966 82.6781 185.878C82.6332 185.789 82.5986 185.694 82.5743 185.595C82.5486 185.496 82.5324 185.394 82.5256 185.29C82.5187 185.186 82.5196 185.084 82.5281 184.982L82.5597 184.66C82.5708 184.559 82.5892 184.458 82.6147 184.357C82.6417 184.255 82.6774 184.158 82.7217 184.065C82.7648 183.973 82.8163 183.887 82.8762 183.809C82.9376 183.73 83.0076 183.663 83.0864 183.606C83.165 183.551 83.2527 183.511 83.3495 183.485C83.4476 183.458 83.555 183.45 83.6716 183.461C83.7883 183.473 83.8921 183.501 83.9832 183.547C84.0743 183.591 84.1532 183.648 84.2197 183.717C84.2862 183.786 84.3412 183.865 84.3848 183.955C84.4299 184.043 84.4652 184.137 84.4908 184.236C84.5152 184.335 84.53 184.437 84.5355 184.543C84.5422 184.648 84.5413 184.751 84.5327 184.852L84.5012 185.175ZM84.1773 184.814C84.1826 184.746 84.1849 184.676 84.1842 184.602C84.1837 184.528 84.1779 184.453 84.1668 184.379C84.1543 184.306 84.1357 184.235 84.1109 184.167C84.0863 184.098 84.0531 184.036 84.0114 183.981C83.9695 183.927 83.9183 183.883 83.8575 183.848C83.7969 183.812 83.7245 183.79 83.6403 183.782C83.5574 183.774 83.4827 183.782 83.4163 183.805C83.3499 183.829 83.2909 183.863 83.2395 183.908C83.1879 183.954 83.1433 184.008 83.1058 184.071C83.0683 184.133 83.0371 184.199 83.012 184.268C82.9854 184.339 82.964 184.411 82.9477 184.484C82.9329 184.555 82.9216 184.624 82.9138 184.69L82.8819 185.017C82.8768 185.083 82.8745 185.154 82.875 185.228C82.8769 185.303 82.8841 185.377 82.8965 185.45C82.9089 185.524 82.9274 185.596 82.952 185.665C82.9767 185.735 83.0099 185.796 83.0518 185.85C83.0935 185.905 83.1447 185.95 83.2052 185.986C83.2658 186.022 83.3382 186.045 83.4225 186.053C83.5067 186.061 83.582 186.053 83.6484 186.03C83.7162 186.006 83.7758 185.972 83.8274 185.926C83.8776 185.881 83.9207 185.827 83.9568 185.766C83.9944 185.702 84.0264 185.636 84.053 185.565C84.0781 185.495 84.0975 185.424 84.1112 185.351C84.1261 185.278 84.1376 185.208 84.1455 185.14L84.1773 184.814ZM85.3651 186.215L86.7492 186.35L86.7194 186.655L84.9757 186.485L85.2521 183.655L85.6117 183.69L85.3651 186.215Z" fill="white"/>
<path fill-rule="evenodd" clip-rule="evenodd" d="M89.8998 67.0001L100.4 68.0001C101.5 68.1001 102.3 69.1001 102.2 70.2001L101.2 80.7001C101.1 81.8001 100.1 82.6001 98.9998 82.5001L88.4998 81.5001C87.3998 81.4001 86.5998 80.4001 86.6998 79.3001L87.6998 68.8001C87.7998 67.7001 88.7998 66.9001 89.8998 67.0001Z" fill="#5A5A5A"/>
<path d="M90.8031 73.6769L89.9284 73.5914L89.682 76.1146L89.3321 76.0804L89.5785 73.5573L88.7037 73.4718L88.7337 73.1647L90.8331 73.3697L90.8031 73.6769ZM91.7328 76.3149L91.115 73.3972L91.4999 73.4348L91.9156 75.6086L91.9429 75.7506L91.9995 75.6128L92.8314 73.5649L93.2144 73.6023L92.0457 76.3454L91.7328 76.3149ZM93.8804 76.7699L93.5577 76.7384L95.0397 73.7805L95.3604 73.8118L93.8804 76.7699ZM97.2433 76.1131L96.2986 76.0209L95.9996 76.7315L95.64 76.6964L96.83 73.9553L97.1313 73.9847L97.753 76.9027L97.3953 76.8678L97.2433 76.1131ZM96.4263 75.7174L97.1786 75.7909L96.9254 74.5259L96.4263 75.7174ZM98.9057 77.0153L98.2879 74.0977L98.6728 74.1353L99.0885 76.309L99.1158 76.451L99.1725 76.3133L100.004 74.2653L100.387 74.3027L99.2187 77.0459L98.9057 77.0153Z" fill="white"/>
<path d="M53.7998 157.5C66.9994 157.5 77.6998 146.8 77.6998 133.6C77.6998 120.401 66.9994 109.7 53.7998 109.7C40.6002 109.7 29.8998 120.401 29.8998 133.6C29.8998 146.8 40.6002 157.5 53.7998 157.5Z" fill="#5A5A5A"/>
<path d="M54.0998 140.4C57.8553 140.4 60.8998 137.356 60.8998 133.6C60.8998 129.845 57.8553 126.8 54.0998 126.8C50.3443 126.8 47.2998 129.845 47.2998 133.6C47.2998 137.356 50.3443 140.4 54.0998 140.4Z" fill="#8E8E8E" fill-opacity="0.4" stroke="white" stroke-width="0.5"/>
<path d="M53.3954 133.942C53.3842 134.042 53.3651 134.144 53.3382 134.246C53.3126 134.347 53.2783 134.444 53.2353 134.536C53.1922 134.629 53.14 134.714 53.0788 134.792C53.0189 134.87 52.9496 134.936 52.8709 134.991C52.7923 135.046 52.7039 135.087 52.6058 135.114C52.509 135.14 52.4024 135.148 52.2857 135.136C52.1691 135.125 52.0652 135.097 51.974 135.053C51.8842 135.007 51.8061 134.95 51.7396 134.881C51.6731 134.811 51.6173 134.733 51.5723 134.645C51.5274 134.555 51.4928 134.461 51.4685 134.362C51.4428 134.262 51.4266 134.161 51.4197 134.057C51.4129 133.953 51.4138 133.85 51.4223 133.749L51.4538 133.426C51.465 133.325 51.4834 133.224 51.5089 133.123C51.5359 133.021 51.5715 132.924 51.6159 132.832C51.659 132.739 51.7105 132.654 51.7704 132.576C51.8318 132.497 51.9018 132.429 51.9806 132.373C52.0592 132.318 52.1469 132.277 52.2436 132.251C52.3418 132.224 52.4492 132.216 52.5658 132.228C52.6824 132.239 52.7863 132.268 52.8773 132.313C52.9685 132.357 53.0474 132.414 53.1139 132.483C53.1804 132.553 53.2354 132.632 53.279 132.721C53.3241 132.809 53.3594 132.903 53.385 133.002C53.4093 133.102 53.4242 133.204 53.4297 133.309C53.4364 133.414 53.4355 133.518 53.4269 133.619L53.3954 133.942ZM53.0715 133.58C53.0768 133.513 53.0791 133.442 53.0784 133.369C53.0779 133.294 53.072 133.22 53.061 133.145C53.0485 133.072 53.0299 133.002 53.0051 132.934C52.9805 132.865 52.9473 132.803 52.9056 132.748C52.8637 132.694 52.8124 132.65 52.7517 132.615C52.6911 132.579 52.6187 132.557 52.5345 132.549C52.4515 132.54 52.3769 132.548 52.3105 132.572C52.2441 132.595 52.1851 132.63 52.1337 132.674C52.0821 132.72 52.0375 132.775 51.9999 132.838C51.9625 132.9 51.9312 132.965 51.9061 133.035C51.8796 133.105 51.8582 133.177 51.8419 133.25C51.8271 133.322 51.8158 133.391 51.808 133.457L51.7761 133.783C51.771 133.85 51.7687 133.92 51.7692 133.995C51.7711 134.069 51.7782 134.143 51.7907 134.217C51.8031 134.291 51.8216 134.363 51.8462 134.432C51.8709 134.501 51.9041 134.563 51.946 134.616C51.9877 134.671 52.0388 134.717 52.0994 134.753C52.16 134.789 52.2324 134.811 52.3167 134.819C52.4009 134.828 52.4762 134.82 52.5426 134.796C52.6103 134.773 52.67 134.738 52.7216 134.692C52.7717 134.647 52.8149 134.594 52.851 134.532C52.8886 134.469 52.9206 134.402 52.9471 134.331C52.9722 134.262 52.9916 134.191 53.0053 134.117C53.0203 134.044 53.0318 133.974 53.0396 133.907L53.0715 133.58ZM54.63 133.999L54.2801 134.326L54.1867 135.283L53.8194 135.247L54.0957 132.416L54.4631 132.452L54.3282 133.834L54.6357 133.519L55.5672 132.56L56.0046 132.603L54.8943 133.744L55.7943 135.44L55.357 135.397L54.63 133.999Z" fill="white"/>
<path d="M53.0999 118.6L55.2999 116.8L57.0999 119" stroke="white" stroke-width="0.5"/>
<path d="M50.0999 149.4L51.8999 151.6L54.0999 149.8" stroke="white" stroke-width="0.5"/>
<path d="M68.7998 133.2L70.5998 135.4L68.3998 137.2" stroke="white" stroke-width="0.5"/>
<path d="M38.8998 130.3L36.6998 132.1L38.4998 134.3" stroke="white" stroke-width="0.5"/>
<path d="M25.2998 65.3001C26.4998 65.8001 27.2998 67.0001 27.2998 68.3001C27.2998 69.6001 25.7998 71.6001 23.9998 71.6001C22.1998 71.6001 20.6998 70.1001 20.6998 68.3001C20.6998 66.5001 21.7998 65.4001 23.2998 65.1001" stroke="white" stroke-width="0.5"/>
<path d="M24.0983 67L24.2983 64" stroke="white" stroke-width="0.5"/>
<path d="M22.1999 93.5001C24.2433 93.5001 25.8999 91.8435 25.8999 89.8001C25.8999 87.7566 24.2433 86.1001 22.1999 86.1001C20.1564 86.1001 18.4999 87.7566 18.4999 89.8001C18.4999 91.8435 20.1564 93.5001 22.1999 93.5001Z" stroke="white" stroke-width="0.5"/>
<path d="M21.9999 92.0027L22.2999 89.3027" stroke="white" stroke-width="0.8"/>
<path d="M22.412 88.5949L22.4999 87.6992" stroke="white" stroke-width="0.8"/>
<path d="M42.3999 90.7999L45.3999 88.8999L47.9999 91.3999L47.5999 94.9999C47.4999 95.2999 47.2999 95.3999 46.9999 95.4999C46.5999 95.4999 42.4999 95.0999 42.4999 95.0999C42.1999 95.0999 41.9999 94.7999 41.9999 94.4999C41.9999 93.9999 42.3999 90.8999 42.3999 90.8999V90.7999Z" stroke="white" stroke-width="0.5"/>
<path d="M43.6998 94.7998L43.9998 91.7998L45.9998 91.9998L45.6998 94.9998" stroke="white" stroke-width="0.5"/>
<path d="M71.1999 96.5006V95.7006C71.2999 95.1006 70.8999 94.6006 70.2999 94.5006C69.2999 94.4006 66.3999 94.1006 66.3999 94.1006" stroke="white" stroke-width="0.5"/>
<path d="M67.5975 92.7988L66.0975 93.9988L67.2975 95.7988" stroke="white" stroke-width="0.5"/>
<path d="M85.3998 165.6L84.8998 170.3" stroke="white" stroke-width="0.5"/>
<path d="M87.4998 168.2L82.6998 167.7" stroke="white" stroke-width="0.5"/>
<path d="M83.9998 199.7L79.1998 199.2" stroke="white" stroke-width="0.5"/>
<path d="M15.3998 158.7L14.8998 163.4" stroke="white" stroke-width="0.5"/>
<path d="M17.4998 161.2L12.6998 160.7" stroke="white" stroke-width="0.5"/>
<path d="M14.5998 190.8L9.7998 190.3" stroke="white" stroke-width="0.5"/>
<path fill-rule="evenodd" clip-rule="evenodd" d="M-12.9 126.2C-9.50002 123.9 -5.60002 122.5 -1.50002 122.3C4.99998 121.7 11.5 120.7 17.9 119.1C17.9 119.1 27.4 115.1 31.8 120.4C36.3 125.7 32.1 141 23.3 145.7C17.3 148.8 11 151.2 4.49998 152.9C4.49998 152.9 -5.20002 154.9 -10.2 159.5" fill="white"/>
<path d="M-12.9 126.2C-9.50002 123.9 -5.60002 122.5 -1.50002 122.3C4.99998 121.7 11.5 120.7 17.9 119.1C17.9 119.1 27.4 115.1 31.8 120.4C36.3 125.7 32.1 141 23.3 145.7C17.3 148.8 11 151.2 4.49998 152.9C4.49998 152.9 -5.20002 154.9 -10.2 159.5" stroke="#010101" stroke-width="1.5" stroke-linecap="round" stroke-linejoin="round"/>
<path d="M25 117.8C26.6 118.9 27.8 120.4 28.6 122.2C29.7 124.6 26.3 125 26.3 125C20 126.4 13.5 126.8 7.10001 126.2C1.10001 125.7 2.50001 121.7 2.50001 121.7" stroke="#010101" stroke-width="1.5" stroke-linecap="round" stroke-linejoin="round"/>
<path d="M7.19995 126.1C7.19995 126.1 9.99995 124.2 9.69995 121.3" stroke="#010101" stroke-width="1.5" stroke-linecap="round" stroke-linejoin="round"/>
</g>
<defs>
<linearGradient id="paint0_linear_2051_30438" x1="202.2" y1="156.9" x2="212.7" y2="114.7" gradientUnits="userSpaceOnUse">
<stop stop-color="#F98177"/>
<stop offset="0.5" stop-color="#F98177"/>
<stop offset="1" stop-color="#DEE7ED" stop-opacity="0"/>
</linearGradient>
</defs>
</svg>
