<svg width="315" height="132" viewBox="0 0 315 132" fill="none" xmlns="http://www.w3.org/2000/svg">
<g clip-path="url(#clip0_472_3107)">
<path d="M63.6223 0.927393H260.711C266.778 1.08196 273 2.47306 277.978 8.19203C282.956 13.911 304.267 40.1873 306.444 42.9695C308.622 45.7518 310.956 49.3068 311.578 55.1803C312.2 61.0539 313.911 100.468 313.911 105.878C313.911 111.597 312.2 113.916 310.956 116.543C309.711 118.862 307.845 122.726 306.6 125.044C305.356 127.363 301.156 130.918 294.467 131.073H50.089C42.9334 131.073 37.0223 128.445 33.1334 123.19C29.2445 118.089 7.9334 88.8759 7.00007 87.3302C5.44451 84.8571 4.20007 80.993 2.02229 76.6651C0.622292 73.8829 6.96729e-05 69.555 3.57785 64.6089C7.31118 59.6628 43.7112 12.6745 46.9778 8.96486C50.2445 5.1007 55.8445 0.772827 63.6223 0.927393Z" fill="white"/>
<path d="M49.9334 132C42.6223 132 36.5556 129.218 32.5111 123.808C28.9334 119.016 7.15559 89.4941 6.22225 87.7939C5.28892 86.2482 4.51114 84.3934 3.57781 82.2295C2.95559 80.6838 2.17781 78.829 1.24448 76.9742C0.311144 75.1194 -1.39997 70.1733 2.95559 64.1452C6.84448 58.8899 43.4 11.9016 46.3556 8.3466C49 5.25527 54.9111 0 63.4667 0H63.6223H260.711C265.689 0.154567 273 1.08197 278.756 7.57377C281.711 11.1288 291.356 22.8759 306.6 41.5785L307.222 42.3513C309.556 45.2881 311.889 48.8431 312.511 55.0258C313.289 61.2084 314.844 100.623 314.844 105.878C314.844 111.133 313.444 113.761 312.2 116.08C312.044 116.389 311.889 116.698 311.733 117.007C310.489 119.326 308.622 123.19 307.378 125.508C306.133 127.981 301.622 131.845 294.467 132H50.0889C50.0889 132 49.9334 132 49.9334 132ZM63.4667 1.70023C55.5334 1.70023 50.0889 6.4918 47.6 9.42857C44.6445 12.9836 8.08892 59.8173 4.35559 65.0726C0.466699 70.3279 1.8667 74.5012 2.80003 76.2014C3.73337 78.0562 4.51114 79.911 5.28892 81.6112C6.22225 83.7752 7.00003 85.4754 7.77781 86.8665C8.55559 88.2576 30.0223 117.471 33.9111 122.726C37.6445 127.672 43.2445 130.3 50.0889 130.3H294.778C301.156 130.145 305.044 126.899 306.133 124.735C307.378 122.262 309.244 118.553 310.489 116.234C310.644 115.925 310.8 115.616 310.956 115.307C312.2 113.143 313.289 110.824 313.444 105.878C313.444 99.8501 311.733 60.8993 311.111 55.1803C310.489 49.4614 308.311 46.0609 306.133 43.4333L305.511 42.6604C286.378 19.0117 279.844 11.1288 277.667 8.65574C273.622 4.01874 268.333 1.8548 261.022 1.70023H63.9334C63.6223 1.70023 63.4667 1.70023 63.4667 1.70023Z" fill="#231F20"/>
<path d="M42.4668 121.335C35.3112 121.335 31.5779 118.553 22.8668 106.651C14.4668 95.3677 2.80009 79.1382 2.64453 78.9836L3.42231 78.5199C3.57786 78.6745 15.089 94.904 23.489 106.187C32.0445 117.78 35.6223 120.407 42.4668 120.407H299.756C304.889 120.098 310.178 117.625 311.578 114.843L312.356 115.307C310.8 118.398 305.2 121.18 299.756 121.335H42.4668V121.335Z" fill="#231F20"/>
<path d="M256.356 4.48244C262.578 4.48244 266.622 5.25527 270.667 10.0468C274.711 14.8384 298.667 44.3607 300.689 46.8337C302.711 49.3068 304.422 53.0164 304.422 57.0351C304.422 61.0539 305.356 79.911 305.045 84.8571C304.733 89.9578 300.533 93.6674 295.089 93.822H65.3334C58.0223 93.6674 54.9112 91.8126 51.489 88.2576C48.0667 84.548 39.2001 75.1194 36.5556 71.719C33.6001 68.0094 35.0001 65.2272 36.7112 62.5995C38.7334 60.1265 67.5112 17.0023 70.3112 12.5199C72.9556 8.19204 77.9334 4.48244 84.0001 4.48244H256.356Z" fill="white"/>
<path d="M65.489 94.4403C58.0223 94.2857 54.9112 92.4309 51.3334 88.7213C47.7556 85.0117 39.0445 75.4286 36.4001 72.0281C33.289 68.1639 34.689 65.0726 36.5556 62.445C38.5779 59.6628 67.3556 16.5386 69.8445 12.3653C73.1112 7.26464 78.2445 4.17331 83.8445 4.17331H256.2C262.733 4.17331 266.778 5.10071 270.822 9.89228C274.867 14.6838 299.133 44.5152 300.845 46.6792C303.178 49.7705 304.578 53.6347 304.578 57.1897C304.578 58.5808 304.733 61.6721 304.889 65.2272C305.2 72.6464 305.511 81.7658 305.356 85.0117C305.045 90.267 300.689 94.2857 295.089 94.4403H65.489ZM84.0001 4.94614C78.7112 4.94614 73.7334 7.88291 70.7779 12.829C68.1334 17.0023 39.2001 60.1265 37.3334 62.9087C35.7779 65.2272 34.2223 67.8548 37.1779 71.4098C39.8223 74.8103 48.5334 84.2389 52.1112 87.9485C55.5334 91.5035 58.489 93.3583 65.6445 93.3583H295.4C300.533 93.2038 304.578 89.4941 304.889 84.7026C305.045 81.4567 304.733 71.8735 304.422 64.918C304.267 61.363 304.111 58.2717 304.111 56.8806C304.111 51.9344 301.622 48.2248 300.533 46.9883C298.667 44.8244 274.556 14.993 270.356 10.356C266.467 5.87354 262.578 5.10071 256.356 4.94614H84.0001Z" fill="#231F20"/>
<path d="M297.578 61.2084C301.467 66.1546 298.822 78.2108 290.267 79.6019H239.244C221.667 79.4473 203.778 65.0726 203.933 44.5152C204.089 23.9578 221.978 10.8197 239.711 10.8197C255.889 10.9742 265.844 22.103 266.778 23.4941C269.733 27.3583 294.156 56.8806 297.578 61.2084Z" fill="white"/>
<path d="M239.245 80.0656C230.378 80.0656 221.356 76.356 214.667 70.0187C207.356 63.2178 203.467 54.0984 203.467 44.3607C203.622 23.185 222.289 10.2014 239.556 10.2014H239.711C256.978 10.356 267.089 22.8759 267.089 23.0304C268.489 24.8852 274.867 32.459 281.4 40.651C288.556 49.4614 296.022 58.5808 297.889 60.8993C300.067 63.5269 300.378 68.4731 298.667 72.6464C297.111 76.6651 294 79.2927 290.267 79.911L239.245 80.0656ZM239.556 11.1288C222.756 11.1288 204.556 23.8033 204.4 44.3607C204.4 53.7892 208.289 62.7541 215.289 69.2459C221.978 75.4286 230.689 78.9836 239.245 78.9836H290.267C293.533 78.3653 296.333 76.0468 297.889 72.1827C299.445 68.3185 299.133 63.8361 297.267 61.363C295.4 59.0445 288.089 49.9251 280.778 41.1147C274.089 33.0773 267.867 25.3489 266.467 23.4941C266.311 23.3396 256.511 11.1288 239.556 11.1288Z" fill="#231F20"/>
<path d="M229.911 124.117H267.089C268.489 124.117 269.889 125.817 267.244 125.972H229.444C228.356 125.972 227.422 124.581 229.911 124.117Z" fill="white"/>
<path d="M229.444 126.436C228.667 126.436 228.044 125.817 228.044 125.199C228.044 124.735 228.2 123.963 229.911 123.653H267.089C268.178 123.653 269.111 124.426 269.111 125.199C269.111 125.663 268.8 126.281 267.244 126.436H229.444ZM229.911 124.581C228.978 124.735 228.822 125.044 228.822 125.199C228.822 125.354 229.133 125.663 229.444 125.663H267.244C268.022 125.663 268.333 125.354 268.333 125.354C268.333 125.199 267.867 124.735 267.089 124.735L229.911 124.581Z" fill="#231F20"/>
<path d="M303.956 124.272C304.422 124.426 304.422 126.899 300.222 127.827C293.844 129.372 290.889 128.29 291.822 126.745C292.756 125.199 293.844 126.126 298.356 125.354C302.867 124.581 302.867 123.653 303.956 124.272Z" fill="white"/>
<path d="M294.933 129.063C293.222 129.063 291.978 128.754 291.511 128.136C291.2 127.672 291.2 127.208 291.511 126.745C292.133 125.663 293.067 125.508 294.467 125.508C295.4 125.508 296.645 125.354 298.356 125.199C300.533 124.89 301.622 124.426 302.245 124.117C303.022 123.808 303.489 123.653 304.111 124.117C304.422 124.272 304.578 124.581 304.578 125.044C304.578 125.508 304.267 127.672 300.378 128.445C298.356 128.754 296.333 129.063 294.933 129.063ZM303.333 124.581C303.178 124.581 303.022 124.581 302.556 124.735C301.778 125.044 300.689 125.508 298.511 125.817C296.8 126.126 295.556 126.126 294.622 126.281C293.067 126.281 292.756 126.436 292.289 127.054C292.133 127.363 292.289 127.518 292.289 127.518C292.756 128.136 295.245 128.6 300.378 127.363C302.711 126.899 303.489 125.972 303.8 125.354C303.956 125.044 303.956 124.735 303.956 124.581C303.645 124.581 303.489 124.581 303.333 124.581Z" fill="#231F20"/>
<path d="M239.556 13.2927C258.533 13.6019 272.689 29.2131 272.689 44.8244C272.533 61.2084 259.467 76.6651 240.489 76.6651C221.511 76.5105 206.267 62.445 206.422 44.0515C206.578 26.4309 221.978 12.9836 239.556 13.2927Z" fill="#FF8200"/>
<path d="M240.8 77.1288H240.644C221.044 76.9742 205.8 62.445 205.956 43.897C205.956 35.7049 209.378 27.9766 215.289 22.1031C221.667 15.9204 230.533 12.5199 239.711 12.5199C259.778 12.829 273.622 29.6768 273.467 44.6698C273.311 60.4356 260.867 77.1288 240.8 77.1288ZM238.933 13.911C230.378 13.911 222.133 17.1569 216.067 23.0304C210.311 28.5949 207.044 36.0141 207.044 43.897C206.889 61.6721 221.667 75.7377 240.489 75.8923H240.644C259.933 75.8923 271.911 59.8173 271.911 44.8244C271.911 30.6042 258.689 14.3747 239.4 14.0656C239.4 13.911 239.244 13.911 238.933 13.911Z" fill="#231F20"/>
<path d="M285.289 56.4169C291.978 56.4169 296.022 61.8267 296.022 66.7728C296.022 71.5644 292.6 76.6651 285.756 76.6651C279.222 76.5105 275.022 71.2553 275.022 66.3091C275.178 61.363 279.378 56.5714 285.289 56.4169Z" fill="#FF8200"/>
<path d="M285.911 77.4379H285.756C282.644 77.4379 279.689 76.2014 277.511 74.0375C275.489 71.8735 274.4 69.0913 274.4 66.4637C274.556 61.5176 278.756 56.1077 285.444 55.9532C288.711 55.9532 291.667 57.1897 293.844 59.5082C295.711 61.5176 296.8 64.2998 296.8 67.082C296.8 69.8642 295.711 72.6464 293.689 74.6557C291.667 76.356 289.022 77.4379 285.911 77.4379ZM285.444 57.1897C279.533 57.1897 275.8 61.9813 275.644 66.3091C275.644 68.7822 276.578 71.1007 278.444 72.9555C280.311 74.9649 282.956 76.0468 285.756 76.0468C288.556 76.0468 291.044 75.274 292.756 73.4192C294.467 71.719 295.4 69.2459 295.4 66.7728C295.4 64.2998 294.467 61.9813 292.756 60.1265C291.511 58.8899 289.178 57.1897 285.444 57.1897Z" fill="#231F20"/>
<path d="M240.333 71.1007C239.867 71.1007 239.556 70.9461 239.244 70.4824C238.933 70.1733 237.222 67.3911 235.667 64.7635L234.889 63.3724C234.578 62.7541 234.422 62.1358 234.733 61.8267C234.889 61.6721 235.2 61.363 235.822 61.363C236.444 61.363 238.622 61.363 240.644 61.363C242.356 61.363 244.067 61.363 244.533 61.363C245.311 61.363 245.622 61.8267 245.778 61.9813C245.933 62.2904 245.933 62.9087 245.622 63.2178C245.467 63.3724 245.156 64.1452 244.533 65.0726C243.133 67.5457 241.733 70.0187 241.422 70.4824C241.111 70.9461 240.644 71.1007 240.333 71.1007ZM235.667 62.1358C235.511 62.1358 235.511 62.1358 235.511 62.2904C235.511 62.445 235.511 62.7541 235.667 63.0632L236.444 64.2998C237.533 66.1546 239.711 69.7096 240.022 70.0187C240.178 70.1733 240.333 70.3279 240.489 70.3279C240.644 70.3279 240.8 70.1733 240.8 70.0187C241.111 69.555 242.822 66.6183 243.911 64.7635C244.378 63.8361 244.844 63.2178 245 62.9087C245.156 62.7541 245.156 62.5995 245 62.445C245 62.2904 244.689 62.2904 244.533 62.2904C244.067 62.2904 242.511 62.2904 240.644 62.2904C238.467 62.1358 236.444 62.1358 235.667 62.1358Z" fill="#231F20"/>
<path d="M220.889 49.4614C220.578 49.4614 220.422 49.4614 219.956 49.3068C219.489 49.1522 216.067 47.2974 212.956 45.4426L212.178 44.9789C211.556 44.6698 211.4 44.2061 211.4 43.897C211.4 43.4333 211.711 42.9696 212.333 42.6604C212.8 42.3513 215.756 40.8056 217.622 39.7237L219.333 38.7963C219.8 38.4871 220.578 38.178 221.044 38.4871C221.667 38.7963 221.511 39.5691 221.511 39.7237C221.511 40.6511 221.511 45.5972 221.667 47.452V48.0703C221.667 48.534 221.511 48.9977 221.2 49.1522C221.356 49.4614 221.044 49.4614 220.889 49.4614ZM220.733 39.4145C220.578 39.4145 220.422 39.4145 219.956 39.7237L218.244 40.6511C216.222 41.733 213.422 43.2787 212.956 43.5878C212.644 43.7424 212.489 43.897 212.489 44.0515C212.489 44.2061 212.644 44.2061 212.8 44.3607L213.578 44.8244C215.289 45.7518 219.956 48.3794 220.422 48.6885C220.889 48.8431 221.044 48.8431 221.044 48.8431C221.044 48.8431 221.044 48.6885 221.044 48.534V47.9157C221.044 46.0609 220.889 41.1148 220.889 40.1874H221.356H220.889C220.889 39.5691 220.889 39.4145 220.733 39.4145Z" fill="#231F20"/>
<path d="M259.156 49.4614C259 49.4614 258.689 49.4614 258.533 49.3068C258.222 49.1522 257.911 48.8431 257.911 48.0703C257.911 47.6066 257.911 46.5246 257.911 45.288C257.911 43.2787 257.756 40.8056 257.911 40.0328C257.911 39.4145 258.067 38.9508 258.533 38.6417C259 38.3325 259.622 38.4871 260.556 38.9508C261.333 39.4145 265.844 42.0421 267.089 42.815L267.4 42.9695C267.867 43.2787 268.178 43.5878 268.178 44.0515C268.178 44.3606 268.022 44.8243 267.245 45.288C266.311 45.9063 260.867 48.9977 260.245 49.3068C259.778 49.4614 259.467 49.4614 259.156 49.4614ZM258.689 40.0328C258.689 40.9602 258.689 43.2787 258.689 45.288C258.689 46.5246 258.689 47.6066 258.689 48.0703C258.689 48.2248 258.689 48.534 258.844 48.534C259 48.6885 259.156 48.534 259.467 48.3794C260.089 48.0703 265.533 44.9789 266.467 44.3607C266.778 44.2061 266.933 43.8969 266.933 43.8969C266.933 43.7424 266.778 43.7424 266.622 43.5878L266.311 43.4332C265.067 42.6604 260.556 40.1873 259.778 39.7236C259.156 39.4145 258.689 39.2599 258.689 39.4145C258.689 39.4145 258.689 39.7236 258.689 40.0328Z" fill="#231F20"/>
<path d="M243.911 27.0492C243.444 27.0492 237.689 27.0492 235.822 27.0492H235.044C234.422 27.0492 233.956 26.8946 233.8 26.4309C233.644 26.2763 233.489 25.8126 233.8 25.0398C233.956 24.5761 234.889 23.185 235.822 21.6393C236.756 20.2482 237.533 18.8571 237.844 18.2389C238.311 17.6206 238.622 17.1569 239.089 17.1569C239.556 17.1569 239.867 17.3115 240.178 17.9297C240.333 18.2389 241.267 19.63 242.2 21.1756C243.289 22.8759 244.378 24.7307 244.689 25.0398C245 25.5035 245 25.9672 244.844 26.4309C244.844 26.74 244.378 27.0492 243.911 27.0492ZM235.044 26.1218H235.822C239.4 26.1218 243.6 26.1218 243.911 26.1218C244.067 26.1218 244.222 26.1218 244.222 25.9672C244.378 25.8126 244.222 25.6581 244.067 25.5035C243.756 25.0398 242.667 23.3396 241.578 21.4848C240.644 19.9391 239.711 18.548 239.556 18.2389C239.4 17.9297 239.244 17.9297 239.244 17.9297C239.244 17.9297 238.933 18.0843 238.622 18.548C238.311 19.1663 237.378 20.5574 236.6 21.9485C235.667 23.4941 234.733 24.8852 234.578 25.3489C234.422 25.5035 234.422 25.6581 234.422 25.8126C234.733 26.1218 234.889 26.1218 235.044 26.1218Z" fill="#231F20"/>
<path d="M288.4 71.4098H282.489V69.0913H288.089C289.022 69.0913 289.644 67.8548 289.644 67.082C289.644 66.7728 289.489 66.1546 289.333 65.6909C289.022 65.2272 288.711 64.918 288.244 64.918H283.267V66.4637L279.067 63.6815L283.267 60.7447V62.445H288.089C289.178 62.445 290.267 63.0632 291.2 63.9906C291.978 64.918 292.289 66 292.289 66.9274C292.289 68.1639 291.978 69.2459 291.2 70.0187C290.422 70.9461 289.489 71.4098 288.4 71.4098ZM283.422 70.4824H288.4C289.178 70.4824 289.956 70.1733 290.578 69.4005C291.2 68.7822 291.511 67.8548 291.511 66.7728C291.511 66 291.2 65.0726 290.578 64.2998C289.956 63.5269 289.178 63.0632 288.244 63.0632H282.644V62.1358L280.933 63.3724L282.644 64.4543V63.6815H288.4C289.178 63.6815 289.956 64.1452 290.267 64.918C290.733 65.6909 290.733 66.4637 290.733 66.7728C290.733 68.0094 289.8 69.555 288.4 69.555H283.578L283.422 70.4824Z" fill="#231F20"/>
<path d="M207.356 74.0375C208.444 74.0375 209.378 75.1194 209.378 76.0468C209.378 76.8197 208.756 77.9016 207.511 77.7471C206.267 77.5925 205.333 76.9742 205.333 75.8923C205.333 74.9649 206.111 74.0375 207.356 74.0375Z" fill="white"/>
<path d="M207.511 78.2108C206.111 78.2108 204.867 77.2834 205.022 76.0468C205.022 74.8103 206.111 73.7283 207.356 73.7283C208.756 73.7283 209.689 74.9649 209.689 76.2014C209.689 77.1288 208.911 78.2108 207.511 78.2108ZM207.356 74.5012C206.578 74.5012 205.8 75.1194 205.8 76.0468C205.8 76.8197 206.578 77.4379 207.511 77.4379C208.444 77.4379 208.911 76.6651 208.911 76.0468C208.756 75.4286 208.133 74.5012 207.356 74.5012Z" fill="#231F20"/>
<path d="M240.178 55.4895C236.756 55.4895 233.489 54.0984 231.311 51.9344C229.289 49.925 228.2 47.1428 228.356 44.0515C228.511 36.6323 235.2 33.2318 239.867 33.2318C242.822 33.2318 245.622 34.4684 247.8 36.6323C249.978 38.7962 251.222 41.5784 251.067 44.5152C251.067 47.452 249.978 50.2342 247.956 52.2436C246.089 54.2529 243.289 55.4895 240.178 55.4895ZM239.867 34.4684C235.667 34.4684 229.756 37.4051 229.756 44.0515C229.756 46.6791 230.689 49.1522 232.4 50.8525C234.422 52.8618 237.378 54.0984 240.333 54.0984C242.978 54.0984 245.467 53.171 247.178 51.3162C248.889 49.4614 249.978 47.1428 249.978 44.5152C249.978 41.8876 248.889 39.4145 247.022 37.5597C245 35.5503 242.356 34.6229 239.867 34.4684Z" fill="#231F20"/>
<path d="M189.156 79.6019H84.1556C79.9556 79.6019 76.3778 76.2014 76.3778 71.8735V18.0843C76.3778 13.911 79.8 10.356 84.1556 10.356H189.156C193.356 10.356 196.933 13.7564 196.933 18.0843V71.8735C196.933 76.2014 193.511 79.6019 189.156 79.6019Z" fill="white"/>
<path d="M189.156 80.3747H84.1556C79.4889 80.3747 75.6 76.6651 75.6 71.8735V18.0843C75.6 13.4473 79.3334 9.58313 84.1556 9.58313H189.156C193.822 9.58313 197.711 13.4473 197.711 18.0843V71.8735C197.711 76.6651 193.822 80.3747 189.156 80.3747ZM84.1556 11.2834C80.2667 11.2834 77.1556 14.3747 77.1556 18.2389V72.0281C77.1556 75.8923 80.2667 78.9836 84.1556 78.9836H189.156C193.044 78.9836 196.156 75.8923 196.156 72.0281V18.0843C196.156 14.2201 193.044 11.1288 189.156 11.1288H84.1556V11.2834Z" fill="#231F20"/>
<path d="M188.844 75.8923H84.7778C82.2889 75.8923 80.2667 73.8829 80.2667 71.4098V18.3934C80.2667 15.9204 82.2889 13.911 84.7778 13.911H188.689C191.178 13.911 193.2 15.9204 193.2 18.3934V71.4098C193.356 73.8829 191.333 75.8923 188.844 75.8923Z" fill="#FF8200"/>
<path d="M188.845 76.356H84.7778C81.9778 76.356 79.8 74.192 79.8 71.4098V18.3934C79.8 15.6112 81.9778 13.4473 84.7778 13.4473H188.689C191.489 13.4473 193.667 15.6112 193.667 18.3934V71.4098C193.667 74.192 191.489 76.356 188.845 76.356ZM84.7778 14.3747C82.6001 14.3747 80.7334 16.2295 80.7334 18.3934V71.4098C80.7334 73.5738 82.6001 75.4286 84.7778 75.4286H188.689C190.867 75.4286 192.733 73.5738 192.733 71.4098V18.3934C192.733 16.2295 190.867 14.3747 188.689 14.3747H84.7778Z" fill="#231F20"/>
<path d="M144.978 111.288C141.556 111.288 137.978 111.288 134.556 111.288V110.052H135.8C135.8 109.433 135.8 108.042 135.8 107.424H137.044C137.044 106.806 137.044 105.415 137.044 104.796H138.289C138.289 103.714 138.289 102.014 138.289 100.932C137.667 100.932 136.267 100.932 135.644 100.932C135.644 101.55 135.644 102.941 135.644 103.56H134.4C134.4 104.178 134.4 105.569 134.4 106.187H133.156C133.156 106.806 133.156 108.197 133.156 108.815H131.911C131.911 109.433 131.911 110.824 131.911 111.443H130.667C130.667 112.061 130.667 113.452 130.667 114.07C135.8 114.07 141.089 114.07 146.222 114.07V112.834H147.467V111.288C147 111.288 145.756 111.288 144.978 111.288Z" fill="#FF8200"/>
<path d="M156.8 106.187V104.951H158.044C158.044 103.869 158.044 102.169 158.044 101.087C157.422 101.087 156.022 101.087 155.4 101.087C155.4 101.705 155.4 103.096 155.4 103.714H154.156C154.156 104.333 154.156 105.724 154.156 106.342H152.911C152.911 106.96 152.911 108.351 152.911 108.97H151.667C151.667 109.588 151.667 110.979 151.667 111.597H150.422C150.422 112.215 150.422 113.607 150.422 114.225C151.044 114.225 152.444 114.225 153.067 114.225V112.988H154.311C154.311 112.37 154.311 110.979 154.311 110.361H155.556C155.556 109.742 155.556 108.351 155.556 107.733H156.8V106.187Z" fill="#FF8200"/>
<path d="M198.489 104.796H199.733V103.56H200.978C200.978 102.941 200.978 101.55 200.978 100.932C194.911 100.932 188.844 100.932 182.778 100.932C182.778 101.55 182.778 102.941 182.778 103.56H181.533C181.533 104.178 181.533 105.569 181.533 106.187H180.289C180.289 106.806 180.289 108.197 180.289 108.815H178.889C178.889 109.433 178.889 110.824 178.889 111.443H177.644C177.644 112.061 177.644 113.452 177.644 114.07C178.267 114.07 179.667 114.07 180.289 114.07V112.834H181.533C181.533 112.215 181.533 110.824 181.533 110.206H182.778V108.97C187.133 108.97 191.489 108.97 195.844 108.97V107.733H197.089V106.496H198.333V104.796H198.489ZM195.844 104.796H194.6V106.033C191.178 106.033 187.6 106.033 184.178 106.033V104.796H185.422V103.56C188.844 103.56 192.422 103.56 195.844 103.56V104.796Z" fill="#FF8200"/>
<path d="M177.644 104.796H178.889V103.56H180.133C180.133 102.941 180.133 101.55 180.133 100.932C174.067 100.932 168 100.932 161.933 100.932C161.933 101.55 161.933 102.941 161.933 103.56H160.689C160.689 104.178 160.689 105.569 160.689 106.187H159.444C159.444 106.806 159.444 108.197 159.444 108.815H158.2C158.2 109.433 158.2 110.824 158.2 111.443H156.956C156.956 112.061 156.956 113.452 156.956 114.07C157.578 114.07 158.978 114.07 159.6 114.07V112.834H160.844C160.844 112.215 160.844 110.824 160.844 110.206H162.089V108.97C166.444 108.97 170.8 108.97 175.156 108.97V107.733H176.4V106.496H177.644V104.796ZM175 104.796H173.756V106.033C170.333 106.033 166.756 106.033 163.333 106.033V104.796H164.578V103.56C168 103.56 171.578 103.56 175 103.56V104.796Z" fill="#FF8200"/>
<path d="M220.578 103.56V102.323H221.822V101.087C215.756 101.087 209.689 101.087 203.622 101.087C203.622 101.705 203.622 103.096 203.622 103.714H202.378C202.378 104.333 202.378 105.724 202.378 106.342H201.133C201.133 106.96 201.133 108.351 201.133 108.97H199.889C199.889 109.588 199.889 110.979 199.889 111.597H198.644C198.644 112.215 198.644 113.607 198.644 114.225C204.244 114.225 210 114.225 215.6 114.225V112.988H216.844V111.288C212.178 111.288 207.2 111.288 202.533 111.288V110.052H203.778V108.815C207.667 108.815 211.556 108.815 215.444 108.815V107.578H216.689V106.342C212.8 106.342 208.911 106.342 205.022 106.342V105.105H206.267V103.56C211.089 103.56 215.911 103.56 220.578 103.56Z" fill="#FF8200"/>
<path d="M132.067 103.56V102.323H133.311V101.087C126.778 101.087 120.244 101.087 113.711 101.087C113.711 101.705 113.711 103.096 113.711 103.714H112.467C112.467 104.333 112.467 105.724 112.467 106.342H111.222C111.222 106.96 111.222 108.351 111.222 108.97H109.978C109.978 109.588 109.978 110.979 109.978 111.597H108.733C108.733 112.215 108.733 113.607 108.733 114.225H107.333C107.333 114.843 107.333 116.234 107.333 116.852C107.956 116.852 109.356 116.852 109.978 116.852V115.616H111.222C111.222 114.998 111.222 113.607 111.222 112.988H112.467C112.467 112.37 112.467 110.979 112.467 110.361H113.711V109.124C117.6 109.124 121.489 109.124 125.378 109.124V107.888H126.622V106.651C122.733 106.651 118.844 106.651 114.956 106.651V105.415H116.2V103.56C121.644 103.56 126.933 103.56 132.067 103.56Z" fill="#FF8200"/>
<path d="M242.822 100.932C236.756 100.932 230.689 100.932 224.622 100.932C224.622 101.55 224.622 102.941 224.622 103.56H223.378C223.378 104.178 223.378 105.569 223.378 106.187H222.133C222.133 106.806 222.133 108.197 222.133 108.815H220.889C220.889 109.433 220.889 110.824 220.889 111.443H219.333C219.333 112.061 219.333 113.452 219.333 114.07C219.956 114.07 221.356 114.07 221.978 114.07V112.834H223.222C223.222 112.215 223.222 110.824 223.222 110.206H224.467V108.97C227.422 108.97 230.533 108.97 233.644 108.97V110.206H234.889V111.288H236.133V112.525H237.378V113.761H238.622V114.998H239.867V116.234C240.489 116.234 241.889 116.234 242.511 116.234C242.511 115.616 242.511 114.225 242.511 113.607H241.267V112.37H240.022V111.288H238.778V110.052H237.533C237.533 109.433 237.533 108.042 237.533 107.424H238.778V106.187H240.022V104.951H241.267V103.56H242.511V102.323H243.756V101.087H242.822V100.932ZM237.533 104.796H236.289V106.033C232.867 106.033 229.289 106.033 225.867 106.033V104.796H227.111V103.56C230.533 103.56 234.111 103.56 237.533 103.56V104.796Z" fill="#FF8200"/>
</g>
<path d="M87.1601 41.6656C87.1601 35.2678 87.1601 28.7246 87.1601 22.3268H86C86 29.5971 86 36.8673 86 43.9921H87.1601C87.1601 43.4105 87.1601 42.2473 87.1601 41.6656Z" fill="black"/>
<path d="M187.883 22.3248V21.1616H186.724C186.724 28.7226 186.724 36.429 186.724 44.1355C153.536 44.1355 120.348 44.1355 87.3044 44.1355V45.2987H88.4638V46.462C121.652 46.462 154.84 46.462 187.883 46.462V45.2987H189.043C189.043 37.7377 189.043 30.0312 189.043 22.3248H187.883V22.3248Z" fill="black"/>
<path d="M88.3193 21.1616H87.1597V22.3244H88.3193V21.1616Z" fill="black"/>
<path d="M90.7832 21.1632C122.667 21.1632 154.696 21.1632 186.579 21.1632V20C153.826 20 121.073 20 88.3194 20V21.1632C89.044 21.1632 90.2034 21.1632 90.7832 21.1632Z" fill="black"/>
<path d="M105.013 40.7307H103.717V42.0265H105.013V40.7307Z" fill="black"/>
<path d="M105.013 39.4349V40.7307H106.309V39.4349V38.1391H105.013V39.4349Z" fill="black"/>
<path d="M102.422 38.1391V36.8433H101.126V38.1391V39.4349H102.422V38.1391Z" fill="black"/>
<path d="M103.717 35.5476V34.2518V32.956V31.6602V30.3644V29.0686H102.422V30.3644V31.6602V32.956V34.2518V35.5476V36.8433H103.717V35.5476Z" fill="black"/>
<path d="M92.0553 35.5475H90.7595V36.8433H92.0553V35.5475Z" fill="black"/>
<path d="M90.7595 34.2518V32.956V31.6602H92.0553V32.956H93.3511V34.2518H94.6469V35.5476H95.9427V36.8433H97.2384H98.5342V35.5476H99.83V34.2518V32.956V31.6602V30.3644H98.5342V31.6602V32.956V34.2518H97.2384H95.9427V32.956H94.6469V31.6602H93.3511V30.3644H92.0553V29.0686H90.7595V30.3644H89.4637V31.6602V32.956V34.2518V35.5476H90.7595V34.2518Z" fill="black"/>
<path d="M98.5342 29.0686H97.2385V30.3644H98.5342V29.0686Z" fill="black"/>
<path d="M106.309 29.0686V30.3644V31.6602V32.956V34.2518V35.5475V36.8433V38.1391H107.605V36.8433V35.5475V34.2518V32.956V31.6602V30.3644V29.0686V27.7728H106.309V29.0686Z" fill="black"/>
<path d="M105.013 27.7728H106.309V26.4771V25.1813H105.013V26.4771V27.7728Z" fill="black"/>
<path d="M102.422 26.4771H101.126V27.7728V29.0686H102.422V27.7728V26.4771Z" fill="black"/>
<path d="M105.013 23.8855H103.717V25.1813H105.013V23.8855Z" fill="black"/>
<path d="M117.525 34.7449V32.3308H118.733V34.7449H117.525ZM113.907 38.3602V28.7155H116.317V29.9225H117.525V32.3308H116.317V38.3602H113.907ZM119.941 38.3602V37.1591H118.733V34.7449H119.941V28.7155H122.351V38.3602H119.941Z" fill="black"/>
<path d="M123.559 38.3602V28.7155H129.593V29.9225H125.969V32.3308H128.385V33.5378H125.969V38.3602H123.559Z" fill="black"/>
<path d="M133.206 38.3602V37.1591H131.998V35.952H130.796V31.1296H131.998V29.9225H133.206V28.7155H138.032V29.9225H139.24V32.3308H138.032V31.1296H136.83V29.9225H134.414V31.1296H133.206V35.952H134.414V37.1591H136.83V35.952H138.032V34.7449H139.24V37.1591H138.032V38.3602H133.206Z" fill="black"/>
<rect x="92.1191" y="50.9296" width="64.3877" height="19.048" fill="black"/>
<rect x="91.199" y="52.9393" width="0.919824" height="15.0379" fill="black"/>
<path d="M99.5057 62.9316V58.2211H100.449V62.9316H99.5057ZM95.7343 63.8737V57.279H99.5057V58.2211H96.6772V62.9316H99.5057V63.8737H95.7343Z" fill="#FF8200"/>
<path d="M102.334 63.8737V62.9316H104.22V63.8737H102.334ZM101.391 62.9316V60.1053H102.334V61.0474H104.22V60.1053H105.163V61.9895H102.334V62.9316H101.391ZM102.334 60.1053V59.1632H104.22V60.1053H102.334Z" fill="#FF8200"/>
<path d="M107.049 63.8737V60.1053H106.106V59.1632H107.049V57.279H107.991V59.1632H108.934V60.1053H107.991V63.8737H107.049Z" fill="#FF8200"/>
<path d="M110.82 63.8737V62.9316H112.706V63.8737H110.82ZM109.877 62.9316V60.1053H110.82V61.0474H112.706V60.1053H113.649V61.9895H110.82V62.9316H109.877ZM110.82 60.1053V59.1632H112.706V60.1053H110.82Z" fill="#FF8200"/>
<path d="M115.534 63.8737V62.9316H117.42V63.8737H115.534ZM117.42 62.9316V61.9895H118.363V62.9316H117.42ZM114.591 62.9316V60.1053H115.534V62.9316H114.591ZM117.42 61.0474V60.1053H118.363V61.0474H117.42ZM115.534 60.1053V59.1632H117.42V60.1053H115.534Z" fill="#FF8200"/>
<path d="M120.249 63.8737V60.1053H119.306V59.1632H120.249V57.279H121.191V59.1632H122.134V60.1053H121.191V63.8737H120.249Z" fill="#FF8200"/>
<path d="M128.734 63.8737V62.9316H129.677V63.8737H128.734ZM127.791 62.9316V61.9895H128.734V62.9316H127.791ZM128.734 60.1053V58.2211H129.677V60.1053H128.734ZM124.963 63.8737V57.279H128.734V58.2211H125.906V60.1053H128.734V61.0474H127.791V61.9895H126.849V61.0474H125.906V63.8737H124.963Z" fill="#FF8200"/>
<path d="M131.563 63.8737V62.9316H133.449V63.8737H131.563ZM130.62 62.9316V60.1053H131.563V61.0474H133.449V60.1053H134.391V61.9895H131.563V62.9316H130.62ZM131.563 60.1053V59.1632H133.449V60.1053H131.563Z" fill="#FF8200"/>
<path d="M135.334 62.9316V60.1053H136.277V62.9316H135.334ZM136.277 63.8737V62.9316H138.163V60.1053H136.277V59.1632H139.106V63.8737H136.277Z" fill="#FF8200"/>
<path d="M140.049 62.9316V60.1053H140.991V62.9316H140.049ZM140.991 63.8737V62.9316H142.877V60.1053H140.991V59.1632H142.877V57.279H143.82V63.8737H140.991Z" fill="#FF8200"/>
<path d="M145.706 63.8737V62.9316H147.591V63.8737H145.706ZM144.763 62.9316V60.1053H145.706V61.0474H147.591V60.1053H148.534V61.9895H145.706V62.9316H144.763ZM145.706 60.1053V59.1632H147.591V60.1053H145.706Z" fill="#FF8200"/>
<path d="M149.477 63.8737V59.1632H152.306V60.1053H150.42V63.8737H149.477Z" fill="#FF8200"/>
<path d="M155.826 54.7477C155.826 55.6733 155.826 56.6441 155.826 57.6477C155.826 68.6533 164.748 77.5762 175.753 77.5762H176.633C187.153 77.5762 195.681 69.0482 195.681 58.5283V58.5283C195.681 48.0083 187.153 39.4803 176.633 39.4803H171.094C162.662 39.4803 155.826 46.3158 155.826 54.7477V54.7477Z" fill="#FFA20D"/>
<path d="M157.448 67.9765C170.781 67.9765 176.288 67.9765 189.621 67.9765H187.303H188.607H186.868C187.592 67.9765 188.897 67.9765 189.621 67.9765H186.723C187.448 67.9765 188.752 67.9765 189.476 67.9765H187.158H188.462H186.723C187.448 67.9765 188.752 67.9765 189.476 67.9765C189.042 67.9765 187.448 67.9765 186.868 67.9765H188.172H185.853C186.868 67.9765 188.317 67.9765 189.476 67.9765H187.303H188.607H186.868C187.592 67.9765 188.897 67.9765 189.621 67.9765H187.303C188.462 67.9765 190.201 67.9765 191.361 67.9765V66.6678H192.665C192.665 61.1425 192.665 55.6171 192.665 50.2371H191.361V48.9285C190.201 48.9285 188.462 48.9285 187.303 48.9285H189.621C188.897 48.9285 187.592 48.9285 186.868 48.9285H188.607H187.303H189.621C188.607 48.9285 187.013 48.9285 185.998 48.9285H188.317H187.013C187.592 48.9285 189.042 48.9285 189.621 48.9285C188.897 48.9285 187.592 48.9285 186.868 48.9285H188.607H187.303H189.621C188.897 48.9285 187.592 48.9285 186.868 48.9285H189.766C189.042 48.9285 187.737 48.9285 187.013 48.9285H188.752H187.303H189.621C176.288 48.9285 170.781 48.9285 157.448 48.9285" fill="#121112"/>
<path d="M187.739 70.4468C186.869 71.3193 186.869 72.6279 187.739 73.5003L200.058 85.8597C200.927 86.7322 202.231 86.7322 203.101 85.8597C203.971 84.9873 203.971 83.6787 203.101 82.8062L190.782 70.4468C189.913 69.5744 188.608 69.5744 187.739 70.4468Z" fill="#6D3E32"/>
<path d="M194.115 73.933C193.825 73.6422 193.39 73.4968 193.1 73.0606C192.375 72.9152 192.086 73.7876 191.796 74.2238C191.506 74.9508 190.347 75.2417 190.202 75.9687C190.781 76.4049 191.361 76.9865 191.941 77.5681C192.375 76.6957 192.52 75.2417 193.535 75.0962C193.825 74.9508 193.97 74.9508 194.26 74.9508C194.549 74.9508 194.694 74.8054 194.839 74.66C194.549 74.3692 194.404 74.0784 194.115 73.933Z" fill="#512619"/>
<path d="M201.507 86.7297C200.927 86.7297 200.347 86.4389 199.913 86.0027L187.594 73.6433C186.724 72.7709 186.724 71.3168 187.594 70.299C188.029 69.8628 188.608 69.572 189.188 69.572C189.768 69.572 190.348 69.8628 190.782 70.299L203.101 82.6584C203.971 83.5308 203.971 84.9849 203.101 86.0027C202.811 86.4389 202.087 86.7297 201.507 86.7297ZM189.188 70.0082C188.608 70.0082 188.174 70.1536 187.884 70.5898C187.159 71.3168 187.159 72.4801 187.884 73.3525L200.203 85.7119C200.927 86.4389 202.087 86.4389 202.956 85.7119C203.681 84.9848 203.681 83.8216 202.956 82.9492L190.637 70.5898C190.203 70.299 189.768 70.0082 189.188 70.0082Z" fill="#3D2110"/>
<path d="M175.709 81.2049C163.681 81.2049 153.971 71.4628 153.971 59.3943C153.971 47.3257 163.681 37.5836 175.709 37.5836C187.738 37.5836 197.448 47.3257 197.448 59.3943C197.448 71.4628 187.593 81.2049 175.709 81.2049ZM175.709 41.2187C165.71 41.2187 157.594 49.3613 157.594 59.3943C157.594 69.4272 165.71 77.5698 175.709 77.5698C185.709 77.5698 193.825 69.4272 193.825 59.3943C193.825 49.3613 185.709 41.2187 175.709 41.2187Z" fill="#6D3E32"/>
<path d="M154.115 59.3935C154.115 47.4703 163.825 37.7282 175.709 37.7282C187.593 37.7282 197.303 47.4703 197.303 59.3935C197.303 60.7021 197.158 61.8654 197.013 63.0286C197.158 62.5924 197.448 62.3016 197.593 61.8654C197.738 60.9929 197.738 60.2659 197.738 59.3935C197.738 47.3249 187.883 37.4374 175.854 37.4374C163.825 37.4374 153.97 47.3249 153.97 59.3935C153.97 60.7021 154.115 61.8654 154.26 63.0286C154.405 63.4648 154.695 63.7556 154.84 64.0464C154.405 62.5924 154.115 60.9929 154.115 59.3935Z" fill="#632920"/>
<path d="M197.008 62.8328C195.269 73.0111 186.429 80.863 175.849 80.863C165.559 80.863 157.008 73.5928 154.835 63.9961C154.545 63.7053 154.4 63.269 154.255 62.9782C155.994 73.4474 164.979 81.2992 175.849 81.2992C187.153 81.2992 196.428 72.7203 197.588 61.815C197.443 62.1058 197.153 62.542 197.008 62.8328Z" fill="#3D2110"/>
<path d="M175.71 77.5723C165.71 77.5723 157.595 69.4297 157.595 59.3967C157.595 49.3638 165.71 41.2212 175.71 41.2212C185.71 41.2212 193.826 49.3638 193.826 59.3967C193.826 69.4297 185.71 77.5723 175.71 77.5723ZM175.71 43.6931C167.015 43.6931 160.058 50.8179 160.058 59.3967C160.058 68.121 167.16 75.1004 175.71 75.1004C184.261 75.1004 191.362 67.9756 191.362 59.3967C191.362 50.6725 184.261 43.6931 175.71 43.6931Z" fill="#7F7F7F"/>
<path d="M175.711 41.0802C165.566 41.0802 157.45 49.3682 157.45 59.4011C157.45 69.434 165.566 77.8675 175.711 77.8675C185.855 77.8675 193.971 69.5794 193.971 59.5465C193.971 49.5136 185.71 41.0802 175.711 41.0802ZM175.711 76.8497C166.145 76.8497 158.319 68.9978 158.319 59.4011C158.319 49.8044 166.145 41.9526 175.711 41.9526C185.276 41.9526 193.102 49.8044 193.102 59.4011C193.102 68.9978 185.276 76.8497 175.711 76.8497Z" fill="black"/>
<path d="M172.376 45.5869C170.637 45.8777 165.999 48.0588 164.695 50.9669C163.39 53.875 168.897 53.5842 170.202 50.3853C171.506 47.1864 173.97 46.314 173.825 45.8777C173.535 45.2961 172.376 45.5869 172.376 45.5869Z" fill="white"/>
<path d="M182.376 71.1797C182.376 70.8889 179.913 72.1975 176.145 72.0521C172.087 71.7613 168.898 69.7257 169.043 70.3073C169.333 71.6159 171.797 73.6516 175.13 74.0878C178.463 74.3786 182.521 71.9067 182.376 71.1797Z" fill="white"/>
<path d="M175.565 39.3346C166 38.4621 152.812 48.9313 156.725 58.0918C156.87 47.041 167.015 41.3702 175.565 39.3346Z" fill="#93604C"/>
<path d="M194.26 66.8152C190.637 72.6314 183.68 77.7205 177.304 79.0291C184.695 80.774 192.086 73.5038 194.26 66.8152Z" fill="#93604C"/>
<defs>
<clipPath id="clip0_472_3107">
<rect width="315" height="132" fill="white"/>
</clipPath>
</defs>
</svg>
