<svg width="154" height="92" viewBox="0 0 154 92" fill="none" xmlns="http://www.w3.org/2000/svg">
<rect x="1.54004" y="87.4" width="1.54" height="3.06667" fill="black"/>
<rect x="3.08008" y="82.8" width="1.54" height="4.6" fill="black"/>
<rect x="4.62" y="76.6667" width="1.54" height="6.13334" fill="black"/>
<rect x="6.16003" y="72.0667" width="1.54" height="4.6" fill="black"/>
<rect x="7.70007" y="65.9333" width="1.54" height="6.13333" fill="black"/>
<rect x="10.78" y="65.9333" width="1.54" height="9.2" fill="black"/>
<rect x="9.23999" y="39.8667" width="1.54" height="26.0667" fill="black"/>
<rect x="10.78" y="33.7333" width="1.54" height="6.13333" fill="black"/>
<rect x="12.3201" y="29.1333" width="1.54" height="4.6" fill="black"/>
<rect x="13.86" y="26.0667" width="1.54" height="3.06667" fill="black"/>
<rect x="15.4" y="23" width="1.54" height="3.06667" fill="black"/>
<rect x="16.9401" y="21.4667" width="1.54" height="1.53333" fill="black"/>
<rect x="26.1801" y="12.2667" width="3.08" height="1.53333" fill="black"/>
<rect x="32.3401" y="9.2" width="4.62" height="1.53333" fill="black"/>
<rect x="36.9601" y="7.66666" width="18.48" height="1.53333" fill="black"/>
<rect x="55.4401" y="9.2" width="6.16" height="1.53333" fill="black"/>
<rect x="61.6001" y="10.7333" width="3.08" height="1.53333" fill="black"/>
<rect x="64.6801" y="12.2667" width="3.08" height="1.53333" fill="black"/>
<rect x="67.76" y="13.8" width="1.54" height="1.53333" fill="black"/>
<rect x="77" y="23" width="1.54" height="3.06667" fill="black"/>
<rect x="80.0801" y="29.1333" width="1.54" height="4.6" fill="black"/>
<rect x="81.62" y="33.7333" width="1.54" height="3.06667" fill="black"/>
<rect x="80.0801" y="36.8" width="1.54" height="1.53333" fill="black"/>
<rect x="72.38" y="41.4" width="3.08" height="1.53333" fill="black"/>
<rect x="67.76" y="44.4667" width="3.07999" height="1.53333" fill="black"/>
<rect x="75.4601" y="39.8667" width="1.54" height="1.53334" fill="black"/>
<rect x="70.8401" y="42.9333" width="1.54" height="1.53333" fill="black"/>
<rect x="77" y="38.3333" width="3.08" height="1.53333" fill="black"/>
<rect x="83.16" y="33.7333" width="1.53999" height="1.53333" fill="black"/>
<rect x="84.7001" y="32.2" width="3.08" height="1.53333" fill="black"/>
<rect x="90.86" y="29.1333" width="6.16" height="1.53333" fill="black"/>
<rect x="97.02" y="30.6667" width="3.08" height="1.53333" fill="black"/>
<rect x="100.1" y="32.2" width="1.54" height="1.53333" fill="black"/>
<rect x="101.64" y="33.7333" width="1.54" height="7.66667" fill="black"/>
<rect x="100.1" y="38.3333" width="1.54" height="6.13334" fill="black"/>
<rect x="98.5601" y="38.3333" width="1.54" height="7.66667" fill="black"/>
<rect x="97.02" y="38.3333" width="1.54" height="9.2" fill="black"/>
<rect x="95.48" y="39.8667" width="1.53999" height="9.2" fill="black"/>
<rect x="121.66" y="15.3333" width="1.53999" height="3.06667" fill="black"/>
<rect x="123.2" y="13.8" width="1.54" height="6.13333" fill="black"/>
<rect x="124.74" y="13.8" width="1.54" height="7.66667" fill="black"/>
<rect x="130.9" y="19.9333" width="1.54001" height="7.66667" fill="black"/>
<rect x="140.14" y="15.3333" width="1.53999" height="12.2667" fill="black"/>
<rect x="141.68" y="12.2667" width="1.54001" height="12.2667" fill="black"/>
<rect x="143.22" y="9.2" width="1.53999" height="12.2667" fill="black"/>
<rect x="146.3" y="3.06665" width="1.53999" height="12.2667" fill="black"/>
<rect x="147.84" y="1.53333" width="1.54001" height="10.7333" fill="black"/>
<rect x="149.38" y="1.53333" width="1.53999" height="7.66667" fill="black"/>
<rect x="150.92" y="3.06665" width="1.54001" height="3.06667" fill="black"/>
<rect x="144.76" y="6.13333" width="1.54001" height="12.2667" fill="black"/>
<rect x="138.6" y="18.4" width="1.53999" height="12.2667" fill="black"/>
<rect x="137.06" y="21.4667" width="1.54001" height="10.7333" fill="black"/>
<rect x="135.52" y="24.5333" width="1.53999" height="7.66667" fill="black"/>
<rect x="133.98" y="23" width="1.54001" height="7.66667" fill="black"/>
<rect x="132.44" y="21.4667" width="1.53999" height="7.66667" fill="black"/>
<rect x="129.36" y="18.4" width="1.53999" height="7.66667" fill="black"/>
<rect x="127.82" y="16.8667" width="1.54" height="7.66667" fill="black"/>
<rect x="126.28" y="15.3333" width="1.54" height="7.66667" fill="black"/>
<rect x="93.9401" y="39.8667" width="1.54" height="10.7333" fill="black"/>
<rect x="92.4" y="41.4" width="1.54" height="10.7333" fill="black"/>
<rect x="87.78" y="46" width="1.54" height="10.7333" fill="black"/>
<rect x="86.24" y="47.5333" width="1.54" height="13.8" fill="black"/>
<rect x="87.78" y="58.2667" width="1.54" height="3.06667" fill="black"/>
<rect x="89.3201" y="58.2667" width="6.16" height="1.53333" fill="black"/>
<rect x="95.48" y="56.7333" width="7.7" height="1.53333" fill="black"/>
<rect x="103.18" y="58.2667" width="1.54" height="6.13334" fill="black"/>
<rect x="101.64" y="64.4" width="1.54" height="1.53333" fill="black"/>
<rect x="98.5601" y="67.4667" width="1.54" height="1.53333" fill="black"/>
<rect x="95.48" y="69" width="3.07999" height="1.53333" fill="black"/>
<rect x="90.86" y="70.5333" width="4.62" height="1.53333" fill="black"/>
<rect x="86.24" y="72.0667" width="4.62" height="1.53333" fill="black"/>
<rect x="81.62" y="73.6" width="9.24" height="1.53333" fill="black"/>
<rect x="77" y="75.1333" width="13.86" height="1.53333" fill="black"/>
<rect x="70.8401" y="76.6667" width="20.02" height="1.53333" fill="black"/>
<rect x="73.92" y="78.2" width="13.86" height="1.53333" fill="black"/>
<rect x="77" y="79.7333" width="7.7" height="1.53334" fill="black"/>
<rect x="89.3201" y="78.2" width="1.54" height="3.06667" fill="black"/>
<rect x="90.86" y="81.2667" width="1.54" height="6.13333" fill="black"/>
<rect x="92.4" y="87.4" width="1.54" height="3.06667" fill="black"/>
<rect x="92.4" y="82.8" width="6.16" height="1.53333" fill="black"/>
<rect x="98.5601" y="81.2667" width="3.08" height="1.53333" fill="black"/>
<rect x="107.8" y="76.6667" width="1.53999" height="1.53333" fill="black"/>
<rect x="115.5" y="67.4667" width="1.54" height="3.06667" fill="black"/>
<rect x="123.2" y="47.5333" width="1.54" height="6.13334" fill="black"/>
<rect x="129.36" y="47.5333" width="1.53999" height="3.06667" fill="black"/>
<rect x="132.44" y="56.7333" width="3.08" height="1.53333" fill="black"/>
<rect x="138.6" y="59.8" width="1.53999" height="1.53333" fill="black"/>
<rect x="123.2" y="62.8667" width="1.54" height="6.13334" fill="black"/>
<rect x="141.68" y="64.4" width="1.54001" height="9.2" fill="black"/>
<rect x="140.14" y="61.3333" width="1.53999" height="3.06667" fill="black"/>
<rect x="127.82" y="75.1333" width="3.07999" height="1.53333" fill="black"/>
<rect x="140.14" y="73.6" width="1.53999" height="1.53333" fill="black"/>
<rect x="137.06" y="75.1333" width="3.08" height="1.53333" fill="black"/>
<rect x="130.9" y="76.6667" width="6.16" height="1.53333" fill="black"/>
<rect x="133.98" y="78.2" width="1.54001" height="3.06667" fill="black"/>
<rect x="129.36" y="87.4" width="1.53999" height="3.06667" fill="black"/>
<rect x="130.9" y="84.3333" width="1.54001" height="3.06667" fill="black"/>
<rect x="132.44" y="81.2667" width="1.53999" height="3.06667" fill="black"/>
<rect x="126.28" y="72.0667" width="1.54" height="3.06667" fill="black"/>
<rect x="124.74" y="69" width="1.54" height="3.06667" fill="black"/>
<rect x="124.74" y="61.3333" width="1.54" height="1.53333" fill="black"/>
<rect x="126.28" y="59.8" width="1.54" height="1.53333" fill="black"/>
<rect x="135.52" y="58.2667" width="3.08" height="1.53333" fill="black"/>
<rect x="129.36" y="47.5333" width="1.53999" height="3.06667" fill="black"/>
<rect x="127.82" y="58.2667" width="3.07999" height="1.53333" fill="black"/>
<rect x="130.9" y="50.6" width="1.54001" height="7.66667" fill="black"/>
<rect x="124.74" y="46" width="4.62" height="1.53333" fill="black"/>
<rect x="121.66" y="53.6667" width="1.53999" height="4.6" fill="black"/>
<rect x="120.12" y="58.2667" width="1.54" height="3.06667" fill="black"/>
<rect x="118.58" y="61.3333" width="1.54" height="3.06667" fill="black"/>
<rect x="117.04" y="64.4" width="1.54" height="3.06667" fill="black"/>
<rect x="113.96" y="70.5333" width="1.54" height="1.53333" fill="black"/>
<rect x="112.42" y="72.0667" width="1.54" height="1.53333" fill="black"/>
<rect x="110.88" y="73.6" width="1.54" height="1.53333" fill="black"/>
<rect x="109.34" y="75.1333" width="1.54" height="1.53333" fill="black"/>
<rect x="104.72" y="78.2" width="3.08" height="1.53333" fill="black"/>
<rect x="101.64" y="79.7333" width="3.08" height="1.53334" fill="black"/>
<rect x="100.1" y="65.9333" width="1.54" height="1.53333" fill="black"/>
<rect x="84.7001" y="49.0667" width="1.54" height="12.2667" fill="black"/>
<rect x="83.16" y="50.6" width="1.53999" height="10.7333" fill="black"/>
<rect x="81.62" y="52.1333" width="1.54" height="7.66666" fill="black"/>
<rect x="80.0801" y="53.6667" width="1.54" height="6.13333" fill="black"/>
<rect x="78.54" y="55.2" width="1.54" height="3.06667" fill="black"/>
<rect x="77" y="56.7333" width="1.54" height="1.53333" fill="black"/>
<rect x="73.92" y="58.2667" width="3.08" height="1.53333" fill="black"/>
<rect x="69.3" y="59.8" width="4.62" height="1.53333" fill="black"/>
<rect x="64.6801" y="61.3333" width="4.62" height="1.53333" fill="black"/>
<rect x="53.9" y="62.8667" width="21.56" height="1.53334" fill="black"/>
<rect x="49.28" y="61.3333" width="4.62" height="1.53333" fill="black"/>
<rect x="46.2001" y="59.8" width="3.08" height="1.53333" fill="black"/>
<rect x="44.66" y="58.2667" width="1.54" height="1.53333" fill="black"/>
<rect x="50.8201" y="49.0667" width="1.54" height="1.53333" fill="black"/>
<rect x="47.74" y="47.5333" width="3.08" height="1.53333" fill="black"/>
<rect x="50.8201" y="44.4667" width="1.54" height="3.06667" fill="black"/>
<rect x="50.8201" y="33.7333" width="1.54" height="3.06667" fill="black"/>
<rect x="49.28" y="32.2" width="1.54" height="1.53333" fill="black"/>
<rect x="47.74" y="30.6667" width="1.54" height="1.53333" fill="black"/>
<rect x="32.3401" y="30.6667" width="1.54" height="1.53333" fill="black"/>
<rect x="30.8" y="32.2" width="1.54" height="1.53333" fill="black"/>
<rect x="29.26" y="33.7333" width="1.54" height="3.06667" fill="black"/>
<rect x="27.7201" y="36.8" width="1.54" height="7.66667" fill="black"/>
<rect x="29.26" y="44.4667" width="1.54" height="3.06667" fill="black"/>
<rect x="30.8" y="47.5333" width="1.54" height="1.53333" fill="black"/>
<rect x="35.42" y="47.5333" width="3.08" height="1.53333" fill="black"/>
<rect x="32.3401" y="50.6" width="1.54" height="3.06667" fill="black"/>
<rect x="30.8" y="53.6667" width="1.54" height="3.06667" fill="black"/>
<rect x="32.3401" y="49.0667" width="3.08" height="1.53333" fill="black"/>
<rect x="35.42" y="46" width="12.32" height="1.53333" fill="black"/>
<rect x="33.88" y="44.4667" width="13.86" height="1.53333" fill="black"/>
<rect x="32.3401" y="42.9333" width="16.94" height="1.53333" fill="black"/>
<rect x="32.3401" y="38.3333" width="16.94" height="1.53333" fill="black"/>
<rect x="40.04" y="36.8" width="9.24" height="1.53333" fill="black"/>
<rect x="40.04" y="35.2667" width="7.7" height="1.53333" fill="black"/>
<rect x="35.42" y="33.7333" width="10.78" height="1.53333" fill="black"/>
<rect x="36.9601" y="32.2" width="7.7" height="1.53333" fill="black"/>
<rect x="33.88" y="35.2667" width="3.08" height="1.53333" fill="black"/>
<rect x="32.3401" y="36.8" width="4.62" height="1.53333" fill="black"/>
<rect x="32.3401" y="39.8667" width="16.94" height="1.53334" fill="black"/>
<rect x="32.3401" y="41.4" width="16.94" height="1.53333" fill="black"/>
<rect x="44.66" y="29.1333" width="3.08" height="1.53333" fill="black"/>
<rect x="33.88" y="29.1333" width="3.08" height="1.53333" fill="black"/>
<rect x="36.9601" y="27.6" width="7.7" height="1.53333" fill="black"/>
<rect x="52.36" y="36.8" width="1.54" height="7.66667" fill="black"/>
<rect x="75.4601" y="61.3333" width="7.7" height="1.53333" fill="black"/>
<rect x="89.3201" y="44.4667" width="1.54" height="10.7333" fill="black"/>
<rect x="90.86" y="42.9333" width="1.54" height="10.7333" fill="black"/>
<rect x="87.78" y="30.6667" width="3.08" height="1.53333" fill="black"/>
<rect x="78.54" y="26.0667" width="1.54" height="3.06667" fill="black"/>
<rect x="75.4601" y="21.4667" width="1.54" height="1.53333" fill="black"/>
<rect x="73.92" y="19.9333" width="1.54" height="1.53333" fill="black"/>
<rect x="72.38" y="18.4" width="1.54" height="1.53333" fill="black"/>
<rect x="70.8401" y="16.8667" width="1.54" height="1.53333" fill="black"/>
<rect x="69.3" y="15.3333" width="1.53999" height="1.53333" fill="black"/>
<rect x="29.26" y="10.7333" width="3.08" height="1.53333" fill="black"/>
<rect x="24.64" y="13.8" width="1.54" height="1.53333" fill="black"/>
<rect x="23.1001" y="15.3333" width="1.54" height="1.53333" fill="black"/>
<rect x="21.5601" y="16.8667" width="1.54" height="1.53333" fill="black"/>
<rect x="20.02" y="18.4" width="1.54" height="1.53333" fill="black"/>
<rect x="18.48" y="19.9333" width="1.54" height="1.53333" fill="black"/>
<rect x="12.3201" y="75.1333" width="1.54" height="6.13334" fill="black"/>
<rect x="13.86" y="81.2667" width="1.54" height="6.13333" fill="black"/>
<rect x="15.4" y="87.4" width="1.54" height="3.06667" fill="black"/>
</svg>
