<svg width="120" height="112" viewBox="0 0 120 112" fill="none" xmlns="http://www.w3.org/2000/svg">
<path fill-rule="evenodd" clip-rule="evenodd" d="M96 0H93.3333V5.33333H96V10.6667H98.6667V16H101.333V10.6667H98.6667V5.33333H96V0ZM42.6667 5.33333H72V8H42.6667V5.33333ZM37.3333 10.6667V8H42.6667V10.6667H37.3333ZM32 13.3333V10.6667H37.3333V13.3333H32ZM29.3333 16V13.3333H32V16H29.3333ZM26.6667 18.6667V16H29.3333V18.6667H26.6667ZM24 21.3333V18.6667H26.6667V21.3333H24ZM21.3333 26.6667V21.3333H24V26.6667H21.3333ZM18.6667 32V26.6667H21.3333V32H18.6667ZM16 42.6667V32H18.6667V42.6667H16ZM16 42.6667V74.6667H13.3333V82.6667H10.6667V90.6667H8V98.6667H5.33333V106.667H2.66667V109.333H5.33333V112H2.66667H0V88H2.66667V82.6667H5.33333V77.3333H8V72H10.6667V66.6667H13.3333V42.6667H16ZM77.3333 10.6667H72V8H77.3333V10.6667ZM82.6667 13.3333H77.3333V10.6667H82.6667V13.3333ZM85.3333 16H82.6667V13.3333H85.3333V16ZM88 18.6667H85.3333V16H88V18.6667ZM90.6667 24H88V18.6667H90.6667V24ZM93.3333 29.3333H90.6667V24H93.3333V29.3333ZM98.6667 32H96V29.3333H93.3333V32V34.6667H88V37.3333H82.6667V40H77.3333V42.6667H82.6667V40H88V37.3333H93.3333V34.6667H98.6667V32ZM104 29.3333V32H98.6667V29.3333H104ZM114.667 29.3333H104V26.6667H114.667V29.3333ZM117.333 32H114.667V29.3333H117.333V32ZM117.333 61.3333V58.6667H101.333V56H104V53.3333H106.667V50.6667H109.333V48H112V45.3333H114.667V42.6667H117.333V40H120V32H117.333V37.3333H109.333V40H104V42.6667H101.333V45.3333H96V48H93.3333V50.6667H90.6667V53.3333H88V56H85.3333V58.6667H80V61.3333H74.6667V64H64V66.6667H101.333V64H112V61.3333H117.333ZM117.333 69.3333V61.3333H120V69.3333H117.333ZM114.667 72V69.3333H117.333V72H114.667ZM109.333 74.6667V72H114.667V74.6667H109.333ZM101.333 77.3333V74.6667H109.333V77.3333H101.333ZM98.6667 98.6667H96V82.6667H82.6667V80H77.3333V77.3333H101.333V80H98.6667V82.6667V98.6667ZM98.6667 98.6667H101.333V112H98.6667V98.6667ZM101.333 64H80V61.3333H85.3333V58.6667H96V61.3333H101.333V64ZM104 18.6667H101.333V21.3333H104V18.6667ZM53.3333 32H42.6667V29.3333H53.3333V32ZM56 32H53.3333V34.6667H56V37.3333V40V42.6667V45.3333H53.3333V48H56V45.3333H58.6667V48V50.6667H45.3333V48H42.6667V45.3333H40V42.6667V40V37.3333V34.6667H42.6667V32H40V29.3333H42.6667V26.6667H53.3333V29.3333H56V32ZM58.6667 34.6667H56V32H58.6667V34.6667ZM37.3333 34.6667V32H40V34.6667H37.3333ZM37.3333 45.3333V34.6667H34.6667V45.3333H37.3333ZM40 48V45.3333H37.3333V48H40ZM42.6667 50.6667V48H40V50.6667H42.6667ZM42.6667 53.3333H45.3333V50.6667H42.6667V53.3333ZM42.6667 53.3333H40V56H42.6667V53.3333ZM58.6667 50.6667V53.3333H61.3333V50.6667H58.6667ZM58.6667 34.6667H61.3333V45.3333H58.6667V34.6667ZM53.3333 40V37.3333H50.6667V34.6667H48V37.3333V40H53.3333ZM109.333 18.6667H112V21.3333H109.333V18.6667ZM10.6667 109.333H8V112H10.6667V109.333ZM13.3333 104V109.333H10.6667V104H13.3333ZM16 98.6667H13.3333V104H16V98.6667ZM18.6667 93.3333V98.6667H16V93.3333H18.6667ZM21.3333 80H18.6667V93.3333H21.3333V80ZM24 77.3333V80H21.3333V77.3333H24ZM34.6667 74.6667H24V77.3333H34.6667V80H37.3333V82.6667V90.6667H34.6667H32H29.3333H26.6667V85.3333H24V90.6667H26.6667V96H29.3333H32H34.6667V93.3333H37.3333V90.6667H40V82.6667H42.6667H45.3333V93.3333H42.6667V96H40V98.6667H37.3333V112H40V98.6667H42.6667V96H45.3333V93.3333H48V82.6667H45.3333V64H42.6667V61.3333H37.3333V64H34.6667V74.6667ZM34.6667 74.6667V77.3333H37.3333V80H42.6667V64H37.3333V74.6667H34.6667ZM109.333 0H112V16H109.333V0Z" fill="black"/>
</svg>
