<svg width="182" height="22" viewBox="0 0 182 22" fill="none" xmlns="http://www.w3.org/2000/svg">
<path d="M50.2214 14.3108C45.6559 14.3108 40.8828 14.3108 36.3172 14.3108V12.602H37.9774C37.9774 11.7476 37.9774 9.82531 37.9774 8.97094H39.6376C39.6376 8.11656 39.6376 6.19422 39.6376 5.33985H41.2978C41.2978 3.84469 41.2978 1.49516 41.2978 0C40.4677 0 38.6 0 37.7699 0C37.7699 0.854375 37.7699 2.77671 37.7699 3.63109H36.1097C36.1097 4.48546 36.1097 6.4078 36.1097 7.26218H34.4495C34.4495 8.11655 34.4495 10.0389 34.4495 10.8933H32.7893C32.7893 11.7477 32.7893 13.67 32.7893 14.5244H31.1291C31.1291 15.3787 31.1291 17.3011 31.1291 18.1555C37.9774 18.1555 45.0333 18.1555 51.8816 18.1555V16.4467H53.5419V14.3108C52.9193 14.3108 51.2591 14.3108 50.2214 14.3108Z" fill="#FF8200"/>
<path d="M65.9934 7.26245V5.55371H67.6536C67.6536 4.05856 67.6536 1.70902 67.6536 0.213867C66.8235 0.213867 64.9558 0.213867 64.1257 0.213867C64.1257 1.06824 64.1257 2.99058 64.1257 3.84496H62.4654C62.4654 4.69933 62.4654 6.62169 62.4654 7.47606H60.8052C60.8052 8.33044 60.8052 10.2528 60.8052 11.1072H59.145C59.145 11.9615 59.145 13.8839 59.145 14.7382H57.4848C57.4848 15.5926 57.4848 17.515 57.4848 18.3693C58.3149 18.3693 60.1827 18.3693 61.0128 18.3693V16.6606H62.673C62.673 15.8062 62.673 13.8839 62.673 13.0295H64.3332C64.3332 12.1751 64.3332 10.2528 64.3332 9.39839H65.9934V7.26245Z" fill="#FF8200"/>
<path d="M121.61 5.33985H123.27V3.63109H124.93C124.93 2.77671 124.93 0.854375 124.93 0C116.837 0 108.743 0 100.65 0C100.65 0.854375 100.65 2.77671 100.65 3.63109H98.9897C98.9897 4.48546 98.9897 6.4078 98.9897 7.26218H97.3295C97.3295 8.11655 97.3295 10.0389 97.3295 10.8933H95.4618C95.4618 11.7477 95.4618 13.67 95.4618 14.5244H93.8016C93.8016 15.3787 93.8016 17.3011 93.8016 18.1555C94.6317 18.1555 96.4994 18.1555 97.3295 18.1555V16.4467H98.9897C98.9897 15.5923 98.9897 13.67 98.9897 12.8156H100.65V11.1069C106.461 11.1069 112.271 11.1069 118.082 11.1069V9.39812H119.742V7.68938H121.403V5.33985H121.61ZM118.082 5.33985H116.422V7.04859C111.856 7.04859 107.083 7.04859 102.518 7.04859V5.33985H104.178V3.63109C108.743 3.63109 113.517 3.63109 118.082 3.63109V5.33985Z" fill="#FF8200"/>
<path d="M93.8016 5.33985H95.4618V3.63109H97.122C97.122 2.77671 97.122 0.854375 97.122 0C89.0285 0 80.935 0 72.8415 0C72.8415 0.854375 72.8415 2.77671 72.8415 3.63109H71.1813C71.1813 4.48546 71.1813 6.4078 71.1813 7.26218H69.5211C69.5211 8.11655 69.5211 10.0389 69.5211 10.8933H67.8609C67.8609 11.7477 67.8609 13.67 67.8609 14.5244H66.2007C66.2007 15.3787 66.2007 17.3011 66.2007 18.1555C67.0308 18.1555 68.8985 18.1555 69.7286 18.1555V16.4467H71.3888C71.3888 15.5923 71.3888 13.67 71.3888 12.8156H73.049V11.1069C78.8597 11.1069 84.6705 11.1069 90.4812 11.1069V9.39812H92.1414V7.68938H93.8016V5.33985ZM90.2737 5.33985H88.6135V7.04859C84.0479 7.04859 79.2748 7.04859 74.7092 7.04859V5.33985H76.3694V3.63109C80.935 3.63109 85.7081 3.63109 90.2737 3.63109V5.33985Z" fill="#FF8200"/>
<path d="M151.078 3.63137V1.92261H152.738V0.213867C144.645 0.213867 136.551 0.213867 128.458 0.213867C128.458 1.06824 128.458 2.99058 128.458 3.84496H126.797C126.797 4.69933 126.797 6.62169 126.797 7.47606H125.137C125.137 8.33044 125.137 10.2528 125.137 11.1072H123.477C123.477 11.9615 123.477 13.8839 123.477 14.7382H121.817C121.817 15.5926 121.817 17.515 121.817 18.3693C129.288 18.3693 136.966 18.3693 144.437 18.3693V16.6606H146.097V14.3111C139.872 14.3111 133.231 14.3111 127.005 14.3111V12.6023H128.665V10.8936C133.853 10.8936 139.041 10.8936 144.23 10.8936V9.1848H145.89V7.47606C140.702 7.47606 135.514 7.47606 130.325 7.47606V5.7673H131.986V3.63137C138.419 3.63137 144.852 3.63137 151.078 3.63137Z" fill="#FF8200"/>
<path d="M32.9966 3.63143V1.92268H34.6568V0.213936C25.9407 0.213936 17.2246 0.213936 8.50856 0.213936C8.50856 1.06831 8.50856 2.99065 8.50856 3.84503H6.84836C6.84836 4.6994 6.84836 6.62176 6.84836 7.47613H5.18815C5.18815 8.33051 5.18815 10.2528 5.18815 11.1072H3.52793C3.52793 11.9616 3.52793 13.8839 3.52793 14.7383H1.86774C1.86774 15.5927 1.86774 17.515 1.86774 18.3694H0C0 19.2238 0 21.1461 0 22.0005C0.830104 22.0005 2.69783 22.0005 3.52793 22.0005V20.2918H5.18815C5.18815 19.4374 5.18815 17.515 5.18815 16.6607H6.84836C6.84836 15.8063 6.84836 13.8839 6.84836 13.0296H8.50856V11.3208C13.6967 11.3208 18.8849 11.3208 24.073 11.3208V9.61207H25.7332V7.90331C20.5451 7.90331 15.3569 7.90331 10.1688 7.90331V6.19455H11.829V3.63143C19.0924 3.63143 26.1483 3.63143 32.9966 3.63143Z" fill="#FF8200"/>
<path d="M180.755 0C172.662 0 164.568 0 156.475 0C156.475 0.854375 156.475 2.77671 156.475 3.63109H154.814C154.814 4.48546 154.814 6.4078 154.814 7.26218H153.154C153.154 8.11655 153.154 10.0389 153.154 10.8933H151.494C151.494 11.7477 151.494 13.67 151.494 14.5244H149.419C149.419 15.3787 149.419 17.3011 149.419 18.1555C150.249 18.1555 152.117 18.1555 152.947 18.1555V16.4467H154.607C154.607 15.5923 154.607 13.67 154.607 12.8156H156.267V11.1069C160.21 11.1069 164.361 11.1069 168.511 11.1069V12.8156H170.171V14.3108H171.831V16.0195H173.492V17.7283H175.152V19.437H176.812V21.1458C177.642 21.1458 179.51 21.1458 180.34 21.1458C180.34 20.2914 180.34 18.3691 180.34 17.5147H178.68V15.8059H177.02V14.3108H175.359V12.602H173.699C173.699 11.7476 173.699 9.82531 173.699 8.97094H175.359V7.26218H177.02V5.55344H178.68V3.63109H180.34V1.92233H182V0.213591H180.755V0ZM173.699 5.33985H172.039V7.04859C167.473 7.04859 162.7 7.04859 158.135 7.04859V5.33985H159.795V3.63109C164.361 3.63109 169.134 3.63109 173.699 3.63109V5.33985Z" fill="#FF8200"/>
</svg>
