<svg width="97" height="20" viewBox="0 0 97 20" fill="none" xmlns="http://www.w3.org/2000/svg">
<path d="M7.875 15H6.4375H5H3.5625H2.125H0.6875V13.5625V12.125V10.6875V9.25V7.8125V6.375V4.9375V3.5V2.0625H2.125H3.5625H5H6.4375H7.875H9.3125V3.5V4.9375H7.875H6.4375H5H3.5625V6.375H5H6.4375V7.8125V9.25H5H3.5625V10.6875V12.125H5H6.4375H7.875H9.3125V13.5625V15H7.875ZM21.3125 15H19.875V13.5625V12.125V10.6875V9.25V7.8125V6.375H18.4375V7.8125V9.25V10.6875V12.125V13.5625V15H17H15.5625V13.5625V12.125V10.6875V9.25V7.8125V6.375H14.125V7.8125V9.25V10.6875V12.125V13.5625V15H12.6875H11.25V13.5625V12.125V10.6875V9.25V7.8125V6.375V4.9375V3.5H12.6875H14.125H15.5625H17V4.9375H18.4375V3.5H19.875H21.3125V4.9375H22.75V6.375V7.8125V9.25V10.6875V12.125V13.5625V15H21.3125ZM31.875 15H30.4375H29H27.5625H26.125V13.5625H24.6875V12.125V10.6875V9.25V7.8125V6.375V4.9375V3.5H26.125H27.5625V4.9375V6.375V7.8125V9.25V10.6875V12.125H29H30.4375V10.6875V9.25V7.8125V6.375V4.9375V3.5H31.875H33.3125V4.9375V6.375V7.8125V9.25V10.6875V12.125V13.5625V15H31.875ZM36.6875 15H35.25V13.5625V12.125V10.6875V9.25V7.8125V6.375V4.9375V3.5V2.0625V0.625H36.6875H38.125V2.0625V3.5V4.9375V6.375V7.8125V9.25V10.6875V12.125V13.5625V15H36.6875ZM47.25 15H45.8125H44.375H42.9375H41.5V13.5625H40.0625V12.125V10.6875V9.25H41.5V7.8125H42.9375H44.375H45.8125V6.375H44.375H42.9375H41.5H40.0625V4.9375V3.5H41.5H42.9375H44.375H45.8125H47.25V4.9375H48.6875V6.375V7.8125V9.25V10.6875V12.125V13.5625V15H47.25ZM44.375 12.125H45.8125V10.6875H44.375H42.9375V12.125H44.375ZM54.9375 15H53.5V13.5625H52.0625V12.125V10.6875V9.25V7.8125V6.375H50.625V4.9375V3.5H52.0625V2.0625V0.625H53.5H54.9375V2.0625V3.5H56.375V4.9375V6.375H54.9375V7.8125V9.25V10.6875V12.125H56.375V13.5625V15H54.9375ZM59.75 15H58.3125V13.5625V12.125V10.6875V9.25V7.8125V6.375V4.9375H59.75H61.1875V6.375V7.8125V9.25V10.6875V12.125V13.5625V15H59.75ZM59.75 3.5H58.3125V2.0625V0.625H59.75H61.1875V2.0625V3.5H59.75ZM70.3125 15H68.875V13.5625V12.125V10.6875V9.25V7.8125V6.375H67.4375H66V7.8125V9.25V10.6875V12.125V13.5625V15H64.5625H63.125V13.5625V12.125V10.6875V9.25V7.8125V6.375V4.9375V3.5H64.5625H66H67.4375H68.875H70.3125V4.9375H71.75V6.375V7.8125V9.25V10.6875V12.125V13.5625V15H70.3125ZM79.4375 19.3125H78H76.5625H75.125H73.6875V17.875V16.4375H75.125H76.5625H78H79.4375V15H78H76.5625H75.125V13.5625H73.6875V12.125V10.6875V9.25V7.8125V6.375V4.9375H75.125V3.5H76.5625H78H79.4375H80.875H82.3125V4.9375V6.375V7.8125V9.25V10.6875V12.125V13.5625V15V16.4375V17.875H80.875V19.3125H79.4375ZM78 12.125H79.4375V10.6875V9.25V7.8125V6.375H78H76.5625V7.8125V9.25V10.6875V12.125H78ZM85.6875 15H84.25V13.5625V12.125H85.6875H87.125V13.5625V15H85.6875ZM90.5 15H89.0625V13.5625V12.125H90.5H91.9375V13.5625V15H90.5ZM95.3125 15H93.875V13.5625V12.125H95.3125H96.75V13.5625V15H95.3125Z" fill="white"/>
</svg>
