<svg width="268" height="100" viewBox="0 0 268 100" fill="none" xmlns="http://www.w3.org/2000/svg">
<rect width="268" height="100" rx="12" fill="#F2F2F2"/>
<g opacity="0.9">
<rect x="66.75" y="7.75" width="49.5" height="84.5" rx="7.25" fill="#919191" stroke="#1C1C1C" stroke-width="1.5"/>
<rect x="68.75" y="9.75" width="45.5" height="80.5" rx="5.25" fill="url(#paint0_linear_4788_102137)" stroke="#1C1C1C" stroke-width="1.5"/>
<line x1="86.75" y1="14.75" x2="96.25" y2="14.75" stroke="#1C1C1C" stroke-width="1.5" stroke-linecap="round"/>
</g>
<g filter="url(#filter0_d_4788_102137)">
<mask id="path-5-inside-1_4788_102137" fill="white">
<path fill-rule="evenodd" clip-rule="evenodd" d="M90 25C85.5817 25 82 28.5817 82 33V57C82 61.4183 85.5817 65 90 65H92.449L97.1894 72.6323C97.5806 73.2621 98.4972 73.2621 98.8884 72.6323L103.629 65H230C234.418 65 238 61.4183 238 57V33C238 28.5817 234.418 25 230 25H90Z"/>
</mask>
<path fill-rule="evenodd" clip-rule="evenodd" d="M90 25C85.5817 25 82 28.5817 82 33V57C82 61.4183 85.5817 65 90 65H92.449L97.1894 72.6323C97.5806 73.2621 98.4972 73.2621 98.8884 72.6323L103.629 65H230C234.418 65 238 61.4183 238 57V33C238 28.5817 234.418 25 230 25H90Z" fill="white"/>
<path d="M92.449 65L92.8737 64.7362L92.727 64.5H92.449V65ZM97.1894 72.6323L97.6142 72.3685L97.1894 72.6323ZM98.8884 72.6323L99.3131 72.8961L98.8884 72.6323ZM103.629 65V64.5H103.351L103.204 64.7362L103.629 65ZM82.5 33C82.5 28.8579 85.8579 25.5 90 25.5V24.5C85.3056 24.5 81.5 28.3056 81.5 33H82.5ZM82.5 57V33H81.5V57H82.5ZM90 64.5C85.8579 64.5 82.5 61.1421 82.5 57H81.5C81.5 61.6944 85.3056 65.5 90 65.5V64.5ZM92.449 64.5H90V65.5H92.449V64.5ZM97.6142 72.3685L92.8737 64.7362L92.0242 65.2638L96.7647 72.8961L97.6142 72.3685ZM98.4636 72.3685C98.268 72.6834 97.8098 72.6834 97.6142 72.3685L96.7647 72.8961C97.3515 73.8409 98.7263 73.8409 99.3131 72.8961L98.4636 72.3685ZM103.204 64.7362L98.4636 72.3685L99.3131 72.8961L104.054 65.2638L103.204 64.7362ZM230 64.5H103.629V65.5H230V64.5ZM237.5 57C237.5 61.1421 234.142 64.5 230 64.5V65.5C234.694 65.5 238.5 61.6944 238.5 57H237.5ZM237.5 33V57H238.5V33H237.5ZM230 25.5C234.142 25.5 237.5 28.8579 237.5 33H238.5C238.5 28.3056 234.694 24.5 230 24.5V25.5ZM90 25.5H230V24.5H90V25.5Z" fill="#E9E9E9" mask="url(#path-5-inside-1_4788_102137)"/>
</g>
<g clip-path="url(#clip0_4788_102137)">
<rect x="90" y="33" width="24" height="24" rx="4" fill="#FF8200"/>
<path d="M107.458 56.7909C107.458 56.4742 107.458 56.0402 107.458 55.7235H107.139C107.139 55.4069 107.139 54.9728 107.139 54.6562H106.82C106.82 54.0869 106.82 53.4465 106.82 52.8773H107.139C107.139 52.6994 107.139 52.3436 107.139 52.1657C107.538 52.1657 108.016 52.1657 108.415 52.1657V51.8099C108.699 51.8099 109.088 51.8099 109.372 51.8099V51.4542C109.656 51.4542 110.045 51.4542 110.329 51.4542V51.0984C110.613 51.0984 111.002 51.0984 111.286 51.0984V50.7426C111.446 50.7426 111.765 50.7426 111.924 50.7426V50.3868H112.243V50.031H112.562V49.6752H112.881V49.3195H113.2C113.2 48.7502 113.2 48.1098 113.2 47.5406H112.881V47.1848C111.079 47.1848 109.261 47.1848 107.458 47.1848V46.829H107.777V46.4732H108.096V46.1174H108.415V45.7617H108.734V45.4059H109.053V45.0501H109.372V44.6943H109.691V44.3385H110.01V43.9828H110.329V43.627H110.648V43.2712H110.967V42.9154H111.286V42.5596H111.605V42.2039H111.924V41.8481H112.243V41.4923H112.562C112.562 41.0476 112.562 40.5139 112.562 40.0692H112.243V39.7134C111.959 39.7134 111.57 39.7134 111.286 39.7134V39.3576C110.339 39.3576 109.363 39.3576 108.415 39.3576V39.7134C108.256 39.7134 107.937 39.7134 107.777 39.7134V40.0692C107.618 40.0692 107.299 40.0692 107.139 40.0692V40.425C106.98 40.425 106.661 40.425 106.501 40.425V40.0692H106.182C106.182 39.8913 106.182 39.5355 106.182 39.3576H105.863C105.863 39.1797 105.863 38.8239 105.863 38.646H105.544V38.2903H105.225V37.9345H104.906V37.5787H104.587V37.2229C104.428 37.2229 104.109 37.2229 103.949 37.2229V36.8671C103.79 36.8671 103.471 36.8671 103.311 36.8671V36.5114C103.027 36.5114 102.638 36.5114 102.354 36.5114V36.1556C101.844 36.1556 101.27 36.1556 100.759 36.1556V35.7998C99.1709 35.7998 97.5632 35.7998 95.9747 35.7998V36.1556C95.5759 36.1556 95.0975 36.1556 94.6987 36.1556V36.5114C94.4148 36.5114 94.0257 36.5114 93.7418 36.5114V36.8671H93.4228V37.2229C93.2633 37.2229 92.9443 37.2229 92.7848 37.2229V37.5787C92.6253 37.5787 92.3063 37.5787 92.1468 37.5787V37.9345H91.8278V38.2903H91.5089V38.646H91.1899V39.0018H90.8709V39.3576H90.5519C90.5519 39.5355 90.5519 39.8913 90.5519 40.0692H90.2329C90.2329 40.2471 90.2329 40.6028 90.2329 40.7807H89.9139C89.9139 40.9586 89.9139 41.3144 89.9139 41.4923H89.5949C89.5949 41.6702 89.5949 42.026 89.5949 42.2039H89.2759C89.2759 42.3817 89.2759 42.7375 89.2759 42.9154H88.957C88.957 43.0933 88.957 43.4491 88.957 43.627H88.638C88.638 43.9436 88.638 44.3777 88.638 44.6943H88.319C88.319 45.139 88.319 45.6727 88.319 46.1174H88C88 47.1741 88 48.2628 88 49.3195H88.319C88.319 48.3838 88.319 47.4089 88.319 46.4732H88.638C88.638 46.0285 88.638 45.4948 88.638 45.0501H88.957C88.957 44.7335 88.957 44.2994 88.957 43.9828H89.2759C89.2759 43.8049 89.2759 43.4491 89.2759 43.2712H89.5949C89.5949 43.0933 89.5949 42.7375 89.5949 42.5596H89.9139C89.9139 42.3817 89.9139 42.026 89.9139 41.8481H90.2329C90.2329 41.6702 90.2329 41.3144 90.2329 41.1365H90.5519C90.5519 40.9586 90.5519 40.6028 90.5519 40.425H90.8709C90.8709 40.2471 90.8709 39.8913 90.8709 39.7134H91.1899V39.3576H91.5089V39.0018H91.8278V38.646H92.1468V38.2903H92.4658V37.9345C92.6253 37.9345 92.9443 37.9345 93.1038 37.9345V37.5787C93.2633 37.5787 93.5823 37.5787 93.7418 37.5787V37.2229C95.0082 37.2229 96.3032 37.2229 97.5696 37.2229V36.8671C96.7307 36.8671 95.8567 36.8671 95.0177 36.8671V36.5114C95.4165 36.5114 95.8949 36.5114 96.2937 36.5114V36.1556C97.6685 36.1556 99.0657 36.1556 100.441 36.1556V36.5114H100.759V36.8671H101.078V36.5114H101.397V36.8671C101.908 36.8671 102.482 36.8671 102.992 36.8671C102.992 37.045 102.992 37.4008 102.992 37.5787C103.391 37.5787 103.87 37.5787 104.268 37.5787V37.9345H104.587V38.2903H104.906V38.646H105.225V39.0018H105.544C105.544 39.3185 105.544 39.7525 105.544 40.0692H105.225V40.425C105.509 40.425 105.898 40.425 106.182 40.425C106.182 40.6028 106.182 40.9586 106.182 41.1365C106.342 41.1365 106.661 41.1365 106.82 41.1365V40.7807C106.98 40.7807 107.299 40.7807 107.458 40.7807V40.425C107.618 40.425 107.937 40.425 108.096 40.425V40.0692C108.256 40.0692 108.575 40.0692 108.734 40.0692V39.7134C109.465 39.7134 110.237 39.7134 110.967 39.7134V40.0692C111.251 40.0692 111.64 40.0692 111.924 40.0692V40.425H112.243V40.7807C111.844 40.7807 111.366 40.7807 110.967 40.7807V41.1365C110.683 41.1365 110.294 41.1365 110.01 41.1365V41.4923C109.851 41.4923 109.532 41.4923 109.372 41.4923V41.8481C109.213 41.8481 108.894 41.8481 108.734 41.8481V42.2039H108.415V42.5596H108.096V42.9154H107.777V43.2712H107.458V43.627H107.139V43.9828H106.82V44.3385H106.501V44.6943H106.182V45.0501H105.863V45.4059H105.544V45.7617H105.225V46.1174H104.906V46.4732H104.587V46.829H104.268V47.1848H103.949V47.5406H103.63V47.8963H103.311V48.2521C103.152 48.2521 102.833 48.2521 102.673 48.2521V48.6079C102.514 48.6079 102.195 48.6079 102.035 48.6079V48.9637C101.752 48.9637 101.362 48.9637 101.078 48.9637V49.3195C100.568 49.3195 99.9939 49.3195 99.4835 49.3195V49.6752C102.243 49.6752 105.018 49.6752 107.777 49.6752V49.3195C106.511 49.3195 105.216 49.3195 103.949 49.3195C103.949 49.1416 103.949 48.7858 103.949 48.6079H104.268V48.2521H104.587V47.8963H104.906V47.5406C105.637 47.5406 106.409 47.5406 107.139 47.5406V47.8963C107.538 47.8963 108.016 47.8963 108.415 47.8963V47.5406C109.682 47.5406 110.977 47.5406 112.243 47.5406V47.8963C112.403 47.8963 112.722 47.8963 112.881 47.8963C112.881 48.213 112.881 48.647 112.881 48.9637H112.562V49.3195H112.243V49.6752H111.924V50.031H111.605V50.3868C111.446 50.3868 111.127 50.3868 110.967 50.3868V50.7426C110.683 50.7426 110.294 50.7426 110.01 50.7426V51.0984C109.726 51.0984 109.337 51.0984 109.053 51.0984V51.4542C108.769 51.4542 108.38 51.4542 108.096 51.4542V51.8099C107.697 51.8099 107.219 51.8099 106.82 51.8099V52.1657C106.422 52.1657 105.943 52.1657 105.544 52.1657V52.5215C105.26 52.5215 104.871 52.5215 104.587 52.5215V52.8773C104.428 52.8773 104.109 52.8773 103.949 52.8773V53.2331C103.79 53.2331 103.471 53.2331 103.311 53.2331C103.311 53.4109 103.311 53.7667 103.311 53.9446H103.63V53.5888H103.949V53.9446H104.268V54.3004H104.587V53.9446H104.906V54.3004H105.225V54.6562H105.544V54.3004H105.863V54.6562H106.182V55.012H106.501V55.3677H106.82V55.7235H106.501V56.0793C106.661 56.0793 106.98 56.0793 107.139 56.0793C107.139 56.3959 107.139 56.83 107.139 57.1466C107.299 57.1466 107.618 57.1466 107.777 57.1466V56.7909H107.458Z" fill="black"/>
<path d="M107.139 56.4353V56.0795C106.98 56.0795 106.661 56.0795 106.501 56.0795V56.4353H106.182V56.0795H105.863V56.4353H105.544V56.0795H105.225V55.7237H104.906V56.0795H104.587V55.7237H104.268V56.0795H103.949V55.7237H103.63V55.368H103.311V55.0122H102.992V54.6564H102.673V55.0122H102.354V54.6564H102.035V54.3006H102.354V53.9448H102.035V53.5891H102.354V53.9448H102.673V53.5891H102.992V53.9448H103.311C103.311 53.7669 103.311 53.4112 103.311 53.2333C103.471 53.2333 103.79 53.2333 103.949 53.2333V52.8775C104.109 52.8775 104.428 52.8775 104.587 52.8775V52.5217C104.871 52.5217 105.26 52.5217 105.544 52.5217V52.1659C105.943 52.1659 106.422 52.1659 106.82 52.1659V51.8101C107.219 51.8101 107.697 51.8101 108.096 51.8101V51.4544C108.38 51.4544 108.769 51.4544 109.053 51.4544V51.0986C109.337 51.0986 109.726 51.0986 110.01 51.0986V50.7428C110.294 50.7428 110.683 50.7428 110.967 50.7428V50.387C111.127 50.387 111.446 50.387 111.605 50.387V50.0312H111.924V49.6755H112.243V49.3197H112.562V48.9639H112.881C112.881 48.6473 112.881 48.2132 112.881 47.8966C112.722 47.8966 112.403 47.8966 112.243 47.8966V48.2523C112.084 48.2523 111.765 48.2523 111.605 48.2523V48.6081C111.321 48.6081 110.932 48.6081 110.648 48.6081V48.9639C110.249 48.9639 109.771 48.9639 109.372 48.9639V49.3197C108.862 49.3197 108.288 49.3197 107.777 49.3197V49.6755C105.018 49.6755 102.243 49.6755 99.4835 49.6755V49.3197C99.3241 49.3197 99.0051 49.3197 98.8456 49.3197V48.9639H98.5266V48.6081H98.8456V48.9639C99.0051 48.9639 99.3241 48.9639 99.4835 48.9639V49.3197C99.9939 49.3197 100.568 49.3197 101.078 49.3197V48.9639C101.362 48.9639 101.752 48.9639 102.035 48.9639V48.6081C102.195 48.6081 102.514 48.6081 102.673 48.6081V48.2523C102.833 48.2523 103.152 48.2523 103.311 48.2523V47.8966H103.63V47.5408H103.949V47.185H104.268V46.8292H104.587V46.4734H104.906V46.1177H105.225V45.7619H105.544V45.4061H105.863V45.0503H106.182V44.6945H106.501V44.3388H106.82V43.983H107.139V43.6272H107.458V43.2714H107.777V42.9156H108.096V42.5599H108.415V42.2041H108.734V41.8483C108.894 41.8483 109.213 41.8483 109.372 41.8483V41.4925C109.532 41.4925 109.851 41.4925 110.01 41.4925V41.1367C110.294 41.1367 110.683 41.1367 110.967 41.1367V40.781C111.366 40.781 111.844 40.781 112.243 40.781V40.4252H111.924V40.0694C111.64 40.0694 111.251 40.0694 110.967 40.0694V39.7136C110.237 39.7136 109.465 39.7136 108.734 39.7136V40.0694C108.575 40.0694 108.256 40.0694 108.096 40.0694V40.4252C107.937 40.4252 107.618 40.4252 107.458 40.4252V40.781C107.299 40.781 106.98 40.781 106.82 40.781V41.1367C106.661 41.1367 106.342 41.1367 106.182 41.1367V41.4925H105.863V41.8483C105.704 41.8483 105.385 41.8483 105.225 41.8483V42.2041H104.906V42.5599C104.747 42.5599 104.428 42.5599 104.268 42.5599V42.9156H103.949V43.2714C103.79 43.2714 103.471 43.2714 103.311 43.2714V43.6272H102.992V43.983C102.833 43.983 102.514 43.983 102.354 43.983V44.3388C102.195 44.3388 101.876 44.3388 101.716 44.3388V44.6945C101.557 44.6945 101.238 44.6945 101.078 44.6945V45.0503C100.919 45.0503 100.6 45.0503 100.441 45.0503V45.4061C100.157 45.4061 99.7674 45.4061 99.4835 45.4061C99.4835 44.5914 99.4835 43.7304 99.4835 42.9156H99.1646C99.1646 42.7377 99.1646 42.382 99.1646 42.2041H98.8456V41.8483H98.5266V41.4925H98.2076V41.1367C98.0481 41.1367 97.7291 41.1367 97.5696 41.1367V40.781C96.6222 40.781 95.6461 40.781 94.6987 40.781V41.1367C94.5392 41.1367 94.2203 41.1367 94.0608 41.1367V41.4925H93.7418V41.8483H93.4228V42.2041H93.1038C93.1038 42.382 93.1038 42.7377 93.1038 42.9156H92.7848C92.7848 43.9723 92.7848 45.061 92.7848 46.1177H93.1038C93.1038 46.2955 93.1038 46.6513 93.1038 46.8292H93.4228V47.185H93.7418V47.5408H94.0608C94.0608 47.3629 94.0608 47.0071 94.0608 46.8292H93.7418V46.4734H93.4228C93.4228 46.2955 93.4228 45.9398 93.4228 45.7619H93.1038C93.1038 44.9471 93.1038 44.0862 93.1038 43.2714H93.4228C93.4228 43.0935 93.4228 42.7377 93.4228 42.5599H93.7418V42.2041H94.0608V41.8483H94.3797V41.4925C94.5392 41.4925 94.8582 41.4925 95.0177 41.4925V41.1367C95.7482 41.1367 96.5202 41.1367 97.2506 41.1367V41.4925C97.4101 41.4925 97.7291 41.4925 97.8886 41.4925V41.8483H98.2076V42.2041H98.5266V42.5599H98.8456C98.8456 42.7377 98.8456 43.0935 98.8456 43.2714H99.1646C99.1646 44.2071 99.1646 45.182 99.1646 46.1177C99.0051 46.1177 98.6861 46.1177 98.5266 46.1177V45.7619C97.9046 45.7619 97.2347 45.7619 96.6127 45.7619V46.1177C96.3288 46.1177 95.9396 46.1177 95.6557 46.1177V46.4734C95.4962 46.4734 95.1772 46.4734 95.0177 46.4734V46.8292H94.6987C94.6987 47.0071 94.6987 47.3629 94.6987 47.5408H94.3797C94.3797 47.8574 94.3797 48.2915 94.3797 48.6081H94.0608V48.2523H93.7418V48.6081H93.4228V48.9639H93.1038V49.3197H92.7848V48.9639H92.4658V49.3197H92.1468V48.9639H91.8278V49.3197H91.5089V48.9639H91.1899V48.6081H90.8709V48.2523H90.5519V47.8966H90.8709V47.5408H90.5519V47.185H90.8709V46.8292H90.5519V46.4734H90.8709V46.1177H91.1899V45.7619H91.5089V45.4061H91.8278V45.7619H92.1468V45.4061H92.4658C92.4658 44.5914 92.4658 43.7304 92.4658 42.9156H92.7848C92.7848 42.7377 92.7848 42.382 92.7848 42.2041H93.1038V41.8483H93.4228V41.4925H93.7418V41.1367H94.0608V40.781C94.2203 40.781 94.5392 40.781 94.6987 40.781V40.4252C95.6461 40.4252 96.6222 40.4252 97.5696 40.4252V40.0694H97.8886V39.7136H98.2076V39.3578H97.8886V39.002H98.2076V38.6463H98.5266V38.2905H98.8456V37.9347H98.5266V37.5789C98.2427 37.5789 97.8535 37.5789 97.5696 37.5789V37.2231C96.3032 37.2231 95.0082 37.2231 93.7418 37.2231V37.5789C93.5823 37.5789 93.2633 37.5789 93.1038 37.5789V37.9347C92.9443 37.9347 92.6253 37.9347 92.4658 37.9347V38.2905H92.1468V38.6463H91.8278V39.002H91.5089V39.3578H91.1899V39.7136H90.8709C90.8709 39.8915 90.8709 40.2473 90.8709 40.4252H90.5519C90.5519 40.6031 90.5519 40.9588 90.5519 41.1367H90.2329C90.2329 41.3146 90.2329 41.6704 90.2329 41.8483H89.9139C89.9139 42.0262 89.9139 42.382 89.9139 42.5599H89.5949C89.5949 42.7377 89.5949 43.0935 89.5949 43.2714H89.2759C89.2759 43.4493 89.2759 43.8051 89.2759 43.983H88.957C88.957 44.2996 88.957 44.7337 88.957 45.0503H88.638C88.638 45.495 88.638 46.0287 88.638 46.4734H88.319C88.319 47.4091 88.319 48.384 88.319 49.3197H88C88 51.924 88 54.5425 88 57.1469C94.3766 57.1469 100.763 57.1469 107.139 57.1469C107.139 56.969 107.139 56.6132 107.139 56.4353Z" fill="white"/>
<path d="M106.501 56.0791H106.182V56.4349H106.501V56.0791Z" fill="black"/>
<path d="M105.863 56.0791H105.544V56.4349H105.863V56.0791Z" fill="black"/>
<path d="M106.501 55.7236H106.182V56.0794H106.501V55.7236Z" fill="white"/>
<path d="M106.182 55.7236H105.863V56.0794H106.182V55.7236Z" fill="black"/>
<path d="M105.863 55.7236H105.544V56.0794H105.863V55.7236Z" fill="white"/>
<path d="M105.544 55.7236H105.225V56.0794H105.544V55.7236Z" fill="black"/>
<path d="M104.906 55.7236H104.587V56.0794H104.906V55.7236Z" fill="black"/>
<path d="M104.268 55.7236H103.949V56.0794H104.268V55.7236Z" fill="black"/>
<path d="M106.82 55.3677H106.501V55.7235H106.82V55.3677Z" fill="white"/>
<path d="M106.501 55.3677H106.182V55.7235H106.501V55.3677Z" fill="black"/>
<path d="M106.182 55.3677H105.863V55.7235H106.182V55.3677Z" fill="white"/>
<path d="M105.863 55.3677H105.544V55.7235H105.863V55.3677Z" fill="black"/>
<path d="M105.544 55.3677H105.225V55.7235H105.544V55.3677Z" fill="white"/>
<path d="M105.225 55.3677H104.906V55.7235H105.225V55.3677Z" fill="black"/>
<path d="M104.906 55.3677H104.587V55.7235H104.906V55.3677Z" fill="white"/>
<path d="M104.587 55.3677H104.268V55.7235H104.587V55.3677Z" fill="black"/>
<path d="M104.268 55.3677H103.949V55.7235H104.268V55.3677Z" fill="white"/>
<path d="M103.949 55.3677H103.63V55.7235H103.949V55.3677Z" fill="black"/>
<path d="M106.501 55.0117H106.182V55.3675H106.501V55.0117Z" fill="white"/>
<path d="M106.182 55.0117H105.863V55.3675H106.182V55.0117Z" fill="black"/>
<path d="M105.863 55.0117H105.544V55.3675H105.863V55.0117Z" fill="white"/>
<path d="M105.544 55.0117H105.225V55.3675H105.544V55.0117Z" fill="black"/>
<path d="M105.225 55.0117H104.906V55.3675H105.225V55.0117Z" fill="white"/>
<path d="M104.906 55.0117H104.587V55.3675H104.906V55.0117Z" fill="black"/>
<path d="M104.587 55.0117H104.268V55.3675H104.587V55.0117Z" fill="white"/>
<path d="M104.268 55.0117H103.949V55.3675H104.268V55.0117Z" fill="black"/>
<path d="M103.949 55.0117H103.63V55.3675H103.949V55.0117Z" fill="white"/>
<path d="M103.63 55.0117H103.311V55.3675H103.63V55.0117Z" fill="black"/>
<path d="M106.182 54.6562H105.863V55.012H106.182V54.6562Z" fill="white"/>
<path d="M105.863 54.6562H105.544V55.012H105.863V54.6562Z" fill="black"/>
<path d="M105.544 54.6562H105.225V55.012H105.544V54.6562Z" fill="white"/>
<path d="M105.225 54.6562H104.906V55.012H105.225V54.6562Z" fill="black"/>
<path d="M104.906 54.6562H104.587V55.012H104.906V54.6562Z" fill="white"/>
<path d="M104.587 54.6562H104.268V55.012H104.587V54.6562Z" fill="black"/>
<path d="M104.268 54.6562H103.949V55.012H104.268V54.6562Z" fill="white"/>
<path d="M103.949 54.6562H103.63V55.012H103.949V54.6562Z" fill="black"/>
<path d="M103.63 54.6562H103.311V55.012H103.63V54.6562Z" fill="white"/>
<path d="M103.311 54.6562H102.992V55.012H103.311V54.6562Z" fill="black"/>
<path d="M102.673 54.6562H102.354V55.012H102.673V54.6562Z" fill="black"/>
<path d="M105.863 54.3003H105.544V54.6561H105.863V54.3003Z" fill="white"/>
<path d="M105.225 54.3003H104.906V54.6561H105.225V54.3003Z" fill="white"/>
<path d="M104.906 54.3003H104.587V54.6561H104.906V54.3003Z" fill="black"/>
<path d="M104.587 54.3003H104.268V54.6561H104.587V54.3003Z" fill="white"/>
<path d="M104.268 54.3003H103.949V54.6561H104.268V54.3003Z" fill="black"/>
<path d="M103.949 54.3003H103.63V54.6561H103.949V54.3003Z" fill="white"/>
<path d="M103.63 54.3003H103.311V54.6561H103.63V54.3003Z" fill="black"/>
<path d="M103.311 54.3003H102.992V54.6561H103.311V54.3003Z" fill="white"/>
<path d="M102.992 54.3003H102.673V54.6561H102.992V54.3003Z" fill="black"/>
<path d="M102.673 54.3003H102.354V54.6561H102.673V54.3003Z" fill="white"/>
<path d="M102.354 54.3003H102.035V54.6561H102.354V54.3003Z" fill="black"/>
<path d="M104.906 53.9448H104.587V54.3006H104.906V53.9448Z" fill="white"/>
<path d="M104.268 53.9448H103.949V54.3006H104.268V53.9448Z" fill="white"/>
<path d="M103.949 53.9448H103.63V54.3006H103.949V53.9448Z" fill="black"/>
<path d="M103.63 53.9448H103.311V54.3006H103.63V53.9448Z" fill="white"/>
<path d="M103.311 53.9448H102.992V54.3006H103.311V53.9448Z" fill="black"/>
<path d="M102.992 53.9448H102.673V54.3006H102.992V53.9448Z" fill="white"/>
<path d="M102.673 53.9448H102.354V54.3006H102.673V53.9448Z" fill="black"/>
<path d="M103.949 53.5889H103.63V53.9446H103.949V53.5889Z" fill="white"/>
<path d="M102.992 53.5889H102.673V53.9446H102.992V53.5889Z" fill="black"/>
<path d="M102.354 53.5889H102.035V53.9446H102.354V53.5889Z" fill="black"/>
<path d="M108.415 49.3196C108.699 49.3196 109.088 49.3196 109.372 49.3196V48.9639C108.862 48.9639 108.288 48.9639 107.777 48.9639V49.3196C107.937 49.3196 108.256 49.3196 108.415 49.3196Z" fill="black"/>
<path d="M99.1646 48.9639H98.8456V49.3196C99.0051 49.3196 99.3241 49.3196 99.4836 49.3196V48.9639H99.1646Z" fill="black"/>
<path d="M93.1038 48.9639H92.7848V49.3196H93.1038V48.9639Z" fill="black"/>
<path d="M92.4658 48.9639H92.1469V49.3196H92.4658V48.9639Z" fill="black"/>
<path d="M91.8278 48.9639H91.5089V49.3196H91.8278V48.9639Z" fill="black"/>
<path d="M110.01 48.6077H109.691V48.252C109.532 48.252 109.213 48.252 109.053 48.252V48.6077H109.372V48.9635C109.771 48.9635 110.249 48.9635 110.648 48.9635V48.6077C110.489 48.6077 110.17 48.6077 110.01 48.6077Z" fill="black"/>
<path d="M108.096 48.9636C108.495 48.9636 108.973 48.9636 109.372 48.9636V48.6079H109.053V48.2521C108.894 48.2521 108.575 48.2521 108.415 48.2521V47.8963C108.016 47.8963 107.538 47.8963 107.139 47.8963V47.5405C106.409 47.5405 105.637 47.5405 104.906 47.5405V47.8963H104.587V48.2521H104.268V48.6079H103.949C103.949 48.7858 103.949 49.1415 103.949 49.3194C105.216 49.3194 106.511 49.3194 107.777 49.3194V48.9636H108.096Z" fill="white"/>
<path d="M98.8455 48.6079H98.5266V48.9637H98.8455V48.6079Z" fill="black"/>
<path d="M93.4228 48.6079H93.1038V48.9637H93.4228V48.6079Z" fill="black"/>
<path d="M93.1038 48.6079H92.7848V48.9637H93.1038V48.6079Z" fill="white"/>
<path d="M92.7848 48.6079H92.4658V48.9637H92.7848V48.6079Z" fill="black"/>
<path d="M92.4658 48.6079H92.1469V48.9637H92.4658V48.6079Z" fill="white"/>
<path d="M92.1469 48.6079H91.8279V48.9637H92.1469V48.6079Z" fill="black"/>
<path d="M91.8278 48.6079H91.5089V48.9637H91.8278V48.6079Z" fill="white"/>
<path d="M91.5089 48.6079H91.1899V48.9637H91.5089V48.6079Z" fill="black"/>
<path d="M110.967 48.252H110.648V48.6077C110.932 48.6077 111.321 48.6077 111.605 48.6077V48.252C111.446 48.252 111.127 48.252 110.967 48.252Z" fill="black"/>
<path d="M93.7418 48.252H93.4228V48.6077H93.7418V48.252Z" fill="black"/>
<path d="M93.4228 48.252H93.1038V48.6077H93.4228V48.252Z" fill="white"/>
<path d="M93.1038 48.252H92.7848V48.6077H93.1038V48.252Z" fill="black"/>
<path d="M92.7848 48.252H92.4658V48.6077H92.7848V48.252Z" fill="white"/>
<path d="M92.4658 48.252H92.1469V48.6077H92.4658V48.252Z" fill="black"/>
<path d="M92.1469 48.252H91.8279V48.6077H92.1469V48.252Z" fill="white"/>
<path d="M91.8278 48.252H91.5089V48.6077H91.8278V48.252Z" fill="black"/>
<path d="M91.5089 48.252H91.1899V48.6077H91.5089V48.252Z" fill="white"/>
<path d="M91.1899 48.252H90.8709V48.6077H91.1899V48.252Z" fill="black"/>
<path d="M111.605 47.8965V48.2523C111.765 48.2523 112.084 48.2523 112.243 48.2523V47.8965C112.084 47.8965 111.765 47.8965 111.605 47.8965Z" fill="black"/>
<path d="M108.734 48.2523H109.053V47.8965C108.894 47.8965 108.575 47.8965 108.415 47.8965V48.2523H108.734Z" fill="black"/>
<path d="M93.7418 47.8965H93.4228V48.2523H93.7418V47.8965Z" fill="white"/>
<path d="M93.4228 47.8965H93.1038V48.2523H93.4228V47.8965Z" fill="black"/>
<path d="M93.1038 47.8965H92.7848V48.2523H93.1038V47.8965Z" fill="white"/>
<path d="M92.7848 47.8965H92.4658V48.2523H92.7848V47.8965Z" fill="black"/>
<path d="M92.4658 47.8965H92.1469V48.2523H92.4658V47.8965Z" fill="white"/>
<path d="M92.1469 47.8965H91.8279V48.2523H92.1469V47.8965Z" fill="black"/>
<path d="M91.8278 47.8965H91.5089V48.2523H91.8278V47.8965Z" fill="white"/>
<path d="M91.5089 47.8965H91.1899V48.2523H91.5089V47.8965Z" fill="black"/>
<path d="M91.1899 47.8965H90.8709V48.2523H91.1899V47.8965Z" fill="white"/>
<path d="M90.8709 47.8965H90.5519V48.2523H90.8709V47.8965Z" fill="black"/>
<path d="M109.053 47.8963V48.2521C109.213 48.2521 109.532 48.2521 109.691 48.2521V48.6079C109.975 48.6079 110.364 48.6079 110.648 48.6079V48.2521C110.932 48.2521 111.321 48.2521 111.605 48.2521V47.8963C111.765 47.8963 112.084 47.8963 112.243 47.8963V47.5405C110.977 47.5405 109.682 47.5405 108.415 47.5405V47.8963C108.575 47.8963 108.894 47.8963 109.053 47.8963Z" fill="white"/>
<path d="M93.4228 47.5405H93.1038V47.8963H93.4228V47.5405Z" fill="white"/>
<path d="M93.1038 47.5405H92.7848V47.8963H93.1038V47.5405Z" fill="black"/>
<path d="M92.7848 47.5405H92.4658V47.8963H92.7848V47.5405Z" fill="white"/>
<path d="M92.4658 47.5405H92.1469V47.8963H92.4658V47.5405Z" fill="black"/>
<path d="M92.1469 47.5405H91.8279V47.8963H92.1469V47.5405Z" fill="white"/>
<path d="M91.8278 47.5405H91.5089V47.8963H91.8278V47.5405Z" fill="black"/>
<path d="M91.5089 47.5405H91.1899V47.8963H91.5089V47.5405Z" fill="white"/>
<path d="M91.1899 47.5405H90.8709V47.8963H91.1899V47.5405Z" fill="black"/>
<path d="M93.1038 47.1846H92.7848V47.5404H93.1038V47.1846Z" fill="white"/>
<path d="M92.7848 47.1846H92.4658V47.5404H92.7848V47.1846Z" fill="black"/>
<path d="M92.4658 47.1846H92.1469V47.5404H92.4658V47.1846Z" fill="white"/>
<path d="M92.1469 47.1846H91.8279V47.5404H92.1469V47.1846Z" fill="black"/>
<path d="M91.8278 47.1846H91.5089V47.5404H91.8278V47.1846Z" fill="white"/>
<path d="M91.5089 47.1846H91.1899V47.5404H91.5089V47.1846Z" fill="black"/>
<path d="M91.1899 47.1846H90.8709V47.5404H91.1899V47.1846Z" fill="white"/>
<path d="M90.8709 47.1846H90.5519V47.5404H90.8709V47.1846Z" fill="black"/>
<path d="M92.7848 46.8291H92.4658V47.1849H92.7848V46.8291Z" fill="white"/>
<path d="M92.4658 46.8291H92.1469V47.1849H92.4658V46.8291Z" fill="black"/>
<path d="M92.1469 46.8291H91.8279V47.1849H92.1469V46.8291Z" fill="white"/>
<path d="M91.8278 46.8291H91.5089V47.1849H91.8278V46.8291Z" fill="black"/>
<path d="M91.5089 46.8291H91.1899V47.1849H91.5089V46.8291Z" fill="white"/>
<path d="M91.1899 46.8291H90.8709V47.1849H91.1899V46.8291Z" fill="black"/>
<path d="M94.6987 46.8289C94.6987 46.651 94.6987 46.2952 94.6987 46.1173H94.3798C94.3798 45.9394 94.3798 45.5837 94.3798 45.4058H94.0608C94.0608 44.8365 94.0608 44.1961 94.0608 43.6269H94.3798C94.3798 43.449 94.3798 43.0932 94.3798 42.9153H94.6987V42.5595C94.8582 42.5595 95.1772 42.5595 95.3367 42.5595V42.2037C95.8471 42.2037 96.4213 42.2037 96.9317 42.2037V42.5595C97.0911 42.5595 97.4101 42.5595 97.5696 42.5595V42.9153H97.8886C97.8886 43.0932 97.8886 43.449 97.8886 43.6269H98.2076C98.2076 44.1961 98.2076 44.8365 98.2076 45.4058H98.5266V45.7616H98.8456C98.8456 44.9468 98.8456 44.0858 98.8456 43.2711H98.5266C98.5266 43.0932 98.5266 42.7374 98.5266 42.5595H98.2076V42.2037H97.8886V41.848C97.7291 41.848 97.4101 41.848 97.2506 41.848V41.4922C96.5202 41.4922 95.7482 41.4922 95.0177 41.4922V41.848C94.8582 41.848 94.5392 41.848 94.3798 41.848V42.2037H94.0608V42.5595H93.7418C93.7418 42.7374 93.7418 43.0932 93.7418 43.2711H93.4228C93.4228 44.0858 93.4228 44.9468 93.4228 45.7616H93.7418C93.7418 45.9394 93.7418 46.2952 93.7418 46.4731H94.0608V46.8289C94.2203 46.8289 94.5392 46.8289 94.6987 46.8289Z" fill="white"/>
<path d="M94.0607 46.4731H93.7418V46.8289H94.0607V46.4731Z" fill="black"/>
<path d="M92.4658 46.4735V46.8292H92.7848V47.185H93.1038V47.5408H93.4228V47.8966H93.7418V48.2524H94.0608V48.6081H94.3797C94.3797 48.2915 94.3797 47.8574 94.3797 47.5408H94.6987C94.6987 47.3629 94.6987 47.0071 94.6987 46.8292C94.5392 46.8292 94.2203 46.8292 94.0608 46.8292C94.0608 47.0071 94.0608 47.3629 94.0608 47.5408H93.7418V47.185H93.4228V46.8292H93.1038C93.1038 46.6513 93.1038 46.2956 93.1038 46.1177H92.7848V46.4735H92.4658Z" fill="black"/>
<path d="M92.4658 46.4731H92.1469V46.8289H92.4658V46.4731Z" fill="white"/>
<path d="M92.1469 46.4731H91.8279V46.8289H92.1469V46.4731Z" fill="black"/>
<path d="M91.8278 46.4731H91.5089V46.8289H91.8278V46.4731Z" fill="white"/>
<path d="M91.5089 46.4731H91.1899V46.8289H91.5089V46.4731Z" fill="black"/>
<path d="M91.1899 46.4731H90.8709V46.8289H91.1899V46.4731Z" fill="white"/>
<path d="M90.8709 46.4731H90.5519V46.8289H90.8709V46.4731Z" fill="black"/>
<path d="M92.7848 46.1177H92.4658V46.4735H92.7848V46.1177Z" fill="white"/>
<path d="M92.4658 46.1177H92.1469V46.4735H92.4658V46.1177Z" fill="black"/>
<path d="M92.1469 46.1177H91.8279V46.4735H92.1469V46.1177Z" fill="white"/>
<path d="M91.8278 46.1177H91.5089V46.4735H91.8278V46.1177Z" fill="black"/>
<path d="M91.5089 46.1177H91.1899V46.4735H91.5089V46.1177Z" fill="white"/>
<path d="M91.1899 46.1177H90.8709V46.4735H91.1899V46.1177Z" fill="black"/>
<path d="M93.7418 45.7617H93.4228C93.4228 45.9396 93.4228 46.2954 93.4228 46.4733H93.7418C93.7418 46.2954 93.7418 45.9396 93.7418 45.7617Z" fill="black"/>
<path d="M92.4658 45.7617H92.1469V46.1175H92.4658V45.7617Z" fill="white"/>
<path d="M92.1469 45.7617H91.8279V46.1175H92.1469V45.7617Z" fill="black"/>
<path d="M91.8278 45.7617H91.5089V46.1175H91.8278V45.7617Z" fill="white"/>
<path d="M91.5089 45.7617H91.1899V46.1175H91.5089V45.7617Z" fill="black"/>
<path d="M98.2076 45.4056C98.2076 44.8364 98.2076 44.196 98.2076 43.6267H97.8886C97.8886 43.4488 97.8886 43.0931 97.8886 42.9152H97.5696V42.5594C97.4101 42.5594 97.0911 42.5594 96.9316 42.5594V42.2036C96.4212 42.2036 95.8471 42.2036 95.3367 42.2036V42.5594C95.1772 42.5594 94.8582 42.5594 94.6987 42.5594V42.9152H94.3797C94.3797 43.0931 94.3797 43.4488 94.3797 43.6267H94.0607C94.0607 44.196 94.0607 44.8364 94.0607 45.4056H94.3797C94.3797 45.5835 94.3797 45.9393 94.3797 46.1172H94.6987C94.6987 46.2951 94.6987 46.6509 94.6987 46.8288H95.0177V46.473C95.1772 46.473 95.4962 46.473 95.6557 46.473V46.1172C95.9396 46.1172 96.3287 46.1172 96.6126 46.1172V45.7614C97.2347 45.7614 97.9045 45.7614 98.5266 45.7614V45.4056H98.2076ZM95.3367 43.9825V43.6267C95.4962 43.6267 95.8152 43.6267 95.9747 43.6267C95.9747 43.8046 95.9747 44.1604 95.9747 44.3383C95.8152 44.3383 95.4962 44.3383 95.3367 44.3383V43.9825Z" fill="black"/>
<path d="M91.8278 45.4058H91.5089V45.7615H91.8278V45.4058Z" fill="black"/>
<path d="M99.8025 45.0502C99.8025 44.3564 99.8025 43.6093 99.8025 42.9155H99.4835C99.4835 43.7303 99.4835 44.5913 99.4835 45.406C99.7674 45.406 100.157 45.406 100.44 45.406V45.0502C100.281 45.0502 99.962 45.0502 99.8025 45.0502Z" fill="black"/>
<path d="M93.4228 45.0499C93.4228 44.4807 93.4228 43.8402 93.4228 43.271H93.1038C93.1038 44.0857 93.1038 44.9467 93.1038 45.7615H93.4228C93.4228 45.5836 93.4228 45.2278 93.4228 45.0499Z" fill="black"/>
<path d="M100.44 44.6943V45.0501C100.6 45.0501 100.919 45.0501 101.078 45.0501V44.6943C100.919 44.6943 100.6 44.6943 100.44 44.6943Z" fill="black"/>
<path d="M101.078 44.3384V44.6942C101.238 44.6942 101.557 44.6942 101.716 44.6942V44.3384C101.557 44.3384 101.238 44.3384 101.078 44.3384Z" fill="black"/>
<path d="M101.716 43.9829V44.3387C101.876 44.3387 102.195 44.3387 102.354 44.3387V43.9829C102.195 43.9829 101.876 43.9829 101.716 43.9829Z" fill="black"/>
<path d="M95.9747 44.3385C95.9747 44.1606 95.9747 43.8048 95.9747 43.627C95.8152 43.627 95.4962 43.627 95.3367 43.627C95.3367 43.8048 95.3367 44.1606 95.3367 44.3385C95.4962 44.3385 95.8152 44.3385 95.9747 44.3385Z" fill="white"/>
<path d="M102.354 43.627V43.9827C102.514 43.9827 102.833 43.9827 102.992 43.9827V43.627C102.833 43.627 102.514 43.627 102.354 43.627Z" fill="black"/>
<path d="M98.8455 43.9826C98.8455 44.5518 98.8455 45.1922 98.8455 45.7615H98.5266V46.1172C98.686 46.1172 99.005 46.1172 99.1645 46.1172C99.1645 45.1815 99.1645 44.2067 99.1645 43.271H98.8455C98.8455 43.4489 98.8455 43.8047 98.8455 43.9826Z" fill="black"/>
<path d="M103.311 43.271H102.992V43.6268H103.311V43.271Z" fill="black"/>
<path d="M103.311 42.9155V43.2713C103.471 43.2713 103.79 43.2713 103.949 43.2713V42.9155C103.79 42.9155 103.471 42.9155 103.311 42.9155Z" fill="black"/>
<path d="M98.5266 43.2711H98.8455C98.8455 43.0932 98.8455 42.7375 98.8455 42.5596H98.5266C98.5266 42.7375 98.5266 43.0932 98.5266 43.2711Z" fill="black"/>
<path d="M93.7418 42.9154V42.5596H93.4228C93.4228 42.7375 93.4228 43.0932 93.4228 43.2711H93.7418V42.9154Z" fill="black"/>
<path d="M92.4658 43.2713C92.4658 43.9651 92.4658 44.7122 92.4658 45.406H92.1469V45.7618H92.4658V46.1176H92.7848C92.7848 45.0609 92.7848 43.9722 92.7848 42.9155H92.4658V43.2713Z" fill="black"/>
<path d="M104.268 42.5596H103.949V42.9154H104.268V42.5596Z" fill="black"/>
<path d="M104.268 42.2036V42.5594C104.428 42.5594 104.747 42.5594 104.906 42.5594V42.2036C104.747 42.2036 104.428 42.2036 104.268 42.2036Z" fill="black"/>
<path d="M102.035 42.2036C101.876 42.2036 101.557 42.2036 101.397 42.2036V42.5594C101.796 42.5594 102.275 42.5594 102.673 42.5594V42.2036C102.514 42.2036 102.195 42.2036 102.035 42.2036Z" fill="black"/>
<path d="M99.4835 42.2036H99.1646C99.1646 42.3815 99.1646 42.7373 99.1646 42.9152H99.4835C99.4835 42.7373 99.4835 42.3815 99.4835 42.2036Z" fill="black"/>
<path d="M98.5266 42.2036H98.2076V42.5594H98.5266V42.2036Z" fill="black"/>
<path d="M94.0607 42.2036H93.7418V42.5594H94.0607V42.2036Z" fill="black"/>
<path d="M92.7848 42.5594V42.9152H93.1038C93.1038 42.7373 93.1038 42.3815 93.1038 42.2036H92.7848V42.5594Z" fill="black"/>
<path d="M105.225 41.8481H104.906V42.2039H105.225V41.8481Z" fill="black"/>
<path d="M102.673 41.8481V42.2039C102.833 42.2039 103.152 42.2039 103.311 42.2039V41.8481C103.152 41.8481 102.833 41.8481 102.673 41.8481Z" fill="black"/>
<path d="M101.397 41.8481H101.078V42.2039H101.397V41.8481Z" fill="black"/>
<path d="M99.1646 41.8481H98.8456V42.2039H99.1646V41.8481Z" fill="black"/>
<path d="M98.2076 41.8481H97.8886V42.2039H98.2076V41.8481Z" fill="black"/>
<path d="M94.3797 41.8481H94.0607V42.2039H94.3797V41.8481Z" fill="black"/>
<path d="M93.4228 41.8481H93.1038V42.2039H93.4228V41.8481Z" fill="black"/>
<path d="M105.225 41.4922V41.848C105.385 41.848 105.704 41.848 105.863 41.848V41.4922C105.704 41.4922 105.385 41.4922 105.225 41.4922Z" fill="black"/>
<path d="M103.311 41.4922V41.848C103.471 41.848 103.79 41.848 103.949 41.848V41.4922C103.79 41.4922 103.471 41.4922 103.311 41.4922Z" fill="black"/>
<path d="M101.079 41.4922H100.76V41.848H101.079V41.4922Z" fill="black"/>
<path d="M98.8455 41.4922H98.5266V41.848H98.8455V41.4922Z" fill="black"/>
<path d="M97.5696 41.848H97.8886V41.4922C97.7291 41.4922 97.4101 41.4922 97.2506 41.4922V41.848H97.5696Z" fill="black"/>
<path d="M95.0177 41.848V41.4922C94.8582 41.4922 94.5393 41.4922 94.3798 41.4922V41.848C94.5393 41.848 94.8582 41.848 95.0177 41.848Z" fill="black"/>
<path d="M93.7418 41.4922H93.4228V41.848H93.7418V41.4922Z" fill="black"/>
<path d="M106.182 41.1367H105.863V41.4925H106.182V41.1367Z" fill="black"/>
<path d="M104.268 41.1367H103.949V41.4925H104.268V41.1367Z" fill="black"/>
<path d="M95.6557 41.4925C96.1661 41.4925 96.7402 41.4925 97.2506 41.4925V41.1367C96.5201 41.1367 95.7482 41.1367 95.0177 41.1367V41.4925C95.1772 41.4925 95.4962 41.4925 95.6557 41.4925Z" fill="black"/>
<path d="M94.0607 41.1367H93.7418V41.4925H94.0607V41.1367Z" fill="black"/>
<path d="M104.268 40.7808V41.1365C104.428 41.1365 104.747 41.1365 104.906 41.1365V40.7808C104.747 40.7808 104.428 40.7808 104.268 40.7808Z" fill="black"/>
<path d="M102.992 40.7808H102.673V41.1365H102.992V40.7808Z" fill="black"/>
<path d="M100.759 40.7806V40.4248H100.44C100.44 40.7414 100.44 41.1755 100.44 41.4921H100.759C100.759 41.3143 100.759 40.9585 100.759 40.7806Z" fill="black"/>
<path d="M98.8456 41.1367C98.8456 40.9588 98.8456 40.603 98.8456 40.4251H98.5266V40.7809H98.2076V40.4251H97.8886V40.0693H97.5696V40.4251C96.6222 40.4251 95.6461 40.4251 94.6987 40.4251V40.7809C95.6461 40.7809 96.6222 40.7809 97.5696 40.7809V41.1367C97.7291 41.1367 98.0481 41.1367 98.2076 41.1367V41.4925H98.5266V41.1367H98.8456Z" fill="black"/>
<path d="M94.0607 40.7808V41.1365C94.2202 41.1365 94.5392 41.1365 94.6987 41.1365V40.7808C94.5392 40.7808 94.2202 40.7808 94.0607 40.7808Z" fill="black"/>
<path d="M105.225 40.4248H104.906V40.7806H105.225V40.4248Z" fill="black"/>
<path d="M102.673 40.4248H102.354V40.7806H102.673V40.4248Z" fill="black"/>
<path d="M98.5266 40.4248H98.2076V40.7806H98.5266V40.4248Z" fill="white"/>
<path d="M103.949 40.0693H103.63V40.4251H103.949V40.0693Z" fill="black"/>
<path d="M102.354 40.0693H102.035V40.4251H102.354V40.0693Z" fill="black"/>
<path d="M101.079 40.0692V39.7134H100.76C100.76 39.8913 100.76 40.247 100.76 40.4249H101.079V40.0692Z" fill="black"/>
<path d="M98.8455 40.0693H98.5266V40.4251H98.8455V40.0693Z" fill="white"/>
<path d="M98.5266 40.0693H98.2076V40.4251H98.5266V40.0693Z" fill="black"/>
<path d="M98.2076 40.0693H97.8886V40.4251H98.2076V40.0693Z" fill="white"/>
<path d="M103.63 39.7134H103.311V40.0692H103.63V39.7134Z" fill="black"/>
<path d="M98.5266 39.7134H98.2076V40.0692H98.5266V39.7134Z" fill="white"/>
<path d="M98.2076 39.7134H97.8886V40.0692H98.2076V39.7134Z" fill="black"/>
<path d="M104.906 39.3574H104.587V39.7132H104.906V39.3574Z" fill="black"/>
<path d="M103.311 39.3574H102.992V39.7132H103.311V39.3574Z" fill="black"/>
<path d="M101.397 39.3574H101.078V39.7132H101.397V39.3574Z" fill="black"/>
<path d="M98.8455 39.3574H98.5266V39.7132H98.8455V39.3574Z" fill="white"/>
<path d="M98.5266 39.3574H98.2076V39.7132H98.5266V39.3574Z" fill="black"/>
<path d="M104.587 39.002H104.268V39.3577H104.587V39.002Z" fill="black"/>
<path d="M102.992 39.002H102.673V39.3577H102.992V39.002Z" fill="black"/>
<path d="M101.716 39.002H101.397V39.3577H101.716V39.002Z" fill="black"/>
<path d="M99.1645 39.3577H98.8455V39.7135H98.5266V40.0693H98.8455V40.4251H99.1645C99.1645 40.2472 99.1645 39.8914 99.1645 39.7135H99.4835C99.4835 39.5356 99.4835 39.1798 99.4835 39.002H99.1645V39.3577Z" fill="black"/>
<path d="M99.1646 39.002H98.8456V39.3577H99.1646V39.002Z" fill="white"/>
<path d="M98.8455 39.002H98.5266V39.3577H98.8455V39.002Z" fill="black"/>
<path d="M98.5266 39.002H98.2076V39.3577H98.5266V39.002Z" fill="white"/>
<path d="M98.2076 39.002H97.8886V39.3577H98.2076V39.002Z" fill="black"/>
<path d="M104.268 38.646H103.949V39.0018H104.268V38.646Z" fill="black"/>
<path d="M102.035 38.646H101.716V39.0018H102.035V38.646Z" fill="black"/>
<path d="M99.8025 38.646H99.4835V39.0018H99.8025V38.646Z" fill="black"/>
<path d="M99.4835 38.646H99.1646V39.0018H99.4835V38.646Z" fill="white"/>
<path d="M99.1646 38.646H98.8456V39.0018H99.1646V38.646Z" fill="black"/>
<path d="M98.8455 38.646H98.5266V39.0018H98.8455V38.646Z" fill="white"/>
<path d="M98.5266 38.646H98.2076V39.0018H98.5266V38.646Z" fill="black"/>
<path d="M103.949 38.29H103.63V38.6458H103.949V38.29Z" fill="black"/>
<path d="M102.354 38.29H102.035V38.6458H102.354V38.29Z" fill="black"/>
<path d="M99.8025 38.29H99.4835V38.6458H99.8025V38.29Z" fill="white"/>
<path d="M99.4835 38.29H99.1646V38.6458H99.4835V38.29Z" fill="black"/>
<path d="M99.1646 38.29H98.8456V38.6458H99.1646V38.29Z" fill="white"/>
<path d="M98.8455 38.29H98.5266V38.6458H98.8455V38.29Z" fill="black"/>
<path d="M102.673 37.9344V38.2902H102.354V38.646H102.035V39.0017H101.716V39.3575H101.397V39.7133H101.079C101.079 39.8912 101.079 40.247 101.079 40.4249H100.76C100.76 40.7415 100.76 41.1756 100.76 41.4922H101.079V41.848H101.397V42.2038C101.796 42.2038 102.275 42.2038 102.673 42.2038V41.848C102.833 41.848 103.152 41.848 103.311 41.848V41.4922C103.471 41.4922 103.79 41.4922 103.949 41.4922V41.1364H104.268V40.7806C104.428 40.7806 104.747 40.7806 104.906 40.7806V40.4249H105.225V40.0691H105.544C105.544 39.7524 105.544 39.3184 105.544 39.0017H105.225V38.646H104.906V38.2902H104.587V37.9344H104.268V37.5786C103.87 37.5786 103.391 37.5786 102.992 37.5786V37.9344H102.673ZM104.268 38.646V39.0017H104.587V39.3575H104.906V39.7133H104.587V39.3575H104.268V39.0017H103.949V38.646H103.63V38.2902H103.949V38.646H104.268ZM103.949 40.4249H103.63V40.0691H103.311V39.7133H102.992V39.3575H102.673V39.0017H102.992V39.3575H103.311V39.7133H103.63V40.0691H103.949V40.4249ZM102.992 41.1364H102.673V40.7806H102.354V40.4249H102.035V40.0691H102.354V40.4249H102.673V40.7806H102.992V41.1364Z" fill="white"/>
<path d="M102.673 37.9346H102.354V38.2904H102.673V37.9346Z" fill="black"/>
<path d="M99.8025 38.2902V38.646H100.121V38.2902H100.44V37.9344H100.121V37.5786H99.8025V37.9344H99.4835V38.2902H99.8025Z" fill="black"/>
<path d="M99.4835 37.9346H99.1646V38.2904H99.4835V37.9346Z" fill="white"/>
<path d="M99.1645 37.9344H99.4835V37.5786C99.1996 37.5786 98.8104 37.5786 98.5266 37.5786V37.9344H98.8455V38.2902H99.1645V37.9344Z" fill="black"/>
<path d="M102.992 37.5786H102.673V37.9344H102.992V37.5786Z" fill="black"/>
<path d="M100.759 37.5786H100.44V37.9344H100.759V37.5786Z" fill="black"/>
<path d="M100.441 37.5786H100.122V37.9344H100.441V37.5786Z" fill="white"/>
<path d="M101.078 37.223V37.5787H100.759V37.9345H100.44V38.2903H100.121V38.6461H99.8025V39.0019H99.4835C99.4835 39.1798 99.4835 39.5355 99.4835 39.7134H99.1645C99.1645 39.8913 99.1645 40.2471 99.1645 40.425H98.8455C98.8455 40.6029 98.8455 40.9587 98.8455 41.1366H98.5266V41.4923H98.8455V41.8481H99.1645V42.2039H99.4835C99.4835 42.3818 99.4835 42.7376 99.4835 42.9155H99.8025C99.8025 43.6092 99.8025 44.3564 99.8025 45.0501C99.962 45.0501 100.281 45.0501 100.44 45.0501V44.6944C100.6 44.6944 100.919 44.6944 101.078 44.6944V44.3386C101.238 44.3386 101.557 44.3386 101.716 44.3386V43.9828C101.876 43.9828 102.195 43.9828 102.354 43.9828V43.627C102.514 43.627 102.833 43.627 102.992 43.627V43.2712H103.311V42.9155C103.471 42.9155 103.79 42.9155 103.949 42.9155V42.5597H104.268V42.2039C104.428 42.2039 104.747 42.2039 104.906 42.2039V41.8481H105.225V41.4923C105.385 41.4923 105.704 41.4923 105.863 41.4923V41.1366H106.182C106.182 40.9587 106.182 40.6029 106.182 40.425C105.898 40.425 105.509 40.425 105.225 40.425V40.7808H104.906V41.1366C104.747 41.1366 104.428 41.1366 104.268 41.1366V41.4923H103.949V41.8481C103.79 41.8481 103.471 41.8481 103.311 41.8481V42.2039C103.152 42.2039 102.833 42.2039 102.673 42.2039V42.5597C102.275 42.5597 101.796 42.5597 101.397 42.5597V42.2039H101.078V41.8481H100.759V41.4923H100.44C100.44 41.1757 100.44 40.7416 100.44 40.425H100.759C100.759 40.2471 100.759 39.8913 100.759 39.7134H101.078V39.3577H101.397V39.0019H101.716V38.6461H102.035V38.2903H102.354V37.9345H102.673V37.5787H102.992C102.992 37.4009 102.992 37.0451 102.992 36.8672C102.482 36.8672 101.908 36.8672 101.397 36.8672V37.223H101.078Z" fill="white"/>
<path d="M101.079 37.2231H100.76V37.5789H101.079V37.2231Z" fill="black"/>
<path d="M100.759 37.2231H100.44V37.5789H100.759V37.2231Z" fill="white"/>
<path d="M100.441 37.2231H100.122V37.5789H100.441V37.2231Z" fill="black"/>
<path d="M97.8886 37.5789C98.0481 37.5789 98.367 37.5789 98.5265 37.5789V37.2231C98.2426 37.2231 97.8535 37.2231 97.5696 37.2231V37.5789H97.8886Z" fill="black"/>
<path d="M101.397 36.8672H101.078V37.223H101.397V36.8672Z" fill="black"/>
<path d="M101.079 36.8672H100.76V37.223H101.079V36.8672Z" fill="white"/>
<path d="M100.759 36.8672H100.44V37.223H100.759V36.8672Z" fill="black"/>
<path d="M98.2076 37.2231H98.5266V37.5789C98.8105 37.5789 99.1996 37.5789 99.4835 37.5789V37.9347H99.8025V37.5789H100.121V37.2231H100.44V36.8673H100.759V36.5115H100.44V36.1558C99.0656 36.1558 97.6685 36.1558 96.2936 36.1558V36.5115C95.8949 36.5115 95.4164 36.5115 95.0177 36.5115V36.8673C95.8566 36.8673 96.7307 36.8673 97.5696 36.8673V37.2231C97.7291 37.2231 98.0481 37.2231 98.2076 37.2231Z" fill="white"/>
<path d="M101.397 36.5112H101.078V36.867H101.397V36.5112Z" fill="white"/>
</g>
<rect x="90.25" y="33.25" width="23.5" height="23.5" rx="3.75" stroke="#DFDFDF" stroke-width="0.5"/>
<path d="M118.769 42V35.6587H122.922V36.7529H120.096V38.4536H122.676V39.5039H120.096V42H118.769ZM123.824 42V35.3115H125.108V42H123.824ZM126.85 36.4189C126.454 36.4189 126.124 36.1025 126.124 35.707C126.124 35.3071 126.454 34.9907 126.85 34.9907C127.245 34.9907 127.57 35.3071 127.57 35.707C127.57 36.1025 127.245 36.4189 126.85 36.4189ZM126.204 42V37.1616H127.487V42H126.204ZM128.539 43.604V37.1616H129.822V37.9087H129.901C130.152 37.3901 130.666 37.0825 131.351 37.0825C132.56 37.0825 133.316 38.0317 133.316 39.5742V39.583C133.316 41.1387 132.577 42.0747 131.351 42.0747C130.688 42.0747 130.147 41.7539 129.901 41.2266H129.822V43.604H128.539ZM130.912 41.0112C131.589 41.0112 132.01 40.4707 132.01 39.583V39.5742C132.01 38.6865 131.593 38.146 130.912 38.146C130.235 38.146 129.809 38.6865 129.809 39.5742V39.583C129.809 40.4707 130.239 41.0112 130.912 41.0112ZM134.126 43.604V37.1616H135.409V37.9087H135.488C135.739 37.3901 136.253 37.0825 136.938 37.0825C138.147 37.0825 138.903 38.0317 138.903 39.5742V39.583C138.903 41.1387 138.165 42.0747 136.938 42.0747C136.275 42.0747 135.734 41.7539 135.488 41.2266H135.409V43.604H134.126ZM136.499 41.0112C137.176 41.0112 137.598 40.4707 137.598 39.583V39.5742C137.598 38.6865 137.18 38.146 136.499 38.146C135.822 38.146 135.396 38.6865 135.396 39.5742V39.583C135.396 40.4707 135.827 41.0112 136.499 41.0112ZM141.84 42.1011C140.368 42.1011 139.476 41.1387 139.476 39.5874V39.583C139.476 38.0449 140.377 37.0562 141.787 37.0562C143.198 37.0562 144.077 38.0229 144.077 39.4863V39.8862H140.746C140.759 40.6816 141.185 41.1431 141.866 41.1431C142.429 41.1431 142.741 40.8442 142.829 40.6597L142.842 40.6333H144.037L144.029 40.6772C143.879 41.2837 143.255 42.1011 141.84 42.1011ZM141.809 38.0186C141.251 38.0186 140.838 38.3965 140.759 39.082H142.846C142.767 38.3789 142.367 38.0186 141.809 38.0186ZM144.887 42V37.1616H146.17V37.9131H146.249C146.403 37.3901 146.843 37.0825 147.471 37.0825C147.643 37.0825 147.823 37.1089 147.95 37.144V38.2646C147.757 38.2207 147.559 38.1899 147.361 38.1899C146.632 38.1899 146.17 38.6074 146.17 39.293V42H144.887ZM150.322 42L152.524 35.6587H154.084L156.29 42H154.893L154.422 40.4619H152.185L151.715 42H150.322ZM153.267 36.9243L152.489 39.4688H154.119L153.346 36.9243H153.267ZM156.999 43.604V37.1616H158.282V37.9087H158.361C158.612 37.3901 159.126 37.0825 159.812 37.0825C161.02 37.0825 161.776 38.0317 161.776 39.5742V39.583C161.776 41.1387 161.038 42.0747 159.812 42.0747C159.148 42.0747 158.608 41.7539 158.361 41.2266H158.282V43.604H156.999ZM159.372 41.0112C160.049 41.0112 160.471 40.4707 160.471 39.583V39.5742C160.471 38.6865 160.053 38.146 159.372 38.146C158.695 38.146 158.269 38.6865 158.269 39.5742V39.583C158.269 40.4707 158.7 41.0112 159.372 41.0112ZM162.586 43.604V37.1616H163.87V37.9087H163.949C164.199 37.3901 164.713 37.0825 165.399 37.0825C166.607 37.0825 167.363 38.0317 167.363 39.5742V39.583C167.363 41.1387 166.625 42.0747 165.399 42.0747C164.735 42.0747 164.195 41.7539 163.949 41.2266H163.87V43.604H162.586ZM164.959 41.0112C165.636 41.0112 166.058 40.4707 166.058 39.583V39.5742C166.058 38.6865 165.641 38.146 164.959 38.146C164.283 38.146 163.856 38.6865 163.856 39.5742V39.583C163.856 40.4707 164.287 41.0112 164.959 41.0112Z" fill="#1C1C1C"/>
<path d="M118.795 54V47.6587H122.755V48.5068H119.78V50.5151H122.504V51.3457H119.78V54H118.795ZM124.18 48.375C123.851 48.375 123.583 48.1069 123.583 47.7817C123.583 47.4521 123.851 47.1841 124.18 47.1841C124.506 47.1841 124.778 47.4521 124.778 47.7817C124.778 48.1069 124.506 48.375 124.18 48.375ZM123.701 54V49.2275H124.651V54H123.701ZM125.799 54V49.2275H126.753V49.9482H126.823C126.995 49.4429 127.438 49.144 128.076 49.144C128.229 49.144 128.396 49.166 128.493 49.188V50.0669C128.322 50.0317 128.159 50.0098 127.979 50.0098C127.249 50.0098 126.753 50.458 126.753 51.1479V54H125.799ZM129.233 54V49.2275H130.187V49.9614H130.257C130.468 49.4385 130.934 49.1353 131.558 49.1353C132.208 49.1353 132.67 49.4736 132.881 49.9878H132.955C133.197 49.4736 133.746 49.1353 134.41 49.1353C135.372 49.1353 135.935 49.7153 135.935 50.7085V54H134.986V50.937C134.986 50.2778 134.687 49.9526 134.063 49.9526C133.456 49.9526 133.056 50.4053 133.056 50.981V54H132.107V50.8403C132.107 50.2954 131.751 49.9526 131.189 49.9526C130.613 49.9526 130.187 50.4448 130.187 51.0688V54H129.233ZM137.743 54L136.424 49.2275H137.382L138.239 52.9102H138.31L139.294 49.2275H140.199L141.184 52.9102H141.258L142.111 49.2275H143.056L141.742 54H140.762L139.773 50.4404H139.698L138.714 54H137.743ZM144.969 54.0791C144.059 54.0791 143.387 53.5254 143.387 52.6597V52.6509C143.387 51.7983 144.029 51.3018 145.167 51.2314L146.459 51.1567V50.7349C146.459 50.2119 146.129 49.9219 145.483 49.9219C144.956 49.9219 144.609 50.1152 144.494 50.4536L144.49 50.4712H143.571L143.576 50.4404C143.69 49.6582 144.442 49.1353 145.527 49.1353C146.727 49.1353 147.404 49.7329 147.404 50.7349V54H146.459V53.3232H146.384C146.103 53.8066 145.602 54.0791 144.969 54.0791ZM144.336 52.6201C144.336 53.0596 144.71 53.3188 145.224 53.3188C145.936 53.3188 146.459 52.853 146.459 52.2378V51.8291L145.294 51.9038C144.635 51.9434 144.336 52.1807 144.336 52.6113V52.6201ZM148.508 54V49.2275H149.462V49.9482H149.532C149.704 49.4429 150.147 49.144 150.785 49.144C150.938 49.144 151.105 49.166 151.202 49.188V50.0669C151.031 50.0317 150.868 50.0098 150.688 50.0098C149.958 50.0098 149.462 50.458 149.462 51.1479V54H148.508ZM153.753 54.0923C152.355 54.0923 151.511 53.1387 151.511 51.627V51.6226C151.511 50.1328 152.373 49.1353 153.704 49.1353C155.036 49.1353 155.853 50.0977 155.853 51.5303V51.8643H152.469C152.487 52.7783 152.988 53.3101 153.775 53.3101C154.385 53.3101 154.75 53.0068 154.864 52.7607L154.882 52.7256L155.8 52.7212L155.792 52.7607C155.633 53.3892 154.974 54.0923 153.753 54.0923ZM153.709 49.9175C153.058 49.9175 152.566 50.3613 152.483 51.1831H154.908C154.834 50.3306 154.355 49.9175 153.709 49.9175ZM160.559 54.0923C159.482 54.0923 158.924 53.4463 158.924 52.3169V49.2275H159.878V52.0928C159.878 52.8838 160.168 53.2749 160.866 53.2749C161.631 53.2749 162.04 52.7959 162.04 52.0269V49.2275H162.989V54H162.04V53.2793H161.965C161.736 53.7935 161.253 54.0923 160.559 54.0923ZM164.124 55.5908V49.2275H165.078V49.979H165.148C165.425 49.4561 165.948 49.144 166.616 49.144C167.82 49.144 168.594 50.1064 168.594 51.6094V51.6182C168.594 53.1299 167.829 54.0791 166.616 54.0791C165.961 54.0791 165.403 53.7583 165.148 53.2441H165.078V55.5908H164.124ZM166.348 53.2661C167.143 53.2661 167.622 52.6421 167.622 51.6182V51.6094C167.622 50.5811 167.143 49.9614 166.348 49.9614C165.553 49.9614 165.06 50.5898 165.06 51.6094V51.6182C165.06 52.6377 165.553 53.2661 166.348 53.2661ZM171.241 54.0791C170.041 54.0791 169.263 53.1167 169.263 51.6182V51.6094C169.263 50.0977 170.028 49.144 171.241 49.144C171.896 49.144 172.454 49.4692 172.709 49.9834H172.783V47.3555H173.733V54H172.783V53.2485H172.709C172.432 53.7715 171.909 54.0791 171.241 54.0791ZM171.513 53.2661C172.309 53.2661 172.797 52.6377 172.797 51.6182V51.6094C172.797 50.5898 172.304 49.9614 171.513 49.9614C170.714 49.9614 170.235 50.5854 170.235 51.6094V51.6182C170.235 52.6421 170.714 53.2661 171.513 53.2661ZM176.222 54.0791C175.312 54.0791 174.64 53.5254 174.64 52.6597V52.6509C174.64 51.7983 175.281 51.3018 176.419 51.2314L177.711 51.1567V50.7349C177.711 50.2119 177.382 49.9219 176.736 49.9219C176.208 49.9219 175.861 50.1152 175.747 50.4536L175.743 50.4712H174.824L174.828 50.4404C174.943 49.6582 175.694 49.1353 176.78 49.1353C177.979 49.1353 178.656 49.7329 178.656 50.7349V54H177.711V53.3232H177.637C177.355 53.8066 176.854 54.0791 176.222 54.0791ZM175.589 52.6201C175.589 53.0596 175.962 53.3188 176.476 53.3188C177.188 53.3188 177.711 52.853 177.711 52.2378V51.8291L176.547 51.9038C175.888 51.9434 175.589 52.1807 175.589 52.6113V52.6201ZM181.563 54.0308C180.512 54.0308 180.082 53.6616 180.082 52.7432V49.979H179.335V49.2275H180.082V48.0234H181.053V49.2275H182.077V49.979H181.053V52.5146C181.053 53.0288 181.246 53.2397 181.716 53.2397C181.861 53.2397 181.945 53.2354 182.077 53.2222V53.9824C181.923 54.0088 181.747 54.0308 181.563 54.0308ZM184.9 54.0923C183.502 54.0923 182.659 53.1387 182.659 51.627V51.6226C182.659 50.1328 183.52 49.1353 184.851 49.1353C186.183 49.1353 187 50.0977 187 51.5303V51.8643H183.617C183.634 52.7783 184.135 53.3101 184.922 53.3101C185.533 53.3101 185.897 53.0068 186.012 52.7607L186.029 52.7256L186.948 52.7212L186.939 52.7607C186.781 53.3892 186.121 54.0923 184.9 54.0923ZM184.856 49.9175C184.205 49.9175 183.713 50.3613 183.63 51.1831H186.056C185.981 50.3306 185.502 49.9175 184.856 49.9175ZM189.63 54.0923C188.479 54.0923 187.749 53.5518 187.657 52.752V52.7476H188.61L188.615 52.752C188.733 53.1123 189.081 53.354 189.648 53.354C190.236 53.354 190.645 53.0859 190.645 52.6948V52.686C190.645 52.3872 190.421 52.1851 189.867 52.0576L189.107 51.8818C188.206 51.6753 187.789 51.2666 187.789 50.5679V50.5635C187.789 49.7329 188.562 49.1353 189.643 49.1353C190.733 49.1353 191.432 49.6802 191.515 50.458V50.4624H190.606V50.4536C190.513 50.1196 190.175 49.8691 189.639 49.8691C189.116 49.8691 188.738 50.1284 188.738 50.5107V50.5195C188.738 50.8184 188.958 51.0029 189.494 51.1304L190.25 51.3018C191.168 51.5171 191.608 51.9082 191.608 52.5981V52.6069C191.608 53.4902 190.764 54.0923 189.63 54.0923ZM196.036 54.0791C195.127 54.0791 194.454 53.5254 194.454 52.6597V52.6509C194.454 51.7983 195.096 51.3018 196.234 51.2314L197.526 51.1567V50.7349C197.526 50.2119 197.196 49.9219 196.55 49.9219C196.023 49.9219 195.676 50.1152 195.562 50.4536L195.557 50.4712H194.639L194.643 50.4404C194.757 49.6582 195.509 49.1353 196.594 49.1353C197.794 49.1353 198.471 49.7329 198.471 50.7349V54H197.526V53.3232H197.451C197.17 53.8066 196.669 54.0791 196.036 54.0791ZM195.403 52.6201C195.403 53.0596 195.777 53.3188 196.291 53.3188C197.003 53.3188 197.526 52.853 197.526 52.2378V51.8291L196.361 51.9038C195.702 51.9434 195.403 52.1807 195.403 52.6113V52.6201ZM200.731 54L199.004 49.2275H200.015L201.206 53.0332H201.281L202.467 49.2275H203.469L201.746 54H200.731ZM205.33 54.0791C204.42 54.0791 203.748 53.5254 203.748 52.6597V52.6509C203.748 51.7983 204.389 51.3018 205.527 51.2314L206.819 51.1567V50.7349C206.819 50.2119 206.49 49.9219 205.844 49.9219C205.316 49.9219 204.969 50.1152 204.855 50.4536L204.851 50.4712H203.932L203.937 50.4404C204.051 49.6582 204.802 49.1353 205.888 49.1353C207.087 49.1353 207.764 49.7329 207.764 50.7349V54H206.819V53.3232H206.745C206.463 53.8066 205.962 54.0791 205.33 54.0791ZM204.697 52.6201C204.697 53.0596 205.07 53.3188 205.585 53.3188C206.296 53.3188 206.819 52.853 206.819 52.2378V51.8291L205.655 51.9038C204.996 51.9434 204.697 52.1807 204.697 52.6113V52.6201ZM209.366 48.375C209.036 48.375 208.768 48.1069 208.768 47.7817C208.768 47.4521 209.036 47.1841 209.366 47.1841C209.691 47.1841 209.963 47.4521 209.963 47.7817C209.963 48.1069 209.691 48.375 209.366 48.375ZM208.887 54V49.2275H209.836V54H208.887ZM211.028 54V47.3555H211.982V54H211.028ZM214.471 54.0791C213.561 54.0791 212.889 53.5254 212.889 52.6597V52.6509C212.889 51.7983 213.531 51.3018 214.669 51.2314L215.961 51.1567V50.7349C215.961 50.2119 215.631 49.9219 214.985 49.9219C214.458 49.9219 214.111 50.1152 213.996 50.4536L213.992 50.4712H213.074L213.078 50.4404C213.192 49.6582 213.944 49.1353 215.029 49.1353C216.229 49.1353 216.906 49.7329 216.906 50.7349V54H215.961V53.3232H215.886C215.605 53.8066 215.104 54.0791 214.471 54.0791ZM213.838 52.6201C213.838 53.0596 214.212 53.3188 214.726 53.3188C215.438 53.3188 215.961 52.853 215.961 52.2378V51.8291L214.796 51.9038C214.137 51.9434 213.838 52.1807 213.838 52.6113V52.6201ZM220.546 54.0791C219.878 54.0791 219.355 53.7715 219.078 53.2485H219.008V54H218.054V47.3555H219.008V49.9834H219.078C219.333 49.4692 219.891 49.144 220.546 49.144C221.759 49.144 222.523 50.0977 222.523 51.6094V51.6182C222.523 53.1167 221.75 54.0791 220.546 54.0791ZM220.278 53.2661C221.073 53.2661 221.552 52.6421 221.552 51.6182V51.6094C221.552 50.5854 221.073 49.9614 220.278 49.9614C219.482 49.9614 218.99 50.5898 218.99 51.6094V51.6182C218.99 52.6377 219.482 53.2661 220.278 53.2661ZM223.466 54V47.3555H224.419V54H223.466ZM227.603 54.0923C226.205 54.0923 225.361 53.1387 225.361 51.627V51.6226C225.361 50.1328 226.223 49.1353 227.554 49.1353C228.886 49.1353 229.703 50.0977 229.703 51.5303V51.8643H226.319C226.337 52.7783 226.838 53.3101 227.625 53.3101C228.235 53.3101 228.6 53.0068 228.714 52.7607L228.732 52.7256L229.65 52.7212L229.642 52.7607C229.483 53.3892 228.824 54.0923 227.603 54.0923ZM227.559 49.9175C226.908 49.9175 226.416 50.3613 226.333 51.1831H228.758C228.684 50.3306 228.205 49.9175 227.559 49.9175Z" fill="#1C1C1C"/>
<path d="M229.75 32.5835H224.25V33.5002C224.25 35.0189 225.481 36.2502 227 36.2502C228.519 36.2502 229.75 35.0189 229.75 33.5002V32.5835Z" fill="#FECF5D" stroke="#E6B541" stroke-width="1.5" stroke-linecap="round" stroke-linejoin="round"/>
<path d="M220.583 32.5834H233.417C233.923 32.5834 234.333 32.1729 234.333 31.6667V31.1297C234.333 30.8866 234.237 30.6534 234.065 30.4815L233.597 30.0132C233.481 29.898 233.417 29.7418 233.417 29.5789V26.1667C233.417 22.6228 230.544 19.75 227 19.75C223.456 19.75 220.583 22.6228 220.583 26.1667V29.5789C220.583 29.7418 220.519 29.8981 220.403 30.0133L219.935 30.4815C219.763 30.6534 219.667 30.8866 219.667 31.1297V31.6667C219.667 32.1729 220.077 32.5834 220.583 32.5834Z" fill="#FECF5D" stroke="#E6B541" stroke-width="1.5" stroke-linecap="round" stroke-linejoin="round"/>
<path d="M232.517 18.8457C233.781 19.7984 234.777 21.0623 235.408 22.5143" stroke="#E6B541" stroke-width="1.5" stroke-linecap="round" stroke-linejoin="round"/>
<path d="M221.483 18.8457C220.219 19.7984 219.223 21.0623 218.592 22.5143" stroke="#E6B541" stroke-width="1.5" stroke-linecap="round" stroke-linejoin="round"/>
<defs>
<filter id="filter0_d_4788_102137" x="65" y="12" width="190" height="82.1045" filterUnits="userSpaceOnUse" color-interpolation-filters="sRGB">
<feFlood flood-opacity="0" result="BackgroundImageFix"/>
<feColorMatrix in="SourceAlpha" type="matrix" values="0 0 0 0 0 0 0 0 0 0 0 0 0 0 0 0 0 0 127 0" result="hardAlpha"/>
<feMorphology radius="1" operator="dilate" in="SourceAlpha" result="effect1_dropShadow_4788_102137"/>
<feOffset dy="4"/>
<feGaussianBlur stdDeviation="8"/>
<feComposite in2="hardAlpha" operator="out"/>
<feColorMatrix type="matrix" values="0 0 0 0 0.796078 0 0 0 0 0.796078 0 0 0 0 0.796078 0 0 0 0.25 0"/>
<feBlend mode="normal" in2="BackgroundImageFix" result="effect1_dropShadow_4788_102137"/>
<feBlend mode="normal" in="SourceGraphic" in2="effect1_dropShadow_4788_102137" result="shape"/>
</filter>
<linearGradient id="paint0_linear_4788_102137" x1="115" y1="50.5468" x2="57.5" y2="51.5" gradientUnits="userSpaceOnUse">
<stop stop-color="#EEEEEE"/>
<stop offset="1" stop-color="white" stop-opacity="0.2"/>
</linearGradient>
<clipPath id="clip0_4788_102137">
<rect x="90" y="33" width="24" height="24" rx="4" fill="white"/>
</clipPath>
</defs>
</svg>
