<svg width="32" height="32" viewBox="0 0 32 32" fill="none" xmlns="http://www.w3.org/2000/svg">
<g clip-path="url(#clip0_2001_25162)">
<path d="M5.31641 18.1445C5.31641 18.0176 5.29362 17.8988 5.24805 17.7881C5.20573 17.6774 5.13249 17.5732 5.02832 17.4756C4.9209 17.3812 4.78092 17.2949 4.6084 17.2168C4.43913 17.1354 4.22754 17.0605 3.97363 16.9922C3.57975 16.8848 3.23307 16.7546 2.93359 16.6016C2.63737 16.4486 2.39486 16.2809 2.20605 16.0986C2.01725 15.9163 1.87402 15.7145 1.77637 15.4932C1.68197 15.2718 1.63477 15.0309 1.63477 14.7705C1.63477 14.471 1.69824 14.1992 1.8252 13.9551C1.95215 13.7109 2.12793 13.5026 2.35254 13.3301C2.57715 13.1576 2.84245 13.0257 3.14844 12.9346C3.45443 12.8402 3.78646 12.793 4.14453 12.793C4.51562 12.793 4.85417 12.8467 5.16016 12.9541C5.4694 13.0615 5.7347 13.2113 5.95605 13.4033C6.17741 13.5986 6.34993 13.8298 6.47363 14.0967C6.59733 14.3636 6.65918 14.6566 6.65918 14.9756H5.32129C5.31478 14.8161 5.28548 14.6696 5.2334 14.5361C5.18457 14.4027 5.11133 14.2871 5.01367 14.1895C4.91276 14.0951 4.78743 14.0218 4.6377 13.9697C4.49121 13.9144 4.31868 13.8867 4.12012 13.8867C3.93783 13.8867 3.77507 13.9095 3.63184 13.9551C3.49186 13.9974 3.37305 14.0576 3.27539 14.1357C3.17773 14.2171 3.10286 14.3132 3.05078 14.4238C3.00195 14.5312 2.97754 14.6484 2.97754 14.7754C2.97754 14.9089 3.01009 15.0293 3.0752 15.1367C3.14355 15.2441 3.24121 15.3402 3.36816 15.4248C3.49512 15.5127 3.64811 15.5924 3.82715 15.6641C4.00944 15.7357 4.21452 15.8024 4.44238 15.8643C4.68652 15.9326 4.91927 16.0156 5.14062 16.1133C5.36198 16.2109 5.56543 16.3232 5.75098 16.4502C6.03092 16.6585 6.25391 16.901 6.41992 17.1777C6.58594 17.4544 6.66895 17.7734 6.66895 18.1348C6.66895 18.4473 6.60547 18.7256 6.47852 18.9697C6.35482 19.2106 6.18229 19.4141 5.96094 19.5801C5.73958 19.7493 5.47591 19.8779 5.16992 19.9658C4.86393 20.0505 4.53027 20.0928 4.16895 20.0928C3.81413 20.0928 3.46257 20.0407 3.11426 19.9365C2.76921 19.8291 2.4681 19.6729 2.21094 19.4678C1.9668 19.266 1.77311 19.0283 1.62988 18.7549C1.48991 18.4814 1.41992 18.1608 1.41992 17.793H2.76758C2.77409 18.0078 2.81152 18.1917 2.87988 18.3447C2.94824 18.4977 3.04427 18.623 3.16797 18.7207C3.28841 18.8184 3.43327 18.89 3.60254 18.9355C3.77507 18.9811 3.96387 19.0039 4.16895 19.0039C4.35124 19.0039 4.51237 18.9827 4.65234 18.9404C4.79557 18.8981 4.91602 18.8395 5.01367 18.7646C5.11133 18.6898 5.1862 18.6003 5.23828 18.4961C5.29036 18.3887 5.31641 18.2715 5.31641 18.1445ZM9.09082 17.3926V20H7.71875V12.8906H10.1504C10.5378 12.8906 10.8877 12.9476 11.2002 13.0615C11.5127 13.1722 11.7796 13.3268 12.001 13.5254C12.2191 13.7272 12.3867 13.9681 12.5039 14.248C12.6243 14.528 12.6846 14.8389 12.6846 15.1807C12.6846 15.4997 12.6243 15.7943 12.5039 16.0645C12.3867 16.3346 12.2191 16.5674 12.001 16.7627C11.7796 16.9613 11.5127 17.1159 11.2002 17.2266C10.8877 17.3372 10.5378 17.3926 10.1504 17.3926H9.09082ZM9.09082 16.2793H10.1504C10.3457 16.2793 10.515 16.25 10.6582 16.1914C10.8014 16.1328 10.9219 16.0531 11.0195 15.9521C11.1139 15.8512 11.1839 15.7357 11.2295 15.6055C11.2783 15.472 11.3027 15.3337 11.3027 15.1904C11.3027 15.0244 11.2783 14.8698 11.2295 14.7266C11.1839 14.5833 11.1139 14.458 11.0195 14.3506C10.9219 14.2432 10.8014 14.1585 10.6582 14.0967C10.515 14.0348 10.3457 14.0039 10.1504 14.0039H9.09082V16.2793ZM18.0117 16.8848H15.0918V18.8916H18.5049V20H13.7148V12.8906H18.4902V14.0088H15.0918V15.8008H18.0117V16.8848ZM24.0176 16.8848H21.0977V18.8916H24.5107V20H19.7207V12.8906H24.4961V14.0088H21.0977V15.8008H24.0176V16.8848ZM25.6191 20V12.8906H27.46C27.7887 12.8906 28.0964 12.9313 28.3828 13.0127C28.6693 13.0908 28.9297 13.2031 29.1641 13.3496C29.3691 13.4701 29.5514 13.6182 29.7109 13.7939C29.8737 13.9665 30.0153 14.1553 30.1357 14.3604C30.2757 14.611 30.3831 14.8877 30.458 15.1904C30.5361 15.4932 30.5752 15.8154 30.5752 16.1572V16.7432C30.5752 17.0719 30.5394 17.3828 30.4678 17.6758C30.3962 17.9688 30.2952 18.2373 30.165 18.4814C30.0413 18.6995 29.8965 18.9014 29.7305 19.0869C29.5645 19.2692 29.3822 19.4222 29.1836 19.5459C28.9525 19.6924 28.6969 19.8047 28.417 19.8828C28.1403 19.9609 27.8441 20 27.5283 20H25.6191ZM27.001 14.0039V18.8965H27.5283C27.6976 18.8965 27.8555 18.8753 28.002 18.833C28.1484 18.7907 28.2819 18.7288 28.4023 18.6475C28.526 18.5628 28.6367 18.4554 28.7344 18.3252C28.8353 18.1917 28.9215 18.0371 28.9932 17.8613C29.0518 17.7083 29.0957 17.5391 29.125 17.3535C29.1576 17.1647 29.1738 16.9613 29.1738 16.7432V16.1475C29.1738 15.9424 29.1576 15.7487 29.125 15.5664C29.0957 15.3809 29.0518 15.2116 28.9932 15.0586C28.9215 14.8763 28.8271 14.7135 28.71 14.5703C28.596 14.4271 28.4626 14.3099 28.3096 14.2188C28.1924 14.1504 28.0622 14.0983 27.9189 14.0625C27.779 14.0234 27.626 14.0039 27.46 14.0039H27.001Z" fill="white"/>
</g>
<defs>
<clipPath id="clip0_2001_25162">
<rect width="32" height="32" fill="white"/>
</clipPath>
</defs>
</svg>
