<svg width="32" height="32" viewBox="0 0 32 32" fill="none" xmlns="http://www.w3.org/2000/svg">
<path fill-rule="evenodd" clip-rule="evenodd" d="M30 6H2V25H30V6ZM2 4C0.895431 4 0 4.89543 0 6V25C0 26.1046 0.895431 27 2 27H15V29H9C8.44771 29 8 29.4477 8 30C8 30.5523 8.44771 31 9 31H23C23.5523 31 24 30.5523 24 30C24 29.4477 23.5523 29 23 29H17V27H30C31.1046 27 32 26.1046 32 25V6C32 4.89543 31.1046 4 30 4H2Z" fill="white"/>
<path d="M6.09766 17.8916H9.42773V19H4.7207V11.8906H6.09766V17.8916ZM10.9365 11.8906H15.0479V12.999H13.6611V17.8965H15.0479V19H10.9365V17.8965H12.2891V12.999H10.9365V11.8906ZM18.2998 19L16.1514 11.8906H17.665L18.8711 16.5342L18.9932 17.0127L19.125 16.5293L20.3359 11.8906H21.8496L19.6963 19H18.2998ZM27.0205 15.8848H24.1006V17.8916H27.5137V19H22.7236V11.8906H27.499V13.0088H24.1006V14.8008H27.0205V15.8848Z" fill="white"/>
</svg>
