<svg width="30" height="30" viewBox="0 0 30 30" fill="none" xmlns="http://www.w3.org/2000/svg">
<path d="M23.5715 23.5723V27.858H10.7144V25.7151H12.8572V23.5723H8.57153V30.0008H25.7144V25.7151H27.8572V23.5723H23.5715Z" fill="black"/>
<path d="M14.9998 21.428V19.2852H12.8569V23.5709H14.9998V21.428Z" fill="black"/>
<path d="M27.8569 19.2852V23.5709H29.9998V19.2852H27.8569Z" fill="black"/>
<path d="M6.42847 19.2852V21.428H10.7142V19.2852H6.42847Z" fill="black"/>
<path d="M15.0001 17.1434H17.1429V12.8577H19.2858V10.7148H15.0001V15.0006H10.7144V19.2863H12.8572V17.1434H15.0001Z" fill="black"/>
<path d="M6.42857 15H2.14286V2.14286H4.28571V4.28571H6.42857V0H0V17.1429H4.28571V19.2857H6.42857V15Z" fill="black"/>
<path d="M21.4285 15.0003H23.5714V19.286H27.8571V17.1431H25.7142V12.8574H19.2856V15.0003H21.4285Z" fill="black"/>
<path d="M19.2856 10.7134H21.4285V6.42773H19.2856V10.7134Z" fill="black"/>
<path d="M8.57132 6.42801H10.7142V4.28516H6.42847V6.42801H8.57132Z" fill="black"/>
<path d="M12.8572 2.14286H15.0001V6.42857H19.2858V4.28571H17.1429V0H10.7144V4.28571H12.8572V2.14286Z" fill="black"/>
</svg>
