<svg width="238" height="100" viewBox="0 0 238 100" fill="none" xmlns="http://www.w3.org/2000/svg">
<g clip-path="url(#clip0_2739_17695)">
<path d="M48.0701 0.702511H196.982C201.565 0.819607 206.267 1.87347 210.028 6.20602C213.789 10.5386 229.89 30.4449 231.536 32.5526C233.181 34.6604 234.944 37.3536 235.414 41.8032C235.884 46.2529 237.177 76.1123 237.177 80.2107C237.177 84.5433 235.884 86.2997 234.944 88.2903C234.004 90.0468 232.594 92.9742 231.653 94.7306C230.713 96.4871 227.54 99.1803 222.486 99.2974H37.8449C32.4385 99.2974 27.9723 97.3067 25.0341 93.3255C22.0958 89.4613 5.99407 67.3301 5.28888 66.1592C4.11358 64.2856 3.17333 61.3582 1.5279 58.0796C0.470119 55.9718 -4.33224e-06 52.6931 2.70321 48.9461C5.52395 45.199 33.0262 9.60181 35.4943 6.7915C37.9625 3.8641 42.1936 0.585415 48.0701 0.702511Z" fill="#4F4A54"/>
<path d="M37.7274 100C32.2035 100 27.6198 97.8923 24.564 93.7939C21.8607 90.1639 5.40642 67.7986 4.70124 66.5105C3.99605 65.3396 3.4084 63.9344 2.70321 62.2951C2.23309 61.1241 1.64543 59.719 0.940249 58.3138C0.235064 56.9087 -1.05778 53.1616 2.23309 48.5948C5.17136 44.6136 32.7911 9.01639 35.0242 6.32319C37.0222 3.98126 41.4884 0 47.9526 0H48.0701H196.982C200.743 0.117096 206.267 0.819672 210.615 5.73771C212.848 8.43091 220.135 17.3302 231.653 31.4988L232.123 32.0843C233.886 34.3091 235.649 37.0023 236.12 41.6862C236.707 46.37 237.882 76.2295 237.882 80.2108C237.882 84.192 236.825 86.1827 235.884 87.9391C235.767 88.1733 235.649 88.4075 235.532 88.6417C234.592 90.3981 233.181 93.3255 232.241 95.082C231.301 96.9555 227.892 99.8829 222.486 100H37.8449C37.8449 100 37.7274 100 37.7274 100ZM47.9526 1.28806C41.9585 1.28806 37.8449 4.91803 35.9644 7.14286C33.7314 9.83607 6.11161 45.3162 3.29087 49.2974C0.352594 53.2787 1.41037 56.4403 2.11556 57.7283C2.82074 59.1335 3.4084 60.5386 3.99605 61.8267C4.70124 63.466 5.28889 64.7541 5.87655 65.808C6.4642 66.8618 22.6835 88.993 25.6217 92.9742C28.4425 96.7213 32.6736 98.7119 37.8449 98.7119H222.721C227.54 98.5949 230.478 96.1358 231.301 94.4965C232.241 92.6229 233.651 89.8126 234.592 88.0562C234.709 87.822 234.827 87.5878 234.944 87.3536C235.884 85.7143 236.707 83.9578 236.825 80.2108C236.825 75.644 235.532 46.1358 235.062 41.8033C234.592 37.4707 232.946 34.8946 231.301 32.904L230.831 32.3185C216.374 14.4028 211.438 8.43091 209.793 6.55738C206.737 3.0445 202.741 1.40515 197.217 1.28806H48.3052C48.0701 1.28806 47.9526 1.28806 47.9526 1.28806Z" fill="#231F20"/>
<path d="M32.0859 91.9205C26.6795 91.9205 23.8588 89.8127 17.277 80.7963C10.9304 72.2483 2.11556 59.9532 1.99803 59.8362L2.58569 59.4849C2.70322 59.602 11.4005 71.897 17.7472 80.445C24.2114 89.2272 26.9146 91.2179 32.0859 91.2179H226.482C230.361 90.9837 234.357 89.1102 235.414 87.0024L236.002 87.3537C234.827 89.6956 230.596 91.8034 226.482 91.9205H32.0859V91.9205Z" fill="#231F20"/>
<path d="M193.691 3.39575C198.392 3.39575 201.448 3.98123 204.504 7.61121C207.559 11.2412 225.659 33.6065 227.187 35.4801C228.715 37.3536 230.008 40.1639 230.008 43.2084C230.008 46.2529 230.713 60.5386 230.478 64.2857C230.243 68.1499 227.07 70.9602 222.956 71.0772H49.363C43.839 70.9602 41.4884 69.555 38.9027 66.8618C36.317 64.0515 29.6178 56.9086 27.6198 54.3325C25.3867 51.5222 26.4444 49.4145 27.7373 47.4239C29.2652 45.5503 51.0084 12.8805 53.1239 9.48475C55.122 6.20606 58.883 3.39575 63.4667 3.39575H193.691Z" fill="#4F4A54"/>
<path d="M49.4805 71.5457C43.839 71.4286 41.4884 70.0234 38.7852 67.2131C36.082 64.4028 29.5003 57.1429 27.5022 54.5668C25.1516 51.6394 26.2094 49.2975 27.6198 47.3068C29.1477 45.1991 50.8909 12.5293 52.7714 9.36771C55.2395 5.50354 59.118 3.16162 63.3491 3.16162H193.573C198.51 3.16162 201.565 3.8642 204.621 7.49417C207.677 11.1242 226.012 33.7237 227.305 35.363C229.068 37.7049 230.125 40.6323 230.125 43.3256C230.125 44.3794 230.243 46.7213 230.36 49.4145C230.596 55.0352 230.831 61.9438 230.713 64.4028C230.478 68.3841 227.187 71.4286 222.956 71.5457H49.4805ZM63.4667 3.7471C59.4706 3.7471 55.7096 5.97193 53.4765 9.719C51.4785 12.8806 29.6178 45.5504 28.2074 47.6581C27.0321 49.4145 25.8568 51.4052 28.0899 54.0984C30.0879 56.6745 36.6696 63.8174 39.3728 66.6277C41.9585 69.3209 44.1916 70.726 49.598 70.726H223.191C227.07 70.6089 230.125 67.7986 230.36 64.1686C230.478 61.7096 230.243 54.4497 230.008 49.1804C229.89 46.4871 229.773 44.1452 229.773 43.0914C229.773 39.3443 227.892 36.534 227.07 35.5972C225.659 33.9579 207.442 11.3583 204.269 7.84546C201.33 4.44968 198.392 3.8642 193.691 3.7471H63.4667Z" fill="#231F20"/>
<path d="M224.837 46.3701C227.775 50.1172 225.777 59.2506 219.313 60.3045H180.762C167.481 60.1874 153.965 49.2975 154.083 33.7237C154.201 18.1499 167.717 8.19678 181.115 8.19678C193.338 8.31387 200.86 16.7448 201.565 17.7987C203.799 20.7261 222.251 43.0914 224.837 46.3701Z" fill="#4F4A54"/>
<path d="M180.762 60.6557C174.063 60.6557 167.246 57.8454 162.193 53.0444C156.669 47.8922 153.73 40.9835 153.73 33.6065C153.848 17.5643 167.952 7.72827 180.998 7.72827H181.115C194.161 7.84537 201.801 17.3301 201.801 17.4472C202.858 18.8524 207.677 24.5901 212.613 30.7962C218.02 37.4707 223.661 44.3793 225.072 46.1358C226.717 48.1264 226.952 51.8735 225.659 55.0351C224.484 58.0796 222.133 60.0702 219.313 60.5386L180.762 60.6557ZM180.998 8.43085C168.304 8.43085 154.553 18.0327 154.436 33.6065C154.436 40.7493 157.374 47.5409 162.663 52.4589C167.717 57.1428 174.298 59.836 180.762 59.836H219.313C221.781 59.3676 223.896 57.6112 225.072 54.6838C226.247 51.7564 226.012 48.3606 224.602 46.4871C223.191 44.7306 217.667 37.8219 212.143 31.1475C207.089 25.0585 202.388 19.2037 201.33 17.7985C201.213 17.6814 193.808 8.43085 180.998 8.43085Z" fill="#231F20"/>
<path d="M173.711 94.0281H201.8C202.858 94.0281 203.916 95.3161 201.918 95.4332H173.358C172.535 95.4332 171.83 94.3794 173.711 94.0281Z" fill="#4F4A54"/>
<path d="M173.358 95.7845C172.77 95.7845 172.3 95.3161 172.3 94.8477C172.3 94.4964 172.418 93.9109 173.711 93.6768H201.8C202.623 93.6768 203.328 94.2622 203.328 94.8477C203.328 95.199 203.093 95.6674 201.918 95.7845H173.358ZM173.711 94.3793C173.005 94.4964 172.888 94.7306 172.888 94.8477C172.888 94.9648 173.123 95.199 173.358 95.199H201.918C202.506 95.199 202.741 94.9648 202.741 94.9648C202.741 94.8477 202.388 94.4964 201.8 94.4964L173.711 94.3793Z" fill="#231F20"/>
<path d="M229.655 94.1452C230.008 94.2623 230.008 96.1358 226.835 96.8384C222.016 98.0094 219.783 97.1897 220.488 96.0188C221.193 94.8478 222.016 95.5504 225.424 94.9649C228.833 94.3794 228.833 93.6768 229.655 94.1452Z" fill="#4F4A54"/>
<path d="M222.839 97.7752C221.546 97.7752 220.605 97.541 220.253 97.0726C220.018 96.7213 220.018 96.37 220.253 96.0187C220.723 95.1991 221.428 95.082 222.486 95.082C223.191 95.082 224.131 94.9649 225.424 94.8478C227.07 94.6136 227.892 94.2623 228.362 94.0281C228.95 93.7939 229.303 93.6768 229.773 94.0281C230.008 94.1452 230.125 94.3794 230.125 94.7307C230.125 95.082 229.89 96.7213 226.952 97.3068C225.424 97.541 223.896 97.7752 222.839 97.7752ZM229.185 94.3794C229.068 94.3794 228.95 94.3794 228.598 94.4965C228.01 94.7307 227.187 95.082 225.542 95.3162C224.249 95.5504 223.309 95.5503 222.603 95.6674C221.428 95.6674 221.193 95.7845 220.841 96.2529C220.723 96.4871 220.841 96.6042 220.841 96.6042C221.193 97.0726 223.074 97.4239 226.952 96.4871C228.715 96.1358 229.303 95.4333 229.538 94.9649C229.655 94.7307 229.655 94.4965 229.655 94.3794C229.42 94.3794 229.303 94.3794 229.185 94.3794Z" fill="#231F20"/>
<path d="M180.998 10.0704C195.336 10.3046 206.032 22.1313 206.032 33.958C205.914 46.3701 196.041 58.0797 181.703 58.0797C167.364 57.9626 155.846 47.3069 155.963 33.3725C156.081 20.0235 167.717 9.83617 180.998 10.0704Z" fill="#FF8200"/>
<path d="M181.938 58.431H181.82C167.011 58.3139 155.493 47.3069 155.611 33.2554C155.611 27.0493 158.197 21.1945 162.663 16.7448C167.481 12.061 174.181 9.48486 181.115 9.48486C196.277 9.71906 206.737 22.4825 206.619 33.8408C206.502 45.7846 197.099 58.431 181.938 58.431ZM180.527 10.5387C174.063 10.5387 167.834 12.9977 163.25 17.4474C158.902 21.6628 156.434 27.2835 156.434 33.2554C156.316 46.7214 167.481 57.3771 181.703 57.4942H181.82C196.394 57.4942 205.444 45.3162 205.444 33.9579C205.444 23.1851 195.454 10.89 180.88 10.6558C180.88 10.5387 180.762 10.5387 180.527 10.5387Z" fill="#231F20"/>
<path d="M215.552 42.74C220.605 42.74 223.661 46.8384 223.661 50.5854C223.661 54.2154 221.076 58.0796 215.904 58.0796C210.968 57.9625 207.795 53.9812 207.795 50.2341C207.912 46.4871 211.085 42.8571 215.552 42.74Z" fill="#FF8200"/>
<path d="M216.022 58.665H215.904C213.554 58.665 211.32 57.7283 209.675 56.0889C208.147 54.4496 207.324 52.3418 207.324 50.3512C207.442 46.6041 210.615 42.5058 215.669 42.3887C218.137 42.3887 220.37 43.3254 222.016 45.0819C223.426 46.6041 224.249 48.7119 224.249 50.8196C224.249 52.9273 223.426 55.035 221.898 56.5573C220.37 57.8453 218.372 58.665 216.022 58.665ZM215.669 43.3254C211.203 43.3254 208.382 46.9554 208.265 50.2341C208.265 52.1076 208.97 53.8641 210.38 55.2692C211.791 56.7915 213.789 57.6112 215.904 57.6112C218.02 57.6112 219.9 57.0257 221.193 55.6205C222.486 54.3325 223.191 52.4589 223.191 50.5854C223.191 48.7119 222.486 46.9554 221.193 45.5503C220.253 44.6135 218.49 43.3254 215.669 43.3254Z" fill="#231F20"/>
<path d="M181.585 53.8641C181.233 53.8641 180.998 53.747 180.762 53.3957C180.527 53.1615 179.235 51.0538 178.059 49.0632L177.472 48.0093C177.237 47.5409 177.119 47.0725 177.354 46.8383C177.472 46.7213 177.707 46.4871 178.177 46.4871C178.647 46.4871 180.292 46.4871 181.82 46.4871C183.113 46.4871 184.406 46.4871 184.759 46.4871C185.346 46.4871 185.581 46.8383 185.699 46.9554C185.816 47.1896 185.816 47.658 185.581 47.8922C185.464 48.0093 185.229 48.5948 184.759 49.2974C183.701 51.1709 182.643 53.0444 182.408 53.3957C182.173 53.747 181.82 53.8641 181.585 53.8641ZM178.059 47.0725C177.942 47.0725 177.942 47.0725 177.942 47.1896C177.942 47.3067 177.942 47.5409 178.059 47.7751L178.647 48.7119C179.47 50.117 181.115 52.8102 181.35 53.0444C181.468 53.1615 181.585 53.2786 181.703 53.2786C181.82 53.2786 181.938 53.1615 181.938 53.0444C182.173 52.6931 183.466 50.4683 184.288 49.0632C184.641 48.3606 184.994 47.8922 185.111 47.658C185.229 47.5409 185.229 47.4238 185.111 47.3067C185.111 47.1896 184.876 47.1896 184.759 47.1896C184.406 47.1896 183.231 47.1896 181.82 47.1896C180.175 47.0725 178.647 47.0725 178.059 47.0725Z" fill="#231F20"/>
<path d="M166.894 37.4706C166.659 37.4706 166.541 37.4706 166.189 37.3535C165.836 37.2364 163.25 35.8313 160.9 34.4261L160.312 34.0749C159.842 33.8407 159.724 33.4894 159.724 33.2552C159.724 32.9039 159.96 32.5526 160.43 32.3184C160.782 32.0842 163.015 30.9133 164.426 30.0936L165.719 29.391C166.071 29.1568 166.659 28.9226 167.011 29.1568C167.481 29.391 167.364 29.9765 167.364 30.0936C167.364 30.7962 167.364 34.5432 167.481 35.9484V36.4168C167.481 36.7681 167.364 37.1193 167.129 37.2364C167.246 37.4706 167.011 37.4706 166.894 37.4706ZM166.776 29.8594C166.659 29.8594 166.541 29.8594 166.189 30.0936L164.896 30.7962C163.368 31.6158 161.252 32.7868 160.9 33.021C160.665 33.1381 160.547 33.2552 160.547 33.3723C160.547 33.4894 160.665 33.4894 160.782 33.6065L161.37 33.9578C162.663 34.6603 166.189 36.651 166.541 36.8852C166.894 37.0023 167.011 37.0023 167.011 37.0023C167.011 37.0023 167.011 36.8852 167.011 36.7681V36.2997C167.011 34.8945 166.894 31.1475 166.894 30.4449H167.246H166.894C166.894 29.9765 166.894 29.8594 166.776 29.8594Z" fill="#231F20"/>
<path d="M195.806 37.4707C195.689 37.4707 195.454 37.4707 195.336 37.3536C195.101 37.2365 194.866 37.0023 194.866 36.4168C194.866 36.0655 194.866 35.2458 194.866 34.3091C194.866 32.7868 194.749 30.9133 194.866 30.3278C194.866 29.8594 194.984 29.5081 195.336 29.2739C195.689 29.0397 196.159 29.1568 196.864 29.5081C197.452 29.8594 200.86 31.8501 201.8 32.4355L202.036 32.5526C202.388 32.7868 202.623 33.021 202.623 33.3723C202.623 33.6065 202.506 33.9578 201.918 34.3091C201.213 34.7775 197.099 37.1194 196.629 37.3536C196.277 37.4707 196.041 37.4707 195.806 37.4707ZM195.454 30.3278C195.454 31.0304 195.454 32.7868 195.454 34.3091C195.454 35.2458 195.454 36.0655 195.454 36.4168C195.454 36.5339 195.454 36.7681 195.571 36.7681C195.689 36.8852 195.806 36.7681 196.041 36.651C196.512 36.4168 200.625 34.0749 201.33 33.6065C201.565 33.4894 201.683 33.2552 201.683 33.2552C201.683 33.1381 201.565 33.1381 201.448 33.021L201.213 32.9039C200.273 32.3184 196.864 30.4449 196.277 30.0936C195.806 29.8594 195.454 29.7423 195.454 29.8594C195.454 29.8594 195.454 30.0936 195.454 30.3278Z" fill="#231F20"/>
<path d="M184.288 20.4917C183.936 20.4917 179.587 20.4917 178.177 20.4917H177.589C177.119 20.4917 176.766 20.3746 176.649 20.0233C176.531 19.9062 176.414 19.5549 176.649 18.9695C176.766 18.6182 177.472 17.5643 178.177 16.3933C178.882 15.3395 179.47 14.2856 179.705 13.8172C180.057 13.3488 180.292 12.9976 180.645 12.9976C180.998 12.9976 181.233 13.1147 181.468 13.583C181.585 13.8172 182.29 14.8711 182.996 16.0421C183.818 17.3301 184.641 18.7353 184.876 18.9695C185.111 19.3207 185.111 19.672 184.994 20.0233C184.994 20.2575 184.641 20.4917 184.288 20.4917ZM177.589 19.7891H178.177C180.88 19.7891 184.053 19.7891 184.288 19.7891C184.406 19.7891 184.523 19.7891 184.523 19.672C184.641 19.5549 184.523 19.4378 184.406 19.3207C184.171 18.9695 183.348 17.6814 182.525 16.2762C181.82 15.1053 181.115 14.0514 180.998 13.8172C180.88 13.583 180.762 13.583 180.762 13.583C180.762 13.583 180.527 13.7001 180.292 14.0514C180.057 14.5198 179.352 15.5737 178.764 16.6275C178.059 17.7985 177.354 18.8524 177.237 19.2036C177.119 19.3207 177.119 19.4378 177.119 19.5549C177.354 19.7891 177.472 19.7891 177.589 19.7891Z" fill="#231F20"/>
<path d="M217.902 54.0984H213.436V52.342H217.667C218.372 52.342 218.842 51.4052 218.842 50.8197C218.842 50.5855 218.725 50.1172 218.607 49.7659C218.372 49.4146 218.137 49.1804 217.785 49.1804H214.024V50.3514L210.85 48.2436L214.024 46.0188V47.3069H217.667C218.49 47.3069 219.313 47.7752 220.018 48.4778C220.605 49.1804 220.84 50.0001 220.84 50.7026C220.84 51.6394 220.605 52.4591 220.018 53.0446C219.43 53.7471 218.725 54.0984 217.902 54.0984ZM214.141 53.3958H217.902C218.49 53.3958 219.078 53.1617 219.548 52.5762C220.018 52.1078 220.253 51.4052 220.253 50.5855C220.253 50.0001 220.018 49.2975 219.548 48.712C219.078 48.1265 218.49 47.7752 217.785 47.7752H213.554V47.0727L212.261 48.0094L213.554 48.8291V48.2436H217.902C218.49 48.2436 219.078 48.5949 219.313 49.1804C219.665 49.7659 219.665 50.3514 219.665 50.5855C219.665 51.5223 218.96 52.6933 217.902 52.6933H214.259L214.141 53.3958Z" fill="#231F20"/>
<path d="M156.669 56.0889C157.491 56.0889 158.197 56.9085 158.197 57.6111C158.197 58.1966 157.726 59.0163 156.786 58.8992C155.846 58.7821 155.141 58.3137 155.141 57.494C155.141 56.7914 155.728 56.0889 156.669 56.0889Z" fill="#4F4A54"/>
<path d="M156.786 59.2505C155.728 59.2505 154.788 58.5479 154.906 57.6112C154.906 56.6744 155.728 55.8547 156.669 55.8547C157.726 55.8547 158.432 56.7915 158.432 57.7283C158.432 58.4308 157.844 59.2505 156.786 59.2505ZM156.669 56.4402C156.081 56.4402 155.493 56.9086 155.493 57.6112C155.493 58.1967 156.081 58.665 156.786 58.665C157.491 58.665 157.844 58.0796 157.844 57.6112C157.726 57.1428 157.256 56.4402 156.669 56.4402Z" fill="#231F20"/>
<path d="M181.468 42.0374C178.882 42.0374 176.414 40.9835 174.768 39.3442C173.24 37.8219 172.418 35.7142 172.535 33.3723C172.653 27.7516 177.707 25.1755 181.233 25.1755C183.466 25.1755 185.581 26.1123 187.227 27.7517C188.872 29.391 189.812 31.4987 189.695 33.7235C189.695 35.9484 188.872 38.0561 187.344 39.5783C185.934 41.1006 183.818 42.0374 181.468 42.0374ZM181.233 26.1123C178.059 26.1123 173.593 28.3371 173.593 33.3723C173.593 35.3629 174.298 37.2364 175.591 38.5245C177.119 40.0467 179.352 40.9835 181.585 40.9835C183.583 40.9835 185.464 40.2809 186.757 38.8758C188.049 37.4706 188.872 35.7142 188.872 33.7235C188.872 31.7329 188.049 29.8594 186.639 28.4542C185.111 26.932 183.113 26.2294 181.233 26.1123Z" fill="#231F20"/>
<path d="M142.918 60.3045H63.5842C60.4109 60.3045 57.7077 57.7284 57.7077 54.4497V13.7003C57.7077 10.5387 60.2933 7.84546 63.5842 7.84546H142.918C146.091 7.84546 148.794 10.4216 148.794 13.7003V54.4497C148.794 57.7284 146.208 60.3045 142.918 60.3045Z" fill="#4F4A54"/>
<path d="M142.918 60.89H63.5842C60.0583 60.89 57.12 58.0797 57.12 54.4497V13.7003C57.12 10.1874 59.9407 7.26001 63.5842 7.26001H142.918C146.443 7.26001 149.382 10.1874 149.382 13.7003V54.4497C149.382 58.0797 146.443 60.89 142.918 60.89ZM63.5842 8.54807C60.6459 8.54807 58.2953 10.89 58.2953 13.8174V54.5668C58.2953 57.4942 60.6459 59.8361 63.5842 59.8361H142.918C145.856 59.8361 148.206 57.4942 148.206 54.5668V13.7003C148.206 10.7729 145.856 8.43097 142.918 8.43097H63.5842V8.54807Z" fill="#231F20"/>
<path d="M142.682 57.4941H64.0543C62.1738 57.4941 60.6459 55.9718 60.6459 54.0983V13.9344C60.6459 12.0608 62.1738 10.5386 64.0543 10.5386H142.565C144.445 10.5386 145.973 12.0608 145.973 13.9344V54.0983C146.091 55.9718 144.563 57.4941 142.682 57.4941Z" fill="#FF8200"/>
<path d="M142.682 57.8453H64.0543C61.9388 57.8453 60.2933 56.206 60.2933 54.0983V13.9343C60.2933 11.8266 61.9388 10.1873 64.0543 10.1873H142.565C144.68 10.1873 146.326 11.8266 146.326 13.9343V54.0983C146.326 56.206 144.68 57.8453 142.682 57.8453ZM64.0543 10.8898C62.4089 10.8898 60.9985 12.295 60.9985 13.9343V54.0983C60.9985 55.7376 62.4089 57.1428 64.0543 57.1428H142.565C144.21 57.1428 145.621 55.7376 145.621 54.0983V13.9343C145.621 12.295 144.21 10.8898 142.565 10.8898H64.0543Z" fill="#231F20"/>
<path d="M109.539 84.3091C106.953 84.3091 104.25 84.3091 101.664 84.3091V83.3723H102.604C102.604 82.9039 102.604 81.85 102.604 81.3817H103.545C103.545 80.9133 103.545 79.8594 103.545 79.391H104.485C104.485 78.5714 104.485 77.2833 104.485 76.4636C104.015 76.4636 102.957 76.4636 102.487 76.4636C102.487 76.932 102.487 77.9859 102.487 78.4543H101.547C101.547 78.9226 101.547 79.9765 101.547 80.4449H100.606C100.606 80.9133 100.606 81.9671 100.606 82.4355H99.6662C99.6662 82.9039 99.6662 83.9578 99.6662 84.4261H98.7259C98.7259 84.8945 98.7259 85.9484 98.7259 86.4168C102.604 86.4168 106.6 86.4168 110.479 86.4168V85.48H111.419V84.3091C111.067 84.3091 110.126 84.3091 109.539 84.3091Z" fill="#FF8200"/>
<path d="M118.471 80.445V79.5082H119.411C119.411 78.6885 119.411 77.4005 119.411 76.5808C118.941 76.5808 117.883 76.5808 117.413 76.5808C117.413 77.0492 117.413 78.1031 117.413 78.5714H116.473C116.473 79.0398 116.473 80.0937 116.473 80.5621H115.533C115.533 81.0305 115.533 82.0843 115.533 82.5527H114.593C114.593 83.0211 114.593 84.075 114.593 84.5433H113.652C113.652 85.0117 113.652 86.0656 113.652 86.534C114.122 86.534 115.18 86.534 115.65 86.534V85.5972H116.591C116.591 85.1288 116.591 84.075 116.591 83.6066H117.531C117.531 83.1382 117.531 82.0843 117.531 81.6159H118.471V80.445Z" fill="#FF8200"/>
<path d="M149.969 79.391H150.91V78.4543H151.85C151.85 77.9859 151.85 76.932 151.85 76.4636C147.266 76.4636 142.682 76.4636 138.099 76.4636C138.099 76.932 138.099 77.9859 138.099 78.4543H137.159C137.159 78.9226 137.159 79.9765 137.159 80.4449H136.218C136.218 80.9133 136.218 81.9671 136.218 82.4355H135.16C135.16 82.9039 135.16 83.9578 135.16 84.4261H134.22C134.22 84.8945 134.22 85.9484 134.22 86.4168C134.69 86.4168 135.748 86.4168 136.218 86.4168V85.48H137.159C137.159 85.0116 137.159 83.9578 137.159 83.4894H138.099V82.5526C141.39 82.5526 144.681 82.5526 147.971 82.5526V81.6158H148.912V80.6791H149.852V79.391H149.969ZM147.971 79.391H147.031V80.3278C144.445 80.3278 141.742 80.3278 139.157 80.3278V79.391H140.097V78.4543C142.682 78.4543 145.386 78.4543 147.971 78.4543V79.391Z" fill="#FF8200"/>
<path d="M134.22 79.391H135.161V78.4543H136.101C136.101 77.9859 136.101 76.932 136.101 76.4636C131.517 76.4636 126.933 76.4636 122.35 76.4636C122.35 76.932 122.35 77.9859 122.35 78.4543H121.409C121.409 78.9226 121.409 79.9765 121.409 80.4449H120.469C120.469 80.9133 120.469 81.9671 120.469 82.4355H119.529C119.529 82.9039 119.529 83.9578 119.529 84.4261H118.589C118.589 84.8945 118.589 85.9484 118.589 86.4168C119.059 86.4168 120.117 86.4168 120.587 86.4168V85.48H121.527C121.527 85.0116 121.527 83.9578 121.527 83.4894H122.467V82.5526C125.758 82.5526 129.049 82.5526 132.34 82.5526V81.6158H133.28V80.6791H134.22V79.391ZM132.222 79.391H131.282V80.3278C128.696 80.3278 125.993 80.3278 123.407 80.3278V79.391H124.348V78.4543C126.933 78.4543 129.637 78.4543 132.222 78.4543V79.391Z" fill="#FF8200"/>
<path d="M166.659 78.4543V77.5176H167.599V76.5808C163.015 76.5808 158.432 76.5808 153.848 76.5808C153.848 77.0492 153.848 78.1031 153.848 78.5714H152.908C152.908 79.0398 152.908 80.0937 152.908 80.5621H151.967C151.967 81.0305 151.967 82.0843 151.967 82.5527H151.027C151.027 83.0211 151.027 84.075 151.027 84.5433H150.087C150.087 85.0117 150.087 86.0656 150.087 86.534C154.318 86.534 158.667 86.534 162.898 86.534V85.5972H163.838V84.3091C160.312 84.3091 156.551 84.3091 153.025 84.3091V83.3724H153.965V82.4356C156.904 82.4356 159.842 82.4356 162.78 82.4356V81.4988H163.721V80.5621C160.782 80.5621 157.844 80.5621 154.906 80.5621V79.6253H155.846V78.4543C159.489 78.4543 163.133 78.4543 166.659 78.4543Z" fill="#FF8200"/>
<path d="M99.7837 78.4543V77.5176H100.724V76.5808C95.7877 76.5808 90.8514 76.5808 85.9151 76.5808C85.9151 77.0492 85.9151 78.1031 85.9151 78.5714H84.9748C84.9748 79.0398 84.9748 80.0937 84.9748 80.5621H84.0346C84.0346 81.0305 84.0346 82.0843 84.0346 82.5527H83.0943C83.0943 83.0211 83.0943 84.075 83.0943 84.5433H82.1541C82.1541 85.0117 82.1541 86.0656 82.1541 86.534H81.0963C81.0963 87.0024 81.0963 88.0562 81.0963 88.5246C81.5664 88.5246 82.6242 88.5246 83.0943 88.5246V87.5878H84.0346C84.0346 87.1195 84.0346 86.0656 84.0346 85.5972H84.9748C84.9748 85.1288 84.9748 84.075 84.9748 83.6066H85.9151V82.6698C88.8533 82.6698 91.7916 82.6698 94.7299 82.6698V81.733H95.6701V80.7963C92.7319 80.7963 89.7936 80.7963 86.8553 80.7963V79.8595H87.7956V78.4543C91.9091 78.4543 95.9052 78.4543 99.7837 78.4543Z" fill="#FF8200"/>
<path d="M183.466 76.4636C178.882 76.4636 174.298 76.4636 169.715 76.4636C169.715 76.932 169.715 77.9859 169.715 78.4543H168.774C168.774 78.9226 168.774 79.9765 168.774 80.4449H167.834C167.834 80.9133 167.834 81.9671 167.834 82.4355H166.894C166.894 82.9039 166.894 83.9578 166.894 84.4261H165.719C165.719 84.8945 165.719 85.9484 165.719 86.4168C166.189 86.4168 167.246 86.4168 167.717 86.4168V85.48H168.657C168.657 85.0116 168.657 83.9578 168.657 83.4894H169.597V82.5526C171.83 82.5526 174.181 82.5526 176.531 82.5526V83.4894H177.472V84.3091H178.412V85.2458H179.352V86.1826H180.292V87.1194H181.233V88.0561C181.703 88.0561 182.76 88.0561 183.231 88.0561C183.231 87.5877 183.231 86.5339 183.231 86.0655H182.29V85.1287H181.35V84.3091H180.41V83.3723H179.47C179.47 82.9039 179.47 81.85 179.47 81.3817H180.41V80.4449H181.35V79.5081H182.29V78.4543H183.231V77.5175H184.171V76.5807H183.466V76.4636ZM179.47 79.391H178.529V80.3278C175.944 80.3278 173.24 80.3278 170.655 80.3278V79.391H171.595V78.4543C174.181 78.4543 176.884 78.4543 179.47 78.4543V79.391Z" fill="#FF8200"/>
</g>
<defs>
<clipPath id="clip0_2739_17695">
<rect width="238" height="100" fill="white"/>
</clipPath>
</defs>
</svg>
