<svg width="28" height="28" viewBox="0 0 28 28" fill="none" xmlns="http://www.w3.org/2000/svg">
<path fill-rule="evenodd" clip-rule="evenodd" d="M20.0604 18.9228L20.037 18.9593L19.9731 19.0444L19.8995 19.1245L14.3903 24.5678C13.7263 25.2238 12.6116 24.8079 12.5159 23.9217L12.5093 23.798L12.5093 16.2633L8.79021 19.2048C8.31503 19.5804 7.62164 19.5042 7.24149 19.0347C6.89058 18.6014 6.92924 17.9843 7.31101 17.5965L7.41357 17.5045L11.847 14L7.41357 10.4954C6.93838 10.1198 6.86134 9.43471 7.24149 8.9652C7.5924 8.53182 8.21021 8.43362 8.67692 8.7165L8.79021 8.79518L12.5093 11.7355L12.5093 4.20194C12.5093 3.2742 13.5952 2.78946 14.2971 3.34926L14.3903 3.43213L19.8995 8.87548C19.9518 8.92708 19.9976 8.98242 20.037 9.0406L20.0676 9.08841L20.1168 9.17954L20.1717 9.31823C20.2869 9.69096 20.1999 10.1024 19.9219 10.3926L19.8087 10.4954L15.3741 14L19.8087 17.5045C20.1018 17.7362 20.2412 18.0822 20.2202 18.4219C20.2132 18.5282 20.1922 18.6287 20.1566 18.7257L20.1168 18.8204L20.0604 18.9228ZM14.7125 16.2641V21.1675L17.4693 18.4436L14.7125 16.2641ZM14.7125 11.7345V6.83116L17.4693 9.55502L14.7125 11.7345Z" fill="white" fill-opacity="0.9"/>
</svg>
