<svg width="104" height="60" viewBox="0 0 104 60" fill="none" xmlns="http://www.w3.org/2000/svg">
<path fill-rule="evenodd" clip-rule="evenodd" d="M29.8424 15H72.986C74.3098 15 75.5479 15.655 76.2927 16.7494L78.0583 19.3435L79.2369 17.5207L77.9461 15.6241C76.8289 13.9825 74.9717 13 72.986 13H29.8424C28.0226 13 26.3012 13.8259 25.1624 15.2453L15.6862 27.0566C13.7225 29.5042 13.9765 33.0515 16.2688 35.1944L25.2341 43.5754C26.3455 44.6144 27.8101 45.1923 29.3315 45.1923H61.3442L62.6374 43.1923H29.3315C28.3172 43.1923 27.3409 42.807 26.5999 42.1144L17.6346 33.7334C16.1064 32.3048 15.9371 29.9399 17.2462 28.3082L26.7224 16.4969C27.4816 15.5506 28.6292 15 29.8424 15Z" fill="#616161"/>
<g clip-path="url(#clip0_1428_122818)">
<path fill-rule="evenodd" clip-rule="evenodd" d="M47.8875 29.3106L43.3153 25.4741C42.9416 25.1605 42.8928 24.6033 43.2064 24.2295C43.5201 23.8558 44.0773 23.8071 44.451 24.1207L55.93 33.7527C56.3037 34.0663 56.3525 34.6235 56.0389 34.9972C55.7253 35.371 55.1681 35.4197 54.7943 35.1061L53.3375 33.8837L50.084 37.0983C49.5813 37.595 48.7372 37.2801 48.6648 36.6091L48.6598 36.5154L48.6598 30.8102L45.8438 33.0375C45.4839 33.3219 44.9589 33.2642 44.6711 32.9087C44.4054 32.5806 44.4346 32.1133 44.7237 31.8197L44.8014 31.7501L47.8875 29.3106ZM50.33 31.3601V34.5174L52.0581 32.8101L50.33 31.3601ZM48.6598 21.6775L48.6598 25.3799L50.33 26.7815V23.6641L52.4175 25.7265L50.6954 27.088L51.9928 28.1767L54.1868 26.4429L54.2725 26.365C54.483 26.1453 54.5489 25.8338 54.4616 25.5515L54.4201 25.4465L54.3829 25.3775L54.3597 25.3413C54.3298 25.2973 54.2951 25.2553 54.2556 25.2163L50.084 21.0947L50.0135 21.0319C49.482 20.608 48.6598 20.9751 48.6598 21.6775Z" fill="#616161"/>
</g>
<path d="M79.987 23.7362C81.176 21.9699 83.7754 21.9699 84.9644 23.7362L97.9272 42.9935C99.2686 44.9862 97.8406 47.6687 95.4385 47.6687H69.513C67.1108 47.6687 65.6829 44.9862 67.0243 42.9935L79.987 23.7362Z" fill="#F63F3F"/>
<ellipse cx="82.475" cy="41.5266" rx="1.31484" ry="1.31569" fill="white"/>
<rect x="81.1602" y="28.8125" width="2.62968" height="8.77132" rx="1.31484" fill="white"/>
<defs>
<clipPath id="clip0_1428_122818">
<rect width="18" height="18" fill="white" transform="translate(41 20.0391)"/>
</clipPath>
</defs>
</svg>
