<svg width="32" height="32" viewBox="0 0 32 32" fill="none" xmlns="http://www.w3.org/2000/svg">
<g clip-path="url(#clip0_2037_6835)">
<path fill-rule="evenodd" clip-rule="evenodd" d="M21.3883 27.9435C21.4518 27.6778 21.4395 27.4027 21.3525 27.1421C21.2654 26.8815 21.1063 26.6431 20.8889 26.4477C20.3963 26.005 20.4117 25.3006 20.9232 24.8743C21.4348 24.4481 22.2488 24.4614 22.7414 24.9041C23.2488 25.3601 23.6201 25.9162 23.8231 26.5243C24.0262 27.1325 24.0549 27.7743 23.9067 28.3942C23.7586 29.014 23.4381 29.5933 22.9729 30.0819C22.5078 30.5704 21.912 30.9535 21.2373 31.1979C20.5625 31.4424 19.8291 31.5408 19.1004 31.4847C18.3718 31.4285 17.67 31.2196 17.0557 30.8759C16.4414 30.5322 15.9332 30.0641 15.5751 29.5121C15.217 28.9602 15.0197 28.341 15.0004 27.7082C15.0001 27.6984 15 27.6886 15 27.6788V13.6127C15 12.9982 15.5757 12.5 16.2859 12.5C16.996 12.5 17.5717 12.9982 17.5717 13.6127V27.6623C17.5823 27.929 17.6665 28.1897 17.8176 28.4226C17.9711 28.6591 18.1889 28.8597 18.4521 29.007C18.7154 29.1543 19.0162 29.2439 19.3284 29.268C19.6407 29.292 19.955 29.2498 20.2442 29.1451C20.5334 29.0403 20.7887 28.8761 20.9881 28.6668C21.1874 28.4574 21.3248 28.2091 21.3883 27.9435Z" fill="white"/>
<path fill-rule="evenodd" clip-rule="evenodd" d="M23.6451 19.0506C23.682 18.8511 23.6714 18.6451 23.6141 18.4511C23.5568 18.257 23.4546 18.081 23.3168 17.9387C22.8567 17.4639 22.8494 16.6863 23.3005 16.202C23.7516 15.7177 24.4903 15.71 24.9503 16.1849C25.3639 16.6117 25.6703 17.1398 25.8422 17.7219C26.0141 18.3041 26.0461 18.922 25.9354 19.5204C25.8246 20.1188 25.5745 20.6788 25.2075 21.1504C24.8405 21.622 24.3681 21.9904 23.8326 22.2225C23.2971 22.4546 22.7153 22.5432 22.1392 22.4804C21.5632 22.4175 21.011 22.2052 20.5321 21.8625C20.0532 21.5197 19.6625 21.0572 19.3952 20.5164C19.1293 19.9784 18.9936 19.3797 19.0002 18.7734V13.7281C19.0002 13.0498 19.5226 12.5 20.1669 12.5C20.8112 12.5 21.3336 13.0498 21.3336 13.7281V18.7984C21.3309 19.0016 21.376 19.2023 21.4651 19.3826C21.5542 19.5628 21.6844 19.717 21.844 19.8313C22.0037 19.9455 22.1877 20.0163 22.3797 20.0372C22.5718 20.0582 22.7657 20.0286 22.9442 19.9513C23.1227 19.8739 23.2802 19.7511 23.4025 19.5939C23.5248 19.4367 23.6082 19.25 23.6451 19.0506Z" fill="white"/>
<path fill-rule="evenodd" clip-rule="evenodd" d="M12.9998 22.8178C13.0064 23.4169 12.8707 24.0085 12.6048 24.5401C12.3374 25.0744 11.9468 25.5314 11.4679 25.8701C10.989 26.2087 10.4368 26.4185 9.86075 26.4806C9.28471 26.5427 8.70287 26.4551 8.16737 26.2258C7.63188 25.9965 7.15946 25.6325 6.79247 25.1665C6.42548 24.7006 6.1754 24.1472 6.06463 23.5559C5.95385 22.9647 5.98586 22.3541 6.15777 21.7789C6.32969 21.2037 6.63614 20.6819 7.04965 20.2602C7.50974 19.791 8.24839 19.7986 8.69949 20.2771C9.15059 20.7557 9.1433 21.5239 8.68322 21.9931C8.54538 22.1337 8.44323 22.3076 8.38592 22.4994C8.32862 22.6911 8.31795 22.8946 8.35488 23.0917C8.3918 23.2888 8.47516 23.4733 8.59749 23.6286C8.71982 23.7839 8.87729 23.9052 9.05579 23.9817C9.23429 24.0581 9.42824 24.0873 9.62025 24.0666C9.81226 24.0459 9.99633 23.976 10.156 23.8631C10.3156 23.7502 10.4458 23.5979 10.5349 23.4198C10.624 23.2416 10.6693 23.0433 10.6666 22.8426L10.6663 22.8255L10.6664 13.7135C10.6664 13.0433 11.1888 12.5 11.8331 12.5C12.4774 12.5 12.9998 13.0433 12.9998 13.7135V22.8178Z" fill="white"/>
<path d="M4 12L1.18977 14.1077C0.621621 14.5338 0.666294 15.3998 1.27528 15.7652L3.57084 17.1425C4.21818 17.5309 4.21818 18.4691 3.57085 18.8575L1.42916 20.1425C0.781817 20.5309 0.781816 21.4691 1.42915 21.8575L3.57084 23.1425C4.21818 23.5309 4.21818 24.4691 3.57085 24.8575L1.27528 26.2348C0.666295 26.6002 0.621621 27.4662 1.18977 27.8923L4 30" stroke="white" stroke-opacity="0.5" stroke-width="1.5" stroke-linecap="round"/>
<path d="M28 12L30.8102 14.1077C31.3784 14.5338 31.3337 15.3998 30.7247 15.7652L28.4292 17.1425C27.7818 17.5309 27.7818 18.4691 28.4292 18.8575L30.5708 20.1425C31.2182 20.5309 31.2182 21.4691 30.5708 21.8575L28.4292 23.1425C27.7818 23.5309 27.7818 24.4691 28.4292 24.8575L30.7247 26.2348C31.3337 26.6002 31.3784 27.4662 30.8102 27.8923L28 30" stroke="white" stroke-opacity="0.5" stroke-width="1.5" stroke-linecap="round"/>
<path d="M5.31641 6.14453C5.31641 6.01758 5.29362 5.89876 5.24805 5.78809C5.20573 5.67741 5.13249 5.57324 5.02832 5.47559C4.9209 5.38118 4.78092 5.29492 4.6084 5.2168C4.43913 5.13542 4.22754 5.06055 3.97363 4.99219C3.57975 4.88477 3.23307 4.75456 2.93359 4.60156C2.63737 4.44857 2.39486 4.28092 2.20605 4.09863C2.01725 3.91634 1.87402 3.71452 1.77637 3.49316C1.68197 3.27181 1.63477 3.03092 1.63477 2.77051C1.63477 2.47103 1.69824 2.19922 1.8252 1.95508C1.95215 1.71094 2.12793 1.5026 2.35254 1.33008C2.57715 1.15755 2.84245 1.02572 3.14844 0.93457C3.45443 0.840169 3.78646 0.792969 4.14453 0.792969C4.51562 0.792969 4.85417 0.84668 5.16016 0.954102C5.4694 1.06152 5.7347 1.21126 5.95605 1.40332C6.17741 1.59863 6.34993 1.82975 6.47363 2.09668C6.59733 2.36361 6.65918 2.65658 6.65918 2.97559H5.32129C5.31478 2.81608 5.28548 2.6696 5.2334 2.53613C5.18457 2.40267 5.11133 2.28711 5.01367 2.18945C4.91276 2.09505 4.78743 2.02181 4.6377 1.96973C4.49121 1.91439 4.31868 1.88672 4.12012 1.88672C3.93783 1.88672 3.77507 1.90951 3.63184 1.95508C3.49186 1.9974 3.37305 2.05762 3.27539 2.13574C3.17773 2.21712 3.10286 2.31315 3.05078 2.42383C3.00195 2.53125 2.97754 2.64844 2.97754 2.77539C2.97754 2.90885 3.01009 3.0293 3.0752 3.13672C3.14355 3.24414 3.24121 3.34017 3.36816 3.4248C3.49512 3.5127 3.64811 3.59245 3.82715 3.66406C4.00944 3.73568 4.21452 3.80241 4.44238 3.86426C4.68652 3.93262 4.91927 4.01562 5.14062 4.11328C5.36198 4.21094 5.56543 4.32324 5.75098 4.4502C6.03092 4.65853 6.25391 4.90104 6.41992 5.17773C6.58594 5.45443 6.66895 5.77344 6.66895 6.13477C6.66895 6.44727 6.60547 6.72559 6.47852 6.96973C6.35482 7.21061 6.18229 7.41406 5.96094 7.58008C5.73958 7.74935 5.47591 7.87793 5.16992 7.96582C4.86393 8.05046 4.53027 8.09277 4.16895 8.09277C3.81413 8.09277 3.46257 8.04069 3.11426 7.93652C2.76921 7.8291 2.4681 7.67285 2.21094 7.46777C1.9668 7.26595 1.77311 7.02832 1.62988 6.75488C1.48991 6.48145 1.41992 6.16081 1.41992 5.79297H2.76758C2.77409 6.00781 2.81152 6.19173 2.87988 6.34473C2.94824 6.49772 3.04427 6.62305 3.16797 6.7207C3.28841 6.81836 3.43327 6.88997 3.60254 6.93555C3.77507 6.98112 3.96387 7.00391 4.16895 7.00391C4.35124 7.00391 4.51237 6.98275 4.65234 6.94043C4.79557 6.89811 4.91602 6.83952 5.01367 6.76465C5.11133 6.68978 5.1862 6.60026 5.23828 6.49609C5.29036 6.38867 5.31641 6.27148 5.31641 6.14453ZM12.3232 8H10.9658V4.91895H8.9541V8H7.5918V0.890625H8.9541V3.80566H10.9658V0.890625H12.3232V8ZM17.1328 6.51562H14.999L14.5791 8H13.1338L15.4629 0.890625H16.708L18.9932 8H17.5479L17.1328 6.51562ZM15.3359 5.34863H16.8105L16.083 2.73145L15.3359 5.34863ZM21.7617 5.08008L21.0098 5.90527V8H19.6328V0.890625H21.0098V4.14746L21.6543 3.27832L23.3828 0.890625H25.0625L22.6699 4.03516L25.1504 8H23.5195L21.7617 5.08008ZM30.0234 4.88477H27.1035V6.8916H30.5166V8H25.7266V0.890625H30.502V2.00879H27.1035V3.80078H30.0234V4.88477Z" fill="white"/>
</g>
<defs>
<clipPath id="clip0_2037_6835">
<rect width="32" height="32" fill="white"/>
</clipPath>
</defs>
</svg>
