<svg width="49" height="48" viewBox="0 0 49 48" fill="none" xmlns="http://www.w3.org/2000/svg">
<rect x="0.5" width="48" height="48" rx="24" fill="#FF8200" fill-opacity="0.2"/>
<path fill-rule="evenodd" clip-rule="evenodd" d="M16.1 23.7949C15.4373 23.7949 14.9 24.3459 14.9 25.0257V33.641C14.9 34.3208 15.4373 34.8718 16.1 34.8718H32.9C33.5627 34.8718 34.1 34.3208 34.1 33.641V25.0257C34.1 24.3459 33.5627 23.7949 32.9 23.7949H16.1ZM12.5 25.0257C12.5 22.9864 14.1118 21.3333 16.1 21.3333H32.9C34.8882 21.3333 36.5 22.9864 36.5 25.0257V33.641C36.5 35.6802 34.8882 37.3333 32.9 37.3333H16.1C14.1118 37.3333 12.5 35.6802 12.5 33.641V25.0257Z" fill="#FF8200"/>
<path fill-rule="evenodd" clip-rule="evenodd" d="M24.5333 12.8485C23.2367 12.8485 21.9932 13.3082 21.0764 14.1266C20.1595 14.9449 19.6444 16.0548 19.6444 17.2121V21.5758C19.6444 22.1783 19.0972 22.6667 18.4222 22.6667C17.7472 22.6667 17.2 22.1783 17.2 21.5758V17.2121C17.2 15.4762 17.9726 13.8113 19.3479 12.5838C20.7231 11.3563 22.5884 10.6667 24.5333 10.6667C26.4783 10.6667 28.3435 11.3563 29.7188 12.5838C31.094 13.8113 31.8667 15.4762 31.8667 17.2121V21.5758C31.8667 22.1783 31.3195 22.6667 30.6444 22.6667C29.9694 22.6667 29.4222 22.1783 29.4222 21.5758V17.2121C29.4222 16.0548 28.9071 14.9449 27.9903 14.1266C27.0735 13.3082 25.8299 12.8485 24.5333 12.8485Z" fill="#FF8200"/>
</svg>
