<svg width="97" height="40" viewBox="0 0 97 40" fill="none" xmlns="http://www.w3.org/2000/svg">
<path d="M14.9153 4.56568L9.81674 11.382L2.12905 21.8362C1.25749 23.1559 1.3238 23.8745 2.12905 25.1294L5.51482 29.7247L10.7329 36.4261C11.7215 37.6409 12.4869 38.0447 14.4373 37.9961H39.6514H75.5804H85.4194H92.1909C94.6406 37.3668 95.3544 36.4444 95.497 33.8221V24.1338V22.4106V19.1939C95.5297 17.5731 95.2987 16.7497 94.4216 15.4411L92.7884 13.3733L87.172 6.21231L85.4991 4.18274C83.952 2.48452 82.8733 2.22487 80.8785 2H78.4085H71.8362H61.5992H53.8716H37.6996H24.993H19.4562C17.2028 2.27593 16.335 3.02879 14.9153 4.56568Z" stroke="#007AFF" stroke-width="3"/>
<path d="M58.4438 14.6375L51.3063 7.5H50.0563V16.9875L44.3188 11.25L42.5563 13.0125L49.5438 20L42.5563 26.9875L44.3188 28.75L50.0563 23.0125V32.5H51.3063L58.4438 25.3625L53.0688 20L58.4438 14.6375ZM52.5563 12.2875L54.9063 14.6375L52.5563 16.9875V12.2875ZM54.9063 25.3625L52.5563 27.7125V23.0125L54.9063 25.3625Z" fill="#007AFF"/>
</svg>
