<svg width="32" height="32" viewBox="0 0 32 32" fill="none" xmlns="http://www.w3.org/2000/svg">
<path fill-rule="evenodd" clip-rule="evenodd" d="M12.9576 12.1765C12.969 12.1977 12.9805 12.2188 12.992 12.24C12.3362 12.7479 11.828 13.4218 11.52 14.192C10.707 14.0902 9.92759 13.8056 9.24035 13.3594C8.55311 12.9133 7.97588 12.3172 7.552 11.616C5.664 7.824 0 8 0 15.2C0 20.912 6.304 22.16 12.208 18.992C12.734 19.6496 13.4238 20.1573 14.208 20.464C14.0899 21.2675 13.7965 22.0352 13.3486 22.7127C12.9006 23.3901 12.3091 23.9607 11.616 24.384C7.824 26.272 8 32 15.136 32C20.864 32 22.144 25.648 18.944 19.744C19.232 19.5036 19.492 19.2336 19.7202 18.9391L17.75 16.969C17.4088 17.5838 16.753 18 16 18C14.8954 18 14 17.1046 14 16C14 15.247 14.4162 14.5912 15.031 14.25L12.9576 12.1765ZM27.3034 22.7511C29.5297 23.2205 32 21.5283 32 16.8C32 11.072 25.6 9.808 19.744 13.008C19.2167 12.3693 18.541 11.8694 17.776 11.552C17.8784 10.7393 18.1652 9.96081 18.6144 9.27589C19.0636 8.59097 19.6634 8.01775 20.368 7.6C24.16 5.712 24 0 16.8 0H16.768C12.8728 0 11.0502 2.99296 11.3054 6.75307L27.3034 22.7511Z" fill="white"/>
<path fill-rule="evenodd" clip-rule="evenodd" d="M0.390524 0.390524C0.911223 -0.130175 1.75544 -0.130175 2.27614 0.390524L31.6095 29.7239C32.1302 30.2446 32.1302 31.0888 31.6095 31.6095C31.0888 32.1302 30.2446 32.1302 29.7239 31.6095L0.390524 2.27614C-0.130175 1.75544 -0.130175 0.911223 0.390524 0.390524Z" fill="white"/>
</svg>
