<svg width="28" height="28" viewBox="0 0 28 28" fill="none" xmlns="http://www.w3.org/2000/svg">
<path fill-rule="evenodd" clip-rule="evenodd" d="M13.6461 0.504665C6.35345 0.694697 0.5 6.66608 0.5 14.0046C0.5 21.3431 6.35345 27.3145 13.6461 27.5046C13.6986 27.5077 13.7517 27.5092 13.8053 27.5092C13.8259 27.5092 13.8463 27.509 13.8667 27.5085C13.9126 27.509 13.9586 27.5092 14.0046 27.5092C21.463 27.5092 27.5092 21.463 27.5092 14.0046C27.5092 6.54622 21.463 0.5 14.0046 0.5C13.9586 0.5 13.9126 0.50023 13.8667 0.50069C13.8463 0.500231 13.8259 0.5 13.8053 0.5C13.7517 0.5 13.6986 0.501577 13.6461 0.504665ZM10.2235 3.66679C7.49629 4.66456 5.27422 6.71074 4.0453 9.31731H8.76854C8.985 7.68299 9.31293 6.19829 9.73103 4.94401C9.88022 4.49643 10.0441 4.06826 10.2235 3.66679ZM3 14.0046C3 13.2557 3.07481 12.5242 3.21738 11.8173H8.53316C8.49183 12.5302 8.47045 13.2611 8.47045 14.0046C8.47045 14.7828 8.49386 15.5471 8.53907 16.2915H3.23793C3.08201 15.5537 3 14.7888 3 14.0046ZM4.09285 18.7915C5.33103 21.3506 7.5311 23.3574 10.2235 24.3424C10.0441 23.941 9.88022 23.5128 9.73103 23.0652C9.32144 21.8364 8.99838 20.3865 8.78188 18.7915H4.09285ZM11.3069 18.7915C11.5026 20.1131 11.7753 21.2923 12.1027 22.2747C12.4481 23.3107 12.8317 24.0589 13.1971 24.5225C13.5171 24.9286 13.7205 24.996 13.7845 25.0071L13.822 25.0077C13.881 24.9989 14.0863 24.9378 14.4136 24.5225C14.7789 24.0589 15.1626 23.3107 15.5079 22.2747C15.8354 21.2923 16.1081 20.1131 16.3038 18.7915H11.3069ZM18.8288 18.7915C18.6123 20.3865 18.2892 21.8364 17.8796 23.0652C17.7104 23.573 17.5221 24.0558 17.3139 24.5029C20.2205 23.5876 22.6066 21.4985 23.9164 18.7915H18.8288ZM24.7713 16.2915H19.0716C19.1168 15.5471 19.1402 14.7828 19.1402 14.0046C19.1402 13.2611 19.1188 12.5302 19.0775 11.8173H24.7919C24.9344 12.5242 25.0092 13.2557 25.0092 14.0046C25.0092 14.7888 24.9272 15.5537 24.7713 16.2915ZM16.5666 16.2915H11.044C10.9959 15.5545 10.9705 14.7899 10.9705 14.0046C10.9705 13.2546 10.9937 12.5235 11.0377 11.8173H16.573C16.617 12.5235 16.6402 13.2546 16.6402 14.0046C16.6402 14.7899 16.6147 15.5545 16.5666 16.2915ZM18.8421 9.31731H23.9639C22.6649 6.56198 20.2561 4.43283 17.3139 3.50629C17.5221 3.95345 17.7104 4.43625 17.8796 4.94401C18.2977 6.19829 18.6256 7.68299 18.8421 9.31731ZM12.1027 5.73458C11.7671 6.74152 11.4889 7.95533 11.2923 9.31731H16.3183C16.1217 7.95533 15.8436 6.74152 15.5079 5.73458C15.1626 4.69855 14.7789 3.9503 14.4136 3.48675C14.0863 3.07142 13.881 3.01035 13.822 3.00149L13.7845 3.00216C13.7205 3.01324 13.5171 3.08065 13.1971 3.48675C12.8317 3.9503 12.4481 4.69855 12.1027 5.73458Z" fill="white" fill-opacity="0.9"/>
</svg>
