<svg width="18" height="18" viewBox="0 0 18 18" fill="none" xmlns="http://www.w3.org/2000/svg">
<path d="M12 7.5C12 10.5376 9.53757 13 6.5 13C5.41769 13 4.40839 12.6874 3.55748 12.1475L1 13L1.85249 10.4425C1.31262 9.59161 1 8.58231 1 7.5C1 4.46243 3.46243 2 6.5 2C9.53757 2 12 4.46243 12 7.5Z" stroke="white" stroke-width="1.5" stroke-linecap="round" stroke-linejoin="round"/>
<path d="M6.35156 13.2265C7.12569 15.3677 8.87389 16 11.3416 16C12.4553 16 13.4939 15.6874 14.3694 15.1475L17.0009 16L16.1237 13.4425L16.2577 13.2265C16.7307 12.4229 17.0009 11.4921 17.0009 10.5C17.0009 7.46244 14.501 6 12.3416 6L12.1295 6.00379L12.023 6.00929" stroke="white" stroke-width="1.5" stroke-linecap="round" stroke-linejoin="round"/>
</svg>
