<svg width="32" height="32" viewBox="0 0 32 32" fill="none" xmlns="http://www.w3.org/2000/svg">
<path fill-rule="evenodd" clip-rule="evenodd" d="M2 7.81817C2 7.06505 2.6268 6.45453 3.4 6.45453H28.6C29.3732 6.45453 30 7.06505 30 7.81817C30 8.57128 29.3732 9.1818 28.6 9.1818H3.4C2.6268 9.1818 2 8.57128 2 7.81817Z" fill="white"/>
<path fill-rule="evenodd" clip-rule="evenodd" d="M13.2 3.72727C12.8287 3.72727 12.4727 3.87094 12.2101 4.12667C11.9475 4.3824 11.8 4.72925 11.8 5.09091V6.45455H20.2V5.09091C20.2 4.72925 20.0525 4.3824 19.79 4.12667C19.5274 3.87094 19.1714 3.72727 18.8 3.72727H13.2ZM23 6.45455V5.09091C23 4.00593 22.5575 2.96539 21.7699 2.1982C20.9822 1.43101 19.914 1 18.8 1H13.2C12.0861 1 11.0179 1.43101 10.2302 2.1982C9.44255 2.96539 9.00005 4.00593 9.00005 5.09091V6.45455H6.20005C5.42685 6.45455 4.80005 7.06507 4.80005 7.81818V26.9091C4.80005 27.9941 5.24255 29.0346 6.0302 29.8018C6.81785 30.569 7.88614 31 9.00005 31H23C24.114 31 25.1822 30.569 25.9699 29.8018C26.7575 29.0346 27.2 27.9941 27.2 26.9091V7.81818C27.2 7.06507 26.5732 6.45455 25.8 6.45455H23ZM7.60005 9.18182V26.9091C7.60005 27.2708 7.74755 27.6176 8.0101 27.8733C8.27265 28.1291 8.62875 28.2727 9.00005 28.2727H23C23.3714 28.2727 23.7274 28.1291 23.99 27.8733C24.2525 27.6176 24.4 27.2707 24.4 26.9091V9.18182H7.60005Z" fill="white"/>
<path fill-rule="evenodd" clip-rule="evenodd" d="M13.1999 13.2727C13.9731 13.2727 14.5999 13.8832 14.5999 14.6363V22.8182C14.5999 23.5713 13.9731 24.1818 13.1999 24.1818C12.4267 24.1818 11.7999 23.5713 11.7999 22.8182V14.6363C11.7999 13.8832 12.4267 13.2727 13.1999 13.2727Z" fill="white"/>
<path fill-rule="evenodd" clip-rule="evenodd" d="M18.8 13.2727C19.5732 13.2727 20.2 13.8832 20.2 14.6363V22.8182C20.2 23.5713 19.5732 24.1818 18.8 24.1818C18.0268 24.1818 17.4 23.5713 17.4 22.8182V14.6363C17.4 13.8832 18.0268 13.2727 18.8 13.2727Z" fill="white"/>
</svg>
