<svg width="56" height="56" viewBox="0 0 56 56" fill="none" xmlns="http://www.w3.org/2000/svg">
<path d="M12.3455 18H44.2869C45.2459 18 46.147 18.4584 46.7117 19.2335L51.4247 25.7027C51.7986 26.2158 52 26.8344 52 27.4692V35C52 36.6569 50.6569 38 49 38H12.0021C11.2012 38 10.4335 37.6797 9.87003 37.1105L4.12688 31.3088C3.08454 30.2558 2.96701 28.5996 3.85021 27.4099L9.93678 19.2117C10.5027 18.4494 11.3961 18 12.3455 18Z" fill="#589DFF" stroke="#589DFF" stroke-width="2"/>
<g clip-path="url(#clip0_25_177)">
<path fill-rule="evenodd" clip-rule="evenodd" d="M31.9225 31.0059L31.9088 31.029L31.8712 31.0828L31.828 31.1335L28.5907 34.5781C28.2005 34.9932 27.5455 34.73 27.4892 34.1692L27.4854 34.0909L27.4854 29.3229L25.3 31.1843C25.0208 31.422 24.6133 31.3738 24.3899 31.0767C24.1838 30.8024 24.2065 30.4119 24.4308 30.1665L24.4911 30.1084L27.0962 27.8906L24.4911 25.6729C24.2118 25.4352 24.1666 25.0017 24.3899 24.7046C24.5961 24.4303 24.9592 24.3682 25.2334 24.5472L25.3 24.597L27.4854 26.4577L27.4854 21.6903C27.4854 21.1032 28.1235 20.7965 28.5359 21.1507L28.5907 21.2032L31.828 24.6478C31.8586 24.6804 31.8856 24.7155 31.9088 24.7523L31.9267 24.7825L31.9557 24.8402L31.9879 24.928C32.0556 25.1638 32.0045 25.4242 31.8411 25.6078L31.7746 25.6729L29.1688 27.8906L31.7746 30.1084C31.9468 30.2549 32.0287 30.4739 32.0164 30.6889C32.0123 30.7561 31.9999 30.8198 31.979 30.8811L31.9557 30.941L31.9225 31.0059ZM28.78 29.3234V32.4263L30.3999 30.7026L28.78 29.3234ZM28.78 26.4571V23.3542L30.3999 25.0778L28.78 26.4571Z" fill="#589DFF"/>
</g>
<path d="M31.1124 25.7715L28.0304 25.7656L27.579 21.1348C27.4695 20.0911 26.5177 20.1594 26.3441 20.9507L24.4928 29.2521C24.4075 29.846 24.6148 30.2657 25.0957 30.3316L28.1848 30.3422L28.6386 35.0257C28.7532 35.9632 29.6487 35.9655 29.8703 35.1612L31.7236 26.8582C31.8098 26.2841 31.5568 25.8179 31.1124 25.7715Z" fill="white"/>
<defs>
<clipPath id="clip0_25_177">
<rect width="13" height="14" fill="white" transform="translate(22 21)"/>
</clipPath>
</defs>
</svg>
