<svg width="238" height="100" viewBox="0 0 238 100" fill="none" xmlns="http://www.w3.org/2000/svg">
<g clip-path="url(#clip0_1158_8936)">
<path d="M48.07 0.702511H196.982C201.565 0.819607 206.267 1.87347 210.028 6.20602C213.788 10.5386 229.89 30.4449 231.536 32.5526C233.181 34.6604 234.944 37.3536 235.414 41.8032C235.884 46.2529 237.177 76.1124 237.177 80.2107C237.177 84.5433 235.884 86.2997 234.944 88.2903C234.004 90.0468 232.593 92.9742 231.653 94.7306C230.713 96.4871 227.54 99.1803 222.486 99.2974H37.8448C32.4384 99.2974 27.9722 97.3067 25.0339 93.3255C22.0957 89.4613 5.99395 67.3301 5.28876 66.1592C4.11345 64.2856 3.17321 61.3582 1.52777 58.0796C0.469997 55.9718 -0.000126421 52.6931 2.70308 48.9461C5.52382 45.199 33.026 9.60181 35.4942 6.7915C37.9623 3.8641 42.1935 0.585415 48.07 0.702511Z" fill="#4F4A54"/>
<path d="M37.7274 100C32.2034 100 27.6197 97.8923 24.5639 93.7939C21.8607 90.1639 5.40641 67.7986 4.70122 66.5105C3.99604 65.3396 3.40838 63.9344 2.7032 62.2951C2.23307 61.1241 1.64542 59.719 0.940234 58.3138C0.235048 56.9087 -1.05779 53.1616 2.23307 48.5948C5.17134 44.6136 32.7911 9.01639 35.0242 6.32318C37.0222 3.98126 41.4884 0 47.9526 0H48.0701H196.982C200.743 0.117096 206.267 0.819672 210.615 5.73771C212.848 8.43091 220.135 17.3302 231.653 31.4988L232.123 32.0843C233.886 34.3091 235.649 37.0023 236.12 41.6862C236.707 46.37 237.882 76.2295 237.882 80.2108C237.882 84.192 236.825 86.1827 235.884 87.9391C235.767 88.1733 235.649 88.4075 235.532 88.6417C234.592 90.3981 233.181 93.3255 232.241 95.082C231.301 96.9555 227.892 99.8829 222.486 100H37.8449H37.7274ZM47.9526 1.28806C41.9585 1.28806 37.8449 4.91803 35.9644 7.14286C33.7313 9.83607 6.11159 45.3162 3.29085 49.2974C0.352579 53.2787 1.41036 56.4403 2.11554 57.7283C2.82073 59.1335 3.40838 60.5386 3.99604 61.8267C4.70122 63.466 5.28888 64.7541 5.87653 65.808C6.46418 66.8618 22.6834 88.993 25.6217 92.9742C28.4425 96.7213 32.6736 98.7119 37.8449 98.7119H222.721C227.54 98.5948 230.478 96.1358 231.301 94.4965C232.241 92.6229 233.651 89.8126 234.592 88.0562C234.709 87.822 234.827 87.5878 234.944 87.3536C235.884 85.7143 236.707 83.9578 236.825 80.2108C236.825 75.644 235.532 46.1358 235.062 41.8033C234.592 37.4707 232.946 34.8946 231.301 32.904L230.831 32.3185C216.374 14.4028 211.438 8.43091 209.793 6.55738C206.737 3.0445 202.741 1.40515 197.217 1.28806H48.3052C48.0701 1.28806 47.9526 1.28806 47.9526 1.28806Z" fill="#231F20"/>
<path d="M32.0859 91.9205C26.6795 91.9205 23.8588 89.8127 17.2771 80.7963C10.9304 72.2483 2.11558 59.9532 1.99805 59.8362L2.5857 59.4849C2.70323 59.602 11.4005 71.897 17.7472 80.4451C24.2114 89.2273 26.9146 91.2179 32.0859 91.2179H226.482C230.361 90.9837 234.357 89.1102 235.414 87.0024L236.002 87.3537C234.827 89.6956 230.596 91.8034 226.482 91.9205H32.0859Z" fill="#231F20"/>
<path d="M193.691 3.39575C198.392 3.39575 201.448 3.98123 204.504 7.61121C207.559 11.2412 225.659 33.6065 227.187 35.4801C228.715 37.3536 230.008 40.1639 230.008 43.2084C230.008 46.2529 230.713 60.5386 230.478 64.2857C230.243 68.1499 227.069 70.9602 222.956 71.0773H49.3628C43.8389 70.9602 41.4883 69.555 38.9026 66.8618C36.3169 64.0515 29.6177 56.9086 27.6196 54.3325C25.3865 51.5222 26.4443 49.4145 27.7372 47.4239C29.2651 45.5503 51.0083 12.8805 53.1238 9.48475C55.1219 6.20606 58.8828 3.39575 63.4665 3.39575H193.691Z" fill="#4F4A54"/>
<path d="M49.4804 71.5457C43.8389 71.4286 41.4883 70.0235 38.7851 67.2132C36.0819 64.4028 29.5002 57.1429 27.5021 54.5668C25.1515 51.6394 26.2093 49.2975 27.6197 47.3068C29.1476 45.1991 50.8908 12.5293 52.7713 9.36771C55.2394 5.50354 59.1179 3.16162 63.349 3.16162H193.573C198.51 3.16162 201.565 3.8642 204.621 7.49417C207.677 11.1242 226.012 33.7237 227.305 35.363C229.068 37.7049 230.125 40.6324 230.125 43.3256C230.125 44.3794 230.243 46.7213 230.36 49.4146C230.595 55.0352 230.831 61.9438 230.713 64.4028C230.478 68.3841 227.187 71.4286 222.956 71.5457H49.4804ZM63.4666 3.7471C59.4705 3.7471 55.7095 5.97193 53.4765 9.719C51.4784 12.8806 29.6177 45.5504 28.2073 47.6581C27.032 49.4146 25.8567 51.4052 28.0898 54.0984C30.0878 56.6745 36.6695 63.8174 39.3728 66.6277C41.9584 69.3209 44.1915 70.726 49.5979 70.726H223.191C227.07 70.6089 230.125 67.7986 230.36 64.1687C230.478 61.7096 230.243 54.4497 230.008 49.1804C229.89 46.4872 229.773 44.1452 229.773 43.0914C229.773 39.3443 227.892 36.534 227.07 35.5972C225.659 33.9579 207.442 11.3583 204.269 7.84546C201.33 4.44968 198.392 3.8642 193.691 3.7471H63.4666Z" fill="#231F20"/>
<path d="M224.837 46.3701C227.775 50.1171 225.777 59.2506 219.313 60.3045H180.763C167.482 60.1874 153.966 49.2975 154.083 33.7237C154.201 18.1499 167.717 8.19678 181.115 8.19678C193.338 8.31387 200.86 16.7448 201.566 17.7987C203.799 20.7261 222.251 43.0914 224.837 46.3701Z" fill="#4F4A54"/>
<path d="M180.763 60.6557C174.063 60.6557 167.247 57.8454 162.193 53.0444C156.669 47.8922 153.73 40.9835 153.73 33.6065C153.848 17.5643 167.952 7.72827 180.998 7.72827H181.115C194.161 7.84537 201.801 17.3301 201.801 17.4472C202.858 18.8524 207.677 24.5901 212.613 30.7962C218.02 37.4707 223.661 44.3793 225.072 46.1358C226.717 48.1264 226.952 51.8735 225.659 55.0351C224.484 58.0796 222.133 60.0702 219.313 60.5386L180.763 60.6557ZM180.998 8.43085C168.304 8.43085 154.553 18.0327 154.436 33.6065C154.436 40.7493 157.374 47.5409 162.663 52.459C167.717 57.1428 174.298 59.836 180.763 59.836H219.313C221.781 59.3676 223.896 57.6112 225.072 54.6838C226.247 51.7564 226.012 48.3606 224.602 46.4871C223.191 44.7306 217.667 37.8219 212.143 31.1475C207.089 25.0585 202.388 19.2037 201.33 17.7985C201.213 17.6814 193.809 8.43085 181.115 8.31375C180.998 8.43085 180.998 8.43085 180.998 8.43085Z" fill="#231F20"/>
<path d="M173.711 94.0281H201.8C202.858 94.0281 203.916 95.3161 201.918 95.4332H173.358C172.535 95.4332 171.83 94.3794 173.711 94.0281Z" fill="#4F4A54"/>
<path d="M173.358 95.7845C172.77 95.7845 172.3 95.3161 172.3 94.8477C172.3 94.4964 172.418 93.9109 173.711 93.6768H201.801C202.623 93.6768 203.328 94.2622 203.328 94.8477C203.328 95.199 203.093 95.6674 201.918 95.7845H173.358ZM173.711 94.3793C173.005 94.4964 172.888 94.7306 172.888 94.8477C172.888 94.9648 173.123 95.199 173.358 95.199H201.918C202.506 95.199 202.741 94.9648 202.741 94.9648C202.741 94.8477 202.388 94.4964 201.801 94.4964L173.711 94.3793Z" fill="#231F20"/>
<path d="M229.655 94.1452C230.008 94.2623 230.008 96.1358 226.835 96.8384C222.016 98.0094 219.783 97.1897 220.488 96.0188C221.193 94.8478 222.016 95.5504 225.424 94.9649C228.833 94.3794 228.833 93.6768 229.655 94.1452Z" fill="#4F4A54"/>
<path d="M222.839 97.7752C221.546 97.7752 220.606 97.541 220.253 97.0726C220.018 96.7213 220.018 96.37 220.253 96.0187C220.723 95.1991 221.428 95.082 222.486 95.082C223.191 95.082 224.131 94.9649 225.424 94.8478C227.07 94.6136 227.892 94.2623 228.363 94.0281C228.95 93.7939 229.303 93.6768 229.773 94.0281C230.008 94.1452 230.126 94.3794 230.126 94.7307C230.126 95.082 229.89 96.7213 226.952 97.3068C225.424 97.541 223.896 97.7752 222.839 97.7752ZM229.185 94.3794C229.068 94.3794 228.95 94.3794 228.598 94.4965C228.01 94.7307 227.187 95.082 225.542 95.3162C224.249 95.5504 223.309 95.5503 222.604 95.6674C221.428 95.6674 221.193 95.7845 220.841 96.2529C220.723 96.4871 220.841 96.6042 220.841 96.6042C221.193 97.0726 223.074 97.4239 226.952 96.4871C228.715 96.1358 229.303 95.4333 229.538 94.9649C229.655 94.7307 229.655 94.4965 229.655 94.3794C229.42 94.3794 229.303 94.3794 229.185 94.3794Z" fill="#231F20"/>
<path d="M180.997 10.0704C195.336 10.3046 206.031 22.1313 206.031 33.9579C205.914 46.3701 196.041 58.0797 181.703 58.0797C167.364 57.9626 155.846 47.3069 155.963 33.3725C156.081 20.0235 167.716 9.83617 180.997 10.0704Z" fill="#AAAAAA"/>
<path d="M181.938 58.431H181.82C167.011 58.3139 155.493 47.3069 155.611 33.2554C155.611 27.0493 158.196 21.1945 162.663 16.7448C167.481 12.061 174.181 9.48486 181.115 9.48486C196.276 9.71906 206.737 22.4825 206.619 33.8408C206.502 45.7846 197.099 58.431 181.938 58.431ZM180.527 10.5387C174.063 10.5387 167.834 12.9977 163.25 17.4474C158.902 21.6628 156.433 27.2835 156.433 33.2554C156.316 46.7214 167.481 57.3771 181.703 57.4942H181.82C196.394 57.4942 205.444 45.3162 205.444 33.9579C205.444 23.1851 195.454 10.89 180.88 10.6558C180.88 10.5387 180.762 10.5387 180.527 10.5387Z" fill="#231F20"/>
<path d="M215.552 42.74C220.606 42.74 223.661 46.8384 223.661 50.5854C223.661 54.2154 221.076 58.0796 215.904 58.0796C210.968 57.9625 207.795 53.9812 207.795 50.2341C207.912 46.4871 211.086 42.8571 215.552 42.74Z" fill="#AAAAAA"/>
<path d="M216.022 58.665H215.904C213.554 58.665 211.321 57.7283 209.675 56.0889C208.147 54.4496 207.324 52.3418 207.324 50.3512C207.442 46.6041 210.615 42.5058 215.669 42.3887C218.137 42.3887 220.37 43.3254 222.016 45.0819C223.426 46.6041 224.249 48.7119 224.249 50.8196C224.249 52.9273 223.426 55.035 221.898 56.5573C220.37 57.8453 218.372 58.665 216.022 58.665ZM215.669 43.3254C211.203 43.3254 208.382 46.9554 208.265 50.2341C208.265 52.1076 208.97 53.8641 210.38 55.2692C211.791 56.7915 213.789 57.6112 215.904 57.6112C218.02 57.6112 219.9 57.0257 221.193 55.6205C222.486 54.3325 223.191 52.4589 223.191 50.5854C223.191 48.7119 222.486 46.9554 221.193 45.5503C220.253 44.6135 218.49 43.3254 215.669 43.3254Z" fill="#231F20"/>
<path d="M181.585 53.8641C181.232 53.8641 180.997 53.747 180.762 53.3957C180.527 53.1615 179.234 51.0538 178.059 49.0632L177.471 48.0093C177.236 47.5409 177.119 47.0725 177.354 46.8383C177.471 46.7213 177.707 46.4871 178.177 46.4871C178.647 46.4871 180.292 46.4871 181.82 46.4871C183.113 46.4871 184.406 46.4871 184.758 46.4871C185.346 46.4871 185.581 46.8383 185.699 46.9554C185.816 47.1896 185.816 47.658 185.581 47.8922C185.464 48.0093 185.229 48.5948 184.758 49.2974C183.701 51.1709 182.643 53.0444 182.408 53.3957C182.173 53.747 181.82 53.8641 181.585 53.8641ZM178.059 47.0725C177.942 47.0725 177.942 47.0725 177.942 47.1896C177.942 47.3067 177.942 47.5409 178.059 47.7751L178.647 48.7119C179.47 50.117 181.115 52.8102 181.35 53.0444C181.468 53.1615 181.585 53.2786 181.703 53.2786C181.82 53.2786 181.938 53.1615 181.938 53.0444C182.173 52.6931 183.466 50.4683 184.288 49.0632C184.641 48.3606 184.993 47.8922 185.111 47.658C185.229 47.5409 185.229 47.4238 185.111 47.3067C185.111 47.1896 184.876 47.1896 184.758 47.1896C184.406 47.1896 183.231 47.1896 181.82 47.1896C180.175 47.0725 178.647 47.0725 178.059 47.0725Z" fill="#231F20"/>
<path d="M166.894 37.4706C166.659 37.4706 166.541 37.4706 166.189 37.3535C165.836 37.2365 163.25 35.8313 160.9 34.4261L160.312 34.0749C159.842 33.8407 159.724 33.4894 159.724 33.2552C159.724 32.9039 159.959 32.5526 160.43 32.3184C160.782 32.0842 163.015 30.9133 164.426 30.0936L165.718 29.391C166.071 29.1568 166.659 28.9226 167.011 29.1568C167.481 29.391 167.364 29.9765 167.364 30.0936C167.364 30.7962 167.364 34.5432 167.481 35.9484V36.4168C167.481 36.7681 167.364 37.1194 167.129 37.2364C167.246 37.4706 167.011 37.4706 166.894 37.4706ZM166.776 29.8594C166.659 29.8594 166.541 29.8594 166.189 30.0936L164.896 30.7962C163.368 31.6158 161.252 32.7868 160.9 33.021C160.665 33.1381 160.547 33.2552 160.547 33.3723C160.547 33.4894 160.665 33.4894 160.782 33.6065L161.37 33.9578C162.663 34.6603 166.189 36.651 166.541 36.8852C166.894 37.0023 167.011 37.0023 167.011 37.0023C167.011 37.0023 167.011 36.8852 167.011 36.7681V36.2997C167.011 34.8945 166.894 31.1475 166.894 30.4449H167.246H166.894C166.894 29.9765 166.894 29.8594 166.776 29.8594Z" fill="#231F20"/>
<path d="M195.806 37.4707C195.689 37.4707 195.454 37.4707 195.336 37.3536C195.101 37.2365 194.866 37.0023 194.866 36.4168C194.866 36.0655 194.866 35.2458 194.866 34.3091C194.866 32.7868 194.749 30.9133 194.866 30.3278C194.866 29.8594 194.984 29.5081 195.336 29.2739C195.689 29.0397 196.159 29.1568 196.864 29.5081C197.452 29.8594 200.86 31.8501 201.801 32.4355L202.036 32.5526C202.388 32.7868 202.623 33.021 202.623 33.3723C202.623 33.6065 202.506 33.9578 201.918 34.3091C201.213 34.7775 197.099 37.1194 196.629 37.3536C196.277 37.4707 196.042 37.4707 195.806 37.4707ZM195.454 30.3278C195.454 31.0304 195.454 32.7868 195.454 34.3091C195.454 35.2458 195.454 36.0655 195.454 36.4168C195.454 36.5339 195.454 36.7681 195.571 36.7681C195.689 36.8852 195.806 36.7681 196.042 36.651C196.512 36.4168 200.625 34.0749 201.33 33.6065C201.565 33.4894 201.683 33.2552 201.683 33.2552C201.683 33.1381 201.565 33.1381 201.448 33.021L201.213 32.9039C200.273 32.3184 196.864 30.4449 196.277 30.0936C195.806 29.8594 195.454 29.7423 195.454 29.8594C195.454 29.8594 195.454 30.0936 195.454 30.3278Z" fill="#231F20"/>
<path d="M184.288 20.4917C183.936 20.4917 179.587 20.4917 178.177 20.4917H177.589C177.119 20.4917 176.766 20.3746 176.649 20.0233C176.531 19.9062 176.414 19.5549 176.649 18.9695C176.766 18.6182 177.472 17.5643 178.177 16.3933C178.882 15.3395 179.47 14.2856 179.705 13.8172C180.057 13.3488 180.292 12.9976 180.645 12.9976C180.998 12.9976 181.233 13.1147 181.468 13.583C181.585 13.8172 182.29 14.8711 182.996 16.0421C183.818 17.3301 184.641 18.7353 184.876 18.9695C185.111 19.3207 185.111 19.672 184.994 20.0233C184.994 20.2575 184.641 20.4917 184.288 20.4917ZM177.589 19.7891H178.177C180.88 19.7891 184.053 19.7891 184.288 19.7891C184.406 19.7891 184.523 19.7891 184.523 19.672C184.641 19.5549 184.523 19.4378 184.406 19.3207C184.171 18.9695 183.348 17.6814 182.525 16.2762C181.82 15.1053 181.115 14.0514 180.998 13.8172C180.88 13.583 180.762 13.583 180.762 13.583C180.762 13.583 180.527 13.7001 180.292 14.0514C180.057 14.5198 179.352 15.5737 178.764 16.6275C178.059 17.7985 177.354 18.8524 177.237 19.2036C177.119 19.3207 177.119 19.4378 177.119 19.5549C177.354 19.7891 177.472 19.7891 177.589 19.7891Z" fill="#231F20"/>
<path d="M217.902 54.0984H213.436V52.342H217.667C218.372 52.342 218.842 51.4052 218.842 50.8197C218.842 50.5855 218.725 50.1172 218.607 49.7659C218.372 49.4146 218.137 49.1804 217.785 49.1804H214.024V50.3514L210.85 48.2436L214.024 46.0188V47.3069H217.667C218.49 47.3069 219.313 47.7752 220.018 48.4778C220.605 49.1804 220.84 50.0001 220.84 50.7026C220.84 51.6394 220.605 52.4591 220.018 53.0446C219.43 53.7471 218.725 54.0984 217.902 54.0984ZM214.141 53.3959H217.902C218.49 53.3959 219.078 53.1617 219.548 52.5762C220.018 52.1078 220.253 51.4052 220.253 50.5855C220.253 50.0001 220.018 49.2975 219.548 48.712C219.078 48.1265 218.49 47.7752 217.785 47.7752H213.554V47.0727L212.261 48.0094L213.554 48.8291V48.2436H217.902C218.49 48.2436 219.078 48.5949 219.313 49.1804C219.665 49.7659 219.665 50.3514 219.665 50.5855C219.665 51.5223 218.96 52.6933 217.902 52.6933H214.259L214.141 53.3959Z" fill="#231F20"/>
<path d="M156.669 56.0889C157.491 56.0889 158.196 56.9085 158.196 57.6111C158.196 58.1966 157.726 59.0163 156.786 58.8992C155.846 58.7821 155.141 58.3137 155.141 57.494C155.141 56.7914 155.728 56.0889 156.669 56.0889Z" fill="#4F4A54"/>
<path d="M156.786 59.2505C155.728 59.2505 154.788 58.5479 154.906 57.6112C154.906 56.6744 155.728 55.8547 156.669 55.8547C157.726 55.8547 158.432 56.7915 158.432 57.7283C158.432 58.4308 157.844 59.2505 156.786 59.2505ZM156.669 56.4402C156.081 56.4402 155.493 56.9086 155.493 57.6112C155.493 58.1967 156.081 58.665 156.786 58.665C157.491 58.665 157.844 58.0796 157.844 57.6112C157.726 57.1428 157.256 56.4402 156.669 56.4402Z" fill="#231F20"/>
<path d="M181.468 42.0374C178.882 42.0374 176.414 40.9835 174.768 39.3442C173.24 37.8219 172.418 35.7142 172.535 33.3723C172.653 27.7516 177.707 25.1755 181.233 25.1755C183.466 25.1755 185.581 26.1123 187.227 27.7517C188.872 29.391 189.812 31.4987 189.695 33.7235C189.695 35.9484 188.872 38.0561 187.344 39.5783C185.934 41.1006 183.818 42.0374 181.468 42.0374ZM181.233 26.1123C178.059 26.1123 173.593 28.3371 173.593 33.3723C173.593 35.3629 174.298 37.2364 175.591 38.5245C177.119 40.0467 179.352 40.9835 181.585 40.9835C183.583 40.9835 185.464 40.2809 186.756 38.8758C188.049 37.4706 188.872 35.7142 188.872 33.7235C188.872 31.7329 188.049 29.8594 186.639 28.4542C185.111 26.932 183.113 26.2294 181.233 26.1123Z" fill="#231F20"/>
<path d="M142.917 60.3045H63.5841C60.4107 60.3045 57.7075 57.7284 57.7075 54.4497V13.7003C57.7075 10.5387 60.2932 7.84546 63.5841 7.84546H142.917C146.091 7.84546 148.794 10.4216 148.794 13.7003V54.4497C148.794 57.7284 146.208 60.3045 142.917 60.3045Z" fill="#4F4A54"/>
<path d="M142.917 60.89H63.5841C60.0581 60.89 57.1199 58.0797 57.1199 54.4497V13.7003C57.1199 10.1874 59.9406 7.26001 63.5841 7.26001H142.917C146.443 7.26001 149.382 10.1874 149.382 13.7003V54.4497C149.382 58.0797 146.443 60.89 142.917 60.89ZM63.5841 8.54807C60.6458 8.54807 58.2952 10.89 58.2952 13.8174V54.5668C58.2952 57.4942 60.6458 59.8361 63.5841 59.8361H142.917C145.856 59.8361 148.206 57.4942 148.206 54.5668V13.7003C148.206 10.7729 145.856 8.43097 142.917 8.43097H63.5841V8.54807Z" fill="#231F20"/>
<path d="M142.682 57.4941H64.0541C62.1737 57.4941 60.6458 55.9718 60.6458 54.0983V13.9344C60.6458 12.0608 62.1737 10.5386 64.0541 10.5386H142.565C144.445 10.5386 145.973 12.0608 145.973 13.9344V54.0983C146.091 55.9718 144.563 57.4941 142.682 57.4941Z" fill="#AAAAAA"/>
<path d="M142.682 57.8453H64.0542C61.9386 57.8453 60.2932 56.206 60.2932 54.0983V13.9343C60.2932 11.8266 61.9386 10.1873 64.0542 10.1873H142.565C144.68 10.1873 146.326 11.8266 146.326 13.9343V54.0983C146.326 56.206 144.68 57.8453 142.682 57.8453ZM64.0542 10.8898C62.4088 10.8898 60.9984 12.295 60.9984 13.9343V54.0983C60.9984 55.7376 62.4088 57.1428 64.0542 57.1428H142.565C144.21 57.1428 145.621 55.7376 145.621 54.0983V13.9343C145.621 12.295 144.21 10.8898 142.565 10.8898H64.0542Z" fill="#231F20"/>
<path d="M84.6222 81.9673L84.152 85.1288H81.9189L83.2118 76.9321H98.7259L98.4908 78.8057H85.0923L84.8572 80.0937H98.1382L97.9032 81.9673H84.6222Z" fill="#AAAAAA"/>
<path d="M101.782 76.9321L100.842 83.2553H114.123L113.887 85.1288H98.2559L99.5487 76.9321H101.782Z" fill="#AAAAAA"/>
<path d="M118.236 76.9321L116.943 85.1288H114.71L116.003 76.9321H118.236Z" fill="#AAAAAA"/>
<path d="M120.587 81.9673L120.116 85.1288H117.883L119.176 76.9321H132.457C133.045 76.9321 133.632 77.1663 133.985 77.5176C134.338 77.8689 134.573 78.3373 134.455 78.8057L134.22 80.0937C134.103 80.5621 133.867 81.0305 133.397 81.3818C132.927 81.7331 132.34 81.9673 131.752 81.9673H120.587ZM121.057 78.8057L120.822 80.0937H131.869L132.105 78.8057H121.057Z" fill="#AAAAAA"/>
<path d="M136.923 81.9673L136.453 85.1288H134.22L135.513 76.9321H148.794C149.382 76.9321 149.969 77.1663 150.322 77.5176C150.675 77.8689 150.91 78.3373 150.792 78.8057L150.557 80.0937C150.439 80.5621 150.204 81.0305 149.734 81.3818C149.264 81.7331 148.677 81.9673 148.089 81.9673H136.923ZM137.394 78.8057L137.158 80.0937H148.206L148.441 78.8057H137.394Z" fill="#AAAAAA"/>
<path d="M166.424 83.2553L166.189 85.1288H150.675L151.967 76.9321H167.481L167.246 78.8057H153.965L153.73 80.0937H166.894L166.659 81.9673H153.378L153.143 83.2553H166.424Z" fill="#AAAAAA"/>
<path d="M169.714 81.9673L169.244 85.1288H167.011L168.304 76.9321H181.585C182.173 76.9321 182.76 77.1663 183.113 77.5176C183.466 77.8689 183.701 78.3373 183.583 78.8057L183.348 80.0937C183.348 80.3279 183.113 80.5621 182.878 80.7963C182.643 80.9134 182.408 81.0305 182.173 81.0305C182.408 81.0305 182.643 81.1476 182.878 81.2647C183.113 81.4989 183.113 81.616 183.113 81.9673L182.643 85.1288H180.41L180.88 81.9673H169.714ZM180.997 80.0937L181.232 78.8057H170.185L169.95 80.0937H180.997Z" fill="#AAAAAA"/>
<path d="M101.899 41.9204H101.194H100.606H99.9011V42.623H100.606H101.194H101.899H102.487H103.192V41.9204H102.487H101.899Z" fill="black"/>
<path d="M82.2715 41.9204H81.6838V42.5059H82.2715H82.9767V41.9204H82.2715Z" fill="black"/>
<path d="M69.2948 41.6929L69.2913 42.3955L69.9964 42.3992L70 41.6966L69.2948 41.6929Z" fill="black"/>
<path d="M67.9975 41.793L67.9939 42.4956L68.6991 42.4993L68.7027 41.7967L67.9975 41.793Z" fill="black"/>
<path d="M66.7011 41.7757L66.6975 42.4783L67.4027 42.4819L67.4063 41.7793L66.7011 41.7757Z" fill="black"/>
<path d="M104.485 41.3349H103.78V40.6323H103.192H102.487V41.3349H103.192V41.9204H103.78L104.485 42.0375H105.19H105.778V41.3349H105.19H104.485Z" fill="black"/>
<path d="M81.0319 41.2015L81.0283 41.9041L81.7335 41.9077L81.7371 41.2051L81.0319 41.2015Z" fill="black"/>
<path d="M69.8927 41.1138L69.8892 41.8164L70.5943 41.8201L70.5979 41.1175L69.8927 41.1138Z" fill="black"/>
<path d="M68.5959 41.0967L68.5923 41.7993L69.2975 41.803L69.301 41.1004L68.5959 41.0967Z" fill="black"/>
<path d="M67.2992 41.0797L67.2957 41.7822L68.0008 41.7859L68.0044 41.0833L67.2992 41.0797Z" fill="black"/>
<path d="M66.0028 41.0626L65.9993 41.7651L66.7045 41.7688L66.708 41.0662L66.0028 41.0626Z" fill="black"/>
<path d="M106.483 40.7494L105.778 40.6323V41.3349H106.483H107.07H107.776V40.7494H107.07H106.483Z" fill="black"/>
<path d="M70.6086 40.4183L70.605 41.1208L71.3101 41.1245L71.3137 40.4219L70.6086 40.4183Z" fill="black"/>
<path d="M69.3119 40.4012L69.3083 41.1038L70.0135 41.1074L70.0171 40.4048L69.3119 40.4012Z" fill="black"/>
<path d="M68.0153 40.3839L68.0117 41.0864L68.7169 41.0901L68.7205 40.3875L68.0153 40.3839Z" fill="black"/>
<path d="M66.7182 40.4839L66.7146 41.1865L67.4198 41.1902L67.4234 40.4876L66.7182 40.4839Z" fill="black"/>
<path d="M65.4215 40.4669L65.418 41.1694L66.1232 41.1731L66.1267 40.4705L65.4215 40.4669Z" fill="black"/>
<path d="M107.776 40.0469V40.7495H108.363H109.068V40.0469H108.363H107.776Z" fill="black"/>
<path d="M101.899 40.6324H102.487V40.0469H101.899H101.194V40.6324H101.899Z" fill="black"/>
<path d="M69.9098 39.8221L69.9062 40.5247L70.6114 40.5283L70.615 39.8257L69.9098 39.8221Z" fill="black"/>
<path d="M68.6132 39.805L68.6096 40.5076L69.3148 40.5112L69.3184 39.8087L68.6132 39.805Z" fill="black"/>
<path d="M67.3166 39.7877L67.313 40.4902L68.0182 40.4939L68.0218 39.7913L67.3166 39.7877Z" fill="black"/>
<path d="M66.0199 39.7706L66.0164 40.4731L66.7215 40.4768L66.7251 39.7742L66.0199 39.7706Z" fill="black"/>
<path d="M64.7233 39.7535L64.7197 40.4561L65.4249 40.4597L65.4285 39.7571L64.7233 39.7535Z" fill="black"/>
<path d="M69.329 39.1092L69.3254 39.8118L70.0306 39.8154L70.0342 39.1128L69.329 39.1092Z" fill="black"/>
<path d="M68.0326 39.0921L68.0291 39.7947L68.7342 39.7983L68.7378 39.0958L68.0326 39.0921Z" fill="black"/>
<path d="M66.7353 39.1922L66.7317 39.8948L67.4369 39.8984L67.4405 39.1959L66.7353 39.1922Z" fill="black"/>
<path d="M65.4386 39.1751L65.4351 39.8777L66.1402 39.8813L66.1438 39.1788L65.4386 39.1751Z" fill="black"/>
<path d="M110.361 38.7588H109.656H109.069H108.363H107.776H107.071H106.483H105.778H105.19H104.485H103.897H103.192H102.487H101.899H101.194H100.606H99.9011H99.3135V38.0562H99.9011V37.3536L100.606 37.4707V36.7681H101.194L101.312 36.0656H101.899V35.4801H102.604V34.7775H103.192V34.192H103.897V33.4895H104.485V32.904H105.19V32.2014H105.895V31.6159H106.483V30.9133H107.188V30.3279H107.776V29.6253H108.481V29.0398H109.069V28.3372H109.774V27.7517V27.0492V26.4637V25.7611H109.186V25.1756H108.481L107.776 25.0585H107.188V24.4731H106.483H105.895H105.19H104.602H103.897H103.31H102.604H102.017H101.312V25.0585H100.606H100.019V25.7611H99.3135H98.7258V26.3466H98.0206H97.433V25.7611H96.7278V25.0585V24.356H96.1401V23.7705V23.0679H95.435V22.4824H94.8473V21.7798H94.1421V21.1944H93.5545V20.4918H92.8493H92.2616V19.7892H91.5564H90.9688V19.2037H90.2636H89.5584H88.9708V18.5012H88.2656H87.6779H86.9727H86.3851H85.6799V17.9157L85.0922 17.7986H84.3871H83.7994H83.0942H82.5066H81.8014H81.0962H80.5085H79.8034H79.2157H78.5105H77.9229H77.2177H76.63H75.9248V18.5012H75.2196H74.632H73.9268H73.3392V19.0866H72.634H72.0463H71.3411V19.7892H70.7535V20.3747H70.0483H69.4606L69.3431 21.0773H68.7555L68.0503 20.9602V21.6628H67.4626V22.3653H66.7574V22.9508H66.1698V23.6534H65.4646V24.2389H64.8769L64.7594 24.9414V25.5269H64.1717V26.2295V26.815H63.4666V27.5176V28.103H62.8789V28.8056V29.3911V30.0937H63.4666V29.3911V28.8056H64.1717V28.103V27.5176H64.7594V26.815V26.2295H65.4646V25.5269V24.9414H66.1698V24.2389H66.7574V23.6534H67.4626V22.9508H68.0503V22.3653H68.7555V21.6628H69.3431H70.0483V21.0773H70.7535H71.3411V20.3747H72.0463H72.634H73.3392H73.9268H74.632H75.2196H75.9248H76.5125H77.2177H77.9229H78.5105H79.2157V19.7892H78.5105H77.9229H77.2177H76.63H75.9248H75.2196H74.632H73.9268V19.0866H74.632H75.2196H75.9248H76.63V18.5012H77.2177H77.9229H78.5105H79.2157H79.8034H80.5085H81.0962H81.8014H82.389H83.0942H83.7994H84.3871H85.0922V19.2037H85.6799V19.7892H86.3851V19.2037H86.9727V19.7892H87.6779H88.2656H88.9708H89.5584H90.2636V20.4918V21.0773H90.8513L91.5564 21.1944H92.2616H92.8493V21.7798H93.5545V22.4824H94.1421V23.0679H94.8473V23.7705H95.435V24.356V25.0585V25.644H94.8473L94.7298 26.3466H95.435H96.1401H96.7278V27.0492V27.6347H97.433H98.0206V27.0492H98.7258H99.3135V26.3466H100.019H100.606V25.7611H101.312H102.017V25.0585H102.604H103.31H103.897H104.602H105.19H105.895H106.483V25.7611H107.188H107.776H108.481V26.4637H109.069V27.0492H108.481H107.776H107.188H106.483V27.7517H105.895H105.19H104.602V28.3372H103.897H103.192V29.0398H102.604L101.899 28.9227V29.6253H101.312V30.3279H100.606V30.9133H100.019V31.6159H99.3135V32.2014H98.7258L98.6083 32.904H98.0206V33.4895H97.3155V34.192H96.7278V34.7775H96.0226V35.4801H95.435V36.0656H94.7298V36.7681H94.0246V37.3536H93.4369V38.0562H92.7318V38.6417H92.1441V39.3442H91.4389V39.9297H90.8513V40.6323H90.1461H89.5584L89.4409 41.2178H88.8532H88.148V41.9204H87.5604H86.8552H86.2676V42.5058H85.5624H84.9747H84.2695H83.6819H82.9767V43.2084H83.5643H84.2695H84.9747H85.5624H86.2676H86.8552H87.5604H88.148H88.8532H89.4409H90.1461H90.7337H91.4389H92.1441H92.7318H93.4369H94.0246H94.7298H95.3174H96.0226H96.6103H97.3155H97.9031H98.6083H99.3135H99.9011V42.6229H99.3135H98.6083H98.0206H97.3155H96.6103H96.0226H95.3174H94.7298H94.0246H93.4369H92.7318H92.1441V41.9204V41.2178H92.7318V40.6323H93.4369V39.9297H94.0246V39.3442H94.7298H95.3174H96.0226H96.7278H97.3155H98.0206H98.6083V40.0468H99.3135H99.9011H100.606H101.194V39.3442H101.899H102.487H103.192H103.897H104.485H105.19H105.778H106.483H107.071H107.776H108.363L109.069 39.4613V40.0468H109.656H110.361V40.7494V41.3349V42.0375H109.656V42.6229H109.069V43.3255H108.363V43.911H107.776V44.6136H107.071H106.483L106.365 45.199H105.778H105.072H104.485V45.9016H103.78H103.192H102.487V46.4871H101.899H101.194H100.606L100.489 47.1897H99.9011H99.1959H98.6083H97.9031V47.7752H97.3155H96.6103H96.0226H95.3174V48.4777H94.7298H94.0246L93.3194 48.3606V49.0632H92.7318V49.7658H93.3194H94.0246H94.6122H95.3174H96.0226H96.6103H97.3155V49.0632H97.9031H98.6083V48.4777V47.7752H99.1959H99.9011H100.489H101.194V47.1897H101.899H102.487H103.192V46.4871H103.78H104.485H105.072V45.9016H105.778H106.365H107.071V45.199H107.776H108.363V44.6136H109.069V43.911H109.656V43.3255H110.361V42.6229H110.949V42.0375V41.3349V40.7494L111.067 40.0468V39.4613H110.361V38.7588Z" fill="black"/>
<path d="M68.6305 38.513L68.627 39.2156L69.3321 39.2192L69.3357 38.5167L68.6305 38.513Z" fill="black"/>
<path d="M67.3337 38.4959L67.3301 39.1985L68.0353 39.2021L68.0388 38.4996L67.3337 38.4959Z" fill="black"/>
<path d="M66.037 38.4788L66.0334 39.1814L66.7386 39.185L66.7422 38.4825L66.037 38.4788Z" fill="black"/>
<path d="M64.7404 38.4617L64.7368 39.1643L65.442 39.168L65.4456 38.4654L64.7404 38.4617Z" fill="black"/>
<path d="M68.0497 37.8004L68.0461 38.5029L68.7513 38.5066L68.7549 37.804L68.0497 37.8004Z" fill="black"/>
<path d="M66.7531 37.7833L66.7495 38.4858L67.4547 38.4895L67.4583 37.7869L66.7531 37.7833Z" fill="black"/>
<path d="M65.4557 37.8831L65.4521 38.5857L66.1573 38.5893L66.1609 37.8868L65.4557 37.8831Z" fill="black"/>
<path d="M71.2409 37.2554L71.2373 37.958L71.9425 37.9617L71.9461 37.2591L71.2409 37.2554Z" fill="black"/>
<path d="M68.6379 37.2366V37.9392H69.3431V38.5247H69.9308V39.2272H70.636V39.8127H71.2236V40.5153H71.9288V41.2179H72.5165V40.5153V39.8127V39.2272H73.2216V38.5247V37.9392H72.5165H71.9288V38.5247V39.2272H71.2236V38.5247H70.636V37.9392H69.9308V37.2366V36.6511H69.3431V37.2366H68.6379Z" fill="black"/>
<path d="M67.351 37.2042L67.3474 37.9067L68.0526 37.9104L68.0562 37.2078L67.351 37.2042Z" fill="black"/>
<path d="M66.0544 37.1871L66.0508 37.8896L66.756 37.8933L66.7595 37.1907L66.0544 37.1871Z" fill="black"/>
<path d="M64.7575 37.17L64.7539 37.8726L65.4591 37.8762L65.4627 37.1736L64.7575 37.17Z" fill="black"/>
<path d="M68.0668 36.5086L68.0632 37.2112L68.7684 37.2148L68.772 36.5123L68.0668 36.5086Z" fill="black"/>
<path d="M66.7702 36.4915L66.7666 37.1941L67.4718 37.1977L67.4754 36.4952L66.7702 36.4915Z" fill="black"/>
<path d="M65.3561 36.4737L65.3525 37.1763L66.0577 37.1799L66.0613 36.4773L65.3561 36.4737Z" fill="black"/>
<path d="M71.2236 35.9485H70.636V36.6511V37.2365H71.2236V36.6511V35.9485Z" fill="black"/>
<path d="M67.3681 35.9122L67.3645 36.6147L68.0697 36.6184L68.0733 35.9158L67.3681 35.9122Z" fill="black"/>
<path d="M66.0714 35.8951L66.0679 36.5977L66.7731 36.6013L66.7766 35.8987L66.0714 35.8951Z" fill="black"/>
<path d="M80.391 35.363V34.6604V33.9578V33.2553V32.5527V31.8501H79.6859V31.1475V30.4449H78.9807V29.7424H78.2755H77.5703V29.0398H76.8651H76.1599H75.4547H74.7496H74.0444V29.7424H73.3392H72.634V30.4449H71.9288V31.1475V31.8501H71.2236V32.5527V33.2553V33.9578V34.6604V35.363H71.9288V36.0656V36.7681H72.634V37.4707V38.1733H73.3392V37.4707H74.0444H74.7496V36.7681H75.4547H76.1599H76.8651V36.0656H77.5703H78.2755H78.9807H79.6859H80.391H81.0962V35.363H80.391ZM74.5145 32.7869V32.0843H75.2197H75.9249V32.7869V33.4894H75.2197H74.5145V32.7869Z" fill="black"/>
<path d="M66.6698 35.199L66.6663 35.9016L67.3714 35.9053L67.375 35.2027L66.6698 35.199Z" fill="black"/>
<path d="M83.6817 34.7774V34.0748V33.4894V32.7868V32.0842V31.4987V30.7961H82.9766V31.4987V32.0842V32.7868V33.3723V34.0748V34.7774V35.3629H83.6817H84.2694H84.9746V34.7774H84.2694H83.6817Z" fill="black"/>
<path d="M70.6359 34.6605V33.958V33.3725V32.6699V32.0844V31.3818H70.0482V32.0844V32.6699L69.9307 33.3725V33.958V34.6605V35.3631V35.9486H70.6359V35.3631V34.6605Z" fill="black"/>
<path d="M84.9746 34.075V34.7775H85.5623H86.2674V34.075H85.6798H84.9746Z" fill="black"/>
<path d="M86.2676 33.4895V34.075H86.9728H87.5604V33.4895H86.9728H86.2676Z" fill="black"/>
<path d="M87.5603 32.7869V33.4894H88.2655H88.8531V32.7869H88.2655H87.5603Z" fill="black"/>
<path d="M88.8533 32.2014V32.7869H89.5585H90.1461V32.2014H89.5585H88.8533Z" fill="black"/>
<path d="M81.6838 32.7868V33.3723V34.0749V34.7775V35.363V36.0655H81.0962V36.651H81.6838H82.389V36.0655V35.363V34.7775V34.0749V33.3723V32.7868V32.0843V31.4988H81.6838V32.0843V32.7868Z" fill="black"/>
<path d="M90.1789 31.5149L90.1753 32.2175L90.8805 32.2212L90.884 31.5186L90.1789 31.5149Z" fill="black"/>
<path d="M90.8513 30.9133V31.4988H91.5565H92.1442V30.9133H91.5565H90.8513Z" fill="black"/>
<path d="M81.0962 31.4987H81.6838V30.7962V30.2107H81.0962V30.7962V31.4987Z" fill="black"/>
<path d="M71.3412 30.7963V30.0938H70.636V30.7963V31.3818H71.3412V30.7963Z" fill="black"/>
<path d="M68.6379 31.3816V32.0842V32.6697V33.3723V33.9577V34.6603V35.2458H68.0503V35.9484H68.6379V36.6509H69.3431V35.9484V35.3629V34.6603V33.9577V33.3723V32.6697V32.0842V31.3816V30.7961H68.7555L68.6379 31.3816Z" fill="black"/>
<path d="M92.1413 30.1902L92.1377 30.8928L92.8429 30.8965L92.8465 30.1939L92.1413 30.1902Z" fill="black"/>
<path d="M92.8494 29.6252V30.2107H93.437H94.1422V29.6252H93.437H92.8494Z" fill="black"/>
<path d="M88.2655 29.5083H87.5603H86.9727V30.2109H87.5603H88.2655H88.8532H89.5583V29.6254L88.8532 29.5083H88.2655Z" fill="black"/>
<path d="M83.0941 29.5083H82.3889V30.2109V30.7964H82.9766L83.0941 30.2109V29.5083Z" fill="black"/>
<path d="M80.4208 29.5071L80.4172 30.2097L81.1224 30.2134L81.126 29.5108L80.4208 29.5071Z" fill="black"/>
<path d="M71.3444 29.3875L71.3408 30.0901L72.046 30.0937L72.0496 29.3912L71.3444 29.3875Z" fill="black"/>
<path d="M69.343 30.0938V30.7964H70.0482V30.0938V29.5083H69.343V30.0938Z" fill="black"/>
<path d="M94.1039 28.8655L94.1003 29.5681L94.8055 29.5718L94.8091 28.8692L94.1039 28.8655Z" fill="black"/>
<path d="M89.5583 28.9226V29.6252H90.2635H90.8512V28.9226H90.2635H89.5583Z" fill="black"/>
<path d="M86.3234 28.8799L86.3198 29.5825L87.025 29.5862L87.0286 28.8836L86.3234 28.8799Z" fill="black"/>
<path d="M81.7848 28.8787L81.7812 29.5813L82.4864 29.585L82.49 28.8824L81.7848 28.8787Z" fill="black"/>
<path d="M79.8402 28.7945L79.8367 29.4971L80.5419 29.5007L80.5454 28.7981L79.8402 28.7945Z" fill="black"/>
<path d="M71.9423 28.8082L71.9387 29.5107L72.6439 29.5144L72.6475 28.8118L71.9423 28.8082Z" fill="black"/>
<path d="M69.9977 28.7242L69.9941 29.4268L70.6993 29.4304L70.7029 28.7278L69.9977 28.7242Z" fill="black"/>
<path d="M94.7297 28.3372V28.9226H95.4349H96.0226L96.1401 28.3372H95.4349H94.7297Z" fill="black"/>
<path d="M90.8513 28.2202V28.9228H91.5565H92.1442V28.3373L91.5565 28.2202H90.8513Z" fill="black"/>
<path d="M85.6252 28.1668L85.6216 28.8694L86.3268 28.873L86.3303 28.1705L85.6252 28.1668Z" fill="black"/>
<path d="M81.0866 28.1653L81.083 28.8679L81.7882 28.8716L81.7918 28.169L81.0866 28.1653Z" fill="black"/>
<path d="M79.0982 28.9228H79.8033V28.2202H79.0982H78.5105V28.8057L79.0982 28.9228Z" fill="black"/>
<path d="M73.9269 28.8057V28.2202H73.2217H72.634V28.8057H73.2217H73.9269Z" fill="black"/>
<path d="M70.713 28.1456L70.7095 28.8481L71.4147 28.8518L71.4182 28.1492L70.713 28.1456Z" fill="black"/>
<path d="M96.0663 27.5408L96.0627 28.2434L96.7679 28.2471L96.7715 27.5445L96.0663 27.5408Z" fill="black"/>
<path d="M92.1757 27.6068L92.1721 28.3093L92.8773 28.313L92.8809 27.6104L92.1757 27.6068Z" fill="black"/>
<path d="M75.2196 28.2202H75.9248H76.5124H77.2176H77.8053H78.5105V27.5176H77.8053H77.2176H76.5124H75.9248H75.2196H74.6319H73.9268V28.2202H74.6319H75.2196Z" fill="black"/>
<path d="M71.3114 27.4493L71.3079 28.1519L72.013 28.1555L72.0166 27.4529L71.3114 27.4493Z" fill="black"/>
<path d="M92.8494 26.9321V27.6347H93.437H94.1422V27.0492L93.437 26.9321H92.8494Z" fill="black"/>
<path d="M89.5324 26.9261L89.5288 27.6287L90.234 27.6323L90.2376 26.9297L89.5324 26.9261Z" fill="black"/>
<path d="M85.6798 26.9322V26.3467H84.9746V26.9322V27.6347V28.2202H85.6798V27.6347V26.9322Z" fill="black"/>
<path d="M81.8014 27.6347V26.9321V26.2295H81.0962V26.9321H80.3911L80.5086 26.2295H79.8034V25.644H79.0982V26.2295H78.5106H77.8054H77.2177H76.5125H75.9249H75.2197H74.6321H73.9269H73.3392L73.2217 26.9321H73.9269H74.6321H75.2197H75.9249H76.5125H77.2177H77.8054H78.5106H79.0982V27.5176H79.8034H80.3911V28.2202H81.0962V27.5176L81.8014 27.6347Z" fill="black"/>
<path d="M71.9287 26.9321V27.5176H72.6339H73.2215V26.9321H72.6339H71.9287Z" fill="black"/>
<path d="M94.1381 26.282L94.1345 26.9846L94.8397 26.9883L94.8433 26.2857L94.1381 26.282Z" fill="black"/>
<path d="M88.9516 26.2134L88.948 26.916L89.6532 26.9197L89.6568 26.2171L88.9516 26.2134Z" fill="black"/>
<path d="M91.4948 25.6016L91.4912 26.3042L92.1964 26.3079L92.2 25.6053L91.4948 25.6016Z" fill="black"/>
<path d="M88.2528 25.6173L88.2493 26.3198L88.9545 26.3235L88.958 25.6209L88.2528 25.6173Z" fill="black"/>
<path d="M86.2676 25.6441V25.0586H85.6799V25.6441V26.3467H86.2676V25.6441Z" fill="black"/>
<path d="M80.4731 25.5147L80.4695 26.2173L81.1747 26.2209L81.1782 25.5184L80.4731 25.5147Z" fill="black"/>
<path d="M90.9135 25.0059L90.9099 25.7085L91.6151 25.7121L91.6187 25.0096L90.9135 25.0059Z" fill="black"/>
<path d="M79.7743 24.9185L79.7708 25.6211L80.4759 25.6247L80.4795 24.9222L79.7743 24.9185Z" fill="black"/>
<path d="M93.4565 24.3939L93.4529 25.0964L94.1581 25.1001L94.1616 24.3975L93.4565 24.3939Z" fill="black"/>
<path d="M90.2152 24.2925L90.2117 24.9951L90.9168 24.9988L90.9204 24.2962L90.2152 24.2925Z" fill="black"/>
<path d="M86.3249 24.3585L86.3213 25.061L87.0265 25.0647L87.0301 24.3621L86.3249 24.3585Z" fill="black"/>
<path d="M80.4904 24.2227L80.4868 24.9253L81.192 24.9289L81.1956 24.2264L80.4904 24.2227Z" fill="black"/>
<path d="M92.8759 23.6812L92.8723 24.3838L93.5775 24.3874L93.5811 23.6849L92.8759 23.6812Z" fill="black"/>
<path d="M89.6339 23.6968L89.6304 24.3994L90.3356 24.4031L90.3391 23.7005L89.6339 23.6968Z" fill="black"/>
<path d="M86.9233 23.6622L86.9197 24.3647L87.6249 24.3684L87.6284 23.6658L86.9233 23.6622Z" fill="black"/>
<path d="M82.389 24.3559H81.8014V24.9414H81.0962V25.644H81.8014V26.2294H82.389V25.644V24.9414H83.0942V24.3559V23.6533H82.389V24.3559Z" fill="black"/>
<path d="M81.088 23.6436L81.0845 24.3462L81.7897 24.3498L81.7932 23.6473L81.088 23.6436Z" fill="black"/>
<path d="M79.7914 23.6265L79.7878 24.3291L80.493 24.3328L80.4966 23.6302L79.7914 23.6265Z" fill="black"/>
<path d="M92.1772 23.0848L92.1736 23.7874L92.8788 23.791L92.8823 23.0884L92.1772 23.0848Z" fill="black"/>
<path d="M87.6393 22.9666L87.6357 23.6692L88.3409 23.6728L88.3445 22.9703L87.6393 22.9666Z" fill="black"/>
<path d="M83.1007 22.9651L83.0972 23.6677L83.8024 23.6714L83.8059 22.9688L83.1007 22.9651Z" fill="black"/>
<path d="M81.8041 22.9481L81.8005 23.6506L82.5057 23.6543L82.5093 22.9517L81.8041 22.9481Z" fill="black"/>
<path d="M80.5075 22.931L80.5039 23.6335L81.2091 23.6372L81.2127 22.9346L80.5075 22.931Z" fill="black"/>
<path d="M91.5963 22.3724L91.5928 23.075L92.298 23.0786L92.3015 22.376L91.5963 22.3724Z" fill="black"/>
<path d="M88.237 22.3873L88.2334 23.0898L88.9386 23.0935L88.9422 22.3909L88.237 22.3873Z" fill="black"/>
<path d="M82.4018 22.369L82.3982 23.0715L83.1034 23.0752L83.107 22.3726L82.4018 22.369Z" fill="black"/>
<path d="M81.1054 22.3519L81.1018 23.0544L81.807 23.0581L81.8106 22.3555L81.1054 22.3519Z" fill="black"/>
<path d="M88.953 21.6917L88.9495 22.3943L89.6546 22.3979L89.6582 21.6954L88.953 21.6917Z" fill="black"/>
<path d="M82.389 21.7797H83.0942V21.0771H82.389H81.8014H81.0962V21.7797H81.8014V22.3652H82.389V21.7797Z" fill="black"/>
<path d="M89.5507 21.1126L89.5471 21.8152L90.2523 21.8188L90.2559 21.1163L89.5507 21.1126Z" fill="black"/>
<path d="M85.0129 20.9942L85.0093 21.6968L85.7145 21.7004L85.718 20.9979L85.0129 20.9942Z" fill="black"/>
<path d="M84.3871 21.0771H83.6819V21.7797H83.0942V22.3652H83.6819V23.0678H84.3871V22.3652H84.9747L85.0923 21.7797H84.3871V21.0771Z" fill="black"/>
<path d="M85.7282 20.4156L85.7246 21.1182L86.4298 21.1218L86.4334 20.4192L85.7282 20.4156Z" fill="black"/>
<path d="M84.4316 20.3985L84.428 21.1011L85.1332 21.1047L85.1368 20.4022L84.4316 20.3985Z" fill="black"/>
<path d="M80.5087 20.3748H79.8035H79.2158V21.0773H79.8035H80.5087H81.0963V20.4919L80.5087 20.3748Z" fill="black"/>
<path d="M86.3268 19.7195L86.3232 20.4221L87.0284 20.4258L87.032 19.7232L86.3268 19.7195Z" fill="black"/>
<path d="M85.0299 19.7025L85.0264 20.405L85.7315 20.4087L85.7351 19.7061L85.0299 19.7025Z" fill="black"/>
<path d="M126.111 36.1826V36.8852H126.698H127.403V36.1826H126.698H126.111Z" fill="black"/>
<path d="M127.429 35.5267L127.426 36.2292L128.131 36.2329L128.134 35.5303L127.429 35.5267Z" fill="black"/>
<path d="M137.276 34.3092V33.6066H136.688V33.0212V32.3186H135.983V31.616V31.0305H135.396H134.69V31.616V32.3186V33.0212H135.278V33.6066V34.3092H135.983V35.0118V35.5973H136.688V36.2998V36.8853H137.276H137.981V36.2998V35.5973V35.0118H137.276V34.3092Z" fill="black"/>
<path d="M127.403 34.309V33.6064H126.698V34.309V34.8945H127.403V34.309Z" fill="black"/>
<path d="M126.11 34.309V33.6064H125.405V34.1919V34.8945H126.11V34.309Z" fill="black"/>
<path d="M128.109 34.309V34.8945V35.5971H128.696V34.8945V34.309V33.6064H128.109V34.309Z" fill="black"/>
<path d="M143.27 33.021H142.565H141.977H141.272H140.567H139.979V33.6065V34.309H140.567H141.272H141.977H142.565H143.27H143.858V33.7236V33.021H143.27Z" fill="black"/>
<path d="M121.527 33.6065V32.904V32.2014V31.6159V30.9133H120.822H120.116V31.6159V32.2014V32.904V33.6065H120.822H121.527Z" fill="black"/>
<path d="M132.105 31.0305L131.987 31.616V32.3186H131.399V33.0212V33.6066H130.694V34.3092V34.8947H130.107L129.989 35.5973V36.2998V36.8853H130.694H131.399V36.2998V35.5973H131.987V34.8947V34.3092H132.692V33.6066V33.0212H133.397V32.3186V31.616V31.0305H132.692H132.105Z" fill="black"/>
<path d="M122.82 30.9133V31.6159V32.3185V32.904V33.6065V34.192H122.114V34.8946H121.527L121.409 35.5972H120.822L120.116 35.4801V36.1827V36.8852H120.822H121.409H122.114V36.1827H122.82V35.5972H123.407V34.8946H124.113V34.192V33.6065V32.904V32.3185V31.6159V30.9133H123.525H122.82Z" fill="black"/>
<path d="M117.531 30.9133H116.826H116.238H115.533H114.945H114.24H113.535H112.947H112.242V31.4988V32.2014H112.947H113.535H114.24H114.945H115.533H116.238H116.826H117.531V32.904V33.6065L116.826 33.4894V34.192H116.238V34.8946H115.533H114.828V35.4801H114.24H113.535H112.947H112.242V36.1827V36.7681H112.83H113.535H114.24H114.828L115.533 36.8852V36.1827H116.238H116.826V35.4801H117.531V34.8946H118.118V34.192H118.824V33.6065V32.904V32.2014V31.6159V30.9133H118.236H117.531Z" fill="black"/>
<path d="M137.981 30.3279H137.276V31.0305V31.733V32.4356H137.981H138.686H139.392V31.733V31.0305V30.3279H138.686H137.981ZM138.686 31.733H137.981V31.0305H138.686V31.733Z" fill="black"/>
<path d="M113.065 23.0678V23.7704H113.77V23.0678V22.3652H113.065V23.0678Z" fill="black"/>
<path d="M110.479 23.0678V23.7704H111.067V23.0678V22.3652H110.479V23.0678Z" fill="black"/>
<path d="M115.768 21.0771V21.7797V22.4823V23.0678V23.7704H116.355V23.0678V22.4823V21.7797V21.0771H115.768Z" fill="black"/>
<path d="M113.065 21.0771H112.477V21.7797V22.3652H113.065V21.7797V21.0771Z" fill="black"/>
<path d="M109.828 21.7068L109.824 22.4094L110.529 22.4131L110.533 21.7105L109.828 21.7068Z" fill="black"/>
<path d="M109.186 21.0771H108.481V21.7797H109.186H109.774V21.0771H109.186Z" fill="black"/>
<path d="M115.768 19.7891H115.063V20.4916V21.0771H115.768V20.4916V19.7891Z" fill="black"/>
<path d="M111.83 20.3904L111.827 21.093L112.532 21.0967L112.536 20.3941L111.83 20.3904Z" fill="black"/>
<path d="M111.132 19.7784L111.128 20.481L111.833 20.4846L111.837 19.782L111.132 19.7784Z" fill="black"/>
<path d="M115.063 18.501H114.475V19.0865V19.789H115.063V19.0865V18.501Z" fill="black"/>
<path d="M110.479 19.0864H109.774V19.789H110.479H111.067V19.0864H110.479Z" fill="black"/>
<path d="M109.186 18.501H108.481V19.0865H109.186H109.774V18.501H109.186Z" fill="black"/>
<path d="M113.749 17.7659L113.745 18.4685L114.451 18.4722L114.454 17.7696L113.749 17.7659Z" fill="black"/>
<path d="M113.065 17.213L112.477 17.0959V17.7985H113.065H113.77V17.213H113.065Z" fill="black"/>
<path d="M111.772 16.5105H111.184V17.096H111.772H112.477V16.5105H111.772Z" fill="black"/>
<path d="M110.479 15.8079H109.774H109.186H108.481V16.5104H109.186H109.774H110.479H111.184V15.8079H110.479Z" fill="black"/>
</g>
<defs>
<clipPath id="clip0_1158_8936">
<rect width="238" height="100" fill="white"/>
</clipPath>
</defs>
</svg>
