<svg width="123" height="100" viewBox="0 0 123 100" fill="none" xmlns="http://www.w3.org/2000/svg">
<path fill-rule="evenodd" clip-rule="evenodd" d="M59.3347 18.0723H44.0026C43.8477 18.0723 43.7177 18.0723 43.6034 18.0731C43.6026 18.1874 43.6026 18.3174 43.6026 18.4723V41.2028C42.8572 41.1229 42.1001 41.0819 41.3333 41.0819C40.7505 41.0819 40.1732 41.1056 39.6026 41.152V18.4723L39.6025 18.4153L39.6025 18.4153C39.6025 18.0452 39.6024 17.6575 39.6296 17.3242C39.6602 16.9504 39.7347 16.4727 39.984 15.9833C40.3196 15.3247 40.855 14.7893 41.5136 14.4537C42.003 14.2044 42.4807 14.1299 42.8545 14.0993C43.1878 14.0721 43.5755 14.0722 43.9456 14.0722L43.9456 14.0722L44.0026 14.0723H59.3789C59.4031 14.0723 59.4299 14.0721 59.459 14.0719L59.459 14.0719C59.7419 14.0699 60.2468 14.0663 60.7322 14.2181C61.145 14.3472 61.5273 14.5586 61.8561 14.8397C62.2427 15.1701 62.5081 15.5996 62.6568 15.8402C62.6722 15.865 62.6862 15.8878 62.6991 15.9083L67.8261 24.0766H86.2979L86.3548 24.0766C86.7249 24.0765 87.1126 24.0764 87.4459 24.1037C87.8197 24.1342 88.2975 24.2087 88.7868 24.4581C89.4454 24.7936 89.9808 25.3291 90.3164 25.9876C90.5657 26.477 90.6403 26.9547 90.6708 27.3285C90.698 27.6619 90.698 28.0495 90.6979 28.4196L90.6979 28.4766V30.7451L94.8483 30.7452L94.9173 30.7452C95.4101 30.7451 95.9037 30.7451 96.317 30.7821C96.7609 30.8219 97.3624 30.92 97.9405 31.2845C98.6895 31.7567 99.2317 32.4951 99.4578 33.3511C99.6324 34.0118 99.5459 34.6152 99.4509 35.0506C99.3625 35.4559 99.2147 35.9267 99.067 36.3969L99.067 36.3969L99.067 36.397L99.0463 36.4629L91.1338 61.672C91.1211 61.7123 91.1079 61.7554 91.0939 61.8009L91.0938 61.8014C90.9564 62.2494 90.7485 62.9273 90.3089 63.4663C89.9333 63.9269 89.4466 64.2842 88.8947 64.5046C88.2488 64.7626 87.5398 64.758 87.0712 64.7549L87.0055 64.7545L86.9357 64.7543H61.8766C62.037 63.7271 62.1202 62.6747 62.1202 61.6032C62.1202 61.3188 62.1143 61.0358 62.1027 60.7543H76.1391L76.1503 60.7543H86.9357C87.0502 60.7543 87.1454 60.7543 87.229 60.7538C87.2545 60.6742 87.2831 60.5833 87.3174 60.4741L95.2299 35.265C95.2925 35.0653 95.3456 34.8962 95.3911 34.7466C95.2348 34.7452 95.0575 34.7452 94.8482 34.7452L52.7838 34.744C52.6693 34.744 52.5741 34.744 52.4905 34.7445C52.4649 34.8241 52.4364 34.915 52.4021 35.0242L49.9265 42.912C48.7201 42.3706 47.4521 41.9396 46.1357 41.6323L48.5857 33.8264C48.5984 33.7859 48.6116 33.7427 48.6256 33.6971L48.6257 33.6969C48.7631 33.2489 48.971 32.571 49.4106 32.032C49.7862 31.5714 50.2729 31.2141 50.8248 30.9936C51.4708 30.7356 52.1798 30.7403 52.6484 30.7434C52.6962 30.7437 52.7414 30.744 52.7839 30.744L86.6979 30.745V28.4766C86.6979 28.3217 86.6978 28.1918 86.697 28.0775C86.5827 28.0766 86.4528 28.0766 86.2979 28.0766H67.7818L67.7364 28.0768L67.7017 28.077C67.4188 28.079 66.9139 28.0825 66.4286 27.9307C66.0158 27.8016 65.6334 27.5902 65.3046 27.3092C64.918 26.9788 64.6526 26.5493 64.5039 26.3086L64.486 26.2796L64.4616 26.2405L59.3347 18.0723ZM65.7201 46.0813C65.7201 44.9767 66.6155 44.0813 67.7201 44.0813H80.4735C81.5781 44.0813 82.4735 44.9767 82.4735 46.0813C82.4735 47.1858 81.5781 48.0813 80.4735 48.0813H67.7201C66.6155 48.0813 65.7201 47.1858 65.7201 46.0813Z" fill="#FFA843"/>
<path fill-rule="evenodd" clip-rule="evenodd" d="M41.3764 43.0714C51.285 43.0714 59.2735 50.9946 59.2735 60.7143C59.2735 70.434 51.285 78.3572 41.3764 78.3572C31.4678 78.3572 23.4794 70.434 23.4794 60.7143C23.4794 50.9946 31.4678 43.0714 41.3764 43.0714ZM63.2735 60.7143C63.2735 48.7371 53.4455 39.0714 41.3764 39.0714C29.3073 39.0714 19.4794 48.7371 19.4794 60.7143C19.4794 65.9763 21.3763 70.7921 24.5269 74.5382L9.44745 89.425C8.66139 90.201 8.65325 91.4673 9.42926 92.2533C10.2053 93.0394 11.4716 93.0475 12.2576 92.2715L27.3708 77.3514C31.1704 80.4785 36.0556 82.3572 41.3764 82.3572C53.4455 82.3572 63.2735 72.6915 63.2735 60.7143Z" fill="#C1C1C1"/>
<path d="M47.1925 57.0806C47.782 56.4986 47.782 55.555 47.1925 54.973C46.6029 54.391 45.6471 54.391 45.0575 54.973L47.1925 57.0806ZM36.0143 63.9007C35.4247 64.4827 35.4247 65.4263 36.0143 66.0084C36.6038 66.5904 37.5596 66.5904 38.1492 66.0084L36.0143 63.9007ZM45.0575 54.973L36.0143 63.9007L38.1492 66.0084L47.1925 57.0806L45.0575 54.973Z" fill="#F63F3F"/>
<path d="M45.0566 66.0092C45.6461 66.5912 46.6019 66.5912 47.1915 66.0092C47.781 65.4272 47.781 64.4836 47.1915 63.9016L45.0566 66.0092ZM38.1482 54.9738C37.5587 54.3918 36.6028 54.3918 36.0133 54.9738C35.4237 55.5558 35.4237 56.4994 36.0133 57.0815L38.1482 54.9738ZM47.1915 63.9016L38.1482 54.9738L36.0133 57.0815L45.0566 66.0092L47.1915 63.9016Z" fill="#F63F3F"/>
</svg>
