<svg width="100" height="60" viewBox="0 0 100 60" fill="none" xmlns="http://www.w3.org/2000/svg">
<g clip-path="url(#clip0_2785_234730)">
<path d="M46.1 10H6.9C4.1938 10 2 12.1142 2 14.7222V90.2778C2 92.8858 4.19381 95 6.9 95H46.1C48.8062 95 51 92.8858 51 90.2778V14.7222C51 12.1142 48.8062 10 46.1 10Z" stroke="#616161" stroke-width="2" stroke-linecap="round" stroke-linejoin="round"/>
<rect x="21" y="14" width="11" height="1.5" rx="0.75" fill="#616161"/>
<g filter="url(#filter0_d_2785_234730)">
<g clip-path="url(#clip1_2785_234730)">
<rect x="10" y="23" width="33" height="33" rx="4" fill="#FF8200"/>
<path d="M34.0051 55.7127C34.0051 55.2773 34.0051 54.6805 34.0051 54.2451H33.5665C33.5665 53.8097 33.5665 53.2129 33.5665 52.7775H33.1278C33.1278 51.9948 33.1278 51.1142 33.1278 50.3315H33.5665C33.5665 50.0869 33.5665 49.5977 33.5665 49.3531C34.1147 49.3531 34.7726 49.3531 35.3209 49.3531V48.8639C35.7112 48.8639 36.2463 48.8639 36.6367 48.8639V48.3747C37.0271 48.3747 37.5622 48.3747 37.9525 48.3747V47.8855C38.3429 47.8855 38.878 47.8855 39.2684 47.8855V47.3963C39.4877 47.3963 39.9263 47.3963 40.1456 47.3963V46.9071H40.5842V46.4179H41.0228V45.9287H41.4614V45.4395H41.9C41.9 44.6568 41.9 43.7762 41.9 42.9935H41.4614V42.5043C38.9833 42.5043 36.4832 42.5043 34.0051 42.5043V42.0151H34.4437V41.5259H34.8823V41.0367H35.3209V40.5475H35.7595V40.0583H36.1981V39.5691H36.6367V39.0799H37.0753V38.5907H37.5139V38.1015H37.9525V37.6123H38.3911V37.1231H38.8297V36.6339H39.2684V36.1447H39.707V35.6555H40.1456V35.1663H40.5842V34.6771H41.0228C41.0228 34.0657 41.0228 33.3319 41.0228 32.7204H40.5842V32.2312C40.1938 32.2312 39.6587 32.2312 39.2684 32.2312V31.742C37.9657 31.742 36.6236 31.742 35.3209 31.742V32.2312C35.1016 32.2312 34.663 32.2312 34.4437 32.2312V32.7204C34.2244 32.7204 33.7858 32.7204 33.5665 32.7204V33.2096C33.3472 33.2096 32.9085 33.2096 32.6892 33.2096V32.7204H32.2506C32.2506 32.4758 32.2506 31.9866 32.2506 31.742H31.812C31.812 31.4974 31.812 31.0082 31.812 30.7636H31.3734V30.2744H30.9348V29.7852H30.4962V29.296H30.0576V28.8068C29.8383 28.8068 29.3997 28.8068 29.1804 28.8068V28.3176C28.9611 28.3176 28.5225 28.3176 28.3032 28.3176V27.8284C27.9128 27.8284 27.3777 27.8284 26.9873 27.8284V27.3392C26.2856 27.3392 25.4961 27.3392 24.7943 27.3392V26.85C22.61 26.85 20.3995 26.85 18.2152 26.85V27.3392C17.6669 27.3392 17.009 27.3392 16.4608 27.3392V27.8284C16.0704 27.8284 15.5353 27.8284 15.1449 27.8284V28.3176H14.7063V28.8068C14.487 28.8068 14.0484 28.8068 13.8291 28.8068V29.296C13.6098 29.296 13.1712 29.296 12.9519 29.296V29.7852H12.5133V30.2744H12.0747V30.7636H11.6361V31.2528H11.1975V31.742H10.7589C10.7589 31.9866 10.7589 32.4758 10.7589 32.7204H10.3203C10.3203 32.965 10.3203 33.4542 10.3203 33.6988H9.88165C9.88165 33.9434 9.88165 34.4325 9.88165 34.6771H9.44304C9.44304 34.9217 9.44304 35.4109 9.44304 35.6555H9.00443C9.00443 35.9001 9.00443 36.3893 9.00443 36.6339H8.56582C8.56582 36.8785 8.56582 37.3677 8.56582 37.6123H8.12722C8.12722 38.0477 8.12722 38.6445 8.12722 39.0799H7.68861C7.68861 39.6914 7.68861 40.4252 7.68861 41.0367H7.25C7.25 42.4896 7.25 43.9866 7.25 45.4395H7.68861C7.68861 44.1529 7.68861 42.8125 7.68861 41.5259H8.12722C8.12722 40.9144 8.12722 40.1806 8.12722 39.5691H8.56582C8.56582 39.1337 8.56582 38.5369 8.56582 38.1015H9.00443C9.00443 37.8569 9.00443 37.3677 9.00443 37.1231H9.44304C9.44304 36.8785 9.44304 36.3893 9.44304 36.1447H9.88165C9.88165 35.9001 9.88165 35.4109 9.88165 35.1663H10.3203C10.3203 34.9217 10.3203 34.4325 10.3203 34.188H10.7589C10.7589 33.9434 10.7589 33.4542 10.7589 33.2096H11.1975C11.1975 32.965 11.1975 32.4758 11.1975 32.2312H11.6361V31.742H12.0747V31.2528H12.5133V30.7636H12.9519V30.2744H13.3905V29.7852C13.6098 29.7852 14.0484 29.7852 14.2677 29.7852V29.296C14.487 29.296 14.9256 29.296 15.1449 29.296V28.8068C16.8862 28.8068 18.667 28.8068 20.4082 28.8068V28.3176C19.2547 28.3176 18.0529 28.3176 16.8994 28.3176V27.8284C17.4476 27.8284 18.1055 27.8284 18.6538 27.8284V27.3392C20.5442 27.3392 22.4653 27.3392 24.3557 27.3392V27.8284H24.7943V28.3176H25.2329V27.8284H25.6715V28.3176C26.3733 28.3176 27.1628 28.3176 27.8646 28.3176C27.8646 28.5622 27.8646 29.0514 27.8646 29.296C28.4128 29.296 29.0707 29.296 29.619 29.296V29.7852H30.0576V30.2744H30.4962V30.7636H30.9348V31.2528H31.3734C31.3734 31.6881 31.3734 32.285 31.3734 32.7204H30.9348V33.2096C31.3252 33.2096 31.8603 33.2096 32.2506 33.2096C32.2506 33.4542 32.2506 33.9434 32.2506 34.188C32.4699 34.188 32.9085 34.188 33.1278 34.188V33.6988C33.3472 33.6988 33.7858 33.6988 34.0051 33.6988V33.2096C34.2244 33.2096 34.663 33.2096 34.8823 33.2096V32.7204C35.1016 32.7204 35.5402 32.7204 35.7595 32.7204V32.2312C36.7639 32.2312 37.8253 32.2312 38.8297 32.2312V32.7204C39.2201 32.7204 39.7552 32.7204 40.1456 32.7204V33.2096H40.5842V33.6988C40.0359 33.6988 39.378 33.6988 38.8297 33.6988V34.188C38.4394 34.188 37.9043 34.188 37.5139 34.188V34.6771C37.2946 34.6771 36.856 34.6771 36.6367 34.6771V35.1663C36.4174 35.1663 35.9788 35.1663 35.7595 35.1663V35.6555H35.3209V36.1447H34.8823V36.6339H34.4437V37.1231H34.0051V37.6123H33.5665V38.1015H33.1278V38.5907H32.6892V39.0799H32.2506V39.5691H31.812V40.0583H31.3734V40.5475H30.9348V41.0367H30.4962V41.5259H30.0576V42.0151H29.619V42.5043H29.1804V42.9935H28.7418V43.4827H28.3032V43.9719C28.0839 43.9719 27.6453 43.9719 27.4259 43.9719V44.4611C27.2066 44.4611 26.768 44.4611 26.5487 44.4611V44.9503C26.1584 44.9503 25.6233 44.9503 25.2329 44.9503V45.4395C24.5311 45.4395 23.7416 45.4395 23.0399 45.4395V45.9287C26.8338 45.9287 30.6497 45.9287 34.4437 45.9287V45.4395C32.7024 45.4395 30.9217 45.4395 29.1804 45.4395C29.1804 45.1949 29.1804 44.7057 29.1804 44.4611H29.619V43.9719H30.0576V43.4827H30.4962V42.9935C31.5006 42.9935 32.562 42.9935 33.5665 42.9935V43.4827C34.1147 43.4827 34.7726 43.4827 35.3209 43.4827V42.9935C37.0622 42.9935 38.8429 42.9935 40.5842 42.9935V43.4827C40.8035 43.4827 41.2421 43.4827 41.4614 43.4827C41.4614 43.9181 41.4614 44.5149 41.4614 44.9503H41.0228V45.4395H40.5842V45.9287H40.1456V46.4179H39.707V46.9071C39.4877 46.9071 39.0491 46.9071 38.8297 46.9071V47.3963C38.4394 47.3963 37.9043 47.3963 37.5139 47.3963V47.8855C37.1236 47.8855 36.5885 47.8855 36.1981 47.8855V48.3747C35.8077 48.3747 35.2726 48.3747 34.8823 48.3747V48.8639C34.334 48.8639 33.6761 48.8639 33.1278 48.8639V49.3531C32.5796 49.3531 31.9217 49.3531 31.3734 49.3531V49.8423C30.9831 49.8423 30.448 49.8423 30.0576 49.8423V50.3315C29.8383 50.3315 29.3997 50.3315 29.1804 50.3315V50.8207C28.9611 50.8207 28.5225 50.8207 28.3032 50.8207C28.3032 51.0653 28.3032 51.5545 28.3032 51.7991H28.7418V51.3099H29.1804V51.7991H29.619V52.2883H30.0576V51.7991H30.4962V52.2883H30.9348V52.7775H31.3734V52.2883H31.812V52.7775H32.2506V53.2667H32.6892V53.7559H33.1278V54.2451H32.6892V54.7343C32.9085 54.7343 33.3472 54.7343 33.5665 54.7343C33.5665 55.1697 33.5665 55.7665 33.5665 56.2019C33.7858 56.2019 34.2244 56.2019 34.4437 56.2019V55.7127H34.0051Z" fill="black"/>
<path d="M33.5665 55.2235V54.7343C33.3472 54.7343 32.9085 54.7343 32.6892 54.7343V55.2235H32.2506V54.7343H31.812V55.2235H31.3734V54.7343H30.9348V54.2451H30.4962V54.7343H30.0576V54.2451H29.619V54.7343H29.1804V54.2451H28.7418V53.7559H28.3032V53.2667H27.8646V52.7775H27.426V53.2667H26.9873V52.7775H26.5487V52.2883H26.9873V51.7991H26.5487V51.3099H26.9873V51.7991H27.426V51.3099H27.8646V51.7991H28.3032C28.3032 51.5545 28.3032 51.0653 28.3032 50.8207C28.5225 50.8207 28.9611 50.8207 29.1804 50.8207V50.3315C29.3997 50.3315 29.8383 50.3315 30.0576 50.3315V49.8423C30.448 49.8423 30.9831 49.8423 31.3734 49.8423V49.3531C31.9217 49.3531 32.5796 49.3531 33.1278 49.3531V48.8639C33.6761 48.8639 34.334 48.8639 34.8823 48.8639V48.3747C35.2726 48.3747 35.8077 48.3747 36.1981 48.3747V47.8855C36.5885 47.8855 37.1236 47.8855 37.5139 47.8855V47.3963C37.9043 47.3963 38.4394 47.3963 38.8298 47.3963V46.9071C39.0491 46.9071 39.4877 46.9071 39.707 46.9071V46.4179H40.1456V45.9287H40.5842V45.4395H41.0228V44.9503H41.4614C41.4614 44.5149 41.4614 43.9181 41.4614 43.4827C41.2421 43.4827 40.8035 43.4827 40.5842 43.4827V43.9719C40.3649 43.9719 39.9263 43.9719 39.707 43.9719V44.4611C39.3166 44.4611 38.7815 44.4611 38.3911 44.4611V44.9503C37.8429 44.9503 37.185 44.9503 36.6367 44.9503V45.4395C35.9349 45.4395 35.1454 45.4395 34.4437 45.4395V45.9287C30.6497 45.9287 26.8338 45.9287 23.0399 45.9287V45.4395C22.8206 45.4395 22.382 45.4395 22.1627 45.4395V44.9503H21.7241V44.4611H22.1627V44.9503C22.382 44.9503 22.8206 44.9503 23.0399 44.9503V45.4395C23.7416 45.4395 24.5311 45.4395 25.2329 45.4395V44.9503C25.6233 44.9503 26.1584 44.9503 26.5487 44.9503V44.4611C26.768 44.4611 27.2066 44.4611 27.426 44.4611V43.9719C27.6453 43.9719 28.0839 43.9719 28.3032 43.9719V43.4827H28.7418V42.9935H29.1804V42.5043H29.619V42.0151H30.0576V41.5259H30.4962V41.0367H30.9348V40.5475H31.3734V40.0583H31.812V39.5691H32.2506V39.0799H32.6892V38.5907H33.1278V38.1015H33.5665V37.6123H34.0051V37.1231H34.4437V36.6339H34.8823V36.1447H35.3209V35.6555H35.7595V35.1663C35.9788 35.1663 36.4174 35.1663 36.6367 35.1663V34.6771C36.856 34.6771 37.2946 34.6771 37.5139 34.6771V34.1879C37.9043 34.1879 38.4394 34.1879 38.8298 34.1879V33.6987C39.378 33.6987 40.0359 33.6987 40.5842 33.6987V33.2095H40.1456V32.7203C39.7552 32.7203 39.2201 32.7203 38.8298 32.7203V32.2312C37.8253 32.2312 36.7639 32.2312 35.7595 32.2312V32.7203C35.5402 32.7203 35.1016 32.7203 34.8823 32.7203V33.2095C34.663 33.2095 34.2244 33.2095 34.0051 33.2095V33.6987C33.7858 33.6987 33.3472 33.6987 33.1278 33.6987V34.1879C32.9085 34.1879 32.4699 34.1879 32.2506 34.1879V34.6771H31.812V35.1663C31.5927 35.1663 31.1541 35.1663 30.9348 35.1663V35.6555H30.4962V36.1447C30.2769 36.1447 29.8383 36.1447 29.619 36.1447V36.6339H29.1804V37.1231C28.9611 37.1231 28.5225 37.1231 28.3032 37.1231V37.6123H27.8646V38.1015C27.6453 38.1015 27.2066 38.1015 26.9873 38.1015V38.5907C26.768 38.5907 26.3294 38.5907 26.1101 38.5907V39.0799C25.8908 39.0799 25.4522 39.0799 25.2329 39.0799V39.5691C25.0136 39.5691 24.575 39.5691 24.3557 39.5691V40.0583C23.9653 40.0583 23.4302 40.0583 23.0399 40.0583C23.0399 38.9381 23.0399 37.7542 23.0399 36.6339H22.6013C22.6013 36.3893 22.6013 35.9001 22.6013 35.6555H22.1627V35.1663H21.7241V34.6771H21.2854V34.1879C21.0661 34.1879 20.6275 34.1879 20.4082 34.1879V33.6987C19.1056 33.6987 17.7634 33.6987 16.4608 33.6987V34.1879C16.2415 34.1879 15.8028 34.1879 15.5835 34.1879V34.6771H15.1449V35.1663H14.7063V35.6555H14.2677C14.2677 35.9001 14.2677 36.3893 14.2677 36.6339H13.8291C13.8291 38.0869 13.8291 39.5838 13.8291 41.0367H14.2677C14.2677 41.2813 14.2677 41.7705 14.2677 42.0151H14.7063V42.5043H15.1449V42.9935H15.5835C15.5835 42.7489 15.5835 42.2597 15.5835 42.0151H15.1449V41.5259H14.7063C14.7063 41.2813 14.7063 40.7921 14.7063 40.5475H14.2677C14.2677 39.4273 14.2677 38.2434 14.2677 37.1231H14.7063C14.7063 36.8785 14.7063 36.3893 14.7063 36.1447H15.1449V35.6555H15.5835V35.1663H16.0222V34.6771C16.2415 34.6771 16.6801 34.6771 16.8994 34.6771V34.1879C17.9038 34.1879 18.9652 34.1879 19.9696 34.1879V34.6771C20.1889 34.6771 20.6275 34.6771 20.8468 34.6771V35.1663H21.2854V35.6555H21.7241V36.1447H22.1627C22.1627 36.3893 22.1627 36.8785 22.1627 37.1231H22.6013C22.6013 38.4097 22.6013 39.7501 22.6013 41.0367C22.382 41.0367 21.9434 41.0367 21.7241 41.0367V40.5475C20.8688 40.5475 19.9477 40.5475 19.0924 40.5475V41.0367C18.702 41.0367 18.1669 41.0367 17.7766 41.0367V41.5259C17.5573 41.5259 17.1187 41.5259 16.8994 41.5259V42.0151H16.4608C16.4608 42.2597 16.4608 42.7489 16.4608 42.9935H16.0222C16.0222 43.4289 16.0222 44.0257 16.0222 44.4611H15.5835V43.9719H15.1449V44.4611H14.7063V44.9503H14.2677V45.4395H13.8291V44.9503H13.3905V45.4395H12.9519V44.9503H12.5133V45.4395H12.0747V44.9503H11.6361V44.4611H11.1975V43.9719H10.7589V43.4827H11.1975V42.9935H10.7589V42.5043H11.1975V42.0151H10.7589V41.5259H11.1975V41.0367H11.6361V40.5475H12.0747V40.0583H12.5133V40.5475H12.9519V40.0583H13.3905C13.3905 38.9381 13.3905 37.7542 13.3905 36.6339H13.8291C13.8291 36.3893 13.8291 35.9001 13.8291 35.6555H14.2677V35.1663H14.7063V34.6771H15.1449V34.1879H15.5835V33.6987C15.8028 33.6987 16.2415 33.6987 16.4608 33.6987V33.2095C17.7634 33.2095 19.1056 33.2095 20.4082 33.2095V32.7203H20.8468V32.2312H21.2854V31.742H20.8468V31.2528H21.2854V30.7636H21.7241V30.2744H22.1627V29.7852H21.7241V29.296C21.3337 29.296 20.7986 29.296 20.4082 29.296V28.8068C18.667 28.8068 16.8862 28.8068 15.1449 28.8068V29.296C14.9256 29.296 14.487 29.296 14.2677 29.296V29.7852C14.0484 29.7852 13.6098 29.7852 13.3905 29.7852V30.2744H12.9519V30.7636H12.5133V31.2528H12.0747V31.742H11.6361V32.2312H11.1975C11.1975 32.4757 11.1975 32.9649 11.1975 33.2095H10.7589C10.7589 33.4541 10.7589 33.9433 10.7589 34.1879H10.3203C10.3203 34.4325 10.3203 34.9217 10.3203 35.1663H9.88165C9.88165 35.4109 9.88165 35.9001 9.88165 36.1447H9.44304C9.44304 36.3893 9.44304 36.8785 9.44304 37.1231H9.00443C9.00443 37.3677 9.00443 37.8569 9.00443 38.1015H8.56582C8.56582 38.5369 8.56582 39.1337 8.56582 39.5691H8.12722C8.12722 40.1806 8.12722 40.9144 8.12722 41.5259H7.68861C7.68861 42.8125 7.68861 44.1529 7.68861 45.4395H7.25C7.25 49.0204 7.25 52.6209 7.25 56.2019C16.0178 56.2019 24.7987 56.2019 33.5665 56.2019C33.5665 55.9573 33.5665 55.4681 33.5665 55.2235Z" fill="white"/>
<path d="M32.6896 54.7343H32.251V55.2235H32.6896V54.7343Z" fill="black"/>
<path d="M31.8117 54.7343H31.373V55.2235H31.8117V54.7343Z" fill="black"/>
<path d="M32.6896 54.2451H32.251V54.7343H32.6896V54.2451Z" fill="white"/>
<path d="M32.2511 54.2451H31.8125V54.7343H32.2511V54.2451Z" fill="black"/>
<path d="M31.8117 54.2451H31.373V54.7343H31.8117V54.2451Z" fill="white"/>
<path d="M31.3732 54.2451H30.9346V54.7343H31.3732V54.2451Z" fill="black"/>
<path d="M30.4962 54.2451H30.0576V54.7343H30.4962V54.2451Z" fill="black"/>
<path d="M29.6193 54.2451H29.1807V54.7343H29.6193V54.2451Z" fill="black"/>
<path d="M33.1281 53.7559H32.6895V54.2451H33.1281V53.7559Z" fill="white"/>
<path d="M32.6896 53.7559H32.251V54.2451H32.6896V53.7559Z" fill="black"/>
<path d="M32.2511 53.7559H31.8125V54.2451H32.2511V53.7559Z" fill="white"/>
<path d="M31.8117 53.7559H31.373V54.2451H31.8117V53.7559Z" fill="black"/>
<path d="M31.3732 53.7559H30.9346V54.2451H31.3732V53.7559Z" fill="white"/>
<path d="M30.9347 53.7559H30.4961V54.2451H30.9347V53.7559Z" fill="black"/>
<path d="M30.4962 53.7559H30.0576V54.2451H30.4962V53.7559Z" fill="white"/>
<path d="M30.0577 53.7559H29.6191V54.2451H30.0577V53.7559Z" fill="black"/>
<path d="M29.6193 53.7559H29.1807V54.2451H29.6193V53.7559Z" fill="white"/>
<path d="M29.1808 53.7559H28.7422V54.2451H29.1808V53.7559Z" fill="black"/>
<path d="M32.6896 53.2667H32.251V53.7559H32.6896V53.2667Z" fill="white"/>
<path d="M32.2511 53.2667H31.8125V53.7559H32.2511V53.2667Z" fill="black"/>
<path d="M31.8117 53.2667H31.373V53.7559H31.8117V53.2667Z" fill="white"/>
<path d="M31.3732 53.2667H30.9346V53.7559H31.3732V53.2667Z" fill="black"/>
<path d="M30.9347 53.2667H30.4961V53.7559H30.9347V53.2667Z" fill="white"/>
<path d="M30.4962 53.2667H30.0576V53.7559H30.4962V53.2667Z" fill="black"/>
<path d="M30.0577 53.2667H29.6191V53.7559H30.0577V53.2667Z" fill="white"/>
<path d="M29.6193 53.2667H29.1807V53.7559H29.6193V53.2667Z" fill="black"/>
<path d="M29.1808 53.2667H28.7422V53.7559H29.1808V53.2667Z" fill="white"/>
<path d="M28.7413 53.2667H28.3027V53.7559H28.7413V53.2667Z" fill="black"/>
<path d="M32.2511 52.7775H31.8125V53.2667H32.2511V52.7775Z" fill="white"/>
<path d="M31.8117 52.7775H31.373V53.2667H31.8117V52.7775Z" fill="black"/>
<path d="M31.3732 52.7775H30.9346V53.2667H31.3732V52.7775Z" fill="white"/>
<path d="M30.9347 52.7775H30.4961V53.2667H30.9347V52.7775Z" fill="black"/>
<path d="M30.4962 52.7775H30.0576V53.2667H30.4962V52.7775Z" fill="white"/>
<path d="M30.0577 52.7775H29.6191V53.2667H30.0577V52.7775Z" fill="black"/>
<path d="M29.6193 52.7775H29.1807V53.2667H29.6193V52.7775Z" fill="white"/>
<path d="M29.1808 52.7775H28.7422V53.2667H29.1808V52.7775Z" fill="black"/>
<path d="M28.7413 52.7775H28.3027V53.2667H28.7413V52.7775Z" fill="white"/>
<path d="M28.3029 52.7775H27.8643V53.2667H28.3029V52.7775Z" fill="black"/>
<path d="M27.4259 52.7775H26.9873V53.2667H27.4259V52.7775Z" fill="black"/>
<path d="M31.8117 52.2883H31.373V52.7775H31.8117V52.2883Z" fill="white"/>
<path d="M30.9347 52.2883H30.4961V52.7775H30.9347V52.2883Z" fill="white"/>
<path d="M30.4962 52.2883H30.0576V52.7775H30.4962V52.2883Z" fill="black"/>
<path d="M30.0577 52.2883H29.6191V52.7775H30.0577V52.2883Z" fill="white"/>
<path d="M29.6193 52.2883H29.1807V52.7775H29.6193V52.2883Z" fill="black"/>
<path d="M29.1808 52.2883H28.7422V52.7775H29.1808V52.2883Z" fill="white"/>
<path d="M28.7413 52.2883H28.3027V52.7775H28.7413V52.2883Z" fill="black"/>
<path d="M28.3029 52.2883H27.8643V52.7775H28.3029V52.2883Z" fill="white"/>
<path d="M27.8644 52.2883H27.4258V52.7775H27.8644V52.2883Z" fill="black"/>
<path d="M27.4259 52.2883H26.9873V52.7775H27.4259V52.2883Z" fill="white"/>
<path d="M26.9874 52.2883H26.5488V52.7775H26.9874V52.2883Z" fill="black"/>
<path d="M30.4962 51.7991H30.0576V52.2883H30.4962V51.7991Z" fill="white"/>
<path d="M29.6193 51.7991H29.1807V52.2883H29.6193V51.7991Z" fill="white"/>
<path d="M29.1808 51.7991H28.7422V52.2883H29.1808V51.7991Z" fill="black"/>
<path d="M28.7413 51.7991H28.3027V52.2883H28.7413V51.7991Z" fill="white"/>
<path d="M28.3029 51.7991H27.8643V52.2883H28.3029V51.7991Z" fill="black"/>
<path d="M27.8644 51.7991H27.4258V52.2883H27.8644V51.7991Z" fill="white"/>
<path d="M27.4259 51.7991H26.9873V52.2883H27.4259V51.7991Z" fill="black"/>
<path d="M29.1808 51.3099H28.7422V51.7991H29.1808V51.3099Z" fill="white"/>
<path d="M27.8644 51.3099H27.4258V51.7991H27.8644V51.3099Z" fill="black"/>
<path d="M26.9874 51.3099H26.5488V51.7991H26.9874V51.3099Z" fill="black"/>
<path d="M35.3206 45.4395C35.7109 45.4395 36.246 45.4395 36.6364 45.4395V44.9503C35.9346 44.9503 35.1451 44.9503 34.4434 44.9503V45.4395C34.6627 45.4395 35.1013 45.4395 35.3206 45.4395Z" fill="black"/>
<path d="M22.6017 44.9503H22.1631V45.4395C22.3824 45.4395 22.821 45.4395 23.0403 45.4395V44.9503H22.6017Z" fill="black"/>
<path d="M14.2677 44.9503H13.8291V45.4395H14.2677V44.9503Z" fill="black"/>
<path d="M13.3908 44.9503H12.9521V45.4395H13.3908V44.9503Z" fill="black"/>
<path d="M12.5128 44.9503H12.0742V45.4395H12.5128V44.9503Z" fill="black"/>
<path d="M37.5141 44.4611H37.0755V43.9719C36.8562 43.9719 36.4175 43.9719 36.1982 43.9719V44.4611H36.6368V44.9503C37.1851 44.9503 37.843 44.9503 38.3913 44.9503V44.4611C38.172 44.4611 37.7334 44.4611 37.5141 44.4611Z" fill="black"/>
<path d="M34.8826 44.9503C35.4308 44.9503 36.0887 44.9503 36.637 44.9503V44.4611H36.1984V43.9719C35.9791 43.9719 35.5405 43.9719 35.3212 43.9719V43.4827C34.7729 43.4827 34.115 43.4827 33.5667 43.4827V42.9935C32.5623 42.9935 31.5009 42.9935 30.4965 42.9935V43.4827H30.0579V43.9719H29.6193V44.4611H29.1807C29.1807 44.7057 29.1807 45.1949 29.1807 45.4395C30.9219 45.4395 32.7027 45.4395 34.444 45.4395V44.9503H34.8826Z" fill="white"/>
<path d="M22.1622 44.4611H21.7236V44.9503H22.1622V44.4611Z" fill="black"/>
<path d="M14.7062 44.4611H14.2676V44.9503H14.7062V44.4611Z" fill="black"/>
<path d="M14.2677 44.4611H13.8291V44.9503H14.2677V44.4611Z" fill="white"/>
<path d="M13.8292 44.4611H13.3906V44.9503H13.8292V44.4611Z" fill="black"/>
<path d="M13.3908 44.4611H12.9521V44.9503H13.3908V44.4611Z" fill="white"/>
<path d="M12.9523 44.4611H12.5137V44.9503H12.9523V44.4611Z" fill="black"/>
<path d="M12.5128 44.4611H12.0742V44.9503H12.5128V44.4611Z" fill="white"/>
<path d="M12.0743 44.4611H11.6357V44.9503H12.0743V44.4611Z" fill="black"/>
<path d="M38.8302 43.9719H38.3916V44.4611C38.782 44.4611 39.3171 44.4611 39.7074 44.4611V43.9719C39.4881 43.9719 39.0495 43.9719 38.8302 43.9719Z" fill="black"/>
<path d="M15.1447 43.9719H14.7061V44.4611H15.1447V43.9719Z" fill="black"/>
<path d="M14.7062 43.9719H14.2676V44.4611H14.7062V43.9719Z" fill="white"/>
<path d="M14.2677 43.9719H13.8291V44.4611H14.2677V43.9719Z" fill="black"/>
<path d="M13.8292 43.9719H13.3906V44.4611H13.8292V43.9719Z" fill="white"/>
<path d="M13.3908 43.9719H12.9521V44.4611H13.3908V43.9719Z" fill="black"/>
<path d="M12.9523 43.9719H12.5137V44.4611H12.9523V43.9719Z" fill="white"/>
<path d="M12.5128 43.9719H12.0742V44.4611H12.5128V43.9719Z" fill="black"/>
<path d="M12.0743 43.9719H11.6357V44.4611H12.0743V43.9719Z" fill="white"/>
<path d="M11.6359 43.9719H11.1973V44.4611H11.6359V43.9719Z" fill="black"/>
<path d="M39.707 43.4827V43.9719C39.9263 43.9719 40.3649 43.9719 40.5842 43.9719V43.4827C40.3649 43.4827 39.9263 43.4827 39.707 43.4827Z" fill="black"/>
<path d="M35.7599 43.9719H36.1985V43.4827C35.9792 43.4827 35.5406 43.4827 35.3213 43.4827V43.9719H35.7599Z" fill="black"/>
<path d="M15.1447 43.4827H14.7061V43.9719H15.1447V43.4827Z" fill="white"/>
<path d="M14.7062 43.4827H14.2676V43.9719H14.7062V43.4827Z" fill="black"/>
<path d="M14.2677 43.4827H13.8291V43.9719H14.2677V43.4827Z" fill="white"/>
<path d="M13.8292 43.4827H13.3906V43.9719H13.8292V43.4827Z" fill="black"/>
<path d="M13.3908 43.4827H12.9521V43.9719H13.3908V43.4827Z" fill="white"/>
<path d="M12.9523 43.4827H12.5137V43.9719H12.9523V43.4827Z" fill="black"/>
<path d="M12.5128 43.4827H12.0742V43.9719H12.5128V43.4827Z" fill="white"/>
<path d="M12.0743 43.4827H11.6357V43.9719H12.0743V43.4827Z" fill="black"/>
<path d="M11.6359 43.4827H11.1973V43.9719H11.6359V43.4827Z" fill="white"/>
<path d="M11.1974 43.4827H10.7588V43.9719H11.1974V43.4827Z" fill="black"/>
<path d="M36.1985 43.4827V43.9719C36.4178 43.9719 36.8564 43.9719 37.0757 43.9719V44.4611C37.4661 44.4611 38.0012 44.4611 38.3915 44.4611V43.9719C38.7819 43.9719 39.317 43.9719 39.7074 43.9719V43.4827C39.9267 43.4827 40.3653 43.4827 40.5846 43.4827V42.9935C38.8433 42.9935 37.0626 42.9935 35.3213 42.9935V43.4827C35.5406 43.4827 35.9792 43.4827 36.1985 43.4827Z" fill="white"/>
<path d="M14.7062 42.9935H14.2676V43.4827H14.7062V42.9935Z" fill="white"/>
<path d="M14.2677 42.9935H13.8291V43.4827H14.2677V42.9935Z" fill="black"/>
<path d="M13.8292 42.9935H13.3906V43.4827H13.8292V42.9935Z" fill="white"/>
<path d="M13.3908 42.9935H12.9521V43.4827H13.3908V42.9935Z" fill="black"/>
<path d="M12.9523 42.9935H12.5137V43.4827H12.9523V42.9935Z" fill="white"/>
<path d="M12.5128 42.9935H12.0742V43.4827H12.5128V42.9935Z" fill="black"/>
<path d="M12.0743 42.9935H11.6357V43.4827H12.0743V42.9935Z" fill="white"/>
<path d="M11.6359 42.9935H11.1973V43.4827H11.6359V42.9935Z" fill="black"/>
<path d="M14.2677 42.5043H13.8291V42.9935H14.2677V42.5043Z" fill="white"/>
<path d="M13.8292 42.5043H13.3906V42.9935H13.8292V42.5043Z" fill="black"/>
<path d="M13.3908 42.5043H12.9521V42.9935H13.3908V42.5043Z" fill="white"/>
<path d="M12.9523 42.5043H12.5137V42.9935H12.9523V42.5043Z" fill="black"/>
<path d="M12.5128 42.5043H12.0742V42.9935H12.5128V42.5043Z" fill="white"/>
<path d="M12.0743 42.5043H11.6357V42.9935H12.0743V42.5043Z" fill="black"/>
<path d="M11.6359 42.5043H11.1973V42.9935H11.6359V42.5043Z" fill="white"/>
<path d="M11.1974 42.5043H10.7588V42.9935H11.1974V42.5043Z" fill="black"/>
<path d="M13.8292 42.0151H13.3906V42.5043H13.8292V42.0151Z" fill="white"/>
<path d="M13.3908 42.0151H12.9521V42.5043H13.3908V42.0151Z" fill="black"/>
<path d="M12.9523 42.0151H12.5137V42.5043H12.9523V42.0151Z" fill="white"/>
<path d="M12.5128 42.0151H12.0742V42.5043H12.5128V42.0151Z" fill="black"/>
<path d="M12.0743 42.0151H11.6357V42.5043H12.0743V42.0151Z" fill="white"/>
<path d="M11.6359 42.0151H11.1973V42.5043H11.6359V42.0151Z" fill="black"/>
<path d="M16.4605 42.0151C16.4605 41.7705 16.4605 41.2813 16.4605 41.0367H16.0219C16.0219 40.7921 16.0219 40.3029 16.0219 40.0583H15.5833C15.5833 39.2756 15.5833 38.395 15.5833 37.6123H16.0219C16.0219 37.3677 16.0219 36.8785 16.0219 36.6339H16.4605V36.1447C16.6798 36.1447 17.1184 36.1447 17.3377 36.1447V35.6555C18.0395 35.6555 18.829 35.6555 19.5307 35.6555V36.1447C19.75 36.1447 20.1887 36.1447 20.408 36.1447V36.6339H20.8466C20.8466 36.8785 20.8466 37.3677 20.8466 37.6123H21.2852C21.2852 38.395 21.2852 39.2756 21.2852 40.0583H21.7238V40.5475H22.1624C22.1624 39.4272 22.1624 38.2434 22.1624 37.1231H21.7238C21.7238 36.8785 21.7238 36.3893 21.7238 36.1447H21.2852V35.6555H20.8466V35.1663C20.6273 35.1663 20.1887 35.1663 19.9693 35.1663V34.6771C18.9649 34.6771 17.9035 34.6771 16.8991 34.6771V35.1663C16.6798 35.1663 16.2412 35.1663 16.0219 35.1663V35.6555H15.5833V36.1447H15.1447C15.1447 36.3893 15.1447 36.8785 15.1447 37.1231H14.7061C14.7061 38.2434 14.7061 39.4272 14.7061 40.5475H15.1447C15.1447 40.7921 15.1447 41.2813 15.1447 41.5259H15.5833V42.0151C15.8026 42.0151 16.2412 42.0151 16.4605 42.0151Z" fill="white"/>
<path d="M15.5831 41.5259H15.1445V42.0151H15.5831V41.5259Z" fill="black"/>
<path d="M13.3906 41.5259V42.0151H13.8292V42.5043H14.2678V42.9935H14.7064V43.4827H15.1451V43.9719H15.5837V44.4611H16.0223C16.0223 44.0257 16.0223 43.4289 16.0223 42.9935H16.4609C16.4609 42.7489 16.4609 42.2597 16.4609 42.0151C16.2416 42.0151 15.803 42.0151 15.5837 42.0151C15.5837 42.2597 15.5837 42.7489 15.5837 42.9935H15.1451V42.5043H14.7064V42.0151H14.2678C14.2678 41.7705 14.2678 41.2813 14.2678 41.0367H13.8292V41.5259H13.3906Z" fill="black"/>
<path d="M13.3908 41.5259H12.9521V42.0151H13.3908V41.5259Z" fill="white"/>
<path d="M12.9523 41.5259H12.5137V42.0151H12.9523V41.5259Z" fill="black"/>
<path d="M12.5128 41.5259H12.0742V42.0151H12.5128V41.5259Z" fill="white"/>
<path d="M12.0743 41.5259H11.6357V42.0151H12.0743V41.5259Z" fill="black"/>
<path d="M11.6359 41.5259H11.1973V42.0151H11.6359V41.5259Z" fill="white"/>
<path d="M11.1974 41.5259H10.7588V42.0151H11.1974V41.5259Z" fill="black"/>
<path d="M13.8292 41.0367H13.3906V41.5259H13.8292V41.0367Z" fill="white"/>
<path d="M13.3908 41.0367H12.9521V41.5259H13.3908V41.0367Z" fill="black"/>
<path d="M12.9523 41.0367H12.5137V41.5259H12.9523V41.0367Z" fill="white"/>
<path d="M12.5128 41.0367H12.0742V41.5259H12.5128V41.0367Z" fill="black"/>
<path d="M12.0743 41.0367H11.6357V41.5259H12.0743V41.0367Z" fill="white"/>
<path d="M11.6359 41.0367H11.1973V41.5259H11.6359V41.0367Z" fill="black"/>
<path d="M15.1447 40.5475H14.7061C14.7061 40.7921 14.7061 41.2813 14.7061 41.5259H15.1447C15.1447 41.2813 15.1447 40.7921 15.1447 40.5475Z" fill="black"/>
<path d="M13.3908 40.5475H12.9521V41.0367H13.3908V40.5475Z" fill="white"/>
<path d="M12.9523 40.5475H12.5137V41.0367H12.9523V40.5475Z" fill="black"/>
<path d="M12.5128 40.5475H12.0742V41.0367H12.5128V40.5475Z" fill="white"/>
<path d="M12.0743 40.5475H11.6357V41.0367H12.0743V40.5475Z" fill="black"/>
<path d="M21.2859 40.0583C21.2859 39.2756 21.2859 38.395 21.2859 37.6123H20.8473C20.8473 37.3677 20.8473 36.8785 20.8473 36.6339H20.4087V36.1447C20.1894 36.1447 19.7508 36.1447 19.5315 36.1447V35.6555C18.8297 35.6555 18.0402 35.6555 17.3384 35.6555V36.1447C17.1191 36.1447 16.6805 36.1447 16.4612 36.1447V36.6339H16.0226C16.0226 36.8785 16.0226 37.3677 16.0226 37.6123H15.584C15.584 38.395 15.584 39.2756 15.584 40.0583H16.0226C16.0226 40.3029 16.0226 40.7921 16.0226 41.0367H16.4612C16.4612 41.2813 16.4612 41.7705 16.4612 42.0151H16.8998V41.5259C17.1191 41.5259 17.5577 41.5259 17.777 41.5259V41.0367C18.1674 41.0367 18.7025 41.0367 19.0928 41.0367V40.5475C19.9481 40.5475 20.8692 40.5475 21.7245 40.5475V40.0583H21.2859ZM17.3384 38.1015V37.6123C17.5577 37.6123 17.9963 37.6123 18.2156 37.6123C18.2156 37.8569 18.2156 38.3461 18.2156 38.5907C17.9963 38.5907 17.5577 38.5907 17.3384 38.5907V38.1015Z" fill="black"/>
<path d="M12.5128 40.0583H12.0742V40.5475H12.5128V40.0583Z" fill="black"/>
<path d="M23.4786 39.5691C23.4786 38.6152 23.4786 37.5878 23.4786 36.6339H23.04C23.04 37.7542 23.04 38.938 23.04 40.0583C23.4304 40.0583 23.9655 40.0583 24.3559 40.0583V39.5691C24.1366 39.5691 23.698 39.5691 23.4786 39.5691Z" fill="black"/>
<path d="M14.7062 39.5692C14.7062 38.7864 14.7062 37.9059 14.7062 37.1232H14.2676C14.2676 38.2434 14.2676 39.4273 14.2676 40.5476H14.7062C14.7062 40.303 14.7062 39.8138 14.7062 39.5692Z" fill="black"/>
<path d="M24.3555 39.08V39.5692C24.5748 39.5692 25.0134 39.5692 25.2327 39.5692V39.08C25.0134 39.08 24.5748 39.08 24.3555 39.08Z" fill="black"/>
<path d="M25.2334 38.5907V39.0799C25.4527 39.0799 25.8913 39.0799 26.1106 39.0799V38.5907C25.8913 38.5907 25.4527 38.5907 25.2334 38.5907Z" fill="black"/>
<path d="M26.1104 38.1015V38.5907C26.3297 38.5907 26.7683 38.5907 26.9876 38.5907V38.1015C26.7683 38.1015 26.3297 38.1015 26.1104 38.1015Z" fill="black"/>
<path d="M18.2151 38.5908C18.2151 38.3462 18.2151 37.857 18.2151 37.6124C17.9958 37.6124 17.5572 37.6124 17.3379 37.6124C17.3379 37.857 17.3379 38.3462 17.3379 38.5908C17.5572 38.5908 17.9958 38.5908 18.2151 38.5908Z" fill="white"/>
<path d="M26.9873 37.6124V38.1016C27.2066 38.1016 27.6452 38.1016 27.8645 38.1016V37.6124C27.6452 37.6124 27.2066 37.6124 26.9873 37.6124Z" fill="black"/>
<path d="M22.1622 38.1016C22.1622 38.8843 22.1622 39.7648 22.1622 40.5476H21.7236V41.0368C21.9429 41.0368 22.3815 41.0368 22.6008 41.0368C22.6008 39.7502 22.6008 38.4098 22.6008 37.1232H22.1622C22.1622 37.3678 22.1622 37.857 22.1622 38.1016Z" fill="black"/>
<path d="M28.3029 37.1232H27.8643V37.6124H28.3029V37.1232Z" fill="black"/>
<path d="M28.3027 36.6339V37.1231C28.522 37.1231 28.9606 37.1231 29.18 37.1231V36.6339C28.9606 36.6339 28.522 36.6339 28.3027 36.6339Z" fill="black"/>
<path d="M21.7236 37.1231H22.1622C22.1622 36.8785 22.1622 36.3893 22.1622 36.1447H21.7236C21.7236 36.3893 21.7236 36.8785 21.7236 37.1231Z" fill="black"/>
<path d="M15.1447 36.6339V36.1447H14.7061C14.7061 36.3893 14.7061 36.8785 14.7061 37.1231H15.1447V36.6339Z" fill="black"/>
<path d="M13.3908 37.1231C13.3908 38.077 13.3908 39.1044 13.3908 40.0583H12.9521V40.5475H13.3908V41.0367H13.8294C13.8294 39.5838 13.8294 38.0868 13.8294 36.6339H13.3908V37.1231Z" fill="black"/>
<path d="M29.6193 36.1447H29.1807V36.6339H29.6193V36.1447Z" fill="black"/>
<path d="M29.6191 35.6555V36.1447C29.8384 36.1447 30.2771 36.1447 30.4964 36.1447V35.6555C30.2771 35.6555 29.8384 35.6555 29.6191 35.6555Z" fill="black"/>
<path d="M26.5491 35.6555C26.3298 35.6555 25.8912 35.6555 25.6719 35.6555V36.1447C26.2201 36.1447 26.878 36.1447 27.4263 36.1447V35.6555C27.207 35.6555 26.7684 35.6555 26.5491 35.6555Z" fill="black"/>
<path d="M23.0402 35.6555H22.6016C22.6016 35.9001 22.6016 36.3893 22.6016 36.6339H23.0402C23.0402 36.3893 23.0402 35.9001 23.0402 35.6555Z" fill="black"/>
<path d="M21.7238 35.6555H21.2852V36.1447H21.7238V35.6555Z" fill="black"/>
<path d="M15.5831 35.6555H15.1445V36.1447H15.5831V35.6555Z" fill="black"/>
<path d="M13.8291 36.1447V36.6339H14.2677C14.2677 36.3893 14.2677 35.9001 14.2677 35.6555H13.8291V36.1447Z" fill="black"/>
<path d="M30.9347 35.1664H30.4961V35.6556H30.9347V35.1664Z" fill="black"/>
<path d="M27.4258 35.1664V35.6556C27.6451 35.6556 28.0837 35.6556 28.303 35.6556V35.1664C28.0837 35.1664 27.6451 35.1664 27.4258 35.1664Z" fill="black"/>
<path d="M25.672 35.1664H25.2334V35.6556H25.672V35.1664Z" fill="black"/>
<path d="M22.6017 35.1664H22.1631V35.6556H22.6017V35.1664Z" fill="black"/>
<path d="M21.2853 35.1664H20.8467V35.6556H21.2853V35.1664Z" fill="black"/>
<path d="M16.0226 35.1664H15.584V35.6556H16.0226V35.1664Z" fill="black"/>
<path d="M14.7062 35.1664H14.2676V35.6556H14.7062V35.1664Z" fill="black"/>
<path d="M30.9346 34.6771V35.1663C31.1539 35.1663 31.5925 35.1663 31.8118 35.1663V34.6771C31.5925 34.6771 31.1539 34.6771 30.9346 34.6771Z" fill="black"/>
<path d="M28.3027 34.6771V35.1663C28.522 35.1663 28.9606 35.1663 29.18 35.1663V34.6771C28.9606 34.6771 28.522 34.6771 28.3027 34.6771Z" fill="black"/>
<path d="M25.2326 34.6771H24.7939V35.1663H25.2326V34.6771Z" fill="black"/>
<path d="M22.1622 34.6771H21.7236V35.1663H22.1622V34.6771Z" fill="black"/>
<path d="M20.4083 35.1663H20.8469V34.6771C20.6276 34.6771 20.189 34.6771 19.9697 34.6771V35.1663H20.4083Z" fill="black"/>
<path d="M16.8997 35.1663V34.6771C16.6804 34.6771 16.2418 34.6771 16.0225 34.6771V35.1663C16.2418 35.1663 16.6804 35.1663 16.8997 35.1663Z" fill="black"/>
<path d="M15.1447 34.6771H14.7061V35.1663H15.1447V34.6771Z" fill="black"/>
<path d="M32.2511 34.1879H31.8125V34.6771H32.2511V34.1879Z" fill="black"/>
<path d="M29.6193 34.1879H29.1807V34.6771H29.6193V34.1879Z" fill="black"/>
<path d="M17.7766 34.6771C18.4784 34.6771 19.2679 34.6771 19.9697 34.6771V34.1879C18.9653 34.1879 17.9038 34.1879 16.8994 34.1879V34.6771C17.1187 34.6771 17.5573 34.6771 17.7766 34.6771Z" fill="black"/>
<path d="M15.5831 34.1879H15.1445V34.6771H15.5831V34.1879Z" fill="black"/>
<path d="M29.6191 33.6987V34.1879C29.8384 34.1879 30.2771 34.1879 30.4964 34.1879V33.6987C30.2771 33.6987 29.8384 33.6987 29.6191 33.6987Z" fill="black"/>
<path d="M27.8644 33.6987H27.4258V34.1879H27.8644V33.6987Z" fill="black"/>
<path d="M24.7941 33.6987V33.2095H24.3555C24.3555 33.6449 24.3555 34.2417 24.3555 34.6771H24.7941C24.7941 34.4325 24.7941 33.9433 24.7941 33.6987Z" fill="black"/>
<path d="M22.1628 34.1879C22.1628 33.9433 22.1628 33.4541 22.1628 33.2095H21.7242V33.6987H21.2856V33.2095H20.847V32.7203H20.4084V33.2095C19.1057 33.2095 17.7636 33.2095 16.4609 33.2095V33.6987C17.7636 33.6987 19.1057 33.6987 20.4084 33.6987V34.1879C20.6277 34.1879 21.0663 34.1879 21.2856 34.1879V34.6771H21.7242V34.1879H22.1628Z" fill="black"/>
<path d="M15.584 33.6987V34.1879C15.8033 34.1879 16.2419 34.1879 16.4612 34.1879V33.6987C16.2419 33.6987 15.8033 33.6987 15.584 33.6987Z" fill="black"/>
<path d="M30.9347 33.2095H30.4961V33.6987H30.9347V33.2095Z" fill="black"/>
<path d="M27.4259 33.2095H26.9873V33.6987H27.4259V33.2095Z" fill="black"/>
<path d="M21.7238 33.2095H21.2852V33.6987H21.7238V33.2095Z" fill="white"/>
<path d="M29.1808 32.7203H28.7422V33.2095H29.1808V32.7203Z" fill="black"/>
<path d="M26.9874 32.7203H26.5488V33.2095H26.9874V32.7203Z" fill="black"/>
<path d="M25.2326 32.7203V32.2311H24.7939C24.7939 32.4757 24.7939 32.9649 24.7939 33.2095H25.2326V32.7203Z" fill="black"/>
<path d="M22.1622 32.7203H21.7236V33.2095H22.1622V32.7203Z" fill="white"/>
<path d="M21.7238 32.7203H21.2852V33.2095H21.7238V32.7203Z" fill="black"/>
<path d="M21.2853 32.7203H20.8467V33.2095H21.2853V32.7203Z" fill="white"/>
<path d="M28.7413 32.2311H28.3027V32.7203H28.7413V32.2311Z" fill="black"/>
<path d="M21.7238 32.2311H21.2852V32.7203H21.7238V32.2311Z" fill="white"/>
<path d="M21.2853 32.2311H20.8467V32.7203H21.2853V32.2311Z" fill="black"/>
<path d="M30.4962 31.7419H30.0576V32.2311H30.4962V31.7419Z" fill="black"/>
<path d="M28.3029 31.7419H27.8643V32.2311H28.3029V31.7419Z" fill="black"/>
<path d="M25.672 31.7419H25.2334V32.2311H25.672V31.7419Z" fill="black"/>
<path d="M22.1622 31.7419H21.7236V32.2311H22.1622V31.7419Z" fill="white"/>
<path d="M21.7238 31.7419H21.2852V32.2311H21.7238V31.7419Z" fill="black"/>
<path d="M30.0577 31.2527H29.6191V31.7419H30.0577V31.2527Z" fill="black"/>
<path d="M27.8644 31.2527H27.4258V31.7419H27.8644V31.2527Z" fill="black"/>
<path d="M26.1105 31.2527H25.6719V31.7419H26.1105V31.2527Z" fill="black"/>
<path d="M22.6008 31.7419H22.1622V32.2311H21.7236V32.7203H22.1622V33.2095H22.6008C22.6008 32.9649 22.6008 32.4757 22.6008 32.2311H23.0395C23.0395 31.9865 23.0395 31.4973 23.0395 31.2527H22.6008V31.7419Z" fill="black"/>
<path d="M22.6017 31.2527H22.1631V31.7419H22.6017V31.2527Z" fill="white"/>
<path d="M22.1622 31.2527H21.7236V31.7419H22.1622V31.2527Z" fill="black"/>
<path d="M21.7238 31.2527H21.2852V31.7419H21.7238V31.2527Z" fill="white"/>
<path d="M21.2853 31.2527H20.8467V31.7419H21.2853V31.2527Z" fill="black"/>
<path d="M29.6193 30.7635H29.1807V31.2527H29.6193V30.7635Z" fill="black"/>
<path d="M26.549 30.7635H26.1104V31.2527H26.549V30.7635Z" fill="black"/>
<path d="M23.4786 30.7635H23.04V31.2527H23.4786V30.7635Z" fill="black"/>
<path d="M23.0402 30.7635H22.6016V31.2527H23.0402V30.7635Z" fill="white"/>
<path d="M22.6017 30.7635H22.1631V31.2527H22.6017V30.7635Z" fill="black"/>
<path d="M22.1622 30.7635H21.7236V31.2527H22.1622V30.7635Z" fill="white"/>
<path d="M21.7238 30.7635H21.2852V31.2527H21.7238V30.7635Z" fill="black"/>
<path d="M29.1808 30.2744H28.7422V30.7636H29.1808V30.2744Z" fill="black"/>
<path d="M26.9874 30.2744H26.5488V30.7636H26.9874V30.2744Z" fill="black"/>
<path d="M23.4786 30.2744H23.04V30.7636H23.4786V30.2744Z" fill="white"/>
<path d="M23.0402 30.2744H22.6016V30.7636H23.0402V30.2744Z" fill="black"/>
<path d="M22.6017 30.2744H22.1631V30.7636H22.6017V30.2744Z" fill="white"/>
<path d="M22.1622 30.2744H21.7236V30.7636H22.1622V30.2744Z" fill="black"/>
<path d="M27.4256 29.7852V30.2744H26.987V30.7636H26.5484V31.2528H26.1098V31.742H25.6712V32.2311H25.2326C25.2326 32.4757 25.2326 32.9649 25.2326 33.2095H24.7939C24.7939 33.6449 24.7939 34.2418 24.7939 34.6771H25.2326V35.1663H25.6712V35.6555C26.2194 35.6555 26.8773 35.6555 27.4256 35.6555V35.1663C27.6449 35.1663 28.0835 35.1663 28.3028 35.1663V34.6771C28.5221 34.6771 28.9607 34.6771 29.18 34.6771V34.1879H29.6186V33.6987C29.8379 33.6987 30.2765 33.6987 30.4958 33.6987V33.2095H30.9345V32.7203H31.3731C31.3731 32.285 31.3731 31.6881 31.3731 31.2528H30.9345V30.7636H30.4958V30.2744H30.0572V29.7852H29.6186V29.296C29.0704 29.296 28.4125 29.296 27.8642 29.296V29.7852H27.4256ZM29.6186 30.7636V31.2528H30.0572V31.742H30.4958V32.2311H30.0572V31.742H29.6186V31.2528H29.18V30.7636H28.7414V30.2744H29.18V30.7636H29.6186ZM29.18 33.2095H28.7414V32.7203H28.3028V32.2311H27.8642V31.742H27.4256V31.2528H27.8642V31.742H28.3028V32.2311H28.7414V32.7203H29.18V33.2095ZM27.8642 34.1879H27.4256V33.6987H26.987V33.2095H26.5484V32.7203H26.987V33.2095H27.4256V33.6987H27.8642V34.1879Z" fill="white"/>
<path d="M27.4259 29.7852H26.9873V30.2744H27.4259V29.7852Z" fill="black"/>
<path d="M23.4786 30.2744V30.7636H23.9173V30.2744H24.3559V29.7852H23.9173V29.296H23.4786V29.7852H23.04V30.2744H23.4786Z" fill="black"/>
<path d="M23.0402 29.7852H22.6016V30.2744H23.0402V29.7852Z" fill="white"/>
<path d="M22.6008 29.7852H23.0395V29.296C22.6491 29.296 22.114 29.296 21.7236 29.296V29.7852H22.1622V30.2744H22.6008V29.7852Z" fill="black"/>
<path d="M27.8644 29.296H27.4258V29.7852H27.8644V29.296Z" fill="black"/>
<path d="M24.7941 29.296H24.3555V29.7852H24.7941V29.296Z" fill="black"/>
<path d="M24.3556 29.296H23.917V29.7852H24.3556V29.296Z" fill="white"/>
<path d="M25.2325 28.8068V29.296H24.7939V29.7852H24.3553V30.2744H23.9167V30.7636H23.4781V31.2528H23.0395C23.0395 31.4974 23.0395 31.9866 23.0395 32.2312H22.6008C22.6008 32.4758 22.6008 32.965 22.6008 33.2095H22.1622C22.1622 33.4541 22.1622 33.9433 22.1622 34.1879H21.7236V34.6771H22.1622V35.1663H22.6008V35.6555H23.0395C23.0395 35.9001 23.0395 36.3893 23.0395 36.6339H23.4781C23.4781 37.5879 23.4781 38.6152 23.4781 39.5691C23.6974 39.5691 24.136 39.5691 24.3553 39.5691V39.0799C24.5746 39.0799 25.0132 39.0799 25.2325 39.0799V38.5907C25.4518 38.5907 25.8904 38.5907 26.1097 38.5907V38.1015C26.329 38.1015 26.7676 38.1015 26.9869 38.1015V37.6123C27.2062 37.6123 27.6448 37.6123 27.8641 37.6123V37.1231H28.3027V36.6339C28.5221 36.6339 28.9607 36.6339 29.18 36.6339V36.1447H29.6186V35.6555C29.8379 35.6555 30.2765 35.6555 30.4958 35.6555V35.1663H30.9344V34.6771C31.1537 34.6771 31.5923 34.6771 31.8116 34.6771V34.1879H32.2502C32.2502 33.9433 32.2502 33.4541 32.2502 33.2095C31.8599 33.2095 31.3248 33.2095 30.9344 33.2095V33.6987H30.4958V34.1879C30.2765 34.1879 29.8379 34.1879 29.6186 34.1879V34.6771H29.18V35.1663C28.9607 35.1663 28.5221 35.1663 28.3027 35.1663V35.6555C28.0834 35.6555 27.6448 35.6555 27.4255 35.6555V36.1447C26.8773 36.1447 26.2194 36.1447 25.6711 36.1447V35.6555H25.2325V35.1663H24.7939V34.6771H24.3553C24.3553 34.2418 24.3553 33.6449 24.3553 33.2095H24.7939C24.7939 32.965 24.7939 32.4758 24.7939 32.2312H25.2325V31.742H25.6711V31.2528H26.1097V30.7636H26.5483V30.2744H26.9869V29.7852H27.4255V29.296H27.8641C27.8641 29.0514 27.8641 28.5622 27.8641 28.3176C27.1624 28.3176 26.3729 28.3176 25.6711 28.3176V28.8068H25.2325Z" fill="white"/>
<path d="M25.2326 28.8068H24.7939V29.296H25.2326V28.8068Z" fill="black"/>
<path d="M24.7941 28.8068H24.3555V29.296H24.7941V28.8068Z" fill="white"/>
<path d="M24.3556 28.8068H23.917V29.296H24.3556V28.8068Z" fill="black"/>
<path d="M20.8468 29.296C21.0661 29.296 21.5047 29.296 21.724 29.296V28.8068C21.3337 28.8068 20.7986 28.8068 20.4082 28.8068V29.296H20.8468Z" fill="black"/>
<path d="M25.672 28.3176H25.2334V28.8068H25.672V28.3176Z" fill="black"/>
<path d="M25.2326 28.3176H24.7939V28.8068H25.2326V28.3176Z" fill="white"/>
<path d="M24.7941 28.3176H24.3555V28.8068H24.7941V28.3176Z" fill="black"/>
<path d="M21.2855 28.8068H21.7241V29.296C22.1145 29.296 22.6496 29.296 23.0399 29.296V29.7852H23.4785V29.296H23.9171V28.8068H24.3557V28.3176H24.7944V27.8284H24.3557V27.3392C22.4653 27.3392 20.5442 27.3392 18.6538 27.3392V27.8284C18.1056 27.8284 17.4477 27.8284 16.8994 27.8284V28.3176C18.053 28.3176 19.2547 28.3176 20.4083 28.3176V28.8068C20.6276 28.8068 21.0662 28.8068 21.2855 28.8068Z" fill="white"/>
<path d="M25.672 27.8284H25.2334V28.3176H25.672V27.8284Z" fill="white"/>
</g>
</g>
<path d="M64.2495 52.1987C66.2476 52.1987 67.4937 51.0439 67.4937 49.3252V44.2495H65.8716V49.1802C65.8716 50.1846 65.2915 50.8237 64.2495 50.8237C63.2075 50.8237 62.6221 50.1846 62.6221 49.1802V44.2495H61V49.3252C61 51.0493 62.2622 52.1987 64.2495 52.1987Z" fill="#616161"/>
<path d="M68.9778 53.9604H70.5461V51.0547H70.6428C70.9436 51.6992 71.6042 52.0913 72.4153 52.0913C73.9138 52.0913 74.8162 50.9473 74.8162 49.0459V49.0352C74.8162 47.1499 73.8923 45.9897 72.4153 45.9897C71.5774 45.9897 70.949 46.3657 70.6428 46.9995H70.5461V46.0864H68.9778V53.9604ZM71.8782 50.7915C71.0564 50.7915 70.53 50.1309 70.53 49.0459V49.0352C70.53 47.9502 71.051 47.2896 71.8782 47.2896C72.7107 47.2896 73.2209 47.9502 73.2209 49.0352V49.0459C73.2209 50.1309 72.7053 50.7915 71.8782 50.7915Z" fill="#616161"/>
<path d="M77.9707 52.0913C78.8032 52.0913 79.4316 51.7207 79.7378 51.0815H79.8345V52H81.4028V43.8252H79.8345V47.0317H79.7378C79.4424 46.3872 78.7817 45.9897 77.9707 45.9897C76.4721 45.9897 75.5698 47.1338 75.5698 49.0352V49.0459C75.5698 50.9365 76.4936 52.0913 77.9707 52.0913ZM78.5024 50.7915C77.6753 50.7915 77.165 50.1362 77.165 49.0459V49.0352C77.165 47.9556 77.6753 47.2896 78.5024 47.2896C79.3296 47.2896 79.8506 47.9556 79.8506 49.0405V49.0513C79.8506 50.1362 79.3349 50.7915 78.5024 50.7915Z" fill="#616161"/>
<path d="M84.3962 52.0913C85.1696 52.0913 85.7927 51.7637 86.0935 51.2158H86.1902V52H87.737V47.9609C87.737 46.6987 86.8508 45.9575 85.2824 45.9575C83.7946 45.9575 82.8171 46.645 82.6936 47.6816L82.6882 47.73H84.1384L84.1491 47.7085C84.2727 47.3594 84.6325 47.1606 85.1965 47.1606C85.841 47.1606 86.1902 47.4507 86.1902 47.9609V48.4497L84.7614 48.5356C83.2898 48.6216 82.468 49.2446 82.468 50.3081V50.3188C82.468 51.3931 83.2683 52.0913 84.3962 52.0913ZM83.9988 50.2222V50.2114C83.9988 49.7817 84.3264 49.5293 84.9978 49.4863L86.1902 49.4111V49.8462C86.1902 50.4692 85.6477 50.9473 84.9226 50.9473C84.3801 50.9473 83.9988 50.6733 83.9988 50.2222Z" fill="#616161"/>
<path d="M91.4878 52.0215C91.7885 52.0215 92.0786 51.9893 92.2719 51.9517V50.7861C92.1215 50.8022 92.0141 50.813 91.81 50.813C91.2783 50.813 91.0527 50.5767 91.0527 50.0449V47.2681H92.2719V46.0864H91.0527V44.6738H89.4682V46.0864H88.5551V47.2681H89.4682V50.4048C89.4682 51.5542 90.0483 52.0215 91.4878 52.0215Z" fill="#616161"/>
<path d="M95.8938 52.1235C97.6232 52.1235 98.3859 51.1245 98.5686 50.3833L98.5793 50.3296H97.1184L97.1022 50.3618C96.9948 50.5874 96.6135 50.9526 95.926 50.9526C95.0935 50.9526 94.5725 50.3887 94.5564 49.4165H98.6276V48.9277C98.6276 47.1392 97.5534 45.9575 95.8293 45.9575C94.1052 45.9575 93.0041 47.166 93.0041 49.0459V49.0513C93.0041 50.9473 94.0944 52.1235 95.8938 52.1235ZM95.8562 47.1338C96.5383 47.1338 97.0271 47.5742 97.1237 48.4336H94.5725C94.6691 47.5957 95.174 47.1338 95.8562 47.1338Z" fill="#616161"/>
<path fill-rule="evenodd" clip-rule="evenodd" d="M89.4997 31.6667C90.098 31.6667 90.5911 32.117 90.6585 32.6973L90.6663 32.8333V35.1667C90.6663 37.0306 89.2093 38.5543 87.372 38.6607L87.1663 38.6667H70.833C68.969 38.6667 67.4454 37.2096 67.3389 35.3723L67.333 35.1667V32.8333C67.333 32.189 67.8553 31.6667 68.4997 31.6667C69.098 31.6667 69.5911 32.117 69.6585 32.6973L69.6663 32.8333V35.1667C69.6663 35.765 70.1167 36.2581 70.6969 36.3255L70.833 36.3333H87.1663C87.7646 36.3333 88.2578 35.8829 88.3252 35.3027L88.333 35.1667V32.8333C88.333 32.189 88.8553 31.6667 89.4997 31.6667ZM79.1728 31.6538L79.1047 31.662L78.9996 31.6666L78.9118 31.6634L78.7654 31.643L78.6355 31.6086L78.5059 31.5574L78.3921 31.4963L78.2699 31.4103L78.1747 31.3249L74.6747 27.8249C74.219 27.3693 74.219 26.6306 74.6747 26.175C75.1303 25.7194 75.869 25.7194 76.3246 26.175L77.833 27.6836V16.5C77.833 15.8556 78.3553 15.3333 78.9996 15.3333C79.644 15.3333 80.1663 15.8556 80.1663 16.5V27.6836L81.6747 26.175C82.1303 25.7194 82.869 25.7194 83.3246 26.175C83.7802 26.6306 83.7802 27.3693 83.3246 27.8249L79.8246 31.3249C79.7833 31.3662 79.7397 31.4038 79.6941 31.4376L79.5644 31.5212L79.4328 31.5835L79.3099 31.6248L79.1728 31.6538Z" fill="#F63F3F"/>
<g clip-path="url(#clip2_2785_234730)">
<path d="M49.9992 21.3865C55.7369 21.3865 60.3881 16.7352 60.3881 10.9976C60.3881 5.25997 55.7369 0.608704 49.9992 0.608704C44.2616 0.608704 39.6104 5.25997 39.6104 10.9976C39.6104 16.7352 44.2616 21.3865 49.9992 21.3865Z" fill="#F63F3F"/>
<circle cx="50.0017" cy="15.5244" r="1.2244" fill="white"/>
<rect x="48.7773" y="3.91205" width="2.44881" height="8.19238" rx="1.2244" fill="white"/>
</g>
</g>
<defs>
<filter id="filter0_d_2785_234730" x="-7" y="10" width="67" height="67" filterUnits="userSpaceOnUse" color-interpolation-filters="sRGB">
<feFlood flood-opacity="0" result="BackgroundImageFix"/>
<feColorMatrix in="SourceAlpha" type="matrix" values="0 0 0 0 0 0 0 0 0 0 0 0 0 0 0 0 0 0 127 0" result="hardAlpha"/>
<feMorphology radius="1" operator="dilate" in="SourceAlpha" result="effect1_dropShadow_2785_234730"/>
<feOffset dy="4"/>
<feGaussianBlur stdDeviation="8"/>
<feComposite in2="hardAlpha" operator="out"/>
<feColorMatrix type="matrix" values="0 0 0 0 0.796078 0 0 0 0 0.796078 0 0 0 0 0.796078 0 0 0 0.25 0"/>
<feBlend mode="normal" in2="BackgroundImageFix" result="effect1_dropShadow_2785_234730"/>
<feBlend mode="normal" in="SourceGraphic" in2="effect1_dropShadow_2785_234730" result="shape"/>
</filter>
<clipPath id="clip0_2785_234730">
<rect width="100" height="60" fill="white"/>
</clipPath>
<clipPath id="clip1_2785_234730">
<rect x="10" y="23" width="33" height="33" rx="4" fill="white"/>
</clipPath>
<clipPath id="clip2_2785_234730">
<rect width="22" height="22" fill="white" transform="translate(39)"/>
</clipPath>
</defs>
</svg>
