<svg width="32" height="32" viewBox="0 0 32 32" fill="none" xmlns="http://www.w3.org/2000/svg">
<path d="M5.31641 18.1445C5.31641 18.0176 5.29362 17.8988 5.24805 17.7881C5.20573 17.6774 5.13249 17.5732 5.02832 17.4756C4.9209 17.3812 4.78092 17.2949 4.6084 17.2168C4.43913 17.1354 4.22754 17.0605 3.97363 16.9922C3.57975 16.8848 3.23307 16.7546 2.93359 16.6016C2.63737 16.4486 2.39486 16.2809 2.20605 16.0986C2.01725 15.9163 1.87402 15.7145 1.77637 15.4932C1.68197 15.2718 1.63477 15.0309 1.63477 14.7705C1.63477 14.471 1.69824 14.1992 1.8252 13.9551C1.95215 13.7109 2.12793 13.5026 2.35254 13.3301C2.57715 13.1576 2.84245 13.0257 3.14844 12.9346C3.45443 12.8402 3.78646 12.793 4.14453 12.793C4.51562 12.793 4.85417 12.8467 5.16016 12.9541C5.4694 13.0615 5.7347 13.2113 5.95605 13.4033C6.17741 13.5986 6.34993 13.8298 6.47363 14.0967C6.59733 14.3636 6.65918 14.6566 6.65918 14.9756H5.32129C5.31478 14.8161 5.28548 14.6696 5.2334 14.5361C5.18457 14.4027 5.11133 14.2871 5.01367 14.1895C4.91276 14.0951 4.78743 14.0218 4.6377 13.9697C4.49121 13.9144 4.31868 13.8867 4.12012 13.8867C3.93783 13.8867 3.77507 13.9095 3.63184 13.9551C3.49186 13.9974 3.37305 14.0576 3.27539 14.1357C3.17773 14.2171 3.10286 14.3132 3.05078 14.4238C3.00195 14.5312 2.97754 14.6484 2.97754 14.7754C2.97754 14.9089 3.01009 15.0293 3.0752 15.1367C3.14355 15.2441 3.24121 15.3402 3.36816 15.4248C3.49512 15.5127 3.64811 15.5924 3.82715 15.6641C4.00944 15.7357 4.21452 15.8024 4.44238 15.8643C4.68652 15.9326 4.91927 16.0156 5.14062 16.1133C5.36198 16.2109 5.56543 16.3232 5.75098 16.4502C6.03092 16.6585 6.25391 16.901 6.41992 17.1777C6.58594 17.4544 6.66895 17.7734 6.66895 18.1348C6.66895 18.4473 6.60547 18.7256 6.47852 18.9697C6.35482 19.2106 6.18229 19.4141 5.96094 19.5801C5.73958 19.7493 5.47591 19.8779 5.16992 19.9658C4.86393 20.0505 4.53027 20.0928 4.16895 20.0928C3.81413 20.0928 3.46257 20.0407 3.11426 19.9365C2.76921 19.8291 2.4681 19.6729 2.21094 19.4678C1.9668 19.266 1.77311 19.0283 1.62988 18.7549C1.48991 18.4814 1.41992 18.1608 1.41992 17.793H2.76758C2.77409 18.0078 2.81152 18.1917 2.87988 18.3447C2.94824 18.4977 3.04427 18.623 3.16797 18.7207C3.28841 18.8184 3.43327 18.89 3.60254 18.9355C3.77507 18.9811 3.96387 19.0039 4.16895 19.0039C4.35124 19.0039 4.51237 18.9827 4.65234 18.9404C4.79557 18.8981 4.91602 18.8395 5.01367 18.7646C5.11133 18.6898 5.1862 18.6003 5.23828 18.4961C5.29036 18.3887 5.31641 18.2715 5.31641 18.1445ZM9.10059 18.8916H12.4307V20H7.72363V12.8906H9.10059V18.8916ZM18.0117 16.8848H15.0918V18.8916H18.5049V20H13.7148V12.8906H18.4902V14.0088H15.0918V15.8008H18.0117V16.8848ZM24.0176 16.8848H21.0977V18.8916H24.5107V20H19.7207V12.8906H24.4961V14.0088H21.0977V15.8008H24.0176V16.8848ZM27.1084 17.3926V20H25.7363V12.8906H28.168C28.5553 12.8906 28.9053 12.9476 29.2178 13.0615C29.5303 13.1722 29.7972 13.3268 30.0186 13.5254C30.2367 13.7272 30.4043 13.9681 30.5215 14.248C30.6419 14.528 30.7021 14.8389 30.7021 15.1807C30.7021 15.4997 30.6419 15.7943 30.5215 16.0645C30.4043 16.3346 30.2367 16.5674 30.0186 16.7627C29.7972 16.9613 29.5303 17.1159 29.2178 17.2266C28.9053 17.3372 28.5553 17.3926 28.168 17.3926H27.1084ZM27.1084 16.2793H28.168C28.3633 16.2793 28.5326 16.25 28.6758 16.1914C28.819 16.1328 28.9395 16.0531 29.0371 15.9521C29.1315 15.8512 29.2015 15.7357 29.2471 15.6055C29.2959 15.472 29.3203 15.3337 29.3203 15.1904C29.3203 15.0244 29.2959 14.8698 29.2471 14.7266C29.2015 14.5833 29.1315 14.458 29.0371 14.3506C28.9395 14.2432 28.819 14.1585 28.6758 14.0967C28.5326 14.0348 28.3633 14.0039 28.168 14.0039H27.1084V16.2793Z" fill="white"/>
</svg>
