<svg width="24" height="24" viewBox="0 0 24 24" fill="none" xmlns="http://www.w3.org/2000/svg">
<path fill-rule="evenodd" clip-rule="evenodd" d="M6.33711 5.93279C6.7277 6.32325 6.7278 6.95642 6.33734 7.34701C5.21879 8.46593 4.45712 9.8914 4.14865 11.4432C3.84018 12.995 3.99876 14.6034 4.60434 16.065C5.20991 17.5267 6.23529 18.7759 7.55083 19.6549C8.86637 20.5338 10.413 21.0029 11.9951 21.0029C13.5773 21.0029 15.1239 20.5338 16.4394 19.6549C17.7549 18.7759 18.7803 17.5267 19.3859 16.065C19.9915 14.6034 20.1501 12.995 19.8416 11.4432C19.5331 9.8914 18.7715 8.46593 17.6529 7.34701C17.2624 6.95642 17.2625 6.32325 17.6531 5.93279C18.0437 5.54233 18.6769 5.54244 19.0673 5.93302C20.4655 7.33168 21.4176 9.11351 21.8032 11.0532C22.1888 12.993 21.9906 15.0035 21.2336 16.8305C20.4766 18.6576 19.1949 20.2192 17.5505 21.3179C15.9061 22.4165 13.9728 23.0029 11.9951 23.0029C10.0174 23.0029 8.08418 22.4165 6.43976 21.3179C4.79534 20.2192 3.51361 18.6576 2.75664 16.8305C1.99967 15.0035 1.80144 12.993 2.18703 11.0532C2.57262 9.11351 3.5247 7.33168 4.9229 5.93302C5.31336 5.54244 5.94653 5.54233 6.33711 5.93279Z" fill="white"/>
<path fill-rule="evenodd" clip-rule="evenodd" d="M12 1C12.5523 1 13 1.44772 13 2V12C13 12.5523 12.5523 13 12 13C11.4477 13 11 12.5523 11 12V2C11 1.44772 11.4477 1 12 1Z" fill="white"/>
</svg>
