<svg width="238" height="100" viewBox="0 0 238 100" fill="none" xmlns="http://www.w3.org/2000/svg">
<g clip-path="url(#clip0_2739_24451)">
<path fill-rule="evenodd" clip-rule="evenodd" d="M91.307 14.04H118.736V14.9543H119.65V19.5258V28.6686V29.5829V39.64V40.5543V52.44L118.736 52.44V53.3543H88.5642V52.44L87.6499 52.44V41.4686H88.5642V42.3829H89.4785V41.4686H90.3928L90.3928 40.5543H91.307V39.64H90.3928V40.5543H89.4785V35.9829L88.5642 35.9829H87.6499V30.4972H88.5642V31.4115H89.4785V30.4972H90.3928L90.3928 29.5829L91.307 29.5829V28.6686H90.3928V19.5258V14.9543H91.307V14.04ZM89.4785 29.5829L88.5642 29.5829V30.4972H89.4785V29.5829ZM89.4785 29.5829V28.6686H90.3928V29.5829L89.4785 29.5829ZM89.4785 40.5543V41.4686H88.5642V40.5543H89.4785ZM115.078 15.8686L116.907 15.8686V19.5258H115.078V15.8686ZM103.193 15.8686H101.364V19.5258H103.193V15.8686ZM104.107 15.8686V19.5258H105.936V15.8686H104.107ZM108.678 19.5258H106.85V15.8686H108.678V19.5258ZM109.593 19.5258H111.421V15.8686H109.593V19.5258ZM114.164 19.5258H112.336V15.8686H114.164V19.5258ZM98.6213 15.8686H100.45V19.5258H98.6213V15.8686ZM95.8785 15.8686H97.707V19.5258H95.8785V15.8686ZM94.9642 15.8686L93.1356 15.8686V19.5258H94.9642V15.8686ZM101.25 27.9525H108.45V30.6525H101.25V27.9525ZM101.25 30.6525V33.3525H98.5499V30.6525H101.25ZM108.45 36.0525V30.6525H111.15V36.0525H108.45ZM105.75 38.7525V36.0525H108.45V38.7525H105.75ZM105.75 38.7525V41.4525H103.05V38.7525H105.75ZM105.75 44.1525V46.8525H103.05V44.1525H105.75Z" fill="black"/>
</g>
<defs>
<clipPath id="clip0_2739_24451">
<rect width="40" height="40" fill="white" transform="translate(83.6499 14.04)"/>
</clipPath>
</defs>
</svg>
