<?xml version="1.0" encoding="UTF-8" standalone="no"?>
<!DOCTYPE svg PUBLIC "-//W3C//DTD SVG 1.1//EN" "http://www.w3.org/Graphics/SVG/1.1/DTD/svg11.dtd">
<svg width="100%" height="100%" viewBox="0 0 315 132" version="1.1" xmlns="http://www.w3.org/2000/svg" xmlns:xlink="http://www.w3.org/1999/xlink" xml:space="preserve" xmlns:serif="http://www.serif.com/" style="fill-rule:evenodd;clip-rule:evenodd;stroke-linejoin:round;stroke-miterlimit:2;">
    <g transform="matrix(1.00281,0,0,1.0003,-9.96478,-2.0157)">
        <path d="M129.606,21.8L165.794,21.8L165.794,23.007L167,23.007L167,72.488L165.794,72.488L165.794,73.695L125.988,73.695L125.988,72.488L124.781,72.488L124.781,58.006L125.988,58.006L125.988,59.213L127.194,59.213L127.194,58.006L128.4,58.006L128.4,56.799L129.606,56.799L129.606,55.592L128.4,55.592L128.4,56.799L127.194,56.799L127.194,50.765L124.781,50.765L124.781,43.524L125.988,43.524L125.988,44.73L127.194,44.73L127.194,43.524L128.4,43.524L128.4,42.317L129.606,42.317L129.606,41.11L128.4,41.11L128.4,23.007L129.606,23.007L129.606,21.8ZM127.194,42.317L125.988,42.317L125.988,43.524L127.194,43.524L127.194,42.317ZM127.194,42.317L127.194,41.11L128.4,41.11L128.4,42.317L127.194,42.317ZM127.194,56.799L127.194,58.006L125.988,58.006L125.988,56.799L127.194,56.799ZM160.969,24.214L163.381,24.214L163.381,29.041L160.969,29.041L160.969,24.214ZM145.288,24.214L142.875,24.214L142.875,29.041L145.288,29.041L145.288,24.214ZM146.494,24.214L146.494,29.041L148.906,29.041L148.906,24.214L146.494,24.214ZM152.525,29.041L150.113,29.041L150.113,24.214L152.525,24.214L152.525,29.041ZM153.731,29.041L156.144,29.041L156.144,24.214L153.731,24.214L153.731,29.041ZM159.763,29.041L157.35,29.041L157.35,24.214L159.763,24.214L159.763,29.041ZM139.256,24.214L141.669,24.214L141.669,29.041L139.256,29.041L139.256,24.214ZM135.638,24.214L138.05,24.214L138.05,29.041L135.638,29.041L135.638,24.214ZM134.431,24.214L132.019,24.214L132.019,29.041L134.431,29.041L134.431,24.214ZM142.724,40.164L152.224,40.164L152.224,43.728L142.724,43.728L142.724,40.164ZM142.724,43.728L142.724,47.292L139.162,47.292L139.162,43.728L142.724,43.728ZM152.224,50.857L152.224,43.728L155.786,43.728L155.786,50.857L152.224,50.857ZM148.661,54.421L148.661,50.857L152.224,50.857L152.224,54.421L148.661,54.421ZM148.661,54.421L148.661,57.985L145.099,57.985L145.099,54.421L148.661,54.421ZM148.661,61.549L148.661,65.113L145.099,65.113L145.099,61.549L148.661,61.549Z"/>
    </g>
</svg>
