<svg width="24" height="24" viewBox="0 0 24 24" fill="none" xmlns="http://www.w3.org/2000/svg">
<path fill-rule="evenodd" clip-rule="evenodd" d="M1 12C1 11.4477 1.44772 11 2 11H22C22.5523 11 23 11.4477 23 12C23 12.5523 22.5523 13 22 13H2C1.44772 13 1 12.5523 1 12Z" fill="white"/>
<path fill-rule="evenodd" clip-rule="evenodd" d="M12 1C12.5523 1 13 1.44772 13 2V22C13 22.5523 12.5523 23 12 23C11.4477 23 11 22.5523 11 22V2C11 1.44772 11.4477 1 12 1Z" fill="white"/>
<path fill-rule="evenodd" clip-rule="evenodd" d="M20.7071 7.29289C21.0976 7.68342 21.0976 8.31658 20.7071 8.70711L17.4142 12L20.7071 15.2929C21.0976 15.6834 21.0976 16.3166 20.7071 16.7071C20.3166 17.0976 19.6834 17.0976 19.2929 16.7071L15.2929 12.7071C14.9024 12.3166 14.9024 11.6834 15.2929 11.2929L19.2929 7.29289C19.6834 6.90237 20.3166 6.90237 20.7071 7.29289Z" fill="white"/>
<path fill-rule="evenodd" clip-rule="evenodd" d="M3.29289 7.29289C3.68342 6.90237 4.31658 6.90237 4.70711 7.29289L8.70711 11.2929C9.09763 11.6834 9.09763 12.3166 8.70711 12.7071L4.70711 16.7071C4.31658 17.0976 3.68342 17.0976 3.29289 16.7071C2.90237 16.3166 2.90237 15.6834 3.29289 15.2929L6.58579 12L3.29289 8.70711C2.90237 8.31658 2.90237 7.68342 3.29289 7.29289Z" fill="white"/>
<path fill-rule="evenodd" clip-rule="evenodd" d="M7.29289 3.29289C7.68342 2.90237 8.31658 2.90237 8.70711 3.29289L12 6.58579L15.2929 3.29289C15.6834 2.90237 16.3166 2.90237 16.7071 3.29289C17.0976 3.68342 17.0976 4.31658 16.7071 4.70711L12.7071 8.70711C12.3166 9.09763 11.6834 9.09763 11.2929 8.70711L7.29289 4.70711C6.90237 4.31658 6.90237 3.68342 7.29289 3.29289Z" fill="white"/>
<path fill-rule="evenodd" clip-rule="evenodd" d="M11.2929 15.2929C11.6834 14.9024 12.3166 14.9024 12.7071 15.2929L16.7071 19.2929C17.0976 19.6834 17.0976 20.3166 16.7071 20.7071C16.3166 21.0976 15.6834 21.0976 15.2929 20.7071L12 17.4142L8.70711 20.7071C8.31658 21.0976 7.68342 21.0976 7.29289 20.7071C6.90237 20.3166 6.90237 19.6834 7.29289 19.2929L11.2929 15.2929Z" fill="white"/>
</svg>
