<svg width="42" height="24" viewBox="0 0 42 24" fill="none" xmlns="http://www.w3.org/2000/svg">
<path d="M6.97885 4.21049C7.58029 3.29869 8.59953 2.75 9.69181 2.75H34.4303C35.5326 2.75 36.5597 3.30868 37.1586 4.23401L40.7283 9.74894C41.0688 10.275 41.25 10.8883 41.25 11.5149V18C41.25 19.7949 39.7949 21.25 38 21.25H9.34742C8.41312 21.25 7.52401 20.8479 6.90698 20.1463L2.5807 15.2272C1.61287 14.1268 1.50125 12.5147 2.30818 11.2914L6.97885 4.21049Z" stroke="#AAAAAA" stroke-width="1.5"/>
<g clip-path="url(#clip0_851_5339)">
<path fill-rule="evenodd" clip-rule="evenodd" d="M20.5045 12.0641L17.2347 9.32045C16.967 9.0958 16.9321 8.69665 17.1567 8.42893C17.3814 8.1612 17.7805 8.12628 18.0483 8.35093L26.2713 15.2509C26.539 15.4755 26.5739 15.8747 26.3493 16.1424C26.1246 16.4101 25.7255 16.445 25.4577 16.2204L24.4093 15.3406L22.0837 17.6384C21.7235 17.9942 21.1189 17.7686 21.067 17.2879L21.0634 17.2208L21.0634 13.1339L19.0461 14.7294C18.7884 14.9331 18.4123 14.8918 18.2061 14.6372C18.0158 14.4021 18.0367 14.0674 18.2438 13.857L18.2994 13.8072L20.5045 12.0641ZM22.2585 13.5359V15.794L23.4944 14.5729L22.2585 13.5359ZM21.0634 6.59169L21.0634 9.24561L22.2585 10.2484V8.01785L23.7538 9.49529L22.5218 10.4693L23.45 11.2482L25.0227 10.0053L25.0841 9.94956C25.2349 9.79217 25.2821 9.569 25.2196 9.36682L25.1898 9.29159L25.1631 9.24217L25.1465 9.21624C25.1251 9.18468 25.1003 9.15466 25.072 9.12667L22.0837 6.17414L22.0331 6.12919C21.6524 5.82555 21.0634 6.08848 21.0634 6.59169Z" fill="#AAAAAA"/>
</g>
<defs>
<clipPath id="clip0_851_5339">
<rect width="12" height="12" fill="white" transform="translate(16 6)"/>
</clipPath>
</defs>
</svg>
