<svg width="32" height="32" viewBox="0 0 32 32" fill="none" xmlns="http://www.w3.org/2000/svg">
<path fill-rule="evenodd" clip-rule="evenodd" d="M8.44933 7.91039C8.97012 8.431 8.97025 9.27522 8.44964 9.79601C6.95823 11.2879 5.94267 13.1885 5.53138 15.2576C5.12009 17.3266 5.33152 19.4711 6.13896 21.42C6.9464 23.3689 8.31357 25.0346 10.0676 26.2065C11.8217 27.3784 13.8838 28.0039 15.9933 28.0039C18.1029 28.0039 20.165 27.3784 21.9191 26.2065C23.6731 25.0346 25.0403 23.3689 25.8477 21.42C26.6552 19.4711 26.8666 17.3266 26.4553 15.2576C26.044 13.1885 25.0285 11.2879 23.537 9.79601C23.0164 9.27522 23.0166 8.431 23.5374 7.91039C24.0581 7.38978 24.9024 7.38991 25.423 7.9107C27.2872 9.77557 28.5567 12.1514 29.0708 14.7376C29.5849 17.3239 29.3206 20.0046 28.3113 22.4407C27.302 24.8768 25.5931 26.9589 23.4005 28.4238C21.2079 29.8887 18.6302 30.6706 15.9933 30.6706C13.3564 30.6706 10.7788 29.8887 8.58619 28.4238C6.39363 26.9589 4.68466 24.8768 3.67537 22.4407C2.66607 20.0046 2.40177 17.3239 2.91589 14.7376C3.43 12.1514 4.69945 9.77557 6.56371 7.9107C7.08433 7.38991 7.92855 7.38978 8.44933 7.91039Z" fill="white"/>
<path fill-rule="evenodd" clip-rule="evenodd" d="M16 1.33331C16.7364 1.33331 17.3333 1.93027 17.3333 2.66665V16C17.3333 16.7364 16.7364 17.3333 16 17.3333C15.2636 17.3333 14.6667 16.7364 14.6667 16V2.66665C14.6667 1.93027 15.2636 1.33331 16 1.33331Z" fill="white"/>
</svg>
