<svg width="32" height="32" viewBox="0 0 32 32" fill="none" xmlns="http://www.w3.org/2000/svg">
<path fill-rule="evenodd" clip-rule="evenodd" d="M18.5983 1.98153C24.332 3.98909 22.8667 8.58244 19.3205 9.02863C18.643 9.16485 18.0055 9.45409 17.4568 9.87427C16.9081 10.2945 16.4626 10.8345 16.1545 11.4531C16.6752 11.9191 17.0739 12.5056 17.3157 13.1613C22.1914 12.3578 26.4422 14.4092 26.33 18.0067C26.2206 18.0022 26.1106 18 26 18C23.2171 18 20.7661 19.421 19.3329 21.5769C19.1526 21.2 19.0273 20.7775 18.9713 20.3206C18.8254 19.64 18.5283 19.0008 18.102 18.4505C17.6757 17.9002 17.1312 17.4527 16.5087 17.1412C16.0401 17.6591 15.4544 18.0573 14.8005 18.3024C15.7026 23.8963 12.9121 28.5978 8.35065 27.0007C2.66791 25.011 4.12488 20.4004 7.67106 19.9542C8.34105 19.8104 8.9712 19.521 9.51681 19.1064C10.0624 18.6918 10.5101 18.1622 10.8282 17.5553C10.2892 17.0923 9.88145 16.4957 9.64593 15.8254C4.06097 16.702 -0.611226 13.9504 0.981437 9.40171C2.989 3.66801 7.54858 5.10713 7.99477 8.6533C8.13681 9.32989 8.43029 9.96551 8.85318 10.5124C9.27606 11.0593 9.81736 11.5033 10.4364 11.8111C10.8965 11.2836 11.4891 10.8887 12.1529 10.667C11.2457 5.12859 14.0368 0.384406 18.5728 1.97261L18.5983 1.98153ZM15.0926 15.0577C14.7846 15.9373 13.8219 16.4007 12.9423 16.0927C12.0627 15.7847 11.5993 14.822 11.9072 13.9424C12.2152 13.0628 13.178 12.5993 14.0576 12.9073C14.9372 13.2153 15.4006 14.1781 15.0926 15.0577Z" fill="white"/>
<path d="M21 26H31" stroke="white" stroke-width="2" stroke-linecap="round" stroke-linejoin="round"/>
</svg>
