<svg width="32" height="32" viewBox="0 0 32 32" fill="none" xmlns="http://www.w3.org/2000/svg">
<path fill-rule="evenodd" clip-rule="evenodd" d="M18.5982 1.98153C24.3319 3.98909 22.8667 8.58244 19.3205 9.02863C18.6429 9.16485 18.0055 9.45409 17.4568 9.87427C16.908 10.2945 16.4626 10.8345 16.1544 11.4531C16.6752 11.9191 17.0739 12.5056 17.3157 13.1613C20.4853 12.639 23.3907 13.3231 25.0052 14.8542C25.0017 14.9023 25 14.951 25 15V17C25 18.1046 24.1045 19 23 19H20C19.5056 19 19.0531 19.1794 18.704 19.4766C18.5486 19.1113 18.3466 18.7663 18.102 18.4505C17.6757 17.9002 17.1312 17.4527 16.5086 17.1412C16.0401 17.6591 15.4544 18.0573 14.8004 18.3024C15.0744 20.001 15.0078 21.6173 14.6546 23H13C11.8954 23 11 23.8954 11 25V27.2175C10.2091 27.395 9.31984 27.34 8.35062 27.0007C2.66788 25.011 4.12485 20.4004 7.67103 19.9542C8.34102 19.8104 8.97117 19.521 9.51678 19.1064C10.0624 18.6918 10.5101 18.1622 10.8282 17.5553C10.2892 17.0923 9.88142 16.4957 9.6459 15.8254C4.06094 16.702 -0.611257 13.9504 0.981407 9.40171C2.98897 3.66801 7.54855 5.10713 7.99474 8.6533C8.13678 9.32989 8.43026 9.96551 8.85315 10.5124C9.27603 11.0593 9.81732 11.5033 10.4364 11.8111C10.8964 11.2836 11.489 10.8887 12.1529 10.667C11.2457 5.12859 14.0367 0.384405 18.5727 1.97261L18.5982 1.98153ZM15.0926 15.0577C14.7846 15.9373 13.8219 16.4007 12.9422 16.0927C12.0626 15.7847 11.5992 14.822 11.9072 13.9424C12.2152 13.0628 13.1779 12.5993 14.0576 12.9073C14.9372 13.2153 15.4006 14.1781 15.0926 15.0577Z" fill="white"/>
<rect x="13" y="25" width="4" height="7" rx="1" fill="white"/>
<rect x="20" y="21" width="4" height="11" rx="1" fill="white" fill-opacity="0.3"/>
<rect x="27" y="15" width="4" height="17" rx="1" fill="white" fill-opacity="0.3"/>
</svg>
