<svg width="16" height="16" viewBox="0 0 16 16" fill="none" xmlns="http://www.w3.org/2000/svg">
<g clip-path="url(#clip0_1083_105889)">
<path fill-rule="evenodd" clip-rule="evenodd" d="M4.28446 11.5576L4.79405 11.6755C5.28023 11.788 5.7535 11.4795 5.85111 10.9864C5.94873 10.4934 5.63373 10.0025 5.14754 9.88999L2.64232 9.31039C2.19375 9.20661 1.7492 9.46147 1.61016 9.90212L0.924091 12.0764C0.773382 12.554 1.03419 13.0759 1.50662 13.2422C1.97905 13.4084 2.4842 13.156 2.63491 12.6784L2.71012 12.44C3.7602 13.8671 5.16889 14.7422 6.31241 15.1446C7.73405 15.6449 9.8272 15.7962 11.8462 14.7874C13.8714 13.7754 15.0205 11.9515 15.4715 10.5222C15.6223 10.0446 15.3614 9.52264 14.889 9.3564C14.4166 9.19016 13.9114 9.44257 13.7607 9.92019C13.4241 10.9871 12.5431 12.3788 11.0224 13.1387C9.49545 13.9016 7.90568 13.7837 6.85817 13.415C6.05555 13.1326 5.06041 12.5241 4.28446 11.5576ZM11.2781 5.91739C10.792 5.80491 10.477 5.31403 10.5746 4.82098C10.6722 4.32792 11.1455 4.01941 11.6316 4.1319L12.1412 4.24979C11.3653 3.28333 10.3701 2.67477 9.56751 2.39234C8.52 2.02373 6.93023 1.90574 5.40333 2.6687C3.88262 3.42857 3.00162 4.82027 2.66496 5.8872C2.51425 6.36481 2.0091 6.61723 1.53667 6.45098C1.06424 6.28474 0.803431 5.76279 0.95414 5.28518C1.40515 3.85587 2.55433 2.03194 4.57951 1.02C6.59849 0.0111592 8.69164 0.162491 10.1133 0.662749C11.2568 1.06514 12.6655 1.94025 13.7156 3.36736L13.7908 3.12901C13.9415 2.65139 14.4466 2.39898 14.9191 2.56522C15.3915 2.73146 15.6523 3.25341 15.5016 3.73102L14.8155 5.90526C14.6765 6.34591 14.2319 6.60077 13.7834 6.49699L11.2781 5.91739Z" fill="#589DFF"/>
</g>
<defs>
<clipPath id="clip0_1083_105889">
<rect width="16" height="16" fill="white"/>
</clipPath>
</defs>
</svg>
