<svg width="12" height="12" viewBox="0 0 12 12" fill="none" xmlns="http://www.w3.org/2000/svg">
<path d="M9.81387 2.18611C9.69467 2.06694 9.53307 2 9.36444 2C9.19591 2 9.03431 2.06694 8.91511 2.18611L6 5.10116L3.08489 2.18611C2.96569 2.06694 2.80409 2 2.63556 2C2.46693 2 2.30533 2.06694 2.18613 2.18611C2.06693 2.30531 2 2.46696 2 2.63551C2 2.80406 2.06693 2.96572 2.18613 3.08492L5.10116 6L2.18613 8.91511C2.06693 9.03431 2 9.19591 2 9.36444C2 9.53307 2.06693 9.69467 2.18613 9.81387C2.30533 9.93307 2.46693 10 2.63556 10C2.80409 10 2.96569 9.93307 3.08489 9.81387L6 6.89884L8.91511 9.81387C9.03431 9.93307 9.19591 10 9.36444 10C9.53307 10 9.69467 9.93307 9.81387 9.81387C9.93307 9.69467 10 9.53307 10 9.36444C10 9.19591 9.93307 9.03431 9.81387 8.91511L6.89884 6L9.81387 3.08492C9.93307 2.96572 10 2.80406 10 2.63551C10 2.46696 9.93307 2.30531 9.81387 2.18611Z" fill="#FCFCFC"/>
</svg>
