<svg width="48" height="48" viewBox="0 0 48 48" fill="none" xmlns="http://www.w3.org/2000/svg">
<rect width="48" height="48" rx="24" fill="#FF8200" fill-opacity="0.2"/>
<path fill-rule="evenodd" clip-rule="evenodd" d="M15.6 23.7949C14.9373 23.7949 14.4 24.3459 14.4 25.0257V33.641C14.4 34.3208 14.9373 34.8718 15.6 34.8718H32.4C33.0627 34.8718 33.6 34.3208 33.6 33.641V25.0257C33.6 24.3459 33.0627 23.7949 32.4 23.7949H15.6ZM12 25.0257C12 22.9864 13.6118 21.3333 15.6 21.3333H32.4C34.3882 21.3333 36 22.9864 36 25.0257V33.641C36 35.6802 34.3882 37.3333 32.4 37.3333H15.6C13.6118 37.3333 12 35.6802 12 33.641V25.0257Z" fill="#FF8200"/>
<path d="M17.9325 22.6667C17.2546 22.6667 16.7 22.1762 16.7 21.5768V17.2173C16.7 15.5933 17.3779 14.0348 18.6103 12.825C19.8428 11.6153 21.5313 10.8633 23.3554 10.6998C25.1794 10.5363 27.0035 10.9831 28.4824 11.9422C29.9614 12.9013 30.972 14.3182 31.3418 15.9094C31.4773 16.4979 31.046 17.0756 30.3804 17.1955C29.7149 17.3154 29.0617 16.9339 28.9261 16.3454C28.6796 15.2882 28.0018 14.3509 27.0158 13.6969C26.0298 13.0539 24.8097 12.7596 23.6018 12.8686C22.3817 12.9776 21.2602 13.479 20.4344 14.2855C19.6086 15.092 19.165 16.1383 19.165 17.2173V21.5768C19.165 22.1871 18.6103 22.6667 17.9325 22.6667Z" fill="#FF8200"/>
</svg>
