<svg width="15" height="30" viewBox="0 0 15 30" fill="none" xmlns="http://www.w3.org/2000/svg">
<path d="M8.35346 0.98944C8.34763 0.437186 7.89521 -0.00577623 7.34296 5.57899e-05C6.7907 0.00588781 6.34774 0.458306 6.35357 1.01056L8.35346 0.98944ZM6.94688 29.4567C7.34151 29.8431 7.97464 29.8364 8.36102 29.4418L14.6574 23.011C15.0438 22.6164 15.0371 21.9832 14.6425 21.5968C14.2479 21.2105 13.6147 21.2171 13.2284 21.6118L7.63155 27.3281L1.91528 21.7312C1.52065 21.3449 0.887521 21.3516 0.501142 21.7462C0.114763 22.1408 0.121449 22.7739 0.516076 23.1603L6.94688 29.4567ZM6.35357 1.01056L6.64654 28.7527L8.64643 28.7316L8.35346 0.98944L6.35357 1.01056Z" fill="#303030"/>
</svg>
