<svg width="62" height="46" viewBox="0 0 62 46" fill="none" xmlns="http://www.w3.org/2000/svg">
<path d="M60.5 33C63 36.2 61.3 44 55.8 44.9H23C11.7 44.8 0.20001 35.5 0.30001 22.2C0.40001 8.89999 11.9 0.39999 23.3 0.39999C33.7 0.49999 40.1 7.69999 40.7 8.59999C42.6 11.1 58.3 30.2 60.5 33Z" fill="#4F4A54"/>
<path d="M23 45.2C17.3 45.2 11.5 42.8 7.2 38.7C2.5 34.3 0 28.4 0 22.1C0.1 8.39999 12.1 0 23.2 0H23.3C34.4 0.1 40.9 8.19999 40.9 8.29999C41.8 9.49999 45.9 14.4 50.1 19.7C54.7 25.4 59.5 31.3 60.7 32.8C62.1 34.5 62.3 37.7 61.2 40.4C60.2 43 58.2 44.7 55.8 45.1L23 45.2ZM23.2 0.6C12.4 0.6 0.699991 8.79999 0.599991 22.1C0.599991 28.2 3.09999 34 7.59999 38.2C11.9 42.2 17.5 44.5 23 44.5H55.8C57.9 44.1 59.7 42.6 60.7 40.1C61.7 37.6 61.5 34.7 60.3 33.1C59.1 31.6 54.4 25.7 49.7 20C45.4 14.8 41.4 9.79999 40.5 8.59999C40.4 8.49999 34.1 0.6 23.3 0.5C23.2 0.6 23.2 0.6 23.2 0.6Z" fill="#231F20"/>
<path d="M23.2 1.99999C35.4 2.19999 44.5 12.3 44.5 22.4C44.4 33 36 43 23.8 43C11.6 42.9 1.79999 33.8 1.89999 21.9C1.99999 10.5 11.9 1.79999 23.2 1.99999Z" fill="#FF8200"/>
<path d="M24 43.3H23.9C11.3 43.2 1.49999 33.8 1.59999 21.8C1.59999 16.5 3.79999 11.5 7.59999 7.69999C11.7 3.69999 17.4 1.5 23.3 1.5C36.2 1.7 45.1 12.6 45 22.3C44.9 32.5 36.9 43.3 24 43.3ZM22.8 2.4C17.3 2.4 12 4.49999 8.09999 8.29999C4.39999 11.9 2.3 16.7 2.3 21.8C2.2 33.3 11.7 42.4 23.8 42.5H23.9C36.3 42.5 44 32.1 44 22.4C44 13.2 35.5 2.7 23.1 2.5C23.1 2.4 23 2.4 22.8 2.4Z" fill="#231F20"/>
<path d="M52.6 29.9C56.9 29.9 59.5 33.4 59.5 36.6C59.5 39.7 57.3 43 52.9 43C48.7 42.9 46 39.5 46 36.3C46.1 33.1 48.8 30 52.6 29.9Z" fill="#FF8200"/>
<path d="M53 43.5H52.9C50.9 43.5 49 42.7 47.6 41.3C46.3 39.9 45.6 38.1 45.6 36.4C45.7 33.2 48.4 29.7 52.7 29.6C54.8 29.6 56.7 30.4 58.1 31.9C59.3 33.2 60 35 60 36.8C60 38.6 59.3 40.4 58 41.7C56.7 42.8 55 43.5 53 43.5ZM52.7 30.4C48.9 30.4 46.5 33.5 46.4 36.3C46.4 37.9 47 39.4 48.2 40.6C49.4 41.9 51.1 42.6 52.9 42.6C54.7 42.6 56.3 42.1 57.4 40.9C58.5 39.8 59.1 38.2 59.1 36.6C59.1 35 58.5 33.5 57.4 32.3C56.6 31.5 55.1 30.4 52.7 30.4Z" fill="#231F20"/>
<path d="M23.7 39.4C23.4 39.4 23.2 39.3 23 39C22.8 38.8 21.7 37 20.7 35.3L20.2 34.4C20 34 19.9 33.6 20.1 33.4C20.2 33.3 20.4 33.1 20.8 33.1C21.2 33.1 22.6 33.1 23.9 33.1C25 33.1 26.1 33.1 26.4 33.1C26.9 33.1 27.1 33.4 27.2 33.5C27.3 33.7 27.3 34.1 27.1 34.3C27 34.4 26.8 34.9 26.4 35.5C25.5 37.1 24.6 38.7 24.4 39C24.2 39.3 23.9 39.4 23.7 39.4ZM20.7 33.6C20.6 33.6 20.6 33.6 20.6 33.7C20.6 33.8 20.6 34 20.7 34.2L21.2 35C21.9 36.2 23.3 38.5 23.5 38.7C23.6 38.8 23.7 38.9 23.8 38.9C23.9 38.9 24 38.8 24 38.7C24.2 38.4 25.3 36.5 26 35.3C26.3 34.7 26.6 34.3 26.7 34.1C26.8 34 26.8 33.9 26.7 33.8C26.7 33.7 26.5 33.7 26.4 33.7C26.1 33.7 25.1 33.7 23.9 33.7C22.5 33.6 21.2 33.6 20.7 33.6Z" fill="#231F20"/>
<path d="M11.2 25.4C11 25.4 10.9 25.4 10.6 25.3C10.3 25.2 8.09999 24 6.09999 22.8L5.59999 22.5C5.19999 22.3 5.09999 22 5.09999 21.8C5.09999 21.5 5.3 21.2 5.7 21C6 20.8 7.89999 19.8 9.09999 19.1L10.2 18.5C10.5 18.3 11 18.1 11.3 18.3C11.7 18.5 11.6 19 11.6 19.1C11.6 19.7 11.6 22.9 11.7 24.1V24.5C11.7 24.8 11.6 25.1 11.4 25.2C11.5 25.4 11.3 25.4 11.2 25.4ZM11.1 18.9C11 18.9 10.9 18.9 10.6 19.1L9.5 19.7C8.2 20.4 6.39999 21.4 6.09999 21.6C5.89999 21.7 5.8 21.8 5.8 21.9C5.8 22 5.9 22 6 22.1L6.5 22.4C7.6 23 10.6 24.7 10.9 24.9C11.2 25 11.3 25 11.3 25C11.3 25 11.3 24.9 11.3 24.8V24.4C11.3 23.2 11.2 20 11.2 19.4H11.5H11.2C11.2 19 11.2 18.9 11.1 18.9Z" fill="#231F20"/>
<path d="M35.8 25.4C35.7 25.4 35.5 25.4 35.4 25.3C35.2 25.2 35 25 35 24.5C35 24.2 35 23.5 35 22.7C35 21.4 34.9 19.8 35 19.3C35 18.9 35.1 18.6 35.4 18.4C35.7 18.2 36.1 18.3 36.7 18.6C37.2 18.9 40.1 20.6 40.9 21.1L41.1 21.2C41.4 21.4 41.6 21.6 41.6 21.9C41.6 22.1 41.5 22.4 41 22.7C40.4 23.1 36.9 25.1 36.5 25.3C36.2 25.4 36 25.4 35.8 25.4ZM35.5 19.3C35.5 19.9 35.5 21.4 35.5 22.7C35.5 23.5 35.5 24.2 35.5 24.5C35.5 24.6 35.5 24.8 35.6 24.8C35.7 24.9 35.8 24.8 36 24.7C36.4 24.5 39.9 22.5 40.5 22.1C40.7 22 40.8 21.8 40.8 21.8C40.8 21.7 40.7 21.7 40.6 21.6L40.4 21.5C39.6 21 36.7 19.4 36.2 19.1C35.8 18.9 35.5 18.8 35.5 18.9C35.5 18.9 35.5 19.1 35.5 19.3Z" fill="#231F20"/>
<path d="M26 10.9C25.7 10.9 22 10.9 20.8 10.9H20.3C19.9 10.9 19.6 10.8 19.5 10.5C19.4 10.4 19.3 10.1 19.5 9.59999C19.6 9.29999 20.2 8.39999 20.8 7.39999C21.4 6.49999 21.9 5.59999 22.1 5.19999C22.4 4.79999 22.6 4.49999 22.9 4.49999C23.2 4.49999 23.4 4.59999 23.6 4.99999C23.7 5.19999 24.3 6.09999 24.9 7.09999C25.6 8.19999 26.3 9.39999 26.5 9.59999C26.7 9.89999 26.7 10.2 26.6 10.5C26.6 10.7 26.3 10.9 26 10.9ZM20.3 10.3H20.8C23.1 10.3 25.8 10.3 26 10.3C26.1 10.3 26.2 10.3 26.2 10.2C26.3 10.1 26.2 9.99999 26.1 9.89999C25.9 9.59999 25.2 8.49999 24.5 7.29999C23.9 6.29999 23.3 5.39999 23.2 5.19999C23.1 4.99999 23 4.99999 23 4.99999C23 4.99999 22.8 5.09999 22.6 5.39999C22.4 5.79999 21.8 6.69999 21.3 7.59999C20.7 8.59999 20.1 9.49999 20 9.79999C19.9 9.89999 19.9 9.99999 19.9 10.1C20.1 10.3 20.2 10.3 20.3 10.3Z" fill="#231F20"/>
<path d="M54.6 39.6H50.8V38.1H54.4C55 38.1 55.4 37.3 55.4 36.8C55.4 36.6 55.3 36.2 55.2 35.9C55 35.6 54.8 35.4 54.5 35.4H51.3V36.4L48.6 34.6L51.3 32.7V33.8H54.4C55.1 33.8 55.8 34.2 56.4 34.8C56.9 35.4 57.1 36.1 57.1 36.7C57.1 37.5 56.9 38.2 56.4 38.7C55.9 39.3 55.3 39.6 54.6 39.6ZM51.4 39H54.6C55.1 39 55.6 38.8 56 38.3C56.4 37.9 56.6 37.3 56.6 36.6C56.6 36.1 56.4 35.5 56 35C55.6 34.5 55.1 34.2 54.5 34.2H50.9V33.6L49.8 34.4L50.9 35.1V34.6H54.6C55.1 34.6 55.6 34.9 55.8 35.4C56.1 35.9 56.1 36.4 56.1 36.6C56.1 37.4 55.5 38.4 54.6 38.4H51.5L51.4 39Z" fill="#231F20"/>
<path d="M2.5 41.3C3.2 41.3 3.8 42 3.8 42.6C3.8 43.1 3.39999 43.8 2.59999 43.7C1.79999 43.6 1.2 43.2 1.2 42.5C1.2 41.9 1.7 41.3 2.5 41.3Z" fill="white"/>
<path d="M2.6 44C1.7 44 0.900007 43.4 1.00001 42.6C1.00001 41.8 1.70001 41.1 2.50001 41.1C3.40001 41.1 4.00001 41.9 4.00001 42.7C4.00001 43.3 3.5 44 2.6 44ZM2.50001 41.6C2.00001 41.6 1.50001 42 1.50001 42.6C1.50001 43.1 2 43.5 2.6 43.5C3.2 43.5 3.50001 43 3.50001 42.6C3.40001 42.2 3.00001 41.6 2.50001 41.6Z" fill="#231F20"/>
<path d="M23.6 29.3C21.4 29.3 19.3 28.4 17.9 27C16.6 25.7 15.9 23.9 16 21.9C16.1 17.1 20.4 14.9 23.4 14.9C25.3 14.9 27.1 15.7 28.5 17.1C29.9 18.5 30.7 20.3 30.6 22.2C30.6 24.1 29.9 25.9 28.6 27.2C27.4 28.5 25.6 29.3 23.6 29.3ZM23.4 15.7C20.7 15.7 16.9 17.6 16.9 21.9C16.9 23.6 17.5 25.2 18.6 26.3C19.9 27.6 21.8 28.4 23.7 28.4C25.4 28.4 27 27.8 28.1 26.6C29.2 25.4 29.9 23.9 29.9 22.2C29.9 20.5 29.2 18.9 28 17.7C26.7 16.4 25 15.8 23.4 15.7Z" fill="#231F20"/>
</svg>
