<svg width="178" height="73" viewBox="0 0 178 73" fill="none" xmlns="http://www.w3.org/2000/svg">
<path d="M149.392 56.9375H148.399V57.9358H149.392V56.9375Z" fill="black"/>
<path d="M148.399 55.9375H147.406V56.9358H148.399V55.9375Z" fill="black"/>
<path d="M149.392 54.9414H148.399V55.9397H149.392V54.9414Z" fill="black"/>
<path d="M147.407 54.9414H146.414V55.9397H147.407V54.9414Z" fill="black"/>
<path d="M148.399 53.9453H147.406V54.9436H148.399V53.9453Z" fill="black"/>
<path d="M145.421 53.9453H144.428V54.9436H145.421H146.414V53.9453H145.421Z" fill="black"/>
<path d="M150.385 49.9531H149.392V50.9514H148.399H147.406H146.413V51.9497H145.42H144.428H143.438H142.445V52.948H143.438V53.9462H144.428V52.948H145.42H146.413V53.9462H147.406V52.948H148.399V53.9462H149.392V54.9445H150.385V55.9391H149.392V56.9374H150.385V57.9357H151.378V58.9339H152.371V57.9357V56.9374H151.378V55.9391V54.9445V53.9462H150.385V52.948V51.9497V50.9514H151.378H152.371V49.9531H151.378H150.385Z" fill="black"/>
<path d="M152.371 48.9531V49.9514H153.36H154.353V48.9531H153.36H152.371Z" fill="black"/>
<path d="M154.354 47.9531V48.9514H155.346H156.339V47.9531H155.346H154.354Z" fill="black"/>
<path d="M157.332 46.957H156.339V47.9553H157.332H158.325H159.318V46.957H158.325H157.332Z" fill="black"/>
<path d="M159.318 45.9609V46.9555H160.311H161.304V45.9609H160.311H159.318Z" fill="black"/>
<path d="M161.304 44.9609V45.9592H162.293H163.286V44.9609H162.293H161.304Z" fill="black"/>
<path d="M164.279 43.9648H163.286V44.9631H164.279V43.9648Z" fill="black"/>
<path d="M136.488 41.9688H135.495V42.967H136.488V41.9688Z" fill="black"/>
<path d="M123.587 41.9688H122.594V42.967H123.587V41.9688Z" fill="black"/>
<path d="M121.601 41.9688H120.608V42.967H121.601V41.9688Z" fill="black"/>
<path d="M164.279 41.967V42.9653V43.9636H165.272V42.9653V41.967V40.9688H164.279V41.967Z" fill="black"/>
<path d="M124.58 40.9688H123.587V41.967H124.58V40.9688Z" fill="black"/>
<path d="M122.594 40.9688H121.602V41.967H122.594V40.9688Z" fill="black"/>
<path d="M120.608 40.9688H119.615V41.967H120.608V40.9688Z" fill="black"/>
<path d="M123.587 39.9727H122.594V40.9709H123.587V39.9727Z" fill="black"/>
<path d="M121.601 39.9727H120.608V40.9709H121.601V39.9727Z" fill="black"/>
<path d="M125.573 38.9727V39.9709H124.58V40.9692H125.573V41.9675V42.9658H126.562V41.9675V40.9692V39.9709H127.555V38.9727H126.562H125.573Z" fill="black"/>
<path d="M124.58 38.9727H123.587V39.9709H124.58V38.9727Z" fill="black"/>
<path d="M122.594 38.9727H121.602V39.9709H122.594V38.9727Z" fill="black"/>
<path d="M120.608 38.9727H119.615V39.9709H120.608V38.9727Z" fill="black"/>
<path d="M125.573 37.975V36.9805H124.58V37.975V38.9733H125.573V37.975Z" fill="black"/>
<path d="M123.587 37.9766H122.594V38.9748H123.587V37.9766Z" fill="black"/>
<path d="M121.601 37.9766H120.608V38.9748H121.601V37.9766Z" fill="black"/>
<path d="M121.601 37.973H122.594V36.9784V35.9801V34.9819V33.9836V32.9853V31.987V30.9887V29.9905V28.9922H121.601V29.9905V30.9887V31.987V32.9853V33.9836V34.9819V35.9801H120.608V36.9784H121.601V37.973Z" fill="black"/>
<path d="M120.608 36.9805H119.615V37.9787H120.608V36.9805Z" fill="black"/>
<path d="M136.488 34.9836V33.9853V32.987V31.9887V30.9905V29.9922H135.495V30.9905V31.9887V32.987V33.9853V34.9836V35.9819V36.9801H134.506V37.9747H135.495H136.488V36.9801H137.481V35.9819H136.488V34.9836Z" fill="black"/>
<path d="M134.506 34.9819V33.9836V32.9853V31.987V30.9887H133.513V29.9905H132.52V28.9922H131.527H130.534H129.541H128.548H127.555V29.9905H126.562V30.9887H125.569V31.987V32.9853V33.9836V34.9819V35.9801V36.9784H126.562V37.9767H127.555V38.975H128.548V37.9767H129.541H130.534V36.9784H131.527H132.52H133.513H134.506V35.9801V34.9819ZM129.541 32.9853V33.9836H128.548H127.555V32.9853V31.987H128.548H129.541V32.9853Z" fill="black"/>
<path d="M124.58 34.9836V33.9853V32.987V31.9887V30.9905V29.9922H123.587V30.9905V31.9887V32.987V33.9853V34.9836V35.9819V36.9801H124.58V35.9819V34.9836Z" fill="black"/>
<path d="M139.467 33.9844V34.9827H140.46H141.453V33.9844H140.46H139.467Z" fill="black"/>
<path d="M138.473 33.9836V32.9853V31.987V30.9887V29.9905V28.9922H137.48V29.9905V30.9887V31.987V32.9853V33.9836V34.9819V35.9801H138.473H139.466V34.9819H138.473V33.9836Z" fill="black"/>
<path d="M141.453 32.9883V33.9866H142.446H143.439V32.9883H142.446H141.453Z" fill="black"/>
<path d="M144.431 31.9883H143.438V32.9866H144.431V31.9883Z" fill="black"/>
<path d="M144.428 30.9922V31.9905H145.421H146.414V30.9922H145.421H144.428Z" fill="black"/>
<path d="M146.414 29.9922V30.9905H147.407H148.4V29.9922H147.407H146.414Z" fill="black"/>
<path d="M142.446 30.9905H143.439V29.9922H142.446H141.453V30.9905H142.446Z" fill="black"/>
<path d="M149.392 28.9922H148.399V29.9905H149.392V28.9922Z" fill="black"/>
<path d="M144.431 28.9922H143.438V29.9905H144.431V28.9922Z" fill="black"/>
<path d="M140.46 29.9929H141.453V28.9946V28H140.46V28.9946V29.9929Z" fill="black"/>
<path d="M135.499 28.9922H134.506V29.9905H135.499V28.9922Z" fill="black"/>
<path d="M125.573 28.9922H124.58V29.9905H125.573V28.9922Z" fill="black"/>
<path d="M149.393 28V28.9946H150.386H151.378V28H150.386H149.393Z" fill="black"/>
<path d="M146.414 28.9946H147.407V28H146.414H145.421H144.428V28.9946H145.421H146.414Z" fill="black"/>
<path d="M137.481 28H136.488V28.9983H137.481V28Z" fill="black"/>
<path d="M134.506 28H133.513V28.9983H134.506V28Z" fill="black"/>
<path d="M126.566 28H125.573V28.9983H126.566V28Z" fill="black"/>
<path d="M123.587 28H122.594V28.9983H123.587V28Z" fill="black"/>
<path d="M149.392 27.9983V27H148.399H147.406V27.9983H148.399H149.392Z" fill="black"/>
<path d="M128.548 27.9983H129.541H130.534H131.527H132.52H133.513V27H132.52H131.527H130.534H129.541H128.548H127.555H126.562V27.9983H127.555H128.548Z" fill="black"/>
<path d="M124.58 27H123.587V27.9983H124.58V27Z" fill="black"/>
<path d="M163.286 27.0005H162.294H161.304V27.9987H160.311H159.318V28.9933H158.325H157.333V29.9916H156.34V30.9899H155.347V31.9882H154.354V32.9864H153.361V33.9847H152.372V34.983H151.379V35.9813H150.386V36.9795H149.393V37.9741H148.4V38.9724H147.407V39.9707H146.414V40.969H145.421H144.428V41.9672H143.439H142.446H141.453V42.9655H140.46H139.467H138.474H137.481H136.488V43.9638H137.481H138.474H139.467H140.46H141.453V44.9621H142.446H143.439H144.428H145.421H146.414H147.407H148.4H149.393H150.386V43.9638H151.379H152.372H153.361H154.354H155.347V42.9655H154.354H153.361H152.372H151.379H150.386H149.393V43.9638H148.4H147.407H146.414H145.421V42.9655H146.414H147.407V41.9672H148.4V40.969H149.393V39.9707H150.386H151.379H152.372H153.361V40.969H154.354H155.347H156.34H157.333V41.9672H156.34H155.347V42.9655H156.34H157.333H158.325H159.318H160.311V41.9672H161.304H162.294V40.969H163.286H164.279V39.9707H163.286H162.294H161.304H160.311H159.318H158.325H157.333H156.34H155.347H154.354V38.9724V37.9741H155.347V36.9795H156.34V35.9813H157.333V34.983H158.325V33.9847H159.318V32.9864H160.311V31.9882H161.304V30.9899H162.294V29.9916H163.286V28.9933H164.279V27.9987V27.0005V26.0022V25.0039H163.286V26.0022V27.0005Z" fill="black"/>
<path d="M154.353 26.0039H153.36V27.0022H154.353V26.0039Z" fill="black"/>
<path d="M150.386 26.0039H149.393V27.0022H150.386V26.0039Z" fill="black"/>
<path d="M144.431 26.0039H143.438V27.0022H144.431V26.0039Z" fill="black"/>
<path d="M139.467 27.0022V28.0005H140.46V27.0022V26.0039H139.467V27.0022Z" fill="black"/>
<path d="M125.573 26.0039H124.58V27.0022H125.573V26.0039Z" fill="black"/>
<path d="M156.339 26.0022V25.0039H155.346H154.354V26.0022H155.346H156.339Z" fill="black"/>
<path d="M143.438 25.0039H142.445V26.0022H143.438V25.0039Z" fill="black"/>
<path d="M135.495 26.0022H134.506V27.0005H135.495V27.9987H136.488V27.0005V26.0022V25.0039H135.495V26.0022Z" fill="black"/>
<path d="M127.555 26.0022H128.548H129.541H130.534H131.527H132.52H133.513H134.506V25.0039H133.513H132.52H131.527H130.534H129.541H128.548H127.555H126.562H125.573V26.0022H126.562H127.555Z" fill="black"/>
<path d="M158.326 25.0061H159.319H160.312H161.305H162.294H163.287V24.0078H162.294H161.305H160.312H159.319H158.326H157.333H156.34V25.0061H157.333H158.326Z" fill="black"/>
<path d="M147.407 24.0078H146.414V25.0061H147.407V24.0078Z" fill="black"/>
<path d="M140.46 25.0061V26.0044H141.453V25.0061V24.0078H140.46V25.0061Z" fill="black"/>
<path d="M136.488 25.0026H137.481V24.0044V23.0061H136.488V22.0078H135.495V23.0061V24.0044H136.488V25.0026Z" fill="black"/>
<path d="M135.499 24.0078H134.506V25.0061H135.499V24.0078Z" fill="black"/>
<path d="M146.414 23.0078H145.421V24.0061H146.414V23.0078Z" fill="black"/>
<path d="M119.616 23.0078H118.623V24.0061H119.616V23.0078Z" fill="black"/>
<path d="M141.453 23.0061V24.0044H142.446V23.0061V22.0078H141.453V23.0061Z" fill="black"/>
<path d="M138.473 22.0078H137.48V23.0061H138.473V22.0078Z" fill="black"/>
<path d="M120.608 22.0078H119.615V23.0061H120.608V22.0078Z" fill="black"/>
<path d="M147.406 22.0083H148.399V23.0066H149.392V24.0048H150.385V25.0031V26.0014H151.378V26.9997V27.9979H152.371H153.36V26.9997H152.371V26.0014V25.0031H151.378V24.0048V23.0066H150.385V22.0083H149.392V21.01H148.399V20.0117H147.406V21.01V22.0083Z" fill="black"/>
<path d="M142.445 21.0117V22.01H143.438H144.428V21.0117H143.438H142.445Z" fill="black"/>
<path d="M139.467 21.0117H138.474V22.01H139.467V21.0117Z" fill="black"/>
<path d="M137.481 21.0117H136.488V22.01H137.481V21.0117Z" fill="black"/>
<path d="M135.499 21.0117H134.506V22.01H135.499V21.0117Z" fill="black"/>
<path d="M121.601 21.0117H120.608V22.01H121.601V21.0117Z" fill="black"/>
<path d="M140.46 20.0117H139.467V21.01H140.46V20.0117Z" fill="black"/>
<path d="M138.473 20.0117H137.48V21.01H138.473V20.0117Z" fill="black"/>
<path d="M136.488 20.0117H135.495V21.01H136.488V20.0117Z" fill="black"/>
<path d="M123.587 21.01V20.0117H122.594H121.602V21.01H122.594H123.587Z" fill="black"/>
<path d="M140.46 20.0124H141.453V19.0178H142.446H143.439H144.428V20.0124V21.0107H145.421H146.414V20.0124H147.407V19.0178H146.414H145.421V18.0195H144.428H143.439H142.446H141.453H140.46V19.0178V20.0124Z" fill="black"/>
<path d="M134.506 19.0195H133.513V20.0141H134.506H135.495V19.0195H134.506Z" fill="black"/>
<path d="M125.573 20.0141V19.0195H124.58H123.587V20.0141H124.58H125.573Z" fill="black"/>
<path d="M127.555 19.02H128.548H129.541H130.534H131.527H132.52H133.513V18.0217H134.506H135.495H136.488H137.481H138.474H139.467H140.46V17.0234H139.467H138.474H137.481H136.488H135.495H134.506H133.513H132.52H131.527H130.534H129.541H128.548H127.555V18.0217H126.562H125.573V19.02H126.562H127.555Z" fill="black"/>
<path d="M176.897 28.6062C177.507 28.6062 178 28.1108 178 27.497C178 26.8833 177.507 26.3878 176.897 26.3878H169.317V19.7511H176.897C177.507 19.7511 178 19.2557 178 18.6419C178 18.0282 177.507 17.5327 176.897 17.5327H169.317V14.3197C169.317 11.1585 166.758 8.58519 163.614 8.58519H160.418V1.1092C160.418 0.495442 159.925 0 159.315 0C158.704 0 158.211 0.495442 158.211 1.1092V8.58519H151.61V1.1092C151.61 0.495442 151.117 0 150.507 0C149.896 0 149.404 0.495442 149.404 1.1092V8.58519H142.799V1.1092C142.799 0.495442 142.306 0 141.695 0C141.085 0 140.592 0.495442 140.592 1.1092V8.58519H133.991V1.1092C133.991 0.495442 133.498 0 132.888 0C132.277 0 131.785 0.495442 131.785 1.1092V8.58519H125.183V1.1092C125.183 0.495442 124.691 0 124.08 0C123.47 0 122.977 0.495442 122.977 1.1092V8.58519H119.781C116.637 8.58519 114.077 11.1585 114.077 14.3197V17.5327H106.498C105.887 17.5327 105.395 18.0282 105.395 18.6419C105.395 19.2557 105.887 19.7511 106.498 19.7511H114.077V26.3878H106.498C105.887 26.3878 105.395 26.8833 105.395 27.497C105.395 28.1108 105.887 28.6062 106.498 28.6062H114.077V35.2429H106.498C105.887 35.2429 105.395 35.7383 105.395 36.3521C105.395 36.9659 105.887 37.4613 106.498 37.4613H114.077V44.098H106.498C105.887 44.098 105.395 44.5934 105.395 45.2072C105.395 45.8209 105.887 46.3164 106.498 46.3164H114.077V52.9531H106.498C105.887 52.9531 105.395 53.4485 105.395 54.0623C105.395 54.676 105.887 55.1715 106.498 55.1715H114.077V58.3845C114.077 61.5457 116.637 64.119 119.781 64.119H122.977V71.8871C122.977 72.5008 123.47 72.9963 124.08 72.9963C124.691 72.9963 125.183 72.5008 125.183 71.8871V64.119H131.785V71.8871C131.785 72.5008 132.277 72.9963 132.888 72.9963C133.498 72.9963 133.991 72.5008 133.991 71.8871V64.119H140.592V71.8871C140.592 72.5008 141.085 72.9963 141.695 72.9963C142.306 72.9963 142.799 72.5008 142.799 71.8871V64.119H149.4V71.8871C149.4 72.5008 149.893 72.9963 150.503 72.9963C151.114 72.9963 151.606 72.5008 151.606 71.8871V64.119H158.208V71.8871C158.208 72.5008 158.7 72.9963 159.311 72.9963C159.921 72.9963 160.414 72.5008 160.414 71.8871V64.119H163.61C166.754 64.119 169.314 61.5457 169.314 58.3845V55.1715H176.893C177.504 55.1715 177.996 54.676 177.996 54.0623C177.996 53.4485 177.504 52.9531 176.893 52.9531H169.314V46.3164H176.893C177.504 46.3164 177.996 45.8209 177.996 45.2072C177.996 44.5934 177.504 44.098 176.893 44.098H169.314V37.4613H176.893C177.504 37.4613 177.996 36.9659 177.996 36.3521C177.996 35.7383 177.504 35.2429 176.893 35.2429H169.314V28.6062H176.897ZM167.111 58.3882C167.111 60.3256 165.541 61.9043 163.614 61.9043H119.777C117.85 61.9043 116.28 60.3256 116.28 58.3882V14.3197C116.28 12.3823 117.85 10.8036 119.777 10.8036H163.614C165.541 10.8036 167.111 12.3823 167.111 14.3197V58.3882Z" fill="black"/>
<path d="M10.3887 28.9806C10.054 29.3319 9.70835 29.672 9.36266 30.0122C7.66732 31.6797 7.55699 31.6649 9.20085 33.484C9.62009 33.9461 9.67893 34.3085 9.42886 34.9037C9.17143 35.5175 8.89561 35.8318 8.20792 35.7837C7.78868 35.7541 7.36208 35.8614 6.93549 35.902C6.29928 35.9649 5.95726 36.3087 5.94991 36.9595C5.94255 37.5584 5.94623 38.1611 5.94623 38.7601C5.94623 40.8971 5.94623 40.8971 8.01301 41.1263C8.15275 41.1411 8.29618 41.1966 8.43592 41.1818C8.9471 41.1374 9.14201 41.4221 9.35163 41.8584C9.67157 42.5276 9.73409 43.0526 9.10523 43.5629C8.82206 43.7921 8.61612 44.1175 8.38076 44.4022C7.92107 44.9531 7.93578 45.4855 8.44328 45.9957C9.10523 46.6649 9.76351 47.3342 10.4328 47.996C10.9403 48.4951 11.4809 48.521 12.0289 48.0625C12.3341 47.8074 12.6541 47.5634 12.9335 47.2787C13.3785 46.8276 13.7757 46.7204 14.4156 47.0199C14.9893 47.2861 15.2688 47.5486 15.2467 48.1845C15.232 48.5802 15.3387 48.9795 15.3607 49.3751C15.4012 50.1367 15.7726 50.5249 16.5449 50.5175C17.2547 50.5102 17.9681 50.5175 18.6779 50.5175C20.3291 50.5175 20.3989 50.451 20.5497 48.8353C20.5755 48.5506 20.6711 48.2659 20.649 47.9849C20.6159 47.5042 20.8586 47.3378 21.2448 47.1049C22.0428 46.6243 22.5797 46.8757 23.1644 47.4562C23.5727 47.8629 24.0875 48.1587 24.5656 48.5173C24.9444 48.2881 25.2349 48.166 25.4592 47.9664C25.8821 47.5893 26.2683 47.1641 26.6728 46.7611C28.1769 45.2452 28.21 45.2193 26.7979 43.6072C26.2756 43.012 26.1506 42.5276 26.5367 41.8288C26.7464 41.4517 26.8788 41.1596 27.3789 41.1781C27.8312 41.1929 28.2836 41.0968 28.7359 41.0709C29.5192 41.0302 29.9495 40.6716 29.9274 39.8434C29.9127 39.359 29.9201 38.871 29.9274 38.3866C29.9642 35.7652 29.9936 35.9982 27.4635 35.7652C26.9707 35.7209 26.7574 35.5619 26.5331 35.1108C26.18 34.4009 26.1984 33.8611 26.8015 33.3287C27.0773 33.0884 27.2906 32.7704 27.5223 32.4857C27.9526 31.957 27.9232 31.4431 27.4488 30.9587C26.9119 30.4078 26.3639 29.8643 25.8196 29.3208C24.7642 28.2597 24.5509 28.2523 23.4219 29.2284C23.2932 29.3393 23.1461 29.4354 23.0321 29.5611C22.5429 30.1231 22.0465 30.2266 21.3441 29.8495C20.8917 29.6092 20.6122 29.4354 20.6306 28.8808C20.6453 28.4002 20.546 27.9158 20.4946 27.4315C20.4284 26.7992 20.0937 26.4406 19.4465 26.4332C18.7919 26.4258 18.1373 26.4258 17.4863 26.4258C15.5372 26.4258 15.5372 26.4258 15.2945 28.3225C15.2688 28.5222 15.1952 28.7218 15.2173 28.9141C15.2725 29.4354 15.004 29.6166 14.57 29.8421C13.8529 30.2155 13.3234 30.1305 12.8048 29.5426C12.5989 29.3097 12.3304 29.1322 12.0987 28.9252C11.514 28.4002 10.9477 28.3928 10.3887 28.9806ZM17.9865 33.1475C20.9395 33.1623 23.2674 35.5397 23.249 38.5197C23.2306 41.4628 20.8329 43.8402 17.8945 43.8217C14.9672 43.8032 12.621 41.3962 12.632 38.4273C12.643 35.4657 15.0077 33.1364 17.9865 33.1475Z" fill="#FF8200"/>
<path d="M0 24.4211V57.298C0 58.4025 0.895431 59.298 2 59.298H33.8891C34.9936 59.298 35.8891 58.4025 35.8891 57.298V16.6602C35.8891 15.5556 34.9936 14.6602 33.8891 14.6602H9.49172L0 24.4211ZM9.0357 18.302V23.763H3.72534L9.0357 18.302ZM33.6825 57.0796H2.20652V25.9814H9.24222C10.3468 25.9814 11.2422 25.0859 11.2422 23.9814V16.8786H33.6825V57.0796Z" fill="#FF8200"/>
<path d="M78.7283 30.3942C78.3974 30.9081 78.5445 31.5958 79.0593 31.9286L85.1456 35.8737H50.7165C50.1061 35.8737 49.6133 36.3691 49.6133 36.9829C49.6133 37.5966 50.1061 38.0921 50.7165 38.0921H84.8588L79.0961 41.5158C78.5702 41.8264 78.3974 42.5067 78.7063 43.0354C78.9122 43.3866 79.28 43.5789 79.6587 43.5789C79.85 43.5789 80.0412 43.5308 80.2177 43.4236L89.6086 37.8425C90.246 37.4637 90.2639 36.5472 89.6417 36.1438L80.2545 30.0578C79.7433 29.7287 79.0593 29.8766 78.7283 30.3942Z" fill="black"/>
</svg>
