<svg width="49" height="48" viewBox="0 0 49 48" fill="none" xmlns="http://www.w3.org/2000/svg">
<rect x="0.5" width="48" height="48" rx="24" fill="#FF8200" fill-opacity="0.1"/>
<path d="M24.5 32L24.5 24" stroke="#FF8200" stroke-width="2" stroke-linecap="round" stroke-linejoin="round"/>
<path d="M21.8335 26.6667L24.5002 24L27.1668 26.6667" stroke="#FF8200" stroke-width="2" stroke-linecap="round" stroke-linejoin="round"/>
<path d="M33.643 37.3333H15.3573C14.5157 37.3333 13.8335 36.67 13.8335 35.8518L13.8335 12.1481C13.8335 11.3299 14.5157 10.6666 15.3573 10.6666L26.882 10.6666C27.3065 10.6666 27.7117 10.8388 28.0001 11.1416L34.7611 18.2406C35.0219 18.5145 35.1668 18.874 35.1668 19.2472L35.1668 35.8518C35.1668 36.67 34.4846 37.3333 33.643 37.3333Z" stroke="#FF8200" stroke-width="2" stroke-linecap="round" stroke-linejoin="round"/>
<path d="M33.8332 18.6667L28.2776 18.6667C27.664 18.6667 27.1665 18.1692 27.1665 17.5556L27.1665 12" stroke="#FF8200" stroke-width="2" stroke-linecap="round" stroke-linejoin="round"/>
</svg>
