<svg width="24" height="24" viewBox="0 0 24 24" fill="none" xmlns="http://www.w3.org/2000/svg">
<path fill-rule="evenodd" clip-rule="evenodd" d="M12 24C18.6274 24 24 18.6274 24 12C24 5.37258 18.6274 0 12 0C5.37258 0 0 5.37258 0 12C0 18.6274 5.37258 24 12 24ZM16.7372 9.67572C17.1103 9.26861 17.0828 8.63604 16.6757 8.26285C16.2686 7.88965 15.636 7.91716 15.2628 8.32428L10.5 13.5201L8.73715 11.597C8.36396 11.1899 7.73139 11.1624 7.32428 11.5356C6.91716 11.9088 6.88965 12.5413 7.26285 12.9485L9.76285 15.6757C9.95226 15.8824 10.2197 16 10.5 16C10.7803 16 11.0477 15.8824 11.2372 15.6757L16.7372 9.67572Z" fill="#34C7A4"/>
</svg>
