<svg width="32" height="32" viewBox="0 0 32 32" fill="none" xmlns="http://www.w3.org/2000/svg">
<g clip-path="url(#clip0_2005_6616)">
<path fill-rule="evenodd" clip-rule="evenodd" d="M24.1142 15.7084C23.8239 15.6426 23.5234 15.6554 23.2386 15.7456C22.9539 15.8359 22.6935 16.0009 22.48 16.2264C21.9963 16.7372 21.2266 16.7212 20.7609 16.1907C20.2952 15.6602 20.3097 14.816 20.7934 14.3052C21.2916 13.779 21.8992 13.394 22.5637 13.1834C23.2281 12.9728 23.9293 12.9431 24.6066 13.0967C25.2839 13.2503 25.9168 13.5827 26.4506 14.0651C26.9844 14.5475 27.403 15.1653 27.67 15.865C27.9371 16.5648 28.0446 17.3254 27.9833 18.081C27.922 18.8366 27.6937 19.5644 27.3181 20.2015C26.9426 20.8385 26.4312 21.3655 25.8281 21.7369C25.225 22.1083 24.5485 22.3129 23.8571 22.3329C23.8464 22.3332 23.8358 22.3333 23.8251 22.3333H2.54914C1.87769 22.3333 1.33337 21.7363 1.33337 20.9998C1.33337 20.2634 1.87769 19.6663 2.54914 19.6663H23.807C24.0984 19.6554 24.3833 19.568 24.6377 19.4114C24.8961 19.2522 25.1153 19.0264 25.2763 18.7533C25.4372 18.4803 25.535 18.1684 25.5613 17.8446C25.5876 17.5208 25.5415 17.1948 25.4271 16.8949C25.3126 16.595 25.1332 16.3302 24.9045 16.1235C24.6757 15.9167 24.4044 15.7743 24.1142 15.7084Z" fill="white"/>
<path fill-rule="evenodd" clip-rule="evenodd" d="M13.8839 12.5761C13.6845 12.5409 13.4785 12.551 13.2845 12.6056C13.0904 12.6602 12.9144 12.7575 12.7721 12.8888C12.2972 13.3269 11.5197 13.3339 11.0354 12.9043C10.551 12.4746 10.5434 11.7712 11.0182 11.333C11.445 10.9392 11.9732 10.6473 12.5553 10.4836C13.1374 10.3198 13.7554 10.2894 14.3538 10.3949C14.9521 10.5004 15.5122 10.7385 15.9838 11.0881C16.4554 11.4376 16.8237 11.8875 17.0559 12.3975C17.288 12.9075 17.3766 13.4616 17.3138 14.0102C17.2509 14.5588 17.0386 15.0847 16.6958 15.5409C16.3531 15.997 15.8906 16.369 15.3498 16.6236C14.8118 16.8769 14.2131 17.0061 13.6067 16.9998H2.56149C1.88322 16.9998 1.33337 16.5023 1.33337 15.8886C1.33337 15.275 1.88322 14.7775 2.56149 14.7775H13.6318C13.835 14.7801 14.0357 14.7372 14.2159 14.6523C14.3962 14.5674 14.5504 14.4434 14.6646 14.2914C14.7789 14.1393 14.8497 13.964 14.8706 13.7812C14.8915 13.5983 14.862 13.4136 14.7846 13.2436C14.7073 13.0736 14.5845 12.9236 14.4273 12.8071C14.2701 12.6906 14.0834 12.6112 13.8839 12.5761Z" fill="white"/>
<path fill-rule="evenodd" clip-rule="evenodd" d="M17.547 25.0002C18.1631 24.9939 18.7714 25.1231 19.318 25.3764C19.8674 25.631 20.3373 26.003 20.6856 26.4591C21.0339 26.9152 21.2496 27.4412 21.3134 27.9898C21.3773 28.5384 21.2872 29.0925 21.0514 29.6025C20.8156 30.1125 20.4413 30.5624 19.9622 30.9119C19.483 31.2614 18.9139 31.4996 18.306 31.6051C17.698 31.7106 17.0702 31.6801 16.4787 31.5164C15.8872 31.3527 15.3506 31.0608 14.917 30.667C14.4345 30.2288 14.4423 29.5253 14.9344 29.0957C15.4265 28.6661 16.2165 28.673 16.699 29.1112C16.8435 29.2425 17.0224 29.3398 17.2195 29.3944C17.4167 29.4489 17.626 29.4591 17.8286 29.4239C18.0313 29.3888 18.221 29.3094 18.3807 29.1929C18.5404 29.0764 18.6652 28.9264 18.7438 28.7564C18.8224 28.5864 18.8524 28.4017 18.8311 28.2188C18.8098 28.0359 18.7379 27.8606 18.6218 27.7086C18.5057 27.5566 18.3491 27.4326 18.166 27.3477C17.9828 27.2628 17.7789 27.2197 17.5724 27.2223L17.5549 27.2226V27.2224H2.58118C1.89204 27.2224 1.33337 26.725 1.33337 26.1113C1.33337 25.4977 1.89204 25.0002 2.58118 25.0002H17.547Z" fill="white"/>
<path fill-rule="evenodd" clip-rule="evenodd" d="M22.1025 5.02899C22.1025 4.52515 22.5109 4.1167 23.0148 4.1167L28.5534 4.1167L27.0143 2.57765C26.6581 2.22138 26.6581 1.64375 27.0143 1.28748C27.3706 0.931206 27.9482 0.931206 28.3045 1.28748L31.4009 4.3839C31.4884 4.47137 31.5544 4.57218 31.5989 4.67978C31.6432 4.78655 31.6678 4.90355 31.6681 5.02626C31.6681 5.02808 31.6681 5.0299 31.6681 5.03173C31.6678 5.15443 31.6432 5.27143 31.5989 5.3782C31.5544 5.4858 31.4884 5.58661 31.4009 5.67408L28.3045 8.77051C27.9482 9.12678 27.3706 9.12678 27.0143 8.7705C26.6581 8.41423 26.6581 7.8366 27.0143 7.48033L28.5534 5.94128L23.0148 5.94128C22.5109 5.94128 22.1025 5.53284 22.1025 5.02899Z" fill="white"/>
<path fill-rule="evenodd" clip-rule="evenodd" d="M24.9435 5.02899C24.9435 4.52515 24.5351 4.1167 24.0312 4.1167L18.4926 4.1167L20.0317 2.57765C20.388 2.22138 20.388 1.64375 20.0317 1.28748C19.6754 0.931206 19.0978 0.931206 18.7415 1.28748L15.6451 4.3839C15.5576 4.47137 15.4916 4.57218 15.4471 4.67978C15.4028 4.78655 15.3782 4.90355 15.3779 5.02626C15.3779 5.02808 15.3779 5.0299 15.3779 5.03173C15.3782 5.15443 15.4028 5.27143 15.4471 5.3782C15.4916 5.4858 15.5576 5.58661 15.6451 5.67408L18.7415 8.77051C19.0978 9.12678 19.6754 9.12678 20.0317 8.7705C20.388 8.41423 20.388 7.8366 20.0317 7.48033L18.4926 5.94128L24.0312 5.94128C24.5351 5.94128 24.9435 5.53284 24.9435 5.02899Z" fill="white"/>
</g>
<defs>
<clipPath id="clip0_2005_6616">
<rect width="32" height="32" fill="white"/>
</clipPath>
</defs>
</svg>
