<svg width="32" height="32" viewBox="0 0 32 32" fill="none" xmlns="http://www.w3.org/2000/svg">
<g clip-path="url(#clip0_2038_6782)">
<path d="M6.58594 16.9678C6.58594 17.2738 6.55827 17.5651 6.50293 17.8418C6.44759 18.1152 6.36784 18.3691 6.26367 18.6035C6.15299 18.8379 6.01628 19.0527 5.85352 19.248C5.69076 19.4434 5.50521 19.6061 5.29688 19.7363C5.10807 19.8503 4.89974 19.9382 4.67188 20C4.44727 20.0651 4.20475 20.0977 3.94434 20.0977C3.66764 20.0977 3.41211 20.0618 3.17773 19.9902C2.94336 19.9186 2.73014 19.8177 2.53809 19.6875C2.34928 19.5508 2.18001 19.3864 2.03027 19.1943C1.88053 18.999 1.75521 18.7793 1.6543 18.5352C1.56315 18.3105 1.49316 18.0664 1.44434 17.8027C1.39876 17.5391 1.37598 17.2607 1.37598 16.9678V15.9326C1.37598 15.6201 1.40202 15.3239 1.4541 15.0439C1.50944 14.764 1.58919 14.5052 1.69336 14.2676C1.79427 14.043 1.91634 13.8395 2.05957 13.6572C2.20605 13.4749 2.3737 13.3187 2.5625 13.1885C2.74805 13.0615 2.95638 12.9639 3.1875 12.8955C3.41862 12.8271 3.66927 12.793 3.93945 12.793C4.21289 12.793 4.46842 12.8288 4.70605 12.9004C4.94694 12.9688 5.16341 13.068 5.35547 13.1982C5.54753 13.3219 5.71517 13.4717 5.8584 13.6475C6.00488 13.8232 6.13021 14.0169 6.23438 14.2285C6.34831 14.4694 6.43457 14.7331 6.49316 15.0195C6.55501 15.306 6.58594 15.6104 6.58594 15.9326V16.9678ZM5.19434 15.9229C5.19434 15.7406 5.18457 15.568 5.16504 15.4053C5.14876 15.2393 5.12109 15.0863 5.08203 14.9463C5.0332 14.7705 4.9681 14.6143 4.88672 14.4775C4.80534 14.3376 4.70931 14.2236 4.59863 14.1357C4.51074 14.0706 4.41146 14.0202 4.30078 13.9844C4.19336 13.9486 4.07292 13.9307 3.93945 13.9307C3.8125 13.9307 3.69694 13.9469 3.59277 13.9795C3.49186 14.012 3.40072 14.0592 3.31934 14.1211C3.20866 14.2122 3.11426 14.3262 3.03613 14.4629C2.96126 14.5996 2.90267 14.7591 2.86035 14.9414C2.8278 15.0814 2.80339 15.2344 2.78711 15.4004C2.77409 15.5664 2.76758 15.7406 2.76758 15.9229V16.9678C2.76758 17.1403 2.77409 17.3063 2.78711 17.4658C2.80013 17.6253 2.82292 17.7734 2.85547 17.9102C2.89128 18.0827 2.94336 18.2406 3.01172 18.3838C3.08333 18.5238 3.16634 18.6377 3.26074 18.7256C3.34863 18.8037 3.44792 18.8639 3.55859 18.9062C3.67253 18.9486 3.80111 18.9697 3.94434 18.9697C4.08105 18.9697 4.20638 18.9502 4.32031 18.9111C4.43424 18.8721 4.53516 18.8151 4.62305 18.7402C4.73372 18.6491 4.8265 18.5352 4.90137 18.3984C4.97949 18.2585 5.04134 18.1006 5.08691 17.9248C5.12272 17.7881 5.14876 17.6383 5.16504 17.4756C5.18457 17.3128 5.19434 17.1436 5.19434 16.9678V15.9229ZM11.3223 18.1445C11.3223 18.0176 11.2995 17.8988 11.2539 17.7881C11.2116 17.6774 11.1383 17.5732 11.0342 17.4756C10.9268 17.3812 10.7868 17.2949 10.6143 17.2168C10.445 17.1354 10.2334 17.0605 9.97949 16.9922C9.58561 16.8848 9.23893 16.7546 8.93945 16.6016C8.64323 16.4486 8.40072 16.2809 8.21191 16.0986C8.02311 15.9163 7.87988 15.7145 7.78223 15.4932C7.68783 15.2718 7.64062 15.0309 7.64062 14.7705C7.64062 14.471 7.7041 14.1992 7.83105 13.9551C7.95801 13.7109 8.13379 13.5026 8.3584 13.3301C8.58301 13.1576 8.84831 13.0257 9.1543 12.9346C9.46029 12.8402 9.79232 12.793 10.1504 12.793C10.5215 12.793 10.86 12.8467 11.166 12.9541C11.4753 13.0615 11.7406 13.2113 11.9619 13.4033C12.1833 13.5986 12.3558 13.8298 12.4795 14.0967C12.6032 14.3636 12.665 14.6566 12.665 14.9756H11.3271C11.3206 14.8161 11.2913 14.6696 11.2393 14.5361C11.1904 14.4027 11.1172 14.2871 11.0195 14.1895C10.9186 14.0951 10.7933 14.0218 10.6436 13.9697C10.4971 13.9144 10.3245 13.8867 10.126 13.8867C9.94368 13.8867 9.78092 13.9095 9.6377 13.9551C9.49772 13.9974 9.37891 14.0576 9.28125 14.1357C9.18359 14.2171 9.10872 14.3132 9.05664 14.4238C9.00781 14.5312 8.9834 14.6484 8.9834 14.7754C8.9834 14.9089 9.01595 15.0293 9.08105 15.1367C9.14941 15.2441 9.24707 15.3402 9.37402 15.4248C9.50098 15.5127 9.65397 15.5924 9.83301 15.6641C10.0153 15.7357 10.2204 15.8024 10.4482 15.8643C10.6924 15.9326 10.9251 16.0156 11.1465 16.1133C11.3678 16.2109 11.5713 16.3232 11.7568 16.4502C12.0368 16.6585 12.2598 16.901 12.4258 17.1777C12.5918 17.4544 12.6748 17.7734 12.6748 18.1348C12.6748 18.4473 12.6113 18.7256 12.4844 18.9697C12.3607 19.2106 12.1882 19.4141 11.9668 19.5801C11.7454 19.7493 11.4818 19.8779 11.1758 19.9658C10.8698 20.0505 10.5361 20.0928 10.1748 20.0928C9.81999 20.0928 9.46842 20.0407 9.12012 19.9365C8.77507 19.8291 8.47396 19.6729 8.2168 19.4678C7.97266 19.266 7.77897 19.0283 7.63574 18.7549C7.49577 18.4814 7.42578 18.1608 7.42578 17.793H8.77344C8.77995 18.0078 8.81738 18.1917 8.88574 18.3447C8.9541 18.4977 9.05013 18.623 9.17383 18.7207C9.29427 18.8184 9.43913 18.89 9.6084 18.9355C9.78092 18.9811 9.96973 19.0039 10.1748 19.0039C10.3571 19.0039 10.5182 18.9827 10.6582 18.9404C10.8014 18.8981 10.9219 18.8395 11.0195 18.7646C11.1172 18.6898 11.1921 18.6003 11.2441 18.4961C11.2962 18.3887 11.3223 18.2715 11.3223 18.1445ZM18.5732 17.7734C18.5505 18.1315 18.4723 18.4538 18.3389 18.7402C18.2087 19.0267 18.0329 19.2708 17.8115 19.4727C17.5902 19.6745 17.3265 19.8307 17.0205 19.9414C16.7145 20.0488 16.376 20.1025 16.0049 20.1025C15.7119 20.1025 15.4401 20.0651 15.1895 19.9902C14.9421 19.9121 14.7191 19.8014 14.5205 19.6582C14.3382 19.5247 14.1755 19.3636 14.0322 19.1748C13.8923 18.986 13.7734 18.7777 13.6758 18.5498C13.5814 18.3219 13.5081 18.0713 13.4561 17.7979C13.4072 17.5244 13.3828 17.2347 13.3828 16.9287V15.9717C13.3828 15.6852 13.4056 15.4134 13.4512 15.1562C13.4967 14.8958 13.5651 14.6549 13.6562 14.4336C13.7604 14.1634 13.8971 13.9225 14.0664 13.7109C14.2357 13.4993 14.4277 13.3203 14.6426 13.1738C14.8346 13.0501 15.0446 12.9557 15.2725 12.8906C15.5036 12.8223 15.751 12.7881 16.0146 12.7881C16.4053 12.7881 16.752 12.8434 17.0547 12.9541C17.3607 13.0648 17.6211 13.2227 17.8359 13.4277C18.0508 13.6328 18.2201 13.8835 18.3438 14.1797C18.4674 14.4759 18.5456 14.8096 18.5781 15.1807H17.2109C17.1979 14.9691 17.1654 14.7835 17.1133 14.624C17.0645 14.4645 16.9928 14.3311 16.8984 14.2236C16.8008 14.1195 16.6787 14.0413 16.5322 13.9893C16.389 13.9339 16.2165 13.9062 16.0146 13.9062C15.9072 13.9062 15.8063 13.9176 15.7119 13.9404C15.6208 13.9632 15.5361 13.9974 15.458 14.043C15.3245 14.1211 15.2106 14.2334 15.1162 14.3799C15.0251 14.5231 14.9518 14.6908 14.8965 14.8828C14.8542 15.0326 14.8232 15.1986 14.8037 15.3809C14.7842 15.5599 14.7744 15.7536 14.7744 15.9619V16.9287C14.7744 17.2119 14.7891 17.4658 14.8184 17.6904C14.8509 17.9118 14.8997 18.1055 14.9648 18.2715C15.0104 18.3854 15.0641 18.4863 15.126 18.5742C15.1911 18.6621 15.2643 18.7354 15.3457 18.7939C15.4336 18.859 15.5312 18.9079 15.6387 18.9404C15.7493 18.9697 15.8714 18.9844 16.0049 18.9844C16.1839 18.9844 16.3451 18.9616 16.4883 18.916C16.6315 18.8704 16.7536 18.7988 16.8545 18.7012C16.9554 18.6035 17.0352 18.4782 17.0938 18.3252C17.1523 18.1722 17.1882 17.9883 17.2012 17.7734H18.5732ZM19.9453 12.8906H24.0566V13.999H22.6699V18.8965H24.0566V20H19.9453V18.8965H21.2979V13.999H19.9453V12.8906ZM27.1182 18.8916H30.4482V20H25.7412V12.8906H27.1182V18.8916Z" fill="white"/>
</g>
<defs>
<clipPath id="clip0_2038_6782">
<rect width="32" height="32" fill="white"/>
</clipPath>
</defs>
</svg>
