<svg width="305" height="157" viewBox="0 0 305 157" fill="none" xmlns="http://www.w3.org/2000/svg">
<g clip-path="url(#clip0_2289_32710)">
<rect width="305" height="157" rx="16" fill="#E5E5E5"/>
<g opacity="0.6">
<path fill-rule="evenodd" clip-rule="evenodd" d="M256.947 49H273.212C274.861 49 276.21 50.3492 276.21 51.9981V73.7347C276.21 75.3837 274.861 76.7328 273.212 76.7328H256.947C255.298 76.7328 253.949 75.3837 253.949 73.7347V51.9981C253.949 50.3492 255.298 49 256.947 49Z" fill="white" stroke="#999999" stroke-width="1.57088" stroke-linecap="round" stroke-linejoin="round"/>
<path d="M256.725 49.2227H270.066C271.715 49.2227 273.065 50.5718 273.065 52.2208V73.9573C273.065 75.6063 271.715 76.9555 270.066 76.9555H256.725C255.076 76.9555 253.727 75.6063 253.727 73.9573V52.2208C253.727 50.5718 255.076 49.2227 256.725 49.2227Z" stroke="#999999" stroke-width="1.17816" stroke-linecap="round" stroke-linejoin="round"/>
<path d="M263.399 73.8847C266.752 73.8847 269.471 71.1665 269.471 67.8134C269.471 64.4604 266.752 61.7422 263.399 61.7422C260.046 61.7422 257.328 64.4604 257.328 67.8134C257.328 71.1665 260.046 73.8847 263.399 73.8847Z" fill="#7C7C7C" stroke="#3C3B3C" stroke-width="1.17816" stroke-linecap="round" stroke-linejoin="round"/>
<path d="M263.399 57.7701C264.516 57.7701 265.422 56.8641 265.422 55.7464C265.422 54.6287 264.516 53.7227 263.399 53.7227C262.281 53.7227 261.375 54.6287 261.375 55.7464C261.375 56.8641 262.281 57.7701 263.399 57.7701Z" fill="#7C7C7C" stroke="#3C3B3C" stroke-width="1.17816" stroke-linecap="round" stroke-linejoin="round"/>
<path d="M263.62 69.8375C264.655 69.8375 265.494 68.9986 265.494 67.9637C265.494 66.9288 264.655 66.0898 263.62 66.0898C262.585 66.0898 261.746 66.9288 261.746 67.9637C261.746 68.9986 262.585 69.8375 263.62 69.8375Z" fill="#605F60" stroke="#3C3B3C" stroke-width="1.17816" stroke-linecap="round" stroke-linejoin="round"/>
<path d="M156.824 73.9139L180.96 70.0312M205.2 73.9139L181.065 70.0312" stroke="#605F60" stroke-width="1.57088" stroke-linecap="round" stroke-linejoin="round"/>
<path d="M180.547 70.0312V54.6055" stroke="#605F60" stroke-width="1.57088" stroke-linecap="round" stroke-linejoin="round"/>
<path fill-rule="evenodd" clip-rule="evenodd" d="M138.148 12H223.777C225.561 12 226.925 13.3642 226.925 15.1481V62.0551C226.925 63.839 225.561 65.2032 223.777 65.2032H138.148C136.364 65.2032 135 63.839 135 62.0551V15.1481C135 13.3642 136.364 12 138.148 12Z" fill="white" stroke="#999999" stroke-width="1.57088"/>
<path fill-rule="evenodd" clip-rule="evenodd" d="M141.72 16.8281H220.213C221.367 16.8281 222.312 17.7726 222.312 18.9269V58.2784C222.312 59.4327 221.367 60.3771 220.213 60.3771H141.72C140.566 60.3771 139.621 59.4327 139.621 58.2784V18.9269C139.621 17.7726 140.566 16.8281 141.72 16.8281Z" fill="#605F60" stroke="#393939" stroke-width="1.17816"/>
<path fill-rule="evenodd" clip-rule="evenodd" d="M180.649 53.3438C180.649 53.3438 179.6 59.8499 178.865 60.5844C178.235 61.2141 172.254 62.3684 172.254 62.3684C172.254 62.3684 178.025 63.7325 178.865 64.1523C180.019 64.677 180.649 70.7633 180.649 70.7633C180.649 70.7633 181.698 64.8869 182.433 64.1523C183.062 63.5227 189.044 62.3684 189.044 62.3684C189.044 62.3684 183.272 61.1091 182.433 60.5844C181.698 60.0597 180.649 53.3438 180.649 53.3438Z" fill="#FF817B" stroke="#EA0000" stroke-width="0.785438" stroke-linecap="round" stroke-linejoin="round"/>
<path fill-rule="evenodd" clip-rule="evenodd" d="M229.749 69.1602H263.328C264.153 69.1602 264.827 69.8347 264.827 70.6592V79.6537C264.827 80.4781 264.153 81.1527 263.328 81.1527H229.749C228.925 81.1527 228.25 80.4781 228.25 79.6537V70.6592C228.25 69.8347 228.925 69.1602 229.749 69.1602Z" fill="white" stroke="#999999" stroke-width="1.57088" stroke-linecap="round" stroke-linejoin="round"/>
<path d="M229.528 69H260.472C261.312 69 262 69.6626 262 70.4724V79.5276C262 80.3374 261.312 81 260.472 81H229.528C228.688 81 228 80.3374 228 79.5276V70.4724C228 69.6626 228.688 69 229.528 69Z" stroke="#999999" stroke-width="1.17816" stroke-linecap="round" stroke-linejoin="round"/>
<path fill-rule="evenodd" clip-rule="evenodd" d="M238.144 71.7852H247.438C247.888 71.7852 248.188 72.085 248.188 72.5347V77.0319C248.188 77.4816 247.888 77.7814 247.438 77.7814H238.144C237.694 77.7814 237.395 77.4816 237.395 77.0319V72.5347C237.395 72.085 237.694 71.7852 238.144 71.7852Z" fill="#605F60" stroke="#393939" stroke-width="1.17816" stroke-linecap="round" stroke-linejoin="round"/>
<path d="M255.529 78.156C257.392 78.156 258.902 76.6459 258.902 74.7831C258.902 72.9203 257.392 71.4102 255.529 71.4102C253.666 71.4102 252.156 72.9203 252.156 74.7831C252.156 76.6459 253.666 78.156 255.529 78.156Z" fill="#C8C8C8" stroke="#999999" stroke-width="1.17816" stroke-linecap="round" stroke-linejoin="round"/>
<path fill-rule="evenodd" clip-rule="evenodd" d="M231.921 68.4883C231.921 68.4883 231.172 73.0604 230.647 73.5851C230.197 74.0348 226 74.8593 226 74.8593C226 74.8593 230.047 75.8337 230.647 76.1335C231.472 76.5083 231.921 80.7807 231.921 80.7807C231.921 80.7807 232.671 76.6582 233.196 76.1335C233.645 75.6838 237.843 74.8593 237.843 74.8593C237.843 74.8593 233.72 73.9599 233.196 73.5851C232.671 73.2103 231.921 68.4883 231.921 68.4883Z" fill="#FF817B" stroke="#EA0000" stroke-width="0.785438" stroke-linecap="round" stroke-linejoin="round"/>
<path fill-rule="evenodd" clip-rule="evenodd" d="M119.24 110.54L102.652 62.9263C102.652 62.9263 124.691 52.8221 157.409 60.3388C193.855 68.6521 209.37 92.5496 209.37 92.5496L128.189 113.992L119.23 110.674L119.24 110.54Z" fill="url(#paint0_linear_2289_32710)"/>
<mask id="mask0_2289_32710" style="mask-type:luminance" maskUnits="userSpaceOnUse" x="102" y="57" width="108" height="57">
<path d="M119.232 110.544L102.644 62.9302C102.644 62.9302 124.683 52.826 157.401 60.3427C193.847 68.656 209.362 92.5535 209.362 92.5535L128.181 113.995L119.223 110.678L119.232 110.544Z" fill="white"/>
</mask>
<g mask="url(#mask0_2289_32710)">
<g opacity="0.7">
<path d="M106.194 82.083C106.194 82.083 113.691 81.112 115.079 86.4762C116.341 91.6967 126.282 92.5148 131.029 90.2741C135.777 88.0334 139.212 87.1886 144.66 88.5086C150.109 89.8287 153.62 95.744 153.62 95.744C153.62 95.744 155.676 103.181 166.688 102.181C177.699 101.181 178.655 103.003 180.932 107.212" stroke="#EA0000" stroke-width="0.785438"/>
<path d="M190.899 97.9029C188.273 92.859 186.655 90.8564 174.118 92.4268C161.581 93.9972 159.501 84.9379 159.501 84.9379C159.501 84.9379 156.546 78.7906 150.426 77.4244C144.708 76.0859 138.709 76.8896 133.521 79.6404C127.921 82.498 117.79 82.4774 116.198 76.1535C114.606 69.8297 107.122 68.64 107.122 68.64C103.088 68.3628 99.0689 69.843 96.1672 72.7508" stroke="#EA0000" stroke-width="0.785438"/>
<path d="M102.783 61.0444C105.55 58.1273 109.695 56.7908 113.72 57.2025C113.72 57.2025 121.329 58.5358 122.777 64.9849C124.225 71.434 134.472 71.7328 140.063 69.0096C145.241 66.3933 151.232 65.7241 156.94 67.197C163.186 68.7069 165.997 74.9795 165.997 74.9795C165.997 74.9795 167.942 84.0296 180.586 82.8718C193.229 81.714 197.778 84.3232 200.404 89.3671C203.03 94.411 202.632 100.193 202.833 103.179" stroke="#EA0000" stroke-width="0.785438"/>
</g>
</g>
<path fill-rule="evenodd" clip-rule="evenodd" d="M52.0791 144.159C50.5446 144.864 49.4925 146.413 49.3724 148.161C49.1784 150.985 49.1547 167.06 49.1547 167.06C49.1547 167.06 49.0346 168.808 53.1989 171.12C57.3631 173.433 77.3354 183.586 77.3354 183.586C77.3354 183.586 80.5584 185.834 86.6924 185.04C92.8264 184.245 109.685 182.702 109.685 182.702C112.286 182.205 114.808 180.892 116.444 178.708C119.804 175.021 150.917 125.281 150.917 125.281C151.969 123.732 152.376 121.734 152.362 119.976C152.468 116.471 152.521 107.829 152.521 107.829C152.521 107.829 152.687 105.408 148.569 102.423C144.451 99.4385 139.447 95.5821 136.359 93.3434C133.27 91.1048 133.493 91.7956 132.032 91.425L129.478 91.2495L111.024 92.4134C109.374 92.8404 107.955 93.8237 106.922 95.1037C104.738 97.3854 52.2136 144.168 52.2136 144.168L52.0791 144.159Z" fill="#DEE7ED"/>
<path fill-rule="evenodd" clip-rule="evenodd" d="M132.434 91.4515L113.586 92.4532C111.148 92.5559 108.788 93.4745 106.785 95.0932C103.642 97.5792 53.5233 142.771 53.5233 142.771C53.5233 142.771 50.2274 145.517 56.1212 148.218C62.015 150.92 78.8618 159.373 78.8618 159.373C81.8898 160.526 85.0984 161.017 88.2188 160.826C88.4877 160.845 105.722 159.732 105.722 159.732C108.833 159.676 111.902 158.265 113.825 155.83C115.425 154.184 149.584 109.247 149.584 109.247C149.584 109.247 152.648 105.945 149.685 103.85C146.722 101.755 135.04 92.8464 135.04 92.8464C134.279 92.1187 133.366 91.6506 132.434 91.4515Z" fill="white"/>
<path d="M106.792 95.0943L51.3557 144.919C49.738 146.835 49.4321 147.354 49.391 149.918C49.2525 151.935 49.159 167.06 49.159 167.06C49.3171 168.692 49.6558 169.661 51.8493 171.162C54.4185 173.095 77.3305 183.721 77.3305 183.721C79.8114 184.972 82.4914 185.291 85.3336 185.216C90.6331 184.77 112.378 182.886 112.378 182.886C115.239 182.543 116.435 180.868 117.783 178.935C120.309 175.596 150.903 125.55 150.903 125.55C152.135 123.338 152.418 121.196 152.306 118.891C152.295 115.108 152.507 108.097 152.507 108.097C152.507 108.097 152.747 104.601 149.909 102.65C147.071 100.699 135.7 93.1627 135.7 93.1627C135.7 93.1627 132.746 90.9333 128.379 91.5789C124.011 92.2245 112.23 92.6309 112.23 92.6309C110.185 92.8957 108.238 93.7076 106.782 95.2288L106.792 95.0943Z" stroke="#3C3B3C" stroke-width="1.57088" stroke-linecap="round" stroke-linejoin="round"/>
<path fill-rule="evenodd" clip-rule="evenodd" d="M99.6219 124.728C109.34 124.855 117.015 129.165 117.058 134.437C117.101 139.709 109.123 143.754 99.4042 143.627C89.6859 143.499 82.0113 139.189 81.9682 133.918C81.9251 128.646 89.9036 124.601 99.6219 124.728Z" fill="#FF8200" stroke="#3C3B3C" stroke-width="1.17816" stroke-linecap="round" stroke-linejoin="round"/>
<path d="M99.4601 130.932C102.696 131.02 105.187 132.136 105.219 133.625C105.252 135.113 102.614 136.148 99.378 136.06C96.1416 135.973 93.6515 134.856 93.6187 133.368C93.5858 131.88 96.2238 130.845 99.4601 130.932Z" stroke="#3C3B3C" stroke-width="1.17816" stroke-linecap="round" stroke-linejoin="round"/>
<path fill-rule="evenodd" clip-rule="evenodd" d="M77.2094 142.104C80.5803 142.201 83.3208 143.605 83.326 145.497C83.3311 147.389 80.5402 148.683 77.1602 148.721C73.7801 148.759 71.0488 147.22 71.0436 145.328C71.0385 143.437 73.8386 142.008 77.2094 142.104Z" fill="#FF8200" stroke="#3C3B3C" stroke-width="1.17816" stroke-linecap="round" stroke-linejoin="round"/>
<path d="M93.235 119.426C93.62 119.723 93.7267 120.135 93.4301 120.52C93.1334 120.905 92.7208 121.012 92.3359 120.715C92.067 120.697 91.9602 120.284 91.9787 120.015C92.1501 119.487 92.7064 119.255 93.235 119.426Z" stroke="#3C3B3C" stroke-width="0.785438" stroke-linecap="round" stroke-linejoin="round"/>
<path fill-rule="evenodd" clip-rule="evenodd" d="M138.938 105.002L126.622 121.043C126.622 121.043 124.087 124.516 119.821 123.683C115.555 122.849 97.6801 117.568 97.6801 117.568C97.6801 117.568 95.5656 116.883 97.0304 115.227C98.4951 113.571 113.389 99.3285 113.389 99.3285C113.389 99.3285 114.71 97.7981 117.399 97.9828C120.088 98.1676 137.5 102.336 137.5 102.336C137.5 102.336 140.412 103.212 138.803 104.992L138.938 105.002Z" fill="#FF8200" stroke="#3C3B3C" stroke-width="1.17816" stroke-linecap="round" stroke-linejoin="round"/>
<path d="M111.018 110.462L124.628 109.494L121.949 102.913L113.792 116.573L121.275 115.086L115.38 102.63" stroke="#2769DF" stroke-width="1.57088"/>
</g>
</g>
<defs>
<linearGradient id="paint0_linear_2289_32710" x1="144.236" y1="114.419" x2="162.254" y2="58.6452" gradientUnits="userSpaceOnUse">
<stop stop-color="#F98177"/>
<stop offset="0.5" stop-color="#F98177"/>
<stop offset="1" stop-color="#DEE7ED" stop-opacity="0"/>
</linearGradient>
<clipPath id="clip0_2289_32710">
<rect width="305" height="157" rx="16" fill="white"/>
</clipPath>
</defs>
</svg>
