<svg width="12" height="12" viewBox="0 0 12 12" fill="none" xmlns="http://www.w3.org/2000/svg">
<g clip-path="url(#clip0_266_231)">
<path fill-rule="evenodd" clip-rule="evenodd" d="M3.21432 8.66819L3.59651 8.75661C3.96115 8.84097 4.3161 8.60959 4.38931 8.2398C4.46252 7.87002 4.22627 7.50185 3.86163 7.41749L1.98271 6.98279C1.64629 6.90496 1.31288 7.0961 1.20859 7.42659L0.694044 9.05727C0.581013 9.41548 0.776619 9.80694 1.13094 9.93162C1.48527 10.0563 1.86413 9.86699 1.97716 9.50878L2.03357 9.33002C2.82112 10.4004 3.87764 11.0567 4.73528 11.3585C5.80151 11.7337 7.37138 11.8472 8.88561 11.0905C10.4045 10.3316 11.2664 8.96364 11.6046 7.89165C11.7177 7.53344 11.5221 7.14198 11.1677 7.0173C10.8134 6.89262 10.4346 7.08193 10.3215 7.44014C10.069 8.24033 9.40827 9.28411 8.26774 9.85401C7.12257 10.4262 5.93024 10.3377 5.14461 10.0613C4.54264 9.84946 3.79629 9.39304 3.21432 8.66819ZM8.45958 4.43804C8.09494 4.35368 7.8587 3.98552 7.93191 3.61573C8.00512 3.24594 8.36007 3.01456 8.7247 3.09892L9.1069 3.18734C8.52493 2.4625 7.77858 2.00608 7.17661 1.79425C6.39098 1.5178 5.19865 1.4293 4.05347 2.00153C2.91294 2.57143 2.25219 3.61521 1.9997 4.4154C1.88667 4.77361 1.5078 4.96292 1.15348 4.83824C0.799156 4.71355 0.60355 4.32209 0.716582 3.96388C1.05484 2.8919 1.91673 1.52396 3.43561 0.765002C4.94984 0.00836874 6.51971 0.121868 7.58593 0.497061C8.44358 0.798855 9.50009 1.45518 10.2876 2.52552L10.3441 2.34675C10.4571 1.98854 10.836 1.79923 11.1903 1.92391C11.5446 2.0486 11.7402 2.44006 11.6272 2.79827L11.1126 4.42894C11.0083 4.75943 10.6749 4.95058 10.3385 4.87275L8.45958 4.43804Z" fill="white"/>
</g>
<defs>
<clipPath id="clip0_266_231">
<rect width="12" height="12" fill="white"/>
</clipPath>
</defs>
</svg>
