<svg width="32" height="32" viewBox="0 0 32 32" fill="none" xmlns="http://www.w3.org/2000/svg">
<path fill-rule="evenodd" clip-rule="evenodd" d="M2.50491 2.50489C3.25505 1.75474 4.27247 1.33331 5.33334 1.33331H9.33334C10.0697 1.33331 10.6667 1.93027 10.6667 2.66665C10.6667 3.40303 10.0697 3.99998 9.33334 3.99998H5.33334C4.97971 3.99998 4.64057 4.14046 4.39053 4.3905C4.14048 4.64055 4 4.97969 4 5.33331V9.33331C4 10.0697 3.40305 10.6666 2.66667 10.6666C1.93029 10.6666 1.33334 10.0697 1.33334 9.33331V5.33331C1.33334 4.27245 1.75476 3.25503 2.50491 2.50489ZM21.3333 2.66665C21.3333 1.93027 21.9303 1.33331 22.6667 1.33331H26.6667C27.7275 1.33331 28.7449 1.75474 29.4951 2.50489C30.2452 3.25503 30.6667 4.27245 30.6667 5.33331V9.33331C30.6667 10.0697 30.0697 10.6666 29.3333 10.6666C28.597 10.6666 28 10.0697 28 9.33331V5.33331C28 4.97969 27.8595 4.64055 27.6095 4.3905C27.3594 4.14046 27.0203 3.99998 26.6667 3.99998H22.6667C21.9303 3.99998 21.3333 3.40303 21.3333 2.66665ZM2.66667 21.3333C3.40305 21.3333 4 21.9303 4 22.6666V26.6666C4 27.0203 4.14048 27.3594 4.39053 27.6095C4.64058 27.8595 4.97971 28 5.33334 28H9.33334C10.0697 28 10.6667 28.5969 10.6667 29.3333C10.6667 30.0697 10.0697 30.6666 9.33334 30.6666H5.33334C4.27247 30.6666 3.25505 30.2452 2.50491 29.4951C1.75476 28.7449 1.33334 27.7275 1.33334 26.6666V22.6666C1.33334 21.9303 1.93029 21.3333 2.66667 21.3333ZM29.3333 21.3333C30.0697 21.3333 30.6667 21.9303 30.6667 22.6666V26.6666C30.6667 27.7275 30.2452 28.7449 29.4951 29.4951C28.7449 30.2452 27.7275 30.6666 26.6667 30.6666H22.6667C21.9303 30.6666 21.3333 30.0697 21.3333 29.3333C21.3333 28.5969 21.9303 28 22.6667 28H26.6667C27.0203 28 27.3594 27.8595 27.6095 27.6095C27.8595 27.3594 28 27.0203 28 26.6666V22.6666C28 21.9303 28.597 21.3333 29.3333 21.3333Z" fill="white"/>
<path d="M10.6667 16L21.3333 16" stroke="white" stroke-width="2" stroke-linecap="round" stroke-linejoin="round"/>
</svg>
