<svg width="32" height="32" viewBox="0 0 32 32" fill="none" xmlns="http://www.w3.org/2000/svg">
<g clip-path="url(#clip0_2049_25919)">
<path d="M3.09473 12.8916H6.4248V14H1.71777V6.89062H3.09473V12.8916ZM7.93359 6.89062H12.0449V7.99902H10.6582V12.8965H12.0449V14H7.93359V12.8965H9.28613V7.99902H7.93359V6.89062ZM18.5244 13.1699C18.4365 13.2773 18.3161 13.3864 18.1631 13.4971C18.0101 13.6077 17.8294 13.707 17.6211 13.7949C17.4095 13.8861 17.1735 13.9593 16.9131 14.0146C16.6527 14.07 16.3727 14.0977 16.0732 14.0977C15.8128 14.0977 15.5671 14.0667 15.3359 14.0049C15.1081 13.9463 14.8981 13.86 14.7061 13.7461C14.5173 13.6289 14.3447 13.4857 14.1885 13.3164C14.0355 13.1471 13.9053 12.9535 13.7979 12.7354C13.6742 12.4945 13.5798 12.2227 13.5146 11.9199C13.4528 11.6172 13.4219 11.2884 13.4219 10.9336V9.9668C13.4219 9.62826 13.4528 9.31413 13.5146 9.02441C13.5765 8.73145 13.6644 8.46615 13.7783 8.22852C13.8857 8.01693 14.0094 7.8265 14.1494 7.65723C14.2926 7.48796 14.4489 7.34147 14.6182 7.21777C14.8167 7.0778 15.0332 6.97201 15.2676 6.90039C15.502 6.82878 15.7493 6.79297 16.0098 6.79297C16.4102 6.79297 16.7585 6.84342 17.0547 6.94434C17.3542 7.04525 17.6064 7.1901 17.8115 7.37891C18.0166 7.57096 18.1761 7.80371 18.29 8.07715C18.4072 8.35059 18.4837 8.6582 18.5195 9H17.1816C17.1589 8.82747 17.123 8.67448 17.0742 8.54102C17.0286 8.40755 16.9652 8.29525 16.8838 8.2041C16.7926 8.10319 16.6771 8.02832 16.5371 7.97949C16.4004 7.92741 16.236 7.90137 16.0439 7.90137C15.9398 7.90137 15.8389 7.91764 15.7412 7.9502C15.6436 7.98275 15.5524 8.02995 15.4678 8.0918C15.3571 8.17643 15.2562 8.28711 15.165 8.42383C15.0771 8.56055 15.0039 8.72168 14.9453 8.90723C14.8997 9.05046 14.8639 9.20996 14.8379 9.38574C14.8151 9.56152 14.8037 9.75195 14.8037 9.95703V10.9336C14.8037 11.1908 14.82 11.4251 14.8525 11.6367C14.8883 11.8483 14.9372 12.0355 14.999 12.1982C15.0381 12.2926 15.082 12.3805 15.1309 12.4619C15.1829 12.54 15.2399 12.61 15.3018 12.6719C15.4059 12.776 15.5264 12.8558 15.6631 12.9111C15.8031 12.9632 15.9609 12.9909 16.1367 12.9941C16.2441 12.9941 16.3499 12.986 16.4541 12.9697C16.5583 12.9535 16.6559 12.9307 16.7471 12.9014C16.8382 12.8721 16.918 12.8395 16.9863 12.8037C17.0579 12.7646 17.1117 12.724 17.1475 12.6816L17.1523 11.3926H15.9756V10.3672H18.5195L18.5244 13.1699ZM24.335 14H22.9775V10.9189H20.9658V14H19.6035V6.89062H20.9658V9.80566H22.9775V6.89062H24.335V14ZM30.873 8.00879H28.6807V14H27.3037V8.00879H25.1406V6.89062H30.873V8.00879Z" fill="white"/>
<path d="M6.06641 22.5742C6.06641 22.819 6.04427 23.0521 6 23.2734C5.95573 23.4922 5.89193 23.6953 5.80859 23.8828C5.72005 24.0703 5.61068 24.2422 5.48047 24.3984C5.35026 24.5547 5.20182 24.6849 5.03516 24.7891C4.88411 24.8802 4.71745 24.9505 4.53516 25C4.35547 25.0521 4.16146 25.0781 3.95312 25.0781C3.73177 25.0781 3.52734 25.0495 3.33984 24.9922C3.15234 24.9349 2.98177 24.8542 2.82812 24.75C2.67708 24.6406 2.54167 24.5091 2.42188 24.3555C2.30208 24.1992 2.20182 24.0234 2.12109 23.8281C2.04818 23.6484 1.99219 23.4531 1.95312 23.2422C1.91667 23.0312 1.89844 22.8086 1.89844 22.5742V21.7461C1.89844 21.4961 1.91927 21.2591 1.96094 21.0352C2.00521 20.8112 2.06901 20.6042 2.15234 20.4141C2.23307 20.2344 2.33073 20.0716 2.44531 19.9258C2.5625 19.7799 2.69661 19.6549 2.84766 19.5508C2.99609 19.4492 3.16276 19.3711 3.34766 19.3164C3.53255 19.2617 3.73307 19.2344 3.94922 19.2344C4.16797 19.2344 4.3724 19.263 4.5625 19.3203C4.75521 19.375 4.92839 19.4544 5.08203 19.5586C5.23568 19.6576 5.36979 19.7773 5.48438 19.918C5.60156 20.0586 5.70182 20.2135 5.78516 20.3828C5.8763 20.5755 5.94531 20.7865 5.99219 21.0156C6.04167 21.2448 6.06641 21.4883 6.06641 21.7461V22.5742ZM4.95312 21.7383C4.95312 21.5924 4.94531 21.4544 4.92969 21.3242C4.91667 21.1914 4.89453 21.069 4.86328 20.957C4.82422 20.8164 4.77214 20.6914 4.70703 20.582C4.64193 20.4701 4.5651 20.3789 4.47656 20.3086C4.40625 20.2565 4.32682 20.2161 4.23828 20.1875C4.15234 20.1589 4.05599 20.1445 3.94922 20.1445C3.84766 20.1445 3.75521 20.1576 3.67188 20.1836C3.59115 20.2096 3.51823 20.2474 3.45312 20.2969C3.36458 20.3698 3.28906 20.4609 3.22656 20.5703C3.16667 20.6797 3.11979 20.8073 3.08594 20.9531C3.0599 21.0651 3.04036 21.1875 3.02734 21.3203C3.01693 21.4531 3.01172 21.5924 3.01172 21.7383V22.5742C3.01172 22.7122 3.01693 22.8451 3.02734 22.9727C3.03776 23.1003 3.05599 23.2188 3.08203 23.3281C3.11068 23.4661 3.15234 23.5924 3.20703 23.707C3.26432 23.819 3.33073 23.9102 3.40625 23.9805C3.47656 24.043 3.55599 24.0911 3.64453 24.125C3.73568 24.1589 3.83854 24.1758 3.95312 24.1758C4.0625 24.1758 4.16276 24.1602 4.25391 24.1289C4.34505 24.0977 4.42578 24.0521 4.49609 23.9922C4.58464 23.9193 4.65885 23.8281 4.71875 23.7188C4.78125 23.6068 4.83073 23.4805 4.86719 23.3398C4.89583 23.2305 4.91667 23.1107 4.92969 22.9805C4.94531 22.8503 4.95312 22.7148 4.95312 22.5742V21.7383ZM10.6523 25H9.55859L7.97656 21.332V25H6.87109V19.3125H7.97656L9.54688 22.9648L9.55078 19.3125H10.6523V25ZM13.0664 25.4883H12.0547L14.1836 19.3125H15.1953L13.0664 25.4883ZM20.4805 22.5742C20.4805 22.819 20.4583 23.0521 20.4141 23.2734C20.3698 23.4922 20.306 23.6953 20.2227 23.8828C20.1341 24.0703 20.0247 24.2422 19.8945 24.3984C19.7643 24.5547 19.6159 24.6849 19.4492 24.7891C19.2982 24.8802 19.1315 24.9505 18.9492 25C18.7695 25.0521 18.5755 25.0781 18.3672 25.0781C18.1458 25.0781 17.9414 25.0495 17.7539 24.9922C17.5664 24.9349 17.3958 24.8542 17.2422 24.75C17.0911 24.6406 16.9557 24.5091 16.8359 24.3555C16.7161 24.1992 16.6159 24.0234 16.5352 23.8281C16.4622 23.6484 16.4062 23.4531 16.3672 23.2422C16.3307 23.0312 16.3125 22.8086 16.3125 22.5742V21.7461C16.3125 21.4961 16.3333 21.2591 16.375 21.0352C16.4193 20.8112 16.4831 20.6042 16.5664 20.4141C16.6471 20.2344 16.7448 20.0716 16.8594 19.9258C16.9766 19.7799 17.1107 19.6549 17.2617 19.5508C17.4102 19.4492 17.5768 19.3711 17.7617 19.3164C17.9466 19.2617 18.1471 19.2344 18.3633 19.2344C18.582 19.2344 18.7865 19.263 18.9766 19.3203C19.1693 19.375 19.3424 19.4544 19.4961 19.5586C19.6497 19.6576 19.7839 19.7773 19.8984 19.918C20.0156 20.0586 20.1159 20.2135 20.1992 20.3828C20.2904 20.5755 20.3594 20.7865 20.4062 21.0156C20.4557 21.2448 20.4805 21.4883 20.4805 21.7461V22.5742ZM19.3672 21.7383C19.3672 21.5924 19.3594 21.4544 19.3438 21.3242C19.3307 21.1914 19.3086 21.069 19.2773 20.957C19.2383 20.8164 19.1862 20.6914 19.1211 20.582C19.056 20.4701 18.9792 20.3789 18.8906 20.3086C18.8203 20.2565 18.7409 20.2161 18.6523 20.1875C18.5664 20.1589 18.4701 20.1445 18.3633 20.1445C18.2617 20.1445 18.1693 20.1576 18.0859 20.1836C18.0052 20.2096 17.9323 20.2474 17.8672 20.2969C17.7786 20.3698 17.7031 20.4609 17.6406 20.5703C17.5807 20.6797 17.5339 20.8073 17.5 20.9531C17.474 21.0651 17.4544 21.1875 17.4414 21.3203C17.431 21.4531 17.4258 21.5924 17.4258 21.7383V22.5742C17.4258 22.7122 17.431 22.8451 17.4414 22.9727C17.4518 23.1003 17.4701 23.2188 17.4961 23.3281C17.5247 23.4661 17.5664 23.5924 17.6211 23.707C17.6784 23.819 17.7448 23.9102 17.8203 23.9805C17.8906 24.043 17.9701 24.0911 18.0586 24.125C18.1497 24.1589 18.2526 24.1758 18.3672 24.1758C18.4766 24.1758 18.5768 24.1602 18.668 24.1289C18.7591 24.0977 18.8398 24.0521 18.9102 23.9922C18.9987 23.9193 19.0729 23.8281 19.1328 23.7188C19.1953 23.6068 19.2448 23.4805 19.2812 23.3398C19.3099 23.2305 19.3307 23.1107 19.3438 22.9805C19.3594 22.8503 19.3672 22.7148 19.3672 22.5742V21.7383ZM24.9258 22.6445H22.4883V25H21.3867V19.3125H25.2305V20.207H22.4883V21.7539H24.9258V22.6445ZM29.7305 22.6445H27.293V25H26.1914V19.3125H30.0352V20.207H27.293V21.7539H29.7305V22.6445Z" fill="white" fill-opacity="0.5"/>
</g>
<defs>
<clipPath id="clip0_2049_25919">
<rect width="32" height="32" fill="white"/>
</clipPath>
</defs>
</svg>
