<svg width="32" height="32" viewBox="0 0 32 32" fill="none" xmlns="http://www.w3.org/2000/svg">
<path opacity="0.5" d="M18.568 17.1987C18.661 17.636 19.0948 17.9215 19.5101 17.7559C20.232 17.468 20.8765 17.0062 21.3834 16.4063C22.0655 15.5991 22.4598 14.588 22.504 13.5321C22.5483 12.4762 22.24 11.4356 21.6278 10.5742C21.1729 9.93406 20.5693 9.41988 19.874 9.07261C19.4741 8.87284 19.0179 9.12101 18.8886 9.54901C18.7594 9.97702 19.0102 10.4207 19.3911 10.6547C19.749 10.8745 20.0616 11.1653 20.3081 11.5121C20.7122 12.0806 20.9156 12.7674 20.8864 13.4643C20.8572 14.1612 20.597 14.8285 20.1468 15.3613C19.8721 15.6863 19.5363 15.9499 19.1613 16.139C18.7621 16.3403 18.4751 16.7614 18.568 17.1987Z" fill="white"/>
<path opacity="0.5" d="M9.43197 9.46705C9.33902 9.02974 8.90518 8.74426 8.48989 8.90987C7.768 9.19774 7.12351 9.65961 6.6166 10.2595C5.93448 11.0666 5.54025 12.0778 5.49599 13.1337C5.45174 14.1895 5.75998 15.2301 6.37216 16.0915C6.8271 16.7317 7.43069 17.2459 8.12595 17.5932C8.52592 17.7929 8.98213 17.5448 9.11136 17.1168C9.24058 16.6888 8.98982 16.2451 8.60885 16.0111C8.25096 15.7913 7.93837 15.5005 7.69189 15.1537C7.28785 14.5851 7.08441 13.8983 7.11362 13.2015C7.14283 12.5046 7.40302 11.8372 7.85322 11.3045C8.12785 10.9795 8.46368 10.7159 8.83872 10.5268C9.23793 10.3255 9.52493 9.90437 9.43197 9.46705Z" fill="white"/>
<path opacity="0.5" d="M6.92941 6.61765C6.865 6.15929 6.43941 5.83537 5.99089 5.94971C4.51729 6.32538 3.18294 7.13556 2.16681 8.28408C0.964739 9.64277 0.286914 11.3858 0.255253 13.1996C0.223592 15.0135 0.840174 16.7791 1.99409 18.1789C2.96952 19.3622 4.27478 20.2185 5.73438 20.6453C6.17864 20.7753 6.61526 20.4664 6.69564 20.0105C6.77602 19.5547 6.46877 19.1257 6.02875 18.982C4.96151 18.6336 4.00885 17.9878 3.28749 17.1127C2.38743 16.0209 1.90649 14.6437 1.93119 13.2289C1.95588 11.8141 2.48459 10.4545 3.4222 9.39476C4.17367 8.54537 5.14828 7.93323 6.22704 7.62227C6.6718 7.49406 6.99383 7.07601 6.92941 6.61765Z" fill="white"/>
<path opacity="0.5" fill-rule="evenodd" clip-rule="evenodd" d="M15.9998 15.3741C16.5287 14.8555 16.8569 14.1329 16.8569 13.3337C16.8569 11.7557 15.5777 10.4766 13.9997 10.4766C12.4218 10.4766 11.1426 11.7557 11.1426 13.3337C11.1426 14.9117 12.4218 16.1908 13.9997 16.1908C13.9997 16.1908 13.9997 16.1908 13.9998 16.1908V15H15.9998V15.3741Z" fill="white"/>
<path opacity="0.5" fill-rule="evenodd" clip-rule="evenodd" d="M22.0001 20.6241C23.427 20.2168 24.715 19.4439 25.7137 18.3814C26.991 17.0227 27.7111 15.2797 27.7448 13.4659C27.7784 11.652 27.1233 9.88642 25.8973 8.4866C24.8468 7.28727 23.4364 6.4239 21.86 6.00307C21.4186 5.88522 20.9892 6.18879 20.9051 6.63785C20.8184 7.10029 21.1311 7.53854 21.5815 7.67467C22.7272 8.02095 23.7501 8.67026 24.523 9.55279C25.4793 10.6446 25.9903 12.0218 25.9641 13.4366C25.9379 14.8514 25.3761 16.211 24.3799 17.2708C23.6169 18.0825 22.6374 18.6775 21.5517 19.0001H22.0001V20.6241Z" fill="white"/>
<path fill-rule="evenodd" clip-rule="evenodd" d="M19.1379 18.8405C19.5338 18.4446 20.0707 18.2222 20.6306 18.2222C21.1905 18.2222 21.7275 18.4446 22.1234 18.8405C22.5193 19.2364 22.7418 19.7734 22.7418 20.3333V21.037C22.7418 21.4256 22.4267 21.7407 22.038 21.7407C21.6494 21.7407 21.3343 21.4256 21.3343 21.037V20.3333C21.3343 20.1466 21.2602 19.9677 21.1282 19.8357C20.9963 19.7037 20.8173 19.6296 20.6306 19.6296C20.444 19.6296 20.265 19.7037 20.133 19.8357C20.0011 19.9677 19.9269 20.1466 19.9269 20.3333C19.9269 20.7219 19.6119 21.037 19.2232 21.037C18.8346 21.037 18.5195 20.7219 18.5195 20.3333C18.5195 19.7734 18.742 19.2364 19.1379 18.8405Z" fill="white"/>
<path fill-rule="evenodd" clip-rule="evenodd" d="M16.3215 18.1369C16.7174 17.741 17.2543 17.5186 17.8142 17.5186C18.3741 17.5186 18.9111 17.741 19.307 18.1369C19.7029 18.5328 19.9253 19.0698 19.9253 19.6297V20.3334C19.9253 20.722 19.6103 21.0371 19.2216 21.0371C18.833 21.0371 18.5179 20.722 18.5179 20.3334V19.6297C18.5179 19.443 18.4438 19.264 18.3118 19.1321C18.1799 19.0001 18.0009 18.926 17.8142 18.926C17.6276 18.926 17.4486 19.0001 17.3166 19.1321C17.1847 19.264 17.1105 19.443 17.1105 19.6297V20.3334C17.1105 20.722 16.7955 21.0371 16.4068 21.0371C16.0182 21.0371 15.7031 20.722 15.7031 20.3334V19.6297C15.7031 19.0698 15.9255 18.5328 16.3215 18.1369Z" fill="white"/>
<path fill-rule="evenodd" clip-rule="evenodd" d="M13.507 14.6183C13.9029 14.2224 14.4399 14 14.9998 14C15.5597 14 16.0967 14.2224 16.4926 14.6183C16.8885 15.0142 17.1109 15.5512 17.1109 16.1111V19.9815C17.1109 20.3701 16.7958 20.6852 16.4072 20.6852C16.0185 20.6852 15.7035 20.3701 15.7035 19.9815V16.1111C15.7035 15.9245 15.6293 15.7455 15.4974 15.6135C15.3654 15.4815 15.1864 15.4074 14.9998 15.4074C14.8131 15.4074 14.6342 15.4815 14.5022 15.6135C14.3702 15.7455 14.2961 15.9245 14.2961 16.1111V23.1481C14.2961 23.5368 13.981 23.8519 13.5924 23.8519C13.2037 23.8519 12.8887 23.5368 12.8887 23.1481V16.1111C12.8887 15.5512 13.1111 15.0142 13.507 14.6183Z" fill="white"/>
<path fill-rule="evenodd" clip-rule="evenodd" d="M23.4447 20.3334C23.258 20.3334 23.079 20.4076 22.9471 20.5395C22.8151 20.6715 22.741 20.8505 22.741 21.0371C22.741 21.4258 22.4259 21.7408 22.0373 21.7408C21.6486 21.7408 21.3336 21.4258 21.3336 21.0371C21.3336 20.4772 21.556 19.9403 21.9519 19.5444C22.3478 19.1484 22.8848 18.926 23.4447 18.926C24.0046 18.926 24.5415 19.1484 24.9374 19.5444C25.3334 19.9403 25.5558 20.4772 25.5558 21.0371V23.1482C25.5558 24.828 24.8885 26.4389 23.7008 27.6266C22.5131 28.8143 20.9021 29.4816 19.2224 29.4816H17.815C15.6555 29.4816 14.2819 28.8005 13.1039 27.6305L13.1023 27.6288L10.5689 25.0955C10.5605 25.087 10.5522 25.0783 10.5442 25.0695C10.181 24.6672 9.98645 24.1408 10.0007 23.599C10.015 23.0573 10.2371 22.5418 10.621 22.1593C11.0049 21.7767 11.5211 21.5565 12.0629 21.5441C12.6047 21.5318 13.1305 21.7282 13.5314 22.0928C13.5397 22.1003 13.5477 22.108 13.5556 22.1158L14.7941 23.3544C15.0689 23.6292 15.0689 24.0747 14.7941 24.3495C14.5193 24.6244 14.0737 24.6244 13.7989 24.3495L12.5742 23.1249C12.442 23.0092 12.271 22.9471 12.095 22.9512C11.9145 22.9553 11.7424 23.0287 11.6144 23.1562C11.4864 23.2837 11.4124 23.4556 11.4077 23.6361C11.403 23.8118 11.4642 23.9826 11.579 24.1151L14.0958 26.6319C14.096 26.6322 14.0963 26.6325 14.0966 26.6328C15.0155 27.5452 16.0344 28.0742 17.815 28.0742H19.2224C20.5289 28.0742 21.7818 27.5552 22.7056 26.6314C23.6294 25.7076 24.1484 24.4547 24.1484 23.1482V21.0371C24.1484 20.8505 24.0742 20.6715 23.9423 20.5395C23.8103 20.4076 23.6313 20.3334 23.4447 20.3334Z" fill="white"/>
<path fill-rule="evenodd" clip-rule="evenodd" d="M24.8529 22.4443C25.2415 22.4443 25.5566 22.7594 25.5566 23.148C25.5566 24.8277 24.8893 26.4387 23.7016 27.6264C22.5138 28.8141 20.9029 29.4814 19.2232 29.4814C18.8346 29.4814 18.5195 29.1663 18.5195 28.7777C18.5195 28.389 18.8346 28.074 19.2232 28.074C20.5297 28.074 21.7826 27.555 22.7064 26.6312C23.6302 25.7074 24.1492 24.4545 24.1492 23.148C24.1492 22.7594 24.4642 22.4443 24.8529 22.4443Z" fill="white"/>
</svg>
