<svg width="347" height="124" viewBox="0 0 347 124" fill="none" xmlns="http://www.w3.org/2000/svg">
<g clip-path="url(#clip0_525_39505)">
<rect width="347" height="124" rx="12" fill="#F2F2F2"/>
<rect x="78" y="8" width="192" height="76" rx="8" fill="#E9E9E9"/>
<path d="M155.854 50H157.523L159.105 44.3047H159.199L160.799 50H162.457L164.701 41.5449H162.873L161.566 47.5859H161.473L159.902 41.5449H158.408L156.867 47.5859H156.773L155.455 41.5449H153.615L155.854 50ZM166.645 42.5586C167.173 42.5586 167.606 42.1367 167.606 41.6094C167.606 41.0762 167.173 40.6543 166.645 40.6543C166.118 40.6543 165.679 41.0762 165.679 41.6094C165.679 42.1367 166.118 42.5586 166.645 42.5586ZM165.784 50H167.495V43.5488H165.784V50ZM171.22 50.0996C172.129 50.0996 172.814 49.6953 173.148 48.998H173.254V50H174.964V41.082H173.254V44.5801H173.148C172.826 43.877 172.105 43.4434 171.22 43.4434C169.586 43.4434 168.601 44.6914 168.601 46.7656V46.7773C168.601 48.8398 169.609 50.0996 171.22 50.0996ZM171.8 48.6816C170.898 48.6816 170.341 47.9668 170.341 46.7773V46.7656C170.341 45.5879 170.898 44.8613 171.8 44.8613C172.703 44.8613 173.271 45.5879 173.271 46.7715V46.7832C173.271 47.9668 172.709 48.6816 171.8 48.6816ZM179.282 52.2676C181.233 52.2676 182.469 51.3125 182.469 49.8008V43.5488H180.758V44.6035H180.676C180.33 43.877 179.639 43.4434 178.754 43.4434C177.102 43.4434 176.1 44.7207 176.1 46.6191V46.6309C176.1 48.4648 177.102 49.7188 178.725 49.7188C179.621 49.7188 180.301 49.3496 180.659 48.6699H180.764V49.8711C180.764 50.6211 180.231 51.0488 179.317 51.0488C178.555 51.0488 178.11 50.791 178.016 50.416L178.01 50.3926H176.317V50.4219C176.457 51.5176 177.495 52.2676 179.282 52.2676ZM179.305 48.4062C178.379 48.4062 177.852 47.6855 177.852 46.625V46.6133C177.852 45.5527 178.385 44.832 179.305 44.832C180.225 44.832 180.782 45.5527 180.782 46.6133V46.625C180.782 47.6855 180.231 48.4062 179.305 48.4062ZM186.716 50.1348C188.603 50.1348 189.435 49.0449 189.634 48.2363L189.646 48.1777H188.052L188.034 48.2129C187.917 48.459 187.501 48.8574 186.751 48.8574C185.843 48.8574 185.275 48.2422 185.257 47.1816H189.698V46.6484C189.698 44.6973 188.527 43.4082 186.646 43.4082C184.765 43.4082 183.564 44.7266 183.564 46.7773V46.7832C183.564 48.8516 184.753 50.1348 186.716 50.1348ZM186.675 44.6914C187.419 44.6914 187.952 45.1719 188.058 46.1094H185.275C185.38 45.1953 185.931 44.6914 186.675 44.6914ZM193.477 50.0234C193.805 50.0234 194.121 49.9883 194.332 49.9473V48.6758C194.168 48.6934 194.051 48.7051 193.828 48.7051C193.248 48.7051 193.002 48.4473 193.002 47.8672V44.8379H194.332V43.5488H193.002V42.0078H191.273V43.5488H190.277V44.8379H191.273V48.2598C191.273 49.5137 191.906 50.0234 193.477 50.0234Z" fill="#C1C1C1"/>
<g filter="url(#filter0_d_525_39505)">
<rect x="143" y="92" width="64" height="24" rx="12" fill="white"/>
<path d="M162.331 109H168.866V107.298H164.395V104.803H168.613V103.217H164.395V100.838H168.866V99.1357H162.331V109ZM173.228 109.116C174.288 109.116 175.087 108.645 175.477 107.831H175.6V109H177.596V98.5957H175.6V102.677H175.477C175.101 101.856 174.26 101.351 173.228 101.351C171.321 101.351 170.172 102.807 170.172 105.227V105.24C170.172 107.646 171.348 109.116 173.228 109.116ZM173.905 107.462C172.852 107.462 172.203 106.628 172.203 105.24V105.227C172.203 103.853 172.852 103.005 173.905 103.005C174.958 103.005 175.621 103.853 175.621 105.233V105.247C175.621 106.628 174.964 107.462 173.905 107.462ZM180.379 100.318C180.995 100.318 181.5 99.8262 181.5 99.2109C181.5 98.5889 180.995 98.0967 180.379 98.0967C179.764 98.0967 179.251 98.5889 179.251 99.2109C179.251 99.8262 179.764 100.318 180.379 100.318ZM179.374 109H181.371V101.474H179.374V109ZM186.204 109.027C186.587 109.027 186.956 108.986 187.202 108.938V107.455C187.011 107.476 186.874 107.489 186.614 107.489C185.938 107.489 185.651 107.188 185.651 106.512V102.978H187.202V101.474H185.651V99.6758H183.634V101.474H182.472V102.978H183.634V106.97C183.634 108.433 184.372 109.027 186.204 109.027Z" fill="#616161"/>
</g>
<path d="M242 104L204.37 104.134" stroke="#F63F3F" stroke-width="3" stroke-linecap="round" stroke-linejoin="round"/>
<path d="M209.37 109.135L204.37 104.135L209.37 99.1348" stroke="#F63F3F" stroke-width="3" stroke-linecap="round" stroke-linejoin="round"/>
</g>
<defs>
<filter id="filter0_d_525_39505" x="126" y="79" width="98" height="58" filterUnits="userSpaceOnUse" color-interpolation-filters="sRGB">
<feFlood flood-opacity="0" result="BackgroundImageFix"/>
<feColorMatrix in="SourceAlpha" type="matrix" values="0 0 0 0 0 0 0 0 0 0 0 0 0 0 0 0 0 0 127 0" result="hardAlpha"/>
<feMorphology radius="1" operator="dilate" in="SourceAlpha" result="effect1_dropShadow_525_39505"/>
<feOffset dy="4"/>
<feGaussianBlur stdDeviation="8"/>
<feComposite in2="hardAlpha" operator="out"/>
<feColorMatrix type="matrix" values="0 0 0 0 0.796078 0 0 0 0 0.796078 0 0 0 0 0.796078 0 0 0 0.25 0"/>
<feBlend mode="normal" in2="BackgroundImageFix" result="effect1_dropShadow_525_39505"/>
<feBlend mode="normal" in="SourceGraphic" in2="effect1_dropShadow_525_39505" result="shape"/>
</filter>
<clipPath id="clip0_525_39505">
<rect width="347" height="124" rx="12" fill="white"/>
</clipPath>
</defs>
</svg>
