<svg width="327" height="124" viewBox="0 0 327 124" fill="none" xmlns="http://www.w3.org/2000/svg">
<rect width="327" height="124" rx="12" fill="#171717"/>
<g clip-path="url(#clip0_703_26008)">
<rect x="17" y="35" width="294" height="54" rx="6" fill="#303030"/>
<g clip-path="url(#clip1_703_26008)">
<path d="M51.4789 47.2105C52.0803 46.2987 53.0995 45.75 54.1918 45.75H78.9303C80.0326 45.75 81.0597 46.3087 81.6586 47.234L85.2283 52.7489C85.5688 53.275 85.75 53.8883 85.75 54.5149V61C85.75 62.7949 84.2949 64.25 82.5 64.25H53.8474C52.9131 64.25 52.024 63.8479 51.407 63.1463L47.0807 58.2272C46.1129 57.1268 46.0012 55.5147 46.8082 54.2914L51.4789 47.2105Z" stroke="#589DFF" stroke-width="1.5"/>
<g clip-path="url(#clip2_703_26008)">
<path fill-rule="evenodd" clip-rule="evenodd" d="M69.6593 57.5764L69.6466 57.5963L69.6119 57.6424L69.572 57.6858L66.5838 60.6384C66.2236 60.9942 65.619 60.7686 65.5671 60.2879L65.5635 60.2208L65.5635 56.1339L63.5462 57.7294C63.2885 57.9331 62.9124 57.8918 62.7062 57.6372C62.5158 57.4021 62.5368 57.0674 62.7439 56.857L62.7995 56.8072L65.2043 54.9062L62.7995 53.0053C62.5418 52.8016 62.5 52.43 62.7062 52.1753C62.8965 51.9403 63.2316 51.887 63.4848 52.0404L63.5462 52.0831L65.5635 53.678L65.5635 49.5917C65.5635 49.0885 66.1525 48.8255 66.5332 49.1292L66.5838 49.1741L69.572 52.1267C69.6004 52.1547 69.6252 52.1847 69.6466 52.2162L69.6632 52.2422L69.6899 52.2916L69.7197 52.3668C69.7821 52.569 69.735 52.7922 69.5842 52.9496L69.5228 53.0053L67.1174 54.9062L69.5228 56.8072C69.6817 56.9328 69.7574 57.1205 69.746 57.3047C69.7422 57.3624 69.7308 57.4169 69.7115 57.4695L69.6899 57.5209L69.6593 57.5764ZM66.7586 56.1344V58.794L68.2539 57.3166L66.7586 56.1344ZM66.7586 53.6775V51.0178L68.2539 52.4953L66.7586 53.6775Z" fill="#589DFF"/>
</g>
</g>
<path d="M42.9395 79.1807C44.6387 79.1807 45.8448 78.1748 45.9961 76.7002L46.001 76.6465H44.5655L44.5557 76.6855C44.3995 77.4375 43.7891 77.9307 42.9444 77.9307C41.8311 77.9307 41.1426 76.9932 41.1426 75.4795V75.4697C41.1426 73.9561 41.8311 73.0234 42.9395 73.0234C43.7793 73.0234 44.4092 73.5605 44.5606 74.3516V74.3857H45.9961V74.3271C45.8594 72.8379 44.6094 71.7734 42.9395 71.7734C40.8936 71.7734 39.6338 73.1846 39.6338 75.4697V75.4795C39.6338 77.7646 40.8985 79.1807 42.9395 79.1807ZM49.3645 79.1123C51.0198 79.1123 52.0159 78.0674 52.0159 76.3145V76.3047C52.0159 74.5664 51.0052 73.5068 49.3645 73.5068C47.7239 73.5068 46.7132 74.5713 46.7132 76.3047V76.3145C46.7132 78.0625 47.7093 79.1123 49.3645 79.1123ZM49.3645 77.9941C48.6028 77.9941 48.1731 77.374 48.1731 76.3145V76.3047C48.1731 75.2549 48.6077 74.625 49.3645 74.625C50.1165 74.625 50.5559 75.2549 50.5559 76.3047V76.3145C50.5559 77.374 50.1214 77.9941 49.3645 77.9941ZM52.938 79H54.3638V75.8896C54.3638 75.1621 54.7642 74.6885 55.4234 74.6885C56.0972 74.6885 56.4097 75.0889 56.4097 75.8457V79H57.8355V75.5234C57.8355 74.2393 57.1909 73.5068 55.9946 73.5068C55.228 73.5068 54.6958 73.873 54.4517 74.4541H54.3638V73.624H52.938V79ZM58.9773 79H60.4031V75.8896C60.4031 75.1621 60.8035 74.6885 61.4627 74.6885C62.1365 74.6885 62.449 75.0889 62.449 75.8457V79H63.8748V75.5234C63.8748 74.2393 63.2302 73.5068 62.0339 73.5068C61.2673 73.5068 60.7351 73.873 60.491 74.4541H60.4031V73.624H58.9773V79ZM67.3799 79.1123C68.9521 79.1123 69.6455 78.2041 69.8115 77.5303L69.8213 77.4814H68.4932L68.4785 77.5107C68.3809 77.7158 68.0342 78.0479 67.4092 78.0479C66.6523 78.0479 66.1787 77.5352 66.1641 76.6514H69.8652V76.207C69.8652 74.5811 68.8887 73.5068 67.3213 73.5068C65.7539 73.5068 64.7529 74.6055 64.7529 76.3145V76.3193C64.7529 78.043 65.7441 79.1123 67.3799 79.1123ZM67.3457 74.5762C67.9658 74.5762 68.4102 74.9766 68.498 75.7578H66.1787C66.2666 74.9961 66.7256 74.5762 67.3457 74.5762ZM73.1604 79.1123C74.5618 79.1123 75.4016 78.3604 75.5481 77.1885L75.553 77.1592H74.2346L74.2248 77.1787C74.0979 77.7158 73.7512 77.9941 73.1653 77.9941C72.4036 77.9941 71.9787 77.3936 71.9787 76.3047V76.2949C71.9787 75.2207 72.3987 74.625 73.1653 74.625C73.7756 74.625 74.1321 74.9668 74.2248 75.4893L74.2297 75.499H75.5578V75.4844C75.4309 74.2832 74.5862 73.5068 73.1604 73.5068C71.4758 73.5068 70.5286 74.5273 70.5286 76.2949V76.3047C70.5286 78.0918 71.4807 79.1123 73.1604 79.1123ZM78.7114 79.0195C78.9848 79.0195 79.2485 78.9902 79.4243 78.9561V77.8965C79.2876 77.9111 79.1899 77.9209 79.0044 77.9209C78.521 77.9209 78.3159 77.7061 78.3159 77.2227V74.6982H79.4243V73.624H78.3159V72.3398H76.8755V73.624H76.0454V74.6982H76.8755V77.5498C76.8755 78.5947 77.4028 79.0195 78.7114 79.0195ZM82.695 79.1123C84.2673 79.1123 84.9607 78.2041 85.1267 77.5303L85.1364 77.4814H83.8083L83.7937 77.5107C83.696 77.7158 83.3493 78.0479 82.7243 78.0479C81.9675 78.0479 81.4939 77.5352 81.4792 76.6514H85.1804V76.207C85.1804 74.5811 84.2038 73.5068 82.6364 73.5068C81.0691 73.5068 80.0681 74.6055 80.0681 76.3145V76.3193C80.0681 78.043 81.0593 79.1123 82.695 79.1123ZM82.6609 74.5762C83.281 74.5762 83.7253 74.9766 83.8132 75.7578H81.4939C81.5818 74.9961 82.0407 74.5762 82.6609 74.5762ZM88.0263 79.083C88.7832 79.083 89.3545 78.7461 89.6328 78.165H89.7207V79H91.1464V71.5684H89.7207V74.4834H89.6328C89.3642 73.8975 88.7636 73.5361 88.0263 73.5361C86.664 73.5361 85.8437 74.5762 85.8437 76.3047V76.3145C85.8437 78.0332 86.6836 79.083 88.0263 79.083ZM88.5097 77.9014C87.7578 77.9014 87.2939 77.3057 87.2939 76.3145V76.3047C87.2939 75.3232 87.7578 74.7178 88.5097 74.7178C89.2617 74.7178 89.7353 75.3232 89.7353 76.3096V76.3193C89.7353 77.3057 89.2666 77.9014 88.5097 77.9014Z" fill="#919191"/>
<path d="M170 48.6364H180.5C181.605 48.6364 182.5 49.5318 182.5 50.6364V63C182.5 64.1046 181.605 65 180.5 65H159.5C158.395 65 157.5 64.1046 157.5 63V48.6364M170 48.6364L168.868 46.1667C168.542 45.4558 167.832 45 167.05 45H159.5C158.395 45 157.5 45.8954 157.5 47V48.6364M170 48.6364H157.5" stroke="#919191" stroke-width="1.5"/>
<path d="M151.446 79H152.993L153.516 77.291H156.001L156.524 79H158.076L155.625 71.9541H153.892L151.446 79ZM154.717 73.3604H154.805L155.664 76.1875H153.853L154.717 73.3604ZM158.891 79H160.317V75.9922C160.317 75.2305 160.83 74.7666 161.64 74.7666C161.86 74.7666 162.08 74.8008 162.294 74.8496V73.6045C162.153 73.5654 161.953 73.5361 161.762 73.5361C161.064 73.5361 160.576 73.8779 160.405 74.459H160.317V73.624H158.891V79ZM165.248 79.1123C166.649 79.1123 167.489 78.3604 167.636 77.1885L167.64 77.1592H166.322L166.312 77.1787C166.185 77.7158 165.839 77.9941 165.253 77.9941C164.491 77.9941 164.066 77.3936 164.066 76.3047V76.2949C164.066 75.2207 164.486 74.625 165.253 74.625C165.863 74.625 166.219 74.9668 166.312 75.4893L166.317 75.499H167.645V75.4844C167.518 74.2832 166.674 73.5068 165.248 73.5068C163.563 73.5068 162.616 74.5273 162.616 76.2949V76.3047C162.616 78.0918 163.568 79.1123 165.248 79.1123ZM168.567 79H169.993V75.8896C169.993 75.1621 170.394 74.6885 171.053 74.6885C171.727 74.6885 172.039 75.0889 172.039 75.8457V79H173.465V75.5234C173.465 74.2393 172.82 73.5068 171.624 73.5068C170.857 73.5068 170.325 73.873 170.081 74.4541H169.993V71.5684H168.567V79ZM175.334 72.7988C175.774 72.7988 176.135 72.4473 176.135 72.0078C176.135 71.5635 175.774 71.2119 175.334 71.2119C174.895 71.2119 174.529 71.5635 174.529 72.0078C174.529 72.4473 174.895 72.7988 175.334 72.7988ZM174.616 79H176.042V73.624H174.616V79ZM178.644 79H180.246L182.106 73.624H180.607L179.503 77.667H179.416L178.302 73.624H176.774L178.644 79ZM184.967 79.1123C186.539 79.1123 187.232 78.2041 187.398 77.5303L187.408 77.4814H186.08L186.065 77.5107C185.967 77.7158 185.621 78.0479 184.996 78.0479C184.239 78.0479 183.765 77.5352 183.751 76.6514H187.452V76.207C187.452 74.5811 186.475 73.5068 184.908 73.5068C183.341 73.5068 182.34 74.6055 182.34 76.3145V76.3193C182.34 78.043 183.331 79.1123 184.967 79.1123ZM184.932 74.5762C185.552 74.5762 185.997 74.9766 186.085 75.7578H183.765C183.853 74.9961 184.312 74.5762 184.932 74.5762Z" fill="#919191"/>
<rect x="239" y="39" width="58" height="46" rx="8" fill="#E9E9E9"/>
<path d="M266.579 53.0376L266.579 46.5414C266.579 46.2424 266.337 46 266.038 46L259.541 46C259.242 46 259 46.2424 259 46.5414L259 53.0376C259 53.3366 259.242 53.5789 259.541 53.5789L266.038 53.5789C266.337 53.5789 266.579 53.3366 266.579 53.0376Z" fill="black" stroke="black" stroke-width="1.5" stroke-linecap="round" stroke-linejoin="round"/>
<path d="M277 53.0376L277 46.5414C277 46.2424 276.757 46 276.458 46L269.962 46C269.663 46 269.421 46.2424 269.421 46.5414L269.421 53.0376C269.421 53.3366 269.663 53.5789 269.962 53.5789L276.458 53.5789C276.757 53.5789 277 53.3366 277 53.0376Z" fill="black" stroke="black" stroke-width="1.5" stroke-linecap="round" stroke-linejoin="round"/>
<path d="M266.579 63.4587L266.579 56.9624C266.579 56.6635 266.337 56.4211 266.038 56.4211L259.541 56.4211C259.242 56.4211 259 56.6635 259 56.9624L259 63.4587C259 63.7577 259.242 64 259.541 64L266.038 64C266.337 64 266.579 63.7577 266.579 63.4587Z" fill="black" stroke="black" stroke-width="1.5" stroke-linecap="round" stroke-linejoin="round"/>
<path d="M277 63.4587L277 56.9624C277 56.6635 276.757 56.4211 276.458 56.4211L269.962 56.4211C269.663 56.4211 269.421 56.6635 269.421 56.9624L269.421 63.4587C269.421 63.7577 269.663 64 269.962 64L276.458 64C276.757 64 277 63.7577 277 63.4587Z" fill="black" stroke="black" stroke-width="1.5" stroke-linecap="round" stroke-linejoin="round"/>
<path d="M258.782 79H260.257V76.0312H263.43V79H264.905V71.9541H263.43V74.8154H260.257V71.9541H258.782V79ZM268.01 79.1123C268.776 79.1123 269.323 78.7559 269.567 78.1699H269.655V79H271.081V73.624H269.655V76.7295C269.655 77.457 269.274 77.9307 268.571 77.9307C267.897 77.9307 267.609 77.5352 267.609 76.7734V73.624H266.184V77.1006C266.184 78.3799 266.804 79.1123 268.01 79.1123ZM275.446 79.083C276.788 79.083 277.628 78.0332 277.628 76.3145V76.3047C277.628 74.5762 276.808 73.5361 275.446 73.5361C274.708 73.5361 274.108 73.8975 273.834 74.4834H273.746V71.5684H272.321V79H273.746V78.165H273.834C274.113 78.7461 274.684 79.083 275.446 79.083ZM274.957 77.9014C274.205 77.9014 273.732 77.3057 273.732 76.3193V76.3096C273.732 75.3232 274.21 74.7178 274.957 74.7178C275.709 74.7178 276.178 75.3232 276.178 76.3047V76.3145C276.178 77.3057 275.714 77.9014 274.957 77.9014Z" fill="black"/>
</g>
<path d="M213 61L250.63 60.8662" stroke="#F63F3F" stroke-width="3" stroke-linecap="round" stroke-linejoin="round"/>
<path d="M245.63 55.8652L250.63 60.8652L245.63 65.8652" stroke="#F63F3F" stroke-width="3" stroke-linecap="round" stroke-linejoin="round"/>
<defs>
<clipPath id="clip0_703_26008">
<rect x="17" y="35" width="294" height="54" rx="6" fill="white"/>
</clipPath>
<clipPath id="clip1_703_26008">
<rect width="42" height="24" fill="white" transform="translate(44.5 43)"/>
</clipPath>
<clipPath id="clip2_703_26008">
<rect width="12" height="12" fill="white" transform="translate(60.5 49)"/>
</clipPath>
</defs>
</svg>
