<svg width="42" height="24" viewBox="0 0 42 24" fill="none" xmlns="http://www.w3.org/2000/svg">
<path d="M11 22.75H32V21.25H11V22.75ZM34.75 20V7.63636H33.25V20H34.75ZM32 4.88636H21.5V6.38636H32V4.88636ZM22.1818 5.32387L21.0499 2.8542L19.6863 3.47918L20.8182 5.94885L22.1818 5.32387ZM18.5499 1.25H11V2.75H18.5499V1.25ZM8.25 4V5.63636H9.75V4H8.25ZM8.25 5.63636V20H9.75V5.63636H8.25ZM21.5 4.88636H9V6.38636H21.5V4.88636ZM21.0499 2.8542C20.6018 1.87671 19.6252 1.25 18.5499 1.25V2.75C19.0387 2.75 19.4826 3.03487 19.6863 3.47918L21.0499 2.8542ZM34.75 7.63636C34.75 6.11758 33.5188 4.88636 32 4.88636V6.38636C32.6904 6.38636 33.25 6.94601 33.25 7.63636H34.75ZM32 22.75C33.5188 22.75 34.75 21.5188 34.75 20H33.25C33.25 20.6904 32.6904 21.25 32 21.25V22.75ZM11 1.25C9.48121 1.25 8.25 2.48122 8.25 4H9.75C9.75 3.30964 10.3096 2.75 11 2.75V1.25ZM11 21.25C10.3096 21.25 9.75 20.6904 9.75 20H8.25C8.25 21.5188 9.48122 22.75 11 22.75V21.25Z" fill="#AAAAAA"/>
</svg>
