<svg width="32" height="32" viewBox="0 0 32 32" fill="none" xmlns="http://www.w3.org/2000/svg">
<path fill-rule="evenodd" clip-rule="evenodd" d="M16 1C16.7531 1 17.3636 1.61052 17.3636 2.36364V5.09091C17.3636 5.84402 16.7531 6.45455 16 6.45455C15.2469 6.45455 14.6364 5.84402 14.6364 5.09091V2.36364C14.6364 1.61052 15.2469 1 16 1ZM16 11.9091C13.7407 11.9091 11.9091 13.7406 11.9091 16C11.9091 18.2593 13.7407 20.0909 16 20.0909C16.7365 20.0909 17.4275 19.8963 18.0244 19.5557C18.0083 19.7016 18 19.8498 18 20C18 20.8397 18.2587 21.6189 18.7008 22.2623C17.8726 22.62 16.9595 22.8182 16 22.8182C12.2344 22.8182 9.18182 19.7656 9.18182 16C9.18182 12.2344 12.2344 9.18179 16 9.18179C19.7656 9.18179 22.8182 12.2344 22.8182 16C22.8182 16 22.8182 16 22.8182 16H22C21.2963 16 20.635 16.1817 20.0606 16.5008C20.0806 16.3367 20.0909 16.1695 20.0909 16C20.0909 13.7406 18.2594 11.9091 16 11.9091ZM17.3636 26.9091C17.3636 26.156 16.7531 25.5454 16 25.5454C15.2469 25.5454 14.6364 26.156 14.6364 26.9091V29.6364C14.6364 30.3895 15.2469 31 16 31C16.7531 31 17.3636 30.3895 17.3636 29.6364V26.9091ZM5.49034 5.49031C6.02288 4.95778 6.88628 4.95778 7.41882 5.49031L9.46427 7.53577C9.9968 8.0683 9.9968 8.93171 9.46427 9.46424C8.93174 9.99677 8.06833 9.99677 7.5358 9.46424L5.49034 7.41878C4.95781 6.88625 4.95781 6.02284 5.49034 5.49031ZM2.36364 14.6364C1.61052 14.6364 1 15.2469 1 16C1 16.7531 1.61052 17.3636 2.36364 17.3636H5.09091C5.84402 17.3636 6.45455 16.7531 6.45455 16C6.45455 15.2469 5.84402 14.6364 5.09091 14.6364H2.36364ZM9.46427 22.5358C9.9968 23.0683 9.9968 23.9317 9.46427 24.4642L7.41882 26.5097C6.88628 27.0422 6.02288 27.0422 5.49034 26.5097C4.95781 25.9771 4.95781 25.1137 5.49034 24.5812L7.5358 22.5358C8.06833 22.0032 8.93174 22.0032 9.46427 22.5358ZM26.5097 7.41878C27.0423 6.88625 27.0423 6.02284 26.5097 5.49031C25.9772 4.95778 25.1138 4.95778 24.5813 5.49031L22.5358 7.53577C22.0033 8.0683 22.0033 8.93171 22.5358 9.46424C23.0683 9.99677 23.9318 9.99677 24.4643 9.46424L26.5097 7.41878Z" fill="white"/>
<path d="M21 20H31" stroke="white" stroke-width="2" stroke-linecap="round" stroke-linejoin="round"/>
<path d="M26 15V25" stroke="white" stroke-width="2" stroke-linecap="round" stroke-linejoin="round"/>
</svg>
