<svg width="24" height="24" viewBox="0 0 24 24" fill="none" xmlns="http://www.w3.org/2000/svg">
<path fill-rule="evenodd" clip-rule="evenodd" d="M11.4435 19.4783L7.1154 21.8562C6.53077 22.1774 5.80768 21.9425 5.50032 21.3316C5.37793 21.0883 5.3357 20.8096 5.38016 20.5387L6.20676 15.5023C6.2733 15.0969 6.14468 14.6833 5.86281 14.3961L2.36128 10.8294C1.88831 10.3476 1.87863 9.55634 2.33966 9.06208C2.52325 8.86526 2.7638 8.73717 3.02408 8.69765L7.86308 7.96285C8.25261 7.9037 8.58934 7.64804 8.76354 7.27918L10.9276 2.69694C11.2199 2.07799 11.937 1.82386 12.5293 2.12933C12.7652 2.25097 12.9561 2.45047 13.0725 2.69694L15.2365 7.27918C15.4107 7.64804 15.7475 7.9037 16.137 7.96285L20.976 8.69765C21.6296 8.7969 22.0825 9.43109 21.9875 10.1141C21.9497 10.3861 21.8271 10.6375 21.6388 10.8294L18.1373 14.3961C17.8554 14.6833 17.7268 15.0969 17.7933 15.5023L18.6199 20.5387C18.7316 21.219 18.2944 21.8651 17.6434 21.9818C17.3841 22.0282 17.1175 21.9841 16.8847 21.8562L12.5566 19.4783C12.2082 19.2869 11.7919 19.2869 11.4435 19.4783Z" fill="black"/>
</svg>
