<svg width="238" height="100" viewBox="0 0 238 100" fill="none" xmlns="http://www.w3.org/2000/svg">
<rect x="85.0688" y="24.8582" width="2.90909" height="2.97296" transform="rotate(90 85.0688 24.8582)" fill="black"/>
<rect x="79.1229" y="19.04" width="2.90909" height="2.97296" transform="rotate(90 79.1229 19.04)" fill="black"/>
<rect x="88.0418" y="27.7673" width="2.90909" height="2.97298" transform="rotate(90 88.0418 27.7673)" fill="black"/>
<rect x="85.0688" y="21.9492" width="2.97298" height="2.90909" fill="black"/>
<rect x="88.785" y="45.2219" width="29.7297" height="2.90909" fill="black"/>
<rect x="85.8121" y="48.1309" width="2.97298" height="2.90909" fill="black"/>
<rect x="118.515" y="48.1309" width="2.97297" height="2.90908" fill="black"/>
<rect x="79.1229" y="27.7673" width="2.97298" height="2.90909" fill="black"/>
<rect x="88.0418" y="19.04" width="2.97297" height="2.90909" fill="black"/>
<rect x="82.0958" y="24.8582" width="2.97296" height="2.90909" fill="black"/>
<rect x="91.0147" y="30.6763" width="2.90909" height="2.97298" transform="rotate(90 91.0147 30.6763)" fill="black"/>
<rect x="79.1229" y="30.6763" width="2.90909" height="2.97296" transform="rotate(90 79.1229 30.6763)" fill="black"/>
<rect x="82.0958" y="21.9492" width="2.90909" height="2.97298" transform="rotate(90 82.0958 21.9492)" fill="black"/>
<rect x="125.204" y="24.8582" width="2.90909" height="2.97298" transform="rotate(90 125.204 24.8582)" fill="black"/>
<rect x="119.258" y="19.04" width="2.90909" height="2.97298" transform="rotate(90 119.258 19.04)" fill="black"/>
<rect x="128.177" y="27.7673" width="2.90909" height="2.97297" transform="rotate(90 128.177 27.7673)" fill="black"/>
<rect x="125.204" y="21.9492" width="2.97297" height="2.90909" fill="black"/>
<rect x="119.258" y="27.7673" width="2.97296" height="2.90909" fill="black"/>
<rect x="128.177" y="19.04" width="2.97297" height="2.90909" fill="black"/>
<rect x="122.231" y="24.8582" width="2.97298" height="2.90909" fill="black"/>
<rect x="131.15" y="30.6765" width="2.90909" height="2.97297" transform="rotate(90 131.15 30.6765)" fill="black"/>
<rect x="119.258" y="30.6763" width="2.90909" height="2.97298" transform="rotate(90 119.258 30.6763)" fill="black"/>
<rect x="122.231" y="21.9492" width="2.90909" height="2.97296" transform="rotate(90 122.231 21.9492)" fill="black"/>
</svg>
