<?xml version="1.0" encoding="UTF-8" standalone="no"?>
<!DOCTYPE svg PUBLIC "-//W3C//DTD SVG 1.1//EN" "http://www.w3.org/Graphics/SVG/1.1/DTD/svg11.dtd">
<svg width="100%" height="100%" viewBox="0 0 315 132" version="1.1" xmlns="http://www.w3.org/2000/svg" xmlns:xlink="http://www.w3.org/1999/xlink" xml:space="preserve" xmlns:serif="http://www.serif.com/" style="fill-rule:evenodd;clip-rule:evenodd;stroke-linejoin:round;stroke-miterlimit:2;">
    <g transform="matrix(-3.82857e-16,1,-1,-3.82857e-16,144.701,-88.1037)">
        <rect x="120.253" y="34.16" width="4.2" height="4.208"/>
    </g>
    <g transform="matrix(-3.82857e-16,1,-1,-3.82857e-16,127.886,-88.0889)">
        <rect x="111.838" y="25.76" width="4.2" height="4.208"/>
    </g>
    <g transform="matrix(-3.82857e-16,1,-1,-3.82857e-16,153.109,-88.1118)">
        <rect x="124.461" y="38.36" width="4.2" height="4.208"/>
    </g>
    <g transform="matrix(1,0,0,1,-9.7118,-2.0109)">
        <rect x="120.253" y="29.96" width="4.208" height="4.2"/>
    </g>
    <g transform="matrix(1,0,0,1,-9.7118,-2.0109)">
        <rect x="125.512" y="63.56" width="42.076" height="4.2"/>
    </g>
    <g transform="matrix(1,0,0,1,-9.7118,-2.0109)">
        <rect x="121.305" y="67.76" width="4.208" height="4.2"/>
    </g>
    <g transform="matrix(1,0,0,1,-9.7118,-2.0109)">
        <rect x="167.588" y="67.76" width="4.208" height="4.2"/>
    </g>
    <g transform="matrix(1,0,0,1,-9.7118,-2.0109)">
        <rect x="111.838" y="38.36" width="4.208" height="4.2"/>
    </g>
    <g transform="matrix(1,0,0,1,-9.7118,-2.0109)">
        <rect x="124.461" y="25.76" width="4.208" height="4.2"/>
    </g>
    <g transform="matrix(1,0,0,1,-9.7118,-2.0109)">
        <rect x="116.045" y="34.16" width="4.208" height="4.2"/>
    </g>
    <g transform="matrix(-3.82857e-16,1,-1,-3.82857e-16,161.516,-88.1188)">
        <rect x="128.668" y="42.56" width="4.2" height="4.208"/>
    </g>
    <g transform="matrix(-3.82857e-16,1,-1,-3.82857e-16,144.686,-71.2888)">
        <rect x="111.838" y="42.56" width="4.2" height="4.208"/>
    </g>
    <g transform="matrix(-3.82857e-16,1,-1,-3.82857e-16,136.293,-88.0959)">
        <rect x="116.045" y="29.96" width="4.2" height="4.208"/>
    </g>
    <g transform="matrix(-3.82857e-16,1,-1,-3.82857e-16,201.503,-144.906)">
        <rect x="177.055" y="34.16" width="4.2" height="4.208"/>
    </g>
    <g transform="matrix(-3.82857e-16,1,-1,-3.82857e-16,184.688,-144.891)">
        <rect x="168.64" y="25.76" width="4.2" height="4.208"/>
    </g>
    <g transform="matrix(-3.82857e-16,1,-1,-3.82857e-16,209.911,-144.914)">
        <rect x="181.263" y="38.36" width="4.2" height="4.208"/>
    </g>
    <g transform="matrix(1,0,0,1,-9.7118,-2.0109)">
        <rect x="177.055" y="29.96" width="4.208" height="4.2"/>
    </g>
    <g transform="matrix(1,0,0,1,-9.7118,-2.0109)">
        <rect x="168.64" y="38.36" width="4.208" height="4.2"/>
    </g>
    <g transform="matrix(1,0,0,1,-9.7118,-2.0109)">
        <rect x="181.263" y="25.76" width="4.208" height="4.2"/>
    </g>
    <g transform="matrix(1,0,0,1,-9.7118,-2.0109)">
        <rect x="172.848" y="34.16" width="4.208" height="4.2"/>
    </g>
    <g transform="matrix(-3.82857e-16,1,-1,-3.82857e-16,218.319,-144.922)">
        <rect x="185.471" y="42.56" width="4.2" height="4.208"/>
    </g>
    <g transform="matrix(-3.82857e-16,1,-1,-3.82857e-16,201.488,-128.091)">
        <rect x="168.64" y="42.56" width="4.2" height="4.208"/>
    </g>
    <g transform="matrix(-3.82857e-16,1,-1,-3.82857e-16,193.096,-144.899)">
        <rect x="172.848" y="29.96" width="4.2" height="4.208"/>
    </g>
</svg>
