<svg width="32" height="32" viewBox="0 0 32 32" fill="none" xmlns="http://www.w3.org/2000/svg">
<path fill-rule="evenodd" clip-rule="evenodd" d="M2.66666 8.00002C2.66666 7.26364 3.26361 6.66669 3.99999 6.66669H28C28.7364 6.66669 29.3333 7.26364 29.3333 8.00002C29.3333 8.7364 28.7364 9.33335 28 9.33335H3.99999C3.26361 9.33335 2.66666 8.7364 2.66666 8.00002Z" fill="white"/>
<path fill-rule="evenodd" clip-rule="evenodd" d="M2.66666 16C2.66666 15.2636 3.26361 14.6667 3.99999 14.6667H28C28.7364 14.6667 29.3333 15.2636 29.3333 16C29.3333 16.7364 28.7364 17.3334 28 17.3334H3.99999C3.26361 17.3334 2.66666 16.7364 2.66666 16Z" fill="white"/>
<path fill-rule="evenodd" clip-rule="evenodd" d="M2.66666 24C2.66666 23.2636 3.26361 22.6667 3.99999 22.6667H28C28.7364 22.6667 29.3333 23.2636 29.3333 24C29.3333 24.7364 28.7364 25.3334 28 25.3334H3.99999C3.26361 25.3334 2.66666 24.7364 2.66666 24Z" fill="white"/>
</svg>
