<svg width="32" height="32" viewBox="0 0 32 32" fill="none" xmlns="http://www.w3.org/2000/svg">
<path fill-rule="evenodd" clip-rule="evenodd" d="M16 3.72727C9.22196 3.72727 3.72727 9.22196 3.72727 16C3.72727 22.778 9.22196 28.2727 16 28.2727C22.778 28.2727 28.2727 22.778 28.2727 16C28.2727 9.22196 22.778 3.72727 16 3.72727ZM1 16C1 7.71573 7.71573 1 16 1C24.2843 1 31 7.71573 31 16C31 24.2843 24.2843 31 16 31C7.71573 31 1 24.2843 1 16Z" fill="white"/>
<path fill-rule="evenodd" clip-rule="evenodd" d="M16 14.6364C16.7532 14.6364 17.3637 15.2469 17.3637 16V21.4546C17.3637 22.2077 16.7532 22.8182 16 22.8182C15.2469 22.8182 14.6364 22.2077 14.6364 21.4546V16C14.6364 15.2469 15.2469 14.6364 16 14.6364Z" fill="white"/>
<path fill-rule="evenodd" clip-rule="evenodd" d="M14.6364 10.5455C14.6364 9.79234 15.2469 9.18182 16.0001 9.18182H16.0137C16.7668 9.18182 17.3773 9.79234 17.3773 10.5455C17.3773 11.2986 16.7668 11.9091 16.0137 11.9091H16.0001C15.2469 11.9091 14.6364 11.2986 14.6364 10.5455Z" fill="white"/>
</svg>
