<svg width="12" height="12" viewBox="0 0 12 12" fill="none" xmlns="http://www.w3.org/2000/svg">
<g clip-path="url(#clip0_266_234)">
<path fill-rule="evenodd" clip-rule="evenodd" d="M3.21247 8.66818L3.59466 8.75661C3.9593 8.84097 4.31424 8.60959 4.38746 8.2398C4.46067 7.87001 4.22442 7.50185 3.85978 7.41749L1.98086 6.98278C1.64444 6.90495 1.31103 7.0961 1.20674 7.42659L0.69219 9.05726C0.579159 9.41547 0.774765 9.80693 1.12909 9.93161C1.48341 10.0563 1.86228 9.86699 1.97531 9.50877L2.03172 9.33001C2.81927 10.4003 3.87579 11.0567 4.73343 11.3585C5.79966 11.7337 7.36952 11.8472 8.88376 11.0905C9.44834 10.8084 9.92215 10.4422 10.312 10.0382C10.1191 9.95375 9.93641 9.83711 9.77174 9.68793L9.21606 9.18455C8.94694 9.44057 8.631 9.67157 8.26589 9.85401C7.12071 10.4262 5.92839 10.3377 5.14275 10.0613C4.54078 9.84945 3.79443 9.39303 3.21247 8.66818ZM7.58408 0.497055C8.10129 0.679055 8.69083 0.989993 9.25008 1.44291C9.16335 1.5113 9.08113 1.58782 9.0045 1.67242L8.32232 2.42547C7.9317 2.12746 7.52833 1.91866 7.17476 1.79425C6.38912 1.51779 5.1968 1.4293 4.05162 2.00152C2.91109 2.57142 2.25034 3.6152 1.99784 4.41539C1.88481 4.7736 1.50595 4.96291 1.15162 4.83823C0.797301 4.71355 0.601696 4.32209 0.714727 3.96388C1.05299 2.89189 1.91487 1.52395 3.43375 0.764996C4.94799 0.00836259 6.51785 0.121861 7.58408 0.497055ZM6.19996 4.17021C5.93221 3.90251 5.93221 3.46848 6.19996 3.20077C6.46771 2.93307 6.90182 2.93307 7.16957 3.20077L8.62547 4.65642L10.0787 3.20342C10.3465 2.93571 10.7806 2.93571 11.0483 3.20342C11.3161 3.47112 11.3161 3.90515 11.0483 4.17286L9.59508 5.62587L11.048 7.07854C11.3158 7.34624 11.3158 7.78028 11.048 8.04798C10.7803 8.31568 10.3461 8.31568 10.0784 8.04798L8.62547 6.59531L7.1699 8.05062C6.90215 8.31833 6.46804 8.31833 6.20029 8.05063C5.93254 7.78292 5.93254 7.34889 6.20029 7.08118L7.65586 5.62587L6.19996 4.17021Z" fill="white"/>
</g>
<defs>
<clipPath id="clip0_266_234">
<rect width="12" height="12" fill="white"/>
</clipPath>
</defs>
</svg>
