<svg width="25" height="24" viewBox="0 0 25 24" fill="none" xmlns="http://www.w3.org/2000/svg">
<path fill-rule="evenodd" clip-rule="evenodd" d="M19.4095 1.33325C18.5923 1.33325 17.8086 1.63461 17.2307 2.17106V2.17201L15.5049 3.77445L5.32886 13.2231C5.19731 13.3452 5.10394 13.4982 5.05869 13.6657L4.03143 17.481C3.98831 17.6409 3.99053 17.8083 4.03786 17.9672C4.0852 18.126 4.17604 18.2707 4.30153 18.3872C4.42702 18.5037 4.58288 18.5881 4.75392 18.632C4.92496 18.676 5.10535 18.678 5.2775 18.638L9.38654 17.6842C9.56695 17.6422 9.73169 17.5555 9.86318 17.4333L19.9807 8.03998L21.765 6.38127C22.3428 5.84466 22.6673 5.11696 22.6673 4.35819C22.6673 3.59943 22.3428 2.87173 21.765 2.33512L21.5883 2.17106C21.0104 1.63461 20.2267 1.33325 19.4095 1.33325ZM19.4095 3.24051C19.6819 3.24051 19.9431 3.34096 20.1358 3.51978L20.3125 3.68384C20.505 3.86271 20.6132 4.10527 20.6132 4.35819C20.6132 4.61112 20.505 4.85368 20.3125 5.03255L19.2677 6.0026L17.6704 4.46025L18.6832 3.51978C18.8759 3.34096 19.1371 3.24051 19.4095 3.24051ZM16.2168 5.80993L17.8142 7.35132H17.8152L8.61198 15.8967L6.43933 16.4013L6.98275 14.3849L16.2168 5.80993ZM2.33398 21.3333C1.7817 21.3333 1.33398 21.781 1.33398 22.3333C1.33398 22.8855 1.7817 23.3333 2.33398 23.3333H13.6673C14.2196 23.3333 14.6673 22.8855 14.6673 22.3333C14.6673 21.781 14.2196 21.3333 13.6673 21.3333H2.33398Z" fill="black"/>
</svg>
