<svg width="18" height="18" viewBox="0 0 18 18" fill="none" xmlns="http://www.w3.org/2000/svg">
<g clip-path="url(#clip0_771_739)">
<path d="M2.69333 2.58333L3.43583 1.66667H14.4358L15.2975 2.58333M9 14.0417L3.95833 9H7.16667V7.16667H10.8333V9H14.0417L9 14.0417ZM16.8283 2.79417L15.5542 1.25417C15.3067 0.9425 14.9308 0.75 14.5 0.75H3.5C3.06917 0.75 2.69333 0.9425 2.43667 1.25417L1.17167 2.79417C0.905833 3.10583 0.75 3.5 0.75 3.95833V15.4167C0.75 15.9029 0.943154 16.3692 1.28697 16.713C1.63079 17.0568 2.0971 17.25 2.58333 17.25H15.4167C15.9029 17.25 16.3692 17.0568 16.713 16.713C17.0568 16.3692 17.25 15.9029 17.25 15.4167V3.95833C17.25 3.5 17.0942 3.10583 16.8283 2.79417Z" fill="black"/>
</g>
<defs>
<clipPath id="clip0_771_739">
<rect width="18" height="18" fill="white"/>
</clipPath>
</defs>
</svg>
