<svg width="24" height="24" viewBox="0 0 24 24" fill="none" xmlns="http://www.w3.org/2000/svg">
<g clip-path="url(#clip0_723_90452)">
<path fill-rule="evenodd" clip-rule="evenodd" d="M14.8599 2.77695L11.9621 2.0005L11.7033 2.96642L14.6011 3.74288L14.8599 2.77695ZM10.0302 1.48286L9.77143 2.44878L5.90773 1.41351C5.37426 1.27057 4.82592 1.58715 4.68298 2.12062C4.54004 2.65408 4.85662 3.20242 5.39009 3.34536L11.1856 4.89827L14.0834 5.67473L20.8449 7.48646C21.3784 7.62941 21.9267 7.31282 22.0696 6.77936C22.2126 6.24589 21.896 5.69755 21.3625 5.55461L16.5329 4.26052L16.7917 3.29459C17.0776 2.22766 16.4444 1.13099 15.3775 0.845102L12.4797 0.0686447C11.4128 -0.217239 10.3161 0.415926 10.0302 1.48286ZM10.6548 15C10.92 15 11.1744 15.0702 11.3619 15.1953C11.5495 15.3203 11.6548 15.4899 11.6548 15.6667V19.3333C11.6548 19.5101 11.5495 19.6797 11.3619 19.8047C11.1744 19.9298 10.92 20 10.6548 20C10.3896 20 10.1353 19.9298 9.94773 19.8047C9.76019 19.6797 9.65483 19.5101 9.65483 19.3333V15.6667C9.65483 15.4899 9.76019 15.3203 9.94773 15.1953C10.1353 15.0702 10.3896 15 10.6548 15ZM14.6548 15C14.92 15 15.1744 15.0702 15.3619 15.1953C15.5495 15.3203 15.6548 15.4899 15.6548 15.6667V19.3333C15.6548 19.5101 15.5495 19.6797 15.3619 19.8047C15.1744 19.9298 14.92 20 14.6548 20C14.3896 20 14.1353 19.9298 13.9477 19.8047C13.7602 19.6797 13.6548 19.5101 13.6548 19.3333V15.6667C13.6548 15.4899 13.7602 15.3203 13.9477 15.1953C14.1353 15.0702 14.3896 15 14.6548 15ZM4.24936 7.1329C3.92023 6.80376 3.39253 6.79783 3.07071 7.11964L1.23753 8.95283C0.915719 9.27464 0.921651 9.80234 1.25078 10.1315L3.12567 12.0064C3.45481 12.3355 3.9825 12.3415 4.30432 12.0197C4.62614 11.6978 4.62021 11.1701 4.29107 10.841L3.82128 10.3712L12.5707 10.3557C13.0308 10.3532 13.3933 9.97791 13.3804 9.5176C13.3675 9.05728 12.984 8.68622 12.5238 8.68881L3.87043 8.70373L4.26262 8.31154C4.58443 7.98973 4.5785 7.46203 4.24936 7.1329ZM7.65483 15C7.65483 14.4477 7.20712 14 6.65483 14C6.10255 14 5.65483 14.4477 5.65483 15V20C5.65483 21.6569 6.99798 23 8.65483 23H16.6548C18.3117 23 19.6548 21.6569 19.6548 20V15C19.6548 14.4477 19.2071 14 18.6548 14C18.1025 14 17.6548 14.4477 17.6548 15V20C17.6548 20.5523 17.2071 21 16.6548 21H8.65483C8.10255 21 7.65483 20.5523 7.65483 20V15Z" fill="black"/>
</g>
<defs>
<clipPath id="clip0_723_90452">
<rect width="24" height="24" fill="white"/>
</clipPath>
</defs>
</svg>
