<svg width="85" height="48" viewBox="0 0 85 48" fill="none" xmlns="http://www.w3.org/2000/svg">
<g clip-path="url(#clip0_3673_169110)">
<path fill-rule="evenodd" clip-rule="evenodd" d="M46.8434 25.0003V18.7094C46.8434 18.1571 47.2911 17.7094 47.8434 17.7094C48.3957 17.7094 48.8434 18.1571 48.8434 18.7094V25.0016L50.5359 23.3241C50.9281 22.9353 51.5613 22.9382 51.9501 23.3304C52.3389 23.7227 52.336 24.3559 51.9438 24.7446L48.548 28.1103C48.1582 28.4966 47.5299 28.4966 47.1401 28.1103L43.7443 24.7446C43.352 24.3559 43.3492 23.7227 43.738 23.3304C44.1268 22.9382 44.7599 22.9353 45.1522 23.3241L46.8434 25.0003Z" fill="#616161"/>
<path fill-rule="evenodd" clip-rule="evenodd" d="M35.4046 21.1048L33.7122 22.7822C33.3199 23.171 32.6868 23.1682 32.298 22.7759C31.9092 22.3836 31.912 21.7505 32.3043 21.3617L35.7001 17.9961C36.0899 17.6097 36.7182 17.6097 37.108 17.9961L40.5038 21.3617C40.896 21.7505 40.8988 22.3836 40.5101 22.7759C40.1213 23.1682 39.4881 23.171 39.0959 22.7822L37.4046 21.106V27.397C37.4046 27.9493 36.9569 28.397 36.4046 28.397C35.8524 28.397 35.4046 27.9493 35.4046 27.397V21.1048Z" fill="#616161"/>
<path fill-rule="evenodd" clip-rule="evenodd" d="M25.4799 38.5218L25.1898 38.5083C20.1296 38.2735 16.127 34.1367 16.127 29.1032C16.127 25.0096 18.7719 21.5086 22.4893 20.2168L23.9549 19.7075L23.8258 18.1613C23.8129 18.0069 23.8063 17.8503 23.8063 17.6917C23.8063 14.6099 26.3319 12.0813 29.4849 12.0813C30.3786 12.0813 31.2184 12.2838 31.9648 12.6426L33.5869 13.4223L34.5327 11.8912C36.8797 8.09238 41.1068 5.55627 45.9377 5.55627C53.2009 5.55627 59.0848 11.2854 59.2894 18.3924L59.329 19.7684L60.6284 20.2228C64.3368 21.5194 66.9735 25.016 66.9735 29.1032C66.9735 29.5308 66.9446 29.952 66.8886 30.3649L68.3979 32.6768C68.7714 31.5526 68.9735 30.3513 68.9735 29.1032C68.9735 24.1304 65.7654 19.9002 61.2886 18.3349C61.0524 10.1332 54.27 3.55627 45.9377 3.55627C40.3905 3.55627 35.5303 6.47127 32.8312 10.84C31.8198 10.3539 30.6845 10.0813 29.4849 10.0813C25.2442 10.0813 21.8063 13.4886 21.8063 17.6917C21.8063 17.9059 21.8153 18.1179 21.8328 18.3276C17.345 19.8871 14.127 24.1227 14.127 29.1032C14.127 35.2259 18.9903 40.2228 25.0971 40.5062V40.5218H27.0971H44.3504L45.6561 38.5218H25.4799Z" fill="#616161"/>
<path d="M56.4534 27.4448C57.6438 25.6932 60.2254 25.6932 61.4159 27.4448L70.7717 41.2113C72.1253 43.2031 70.6987 45.8976 68.2905 45.8976H49.5788C47.1706 45.8976 45.744 43.2031 47.0976 41.2113L56.4534 27.4448Z" fill="#F63F3F"/>
<ellipse cx="58.9341" cy="40.9838" rx="1.06199" ry="1.05256" fill="white"/>
<rect x="57.8721" y="30.8126" width="2.12397" height="7.01706" rx="1.06199" fill="white"/>
</g>
<defs>
<clipPath id="clip0_3673_169110">
<rect width="84" height="48" fill="white" transform="translate(0.5)"/>
</clipPath>
</defs>
</svg>
