<svg width="18" height="18" viewBox="0 0 18 18" fill="none" xmlns="http://www.w3.org/2000/svg">
<g clip-path="url(#clip0_547_36479)">
<path fill-rule="evenodd" clip-rule="evenodd" d="M5.54216 12.294L5.97341 12.3938C6.38486 12.489 6.78537 12.2279 6.86798 11.8106C6.95059 11.3934 6.68402 10.978 6.27257 10.8828L4.15245 10.3923C3.77284 10.3044 3.39662 10.5201 3.27895 10.893L2.69834 12.733C2.5708 13.1372 2.79152 13.579 3.19133 13.7196C3.59114 13.8603 4.01864 13.6467 4.14618 13.2425L4.20983 13.0408C5.09848 14.2485 6.29063 14.9891 7.25837 15.3297C8.46147 15.753 10.2329 15.8811 11.9415 15.0273C13.6554 14.1709 14.6279 12.6274 15.0096 11.4178C15.1371 11.0136 14.9164 10.5719 14.5166 10.4312C14.1168 10.2905 13.6893 10.5041 13.5617 10.9083C13.2768 11.8112 12.5312 12.989 11.2443 13.6321C9.95212 14.2777 8.60673 14.1779 7.72024 13.8659C7.04099 13.6269 6.19883 13.1119 5.54216 12.294ZM11.4608 7.52083C11.0493 7.42564 10.7827 7.01022 10.8654 6.59296C10.948 6.1757 11.3485 5.91461 11.7599 6.0098L12.1912 6.10958C11.5345 5.29168 10.6923 4.77667 10.0131 4.53765C9.12661 4.22571 7.78122 4.12585 6.48904 4.77153C5.20209 5.41459 4.45652 6.59237 4.17161 7.49528C4.04407 7.89947 3.61657 8.11309 3.21676 7.9724C2.81695 7.83171 2.59623 7.39 2.72378 6.9858C3.10546 5.77621 4.07799 4.23266 5.79185 3.37627C7.50047 2.52251 9.27187 2.65058 10.475 3.07393C11.4427 3.41447 12.6349 4.15505 13.5235 5.36279L13.5872 5.16108C13.7147 4.75688 14.1422 4.54327 14.542 4.68396C14.9418 4.82465 15.1625 5.26636 15.035 5.67055L14.4544 7.51056C14.3367 7.88348 13.9605 8.09917 13.5809 8.01134L11.4608 7.52083Z" fill="#589DFF"/>
</g>
<defs>
<clipPath id="clip0_547_36479">
<rect width="18" height="18" fill="white"/>
</clipPath>
</defs>
</svg>
