<svg width="14" height="14" viewBox="0 0 14 14" fill="none" xmlns="http://www.w3.org/2000/svg">
<g clip-path="url(#clip0_325_8626)">
<path fill-rule="evenodd" clip-rule="evenodd" d="M3.74902 10.1129L4.19492 10.216C4.62033 10.3145 5.03443 10.0445 5.11985 9.6131C5.20526 9.18168 4.92964 8.75216 4.50422 8.65374L2.31215 8.14659C1.91966 8.05578 1.53068 8.27878 1.40901 8.66436L0.808702 10.5668C0.676833 10.9847 0.90504 11.4414 1.31842 11.5869C1.73179 11.7324 2.1738 11.5115 2.30567 11.0936L2.37148 10.885C3.29029 12.1337 4.5229 12.8995 5.52348 13.2516C6.76741 13.6893 8.59892 13.8217 10.3655 12.939C12.1376 12.0535 13.1431 10.4576 13.5377 9.20693C13.6696 8.78902 13.4414 8.33231 13.028 8.18685C12.6146 8.04139 12.1726 8.26225 12.0408 8.68016C11.7462 9.61372 10.9753 10.8315 9.64469 11.4963C8.30865 12.1639 6.9176 12.0607 6.00103 11.7382C5.29873 11.491 4.42798 10.9585 3.74902 10.1129ZM9.8685 5.17772C9.44308 5.07929 9.16746 4.64977 9.25288 4.21835C9.33829 3.78693 9.75239 3.51699 10.1778 3.61541L10.6237 3.71857C9.94474 2.87291 9.07399 2.34043 8.3717 2.0933C7.45513 1.77077 6.06408 1.66752 4.72804 2.33511C3.39742 3 2.62654 4.21774 2.33196 5.1513C2.20009 5.56921 1.75809 5.79007 1.34471 5.64461C0.931332 5.49915 0.703125 5.04244 0.834995 4.62453C1.22963 3.37388 2.23516 1.77795 4.00719 0.892502C5.7738 0.00976324 7.60531 0.142178 8.84924 0.579905C9.84982 0.931998 11.0824 1.69772 12.0012 2.94644L12.067 2.73788C12.1989 2.31997 12.6409 2.0991 13.0543 2.24457C13.4677 2.39003 13.6959 2.84673 13.564 3.26465L12.9637 5.1671C12.842 5.55267 12.4531 5.77568 12.0606 5.68487L9.8685 5.17772Z" fill="#589DFF"/>
</g>
<defs>
<clipPath id="clip0_325_8626">
<rect width="14" height="14" fill="white"/>
</clipPath>
</defs>
</svg>
