<svg width="28" height="28" viewBox="0 0 28 28" fill="none" xmlns="http://www.w3.org/2000/svg">
<path d="M12 26H10H8H6V28H8H10H12H14V26H12Z" fill="white"/>
<path d="M16 24H14V26H16V24Z" fill="white"/>
<path d="M6 24H4V26H6V24Z" fill="white"/>
<path d="M18 22H16V24H18V22Z" fill="white"/>
<path d="M8 22V24H10H12V22H10H8Z" fill="white"/>
<path d="M4 22H2V24H4V22Z" fill="white"/>
<path d="M14 20H12V22H14V20Z" fill="white"/>
<path d="M8 20H6V22H8V20Z" fill="white"/>
<path d="M2 20V18V16V14H0V16V18V20V22H2V20Z" fill="white"/>
<path d="M16 16H14V18V20H16V18V16Z" fill="white"/>
<path d="M6 16H4V18V20H6V18V16Z" fill="white"/>
<path d="M18 16V18V20V22H20V20V18V16V14H18V16Z" fill="white"/>
<path d="M14 14H12V16H14V14Z" fill="white"/>
<path d="M8 14H6V16H8V14Z" fill="white"/>
<path d="M22 12H20V14H22V12Z" fill="white"/>
<path d="M18 12H16V14H18V12Z" fill="white"/>
<path d="M12 14V12H10H8V14H10H12Z" fill="white"/>
<path d="M4 12H2V14H4V12Z" fill="white"/>
<path d="M24 10H22V12H24V10Z" fill="white"/>
<path d="M20 10H18V12H20V10Z" fill="white"/>
<path d="M16 10H14V12H16V10Z" fill="white"/>
<path d="M6 10H4V12H6V10Z" fill="white"/>
<path d="M22 8H20V10H22V8Z" fill="white"/>
<path d="M18 8H16V10H18V8Z" fill="white"/>
<path d="M10 10H12H14V8H12H10H8H6V10H8H10Z" fill="white"/>
<path d="M20 6H18V8H20V6Z" fill="white"/>
<path d="M16 6H14V8H16V6Z" fill="white"/>
<path d="M18 4H16V6H18V4Z" fill="white"/>
<path d="M26 0H24H22H20V2H18V4H20V6H22V4H24V6H22V8H24V10H26V8H28V6V4V2H26V0Z" fill="white"/>
</svg>
