<svg width="43" height="24" viewBox="0 0 43 24" fill="none" xmlns="http://www.w3.org/2000/svg">
<g clip-path="url(#clip0_1306_90659)">
<path d="M7.47885 4.21049C8.08029 3.29869 9.09953 2.75 10.1918 2.75H34.9303C36.0326 2.75 37.0597 3.30868 37.6586 4.23401L41.2283 9.74894C41.5688 10.275 41.75 10.8883 41.75 11.5149V18C41.75 19.7949 40.2949 21.25 38.5 21.25H9.84742C8.91312 21.25 8.02401 20.8479 7.40698 20.1463L3.0807 15.2272C2.11287 14.1268 2.00125 12.5147 2.80818 11.2914L7.47885 4.21049Z" fill="#F63F3F" stroke="#F63F3F" stroke-width="1.5"/>
<path d="M23.0533 16.8284C23.2542 16.6274 23.3671 16.3549 23.3671 16.0708C23.3671 15.7866 23.2542 15.5141 23.0533 15.3132C22.8524 15.1123 22.5799 14.9994 22.2957 14.9994C22.0115 14.9994 21.739 15.1123 21.5381 15.3132C21.3372 15.5141 21.2243 15.7866 21.2243 16.0708C21.2243 16.3549 21.3372 16.6274 21.5381 16.8284C21.739 17.0293 22.0115 17.1422 22.2957 17.1422C22.5799 17.1422 22.8524 17.0293 23.0533 16.8284Z" fill="white"/>
<path d="M22.2957 8.57114C21.5097 8.57114 20.9243 8.9654 20.6971 9.39738C20.6465 9.4999 20.576 9.59126 20.4896 9.6661C20.4031 9.74094 20.3026 9.79773 20.1939 9.83314C20.0852 9.86854 19.9705 9.88185 19.8566 9.87228C19.7427 9.8627 19.6319 9.83043 19.5306 9.77738C19.4293 9.72432 19.3397 9.65154 19.267 9.56333C19.1943 9.47512 19.14 9.37325 19.1072 9.26373C19.0745 9.15421 19.064 9.03924 19.0763 8.9256C19.0887 8.81195 19.1236 8.70192 19.1791 8.60199C19.7457 7.52119 20.9731 6.85693 22.2957 6.85693C24.0357 6.85693 25.7243 8.0603 25.7243 9.85679C25.7243 11.3541 24.5517 12.4401 23.1528 12.7598V12.8566C23.1528 13.084 23.0625 13.302 22.9018 13.4627C22.741 13.6234 22.523 13.7137 22.2957 13.7137C22.0684 13.7137 21.8504 13.6234 21.6896 13.4627C21.5289 13.302 21.4386 13.084 21.4386 12.8566V11.9995C21.4386 11.7722 21.5289 11.5542 21.6896 11.3935C21.8504 11.2327 22.0684 11.1424 22.2957 11.1424C23.3954 11.1424 24.01 10.4268 24.01 9.85679C24.01 9.28682 23.3954 8.57114 22.2957 8.57114Z" fill="white"/>
</g>
<defs>
<clipPath id="clip0_1306_90659">
<rect width="42" height="24" fill="white" transform="translate(0.5)"/>
</clipPath>
</defs>
</svg>
