<svg width="155" height="92" viewBox="0 0 155 92" fill="none" xmlns="http://www.w3.org/2000/svg">
<path fill-rule="evenodd" clip-rule="evenodd" d="M57.8469 23.8301H109.596C111.192 23.8301 112.691 24.5915 113.633 25.8795L120.797 35.6803C121.423 36.5367 121.76 37.57 121.76 38.6308V49.2829C121.76 52.0443 119.521 54.2829 116.76 54.2829H68.4476C68.2663 55.3085 68.0155 56.3101 67.7002 57.2829H116.76C121.178 57.2829 124.76 53.7012 124.76 49.2829V38.6308C124.76 36.9335 124.22 35.2802 123.219 33.91L116.055 24.1092C114.548 22.0483 112.149 20.8301 109.596 20.8301H57.8469C55.3196 20.8301 52.9409 22.0243 51.4312 24.0512L48.5642 27.9001C49.6896 28.0189 50.7904 28.2199 51.8604 28.4969L53.8371 25.8433C54.7807 24.5765 56.2673 23.8301 57.8469 23.8301Z" fill="#589DFF"/>
<g clip-path="url(#clip0_332_7335)">
<path fill-rule="evenodd" clip-rule="evenodd" d="M89.7204 44.0406L89.6975 44.0789L89.635 44.1681L89.5632 44.252L84.1815 49.9596C83.5329 50.6474 82.444 50.2114 82.3505 49.2821L82.3441 49.1524L82.344 41.252L78.7111 44.3362C78.2469 44.7301 77.5695 44.6503 77.1982 44.158C76.8554 43.7035 76.8932 43.0565 77.2661 42.6499L77.3663 42.5535L81.6971 38.8788L77.3663 35.2042C76.9021 34.8103 76.8268 34.092 77.1982 33.5997C77.541 33.1453 78.1445 33.0423 78.6004 33.3389L78.7111 33.4214L82.344 36.5045L82.3441 28.6052C82.3441 27.6325 83.4048 27.1242 84.0905 27.7112L84.1815 27.7981L89.5632 33.5056C89.6142 33.5597 89.659 33.6177 89.6975 33.6787L89.7274 33.7289L89.7755 33.8244L89.8291 33.9698C89.9416 34.3607 89.8567 34.7921 89.5851 35.0963L89.4745 35.2042L85.1425 38.8788L89.4745 42.5535C89.7608 42.7964 89.897 43.1592 89.8765 43.5154C89.8696 43.6268 89.8491 43.7322 89.8143 43.8339L89.7755 43.9332L89.7204 44.0406ZM84.4962 41.2529V46.3942L87.1892 43.5382L84.4962 41.2529ZM84.4962 36.5035V31.3621L87.1892 34.2182L84.4962 36.5035Z" fill="#589DFF"/>
</g>
<path d="M49.4172 65.0471C39.9352 65.0471 32.2599 57.3875 32.2599 47.9527H28.2599C28.2599 59.609 37.7385 69.0471 49.4172 69.0471V65.0471ZM32.2599 47.9527C32.2599 38.518 39.9352 30.8584 49.4172 30.8584V26.8584C37.7385 26.8584 28.2599 36.2965 28.2599 47.9527H32.2599ZM49.4172 30.8584C58.8991 30.8584 66.5745 38.518 66.5745 47.9527H70.5745C70.5745 36.2965 61.0958 26.8584 49.4172 26.8584V30.8584ZM66.5745 47.9527C66.5745 57.3875 58.8991 65.0471 49.4172 65.0471V69.0471C61.0958 69.0471 70.5745 59.609 70.5745 47.9527H66.5745Z" fill="#C1C1C1"/>
<path d="M37.1142 63.0391C37.8965 62.2593 37.8986 60.993 37.1188 60.2107C36.339 59.4283 35.0727 59.4263 34.2904 60.206L37.1142 63.0391ZM18.6162 75.8287C17.8339 76.6084 17.8318 77.8747 18.6116 78.6571C19.3913 79.4394 20.6577 79.4415 21.44 78.6617L18.6162 75.8287ZM34.2904 60.206L18.6162 75.8287L21.44 78.6617L37.1142 63.0391L34.2904 60.206Z" fill="#C1C1C1"/>
<path d="M55.0512 44.4549C55.6379 43.8701 55.6379 42.9219 55.0512 42.3371C54.4644 41.7523 53.5131 41.7523 52.9264 42.3371L55.0512 44.4549ZM44.2193 51.0155C43.6326 51.6003 43.6326 52.5485 44.2193 53.1333C44.8061 53.7182 45.7574 53.7182 46.3441 53.1333L44.2193 51.0155ZM52.9264 42.3371L44.2193 51.0155L46.3441 53.1333L55.0512 44.4549L52.9264 42.3371Z" fill="#F63F3F"/>
<path d="M52.9255 53.1341C53.5123 53.7189 54.4636 53.7189 55.0503 53.1341C55.6371 52.5493 55.6371 51.6011 55.0503 51.0163L52.9255 53.1341ZM46.3433 42.3378C45.7565 41.753 44.8052 41.753 44.2185 42.3378C43.6317 42.9227 43.6317 43.8708 44.2185 44.4557L46.3433 42.3378ZM55.0503 51.0163L46.3433 42.3378L44.2185 44.4557L52.9255 53.1341L55.0503 51.0163Z" fill="#F63F3F"/>
<defs>
<clipPath id="clip0_332_7335">
<rect width="21.6113" height="23.1973" fill="white" transform="translate(73.2251 27.4614)"/>
</clipPath>
</defs>
</svg>
