<svg width="347" height="124" viewBox="0 0 347 124" fill="none" xmlns="http://www.w3.org/2000/svg">
<g clip-path="url(#clip0_525_39550)">
<rect width="347" height="124" rx="12" fill="#171717"/>
<path d="M78 36C78 21.6406 89.6406 10 104 10H234C248.359 10 260 21.6406 260 36V136C260 150.359 248.359 162 234 162H104C89.6406 162 78 150.359 78 136V36Z" fill="black"/>
<path fill-rule="evenodd" clip-rule="evenodd" d="M134.233 17H106C94.9543 17 86 25.9543 86 37V135C86 146.046 94.9543 155 106 155H232C243.046 155 252 146.046 252 135V37C252 25.9543 243.046 17 232 17H203.767L203.344 18.8152C202.5 22.4372 199.272 25 195.553 25H142.447C138.728 25 135.5 22.4372 134.656 18.8152L134.233 17Z" fill="#242424"/>
<rect x="105.854" y="56.291" width="127.145" height="60.7091" rx="6" fill="#303030"/>
<line x1="169.75" y1="117" x2="169.75" y2="74.6182" stroke="#434343" stroke-width="0.5"/>
<rect x="170" y="117" width="42.3818" height="0" transform="rotate(-90 170 117)" stroke="#434343"/>
<line x1="105.854" y1="74.3682" x2="233" y2="74.3682" stroke="#434343" stroke-width="0.5"/>
<g clip-path="url(#clip1_525_39550)">
<g clip-path="url(#clip2_525_39550)">
<path fill-rule="evenodd" clip-rule="evenodd" d="M224.595 68.0284C224.707 68.1448 224.889 68.1448 225.001 68.0284L226.723 66.2386C226.835 66.1221 226.835 65.9332 226.723 65.8167L225.001 64.027C224.889 63.9105 224.707 63.9105 224.595 64.027C224.482 64.1434 224.482 64.3323 224.595 64.4488L226.114 66.0277L224.595 67.6065C224.482 67.723 224.482 67.9119 224.595 68.0284Z" fill="#C1C1C1"/>
</g>
</g>
<path d="M122.922 68.1641H123.469V66.6895H124.983V66.228H123.469V65.1123H125.122V64.6411H122.922V68.1641ZM125.533 68.1641H127.73V67.6929H126.08V64.6411H125.533V68.1641ZM128.123 68.1641H128.67V64.6411H128.123V68.1641ZM129.254 68.1641H129.801V66.9604H130.626C131.317 66.9604 131.795 66.4893 131.795 65.8008V65.7959C131.795 65.105 131.317 64.6411 130.626 64.6411H129.254V68.1641ZM130.489 65.1025C130.963 65.1025 131.239 65.3589 131.239 65.7983V65.8032C131.239 66.2451 130.963 66.5015 130.489 66.5015H129.801V65.1025H130.489ZM132.201 68.1641H132.748V66.9604H133.573C134.264 66.9604 134.743 66.4893 134.743 65.8008V65.7959C134.743 65.105 134.264 64.6411 133.573 64.6411H132.201V68.1641ZM133.436 65.1025C133.91 65.1025 134.186 65.3589 134.186 65.7983V65.8032C134.186 66.2451 133.91 66.5015 133.436 66.5015H132.748V65.1025H133.436ZM135.148 68.1641H137.384V67.6929H135.695V66.5967H137.294V66.1426H135.695V65.1123H137.384V64.6411H135.148V68.1641ZM137.875 68.1641H138.422V66.8091H139.194L139.912 68.1641H140.544L139.753 66.7236C140.183 66.5796 140.436 66.1938 140.436 65.7202V65.7153C140.436 65.061 139.987 64.6411 139.265 64.6411H137.875V68.1641ZM138.422 66.3647V65.1001H139.194C139.616 65.1001 139.875 65.3394 139.875 65.73V65.7349C139.875 66.1353 139.631 66.3647 139.211 66.3647H138.422Z" fill="white"/>
<g clip-path="url(#clip3_525_39550)">
<rect x="110.437" y="60.873" width="9.16364" height="9.16364" rx="2" fill="#FE9111"/>
<path d="M117.102 69.9569C117.102 69.836 117.102 69.6703 117.102 69.5494H116.981C116.981 69.4285 116.981 69.2627 116.981 69.1418H116.859C116.859 68.9245 116.859 68.68 116.859 68.4626H116.981C116.981 68.3947 116.981 68.2589 116.981 68.1909C117.133 68.1909 117.315 68.1909 117.468 68.1909V68.0551C117.576 68.0551 117.725 68.0551 117.833 68.0551V67.9193C117.942 67.9193 118.09 67.9193 118.199 67.9193V67.7834C118.307 67.7834 118.456 67.7834 118.564 67.7834V67.6476C118.625 67.6476 118.747 67.6476 118.807 67.6476V67.5117H118.929V67.3759H119.051V67.24H119.173V67.1042H119.295C119.295 66.8868 119.295 66.6423 119.295 66.425H119.173V66.2891C118.485 66.2891 117.79 66.2891 117.102 66.2891V66.1533H117.224V66.0174H117.346V65.8816H117.468V65.7458H117.59V65.6099H117.711V65.4741H117.833V65.3382H117.955V65.2024H118.077V65.0665H118.199V64.9307H118.32V64.7949H118.442V64.659H118.564V64.5232H118.686V64.3873H118.807V64.2515H118.929V64.1156H119.051C119.051 63.9458 119.051 63.7421 119.051 63.5723H118.929V63.4364C118.821 63.4364 118.672 63.4364 118.564 63.4364V63.3006C118.202 63.3006 117.829 63.3006 117.468 63.3006V63.4364C117.407 63.4364 117.285 63.4364 117.224 63.4364V63.5723C117.163 63.5723 117.041 63.5723 116.981 63.5723V63.7081C116.92 63.7081 116.798 63.7081 116.737 63.7081V63.5723H116.615C116.615 63.5043 116.615 63.3685 116.615 63.3006H116.493C116.493 63.2327 116.493 63.0968 116.493 63.0289H116.372V62.893H116.25V62.7572H116.128V62.6214H116.006V62.4855C115.945 62.4855 115.824 62.4855 115.763 62.4855V62.3497C115.702 62.3497 115.58 62.3497 115.519 62.3497V62.2138C115.411 62.2138 115.262 62.2138 115.154 62.2138V62.078C114.959 62.078 114.74 62.078 114.545 62.078V61.9421C113.938 61.9421 113.324 61.9421 112.718 61.9421V62.078C112.565 62.078 112.383 62.078 112.231 62.078V62.2138C112.122 62.2138 111.974 62.2138 111.865 62.2138V62.3497H111.743V62.4855C111.682 62.4855 111.561 62.4855 111.5 62.4855V62.6214C111.439 62.6214 111.317 62.6214 111.256 62.6214V62.7572H111.134V62.893H111.013V63.0289H110.891V63.1647H110.769V63.3006H110.647C110.647 63.3685 110.647 63.5043 110.647 63.5723H110.525C110.525 63.6402 110.525 63.776 110.525 63.8439H110.404C110.404 63.9119 110.404 64.0477 110.404 64.1156H110.282C110.282 64.1836 110.282 64.3194 110.282 64.3873H110.16C110.16 64.4552 110.16 64.5911 110.16 64.659H110.038C110.038 64.7269 110.038 64.8628 110.038 64.9307H109.916C109.916 65.0516 109.916 65.2173 109.916 65.3382H109.795C109.795 65.508 109.795 65.7118 109.795 65.8816H109.673C109.673 66.2851 109.673 66.7007 109.673 67.1042H109.795C109.795 66.7469 109.795 66.3747 109.795 66.0174H109.916C109.916 65.8476 109.916 65.6439 109.916 65.4741H110.038C110.038 65.3532 110.038 65.1874 110.038 65.0665H110.16C110.16 64.9986 110.16 64.8628 110.16 64.7949H110.282C110.282 64.7269 110.282 64.5911 110.282 64.5232H110.404C110.404 64.4552 110.404 64.3194 110.404 64.2515H110.525C110.525 64.1836 110.525 64.0477 110.525 63.9798H110.647C110.647 63.9119 110.647 63.776 110.647 63.7081H110.769C110.769 63.6402 110.769 63.5043 110.769 63.4364H110.891V63.3006H111.013V63.1647H111.134V63.0289H111.256V62.893H111.378V62.7572C111.439 62.7572 111.561 62.7572 111.622 62.7572V62.6214C111.682 62.6214 111.804 62.6214 111.865 62.6214V62.4855C112.349 62.4855 112.843 62.4855 113.327 62.4855V62.3497C113.006 62.3497 112.673 62.3497 112.352 62.3497V62.2138C112.505 62.2138 112.687 62.2138 112.84 62.2138V62.078C113.364 62.078 113.898 62.078 114.423 62.078V62.2138H114.545V62.3497H114.666V62.2138H114.788V62.3497C114.983 62.3497 115.202 62.3497 115.397 62.3497C115.397 62.4176 115.397 62.5534 115.397 62.6214C115.549 62.6214 115.732 62.6214 115.884 62.6214V62.7572H116.006V62.893H116.128V63.0289H116.25V63.1647H116.372C116.372 63.2856 116.372 63.4514 116.372 63.5723H116.25V63.7081C116.358 63.7081 116.507 63.7081 116.615 63.7081C116.615 63.776 116.615 63.9119 116.615 63.9798C116.676 63.9798 116.798 63.9798 116.859 63.9798V63.8439C116.92 63.8439 117.041 63.8439 117.102 63.8439V63.7081C117.163 63.7081 117.285 63.7081 117.346 63.7081V63.5723C117.407 63.5723 117.529 63.5723 117.59 63.5723V63.4364C117.868 63.4364 118.163 63.4364 118.442 63.4364V63.5723C118.551 63.5723 118.699 63.5723 118.807 63.5723V63.7081H118.929V63.8439C118.777 63.8439 118.594 63.8439 118.442 63.8439V63.9798C118.334 63.9798 118.185 63.9798 118.077 63.9798V64.1156C118.016 64.1156 117.894 64.1156 117.833 64.1156V64.2515C117.772 64.2515 117.65 64.2515 117.59 64.2515V64.3873H117.468V64.5232H117.346V64.659H117.224V64.7949H117.102V64.9307H116.981V65.0665H116.859V65.2024H116.737V65.3382H116.615V65.4741H116.493V65.6099H116.372V65.7458H116.25V65.8816H116.128V66.0174H116.006V66.1533H115.884V66.2891H115.763V66.425H115.641V66.5608H115.519V66.6967C115.458 66.6967 115.336 66.6967 115.275 66.6967V66.8325C115.215 66.8325 115.093 66.8325 115.032 66.8325V66.9683C114.923 66.9683 114.775 66.9683 114.666 66.9683V67.1042C114.472 67.1042 114.252 67.1042 114.057 67.1042V67.24C115.111 67.24 116.171 67.24 117.224 67.24V67.1042C116.741 67.1042 116.246 67.1042 115.763 67.1042C115.763 67.0363 115.763 66.9004 115.763 66.8325H115.884V66.6967H116.006V66.5608H116.128V66.425C116.407 66.425 116.702 66.425 116.981 66.425V66.5608C117.133 66.5608 117.315 66.5608 117.468 66.5608V66.425C117.951 66.425 118.446 66.425 118.929 66.425V66.5608C118.99 66.5608 119.112 66.5608 119.173 66.5608C119.173 66.6817 119.173 66.8474 119.173 66.9683H119.051V67.1042H118.929V67.24H118.807V67.3759H118.686V67.5117C118.625 67.5117 118.503 67.5117 118.442 67.5117V67.6476C118.334 67.6476 118.185 67.6476 118.077 67.6476V67.7834C117.968 67.7834 117.82 67.7834 117.711 67.7834V67.9193C117.603 67.9193 117.454 67.9193 117.346 67.9193V68.0551C117.194 68.0551 117.011 68.0551 116.859 68.0551V68.1909C116.707 68.1909 116.524 68.1909 116.372 68.1909V68.3268C116.263 68.3268 116.115 68.3268 116.006 68.3268V68.4626C115.945 68.4626 115.824 68.4626 115.763 68.4626V68.5985C115.702 68.5985 115.58 68.5985 115.519 68.5985C115.519 68.6664 115.519 68.8022 115.519 68.8702H115.641V68.7343H115.763V68.8702H115.884V69.006H116.006V68.8702H116.128V69.006H116.25V69.1418H116.372V69.006H116.493V69.1418H116.615V69.2777H116.737V69.4135H116.859V69.5494H116.737V69.6852C116.798 69.6852 116.92 69.6852 116.981 69.6852C116.981 69.8061 116.981 69.9718 116.981 70.0927C117.041 70.0927 117.163 70.0927 117.224 70.0927V69.9569H117.102Z" fill="black"/>
<path d="M116.981 69.8211V69.6853C116.92 69.6853 116.798 69.6853 116.737 69.6853V69.8211H116.615V69.6853H116.493V69.8211H116.372V69.6853H116.25V69.5495H116.128V69.6853H116.006V69.5495H115.884V69.6853H115.763V69.5495H115.641V69.4136H115.519V69.2778H115.397V69.1419H115.275V69.2778H115.154V69.1419H115.032V69.0061H115.154V68.8702H115.032V68.7344H115.154V68.8702H115.275V68.7344H115.397V68.8702H115.519C115.519 68.8023 115.519 68.6665 115.519 68.5986C115.58 68.5986 115.702 68.5986 115.763 68.5986V68.4627C115.824 68.4627 115.945 68.4627 116.006 68.4627V68.3269C116.115 68.3269 116.263 68.3269 116.372 68.3269V68.191C116.524 68.191 116.707 68.191 116.859 68.191V68.0552C117.011 68.0552 117.194 68.0552 117.346 68.0552V67.9193C117.454 67.9193 117.603 67.9193 117.711 67.9193V67.7835C117.82 67.7835 117.968 67.7835 118.077 67.7835V67.6476C118.185 67.6476 118.334 67.6476 118.442 67.6476V67.5118C118.503 67.5118 118.625 67.5118 118.686 67.5118V67.376H118.807V67.2401H118.929V67.1043H119.051V66.9684H119.173C119.173 66.8475 119.173 66.6818 119.173 66.5609C119.112 66.5609 118.99 66.5609 118.929 66.5609V66.6967C118.868 66.6967 118.747 66.6967 118.686 66.6967V66.8326C118.577 66.8326 118.429 66.8326 118.32 66.8326V66.9684C118.168 66.9684 117.985 66.9684 117.833 66.9684V67.1043C117.638 67.1043 117.419 67.1043 117.224 67.1043V67.2401C116.171 67.2401 115.111 67.2401 114.057 67.2401V67.1043C113.997 67.1043 113.875 67.1043 113.814 67.1043V66.9684H113.692V66.8326H113.814V66.9684C113.875 66.9684 113.997 66.9684 114.057 66.9684V67.1043C114.252 67.1043 114.472 67.1043 114.666 67.1043V66.9684C114.775 66.9684 114.923 66.9684 115.032 66.9684V66.8326C115.093 66.8326 115.215 66.8326 115.275 66.8326V66.6967C115.336 66.6967 115.458 66.6967 115.519 66.6967V66.5609H115.641V66.4251H115.763V66.2892H115.884V66.1534H116.006V66.0175H116.128V65.8817H116.25V65.7458H116.372V65.61H116.493V65.4742H116.615V65.3383H116.737V65.2025H116.859V65.0666H116.981V64.9308H117.102V64.7949H117.224V64.6591H117.346V64.5232H117.468V64.3874H117.59V64.2516C117.65 64.2516 117.772 64.2516 117.833 64.2516V64.1157C117.894 64.1157 118.016 64.1157 118.077 64.1157V63.9799C118.185 63.9799 118.334 63.9799 118.442 63.9799V63.844C118.594 63.844 118.777 63.844 118.929 63.844V63.7082H118.807V63.5723C118.699 63.5723 118.551 63.5723 118.442 63.5723V63.4365C118.163 63.4365 117.868 63.4365 117.59 63.4365V63.5723C117.529 63.5723 117.407 63.5723 117.346 63.5723V63.7082C117.285 63.7082 117.163 63.7082 117.102 63.7082V63.844C117.041 63.844 116.92 63.844 116.859 63.844V63.9799C116.798 63.9799 116.676 63.9799 116.615 63.9799V64.1157H116.493V64.2516C116.432 64.2516 116.311 64.2516 116.25 64.2516V64.3874H116.128V64.5232C116.067 64.5232 115.945 64.5232 115.884 64.5232V64.6591H115.763V64.7949C115.702 64.7949 115.58 64.7949 115.519 64.7949V64.9308H115.397V65.0666C115.336 65.0666 115.215 65.0666 115.154 65.0666V65.2025C115.093 65.2025 114.971 65.2025 114.91 65.2025V65.3383C114.849 65.3383 114.727 65.3383 114.666 65.3383V65.4742C114.606 65.4742 114.484 65.4742 114.423 65.4742V65.61C114.314 65.61 114.166 65.61 114.057 65.61C114.057 65.2989 114.057 64.9702 114.057 64.6591H113.936C113.936 64.5912 113.936 64.4553 113.936 64.3874H113.814V64.2516H113.692V64.1157H113.57V63.9799C113.509 63.9799 113.388 63.9799 113.327 63.9799V63.844C112.965 63.844 112.592 63.844 112.231 63.844V63.9799C112.17 63.9799 112.048 63.9799 111.987 63.9799V64.1157H111.865V64.2516H111.743V64.3874H111.622C111.622 64.4553 111.622 64.5912 111.622 64.6591H111.5C111.5 65.0625 111.5 65.4782 111.5 65.8817H111.622C111.622 65.9496 111.622 66.0854 111.622 66.1534H111.743V66.2892H111.865V66.4251H111.987C111.987 66.3571 111.987 66.2213 111.987 66.1534H111.865V66.0175H111.743C111.743 65.9496 111.743 65.8138 111.743 65.7458H111.622C111.622 65.4348 111.622 65.106 111.622 64.7949H111.743C111.743 64.727 111.743 64.5912 111.743 64.5232H111.865V64.3874H111.987V64.2516H112.109V64.1157C112.17 64.1157 112.291 64.1157 112.352 64.1157V63.9799C112.631 63.9799 112.926 63.9799 113.205 63.9799V64.1157C113.266 64.1157 113.388 64.1157 113.449 64.1157V64.2516H113.57V64.3874H113.692V64.5232H113.814C113.814 64.5912 113.814 64.727 113.814 64.7949H113.936C113.936 65.1522 113.936 65.5244 113.936 65.8817C113.875 65.8817 113.753 65.8817 113.692 65.8817V65.7458C113.455 65.7458 113.199 65.7458 112.961 65.7458V65.8817C112.853 65.8817 112.704 65.8817 112.596 65.8817V66.0175C112.535 66.0175 112.413 66.0175 112.352 66.0175V66.1534H112.231C112.231 66.2213 112.231 66.3571 112.231 66.4251H112.109C112.109 66.546 112.109 66.7117 112.109 66.8326H111.987V66.6967H111.865V66.8326H111.743V66.9684H111.622V67.1043H111.5V66.9684H111.378V67.1043H111.256V66.9684H111.134V67.1043H111.013V66.9684H110.891V66.8326H110.769V66.6967H110.647V66.5609H110.769V66.4251H110.647V66.2892H110.769V66.1534H110.647V66.0175H110.769V65.8817H110.891V65.7458H111.013V65.61H111.134V65.7458H111.256V65.61H111.378C111.378 65.2989 111.378 64.9702 111.378 64.6591H111.5C111.5 64.5912 111.5 64.4553 111.5 64.3874H111.622V64.2516H111.743V64.1157H111.865V63.9799H111.987V63.844C112.048 63.844 112.17 63.844 112.231 63.844V63.7082C112.592 63.7082 112.965 63.7082 113.327 63.7082V63.5723H113.449V63.4365H113.57V63.3007H113.449V63.1648H113.57V63.029H113.692V62.8931H113.814V62.7573H113.692V62.6214C113.584 62.6214 113.435 62.6214 113.327 62.6214V62.4856C112.843 62.4856 112.349 62.4856 111.865 62.4856V62.6214C111.804 62.6214 111.682 62.6214 111.622 62.6214V62.7573C111.561 62.7573 111.439 62.7573 111.378 62.7573V62.8931H111.256V63.029H111.134V63.1648H111.013V63.3007H110.891V63.4365H110.769C110.769 63.5044 110.769 63.6403 110.769 63.7082H110.647C110.647 63.7761 110.647 63.912 110.647 63.9799H110.525C110.525 64.0478 110.525 64.1836 110.525 64.2516H110.404C110.404 64.3195 110.404 64.4553 110.404 64.5232H110.282C110.282 64.5912 110.282 64.727 110.282 64.7949H110.16C110.16 64.8629 110.16 64.9987 110.16 65.0666H110.038C110.038 65.1875 110.038 65.3533 110.038 65.4742H109.916C109.916 65.644 109.916 65.8477 109.916 66.0175H109.795C109.795 66.3748 109.795 66.747 109.795 67.1043H109.673C109.673 68.0986 109.673 69.0985 109.673 70.0928C112.108 70.0928 114.546 70.0928 116.981 70.0928C116.981 70.0249 116.981 69.8891 116.981 69.8211Z" fill="white"/>
<path d="M116.737 69.6853H116.615V69.8211H116.737V69.6853Z" fill="black"/>
<path d="M116.493 69.6853H116.372V69.8211H116.493V69.6853Z" fill="black"/>
<path d="M116.737 69.5493H116.615V69.6852H116.737V69.5493Z" fill="white"/>
<path d="M116.615 69.5493H116.493V69.6852H116.615V69.5493Z" fill="black"/>
<path d="M116.493 69.5493H116.372V69.6852H116.493V69.5493Z" fill="white"/>
<path d="M116.372 69.5493H116.25V69.6852H116.372V69.5493Z" fill="black"/>
<path d="M116.128 69.5493H116.006V69.6852H116.128V69.5493Z" fill="black"/>
<path d="M115.884 69.5493H115.763V69.6852H115.884V69.5493Z" fill="black"/>
<path d="M116.859 69.4136H116.737V69.5494H116.859V69.4136Z" fill="white"/>
<path d="M116.737 69.4136H116.615V69.5494H116.737V69.4136Z" fill="black"/>
<path d="M116.615 69.4136H116.493V69.5494H116.615V69.4136Z" fill="white"/>
<path d="M116.493 69.4136H116.372V69.5494H116.493V69.4136Z" fill="black"/>
<path d="M116.372 69.4136H116.25V69.5494H116.372V69.4136Z" fill="white"/>
<path d="M116.25 69.4136H116.128V69.5494H116.25V69.4136Z" fill="black"/>
<path d="M116.128 69.4136H116.006V69.5494H116.128V69.4136Z" fill="white"/>
<path d="M116.006 69.4136H115.884V69.5494H116.006V69.4136Z" fill="black"/>
<path d="M115.884 69.4136H115.763V69.5494H115.884V69.4136Z" fill="white"/>
<path d="M115.763 69.4136H115.641V69.5494H115.763V69.4136Z" fill="black"/>
<path d="M116.737 69.2776H116.615V69.4134H116.737V69.2776Z" fill="white"/>
<path d="M116.615 69.2776H116.493V69.4134H116.615V69.2776Z" fill="black"/>
<path d="M116.493 69.2776H116.372V69.4134H116.493V69.2776Z" fill="white"/>
<path d="M116.372 69.2776H116.25V69.4134H116.372V69.2776Z" fill="black"/>
<path d="M116.25 69.2776H116.128V69.4134H116.25V69.2776Z" fill="white"/>
<path d="M116.128 69.2776H116.006V69.4134H116.128V69.2776Z" fill="black"/>
<path d="M116.006 69.2776H115.884V69.4134H116.006V69.2776Z" fill="white"/>
<path d="M115.884 69.2776H115.763V69.4134H115.884V69.2776Z" fill="black"/>
<path d="M115.763 69.2776H115.641V69.4134H115.763V69.2776Z" fill="white"/>
<path d="M115.641 69.2776H115.519V69.4134H115.641V69.2776Z" fill="black"/>
<path d="M116.615 69.1418H116.493V69.2777H116.615V69.1418Z" fill="white"/>
<path d="M116.493 69.1418H116.372V69.2777H116.493V69.1418Z" fill="black"/>
<path d="M116.372 69.1418H116.25V69.2777H116.372V69.1418Z" fill="white"/>
<path d="M116.25 69.1418H116.128V69.2777H116.25V69.1418Z" fill="black"/>
<path d="M116.128 69.1418H116.006V69.2777H116.128V69.1418Z" fill="white"/>
<path d="M116.006 69.1418H115.884V69.2777H116.006V69.1418Z" fill="black"/>
<path d="M115.884 69.1418H115.763V69.2777H115.884V69.1418Z" fill="white"/>
<path d="M115.763 69.1418H115.641V69.2777H115.763V69.1418Z" fill="black"/>
<path d="M115.641 69.1418H115.519V69.2777H115.641V69.1418Z" fill="white"/>
<path d="M115.519 69.1418H115.397V69.2777H115.519V69.1418Z" fill="black"/>
<path d="M115.275 69.1418H115.154V69.2777H115.275V69.1418Z" fill="black"/>
<path d="M116.493 69.0061H116.372V69.1419H116.493V69.0061Z" fill="white"/>
<path d="M116.25 69.0061H116.128V69.1419H116.25V69.0061Z" fill="white"/>
<path d="M116.128 69.0061H116.006V69.1419H116.128V69.0061Z" fill="black"/>
<path d="M116.006 69.0061H115.884V69.1419H116.006V69.0061Z" fill="white"/>
<path d="M115.884 69.0061H115.763V69.1419H115.884V69.0061Z" fill="black"/>
<path d="M115.763 69.0061H115.641V69.1419H115.763V69.0061Z" fill="white"/>
<path d="M115.641 69.0061H115.519V69.1419H115.641V69.0061Z" fill="black"/>
<path d="M115.519 69.0061H115.397V69.1419H115.519V69.0061Z" fill="white"/>
<path d="M115.397 69.0061H115.275V69.1419H115.397V69.0061Z" fill="black"/>
<path d="M115.275 69.0061H115.154V69.1419H115.275V69.0061Z" fill="white"/>
<path d="M115.154 69.0061H115.032V69.1419H115.154V69.0061Z" fill="black"/>
<path d="M116.128 68.8701H116.006V69.006H116.128V68.8701Z" fill="white"/>
<path d="M115.884 68.8701H115.763V69.006H115.884V68.8701Z" fill="white"/>
<path d="M115.763 68.8701H115.641V69.006H115.763V68.8701Z" fill="black"/>
<path d="M115.641 68.8701H115.519V69.006H115.641V68.8701Z" fill="white"/>
<path d="M115.519 68.8701H115.397V69.006H115.519V68.8701Z" fill="black"/>
<path d="M115.397 68.8701H115.275V69.006H115.397V68.8701Z" fill="white"/>
<path d="M115.275 68.8701H115.154V69.006H115.275V68.8701Z" fill="black"/>
<path d="M115.763 68.7344H115.641V68.8702H115.763V68.7344Z" fill="white"/>
<path d="M115.397 68.7344H115.275V68.8702H115.397V68.7344Z" fill="black"/>
<path d="M115.154 68.7344H115.032V68.8702H115.154V68.7344Z" fill="black"/>
<path d="M117.468 67.1041C117.576 67.1041 117.725 67.1041 117.833 67.1041V66.9683C117.638 66.9683 117.419 66.9683 117.224 66.9683V67.1041C117.285 67.1041 117.407 67.1041 117.468 67.1041Z" fill="black"/>
<path d="M113.936 66.9683H113.814V67.1041C113.875 67.1041 113.997 67.1041 114.058 67.1041V66.9683H113.936Z" fill="black"/>
<path d="M111.622 66.9683H111.5V67.1041H111.622V66.9683Z" fill="black"/>
<path d="M111.378 66.9683H111.256V67.1041H111.378V66.9683Z" fill="black"/>
<path d="M111.134 66.9683H111.013V67.1041H111.134V66.9683Z" fill="black"/>
<path d="M118.077 66.8326H117.955V66.6968C117.894 66.6968 117.772 66.6968 117.711 66.6968V66.8326H117.833V66.9685C117.985 66.9685 118.168 66.9685 118.32 66.9685V66.8326C118.26 66.8326 118.138 66.8326 118.077 66.8326Z" fill="black"/>
<path d="M117.346 66.9684C117.498 66.9684 117.681 66.9684 117.833 66.9684V66.8326H117.711V66.6967C117.651 66.6967 117.529 66.6967 117.468 66.6967V66.5609C117.316 66.5609 117.133 66.5609 116.981 66.5609V66.425C116.702 66.425 116.407 66.425 116.128 66.425V66.5609H116.006V66.6967H115.884V66.8326H115.763C115.763 66.9005 115.763 67.0363 115.763 67.1043C116.246 67.1043 116.741 67.1043 117.224 67.1043V66.9684H117.346Z" fill="white"/>
<path d="M113.814 66.8325H113.692V66.9684H113.814V66.8325Z" fill="black"/>
<path d="M111.743 66.8325H111.622V66.9684H111.743V66.8325Z" fill="black"/>
<path d="M111.622 66.8325H111.5V66.9684H111.622V66.8325Z" fill="white"/>
<path d="M111.5 66.8325H111.378V66.9684H111.5V66.8325Z" fill="black"/>
<path d="M111.378 66.8325H111.256V66.9684H111.378V66.8325Z" fill="white"/>
<path d="M111.256 66.8325H111.134V66.9684H111.256V66.8325Z" fill="black"/>
<path d="M111.134 66.8325H111.013V66.9684H111.134V66.8325Z" fill="white"/>
<path d="M111.013 66.8325H110.891V66.9684H111.013V66.8325Z" fill="black"/>
<path d="M118.442 66.6968H118.32V66.8326C118.429 66.8326 118.577 66.8326 118.686 66.8326V66.6968C118.625 66.6968 118.503 66.6968 118.442 66.6968Z" fill="black"/>
<path d="M111.865 66.6968H111.743V66.8326H111.865V66.6968Z" fill="black"/>
<path d="M111.743 66.6968H111.622V66.8326H111.743V66.6968Z" fill="white"/>
<path d="M111.622 66.6968H111.5V66.8326H111.622V66.6968Z" fill="black"/>
<path d="M111.5 66.6968H111.378V66.8326H111.5V66.6968Z" fill="white"/>
<path d="M111.378 66.6968H111.256V66.8326H111.378V66.6968Z" fill="black"/>
<path d="M111.256 66.6968H111.134V66.8326H111.256V66.6968Z" fill="white"/>
<path d="M111.134 66.6968H111.013V66.8326H111.134V66.6968Z" fill="black"/>
<path d="M111.013 66.6968H110.891V66.8326H111.013V66.6968Z" fill="white"/>
<path d="M110.891 66.6968H110.769V66.8326H110.891V66.6968Z" fill="black"/>
<path d="M118.686 66.5608V66.6966C118.747 66.6966 118.868 66.6966 118.929 66.6966V66.5608C118.868 66.5608 118.747 66.5608 118.686 66.5608Z" fill="black"/>
<path d="M117.59 66.6966H117.711V66.5608C117.65 66.5608 117.529 66.5608 117.468 66.5608V66.6966H117.59Z" fill="black"/>
<path d="M111.865 66.5608H111.743V66.6966H111.865V66.5608Z" fill="white"/>
<path d="M111.743 66.5608H111.622V66.6966H111.743V66.5608Z" fill="black"/>
<path d="M111.622 66.5608H111.5V66.6966H111.622V66.5608Z" fill="white"/>
<path d="M111.5 66.5608H111.378V66.6966H111.5V66.5608Z" fill="black"/>
<path d="M111.378 66.5608H111.256V66.6966H111.378V66.5608Z" fill="white"/>
<path d="M111.256 66.5608H111.134V66.6966H111.256V66.5608Z" fill="black"/>
<path d="M111.134 66.5608H111.013V66.6966H111.134V66.5608Z" fill="white"/>
<path d="M111.013 66.5608H110.891V66.6966H111.013V66.5608Z" fill="black"/>
<path d="M110.891 66.5608H110.769V66.6966H110.891V66.5608Z" fill="white"/>
<path d="M110.769 66.5608H110.647V66.6966H110.769V66.5608Z" fill="black"/>
<path d="M117.711 66.5609V66.6967C117.772 66.6967 117.894 66.6967 117.955 66.6967V66.8326C118.063 66.8326 118.212 66.8326 118.32 66.8326V66.6967C118.429 66.6967 118.577 66.6967 118.686 66.6967V66.5609C118.747 66.5609 118.868 66.5609 118.929 66.5609V66.425C118.446 66.425 117.951 66.425 117.468 66.425V66.5609C117.529 66.5609 117.65 66.5609 117.711 66.5609Z" fill="white"/>
<path d="M111.743 66.425H111.622V66.5609H111.743V66.425Z" fill="white"/>
<path d="M111.622 66.425H111.5V66.5609H111.622V66.425Z" fill="black"/>
<path d="M111.5 66.425H111.378V66.5609H111.5V66.425Z" fill="white"/>
<path d="M111.378 66.425H111.256V66.5609H111.378V66.425Z" fill="black"/>
<path d="M111.256 66.425H111.134V66.5609H111.256V66.425Z" fill="white"/>
<path d="M111.134 66.425H111.013V66.5609H111.134V66.425Z" fill="black"/>
<path d="M111.013 66.425H110.891V66.5609H111.013V66.425Z" fill="white"/>
<path d="M110.891 66.425H110.769V66.5609H110.891V66.425Z" fill="black"/>
<path d="M111.622 66.2891H111.5V66.4249H111.622V66.2891Z" fill="white"/>
<path d="M111.5 66.2891H111.378V66.4249H111.5V66.2891Z" fill="black"/>
<path d="M111.378 66.2891H111.256V66.4249H111.378V66.2891Z" fill="white"/>
<path d="M111.256 66.2891H111.134V66.4249H111.256V66.2891Z" fill="black"/>
<path d="M111.134 66.2891H111.013V66.4249H111.134V66.2891Z" fill="white"/>
<path d="M111.013 66.2891H110.891V66.4249H111.013V66.2891Z" fill="black"/>
<path d="M110.891 66.2891H110.769V66.4249H110.891V66.2891Z" fill="white"/>
<path d="M110.769 66.2891H110.647V66.4249H110.769V66.2891Z" fill="black"/>
<path d="M111.5 66.1533H111.378V66.2892H111.5V66.1533Z" fill="white"/>
<path d="M111.378 66.1533H111.256V66.2892H111.378V66.1533Z" fill="black"/>
<path d="M111.256 66.1533H111.134V66.2892H111.256V66.1533Z" fill="white"/>
<path d="M111.134 66.1533H111.013V66.2892H111.134V66.1533Z" fill="black"/>
<path d="M111.013 66.1533H110.891V66.2892H111.013V66.1533Z" fill="white"/>
<path d="M110.891 66.1533H110.769V66.2892H110.891V66.1533Z" fill="black"/>
<path d="M112.231 66.1534C112.231 66.0855 112.231 65.9496 112.231 65.8817H112.109C112.109 65.8138 112.109 65.6779 112.109 65.61H111.987C111.987 65.3927 111.987 65.1481 111.987 64.9308H112.109C112.109 64.8629 112.109 64.727 112.109 64.6591H112.231V64.5233C112.291 64.5233 112.413 64.5233 112.474 64.5233V64.3874C112.669 64.3874 112.888 64.3874 113.083 64.3874V64.5233C113.144 64.5233 113.266 64.5233 113.327 64.5233V64.6591H113.449C113.449 64.727 113.449 64.8629 113.449 64.9308H113.57C113.57 65.1481 113.57 65.3927 113.57 65.61H113.692V65.7458H113.814C113.814 65.4348 113.814 65.106 113.814 64.7949H113.692C113.692 64.727 113.692 64.5912 113.692 64.5233H113.57V64.3874H113.449V64.2516C113.388 64.2516 113.266 64.2516 113.205 64.2516V64.1157C112.926 64.1157 112.631 64.1157 112.352 64.1157V64.2516C112.291 64.2516 112.17 64.2516 112.109 64.2516V64.3874H111.987V64.5233H111.865C111.865 64.5912 111.865 64.727 111.865 64.7949H111.743C111.743 65.106 111.743 65.4348 111.743 65.7458H111.865C111.865 65.8138 111.865 65.9496 111.865 66.0175H111.987V66.1534C112.048 66.1534 112.17 66.1534 112.231 66.1534Z" fill="white"/>
<path d="M111.987 66.0173H111.865V66.1532H111.987V66.0173Z" fill="black"/>
<path d="M111.378 66.0174V66.1533H111.5V66.2891H111.622V66.425H111.743V66.5608H111.865V66.6967H111.987V66.8325H112.109C112.109 66.7116 112.109 66.5459 112.109 66.425H112.23C112.23 66.357 112.23 66.2212 112.23 66.1533C112.17 66.1533 112.048 66.1533 111.987 66.1533C111.987 66.2212 111.987 66.357 111.987 66.425H111.865V66.2891H111.743V66.1533H111.622C111.622 66.0854 111.622 65.9495 111.622 65.8816H111.5V66.0174H111.378Z" fill="black"/>
<path d="M111.378 66.0173H111.256V66.1532H111.378V66.0173Z" fill="white"/>
<path d="M111.256 66.0173H111.134V66.1532H111.256V66.0173Z" fill="black"/>
<path d="M111.134 66.0173H111.013V66.1532H111.134V66.0173Z" fill="white"/>
<path d="M111.013 66.0173H110.891V66.1532H111.013V66.0173Z" fill="black"/>
<path d="M110.891 66.0173H110.769V66.1532H110.891V66.0173Z" fill="white"/>
<path d="M110.769 66.0173H110.647V66.1532H110.769V66.0173Z" fill="black"/>
<path d="M111.5 65.8816H111.378V66.0174H111.5V65.8816Z" fill="white"/>
<path d="M111.378 65.8816H111.256V66.0174H111.378V65.8816Z" fill="black"/>
<path d="M111.256 65.8816H111.134V66.0174H111.256V65.8816Z" fill="white"/>
<path d="M111.134 65.8816H111.013V66.0174H111.134V65.8816Z" fill="black"/>
<path d="M111.013 65.8816H110.891V66.0174H111.013V65.8816Z" fill="white"/>
<path d="M110.891 65.8816H110.769V66.0174H110.891V65.8816Z" fill="black"/>
<path d="M111.865 65.7458H111.743C111.743 65.8138 111.743 65.9496 111.743 66.0175H111.865C111.865 65.9496 111.865 65.8138 111.865 65.7458Z" fill="black"/>
<path d="M111.378 65.7458H111.256V65.8817H111.378V65.7458Z" fill="white"/>
<path d="M111.256 65.7458H111.134V65.8817H111.256V65.7458Z" fill="black"/>
<path d="M111.134 65.7458H111.013V65.8817H111.134V65.7458Z" fill="white"/>
<path d="M111.013 65.7458H110.891V65.8817H111.013V65.7458Z" fill="black"/>
<path d="M113.57 65.6098C113.57 65.3924 113.57 65.1479 113.57 64.9306H113.449C113.449 64.8627 113.449 64.7268 113.449 64.6589H113.327V64.5231C113.266 64.5231 113.144 64.5231 113.083 64.5231V64.3872C112.888 64.3872 112.669 64.3872 112.474 64.3872V64.5231C112.413 64.5231 112.292 64.5231 112.231 64.5231V64.6589H112.109C112.109 64.7268 112.109 64.8627 112.109 64.9306H111.987C111.987 65.1479 111.987 65.3924 111.987 65.6098H112.109C112.109 65.6777 112.109 65.8136 112.109 65.8815H112.231C112.231 65.9494 112.231 66.0853 112.231 66.1532H112.352V66.0173C112.413 66.0173 112.535 66.0173 112.596 66.0173V65.8815C112.704 65.8815 112.853 65.8815 112.961 65.8815V65.7456C113.199 65.7456 113.455 65.7456 113.692 65.7456V65.6098H113.57ZM112.474 65.0664V64.9306C112.535 64.9306 112.657 64.9306 112.718 64.9306C112.718 64.9985 112.718 65.1343 112.718 65.2023C112.657 65.2023 112.535 65.2023 112.474 65.2023V65.0664Z" fill="black"/>
<path d="M111.134 65.6099H111.013V65.7457H111.134V65.6099Z" fill="black"/>
<path d="M114.179 65.474C114.179 65.2091 114.179 64.9238 114.179 64.6589H114.057C114.057 64.97 114.057 65.2988 114.057 65.6098C114.166 65.6098 114.314 65.6098 114.423 65.6098V65.474C114.362 65.474 114.24 65.474 114.179 65.474Z" fill="black"/>
<path d="M111.743 65.4741C111.743 65.2568 111.743 65.0123 111.743 64.7949H111.622C111.622 65.106 111.622 65.4347 111.622 65.7458H111.743C111.743 65.6779 111.743 65.5421 111.743 65.4741Z" fill="black"/>
<path d="M114.423 65.3381V65.474C114.484 65.474 114.606 65.474 114.666 65.474V65.3381C114.606 65.3381 114.484 65.3381 114.423 65.3381Z" fill="black"/>
<path d="M114.667 65.2024V65.3382C114.727 65.3382 114.849 65.3382 114.91 65.3382V65.2024C114.849 65.2024 114.727 65.2024 114.667 65.2024Z" fill="black"/>
<path d="M114.91 65.0667V65.2025C114.971 65.2025 115.093 65.2025 115.154 65.2025V65.0667C115.093 65.0667 114.971 65.0667 114.91 65.0667Z" fill="black"/>
<path d="M112.718 65.2024C112.718 65.1344 112.718 64.9986 112.718 64.9307C112.657 64.9307 112.535 64.9307 112.474 64.9307C112.474 64.9986 112.474 65.1344 112.474 65.2024C112.535 65.2024 112.657 65.2024 112.718 65.2024Z" fill="white"/>
<path d="M115.154 64.9307V65.0665C115.214 65.0665 115.336 65.0665 115.397 65.0665V64.9307C115.336 64.9307 115.214 64.9307 115.154 64.9307Z" fill="black"/>
<path d="M113.814 65.0666C113.814 65.284 113.814 65.5285 113.814 65.7458H113.692V65.8817C113.753 65.8817 113.875 65.8817 113.936 65.8817C113.936 65.5244 113.936 65.1522 113.936 64.7949H113.814C113.814 64.8628 113.814 64.9987 113.814 65.0666Z" fill="black"/>
<path d="M115.519 64.7949H115.397V64.9308H115.519V64.7949Z" fill="black"/>
<path d="M115.519 64.6589V64.7948C115.58 64.7948 115.702 64.7948 115.763 64.7948V64.6589C115.702 64.6589 115.58 64.6589 115.519 64.6589Z" fill="black"/>
<path d="M113.692 64.7949H113.814C113.814 64.727 113.814 64.5911 113.814 64.5232H113.692C113.692 64.5911 113.692 64.727 113.692 64.7949Z" fill="black"/>
<path d="M111.865 64.659V64.5232H111.743C111.743 64.5911 111.743 64.727 111.743 64.7949H111.865V64.659Z" fill="black"/>
<path d="M111.378 64.7948C111.378 65.0597 111.378 65.3449 111.378 65.6098H111.256V65.7457H111.378V65.8815H111.5C111.5 65.4781 111.5 65.0624 111.5 64.6589H111.378V64.7948Z" fill="black"/>
<path d="M115.884 64.5232H115.763V64.659H115.884V64.5232Z" fill="black"/>
<path d="M115.884 64.3872V64.5231C115.945 64.5231 116.067 64.5231 116.128 64.5231V64.3872C116.067 64.3872 115.945 64.3872 115.884 64.3872Z" fill="black"/>
<path d="M115.032 64.3872C114.971 64.3872 114.849 64.3872 114.788 64.3872V64.5231C114.941 64.5231 115.123 64.5231 115.276 64.5231V64.3872C115.215 64.3872 115.093 64.3872 115.032 64.3872Z" fill="black"/>
<path d="M114.058 64.3872H113.936C113.936 64.4551 113.936 64.591 113.936 64.6589H114.058C114.058 64.591 114.058 64.4551 114.058 64.3872Z" fill="black"/>
<path d="M113.692 64.3872H113.57V64.5231H113.692V64.3872Z" fill="black"/>
<path d="M111.987 64.3872H111.865V64.5231H111.987V64.3872Z" fill="black"/>
<path d="M111.5 64.5231V64.6589H111.622C111.622 64.591 111.622 64.4551 111.622 64.3872H111.5V64.5231Z" fill="black"/>
<path d="M116.25 64.2515H116.128V64.3873H116.25V64.2515Z" fill="black"/>
<path d="M115.275 64.2515V64.3873C115.336 64.3873 115.458 64.3873 115.519 64.3873V64.2515C115.458 64.2515 115.336 64.2515 115.275 64.2515Z" fill="black"/>
<path d="M114.788 64.2515H114.667V64.3873H114.788V64.2515Z" fill="black"/>
<path d="M113.936 64.2515H113.814V64.3873H113.936V64.2515Z" fill="black"/>
<path d="M113.57 64.2515H113.448V64.3873H113.57V64.2515Z" fill="black"/>
<path d="M112.109 64.2515H111.987V64.3873H112.109V64.2515Z" fill="black"/>
<path d="M111.743 64.2515H111.622V64.3873H111.743V64.2515Z" fill="black"/>
<path d="M116.25 64.1157V64.2516C116.311 64.2516 116.432 64.2516 116.493 64.2516V64.1157C116.432 64.1157 116.311 64.1157 116.25 64.1157Z" fill="black"/>
<path d="M115.519 64.1157V64.2516C115.58 64.2516 115.702 64.2516 115.763 64.2516V64.1157C115.702 64.1157 115.58 64.1157 115.519 64.1157Z" fill="black"/>
<path d="M114.666 64.1157H114.545V64.2516H114.666V64.1157Z" fill="black"/>
<path d="M113.814 64.1157H113.692V64.2516H113.814V64.1157Z" fill="black"/>
<path d="M113.327 64.2516H113.448V64.1157C113.388 64.1157 113.266 64.1157 113.205 64.1157V64.2516H113.327Z" fill="black"/>
<path d="M112.352 64.2516V64.1157C112.291 64.1157 112.17 64.1157 112.109 64.1157V64.2516C112.17 64.2516 112.291 64.2516 112.352 64.2516Z" fill="black"/>
<path d="M111.865 64.1157H111.743V64.2516H111.865V64.1157Z" fill="black"/>
<path d="M116.615 63.9797H116.493V64.1156H116.615V63.9797Z" fill="black"/>
<path d="M115.884 63.9797H115.763V64.1156H115.884V63.9797Z" fill="black"/>
<path d="M112.596 64.1156C112.791 64.1156 113.01 64.1156 113.205 64.1156V63.9797C112.926 63.9797 112.631 63.9797 112.352 63.9797V64.1156C112.413 64.1156 112.535 64.1156 112.596 64.1156Z" fill="black"/>
<path d="M111.987 63.9797H111.865V64.1156H111.987V63.9797Z" fill="black"/>
<path d="M115.884 63.844V63.9798C115.945 63.9798 116.067 63.9798 116.128 63.9798V63.844C116.067 63.844 115.945 63.844 115.884 63.844Z" fill="black"/>
<path d="M115.397 63.844H115.275V63.9798H115.397V63.844Z" fill="black"/>
<path d="M114.545 63.8439V63.708H114.423C114.423 63.8289 114.423 63.9946 114.423 64.1155H114.545C114.545 64.0476 114.545 63.9118 114.545 63.8439Z" fill="black"/>
<path d="M113.814 63.9798C113.814 63.9119 113.814 63.776 113.814 63.7081H113.692V63.844H113.57V63.7081H113.448V63.5723H113.327V63.7081C112.965 63.7081 112.592 63.7081 112.23 63.7081V63.844C112.592 63.844 112.965 63.844 113.327 63.844V63.9798C113.388 63.9798 113.509 63.9798 113.57 63.9798V64.1156H113.692V63.9798H113.814Z" fill="black"/>
<path d="M111.987 63.844V63.9798C112.048 63.9798 112.17 63.9798 112.231 63.9798V63.844C112.17 63.844 112.048 63.844 111.987 63.844Z" fill="black"/>
<path d="M116.25 63.708H116.128V63.8439H116.25V63.708Z" fill="black"/>
<path d="M115.275 63.708H115.154V63.8439H115.275V63.708Z" fill="black"/>
<path d="M113.692 63.708H113.57V63.8439H113.692V63.708Z" fill="white"/>
<path d="M115.763 63.5723H115.641V63.7081H115.763V63.5723Z" fill="black"/>
<path d="M115.154 63.5723H115.032V63.7081H115.154V63.5723Z" fill="black"/>
<path d="M114.666 63.5724V63.4365H114.545C114.545 63.5044 114.545 63.6403 114.545 63.7082H114.666V63.5724Z" fill="black"/>
<path d="M113.814 63.5723H113.692V63.7081H113.814V63.5723Z" fill="white"/>
<path d="M113.692 63.5723H113.57V63.7081H113.692V63.5723Z" fill="black"/>
<path d="M113.57 63.5723H113.448V63.7081H113.57V63.5723Z" fill="white"/>
<path d="M115.641 63.4365H115.519V63.5724H115.641V63.4365Z" fill="black"/>
<path d="M113.692 63.4365H113.57V63.5724H113.692V63.4365Z" fill="white"/>
<path d="M113.57 63.4365H113.448V63.5724H113.57V63.4365Z" fill="black"/>
<path d="M116.128 63.3005H116.006V63.4364H116.128V63.3005Z" fill="black"/>
<path d="M115.519 63.3005H115.397V63.4364H115.519V63.3005Z" fill="black"/>
<path d="M114.788 63.3005H114.667V63.4364H114.788V63.3005Z" fill="black"/>
<path d="M113.814 63.3005H113.692V63.4364H113.814V63.3005Z" fill="white"/>
<path d="M113.692 63.3005H113.57V63.4364H113.692V63.3005Z" fill="black"/>
<path d="M116.006 63.1648H115.884V63.3006H116.006V63.1648Z" fill="black"/>
<path d="M115.397 63.1648H115.275V63.3006H115.397V63.1648Z" fill="black"/>
<path d="M114.91 63.1648H114.788V63.3006H114.91V63.1648Z" fill="black"/>
<path d="M113.936 63.3006H113.814V63.4365H113.692V63.5723H113.814V63.7082H113.936C113.936 63.6402 113.936 63.5044 113.936 63.4365H114.058C114.058 63.3686 114.058 63.2327 114.058 63.1648H113.936V63.3006Z" fill="black"/>
<path d="M113.936 63.1648H113.814V63.3006H113.936V63.1648Z" fill="white"/>
<path d="M113.814 63.1648H113.692V63.3006H113.814V63.1648Z" fill="black"/>
<path d="M113.692 63.1648H113.57V63.3006H113.692V63.1648Z" fill="white"/>
<path d="M113.57 63.1648H113.448V63.3006H113.57V63.1648Z" fill="black"/>
<path d="M115.884 63.0288H115.763V63.1647H115.884V63.0288Z" fill="black"/>
<path d="M115.032 63.0288H114.91V63.1647H115.032V63.0288Z" fill="black"/>
<path d="M114.179 63.0288H114.057V63.1647H114.179V63.0288Z" fill="black"/>
<path d="M114.058 63.0288H113.936V63.1647H114.058V63.0288Z" fill="white"/>
<path d="M113.936 63.0288H113.814V63.1647H113.936V63.0288Z" fill="black"/>
<path d="M113.814 63.0288H113.692V63.1647H113.814V63.0288Z" fill="white"/>
<path d="M113.692 63.0288H113.57V63.1647H113.692V63.0288Z" fill="black"/>
<path d="M115.763 62.8931H115.641V63.0289H115.763V62.8931Z" fill="black"/>
<path d="M115.154 62.8931H115.032V63.0289H115.154V62.8931Z" fill="black"/>
<path d="M114.179 62.8931H114.057V63.0289H114.179V62.8931Z" fill="white"/>
<path d="M114.058 62.8931H113.936V63.0289H114.058V62.8931Z" fill="black"/>
<path d="M113.936 62.8931H113.814V63.0289H113.936V62.8931Z" fill="white"/>
<path d="M113.814 62.8931H113.692V63.0289H113.814V62.8931Z" fill="black"/>
<path d="M115.275 62.7572V62.893H115.154V63.0289H115.032V63.1647H114.91V63.3006H114.788V63.4364H114.666C114.666 63.5043 114.666 63.6402 114.666 63.7081H114.545C114.545 63.829 114.545 63.9947 114.545 64.1156H114.666V64.2515H114.788V64.3873C114.941 64.3873 115.123 64.3873 115.275 64.3873V64.2515C115.336 64.2515 115.458 64.2515 115.519 64.2515V64.1156C115.58 64.1156 115.702 64.1156 115.763 64.1156V63.9798H115.884V63.8439C115.945 63.8439 116.067 63.8439 116.128 63.8439V63.7081H116.25V63.5722H116.372C116.372 63.4513 116.372 63.2856 116.372 63.1647H116.25V63.0289H116.128V62.893H116.006V62.7572H115.884V62.6213C115.732 62.6213 115.549 62.6213 115.397 62.6213V62.7572H115.275ZM115.884 63.0289V63.1647H116.006V63.3006H116.128V63.4364H116.006V63.3006H115.884V63.1647H115.763V63.0289H115.641V62.893H115.763V63.0289H115.884ZM115.763 63.7081H115.641V63.5722H115.519V63.4364H115.397V63.3006H115.275V63.1647H115.397V63.3006H115.519V63.4364H115.641V63.5722H115.763V63.7081ZM115.397 63.9798H115.275V63.8439H115.154V63.7081H115.032V63.5722H115.154V63.7081H115.275V63.8439H115.397V63.9798Z" fill="white"/>
<path d="M115.275 62.7573H115.154V62.8932H115.275V62.7573Z" fill="black"/>
<path d="M114.179 62.893V63.0289H114.301V62.893H114.423V62.7572H114.301V62.6213H114.179V62.7572H114.057V62.893H114.179Z" fill="black"/>
<path d="M114.058 62.7573H113.936V62.8932H114.058V62.7573Z" fill="white"/>
<path d="M113.936 62.7572H114.058V62.6213C113.949 62.6213 113.801 62.6213 113.692 62.6213V62.7572H113.814V62.893H113.936V62.7572Z" fill="black"/>
<path d="M115.397 62.6213H115.275V62.7572H115.397V62.6213Z" fill="black"/>
<path d="M114.545 62.6213H114.423V62.7572H114.545V62.6213Z" fill="black"/>
<path d="M114.423 62.6213H114.301V62.7572H114.423V62.6213Z" fill="white"/>
<path d="M114.666 62.4855V62.6213H114.545V62.7571H114.423V62.893H114.301V63.0288H114.179V63.1647H114.058C114.058 63.2326 114.058 63.3684 114.058 63.4364H113.936C113.936 63.5043 113.936 63.6401 113.936 63.708H113.814C113.814 63.776 113.814 63.9118 113.814 63.9797H113.692V64.1156H113.814V64.2514H113.936V64.3873H114.058C114.058 64.4552 114.058 64.591 114.058 64.6589H114.179C114.179 64.9238 114.179 65.2091 114.179 65.474C114.24 65.474 114.362 65.474 114.423 65.474V65.3382C114.484 65.3382 114.606 65.3382 114.666 65.3382V65.2023C114.727 65.2023 114.849 65.2023 114.91 65.2023V65.0665C114.971 65.0665 115.093 65.0665 115.154 65.0665V64.9306C115.215 64.9306 115.336 64.9306 115.397 64.9306V64.7948H115.519V64.6589C115.58 64.6589 115.702 64.6589 115.763 64.6589V64.5231H115.884V64.3873C115.945 64.3873 116.067 64.3873 116.128 64.3873V64.2514H116.25V64.1156C116.311 64.1156 116.433 64.1156 116.493 64.1156V63.9797H116.615C116.615 63.9118 116.615 63.776 116.615 63.708C116.507 63.708 116.358 63.708 116.25 63.708V63.8439H116.128V63.9797C116.067 63.9797 115.945 63.9797 115.884 63.9797V64.1156H115.763V64.2514C115.702 64.2514 115.58 64.2514 115.519 64.2514V64.3873C115.458 64.3873 115.336 64.3873 115.275 64.3873V64.5231C115.123 64.5231 114.941 64.5231 114.788 64.5231V64.3873H114.666V64.2514H114.545V64.1156H114.423C114.423 63.9947 114.423 63.8289 114.423 63.708H114.545C114.545 63.6401 114.545 63.5043 114.545 63.4364H114.666V63.3005H114.788V63.1647H114.91V63.0288H115.032V62.893H115.154V62.7571H115.275V62.6213H115.397C115.397 62.5534 115.397 62.4175 115.397 62.3496C115.202 62.3496 114.983 62.3496 114.788 62.3496V62.4855H114.666Z" fill="white"/>
<path d="M114.666 62.4856H114.545V62.6214H114.666V62.4856Z" fill="black"/>
<path d="M114.545 62.4856H114.423V62.6214H114.545V62.4856Z" fill="white"/>
<path d="M114.423 62.4856H114.301V62.6214H114.423V62.4856Z" fill="black"/>
<path d="M113.448 62.6214C113.509 62.6214 113.631 62.6214 113.692 62.6214V62.4856C113.584 62.4856 113.435 62.4856 113.327 62.4856V62.6214H113.448Z" fill="black"/>
<path d="M114.788 62.3496H114.667V62.4855H114.788V62.3496Z" fill="black"/>
<path d="M114.666 62.3496H114.545V62.4855H114.666V62.3496Z" fill="white"/>
<path d="M114.545 62.3496H114.423V62.4855H114.545V62.3496Z" fill="black"/>
<path d="M113.57 62.4854H113.692V62.6213C113.8 62.6213 113.949 62.6213 114.057 62.6213V62.7571H114.179V62.6213H114.301V62.4854H114.423V62.3496H114.545V62.2137H114.423V62.0779C113.898 62.0779 113.364 62.0779 112.839 62.0779V62.2137C112.687 62.2137 112.505 62.2137 112.352 62.2137V62.3496C112.673 62.3496 113.006 62.3496 113.327 62.3496V62.4854C113.388 62.4854 113.509 62.4854 113.57 62.4854Z" fill="white"/>
<path d="M114.788 62.2139H114.667V62.3497H114.788V62.2139Z" fill="white"/>
</g>
<rect x="110.436" y="96.3818" width="54.9818" height="13.7455" rx="3" fill="#616161"/>
<path fill-rule="evenodd" clip-rule="evenodd" d="M136.963 94.2109C140.159 94.2109 142.751 91.6197 142.751 88.4233C142.751 85.2269 140.159 82.6357 136.963 82.6357C133.767 82.6357 131.176 85.2269 131.176 88.4233C131.176 91.6197 133.767 94.2109 136.963 94.2109ZM136.54 86.2641C136.54 86.0244 136.735 85.8301 136.974 85.8301C137.214 85.8301 137.408 86.0244 137.408 86.2641V88.0004H139.145C139.384 88.0004 139.579 88.1948 139.579 88.4345C139.579 88.6742 139.384 88.8685 139.145 88.8685H137.408V90.6048C137.408 90.8445 137.214 91.0389 136.974 91.0389C136.735 91.0389 136.54 90.8445 136.54 90.6048V88.8685H134.804C134.564 88.8685 134.37 88.6742 134.37 88.4345C134.37 88.1948 134.564 88.0004 134.804 88.0004H136.54V86.2641Z" fill="#616161"/>
<g filter="url(#filter0_b_525_39550)">
<rect x="106" y="56" width="127" height="61" rx="6" fill="#292929" fill-opacity="0.5"/>
</g>
<rect x="195" y="26" width="52" height="24" rx="12" fill="#6F6F6F"/>
<path d="M204.463 43H208.346C211.299 43 212.973 41.1953 212.973 38.0098V37.9961C212.973 34.9062 211.278 33.1357 208.346 33.1357H204.463V43ZM206.527 41.2979V34.8379H208.017C209.808 34.8379 210.868 36 210.868 38.0303V38.0439C210.868 40.1494 209.843 41.2979 208.017 41.2979H206.527ZM217.78 43.1572C220.097 43.1572 221.492 41.6943 221.492 39.2402V39.2266C221.492 36.793 220.077 35.3096 217.78 35.3096C215.483 35.3096 214.068 36.7998 214.068 39.2266V39.2402C214.068 41.6875 215.463 43.1572 217.78 43.1572ZM217.78 41.5918C216.713 41.5918 216.112 40.7236 216.112 39.2402V39.2266C216.112 37.7568 216.72 36.875 217.78 36.875C218.833 36.875 219.448 37.7568 219.448 39.2266V39.2402C219.448 40.7236 218.839 41.5918 217.78 41.5918ZM222.819 43H224.815V38.6455C224.815 37.627 225.375 36.9639 226.298 36.9639C227.242 36.9639 227.679 37.5244 227.679 38.584V43H229.675V38.1328C229.675 36.335 228.773 35.3096 227.098 35.3096C226.025 35.3096 225.28 35.8223 224.938 36.6357H224.815V35.4736H222.819V43ZM234.618 43.1572C236.82 43.1572 237.79 41.8857 238.023 40.9424L238.036 40.874H236.177L236.156 40.915C236.02 41.2021 235.534 41.667 234.659 41.667C233.6 41.667 232.937 40.9492 232.916 39.7119H238.098V39.0898C238.098 36.8135 236.731 35.3096 234.536 35.3096C232.342 35.3096 230.941 36.8477 230.941 39.2402V39.2471C230.941 41.6602 232.328 43.1572 234.618 43.1572ZM234.571 36.8066C235.439 36.8066 236.061 37.3672 236.184 38.4609H232.937C233.06 37.3945 233.702 36.8066 234.571 36.8066Z" fill="white"/>
<path d="M281 38L243.37 38.1338" stroke="#F63F3F" stroke-width="3" stroke-linecap="round" stroke-linejoin="round"/>
<path d="M248.37 43.1348L243.37 38.1348L248.37 33.1348" stroke="#F63F3F" stroke-width="3" stroke-linecap="round" stroke-linejoin="round"/>
</g>
<defs>
<filter id="filter0_b_525_39550" x="105.5" y="55.5" width="128" height="62" filterUnits="userSpaceOnUse" color-interpolation-filters="sRGB">
<feFlood flood-opacity="0" result="BackgroundImageFix"/>
<feGaussianBlur in="BackgroundImageFix" stdDeviation="0.25"/>
<feComposite in2="SourceAlpha" operator="in" result="effect1_backgroundBlur_525_39550"/>
<feBlend mode="normal" in="SourceGraphic" in2="effect1_backgroundBlur_525_39550" result="shape"/>
</filter>
<clipPath id="clip0_525_39550">
<rect width="347" height="124" rx="12" fill="white"/>
</clipPath>
<clipPath id="clip1_525_39550">
<rect width="5.72727" height="5.72727" fill="white" transform="translate(222.691 63.1641)"/>
</clipPath>
<clipPath id="clip2_525_39550">
<rect width="5.01136" height="5.01136" fill="white" transform="translate(228.06 68.5334) rotate(180)"/>
</clipPath>
<clipPath id="clip3_525_39550">
<rect x="110.437" y="60.873" width="9.16364" height="9.16364" rx="2" fill="white"/>
</clipPath>
</defs>
</svg>
