<svg width="18" height="18" viewBox="0 0 18 18" fill="none" xmlns="http://www.w3.org/2000/svg">
<path fill-rule="evenodd" clip-rule="evenodd" d="M13.3787 6.75729C13.1808 6.50923 12.954 6.28523 12.7034 6.09039C12.7654 5.70172 12.766 5.3045 12.704 4.91337C12.6114 4.32887 12.3818 3.77457 12.034 3.29581C11.6861 2.81704 11.2299 2.42739 10.7026 2.15873C10.1754 1.89006 9.59197 1.75 9.00018 1.75C8.40839 1.75 7.825 1.89006 7.29771 2.15873C6.77043 2.42739 6.31421 2.81704 5.96636 3.29581C5.61852 3.77457 5.38892 4.32887 5.29635 4.91337C5.2344 5.3045 5.23498 5.70173 5.29694 6.09039C5.04636 6.28523 4.81957 6.50923 4.62166 6.75729L1.68208 6.02239C1.28023 5.92193 0.873032 6.16625 0.772571 6.5681C0.672109 6.96994 0.91643 7.37715 1.31828 7.47761L3.91037 8.12563C3.8061 8.48231 3.75018 8.85963 3.75018 9.25V9.75H1.50018C1.08596 9.75 0.750177 10.0858 0.750177 10.5C0.750177 10.9142 1.08596 11.25 1.50018 11.25H3.75018V12.3974C3.75018 12.5688 3.76078 12.7388 3.78154 12.9066L1.31828 13.5224C0.91643 13.6229 0.672109 14.0301 0.772571 14.4319C0.873032 14.8337 1.28023 15.0781 1.68208 14.9776L4.23374 14.3397C4.56633 14.9662 5.05937 15.5068 5.67797 15.8982C7.70681 17.1817 10.2935 17.1817 12.3224 15.8982C12.941 15.5068 13.434 14.9662 13.7666 14.3397L16.3183 14.9776C16.7201 15.0781 17.1273 14.8337 17.2278 14.4319C17.3282 14.0301 17.0839 13.6229 16.6821 13.5224L14.2188 12.9066C14.2396 12.7388 14.2502 12.5688 14.2502 12.3974V11.25H16.5002C16.9144 11.25 17.2502 10.9142 17.2502 10.5C17.2502 10.0858 16.9144 9.75 16.5002 9.75H14.2502V9.25C14.2502 8.85962 14.1943 8.48231 14.09 8.12563L16.6821 7.47761C17.0839 7.37715 17.3282 6.96994 17.2278 6.5681C17.1273 6.16625 16.7201 5.92193 16.3183 6.02239L13.3787 6.75729ZM12.7502 9.75V9.25C12.7502 7.86929 11.6309 6.75 10.2502 6.75H7.75018C6.36947 6.75 5.25018 7.86929 5.25018 9.25V9.75V11.25V12.3974C5.25018 13.3034 5.7143 14.1462 6.47993 14.6306C8.01902 15.6043 9.98133 15.6043 11.5204 14.6306C12.2861 14.1462 12.7502 13.3034 12.7502 12.3974V11.25V9.75ZM6.77788 5.14802C6.76593 5.22344 6.75786 5.29924 6.75364 5.37513C7.07222 5.29344 7.40613 5.25 7.75018 5.25H10.2502C10.5942 5.25 10.9281 5.29344 11.2467 5.37513C11.2425 5.29924 11.2344 5.22344 11.2225 5.14802C11.1669 4.79732 11.0292 4.46474 10.8205 4.17748C10.6118 3.89022 10.338 3.65644 10.0217 3.49524C9.70528 3.33404 9.35525 3.25 9.00018 3.25C8.6451 3.25 8.29507 3.33404 7.9787 3.49524C7.66233 3.65644 7.3886 3.89022 7.17989 4.17748C6.97118 4.46474 6.83342 4.79732 6.77788 5.14802Z" fill="white"/>
</svg>
