<svg width="32" height="32" viewBox="0 0 32 32" fill="none" xmlns="http://www.w3.org/2000/svg">
<path d="M9.25 12.8333H12.75V17.5748C12.75 18.401 13.2787 19.1345 14.0625 19.3958V19.3958C14.8463 19.6571 15.375 20.3906 15.375 21.2168V26.5833C15.375 27.6879 14.4796 28.5833 13.375 28.5833H12.75H9.25H8.625C7.52043 28.5833 6.625 27.6879 6.625 26.5833V21.2168C6.625 20.3906 7.15369 19.6571 7.9375 19.3958V19.3958C8.72131 19.1345 9.25 18.401 9.25 17.5748V12.8333Z" fill="white" fill-opacity="0.5"/>
<path fill-rule="evenodd" clip-rule="evenodd" d="M8.03015 3.45346C8.81781 2.73624 9.88609 2.33331 11 2.33331C12.1139 2.33331 13.1822 2.73624 13.9698 3.45346C14.7575 4.17068 15.2 5.14344 15.2 6.15774V18.86C16.1998 19.5428 16.985 20.4601 17.4672 21.52C18.0568 22.8164 18.1603 24.2537 17.7615 25.609C17.3627 26.9643 16.4838 28.162 15.2613 29.0161C14.0388 29.8703 12.5409 30.3333 11 30.3333C9.45906 30.3333 7.96118 29.8703 6.73867 29.0161C5.51616 28.162 4.63735 26.9643 4.23852 25.609C3.8397 24.2537 3.94315 22.8164 4.53285 21.52C5.015 20.4601 5.8002 19.5428 6.8 18.86V6.15774C6.8 5.14344 7.2425 4.17068 8.03015 3.45346ZM11 4.88293C10.6287 4.88293 10.2726 5.01724 10.0101 5.25631C9.7475 5.49538 9.6 5.81964 9.6 6.15774V19.5432C9.6 19.9987 9.33316 20.4195 8.9 20.6472C8.09931 21.0682 7.47352 21.7179 7.11971 22.4957C6.76589 23.2735 6.70382 24.1359 6.94311 24.9491C7.18241 25.7623 7.7097 26.4809 8.4432 26.9934C9.17671 27.5059 10.0754 27.7837 11 27.7837C11.9246 27.7837 12.8233 27.5059 13.5568 26.9934C14.2903 26.4809 14.8176 25.7623 15.0569 24.9491C15.2962 24.1359 15.2341 23.2735 14.8803 22.4957C14.5265 21.7179 13.9007 21.0682 13.1 20.6472C12.6668 20.4195 12.4 19.9987 12.4 19.5432V6.15774C12.4 5.81964 12.2525 5.49538 11.9899 5.25631C11.7274 5.01724 11.3713 4.88293 11 4.88293Z" fill="white"/>
<path d="M19 12H29" stroke="white" stroke-width="2" stroke-linecap="round" stroke-linejoin="round"/>
</svg>
