<svg width="32" height="32" viewBox="0 0 32 32" fill="none" xmlns="http://www.w3.org/2000/svg">
<g clip-path="url(#clip0_2027_30760)">
<path fill-rule="evenodd" clip-rule="evenodd" d="M8.00008 16C7.59842 16 7.27281 15.6744 7.27281 15.2727V0.727272C7.27281 0.325611 7.59842 0 8.00008 0C8.40174 0 8.72735 0.325611 8.72735 0.727272V15.2727C8.72735 15.6744 8.40174 16 8.00008 16Z" fill="white"/>
<path fill-rule="evenodd" clip-rule="evenodd" d="M0 8.00008C0 7.59842 0.325611 7.27281 0.727273 7.27281H15.2727C15.6744 7.27281 16 7.59842 16 8.00008C16 8.40174 15.6744 8.72736 15.2727 8.72736H0.727273C0.325611 8.72736 0 8.40174 0 8.00008Z" fill="white"/>
<path fill-rule="evenodd" clip-rule="evenodd" d="M4.5767 1.66761C4.86071 1.3836 5.3212 1.3836 5.60522 1.66761L8.00005 4.06245L10.3949 1.66761C10.6789 1.3836 11.1394 1.3836 11.4234 1.66761C11.7074 1.95163 11.7074 2.41212 11.4234 2.69613L8.51431 5.60522C8.23029 5.88924 7.76981 5.88924 7.48579 5.60522L4.5767 2.69613C4.29268 2.41212 4.29268 1.95163 4.5767 1.66761Z" fill="white"/>
<path fill-rule="evenodd" clip-rule="evenodd" d="M4.5767 14.3326C4.29268 14.0486 4.29268 13.5881 4.5767 13.3041L7.48579 10.395C7.76981 10.111 8.23029 10.111 8.51431 10.395L11.4234 13.3041C11.7074 13.5881 11.7074 14.0486 11.4234 14.3326C11.1394 14.6166 10.6789 14.6166 10.3949 14.3326L8.00005 11.9377L5.60522 14.3326C5.3212 14.6166 4.86071 14.6166 4.5767 14.3326Z" fill="white"/>
<path fill-rule="evenodd" clip-rule="evenodd" d="M1.66752 11.4235C1.3835 11.1394 1.3835 10.679 1.66752 10.3949L4.06235 8.00011L1.66752 5.60528C1.3835 5.32126 1.3835 4.86078 1.66752 4.57676C1.95153 4.29274 2.41202 4.29274 2.69604 4.57676L5.60513 7.48585C5.88914 7.76987 5.88914 8.23035 5.60513 8.51437L2.69604 11.4235C2.41202 11.7075 1.95153 11.7075 1.66752 11.4235Z" fill="white"/>
<path fill-rule="evenodd" clip-rule="evenodd" d="M10.3948 8.51437C10.1108 8.23035 10.1108 7.76987 10.3948 7.48585L13.3039 4.57676C13.5879 4.29274 14.0484 4.29274 14.3324 4.57676C14.6164 4.86078 14.6164 5.32126 14.3324 5.60528L11.9375 8.00011L14.3324 10.3949C14.6164 10.679 14.6164 11.1394 14.3324 11.4235C14.0484 11.7075 13.5879 11.7075 13.3039 11.4235L10.3948 8.51437Z" fill="white"/>
<path fill-rule="evenodd" clip-rule="evenodd" d="M28.1142 15.7084C27.8239 15.6426 27.5234 15.6554 27.2386 15.7456C26.9539 15.8359 26.6935 16.0009 26.4799 16.2264C25.9963 16.7372 25.2266 16.7212 24.7609 16.1907C24.2952 15.6602 24.3097 14.816 24.7934 14.3052C25.2916 13.779 25.8992 13.394 26.5637 13.1834C27.2281 12.9728 27.9293 12.9431 28.6066 13.0967C29.2839 13.2503 29.9168 13.5827 30.4506 14.0651C30.9844 14.5475 31.403 15.1653 31.67 15.865C31.9371 16.5648 32.0446 17.3254 31.9833 18.081C31.922 18.8366 31.6937 19.5644 31.3181 20.2015C30.9426 20.8385 30.4311 21.3655 29.8281 21.7369C29.225 22.1083 28.5485 22.3129 27.8571 22.3329C27.8464 22.3332 27.8358 22.3333 27.8251 22.3333H3.54914C2.87769 22.3333 2.33337 21.7363 2.33337 20.9998C2.33337 20.2634 2.87769 19.6663 3.54914 19.6663H27.807C28.0984 19.6554 28.3833 19.568 28.6377 19.4114C28.8961 19.2522 29.1153 19.0264 29.2763 18.7533C29.4372 18.4803 29.535 18.1684 29.5613 17.8446C29.5876 17.5208 29.5415 17.1948 29.4271 16.8949C29.3126 16.595 29.1332 16.3302 28.9045 16.1235C28.6757 15.9167 28.4044 15.7743 28.1142 15.7084Z" fill="white"/>
<path fill-rule="evenodd" clip-rule="evenodd" d="M19.8839 12.5761C19.6845 12.5409 19.4785 12.551 19.2845 12.6056C19.0904 12.6602 18.9144 12.7575 18.7721 12.8888C18.2972 13.3269 17.5197 13.3339 17.0354 12.9043C16.551 12.4746 16.5434 11.7712 17.0182 11.333C17.445 10.9392 17.9732 10.6473 18.5553 10.4836C19.1374 10.3198 19.7554 10.2894 20.3538 10.3949C20.9521 10.5004 21.5122 10.7385 21.9838 11.0881C22.4554 11.4376 22.8237 11.8875 23.0559 12.3975C23.288 12.9075 23.3766 13.4616 23.3138 14.0102C23.2509 14.5588 23.0386 15.0847 22.6958 15.5409C22.3531 15.997 21.8906 16.369 21.3498 16.6236C20.8118 16.8769 20.2131 17.0061 19.6067 16.9998H14.5615C13.8832 16.9998 13.3334 16.5023 13.3334 15.8886C13.3334 15.275 13.8832 14.7775 14.5615 14.7775H19.6318C19.835 14.7801 20.0357 14.7372 20.2159 14.6523C20.3962 14.5674 20.5504 14.4434 20.6646 14.2914C20.7789 14.1393 20.8497 13.964 20.8706 13.7812C20.8915 13.5983 20.862 13.4136 20.7846 13.2436C20.7073 13.0736 20.5845 12.9236 20.4273 12.8071C20.2701 12.6906 20.0834 12.6112 19.8839 12.5761Z" fill="white"/>
<path fill-rule="evenodd" clip-rule="evenodd" d="M21.547 25.0002C22.163 24.9939 22.7714 25.1231 23.318 25.3764C23.8674 25.631 24.3373 26.003 24.6856 26.4591C25.0339 26.9152 25.2496 27.4412 25.3134 27.9898C25.3773 28.5384 25.2872 29.0925 25.0514 29.6025C24.8156 30.1125 24.4413 30.5624 23.9622 30.9119C23.483 31.2614 22.9139 31.4996 22.306 31.6051C21.698 31.7106 21.0702 31.6801 20.4787 31.5164C19.8872 31.3527 19.3506 31.0608 18.917 30.667C18.4345 30.2288 18.4423 29.5253 18.9344 29.0957C19.4265 28.6661 20.2165 28.673 20.699 29.1112C20.8435 29.2425 21.0224 29.3398 21.2195 29.3944C21.4167 29.4489 21.626 29.4591 21.8286 29.4239C22.0313 29.3888 22.221 29.3094 22.3807 29.1929C22.5404 29.0764 22.6652 28.9264 22.7438 28.7564C22.8224 28.5864 22.8524 28.4017 22.8311 28.2188C22.8098 28.0359 22.7379 27.8606 22.6218 27.7086C22.5057 27.5566 22.3491 27.4326 22.166 27.3477C21.9828 27.2628 21.7789 27.2197 21.5724 27.2223L21.5549 27.2226L3.58118 27.2224C2.89204 27.2224 2.33337 26.725 2.33337 26.1113C2.33337 25.4977 2.89204 25.0002 3.58118 25.0002H21.547Z" fill="white"/>
</g>
<defs>
<clipPath id="clip0_2027_30760">
<rect width="32" height="32" fill="white" transform="matrix(0 -1 1 0 0 32)"/>
</clipPath>
</defs>
</svg>
