<svg width="24" height="24" viewBox="0 0 24 24" fill="none" xmlns="http://www.w3.org/2000/svg">
<circle cx="12" cy="12" r="10" stroke="black" stroke-width="2"/>
<path d="M10.7653 13.7371H12.7029V13.4578C12.7029 12.8106 12.9724 12.47 13.9412 11.9455C14.9683 11.3801 15.5 10.6648 15.5 9.64305V9.63624C15.5 8.07629 14.116 7 12.0401 7C9.80385 7 8.55827 8.17847 8.5 9.77929V9.84741H10.474L10.4813 9.79292C10.525 9.09128 11.0713 8.58038 11.9089 8.58038C12.732 8.58038 13.2929 9.0436 13.2929 9.69755V9.70436C13.2929 10.3379 13.0088 10.6785 12.0692 11.203C11.064 11.7548 10.6852 12.3747 10.7581 13.342L10.7653 13.7371ZM11.7633 17C12.4261 17 12.9579 16.53 12.9579 15.9305C12.9579 15.3311 12.4261 14.861 11.7633 14.861C11.1077 14.861 10.576 15.3311 10.576 15.9305C10.576 16.53 11.1077 17 11.7633 17Z" fill="black"/>
</svg>
