<?xml version="1.0" encoding="UTF-8" standalone="no"?>
<!DOCTYPE svg PUBLIC "-//W3C//DTD SVG 1.1//EN" "http://www.w3.org/Graphics/SVG/1.1/DTD/svg11.dtd">
<svg width="100%" height="100%" viewBox="0 0 315 132" version="1.1" xmlns="http://www.w3.org/2000/svg" xmlns:xlink="http://www.w3.org/1999/xlink" xml:space="preserve" xmlns:serif="http://www.serif.com/" style="fill-rule:evenodd;clip-rule:evenodd;stroke-linejoin:round;stroke-miterlimit:2;">
    <path d="M63.622,0.927L260.711,0.927C266.778,1.082 273,2.473 277.978,8.192C282.956,13.911 304.267,40.187 306.444,42.97C308.622,45.752 310.956,49.307 311.578,55.18C312.2,61.054 313.911,100.468 313.911,105.878C313.911,111.597 312.2,113.916 310.956,116.543C309.711,118.862 307.845,122.726 306.6,125.045C305.356,127.363 301.156,130.918 294.467,131.073L50.089,131.073C42.933,131.073 37.022,128.445 33.133,123.19C29.244,118.089 7.933,88.876 7,87.33C5.445,84.857 4.2,80.993 2.022,76.665C0.622,73.883 0,69.555 3.578,64.609C7.311,59.663 43.711,12.675 46.978,8.965C50.245,5.101 55.844,0.773 63.622,0.927Z" style="fill:rgb(79,74,84);fill-rule:nonzero;"/>
</svg>
