<svg width="18" height="18" viewBox="0 0 18 18" fill="none" xmlns="http://www.w3.org/2000/svg">
<path fill-rule="evenodd" clip-rule="evenodd" d="M9 1.5C8.17157 1.5 7.5 2.17157 7.5 3V3.25606C5.75221 3.87381 4.5 5.54067 4.5 7.5L4.5 8.625V10.1997L3.2869 11.8677C2.95506 12.324 2.90731 12.9279 3.16333 13.4307C3.41934 13.9334 3.93581 14.25 4.5 14.25H6.75C6.75 15.4926 7.75736 16.5 9 16.5C10.2426 16.5 11.25 15.4926 11.25 14.25H13.5C14.0642 14.25 14.5807 13.9334 14.8367 13.4307C15.0927 12.9279 15.0449 12.324 14.7131 11.8677L13.5 10.1997L13.5 8.625V7.5C13.5 5.54067 12.2478 3.87381 10.5 3.25606V3C10.5 2.17157 9.82843 1.5 9 1.5ZM9.75089 12.75H9.75H8.25L6.35475 12.75H4.5L5.59091 11.25L5.71311 11.082C5.89956 10.8256 6 10.5167 6 10.1997V8.625V7.5C6 5.84315 7.34315 4.5 9 4.5C10.6569 4.5 12 5.84315 12 7.5L12 8.625V10.1997C12 10.5167 12.1004 10.8256 12.2869 11.082L12.4091 11.25L13.5 12.75H11.6453H9.75089ZM9 15C8.58579 15 8.25 14.6642 8.25 14.25H9.75C9.75 14.6642 9.41421 15 9 15ZM12.8036 2.72146C12.9575 2.33687 13.394 2.14981 13.7785 2.30364L13.5 3C13.7785 2.30364 13.779 2.30383 13.7795 2.30403L13.7805 2.30442L13.7826 2.30527L13.7872 2.30716L13.7981 2.31175C13.8062 2.31516 13.8156 2.31931 13.8265 2.32424C13.8482 2.33408 13.8755 2.34706 13.9075 2.3635C13.9714 2.39636 14.0546 2.44332 14.1504 2.50721C14.342 2.63495 14.586 2.83168 14.8262 3.11986C15.3164 3.70818 15.75 4.6292 15.75 6C15.75 6.41421 15.4142 6.75 15 6.75C14.5858 6.75 14.25 6.41421 14.25 6C14.25 4.9708 13.9336 4.39182 13.6738 4.08014C13.539 3.91832 13.408 3.81505 13.3183 3.75529C13.2736 3.72543 13.2396 3.70676 13.2214 3.69743C13.2152 3.69424 13.2109 3.69217 13.2088 3.69115C12.8328 3.53288 12.6515 3.10179 12.8036 2.72146ZM4.22146 2.30364C4.60604 2.14981 5.04252 2.33687 5.19636 2.72146C5.34849 3.10179 5.16722 3.53288 4.79122 3.69115C4.78906 3.69217 4.78477 3.69424 4.77856 3.69743C4.76042 3.70676 4.72643 3.72543 4.68165 3.75529C4.59201 3.81505 4.46101 3.91832 4.32617 4.08014C4.06643 4.39182 3.75 4.9708 3.75 6C3.75 6.41421 3.41421 6.75 3 6.75C2.58579 6.75 2.25 6.41421 2.25 6C2.25 4.6292 2.68357 3.70818 3.17383 3.11986C3.41399 2.83168 3.65799 2.63495 3.8496 2.50721C3.94544 2.44332 4.02865 2.39636 4.09254 2.3635C4.12451 2.34706 4.15177 2.33408 4.17349 2.32424C4.18435 2.31931 4.19385 2.31516 4.20187 2.31175L4.2128 2.30716L4.21741 2.30527L4.21951 2.30442L4.2205 2.30403C4.22098 2.30383 4.22146 2.30364 4.5 3L4.22146 2.30364Z" fill="#589DFF"/>
</svg>
