<svg width="36" height="36" viewBox="0 0 36 36" fill="none" xmlns="http://www.w3.org/2000/svg">
<g clip-path="url(#clip0_2310_10828)">
<rect width="36" height="36" rx="18" fill="#FF8200"/>
<path d="M26.1873 35.6868C26.1873 35.2118 26.1873 34.5607 26.1873 34.0858H25.7089C25.7089 33.6108 25.7089 32.9597 25.7089 32.4847H25.2304C25.2304 31.6309 25.2304 30.6703 25.2304 29.8164H25.7089C25.7089 29.5496 25.7089 29.0159 25.7089 28.7491C26.307 28.7491 27.0247 28.7491 27.6228 28.7491V28.2154C28.0486 28.2154 28.6324 28.2154 29.0582 28.2154V27.6817C29.4841 27.6817 30.0678 27.6817 30.4937 27.6817V27.148C30.9195 27.148 31.5033 27.148 31.9291 27.148V26.6144C32.1684 26.6144 32.6468 26.6144 32.8861 26.6144V26.0807H33.3646V25.547H33.843V25.0134H34.3215V24.4797H34.8C34.8 23.6258 34.8 22.6652 34.8 21.8113H34.3215V21.2777C31.6181 21.2777 28.8908 21.2777 26.1873 21.2777V20.744H26.6658V20.2103H27.1443V19.6766H27.6228V19.143H28.1013V18.6093H28.5797V18.0756H29.0582V17.542H29.5367V17.0083H30.0152V16.4746H30.4937V15.941H30.9722V15.4073H31.4506V14.8736H31.9291V14.3399H32.4076V13.8063H32.8861V13.2726H33.3646V12.7389H33.843C33.843 12.0718 33.843 11.2713 33.843 10.6042H33.3646V10.0706C32.9387 10.0706 32.355 10.0706 31.9291 10.0706V9.5369C30.508 9.5369 29.0439 9.5369 27.6228 9.5369V10.0706C27.3835 10.0706 26.9051 10.0706 26.6658 10.0706V10.6042C26.4266 10.6042 25.9481 10.6042 25.7089 10.6042V11.1379C25.4696 11.1379 24.9911 11.1379 24.7519 11.1379V10.6042H24.2734C24.2734 10.3374 24.2734 9.80374 24.2734 9.5369H23.7949C23.7949 9.27007 23.7949 8.7364 23.7949 8.46956H23.3165V7.93589H22.838V7.40222H22.3595V6.86855H21.881V6.33488C21.6418 6.33488 21.1633 6.33488 20.924 6.33488V5.80121C20.6848 5.80121 20.2063 5.80121 19.9671 5.80121V5.26754C19.5412 5.26754 18.9575 5.26754 18.5316 5.26754V4.73387C17.7661 4.73387 16.9048 4.73387 16.1392 4.73387V4.2002C13.7564 4.2002 11.3449 4.2002 8.96202 4.2002V4.73387C8.36392 4.73387 7.6462 4.73387 7.0481 4.73387V5.26754C6.62225 5.26754 6.03851 5.26754 5.61266 5.26754V5.80121H5.13418V6.33488C4.89494 6.33488 4.41646 6.33488 4.17721 6.33488V6.86855C3.93797 6.86855 3.45949 6.86855 3.22025 6.86855V7.40222H2.74177V7.93589H2.26329V8.46956H1.78481V9.00323H1.30633V9.5369H0.827848C0.827848 9.80374 0.827848 10.3374 0.827848 10.6042H0.349367C0.349367 10.8711 0.349367 11.4048 0.349367 11.6716H-0.129114C-0.129114 11.9384 -0.129114 12.4721 -0.129114 12.7389H-0.607595C-0.607595 13.0058 -0.607595 13.5394 -0.607595 13.8063H-1.08608C-1.08608 14.0731 -1.08608 14.6068 -1.08608 14.8736H-1.56456C-1.56456 15.1404 -1.56456 15.6741 -1.56456 15.941H-2.04304C-2.04304 16.4159 -2.04304 17.067 -2.04304 17.542H-2.52152C-2.52152 18.2091 -2.52152 19.0096 -2.52152 19.6766H-3C-3 21.2617 -3 22.8947 -3 24.4797H-2.52152C-2.52152 23.0761 -2.52152 21.6139 -2.52152 20.2103H-2.04304C-2.04304 19.5432 -2.04304 18.7427 -2.04304 18.0756H-1.56456C-1.56456 17.6007 -1.56456 16.9496 -1.56456 16.4746H-1.08608C-1.08608 16.2078 -1.08608 15.6741 -1.08608 15.4073H-0.607595C-0.607595 15.1404 -0.607595 14.6068 -0.607595 14.3399H-0.129114C-0.129114 14.0731 -0.129114 13.5394 -0.129114 13.2726H0.349367C0.349367 13.0058 0.349367 12.4721 0.349367 12.2053H0.827848C0.827848 11.9384 0.827848 11.4048 0.827848 11.1379H1.30633C1.30633 10.8711 1.30633 10.3374 1.30633 10.0706H1.78481V9.5369H2.26329V9.00323H2.74177V8.46956H3.22025V7.93589H3.69873V7.40222C3.93797 7.40222 4.41646 7.40222 4.6557 7.40222V6.86855C4.89494 6.86855 5.37342 6.86855 5.61266 6.86855V6.33488C7.51223 6.33488 9.45486 6.33488 11.3544 6.33488V5.80121C10.096 5.80121 8.78499 5.80121 7.52658 5.80121V5.26754C8.12468 5.26754 8.8424 5.26754 9.44051 5.26754V4.73387C11.5028 4.73387 13.5985 4.73387 15.6608 4.73387V5.26754H16.1392V5.80121H16.6177V5.26754H17.0962V5.80121C17.8618 5.80121 18.723 5.80121 19.4886 5.80121C19.4886 6.06804 19.4886 6.60171 19.4886 6.86855C20.0867 6.86855 20.8044 6.86855 21.4025 6.86855V7.40222H21.881V7.93589H22.3595V8.46956H22.838V9.00323H23.3165C23.3165 9.4782 23.3165 10.1293 23.3165 10.6042H22.838V11.1379C23.2638 11.1379 23.8476 11.1379 24.2734 11.1379C24.2734 11.4048 24.2734 11.9384 24.2734 12.2053C24.5127 12.2053 24.9911 12.2053 25.2304 12.2053V11.6716C25.4696 11.6716 25.9481 11.6716 26.1873 11.6716V11.1379C26.4266 11.1379 26.9051 11.1379 27.1443 11.1379V10.6042C27.3835 10.6042 27.862 10.6042 28.1013 10.6042V10.0706C29.197 10.0706 30.3549 10.0706 31.4506 10.0706V10.6042C31.8765 10.6042 32.4602 10.6042 32.8861 10.6042V11.1379H33.3646V11.6716C32.7665 11.6716 32.0487 11.6716 31.4506 11.6716V12.2053C31.0248 12.2053 30.441 12.2053 30.0152 12.2053V12.7389C29.7759 12.7389 29.2975 12.7389 29.0582 12.7389V13.2726C28.819 13.2726 28.3405 13.2726 28.1013 13.2726V13.8063H27.6228V14.3399H27.1443V14.8736H26.6658V15.4073H26.1873V15.941H25.7089V16.4746H25.2304V17.0083H24.7519V17.542H24.2734V18.0756H23.7949V18.6093H23.3165V19.143H22.838V19.6766H22.3595V20.2103H21.881V20.744H21.4025V21.2777H20.924V21.8113H20.4456V22.345H19.9671V22.8787C19.7278 22.8787 19.2494 22.8787 19.0101 22.8787V23.4123C18.7709 23.4123 18.2924 23.4123 18.0532 23.4123V23.946C17.6273 23.946 17.0436 23.946 16.6177 23.946V24.4797C15.8522 24.4797 14.9909 24.4797 14.2253 24.4797V25.0134C18.3642 25.0134 22.527 25.0134 26.6658 25.0134V24.4797C24.7663 24.4797 22.8236 24.4797 20.924 24.4797C20.924 24.2129 20.924 23.6792 20.924 23.4123H21.4025V22.8787H21.881V22.345H22.3595V21.8113C23.4552 21.8113 24.6131 21.8113 25.7089 21.8113V22.345C26.307 22.345 27.0247 22.345 27.6228 22.345V21.8113C29.5224 21.8113 31.465 21.8113 33.3646 21.8113V22.345C33.6038 22.345 34.0823 22.345 34.3215 22.345C34.3215 22.82 34.3215 23.471 34.3215 23.946H33.843V24.4797H33.3646V25.0134H32.8861V25.547H32.4076V26.0807C32.1684 26.0807 31.6899 26.0807 31.4506 26.0807V26.6144C31.0248 26.6144 30.441 26.6144 30.0152 26.6144V27.148C29.5893 27.148 29.0056 27.148 28.5797 27.148V27.6817C28.1539 27.6817 27.5702 27.6817 27.1443 27.6817V28.2154C26.5462 28.2154 25.8285 28.2154 25.2304 28.2154V28.7491C24.6323 28.7491 23.9146 28.7491 23.3165 28.7491V29.2827C22.8906 29.2827 22.3069 29.2827 21.881 29.2827V29.8164C21.6418 29.8164 21.1633 29.8164 20.924 29.8164V30.3501C20.6848 30.3501 20.2063 30.3501 19.9671 30.3501C19.9671 30.6169 19.9671 31.1506 19.9671 31.4174H20.4456V30.8837H20.924V31.4174H21.4025V31.9511H21.881V31.4174H22.3595V31.9511H22.838V32.4847H23.3165V31.9511H23.7949V32.4847H24.2734V33.0184H24.7519V33.5521H25.2304V34.0858H24.7519V34.6194C24.9911 34.6194 25.4696 34.6194 25.7089 34.6194C25.7089 35.0944 25.7089 35.7455 25.7089 36.2204C25.9481 36.2204 26.4266 36.2204 26.6658 36.2204V35.6868H26.1873Z" fill="black"/>
<path d="M25.7089 35.1532V34.6195C25.4696 34.6195 24.9911 34.6195 24.7519 34.6195V35.1532H24.2734V34.6195H23.7949V35.1532H23.3165V34.6195H22.838V34.0859H22.3595V34.6195H21.881V34.0859H21.4025V34.6195H20.9241V34.0859H20.4456V33.5522H19.9671V33.0185H19.4886V32.4848H19.0101V33.0185H18.5316V32.4848H18.0532V31.9512H18.5316V31.4175H18.0532V30.8838H18.5316V31.4175H19.0101V30.8838H19.4886V31.4175H19.9671C19.9671 31.1507 19.9671 30.617 19.9671 30.3502C20.2063 30.3502 20.6848 30.3502 20.9241 30.3502V29.8165C21.1633 29.8165 21.6418 29.8165 21.881 29.8165V29.2828C22.3069 29.2828 22.8906 29.2828 23.3165 29.2828V28.7491C23.9146 28.7491 24.6323 28.7491 25.2304 28.7491V28.2155C25.8285 28.2155 26.5462 28.2155 27.1443 28.2155V27.6818C27.5702 27.6818 28.1539 27.6818 28.5797 27.6818V27.1481C29.0056 27.1481 29.5893 27.1481 30.0152 27.1481V26.6145C30.441 26.6145 31.0248 26.6145 31.4506 26.6145V26.0808C31.6899 26.0808 32.1684 26.0808 32.4076 26.0808V25.5471H32.8861V25.0134H33.3646V24.4798H33.843V23.9461H34.3215C34.3215 23.4711 34.3215 22.8201 34.3215 22.3451C34.0823 22.3451 33.6038 22.3451 33.3646 22.3451V22.8788C33.1253 22.8788 32.6468 22.8788 32.4076 22.8788V23.4124C31.9817 23.4124 31.398 23.4124 30.9722 23.4124V23.9461C30.3741 23.9461 29.6563 23.9461 29.0582 23.9461V24.4798C28.2927 24.4798 27.4314 24.4798 26.6658 24.4798V25.0134C22.527 25.0134 18.3642 25.0134 14.2253 25.0134V24.4798C13.9861 24.4798 13.5076 24.4798 13.2684 24.4798V23.9461H12.7899V23.4124H13.2684V23.9461C13.5076 23.9461 13.9861 23.9461 14.2253 23.9461V24.4798C14.9909 24.4798 15.8522 24.4798 16.6177 24.4798V23.9461C17.0436 23.9461 17.6273 23.9461 18.0532 23.9461V23.4124C18.2924 23.4124 18.7709 23.4124 19.0101 23.4124V22.8788C19.2494 22.8788 19.7279 22.8788 19.9671 22.8788V22.3451H20.4456V21.8114H20.9241V21.2777H21.4025V20.7441H21.881V20.2104H22.3595V19.6767H22.838V19.1431H23.3165V18.6094H23.7949V18.0757H24.2734V17.5421H24.7519V17.0084H25.2304V16.4747H25.7089V15.941H26.1873V15.4074H26.6658V14.8737H27.1443V14.34H27.6228V13.8064H28.1013V13.2727C28.3405 13.2727 28.819 13.2727 29.0582 13.2727V12.739C29.2975 12.739 29.776 12.739 30.0152 12.739V12.2053C30.441 12.2053 31.0248 12.2053 31.4506 12.2053V11.6717C32.0487 11.6717 32.7665 11.6717 33.3646 11.6717V11.138H32.8861V10.6043C32.4602 10.6043 31.8765 10.6043 31.4506 10.6043V10.0707C30.3549 10.0707 29.197 10.0707 28.1013 10.0707V10.6043C27.862 10.6043 27.3835 10.6043 27.1443 10.6043V11.138C26.9051 11.138 26.4266 11.138 26.1873 11.138V11.6717C25.9481 11.6717 25.4696 11.6717 25.2304 11.6717V12.2053C24.9911 12.2053 24.5127 12.2053 24.2734 12.2053V12.739H23.7949V13.2727C23.5557 13.2727 23.0772 13.2727 22.838 13.2727V13.8064H22.3595V14.34C22.1203 14.34 21.6418 14.34 21.4025 14.34V14.8737H20.9241V15.4074C20.6848 15.4074 20.2063 15.4074 19.9671 15.4074V15.941H19.4886V16.4747C19.2494 16.4747 18.7709 16.4747 18.5316 16.4747V17.0084C18.2924 17.0084 17.8139 17.0084 17.5747 17.0084V17.5421C17.3354 17.5421 16.857 17.5421 16.6177 17.5421V18.0757C16.3785 18.0757 15.9 18.0757 15.6608 18.0757V18.6094C15.2349 18.6094 14.6512 18.6094 14.2253 18.6094C14.2253 17.3873 14.2253 16.0958 14.2253 14.8737H13.7468C13.7468 14.6069 13.7468 14.0732 13.7468 13.8064H13.2684V13.2727H12.7899V12.739H12.3114V12.2053C12.0722 12.2053 11.5937 12.2053 11.3544 12.2053V11.6717C9.93334 11.6717 8.46919 11.6717 7.0481 11.6717V12.2053C6.80886 12.2053 6.33038 12.2053 6.09114 12.2053V12.739H5.61266V13.2727H5.13418V13.8064H4.6557C4.6557 14.0732 4.6557 14.6069 4.6557 14.8737H4.17722C4.17722 16.4587 4.17722 18.0917 4.17722 19.6767H4.6557C4.6557 19.9436 4.6557 20.4772 4.6557 20.7441H5.13418V21.2777H5.61266V21.8114H6.09114C6.09114 21.5446 6.09114 21.0109 6.09114 20.7441H5.61266V20.2104H5.13418C5.13418 19.9436 5.13418 19.4099 5.13418 19.1431H4.6557C4.6557 17.921 4.6557 16.6295 4.6557 15.4074H5.13418C5.13418 15.1405 5.13418 14.6069 5.13418 14.34H5.61266V13.8064H6.09114V13.2727H6.56962V12.739C6.80886 12.739 7.28734 12.739 7.52658 12.739V12.2053C8.6223 12.2053 9.78023 12.2053 10.876 12.2053V12.739C11.1152 12.739 11.5937 12.739 11.8329 12.739V13.2727H12.3114V13.8064H12.7899V14.34H13.2684C13.2684 14.6069 13.2684 15.1405 13.2684 15.4074H13.7468C13.7468 16.8109 13.7468 18.2732 13.7468 19.6767C13.5076 19.6767 13.0291 19.6767 12.7899 19.6767V19.1431C11.8568 19.1431 10.852 19.1431 9.91899 19.1431V19.6767C9.49314 19.6767 8.90939 19.6767 8.48355 19.6767V20.2104C8.2443 20.2104 7.76582 20.2104 7.52658 20.2104V20.7441H7.0481C7.0481 21.0109 7.0481 21.5446 7.0481 21.8114H6.56962C6.56962 22.2864 6.56962 22.9375 6.56962 23.4124H6.09114V22.8788H5.61266V23.4124H5.13418V23.9461H4.6557V24.4798H4.17722V23.9461H3.69873V24.4798H3.22025V23.9461H2.74177V24.4798H2.26329V23.9461H1.78481V23.4124H1.30633V22.8788H0.827848V22.3451H1.30633V21.8114H0.827848V21.2777H1.30633V20.7441H0.827848V20.2104H1.30633V19.6767H1.78481V19.1431H2.26329V18.6094H2.74177V19.1431H3.22025V18.6094H3.69873C3.69873 17.3873 3.69873 16.0958 3.69873 14.8737H4.17722C4.17722 14.6069 4.17722 14.0732 4.17722 13.8064H4.6557V13.2727H5.13418V12.739H5.61266V12.2053H6.09114V11.6717C6.33038 11.6717 6.80886 11.6717 7.0481 11.6717V11.138C8.46919 11.138 9.93334 11.138 11.3544 11.138V10.6043H11.8329V10.0707H12.3114V9.53699H11.8329V9.00332H12.3114V8.46964H12.7899V7.93597H13.2684V7.4023H12.7899V6.86863C12.364 6.86863 11.7803 6.86863 11.3544 6.86863V6.33496C9.45486 6.33496 7.51223 6.33496 5.61266 6.33496V6.86863C5.37342 6.86863 4.89494 6.86863 4.6557 6.86863V7.4023C4.41646 7.4023 3.93798 7.4023 3.69873 7.4023V7.93597H3.22025V8.46964H2.74177V9.00332H2.26329V9.53699H1.78481V10.0707H1.30633C1.30633 10.3375 1.30633 10.8712 1.30633 11.138H0.827848C0.827848 11.4048 0.827848 11.9385 0.827848 12.2053H0.349367C0.349367 12.4722 0.349367 13.0058 0.349367 13.2727H-0.129114C-0.129114 13.5395 -0.129114 14.0732 -0.129114 14.34H-0.607595C-0.607595 14.6069 -0.607595 15.1405 -0.607595 15.4074H-1.08608C-1.08608 15.6742 -1.08608 16.2079 -1.08608 16.4747H-1.56456C-1.56456 16.9497 -1.56456 17.6008 -1.56456 18.0757H-2.04304C-2.04304 18.7428 -2.04304 19.5433 -2.04304 20.2104H-2.52152C-2.52152 21.614 -2.52152 23.0762 -2.52152 24.4798H-3C-3 28.3862 -3 32.3141 -3 36.2205C6.56484 36.2205 16.144 36.2205 25.7089 36.2205C25.7089 35.9537 25.7089 35.42 25.7089 35.1532Z" fill="white"/>
<path d="M24.7519 34.6196H24.2734V35.1533H24.7519V34.6196Z" fill="black"/>
<path d="M23.7949 34.6196H23.3165V35.1533H23.7949V34.6196Z" fill="black"/>
<path d="M24.7519 34.0859H24.2734V34.6196H24.7519V34.0859Z" fill="white"/>
<path d="M24.2735 34.0859H23.795V34.6196H24.2735V34.0859Z" fill="black"/>
<path d="M23.7949 34.0859H23.3165V34.6196H23.7949V34.0859Z" fill="white"/>
<path d="M23.3165 34.0859H22.838V34.6196H23.3165V34.0859Z" fill="black"/>
<path d="M22.3595 34.0859H21.881V34.6196H22.3595V34.0859Z" fill="black"/>
<path d="M21.4026 34.0859H20.9241V34.6196H21.4026V34.0859Z" fill="black"/>
<path d="M25.2304 33.5522H24.7519V34.0859H25.2304V33.5522Z" fill="white"/>
<path d="M24.7519 33.5522H24.2734V34.0859H24.7519V33.5522Z" fill="black"/>
<path d="M24.2735 33.5522H23.795V34.0859H24.2735V33.5522Z" fill="white"/>
<path d="M23.7949 33.5522H23.3165V34.0859H23.7949V33.5522Z" fill="black"/>
<path d="M23.3165 33.5522H22.838V34.0859H23.3165V33.5522Z" fill="white"/>
<path d="M22.838 33.5522H22.3595V34.0859H22.838V33.5522Z" fill="black"/>
<path d="M22.3595 33.5522H21.881V34.0859H22.3595V33.5522Z" fill="white"/>
<path d="M21.881 33.5522H21.4025V34.0859H21.881V33.5522Z" fill="black"/>
<path d="M21.4026 33.5522H20.9241V34.0859H21.4026V33.5522Z" fill="white"/>
<path d="M20.9241 33.5522H20.4456V34.0859H20.9241V33.5522Z" fill="black"/>
<path d="M24.7519 33.0186H24.2734V33.5522H24.7519V33.0186Z" fill="white"/>
<path d="M24.2735 33.0186H23.795V33.5522H24.2735V33.0186Z" fill="black"/>
<path d="M23.7949 33.0186H23.3165V33.5522H23.7949V33.0186Z" fill="white"/>
<path d="M23.3165 33.0186H22.838V33.5522H23.3165V33.0186Z" fill="black"/>
<path d="M22.838 33.0186H22.3595V33.5522H22.838V33.0186Z" fill="white"/>
<path d="M22.3595 33.0186H21.881V33.5522H22.3595V33.0186Z" fill="black"/>
<path d="M21.881 33.0186H21.4025V33.5522H21.881V33.0186Z" fill="white"/>
<path d="M21.4026 33.0186H20.9241V33.5522H21.4026V33.0186Z" fill="black"/>
<path d="M20.9241 33.0186H20.4456V33.5522H20.9241V33.0186Z" fill="white"/>
<path d="M20.4455 33.0186H19.967V33.5522H20.4455V33.0186Z" fill="black"/>
<path d="M24.2735 32.4849H23.795V33.0185H24.2735V32.4849Z" fill="white"/>
<path d="M23.7949 32.4849H23.3165V33.0185H23.7949V32.4849Z" fill="black"/>
<path d="M23.3165 32.4849H22.838V33.0185H23.3165V32.4849Z" fill="white"/>
<path d="M22.838 32.4849H22.3595V33.0185H22.838V32.4849Z" fill="black"/>
<path d="M22.3595 32.4849H21.881V33.0185H22.3595V32.4849Z" fill="white"/>
<path d="M21.881 32.4849H21.4025V33.0185H21.881V32.4849Z" fill="black"/>
<path d="M21.4026 32.4849H20.9241V33.0185H21.4026V32.4849Z" fill="white"/>
<path d="M20.9241 32.4849H20.4456V33.0185H20.9241V32.4849Z" fill="black"/>
<path d="M20.4455 32.4849H19.967V33.0185H20.4455V32.4849Z" fill="white"/>
<path d="M19.9671 32.4849H19.4886V33.0185H19.9671V32.4849Z" fill="black"/>
<path d="M19.0102 32.4849H18.5317V33.0185H19.0102V32.4849Z" fill="black"/>
<path d="M23.7949 31.9512H23.3165V32.4848H23.7949V31.9512Z" fill="white"/>
<path d="M22.838 31.9512H22.3595V32.4848H22.838V31.9512Z" fill="white"/>
<path d="M22.3595 31.9512H21.881V32.4848H22.3595V31.9512Z" fill="black"/>
<path d="M21.881 31.9512H21.4025V32.4848H21.881V31.9512Z" fill="white"/>
<path d="M21.4026 31.9512H20.9241V32.4848H21.4026V31.9512Z" fill="black"/>
<path d="M20.9241 31.9512H20.4456V32.4848H20.9241V31.9512Z" fill="white"/>
<path d="M20.4455 31.9512H19.967V32.4848H20.4455V31.9512Z" fill="black"/>
<path d="M19.9671 31.9512H19.4886V32.4848H19.9671V31.9512Z" fill="white"/>
<path d="M19.4886 31.9512H19.0101V32.4848H19.4886V31.9512Z" fill="black"/>
<path d="M19.0102 31.9512H18.5317V32.4848H19.0102V31.9512Z" fill="white"/>
<path d="M18.5316 31.9512H18.0532V32.4848H18.5316V31.9512Z" fill="black"/>
<path d="M22.3595 31.4175H21.881V31.9512H22.3595V31.4175Z" fill="white"/>
<path d="M21.4026 31.4175H20.9241V31.9512H21.4026V31.4175Z" fill="white"/>
<path d="M20.9241 31.4175H20.4456V31.9512H20.9241V31.4175Z" fill="black"/>
<path d="M20.4455 31.4175H19.967V31.9512H20.4455V31.4175Z" fill="white"/>
<path d="M19.9671 31.4175H19.4886V31.9512H19.9671V31.4175Z" fill="black"/>
<path d="M19.4886 31.4175H19.0101V31.9512H19.4886V31.4175Z" fill="white"/>
<path d="M19.0102 31.4175H18.5317V31.9512H19.0102V31.4175Z" fill="black"/>
<path d="M20.9241 30.8838H20.4456V31.4175H20.9241V30.8838Z" fill="white"/>
<path d="M19.4886 30.8838H19.0101V31.4175H19.4886V30.8838Z" fill="black"/>
<path d="M18.5316 30.8838H18.0532V31.4175H18.5316V30.8838Z" fill="black"/>
<path d="M27.6227 24.4795C28.0486 24.4795 28.6323 24.4795 29.0582 24.4795V23.9458C28.2926 23.9458 27.4313 23.9458 26.6658 23.9458V24.4795C26.905 24.4795 27.3835 24.4795 27.6227 24.4795Z" fill="black"/>
<path d="M13.7468 23.9458H13.2683V24.4795C13.5076 24.4795 13.986 24.4795 14.2253 24.4795V23.9458H13.7468Z" fill="black"/>
<path d="M4.65567 23.9458H4.17719V24.4795H4.65567V23.9458Z" fill="black"/>
<path d="M3.69876 23.9458H3.22028V24.4795H3.69876V23.9458Z" fill="black"/>
<path d="M2.74179 23.9458H2.26331V24.4795H2.74179V23.9458Z" fill="black"/>
<path d="M30.0152 23.4126H29.5367V22.8789C29.2974 22.8789 28.819 22.8789 28.5797 22.8789V23.4126H29.0582V23.9462C29.6563 23.9462 30.374 23.9462 30.9721 23.9462V23.4126C30.7329 23.4126 30.2544 23.4126 30.0152 23.4126Z" fill="black"/>
<path d="M27.1443 23.9462C27.7424 23.9462 28.4601 23.9462 29.0583 23.9462V23.4125H28.5798V22.8789C28.3405 22.8789 27.862 22.8789 27.6228 22.8789V22.3452C27.0247 22.3452 26.307 22.3452 25.7089 22.3452V21.8115C24.6132 21.8115 23.4552 21.8115 22.3595 21.8115V22.3452H21.881V22.8789H21.4026V23.4125H20.9241C20.9241 23.6794 20.9241 24.213 20.9241 24.4799C22.8236 24.4799 24.7663 24.4799 26.6658 24.4799V23.9462H27.1443Z" fill="white"/>
<path d="M13.2683 23.4121H12.7899V23.9458H13.2683V23.4121Z" fill="black"/>
<path d="M5.13418 23.4121H4.6557V23.9458H5.13418V23.4121Z" fill="black"/>
<path d="M4.65567 23.4121H4.17719V23.9458H4.65567V23.4121Z" fill="white"/>
<path d="M4.17721 23.4121H3.69873V23.9458H4.17721V23.4121Z" fill="black"/>
<path d="M3.69876 23.4121H3.22028V23.9458H3.69876V23.4121Z" fill="white"/>
<path d="M3.22024 23.4121H2.74176V23.9458H3.22024V23.4121Z" fill="black"/>
<path d="M2.74179 23.4121H2.26331V23.9458H2.74179V23.4121Z" fill="white"/>
<path d="M2.26327 23.4121H1.78479V23.9458H2.26327V23.4121Z" fill="black"/>
<path d="M31.4506 22.8789H30.9722V23.4126C31.398 23.4126 31.9818 23.4126 32.4076 23.4126V22.8789C32.1684 22.8789 31.6899 22.8789 31.4506 22.8789Z" fill="black"/>
<path d="M5.61264 22.8789H5.13416V23.4126H5.61264V22.8789Z" fill="black"/>
<path d="M5.13418 22.8789H4.6557V23.4126H5.13418V22.8789Z" fill="white"/>
<path d="M4.65567 22.8789H4.17719V23.4126H4.65567V22.8789Z" fill="black"/>
<path d="M4.17721 22.8789H3.69873V23.4126H4.17721V22.8789Z" fill="white"/>
<path d="M3.69876 22.8789H3.22028V23.4126H3.69876V22.8789Z" fill="black"/>
<path d="M3.22024 22.8789H2.74176V23.4126H3.22024V22.8789Z" fill="white"/>
<path d="M2.74179 22.8789H2.26331V23.4126H2.74179V22.8789Z" fill="black"/>
<path d="M2.26327 22.8789H1.78479V23.4126H2.26327V22.8789Z" fill="white"/>
<path d="M1.78482 22.8789H1.30634V23.4126H1.78482V22.8789Z" fill="black"/>
<path d="M32.4076 22.3452V22.8789C32.6468 22.8789 33.1253 22.8789 33.3646 22.8789V22.3452C33.1253 22.3452 32.6468 22.3452 32.4076 22.3452Z" fill="black"/>
<path d="M28.1013 22.8789H28.5798V22.3452C28.3405 22.3452 27.862 22.3452 27.6228 22.3452V22.8789H28.1013Z" fill="black"/>
<path d="M5.61264 22.3452H5.13416V22.8789H5.61264V22.3452Z" fill="white"/>
<path d="M5.13418 22.3452H4.6557V22.8789H5.13418V22.3452Z" fill="black"/>
<path d="M4.65567 22.3452H4.17719V22.8789H4.65567V22.3452Z" fill="white"/>
<path d="M4.17721 22.3452H3.69873V22.8789H4.17721V22.3452Z" fill="black"/>
<path d="M3.69876 22.3452H3.22028V22.8789H3.69876V22.3452Z" fill="white"/>
<path d="M3.22024 22.3452H2.74176V22.8789H3.22024V22.3452Z" fill="black"/>
<path d="M2.74179 22.3452H2.26331V22.8789H2.74179V22.3452Z" fill="white"/>
<path d="M2.26327 22.3452H1.78479V22.8789H2.26327V22.3452Z" fill="black"/>
<path d="M1.78482 22.3452H1.30634V22.8789H1.78482V22.3452Z" fill="white"/>
<path d="M1.30636 22.3452H0.827881V22.8789H1.30636V22.3452Z" fill="black"/>
<path d="M28.5798 22.3452V22.8789C28.819 22.8789 29.2975 22.8789 29.5367 22.8789V23.4125C29.9626 23.4125 30.5463 23.4125 30.9722 23.4125V22.8789C31.398 22.8789 31.9818 22.8789 32.4076 22.8789V22.3452C32.6469 22.3452 33.1253 22.3452 33.3646 22.3452V21.8115C31.465 21.8115 29.5224 21.8115 27.6228 21.8115V22.3452C27.862 22.3452 28.3405 22.3452 28.5798 22.3452Z" fill="white"/>
<path d="M5.13418 21.8115H4.6557V22.3452H5.13418V21.8115Z" fill="white"/>
<path d="M4.65567 21.8115H4.17719V22.3452H4.65567V21.8115Z" fill="black"/>
<path d="M4.17721 21.8115H3.69873V22.3452H4.17721V21.8115Z" fill="white"/>
<path d="M3.69876 21.8115H3.22028V22.3452H3.69876V21.8115Z" fill="black"/>
<path d="M3.22024 21.8115H2.74176V22.3452H3.22024V21.8115Z" fill="white"/>
<path d="M2.74179 21.8115H2.26331V22.3452H2.74179V21.8115Z" fill="black"/>
<path d="M2.26327 21.8115H1.78479V22.3452H2.26327V21.8115Z" fill="white"/>
<path d="M1.78482 21.8115H1.30634V22.3452H1.78482V21.8115Z" fill="black"/>
<path d="M4.65567 21.2778H4.17719V21.8115H4.65567V21.2778Z" fill="white"/>
<path d="M4.17721 21.2778H3.69873V21.8115H4.17721V21.2778Z" fill="black"/>
<path d="M3.69876 21.2778H3.22028V21.8115H3.69876V21.2778Z" fill="white"/>
<path d="M3.22024 21.2778H2.74176V21.8115H3.22024V21.2778Z" fill="black"/>
<path d="M2.74179 21.2778H2.26331V21.8115H2.74179V21.2778Z" fill="white"/>
<path d="M2.26327 21.2778H1.78479V21.8115H2.26327V21.2778Z" fill="black"/>
<path d="M1.78482 21.2778H1.30634V21.8115H1.78482V21.2778Z" fill="white"/>
<path d="M1.30636 21.2778H0.827881V21.8115H1.30636V21.2778Z" fill="black"/>
<path d="M4.17721 20.7441H3.69873V21.2778H4.17721V20.7441Z" fill="white"/>
<path d="M3.69876 20.7441H3.22028V21.2778H3.69876V20.7441Z" fill="black"/>
<path d="M3.22024 20.7441H2.74176V21.2778H3.22024V20.7441Z" fill="white"/>
<path d="M2.74179 20.7441H2.26331V21.2778H2.74179V20.7441Z" fill="black"/>
<path d="M2.26327 20.7441H1.78479V21.2778H2.26327V20.7441Z" fill="white"/>
<path d="M1.78482 20.7441H1.30634V21.2778H1.78482V20.7441Z" fill="black"/>
<path d="M7.04808 20.7438C7.04808 20.477 7.04808 19.9433 7.04808 19.6765H6.5696C6.5696 19.4097 6.5696 18.876 6.5696 18.6091H6.09112C6.09112 17.7553 6.09112 16.7947 6.09112 15.9408H6.5696C6.5696 15.674 6.5696 15.1403 6.5696 14.8735H7.04808V14.3398C7.28732 14.3398 7.7658 14.3398 8.00504 14.3398V13.8061C8.77061 13.8061 9.63188 13.8061 10.3974 13.8061V14.3398C10.6367 14.3398 11.1152 14.3398 11.3544 14.3398V14.8735H11.8329C11.8329 15.1403 11.8329 15.674 11.8329 15.9408H12.3114C12.3114 16.7947 12.3114 17.7553 12.3114 18.6091H12.7899V19.1428H13.2683C13.2683 17.9207 13.2683 16.6292 13.2683 15.4071H12.7899C12.7899 15.1403 12.7899 14.6066 12.7899 14.3398H12.3114V13.8061H11.8329V13.2724C11.5936 13.2724 11.1152 13.2724 10.8759 13.2724V12.7388C9.78021 12.7388 8.62228 12.7388 7.52656 12.7388V13.2724C7.28732 13.2724 6.80884 13.2724 6.5696 13.2724V13.8061H6.09112V14.3398H5.61264C5.61264 14.6066 5.61264 15.1403 5.61264 15.4071H5.13416C5.13416 16.6292 5.13416 17.9207 5.13416 19.1428H5.61264C5.61264 19.4097 5.61264 19.9433 5.61264 20.2102H6.09112V20.7438C6.33036 20.7438 6.80884 20.7438 7.04808 20.7438Z" fill="white"/>
<path d="M6.09115 20.2104H5.61267V20.7441H6.09115V20.2104Z" fill="black"/>
<path d="M3.69873 20.2104V20.7441H4.17721V21.2778H4.65569V21.8114H5.13417V22.3451H5.61265V22.8788H6.09114V23.4125H6.56962C6.56962 22.9375 6.56962 22.2864 6.56962 21.8114H7.0481C7.0481 21.5446 7.0481 21.0109 7.0481 20.7441C6.80886 20.7441 6.33038 20.7441 6.09114 20.7441C6.09114 21.0109 6.09114 21.5446 6.09114 21.8114H5.61265V21.2778H5.13417V20.7441H4.65569C4.65569 20.4773 4.65569 19.9436 4.65569 19.6768H4.17721V20.2104H3.69873Z" fill="black"/>
<path d="M3.69876 20.2104H3.22028V20.7441H3.69876V20.2104Z" fill="white"/>
<path d="M3.22024 20.2104H2.74176V20.7441H3.22024V20.2104Z" fill="black"/>
<path d="M2.74179 20.2104H2.26331V20.7441H2.74179V20.2104Z" fill="white"/>
<path d="M2.26327 20.2104H1.78479V20.7441H2.26327V20.2104Z" fill="black"/>
<path d="M1.78482 20.2104H1.30634V20.7441H1.78482V20.2104Z" fill="white"/>
<path d="M1.30636 20.2104H0.827881V20.7441H1.30636V20.2104Z" fill="black"/>
<path d="M4.17721 19.6768H3.69873V20.2104H4.17721V19.6768Z" fill="white"/>
<path d="M3.69876 19.6768H3.22028V20.2104H3.69876V19.6768Z" fill="black"/>
<path d="M3.22024 19.6768H2.74176V20.2104H3.22024V19.6768Z" fill="white"/>
<path d="M2.74179 19.6768H2.26331V20.2104H2.74179V19.6768Z" fill="black"/>
<path d="M2.26327 19.6768H1.78479V20.2104H2.26327V19.6768Z" fill="white"/>
<path d="M1.78482 19.6768H1.30634V20.2104H1.78482V19.6768Z" fill="black"/>
<path d="M5.61264 19.1431H5.13416C5.13416 19.4099 5.13416 19.9436 5.13416 20.2104H5.61264C5.61264 19.9436 5.61264 19.4099 5.61264 19.1431Z" fill="black"/>
<path d="M3.69876 19.1431H3.22028V19.6767H3.69876V19.1431Z" fill="white"/>
<path d="M3.22024 19.1431H2.74176V19.6767H3.22024V19.1431Z" fill="black"/>
<path d="M2.74179 19.1431H2.26331V19.6767H2.74179V19.1431Z" fill="white"/>
<path d="M2.26327 19.1431H1.78479V19.6767H2.26327V19.1431Z" fill="black"/>
<path d="M12.3114 18.6092C12.3114 17.7553 12.3114 16.7947 12.3114 15.9408H11.8329C11.8329 15.674 11.8329 15.1403 11.8329 14.8735H11.3544V14.3398C11.1152 14.3398 10.6367 14.3398 10.3975 14.3398V13.8062C9.63189 13.8062 8.77062 13.8062 8.00505 13.8062V14.3398C7.76581 14.3398 7.28733 14.3398 7.04809 14.3398V14.8735H6.56961C6.56961 15.1403 6.56961 15.674 6.56961 15.9408H6.09113C6.09113 16.7947 6.09113 17.7553 6.09113 18.6092H6.56961C6.56961 18.876 6.56961 19.4097 6.56961 19.6765H7.04809C7.04809 19.9434 7.04809 20.477 7.04809 20.7439H7.52657V20.2102C7.76581 20.2102 8.24429 20.2102 8.48353 20.2102V19.6765C8.90938 19.6765 9.49313 19.6765 9.91897 19.6765V19.1429C10.852 19.1429 11.8568 19.1429 12.7899 19.1429V18.6092H12.3114ZM8.00505 16.4745V15.9408C8.24429 15.9408 8.72277 15.9408 8.96201 15.9408C8.96201 16.2077 8.96201 16.7413 8.96201 17.0082C8.72277 17.0082 8.24429 17.0082 8.00505 17.0082V16.4745Z" fill="black"/>
<path d="M2.74179 18.6094H2.26331V19.143H2.74179V18.6094Z" fill="black"/>
<path d="M14.7038 18.0756C14.7038 17.0349 14.7038 15.9142 14.7038 14.8735H14.2253C14.2253 16.0956 14.2253 17.3871 14.2253 18.6092C14.6512 18.6092 15.2349 18.6092 15.6608 18.6092V18.0756C15.4215 18.0756 14.9431 18.0756 14.7038 18.0756Z" fill="black"/>
<path d="M5.13418 18.0756C5.13418 17.2217 5.13418 16.2611 5.13418 15.4072H4.6557C4.6557 16.6293 4.6557 17.9208 4.6557 19.1429H5.13418C5.13418 18.8761 5.13418 18.3424 5.13418 18.0756Z" fill="black"/>
<path d="M15.6608 17.542V18.0757C15.9 18.0757 16.3785 18.0757 16.6177 18.0757V17.542C16.3785 17.542 15.9 17.542 15.6608 17.542Z" fill="black"/>
<path d="M16.6177 17.0083V17.542C16.857 17.542 17.3355 17.542 17.5747 17.542V17.0083C17.3355 17.0083 16.857 17.0083 16.6177 17.0083Z" fill="black"/>
<path d="M17.5747 16.4746V17.0083C17.8139 17.0083 18.2924 17.0083 18.5317 17.0083V16.4746C18.2924 16.4746 17.8139 16.4746 17.5747 16.4746Z" fill="black"/>
<path d="M8.96203 17.0083C8.96203 16.7414 8.96203 16.2078 8.96203 15.9409C8.72279 15.9409 8.24431 15.9409 8.00507 15.9409C8.00507 16.2078 8.00507 16.7414 8.00507 17.0083C8.24431 17.0083 8.72279 17.0083 8.96203 17.0083Z" fill="white"/>
<path d="M18.5317 15.9409V16.4746C18.7709 16.4746 19.2494 16.4746 19.4886 16.4746V15.9409C19.2494 15.9409 18.7709 15.9409 18.5317 15.9409Z" fill="black"/>
<path d="M13.2683 16.4746C13.2683 17.3284 13.2683 18.289 13.2683 19.1429H12.7899V19.6766C13.0291 19.6766 13.5076 19.6766 13.7468 19.6766C13.7468 18.273 13.7468 16.8108 13.7468 15.4072H13.2683C13.2683 15.6741 13.2683 16.2077 13.2683 16.4746Z" fill="black"/>
<path d="M19.9671 15.4072H19.4886V15.9409H19.9671V15.4072Z" fill="black"/>
<path d="M19.967 14.8735V15.4072C20.2063 15.4072 20.6848 15.4072 20.924 15.4072V14.8735C20.6848 14.8735 20.2063 14.8735 19.967 14.8735Z" fill="black"/>
<path d="M12.7899 15.4072H13.2683C13.2683 15.1404 13.2683 14.6067 13.2683 14.3398H12.7899C12.7899 14.6067 12.7899 15.1404 12.7899 15.4072Z" fill="black"/>
<path d="M5.61264 14.8735V14.3398H5.13416C5.13416 14.6067 5.13416 15.1404 5.13416 15.4072H5.61264V14.8735Z" fill="black"/>
<path d="M3.69876 15.4072C3.69876 16.4479 3.69876 17.5686 3.69876 18.6092H3.22028V19.1429H3.69876V19.6766H4.17724C4.17724 18.0916 4.17724 16.4585 4.17724 14.8735H3.69876V15.4072Z" fill="black"/>
<path d="M21.4026 14.3398H20.9241V14.8735H21.4026V14.3398Z" fill="black"/>
<path d="M21.4025 13.8062V14.3398C21.6418 14.3398 22.1202 14.3398 22.3595 14.3398V13.8062C22.1202 13.8062 21.6418 13.8062 21.4025 13.8062Z" fill="black"/>
<path d="M18.0532 13.8062C17.814 13.8062 17.3355 13.8062 17.0963 13.8062V14.3398C17.6944 14.3398 18.4121 14.3398 19.0102 14.3398V13.8062C18.7709 13.8062 18.2925 13.8062 18.0532 13.8062Z" fill="black"/>
<path d="M14.2253 13.8062H13.7468C13.7468 14.073 13.7468 14.6067 13.7468 14.8735H14.2253C14.2253 14.6067 14.2253 14.073 14.2253 13.8062Z" fill="black"/>
<path d="M12.7899 13.8062H12.3114V14.3398H12.7899V13.8062Z" fill="black"/>
<path d="M6.09115 13.8062H5.61267V14.3398H6.09115V13.8062Z" fill="black"/>
<path d="M4.17719 14.3398V14.8735H4.65567C4.65567 14.6067 4.65567 14.073 4.65567 13.8062H4.17719V14.3398Z" fill="black"/>
<path d="M22.838 13.2725H22.3595V13.8061H22.838V13.2725Z" fill="black"/>
<path d="M19.0101 13.2725V13.8061C19.2494 13.8061 19.7279 13.8061 19.9671 13.8061V13.2725C19.7279 13.2725 19.2494 13.2725 19.0101 13.2725Z" fill="black"/>
<path d="M17.0962 13.2725H16.6177V13.8061H17.0962V13.2725Z" fill="black"/>
<path d="M13.7468 13.2725H13.2683V13.8061H13.7468V13.2725Z" fill="black"/>
<path d="M12.3114 13.2725H11.8329V13.8061H12.3114V13.2725Z" fill="black"/>
<path d="M6.56961 13.2725H6.09113V13.8061H6.56961V13.2725Z" fill="black"/>
<path d="M5.13418 13.2725H4.6557V13.8061H5.13418V13.2725Z" fill="black"/>
<path d="M22.838 12.7388V13.2724C23.0773 13.2724 23.5557 13.2724 23.795 13.2724V12.7388C23.5557 12.7388 23.0773 12.7388 22.838 12.7388Z" fill="black"/>
<path d="M19.967 12.7388V13.2724C20.2063 13.2724 20.6848 13.2724 20.924 13.2724V12.7388C20.6848 12.7388 20.2063 12.7388 19.967 12.7388Z" fill="black"/>
<path d="M16.6178 12.7388H16.1393V13.2724H16.6178V12.7388Z" fill="black"/>
<path d="M13.2683 12.7388H12.7899V13.2724H13.2683V12.7388Z" fill="black"/>
<path d="M11.3545 13.2724H11.8329V12.7388C11.5937 12.7388 11.1152 12.7388 10.876 12.7388V13.2724H11.3545Z" fill="black"/>
<path d="M7.5266 13.2724V12.7388C7.28736 12.7388 6.80888 12.7388 6.56964 12.7388V13.2724C6.80888 13.2724 7.28736 13.2724 7.5266 13.2724Z" fill="black"/>
<path d="M5.61264 12.7388H5.13416V13.2724H5.61264V12.7388Z" fill="black"/>
<path d="M24.2735 12.2051H23.795V12.7387H24.2735V12.2051Z" fill="black"/>
<path d="M21.4026 12.2051H20.9241V12.7387H21.4026V12.2051Z" fill="black"/>
<path d="M8.48351 12.7387C9.24908 12.7387 10.1103 12.7387 10.8759 12.7387V12.2051C9.7802 12.2051 8.62227 12.2051 7.52655 12.2051V12.7387C7.76579 12.7387 8.24427 12.7387 8.48351 12.7387Z" fill="black"/>
<path d="M6.09115 12.2051H5.61267V12.7387H6.09115V12.2051Z" fill="black"/>
<path d="M21.4025 11.6714V12.2051C21.6418 12.2051 22.1202 12.2051 22.3595 12.2051V11.6714C22.1202 11.6714 21.6418 11.6714 21.4025 11.6714Z" fill="black"/>
<path d="M19.4886 11.6714H19.0101V12.2051H19.4886V11.6714Z" fill="black"/>
<path d="M16.1392 11.6714V11.1377H15.6608C15.6608 11.6127 15.6608 12.2637 15.6608 12.7387H16.1392C16.1392 12.4719 16.1392 11.9382 16.1392 11.6714Z" fill="black"/>
<path d="M13.2683 12.205C13.2683 11.9382 13.2683 11.4045 13.2683 11.1377H12.7899V11.6713H12.3114V11.1377H11.8329V10.604H11.3544V11.1377C9.93334 11.1377 8.46918 11.1377 7.0481 11.1377V11.6713C8.46918 11.6713 9.93334 11.6713 11.3544 11.6713V12.205C11.5937 12.205 12.0721 12.205 12.3114 12.205V12.7387H12.7899V12.205H13.2683Z" fill="black"/>
<path d="M6.09113 11.6714V12.2051C6.33037 12.2051 6.80885 12.2051 7.04809 12.2051V11.6714C6.80885 11.6714 6.33037 11.6714 6.09113 11.6714Z" fill="black"/>
<path d="M22.838 11.1377H22.3595V11.6714H22.838V11.1377Z" fill="black"/>
<path d="M19.0102 11.1377H18.5317V11.6714H19.0102V11.1377Z" fill="black"/>
<path d="M12.7899 11.1377H12.3114V11.6714H12.7899V11.1377Z" fill="white"/>
<path d="M20.9241 10.604H20.4456V11.1377H20.9241V10.604Z" fill="black"/>
<path d="M18.5316 10.604H18.0532V11.1377H18.5316V10.604Z" fill="black"/>
<path d="M16.6178 10.6045V10.0708H16.1393C16.1393 10.3376 16.1393 10.8713 16.1393 11.1381H16.6178V10.6045Z" fill="black"/>
<path d="M13.2683 10.604H12.7899V11.1377H13.2683V10.604Z" fill="white"/>
<path d="M12.7899 10.604H12.3114V11.1377H12.7899V10.604Z" fill="black"/>
<path d="M12.3114 10.604H11.8329V11.1377H12.3114V10.604Z" fill="white"/>
<path d="M20.4455 10.0708H19.967V10.6045H20.4455V10.0708Z" fill="black"/>
<path d="M12.7899 10.0708H12.3114V10.6045H12.7899V10.0708Z" fill="white"/>
<path d="M12.3114 10.0708H11.8329V10.6045H12.3114V10.0708Z" fill="black"/>
<path d="M22.3595 9.53711H21.881V10.0708H22.3595V9.53711Z" fill="black"/>
<path d="M19.9671 9.53711H19.4886V10.0708H19.9671V9.53711Z" fill="black"/>
<path d="M17.0962 9.53711H16.6177V10.0708H17.0962V9.53711Z" fill="black"/>
<path d="M13.2683 9.53711H12.7899V10.0708H13.2683V9.53711Z" fill="white"/>
<path d="M12.7899 9.53711H12.3114V10.0708H12.7899V9.53711Z" fill="black"/>
<path d="M21.881 9.00342H21.4025V9.53709H21.881V9.00342Z" fill="black"/>
<path d="M19.4886 9.00342H19.0101V9.53709H19.4886V9.00342Z" fill="black"/>
<path d="M17.5747 9.00342H17.0963V9.53709H17.5747V9.00342Z" fill="black"/>
<path d="M13.7468 9.53709H13.2683V10.0708H12.7899V10.6044H13.2683V11.1381H13.7468C13.7468 10.8713 13.7468 10.3376 13.7468 10.0708H14.2253C14.2253 9.80392 14.2253 9.27025 14.2253 9.00342H13.7468V9.53709Z" fill="black"/>
<path d="M13.7468 9.00342H13.2683V9.53709H13.7468V9.00342Z" fill="white"/>
<path d="M13.2683 9.00342H12.7899V9.53709H13.2683V9.00342Z" fill="black"/>
<path d="M12.7899 9.00342H12.3114V9.53709H12.7899V9.00342Z" fill="white"/>
<path d="M12.3114 9.00342H11.8329V9.53709H12.3114V9.00342Z" fill="black"/>
<path d="M21.4026 8.46973H20.9241V9.0034H21.4026V8.46973Z" fill="black"/>
<path d="M18.0532 8.46973H17.5747V9.0034H18.0532V8.46973Z" fill="black"/>
<path d="M14.7038 8.46973H14.2253V9.0034H14.7038V8.46973Z" fill="black"/>
<path d="M14.2253 8.46973H13.7468V9.0034H14.2253V8.46973Z" fill="white"/>
<path d="M13.7468 8.46973H13.2683V9.0034H13.7468V8.46973Z" fill="black"/>
<path d="M13.2683 8.46973H12.7899V9.0034H13.2683V8.46973Z" fill="white"/>
<path d="M12.7899 8.46973H12.3114V9.0034H12.7899V8.46973Z" fill="black"/>
<path d="M20.9241 7.93604H20.4456V8.46971H20.9241V7.93604Z" fill="black"/>
<path d="M18.5316 7.93604H18.0532V8.46971H18.5316V7.93604Z" fill="black"/>
<path d="M14.7038 7.93604H14.2253V8.46971H14.7038V7.93604Z" fill="white"/>
<path d="M14.2253 7.93604H13.7468V8.46971H14.2253V7.93604Z" fill="black"/>
<path d="M13.7468 7.93604H13.2683V8.46971H13.7468V7.93604Z" fill="white"/>
<path d="M13.2683 7.93604H12.7899V8.46971H13.2683V7.93604Z" fill="black"/>
<path d="M19.0102 7.40232V7.93599H18.5317V8.46966H18.0532V9.00334H17.5747V9.53701H17.0962V10.0707H16.6178C16.6178 10.3375 16.6178 10.8712 16.6178 11.138H16.1393C16.1393 11.613 16.1393 12.2641 16.1393 12.739H16.6178V13.2727H17.0962V13.8064C17.6943 13.8064 18.4121 13.8064 19.0102 13.8064V13.2727C19.2494 13.2727 19.7279 13.2727 19.9671 13.2727V12.739C20.2064 12.739 20.6849 12.739 20.9241 12.739V12.2054H21.4026V11.6717C21.6418 11.6717 22.1203 11.6717 22.3595 11.6717V11.138H22.838V10.6043H23.3165C23.3165 10.1294 23.3165 9.4783 23.3165 9.00334H22.838V8.46966H22.3595V7.93599H21.8811V7.40232H21.4026V6.86865C20.8045 6.86865 20.0868 6.86865 19.4886 6.86865V7.40232H19.0102ZM21.4026 8.46966V9.00334H21.8811V9.53701H22.3595V10.0707H21.8811V9.53701H21.4026V9.00334H20.9241V8.46966H20.4456V7.93599H20.9241V8.46966H21.4026ZM20.9241 11.138H20.4456V10.6043H19.9671V10.0707H19.4886V9.53701H19.0102V9.00334H19.4886V9.53701H19.9671V10.0707H20.4456V10.6043H20.9241V11.138ZM19.4886 12.2054H19.0102V11.6717H18.5317V11.138H18.0532V10.6043H18.5317V11.138H19.0102V11.6717H19.4886V12.2054Z" fill="white"/>
<path d="M19.0102 7.40234H18.5317V7.93601H19.0102V7.40234Z" fill="black"/>
<path d="M14.7038 7.93599V8.46967H15.1823V7.93599H15.6608V7.40232H15.1823V6.86865H14.7038V7.40232H14.2253V7.93599H14.7038Z" fill="black"/>
<path d="M14.2253 7.40234H13.7468V7.93601H14.2253V7.40234Z" fill="white"/>
<path d="M13.7468 7.40232H14.2253V6.86865C13.7995 6.86865 13.2157 6.86865 12.7899 6.86865V7.40232H13.2683V7.93599H13.7468V7.40232Z" fill="black"/>
<path d="M19.4886 6.86865H19.0101V7.40232H19.4886V6.86865Z" fill="black"/>
<path d="M16.1392 6.86865H15.6608V7.40232H16.1392V6.86865Z" fill="black"/>
<path d="M15.6608 6.86865H15.1823V7.40232H15.6608V6.86865Z" fill="white"/>
<path d="M16.6177 6.33494V6.86861H16.1392V7.40228H15.6607V7.93595H15.1823V8.46962H14.7038V9.00329H14.2253C14.2253 9.27013 14.2253 9.8038 14.2253 10.0706H13.7468C13.7468 10.3375 13.7468 10.8711 13.7468 11.138H13.2683C13.2683 11.4048 13.2683 11.9385 13.2683 12.2053H12.7899V12.739H13.2683V13.2727H13.7468V13.8063H14.2253C14.2253 14.0732 14.2253 14.6068 14.2253 14.8737H14.7038C14.7038 15.9143 14.7038 17.035 14.7038 18.0757C14.943 18.0757 15.4215 18.0757 15.6607 18.0757V17.542C15.9 17.542 16.3785 17.542 16.6177 17.542V17.0084C16.8569 17.0084 17.3354 17.0084 17.5747 17.0084V16.4747C17.8139 16.4747 18.2924 16.4747 18.5316 16.4747V15.941C18.7709 15.941 19.2493 15.941 19.4886 15.941V15.4073H19.9671V14.8737C20.2063 14.8737 20.6848 14.8737 20.924 14.8737V14.34H21.4025V13.8063C21.6418 13.8063 22.1202 13.8063 22.3595 13.8063V13.2727H22.838V12.739C23.0772 12.739 23.5557 12.739 23.7949 12.739V12.2053H24.2734C24.2734 11.9385 24.2734 11.4048 24.2734 11.138C23.8476 11.138 23.2638 11.138 22.838 11.138V11.6716H22.3595V12.2053C22.1202 12.2053 21.6418 12.2053 21.4025 12.2053V12.739H20.924V13.2727C20.6848 13.2727 20.2063 13.2727 19.9671 13.2727V13.8063C19.7278 13.8063 19.2493 13.8063 19.0101 13.8063V14.34C18.412 14.34 17.6943 14.34 17.0962 14.34V13.8063H16.6177V13.2727H16.1392V12.739H15.6607C15.6607 12.264 15.6607 11.6129 15.6607 11.138H16.1392C16.1392 10.8711 16.1392 10.3375 16.1392 10.0706H16.6177V9.53697H17.0962V9.00329H17.5747V8.46962H18.0531V7.93595H18.5316V7.40228H19.0101V6.86861H19.4886C19.4886 6.60178 19.4886 6.0681 19.4886 5.80127C18.723 5.80127 17.8618 5.80127 17.0962 5.80127V6.33494H16.6177Z" fill="white"/>
<path d="M16.6178 6.33496H16.1393V6.86863H16.6178V6.33496Z" fill="black"/>
<path d="M16.1392 6.33496H15.6608V6.86863H16.1392V6.33496Z" fill="white"/>
<path d="M15.6608 6.33496H15.1823V6.86863H15.6608V6.33496Z" fill="black"/>
<path d="M11.8329 6.86863C12.0722 6.86863 12.5506 6.86863 12.7899 6.86863V6.33496C12.364 6.33496 11.7803 6.33496 11.3544 6.33496V6.86863H11.8329Z" fill="black"/>
<path d="M17.0962 5.80127H16.6177V6.33494H17.0962V5.80127Z" fill="black"/>
<path d="M16.6178 5.80127H16.1393V6.33494H16.6178V5.80127Z" fill="white"/>
<path d="M16.1392 5.80127H15.6608V6.33494H16.1392V5.80127Z" fill="black"/>
<path d="M12.3114 6.3349H12.7898V6.86857C13.2157 6.86857 13.7994 6.86857 14.2253 6.86857V7.40224H14.7038V6.86857H15.1822V6.3349H15.6607V5.80123H16.1392V5.26756H15.6607V4.73389C13.5985 4.73389 11.5027 4.73389 9.44047 4.73389V5.26756C8.84237 5.26756 8.12465 5.26756 7.52655 5.26756V5.80123C8.78496 5.80123 10.096 5.80123 11.3544 5.80123V6.3349C11.5936 6.3349 12.0721 6.3349 12.3114 6.3349Z" fill="white"/>
<path d="M17.0962 5.26758H16.6177V5.80125H17.0962V5.26758Z" fill="white"/>
</g>
<defs>
<clipPath id="clip0_2310_10828">
<rect width="36" height="36" rx="18" fill="white"/>
</clipPath>
</defs>
</svg>
