<svg width="19" height="18" viewBox="0 0 19 18" fill="none" xmlns="http://www.w3.org/2000/svg">
<g clip-path="url(#clip0_596_33654)">
<path fill-rule="evenodd" clip-rule="evenodd" d="M6.70696 8.50956C5.56617 9.76597 3.86597 10.198 2.57153 9.45066C1.03416 8.56306 0.651327 6.34798 1.71645 4.50313C2.78157 2.65829 4.8913 1.88229 6.42867 2.76989C7.7228 3.51706 8.19883 5.20488 7.68174 6.82069L16.1039 11.6833C17.0366 12.2217 17.3562 13.4143 16.8177 14.347L6.70696 8.50956ZM3.53976 7.77363C2.77422 7.33165 2.58359 6.22864 3.11397 5.30999C3.64435 4.39135 4.6949 4.00493 5.46044 4.44692C6.22598 4.8889 6.41661 5.99191 5.88623 6.91056C5.35585 7.82921 4.3053 8.21562 3.53976 7.77363ZM15.4 13.5298L16.8171 14.348L15.7637 16.1726C15.5378 16.5639 15.0374 16.698 14.6461 16.4721C14.2547 16.2461 14.1207 15.7457 14.3466 15.3544L15.4 13.5298ZM14.6913 13.1207L13.2742 12.3025L12.7083 13.2827C12.4824 13.674 12.6164 14.1744 13.0078 14.4004C13.3991 14.6263 13.8995 14.4922 14.1254 14.1009L14.6913 13.1207Z" fill="#FF8200"/>
</g>
<defs>
<clipPath id="clip0_596_33654">
<rect width="18" height="18" fill="white" transform="translate(0.5)"/>
</clipPath>
</defs>
</svg>
