<svg width="14" height="14" viewBox="0 0 14 14" fill="none" xmlns="http://www.w3.org/2000/svg">
<g clip-path="url(#clip0_2733_151660)">
<circle cx="7" cy="7" r="7" fill="#F63F3F"/>
<path fill-rule="evenodd" clip-rule="evenodd" d="M7.00075 2.15381C6.40598 2.15381 5.92383 2.63596 5.92383 3.23073V6.99996C5.92383 7.59473 6.40598 8.07688 7.00075 8.07688C7.59552 8.07688 8.07767 7.59473 8.07767 6.99996V3.23073C8.07767 2.63596 7.59552 2.15381 7.00075 2.15381ZM7.00075 11.3077C7.59552 11.3077 8.07767 10.8255 8.07767 10.2307C8.07767 9.63596 7.59552 9.15381 7.00075 9.15381C6.40598 9.15381 5.92383 9.63596 5.92383 10.2307C5.92383 10.8255 6.40598 11.3077 7.00075 11.3077Z" fill="white"/>
</g>
<defs>
<clipPath id="clip0_2733_151660">
<rect width="14" height="14" fill="white"/>
</clipPath>
</defs>
</svg>
