<svg width="32" height="32" viewBox="0 0 32 32" fill="none" xmlns="http://www.w3.org/2000/svg">
<path d="M4.82892 15.0806C0.586266 8.00952 6.24313 2.35268 16.8498 3.05981C17.5568 13.6663 11.9 19.3232 4.82892 15.0806Z" stroke="white" stroke-width="2" stroke-linecap="round" stroke-linejoin="round"/>
<path d="M2 18.5L4.5 15.5" stroke="white" stroke-width="2" stroke-linecap="round" stroke-linejoin="round"/>
<path d="M13.207 25.2617H9.70312V27.6699H13.7988V29H8.05078V20.4688H13.7812V21.8105H9.70312V23.9609H13.207V25.2617ZM21.5879 26.3281C21.5605 26.7578 21.4668 27.1445 21.3066 27.4883C21.1504 27.832 20.9395 28.125 20.6738 28.3672C20.4082 28.6094 20.0918 28.7969 19.7246 28.9297C19.3574 29.0586 18.9512 29.123 18.5059 29.123C18.1543 29.123 17.8281 29.0781 17.5273 28.9883C17.2305 28.8945 16.9629 28.7617 16.7246 28.5898C16.5059 28.4297 16.3105 28.2363 16.1387 28.0098C15.9707 27.7832 15.8281 27.5332 15.7109 27.2598C15.5977 26.9863 15.5098 26.6855 15.4473 26.3574C15.3887 26.0293 15.3594 25.6816 15.3594 25.3145V24.166C15.3594 23.8223 15.3867 23.4961 15.4414 23.1875C15.4961 22.875 15.5781 22.5859 15.6875 22.3203C15.8125 21.9961 15.9766 21.707 16.1797 21.4531C16.3828 21.1992 16.6133 20.9844 16.8711 20.8086C17.1016 20.6602 17.3535 20.5469 17.627 20.4688C17.9043 20.3867 18.2012 20.3457 18.5176 20.3457C18.9863 20.3457 19.4023 20.4121 19.7656 20.5449C20.1328 20.6777 20.4453 20.8672 20.7031 21.1133C20.9609 21.3594 21.1641 21.6602 21.3125 22.0156C21.4609 22.3711 21.5547 22.7715 21.5938 23.2168H19.9531C19.9375 22.9629 19.8984 22.7402 19.8359 22.5488C19.7773 22.3574 19.6914 22.1973 19.5781 22.0684C19.4609 21.9434 19.3145 21.8496 19.1387 21.7871C18.9668 21.7207 18.7598 21.6875 18.5176 21.6875C18.3887 21.6875 18.2676 21.7012 18.1543 21.7285C18.0449 21.7559 17.9434 21.7969 17.8496 21.8516C17.6895 21.9453 17.5527 22.0801 17.4395 22.2559C17.3301 22.4277 17.2422 22.6289 17.1758 22.8594C17.125 23.0391 17.0879 23.2383 17.0645 23.457C17.041 23.6719 17.0293 23.9043 17.0293 24.1543V25.3145C17.0293 25.6543 17.0469 25.959 17.082 26.2285C17.1211 26.4941 17.1797 26.7266 17.2578 26.9258C17.3125 27.0625 17.377 27.1836 17.4512 27.2891C17.5293 27.3945 17.6172 27.4824 17.7148 27.5527C17.8203 27.6309 17.9375 27.6895 18.0664 27.7285C18.1992 27.7637 18.3457 27.7812 18.5059 27.7812C18.7207 27.7812 18.9141 27.7539 19.0859 27.6992C19.2578 27.6445 19.4043 27.5586 19.5254 27.4414C19.6465 27.3242 19.7422 27.1738 19.8125 26.9902C19.8828 26.8066 19.9258 26.5859 19.9414 26.3281H21.5879ZM29.3242 25.3613C29.3242 25.7285 29.291 26.0781 29.2246 26.4102C29.1582 26.7383 29.0625 27.043 28.9375 27.3242C28.8047 27.6055 28.6406 27.8633 28.4453 28.0977C28.25 28.332 28.0273 28.5273 27.7773 28.6836C27.5508 28.8203 27.3008 28.9258 27.0273 29C26.7578 29.0781 26.4668 29.1172 26.1543 29.1172C25.8223 29.1172 25.5156 29.0742 25.2344 28.9883C24.9531 28.9023 24.6973 28.7812 24.4668 28.625C24.2402 28.4609 24.0371 28.2637 23.8574 28.0332C23.6777 27.7988 23.5273 27.5352 23.4062 27.2422C23.2969 26.9727 23.2129 26.6797 23.1543 26.3633C23.0996 26.0469 23.0723 25.7129 23.0723 25.3613V24.1191C23.0723 23.7441 23.1035 23.3887 23.166 23.0527C23.2324 22.7168 23.3281 22.4062 23.4531 22.1211C23.5742 21.8516 23.7207 21.6074 23.8926 21.3887C24.0684 21.1699 24.2695 20.9824 24.4961 20.8262C24.7188 20.6738 24.9688 20.5566 25.2461 20.4746C25.5234 20.3926 25.8242 20.3516 26.1484 20.3516C26.4766 20.3516 26.7832 20.3945 27.0684 20.4805C27.3574 20.5625 27.6172 20.6816 27.8477 20.8379C28.0781 20.9863 28.2793 21.166 28.4512 21.377C28.627 21.5879 28.7773 21.8203 28.9023 22.0742C29.0391 22.3633 29.1426 22.6797 29.2129 23.0234C29.2871 23.3672 29.3242 23.7324 29.3242 24.1191V25.3613ZM27.6543 24.1074C27.6543 23.8887 27.6426 23.6816 27.6191 23.4863C27.5996 23.2871 27.5664 23.1035 27.5195 22.9355C27.4609 22.7246 27.3828 22.5371 27.2852 22.373C27.1875 22.2051 27.0723 22.0684 26.9395 21.9629C26.834 21.8848 26.7148 21.8242 26.582 21.7812C26.4531 21.7383 26.3086 21.7168 26.1484 21.7168C25.9961 21.7168 25.8574 21.7363 25.7324 21.7754C25.6113 21.8145 25.502 21.8711 25.4043 21.9453C25.2715 22.0547 25.1582 22.1914 25.0645 22.3555C24.9746 22.5195 24.9043 22.7109 24.8535 22.9297C24.8145 23.0977 24.7852 23.2812 24.7656 23.4805C24.75 23.6797 24.7422 23.8887 24.7422 24.1074V25.3613C24.7422 25.5684 24.75 25.7676 24.7656 25.959C24.7812 26.1504 24.8086 26.3281 24.8477 26.4922C24.8906 26.6992 24.9531 26.8887 25.0352 27.0605C25.1211 27.2285 25.2207 27.3652 25.334 27.4707C25.4395 27.5645 25.5586 27.6367 25.6914 27.6875C25.8281 27.7383 25.9824 27.7637 26.1543 27.7637C26.3184 27.7637 26.4688 27.7402 26.6055 27.6934C26.7422 27.6465 26.8633 27.5781 26.9688 27.4883C27.1016 27.3789 27.2129 27.2422 27.3027 27.0781C27.3965 26.9102 27.4707 26.7207 27.5254 26.5098C27.5684 26.3457 27.5996 26.166 27.6191 25.9707C27.6426 25.7754 27.6543 25.5723 27.6543 25.3613V24.1074Z" fill="white"/>
<path d="M13.1923 10.1832L11.8795 8.40793L14.3503 6.17066C14.9038 5.66203 14.4581 5.14371 13.9288 5.38178L8.36336 7.86212C7.98536 8.06665 7.83248 8.36511 7.99992 8.66988L9.3131 10.4512L6.81302 12.7124C6.32275 13.1786 6.70382 13.6947 7.26111 13.4787L12.8283 10.9988C13.1953 10.8032 13.3554 10.4586 13.1923 10.1832Z" fill="white"/>
</svg>
