<?xml version="1.0" encoding="UTF-8"?>
<svg xmlns="http://www.w3.org/2000/svg" xmlns:xlink="http://www.w3.org/1999/xlink" width="45pt" height="20pt" viewBox="0 0 45 20" version="1.1">
<g id="surface1">
<path style="fill:none;stroke-width:3;stroke-linecap:butt;stroke-linejoin:miter;stroke:rgb(0%,47.843137%,100%);stroke-opacity:1;stroke-miterlimit:4;" d="M 9.135937 3.426562 L 6.421875 7.214062 L 2.334375 13.021875 C 1.870312 13.753125 1.907812 14.151562 2.334375 14.85 L 4.134375 17.404687 L 6.909375 21.126562 C 7.439062 21.801562 7.842187 22.026563 8.882812 21.998437 L 50.240625 21.998437 C 51.54375 21.646875 51.923437 21.135938 51.998438 19.678125 L 51.998438 11.55 C 52.017187 10.65 51.890625 10.195312 51.426562 9.46875 L 50.559375 8.320312 L 47.56875 4.340625 L 46.678125 3.210938 C 45.857813 2.26875 45.285937 2.123438 44.221875 2.001562 L 11.55 2.001562 C 10.354687 2.151562 9.890625 2.573437 9.135937 3.426562 Z M 9.135937 3.426562 " transform="matrix(0.833333,0,0,0.833333,0,0)"/>
<path style=" stroke:none;fill-rule:nonzero;fill:rgb(0%,47.843137%,100%);fill-opacity:1;" d="M 37.15625 9.125 C 37.15625 6.710938 35.28125 4.75 32.96875 4.75 C 30.65625 4.75 28.78125 6.710938 28.78125 9.125 C 28.78125 11.539062 30.65625 13.5 32.96875 13.5 C 35.28125 13.5 37.15625 11.539062 37.15625 9.125 Z M 37.15625 9.125 "/>
<path style=" stroke:none;fill-rule:nonzero;fill:rgb(0%,47.843137%,100%);fill-opacity:1;" d="M 12.027344 4.75 L 23.761719 4.75 C 24.21875 4.75 24.59375 5.125 24.59375 5.585938 L 24.59375 10.917969 C 24.59375 11.375 24.21875 11.75 23.761719 11.75 L 12.027344 11.75 C 11.566406 11.75 11.195312 11.375 11.195312 10.917969 L 11.195312 5.585938 C 11.195312 5.125 11.566406 4.75 12.027344 4.75 Z M 12.027344 4.75 "/>
</g>
</svg>
