<svg width="32" height="32" viewBox="0 0 32 32" fill="none" xmlns="http://www.w3.org/2000/svg">
<path fill-rule="evenodd" clip-rule="evenodd" d="M20.368 7.6C24.16 5.712 24 0 16.8 0H16.768C11.072 0 9.808 6.4 12.992 12.24C12.3362 12.7479 11.828 13.4218 11.52 14.192C10.707 14.0902 9.92759 13.8056 9.24035 13.3594C8.55311 12.9133 7.97588 12.3172 7.552 11.616C5.664 7.824 0 8 0 15.2C0 20.912 6.304 22.16 12.208 18.992C12.734 19.6496 13.4238 20.1573 14.208 20.464C14.0899 21.2675 13.7965 22.0352 13.3486 22.7127C12.9006 23.3901 12.3091 23.9607 11.616 24.384C7.824 26.272 8 32 15.136 32C20.864 32 22.144 25.648 18.944 19.744C19.5795 19.2136 20.0787 18.5388 20.4 17.776C21.2184 17.8806 22.0028 18.1679 22.6951 18.6166C23.3875 19.0652 23.9702 19.6638 24.4 20.368C26.272 24.16 32 24 32 16.8C32 11.072 25.6 9.808 19.744 13.008C19.2167 12.3693 18.541 11.8694 17.776 11.552C17.8784 10.7393 18.1652 9.96081 18.6144 9.27589C19.0636 8.59097 19.6634 8.01775 20.368 7.6ZM16 18C17.1046 18 18 17.1046 18 16C18 14.8954 17.1046 14 16 14C14.8954 14 14 14.8954 14 16C14 17.1046 14.8954 18 16 18Z" fill="white"/>
<path d="M4.48717 1.33331C3.10795 2.37263 2.0214 3.75141 1.33333 5.33538" stroke="white" stroke-width="1.5" stroke-linecap="round" stroke-linejoin="round"/>
<path d="M30.6667 4.48715C29.6274 3.10794 28.2486 2.02139 26.6646 1.33331" stroke="white" stroke-width="1.5" stroke-linecap="round" stroke-linejoin="round"/>
<path d="M27.5128 30.6687C28.892 29.6294 29.9786 28.2506 30.6667 26.6666" stroke="white" stroke-width="1.5" stroke-linecap="round" stroke-linejoin="round"/>
<path d="M1.33333 27.5128C2.37264 28.8921 3.75142 29.9786 5.33539 30.6667" stroke="white" stroke-width="1.5" stroke-linecap="round" stroke-linejoin="round"/>
</svg>
