<svg width="154" height="100" viewBox="0 0 154 100" fill="none" xmlns="http://www.w3.org/2000/svg">
<g clip-path="url(#clip0_788_7082)">
<path d="M111.404 98.3607H109.766V100H111.404V98.3607Z" fill="black"/>
<path d="M108.127 98.3607H109.766C109.766 97.541 109.766 95.9016 109.766 95.082H108.127C108.127 95.9016 108.127 97.541 108.127 98.3607Z" fill="black"/>
<path d="M103.213 98.3607V100H104.851C104.851 99.1803 104.851 97.541 104.851 96.7213H103.213V98.3607Z" fill="black"/>
<path d="M39.3193 98.3607V100H40.9576C40.9576 99.1803 40.9576 97.541 40.9576 96.7213H39.3193V98.3607Z" fill="black"/>
<path d="M121.234 95.082C121.234 96.541 121.234 98.541 121.234 100H122.872C122.872 97.3771 122.872 94.4262 122.872 91.8033H121.234C121.234 92.623 121.234 94.2623 121.234 95.082Z" fill="black"/>
<path d="M40.9575 93.4426C40.9575 94.2623 40.9575 95.9016 40.9575 96.7213H42.5958C42.5958 95.2623 42.5958 93.2623 42.5958 91.8033H40.9575V93.4426Z" fill="black"/>
<path d="M104.851 91.8033C104.851 93.2623 104.851 95.2623 104.851 96.7213H106.489V95.082H108.128C108.128 94.2623 108.128 92.623 108.128 91.8033H106.489V90.1639H104.851V91.8033Z" fill="black"/>
<path d="M31.1277 90.1639C30.3085 90.1639 28.6702 90.1639 27.8511 90.1639V91.8033C29.8989 91.8033 32.3564 91.8033 34.4043 91.8033V90.1639C33.5851 90.1639 31.9468 90.1639 31.1277 90.1639Z" fill="black"/>
<path d="M36.0426 88.5246H34.4043V90.1639C35.8624 90.1639 37.8611 90.1639 39.3192 90.1639V88.5246C38.5 88.5246 36.8617 88.5246 36.0426 88.5246Z" fill="black"/>
<path d="M26.213 88.5246H24.5747V90.1639C25.3939 90.1639 27.0322 90.1639 27.8513 90.1639V88.5246H26.213Z" fill="black"/>
<path d="M122.872 86.8853C120.251 86.8853 117.302 86.8853 114.681 86.8853V88.5246C116.139 88.5246 118.137 88.5246 119.596 88.5246C119.596 89.3443 119.596 90.9836 119.596 91.8033H121.234C121.234 90.9836 121.234 89.3443 121.234 88.5246C122.692 88.5246 124.691 88.5246 126.149 88.5246V86.8853C125.33 86.8853 123.691 86.8853 122.872 86.8853Z" fill="black"/>
<path d="M24.5743 86.8853H22.936V88.5246H24.5743V86.8853Z" fill="black"/>
<path d="M126.149 85.2459V86.8853C126.968 86.8853 128.606 86.8853 129.426 86.8853V85.2459C128.606 85.2459 126.968 85.2459 126.149 85.2459Z" fill="black"/>
<path d="M113.042 85.2459C110.995 85.2459 108.537 85.2459 106.489 85.2459C106.489 86.7049 106.489 88.7049 106.489 90.1639H108.128C108.128 89.3443 108.128 87.7049 108.128 86.8853C110.175 86.8853 112.633 86.8853 114.681 86.8853V85.2459H113.042Z" fill="black"/>
<path d="M22.9361 85.2459H21.2979V86.8853H22.9361V85.2459Z" fill="black"/>
<path d="M131.064 83.6066H129.426V85.2459H131.064V83.6066Z" fill="black"/>
<path d="M21.298 81.9672H19.6597C19.6597 82.7869 19.6597 84.4262 19.6597 85.2459H21.298C21.298 84.4262 21.298 82.7869 21.298 81.9672Z" fill="black"/>
<path d="M131.064 81.9672V83.6066H132.702C132.702 82.7869 132.702 81.1475 132.702 80.3279H131.064V81.9672Z" fill="black"/>
<path d="M19.6598 78.6885H18.0215C18.0215 79.5082 18.0215 81.1475 18.0215 81.9672H19.6598C19.6598 81.1475 19.6598 79.5082 19.6598 78.6885Z" fill="black"/>
<path d="M132.702 78.6885V80.3279H134.34C134.34 79.5082 134.34 77.8689 134.34 77.0492H132.702V78.6885Z" fill="black"/>
<path d="M18.0211 75.4098H16.3828C16.3828 76.2295 16.3828 77.8689 16.3828 78.6885H18.0211C18.0211 77.8689 18.0211 76.2295 18.0211 75.4098Z" fill="black"/>
<path d="M134.34 75.4098V77.0492H135.979C135.979 76.2295 135.979 74.5902 135.979 73.7705H134.34V75.4098Z" fill="black"/>
<path d="M16.3829 72.1311H14.7446C14.7446 72.9508 14.7446 74.5902 14.7446 75.4098H16.3829C16.3829 74.5902 16.3829 72.9508 16.3829 72.1311Z" fill="black"/>
<path d="M135.979 72.1312V73.7705H137.617C137.617 72.9508 137.617 71.3115 137.617 70.4918H135.979V72.1312Z" fill="black"/>
<path d="M32.7661 72.1312H34.4044V70.4918H36.0427V68.8525C35.2236 68.8525 33.5853 68.8525 32.7661 68.8525C32.7661 69.6721 32.7661 71.3115 32.7661 72.1312Z" fill="black"/>
<path d="M117.958 68.8525H116.319V70.4918H117.958V68.8525Z" fill="black"/>
<path d="M14.7447 68.8525H13.1064C13.1064 69.6721 13.1064 71.3115 13.1064 72.1312H14.7447C14.7447 71.3115 14.7447 69.6721 14.7447 68.8525Z" fill="black"/>
<path d="M137.617 68.8524V70.4918H139.255C139.255 69.6721 139.255 68.0328 139.255 67.2131H137.617V68.8524Z" fill="black"/>
<path d="M32.7657 67.2131H31.1274V68.8524H32.7657V67.2131Z" fill="black"/>
<path d="M145.808 65.5738C144.989 65.5738 143.351 65.5738 142.532 65.5738V67.2131C144.58 67.2131 147.037 67.2131 149.085 67.2131V65.5738C148.266 65.5738 146.627 65.5738 145.808 65.5738Z" fill="black"/>
<path d="M117.958 65.5738C117.958 66.3934 117.958 68.0328 117.958 68.8524H119.596V67.2131H121.234V65.5738C120.415 65.5738 118.777 65.5738 117.958 65.5738Z" fill="black"/>
<path d="M31.1276 65.5738H29.4893V67.2131H31.1276V65.5738Z" fill="black"/>
<path d="M13.1062 65.5738C9.91147 65.5738 6.47105 65.5738 3.27637 65.5738V67.2131C5.89764 67.2131 8.84658 67.2131 11.4679 67.2131V68.8524H13.1062C13.1062 68.0328 13.1062 66.3934 13.1062 65.5738Z" fill="black"/>
<path d="M150.723 63.9344H149.085V65.5738H150.723V63.9344Z" fill="black"/>
<path d="M140.894 63.9344H139.255C139.255 64.7541 139.255 66.3934 139.255 67.2131H140.894V65.5738H142.532V63.9344H140.894Z" fill="black"/>
<path d="M122.872 63.9344H121.234V65.5738H122.872V63.9344Z" fill="black"/>
<path d="M116.319 63.9344H114.681V65.5738C115.5 65.5738 117.138 65.5738 117.957 65.5738V63.9344H116.319Z" fill="black"/>
<path d="M29.4894 63.9344H27.8511V65.5738H29.4894V63.9344Z" fill="black"/>
<path d="M16.383 65.5738V63.9344C15.5639 63.9344 13.9256 63.9344 13.1064 63.9344V65.5738C13.9256 65.5738 15.5639 65.5738 16.383 65.5738Z" fill="black"/>
<path d="M3.27648 63.9344H1.63818V65.5738H3.27648V63.9344Z" fill="black"/>
<path d="M137.617 62.2951H135.979V63.9344C136.798 63.9344 138.436 63.9344 139.255 63.9344V62.2951H137.617Z" fill="black"/>
<path d="M124.511 62.2951H122.873V63.9344H124.511V62.2951Z" fill="black"/>
<path d="M99.9361 62.2951H98.2979V63.9344H99.9361V62.2951Z" fill="black"/>
<path d="M27.8512 62.2951H26.2129V63.9344H27.8512V62.2951Z" fill="black"/>
<path d="M126.149 60.6557H124.511V62.2951H126.149V60.6557Z" fill="black"/>
<path d="M114.681 60.6557H113.043V62.2951H111.404V63.9344C112.223 63.9344 113.862 63.9344 114.681 63.9344C114.681 63.1147 114.681 61.4754 114.681 60.6557Z" fill="black"/>
<path d="M109.766 60.6557H108.127V62.2951C108.947 62.2951 110.585 62.2951 111.404 62.2951V60.6557H109.766Z" fill="black"/>
<path d="M99.936 60.6557V62.2951C100.755 62.2951 102.393 62.2951 103.213 62.2951V60.6557C102.393 60.6557 100.755 60.6557 99.936 60.6557Z" fill="black"/>
<path d="M26.213 60.6557H24.5747V62.2951H26.213V60.6557Z" fill="black"/>
<path d="M1.6383 60.6557V59.0164H0C0 60.4754 0 62.4754 0 63.9344H1.6383C1.6383 63.1147 1.6383 61.4754 1.6383 60.6557Z" fill="black"/>
<path d="M127.787 59.0164H126.149V60.6557H127.787V59.0164Z" fill="black"/>
<path d="M111.404 60.6557H113.043C113.043 59.8361 113.043 58.1967 113.043 57.377H111.404C111.404 58.1967 111.404 59.8361 111.404 60.6557Z" fill="black"/>
<path d="M24.5743 59.0164H22.936V60.6557H24.5743V59.0164Z" fill="black"/>
<path d="M150.724 59.0164C150.724 60.4754 150.724 62.4754 150.724 63.9344H152.362C152.362 61.8852 152.362 59.4262 152.362 57.377H150.724V59.0164Z" fill="black"/>
<path d="M129.425 57.377H127.787V59.0164H129.425V57.377Z" fill="black"/>
<path d="M108.128 57.3771C108.128 56.5574 108.128 54.918 108.128 54.0984H109.766C109.766 53.2787 109.766 51.6393 109.766 50.8197H108.128C108.128 49.3607 108.128 47.3607 108.128 45.9016H106.489C106.489 50.2131 106.489 54.7049 106.489 59.0164C105.67 59.0164 104.032 59.0164 103.213 59.0164V60.6557C104.671 60.6557 106.67 60.6557 108.128 60.6557C108.128 59.8361 108.128 58.1967 108.128 57.3771Z" fill="black"/>
<path d="M22.9361 57.377H21.2979V59.0164H22.9361V57.377Z" fill="black"/>
<path d="M3.27648 57.377H1.63818V59.0164H3.27648V57.377Z" fill="black"/>
<path d="M150.723 55.7377H149.085V57.377H150.723V55.7377Z" fill="black"/>
<path d="M131.064 55.7377H129.426V57.377H131.064V55.7377Z" fill="black"/>
<path d="M109.766 57.377H111.404C111.404 56.5574 111.404 54.918 111.404 54.0984H109.766C109.766 54.918 109.766 56.5574 109.766 57.377Z" fill="black"/>
<path d="M80.2765 55.7377H78.6382V57.377H80.2765V55.7377Z" fill="black"/>
<path d="M36.0426 55.7377H34.4043V57.377H36.0426V55.7377Z" fill="#F63F3F"/>
<path d="M21.298 55.7377H19.6597V57.377H21.298V55.7377Z" fill="black"/>
<path d="M4.91467 55.7377H3.27637V57.377H4.91467V55.7377Z" fill="black"/>
<path d="M149.085 54.0984H147.447V55.7377H149.085V54.0984Z" fill="black"/>
<path d="M132.702 54.0984H131.064V55.7377H132.702V54.0984Z" fill="black"/>
<path d="M81.9147 54.0984H80.2764V55.7377H81.9147V54.0984Z" fill="black"/>
<path d="M18.0211 55.7377H19.6594V54.0984C18.8403 54.0984 17.202 54.0984 16.3828 54.0984V55.7377H18.0211Z" fill="black"/>
<path d="M8.19163 55.7377H9.82993V54.0984C8.37185 54.0984 6.37312 54.0984 4.91504 54.0984V55.7377C5.73419 55.7377 7.37249 55.7377 8.19163 55.7377Z" fill="black"/>
<path d="M145.809 52.459H144.17V54.0984C144.99 54.0984 146.628 54.0984 147.447 54.0984V52.459H145.809Z" fill="black"/>
<path d="M132.702 52.459V54.0984C133.521 54.0984 135.16 54.0984 135.979 54.0984V52.459C135.16 52.459 133.521 52.459 132.702 52.459Z" fill="black"/>
<path d="M36.0426 52.459H34.4043V54.0984H36.0426V52.459Z" fill="#F63F3F"/>
<path d="M13.1062 54.0984C13.9253 54.0984 15.5636 54.0984 16.3828 54.0984V52.459C14.3349 52.459 11.8775 52.459 9.82959 52.459V54.0984C10.6487 54.0984 12.287 54.0984 13.1062 54.0984Z" fill="black"/>
<path d="M142.532 50.8197C140.484 50.8197 138.026 50.8197 135.979 50.8197V52.459C138.6 52.459 141.549 52.459 144.17 52.459V50.8197H142.532Z" fill="black"/>
<path d="M121.234 50.8197H119.596V52.459H121.234V50.8197Z" fill="#F63F3F"/>
<path d="M81.915 52.459V54.0984H83.5533C83.5533 53.2787 83.5533 51.6393 83.5533 50.8197H81.915V52.459Z" fill="black"/>
<path d="M36.0425 52.459H37.6808C37.6808 51.6393 37.6808 50 37.6808 49.1803H36.0425C36.0425 50 36.0425 51.6393 36.0425 52.459Z" fill="#F63F3F"/>
<path d="M72.0851 50.8197H73.7234V49.1803C72.9042 49.1803 71.2659 49.1803 70.4468 49.1803V50.8197H72.0851Z" fill="black"/>
<path d="M34.4044 49.1803H32.7661V50.8197H34.4044V49.1803Z" fill="#F63F3F"/>
<path d="M121.234 47.541V45.9016H119.596C119.596 46.7213 119.596 48.3607 119.596 49.1803H121.234V47.541Z" fill="#F63F3F"/>
<path d="M68.8087 49.1803H70.447V47.541C69.6279 47.541 67.9896 47.541 67.1704 47.541V49.1803H68.8087Z" fill="black"/>
<path d="M36.0426 47.541H34.4043V49.1803H36.0426V47.541Z" fill="#F63F3F"/>
<path d="M63.8937 47.541C64.7128 47.541 66.3511 47.541 67.1703 47.541V45.9016C65.7122 45.9016 63.7135 45.9016 62.2554 45.9016V47.541H63.8937Z" fill="black"/>
<path d="M21.2979 45.9016C21.2979 46.7213 21.2979 48.3607 21.2979 49.1803C22.117 49.1803 23.7553 49.1803 24.5744 49.1803C24.5744 48.3607 24.5744 46.7213 24.5744 45.9016C23.7553 45.9016 22.117 45.9016 21.2979 45.9016Z" fill="#F63F3F"/>
<path d="M142.532 45.9016H144.17C144.17 44.4426 144.17 42.4426 144.17 40.9836C142.712 40.9836 140.713 40.9836 139.255 40.9836C139.255 42.4426 139.255 44.4426 139.255 45.9016C140.075 45.9016 141.713 45.9016 142.532 45.9016Z" fill="#F63F3F"/>
<path d="M122.872 44.2623H121.234V45.9016H122.872V44.2623Z" fill="#F63F3F"/>
<path d="M109.766 44.2623C109.766 38.8525 109.766 33.2787 109.766 27.8689H108.127C108.127 33.8361 108.127 39.9344 108.127 45.9016H109.766V44.2623Z" fill="black"/>
<path d="M60.6168 45.9016H62.2551V44.2623C61.436 44.2623 59.7977 44.2623 58.9785 44.2623V45.9016H60.6168Z" fill="black"/>
<path d="M54.0636 44.2623H52.4253V45.9016H54.0636V44.2623Z" fill="black"/>
<path d="M124.511 42.623C124.511 41.8033 124.511 40.1639 124.511 39.3443H122.873C122.873 40.8033 122.873 42.8033 122.873 44.2623H124.511V42.623Z" fill="#F63F3F"/>
<path d="M57.3406 44.2623H58.9789V42.623C57.5208 42.623 55.5221 42.623 54.064 42.623V44.2623C54.8831 44.2623 56.5214 44.2623 57.3406 44.2623Z" fill="black"/>
<path d="M86.8297 40.9836H85.1914V42.623C86.6495 42.623 88.6482 42.623 90.1063 42.623V40.9836C89.2872 40.9836 87.6489 40.9836 86.8297 40.9836Z" fill="black"/>
<path d="M116.319 40.9836V42.623H117.958C117.958 41.8033 117.958 40.1639 117.958 39.3443H116.319V40.9836Z" fill="#F63F3F"/>
<path d="M83.5533 39.3443H81.915V40.9836C82.7342 40.9836 84.3725 40.9836 85.1916 40.9836V39.3443H83.5533Z" fill="black"/>
<path d="M121.234 37.7049C120.415 37.7049 118.777 37.7049 117.958 37.7049V39.3443C119.416 39.3443 121.414 39.3443 122.872 39.3443V37.7049H121.234Z" fill="#F63F3F"/>
<path d="M81.9147 37.7049H80.2764V39.3443H81.9147V37.7049Z" fill="black"/>
<path d="M70.4469 39.3443C71.266 39.3443 72.9043 39.3443 73.7235 39.3443V37.7049C72.2654 37.7049 70.2667 37.7049 68.8086 37.7049V39.3443H70.4469Z" fill="black"/>
<path d="M67.17 37.7049H68.8083V36.0656C67.9892 36.0656 66.3509 36.0656 65.5317 36.0656V37.7049H67.17Z" fill="black"/>
<path d="M80.2765 34.4262H78.6382C78.6382 35.2459 78.6382 36.8853 78.6382 37.7049H80.2765C80.2765 36.8853 80.2765 35.2459 80.2765 34.4262Z" fill="black"/>
<path d="M62.2555 36.0656C63.0746 36.0656 64.7129 36.0656 65.5321 36.0656V34.4262C64.074 34.4262 62.0753 34.4262 60.6172 34.4262V36.0656H62.2555Z" fill="black"/>
<path d="M98.298 32.7869C98.298 31.3279 98.298 29.3279 98.298 27.8689H96.6597C96.6597 27.0492 96.6597 25.4098 96.6597 24.5902H95.0214V22.9508C94.2023 22.9508 92.564 22.9508 91.7448 22.9508V21.3115C89.1235 21.3115 86.1746 21.3115 83.5533 21.3115V22.9508H85.1916V24.5902H83.5533V26.2295H81.915C81.915 28.8525 81.915 31.8033 81.915 34.4262H83.5533V36.0656H85.1916V37.7049H86.8299V39.3443C87.6491 39.3443 89.2874 39.3443 90.1065 39.3443V40.9836C90.9257 40.9836 92.564 40.9836 93.3831 40.9836V39.3443H95.0214V37.7049H96.6597C96.6597 36.8852 96.6597 35.2459 96.6597 34.4262H98.298V32.7869ZM95.0214 29.5082C95.0214 30.3279 95.0214 31.9672 95.0214 32.7869C94.2023 32.7869 92.564 32.7869 91.7448 32.7869C91.7448 31.3279 91.7448 29.3279 91.7448 27.8689C92.564 27.8689 94.2023 27.8689 95.0214 27.8689V29.5082Z" fill="black"/>
<path d="M78.6383 31.1475V29.5082H77C77 30.9672 77 32.9672 77 34.4262H78.6383C78.6383 33.6066 78.6383 31.9672 78.6383 31.1475Z" fill="black"/>
<path d="M18.0212 31.1475C18.0212 30.3279 18.0212 28.6885 18.0212 27.8689H19.6595V26.2295C21.7074 26.2295 24.1648 26.2295 26.2127 26.2295V27.8689H27.851C27.851 29.3279 27.851 31.3279 27.851 32.7869H26.2127V34.4262H24.5744V36.0656H22.9361V37.7049H21.2978C21.2978 39.1639 21.2978 41.1639 21.2978 42.623C22.117 42.623 23.7553 42.623 24.5744 42.623C24.5744 41.8033 24.5744 40.1639 24.5744 39.3443H26.2127V37.7049H27.851V36.0656H29.4893V34.4262H31.1276C31.1276 31.8033 31.1276 28.8525 31.1276 26.2295H29.4893V24.5902H27.851V22.9508C24.6563 22.9508 21.2159 22.9508 18.0212 22.9508V24.5902H16.3829V26.2295H14.7446C14.7446 27.6885 14.7446 29.6885 14.7446 31.1475C15.5638 31.1475 17.2021 31.1475 18.0212 31.1475Z" fill="#F63F3F"/>
<path d="M80.2765 27.8689V26.2295H78.6382C78.6382 27.0492 78.6382 28.6885 78.6382 29.5082H80.2765V27.8689Z" fill="black"/>
<path d="M119.596 26.2295C119.596 25.4098 119.596 23.7705 119.596 22.9508C118.777 22.9508 117.138 22.9508 116.319 22.9508C116.319 23.7705 116.319 25.4098 116.319 26.2295C117.138 26.2295 118.777 26.2295 119.596 26.2295Z" fill="#F63F3F"/>
<path d="M108.128 24.5902V22.9508H106.489C106.489 24.4098 106.489 26.4098 106.489 27.8689H108.128C108.128 27.0492 108.128 25.4098 108.128 24.5902Z" fill="black"/>
<path d="M81.9147 24.5902H80.2764V26.2295H81.9147V24.5902Z" fill="black"/>
<path d="M83.5533 22.9508H81.915V24.5902H83.5533V22.9508Z" fill="black"/>
<path d="M106.489 19.6721V18.0328H104.851C104.851 19.4918 104.851 21.4918 104.851 22.9508H106.489C106.489 22.1312 106.489 20.4918 106.489 19.6721Z" fill="black"/>
<path d="M39.319 19.6721H37.6807V21.3115H39.319V19.6721Z" fill="#F63F3F"/>
<path d="M60.6168 18.0328H58.9785V19.6721H60.6168V18.0328Z" fill="black"/>
<path d="M55.7023 18.0328H54.064V19.6721H55.7023V18.0328Z" fill="black"/>
<path d="M152.362 16.3934V14.7541H150.724V13.1147H149.085V11.4754C148.266 11.4754 146.628 11.4754 145.809 11.4754V9.83606C143.187 9.83606 140.239 9.83606 137.617 9.83606V11.4754C136.798 11.4754 135.16 11.4754 134.341 11.4754V13.1147H132.702V14.7541H131.064V16.3934H129.426C129.426 18.4426 129.426 20.9016 129.426 22.9508H131.064V24.5902C131.883 24.5902 133.522 24.5902 134.341 24.5902C134.341 23.1311 134.341 21.1311 134.341 19.6721H135.979V18.0328H137.617V16.3934C140.239 16.3934 143.187 16.3934 145.809 16.3934V18.0328H147.447V19.6721H149.085C149.085 20.4918 149.085 22.1311 149.085 22.9508H147.447V24.5902H145.809V26.2295H144.17V27.8688H142.532V29.5082H140.894V31.1475H139.256C139.256 32.6066 139.256 34.6066 139.256 36.0656H140.894V37.7049C141.713 37.7049 143.351 37.7049 144.17 37.7049C144.17 36.8852 144.17 35.2459 144.17 34.4262H145.809V32.7869H147.447V31.1475H149.085V29.5082H150.724V27.8688H152.362V26.2295H154C154 23.0328 154 19.5902 154 16.3934H152.362Z" fill="#F63F3F"/>
<path d="M57.3404 16.3934H55.7021V18.0328C56.5213 18.0328 58.1596 18.0328 58.9787 18.0328V16.3934H57.3404Z" fill="black"/>
<path d="M104.851 14.7541H103.213C103.213 15.5738 103.213 17.2131 103.213 18.0328H104.851C104.851 17.2131 104.851 15.5738 104.851 14.7541Z" fill="black"/>
<path d="M85.1915 14.7541H83.5532V16.3934H85.1915V14.7541Z" fill="black"/>
<path d="M78.6383 14.7541H77V16.3934H78.6383V14.7541Z" fill="black"/>
<path d="M37.6807 16.3934V18.0328H39.319C39.319 17.2131 39.319 15.5738 39.319 14.7541H37.6807V16.3934Z" fill="#F63F3F"/>
<path d="M81.9148 13.1147C81.0956 13.1147 79.4573 13.1147 78.6382 13.1147V14.7541C80.0963 14.7541 82.095 14.7541 83.5531 14.7541V13.1147H81.9148Z" fill="black"/>
<path d="M40.9576 13.1147H39.3193V14.7541H40.9576V13.1147Z" fill="#F63F3F"/>
<path d="M114.681 13.1147C114.681 12.2951 114.681 10.6557 114.681 9.83606C116.139 9.83606 118.138 9.83606 119.596 9.83606C119.596 11.2951 119.596 13.2951 119.596 14.7541H117.957V16.3934H116.319C116.319 17.8525 116.319 19.8525 116.319 21.3115C117.138 21.3115 118.777 21.3115 119.596 21.3115C119.596 20.4918 119.596 18.8525 119.596 18.0328H121.234V16.3934H122.872C122.872 13.7705 122.872 10.8197 122.872 8.19672H121.234V6.55737C118.613 6.55737 115.664 6.55737 113.043 6.55737V8.19672H111.404C111.404 9.65573 111.404 11.6557 111.404 13.1147C112.223 13.1147 113.862 13.1147 114.681 13.1147Z" fill="#F63F3F"/>
<path d="M103.213 11.4754H101.575C101.575 12.2951 101.575 13.9344 101.575 14.7541H103.213C103.213 13.9344 103.213 12.2951 103.213 11.4754Z" fill="black"/>
<path d="M101.574 9.83606H99.936V11.4754H101.574V9.83606Z" fill="black"/>
<path d="M54.0638 11.4754H52.4255V13.1147H50.7872C50.7872 13.9344 50.7872 15.5738 50.7872 16.3934H49.1489C49.1489 17.2131 49.1489 18.8525 49.1489 19.6721H47.5106C47.5106 20.4918 47.5106 22.1311 47.5106 22.9508H45.8723C45.8723 28.918 45.8723 35.0164 45.8723 40.9836H44.234C44.234 43.6066 44.234 46.5574 44.234 49.1803H45.8723C45.8723 50 45.8723 51.6393 45.8723 52.459H47.5106C47.5106 53.918 47.5106 55.918 47.5106 57.377H49.1489C49.1489 58.1967 49.1489 59.8361 49.1489 60.6557H47.5106V62.2951C46.6914 62.2951 45.0531 62.2951 44.234 62.2951V63.9344C43.4148 63.9344 41.7765 63.9344 40.9574 63.9344V65.5738H39.3191V67.2131C38.4999 67.2131 36.8616 67.2131 36.0425 67.2131V68.8525C36.8616 68.8525 38.4999 68.8525 39.3191 68.8525V70.4918H40.9574C40.9574 71.3115 40.9574 72.9508 40.9574 73.7705H42.5957C42.5957 75.8197 42.5957 78.2787 42.5957 80.3279H40.9574C40.9574 81.7869 40.9574 83.7869 40.9574 85.2459H39.3191C39.3191 86.0656 39.3191 87.7049 39.3191 88.5246C40.1382 88.5246 41.7765 88.5246 42.5957 88.5246C42.5957 89.3443 42.5957 90.9836 42.5957 91.8033H44.234C44.234 89.7541 44.234 87.2951 44.234 85.2459H45.8723C45.8723 83.7869 45.8723 81.7869 45.8723 80.3279H47.5106C47.5106 78.8689 47.5106 76.8689 47.5106 75.4098H49.1489C49.1489 73.3607 49.1489 70.9016 49.1489 68.8525H50.7872C50.7872 67.3934 50.7872 65.3934 50.7872 63.9344H52.4255C52.4255 61.8852 52.4255 59.4262 52.4255 57.377C53.2446 57.377 54.8829 57.377 55.7021 57.377V59.0164C57.1601 59.0164 59.1589 59.0164 60.6169 59.0164V57.377H58.9787V55.7377H57.3404V54.0984H55.7021V52.459H54.0638C54.0638 51.6393 54.0638 50 54.0638 49.1803H52.4255C52.4255 48.3607 52.4255 46.7213 52.4255 45.9016H50.7872C50.7872 43.2787 50.7872 40.3279 50.7872 37.7049H52.4255V36.0656H54.0638V34.4262C56.1116 34.4262 58.5691 34.4262 60.6169 34.4262V32.7869H58.9787C58.9787 31.3279 58.9787 29.3279 58.9787 27.8688H57.3404C57.3404 28.6885 57.3404 30.3279 57.3404 31.1475H55.7021C55.7021 30.3279 55.7021 28.6885 55.7021 27.8688H57.3404C57.3404 27.0492 57.3404 25.4098 57.3404 24.5902H55.7021V22.9508C54.244 22.9508 52.2452 22.9508 50.7872 22.9508C50.7872 22.1311 50.7872 20.4918 50.7872 19.6721H52.4255C52.4255 18.8525 52.4255 17.2131 52.4255 16.3934H54.0638C54.0638 15.5738 54.0638 13.9344 54.0638 13.1147H55.7021C55.7021 12.2951 55.7021 10.6557 55.7021 9.83606H54.0638V11.4754ZM50.7872 27.8688H49.1489V26.2295H50.7872V27.8688ZM47.5106 37.7049C47.5106 35.082 47.5106 32.1311 47.5106 29.5082H49.1489C49.1489 32.1311 49.1489 35.082 49.1489 37.7049H47.5106Z" fill="black"/>
<path d="M40.9575 11.4754V13.1147H42.5958C42.5958 11.6557 42.5958 9.65573 42.5958 8.19672H40.9575C40.9575 9.01639 40.9575 10.6557 40.9575 11.4754Z" fill="#F63F3F"/>
<path d="M36.0426 9.83606V8.19672H34.4043C34.4043 9.01639 34.4043 10.6557 34.4043 11.4754H36.0426V9.83606Z" fill="#F63F3F"/>
<path d="M99.9361 8.19672H98.2979V9.83606H99.9361V8.19672Z" fill="black"/>
<path d="M57.3404 8.19672H55.7021V9.83606H57.3404V8.19672Z" fill="black"/>
<path d="M98.298 6.55737H96.6597V8.19672H98.298V6.55737Z" fill="black"/>
<path d="M58.9786 6.55737H57.3403V8.19672H58.9786V6.55737Z" fill="black"/>
<path d="M39.3191 8.19672H40.9574V6.55737C39.4993 6.55737 37.5006 6.55737 36.0425 6.55737V8.19672C36.8616 8.19672 38.4999 8.19672 39.3191 8.19672Z" fill="#F63F3F"/>
<path d="M95.0211 4.91803H93.3828V6.55737C94.202 6.55737 95.8403 6.55737 96.6594 6.55737V4.91803H95.0211Z" fill="black"/>
<path d="M58.9785 4.91803V6.55737C59.7977 6.55737 61.436 6.55737 62.2551 6.55737V4.91803C61.436 4.91803 59.7977 4.91803 58.9785 4.91803Z" fill="black"/>
<path d="M91.7447 3.27869H90.1064V4.91803C90.9256 4.91803 92.5639 4.91803 93.383 4.91803V3.27869H91.7447Z" fill="black"/>
<path d="M62.2554 3.27869V4.91803C63.0745 4.91803 64.7128 4.91803 65.532 4.91803V3.27869C64.7128 3.27869 63.0745 3.27869 62.2554 3.27869Z" fill="black"/>
<path d="M88.468 1.63934C87.6489 1.63934 86.0106 1.63934 85.1914 1.63934V3.27869C86.6495 3.27869 88.6482 3.27869 90.1063 3.27869V1.63934H88.468Z" fill="black"/>
<path d="M67.17 1.63934H65.5317V3.27869C66.9898 3.27869 68.9885 3.27869 70.4466 3.27869V1.63934C69.6275 1.63934 67.9892 1.63934 67.17 1.63934Z" fill="black"/>
<path d="M83.5532 0C79.2444 0 74.7555 0 70.4468 0V1.63934C75.3125 1.63934 80.3257 1.63934 85.1915 1.63934V0H83.5532Z" fill="black"/>
</g>
<defs>
<clipPath id="clip0_788_7082">
<rect width="154" height="100" fill="white"/>
</clipPath>
</defs>
</svg>
