<svg width="42" height="24" viewBox="0 0 42 24" fill="none" xmlns="http://www.w3.org/2000/svg">
<path d="M6.97885 4.21049C7.58029 3.29869 8.59953 2.75 9.69181 2.75H34.4303C35.5326 2.75 36.5597 3.30868 37.1586 4.23401L40.7283 9.74894C41.0688 10.275 41.25 10.8883 41.25 11.5149V18C41.25 19.7949 39.7949 21.25 38 21.25H9.34742C8.41312 21.25 7.52401 20.8479 6.90698 20.1463L2.5807 15.2272C1.61287 14.1268 1.50125 12.5147 2.30818 11.2914L6.97885 4.21049Z" stroke="#F63F3F" stroke-width="1.5"/>
<path d="M22.5533 16.8284C22.7542 16.6274 22.8671 16.3549 22.8671 16.0708C22.8671 15.7866 22.7542 15.5141 22.5533 15.3132C22.3524 15.1123 22.0799 14.9994 21.7957 14.9994C21.5115 14.9994 21.239 15.1123 21.0381 15.3132C20.8372 15.5141 20.7243 15.7866 20.7243 16.0708C20.7243 16.3549 20.8372 16.6274 21.0381 16.8284C21.239 17.0293 21.5115 17.1422 21.7957 17.1422C22.0799 17.1422 22.3524 17.0293 22.5533 16.8284Z" fill="#F63F3F"/>
<path d="M21.7957 8.57114C21.0097 8.57114 20.4243 8.9654 20.1971 9.39738C20.1465 9.4999 20.076 9.59126 19.9896 9.6661C19.9031 9.74094 19.8026 9.79773 19.6939 9.83314C19.5852 9.86854 19.4705 9.88185 19.3566 9.87228C19.2427 9.8627 19.1319 9.83043 19.0306 9.77738C18.9293 9.72432 18.8397 9.65154 18.767 9.56333C18.6943 9.47512 18.64 9.37325 18.6072 9.26373C18.5745 9.15421 18.564 9.03924 18.5763 8.9256C18.5887 8.81195 18.6236 8.70192 18.6791 8.60199C19.2457 7.52119 20.4731 6.85693 21.7957 6.85693C23.5357 6.85693 25.2243 8.0603 25.2243 9.85679C25.2243 11.3541 24.0517 12.4401 22.6528 12.7598V12.8566C22.6528 13.084 22.5625 13.302 22.4018 13.4627C22.241 13.6234 22.023 13.7137 21.7957 13.7137C21.5684 13.7137 21.3504 13.6234 21.1896 13.4627C21.0289 13.302 20.9386 13.084 20.9386 12.8566V11.9995C20.9386 11.7722 21.0289 11.5542 21.1896 11.3935C21.3504 11.2327 21.5684 11.1424 21.7957 11.1424C22.8954 11.1424 23.51 10.4268 23.51 9.85679C23.51 9.28682 22.8954 8.57114 21.7957 8.57114Z" fill="#F63F3F"/>
</svg>
