<svg width="42" height="24" viewBox="0 0 42 24" fill="none" xmlns="http://www.w3.org/2000/svg">
<path d="M9.69181 2.75H34.4303C35.5326 2.75 36.5597 3.30868 37.1586 4.23401L40.7283 9.74894C41.0688 10.275 41.25 10.8883 41.25 11.5149V18C41.25 19.7949 39.7949 21.25 38 21.25H9.34742C8.41312 21.25 7.52401 20.8479 6.90698 20.1463L2.5807 15.2272C1.61287 14.1268 1.50125 12.5147 2.30818 11.2914L6.97885 4.21049C7.58029 3.29869 8.59953 2.75 9.69181 2.75Z" stroke="#F63F3F" stroke-width="1.5"/>
<path d="M26.2906 7.70937C26.1565 7.57531 25.9747 7.5 25.785 7.5C25.5954 7.5 25.4136 7.57531 25.2795 7.70937L22 10.9888L18.7205 7.70937C18.5864 7.57531 18.4046 7.5 18.215 7.5C18.0253 7.5 17.8435 7.57531 17.7094 7.70937C17.5753 7.84347 17.5 8.02533 17.5 8.21495C17.5 8.40457 17.5753 8.58643 17.7094 8.72053L20.9888 12L17.7094 15.2795C17.5753 15.4136 17.5 15.5954 17.5 15.785C17.5 15.9747 17.5753 16.1565 17.7094 16.2906C17.8435 16.4247 18.0253 16.5 18.215 16.5C18.4046 16.5 18.5864 16.4247 18.7205 16.2906L22 13.0112L25.2795 16.2906C25.4136 16.4247 25.5954 16.5 25.785 16.5C25.9747 16.5 26.1565 16.4247 26.2906 16.2906C26.4247 16.1565 26.5 15.9747 26.5 15.785C26.5 15.5954 26.4247 15.4136 26.2906 15.2795L23.0112 12L26.2906 8.72053C26.4247 8.58643 26.5 8.40457 26.5 8.21495C26.5 8.02533 26.4247 7.84347 26.2906 7.70937V7.70937Z" fill="#F63F3F"/>
</svg>
